<?xml version="1.0" standalone="no"?>
<!DOCTYPE svg PUBLIC "-//W3C//DTD SVG 1.1//EN" "http://www.w3.org/Graphics/SVG/1.1/DTD/svg11.dtd" >
<svg xmlns="http://www.w3.org/2000/svg" xmlns:xlink="http://www.w3.org/1999/xlink" version="1.1">
<metadata>
Created by FontForge 20170731 at Sun Apr  4 19:57:59 2021
 By Aleksey,,,
Copyright (c) 2013, Natanael Gama (www.ndiscovered.com . info(at)ndiscovered.com), with Reserved Font Name Exo. This Font Software is licensed under the SIL Open Font License, Version 1.1.
</metadata>
<defs>
<font id="Exo2.0-BlackItalic" horiz-adv-x="1433" >
  <font-face 
    font-family="Exo 2.0 Black"
    font-weight="900"
    font-style="italic"
    font-stretch="normal"
    units-per-em="2048"
    panose-1="0 0 10 0 0 0 0 0 0 0"
    ascent="1638"
    descent="-410"
    x-height="1024"
    cap-height="1413"
    bbox="-442 -637 2843 1982"
    underline-thickness="102"
    underline-position="-307"
    slope="-8"
    unicode-range="U+0020-FB02"
  />
<missing-glyph horiz-adv-x="1228" 
 />
    <glyph glyph-name="fi" unicode="fi" horiz-adv-x="1478" 
d="M1196 1513h178q65 0 96.5 -35.5t22.5 -99.5l-14 -104q-9 -65 -38 -92t-91 -27h-181q-65 0 -96 35.5t-24 99.5l16 105q8 65 37.5 91.5t93.5 26.5zM1442 1024l-144 -1024h-430l107 766h-338l-125 -832q-23 -156 -114 -240.5t-275 -84.5q-97 0 -316 31l66 256h100
q62 0 89 25t36 89l113 756h-166l33 248l172 10l20 133q23 156 113.5 241t275.5 85q71 0 172 -8.5t162 -22.5l-63 -256h-121q-61 0 -88.5 -25t-36.5 -90l-8 -57h766z" />
    <glyph glyph-name="fl" unicode="fl" horiz-adv-x="1552" 
d="M1483 299l20 -279q-42 -25 -129 -37t-151 -12q-161 0 -245 80t-65 215l134 936h-244q-56 0 -86 -28.5t-39 -92.5l-8 -57h225l-37 -258h-223l-117 -832q-22 -155 -113 -240t-274 -85q-96 0 -315 31l63 256h101q61 0 88 24.5t36 89.5l105 756h-168l31 248l174 10l18 133
q22 156 113 241t276 85q582 0 844 -51l-139 -1067q-6 -40 5.5 -53t53.5 -13h66z" />
    <glyph glyph-name="f_f" unicode="ff" horiz-adv-x="1654" 
d="M1759 1196h-164q-61 0 -88.5 -25t-36.5 -90l-8 -57h240l-35 -258h-246l-123 -801q-23 -156 -114 -240.5t-275 -84.5q-103 0 -317 30l65 256h101q64 0 93 25t38 90l108 725h-360l-125 -832q-23 -156 -114 -240.5t-275 -84.5q-96 0 -318 31l66 256h100q65 0 93.5 25
t37.5 89l111 756h-168l31 248l174 10l16 113q23 156 114 240.5t275 84.5q73 0 175 -8t163 -22l-65 -256h-123q-61 0 -88.5 -25t-36.5 -90l-6 -37h362l21 133q23 156 114.5 241t274.5 85q79 0 194.5 -8.5t184.5 -22.5z" />
    <glyph glyph-name="f_f_i" unicode="ffi" horiz-adv-x="2254" 
d="M1972 1513h178q65 0 96.5 -35.5t22.5 -99.5l-14 -104q-9 -65 -38 -92t-91 -27h-180q-65 0 -96.5 35.5t-24.5 99.5l16 105q8 65 37.5 91.5t93.5 26.5zM2220 1024l-143 -1024h-430l106 766h-332l-123 -801q-23 -156 -114 -240.5t-275 -84.5q-103 0 -317 30l65 256h101
q64 0 93 25t38 90l108 725h-360l-125 -832q-23 -156 -114 -240.5t-275 -84.5q-96 0 -318 31l66 256h100q65 0 93.5 25t37.5 89l111 756h-168l31 248l174 10l16 113q23 156 114 240.5t275 84.5q73 0 175 -8t163 -22l-65 -256h-123q-61 0 -88.5 -25t-36.5 -90l-6 -37h362
l21 133q23 156 114.5 241t274.5 85q68 0 164 -8.5t153 -22.5l-65 -256h-103q-61 0 -88.5 -25t-36.5 -90l-8 -57h758z" />
    <glyph glyph-name="f_f_l" unicode="ffl" horiz-adv-x="2357" 
d="M2269 299l21 -279q-42 -25 -129 -37t-152 -12q-161 0 -244.5 80t-64.5 215l133 936h-244q-56 0 -86 -28.5t-39 -92.5l-8 -57h225l-34 -258h-228l-114 -801q-22 -155 -113 -240t-274 -85q-104 0 -316 30l64 256h100q61 0 88.5 25t36.5 90l104 725h-358l-125 -832
q-23 -156 -114 -240.5t-275 -84.5q-96 0 -318 31l66 256h100q65 0 93.5 25t37.5 89l111 756h-168l31 248l174 10l16 113q23 156 114 240.5t275 84.5q73 0 175 -8t163 -22l-65 -256h-123q-61 0 -88.5 -25t-36.5 -90l-6 -37h358l19 133q22 156 113 241t276 85q582 0 844 -51
l-140 -1067q-6 -40 5.5 -53t54.5 -13h65z" />
    <glyph glyph-name=".notdef" horiz-adv-x="1228" 
 />
    <glyph glyph-name=".null" horiz-adv-x="0" 
 />
    <glyph glyph-name="nonmarkingreturn" horiz-adv-x="682" 
 />
    <glyph glyph-name="space" unicode=" " horiz-adv-x="430" 
 />
    <glyph glyph-name="exclam" unicode="!" horiz-adv-x="671" 
d="M598 944l-113 -479h-335l22 479l66 479h426zM254 379h82q74 0 112.5 -40.5t28.5 -115.5l-12 -84q-9 -73 -48 -106t-116 -33h-82q-79 0 -114.5 40t-26.5 116l10 84q20 139 166 139z" />
    <glyph glyph-name="quotedbl" unicode="&#x22;" horiz-adv-x="806" 
d="M391 946h-246l41 467h295zM758 946h-246l41 467h295z" />
    <glyph glyph-name="numbersign" unicode="#" horiz-adv-x="1521" 
d="M1233 827l-64 -204h226l-86 -250h-219l-117 -373h-322l117 373h-193l-116 -373h-322l117 373h-242l86 250h236l63 204h-233l84 250h227l107 336h321l-106 -336h192l107 336h321l-106 -336h233l-84 -250h-227zM911 827h-192l-64 -204h193z" />
    <glyph glyph-name="dollar" unicode="$" horiz-adv-x="1193" 
d="M1206 1368l-41 -283q-303 5 -485 5q-64 0 -90.5 -12.5t-32.5 -45.5q-5 -25 11 -44.5t73 -47.5l225 -113q164 -84 216 -181t34 -259q-13 -119 -46 -196.5t-97 -126.5t-157 -70t-234 -23l-47 -192h-318l51 213q-143 17 -268 51l43 309q378 -10 477 -10q83 0 115.5 13
t40.5 46q6 26 -7 43.5t-53 36.5l-247 127q-85 44 -139.5 94.5t-79.5 103t-33 112.5t2 124q24 214 146.5 302.5t379.5 97.5l49 178h320l-53 -195q141 -20 245 -57z" />
    <glyph glyph-name="percent" unicode="%" horiz-adv-x="1882" 
d="M506 1442q140 0 219.5 -39.5t110.5 -136.5t8 -262q-17 -121 -45 -197.5t-77 -124t-116 -66t-170 -18.5q-82 0 -141.5 13.5t-104.5 44.5t-67 81.5t-29.5 124.5t8.5 174q17 121 44.5 197.5t76.5 124t115.5 66t167.5 18.5zM598 0h-266l977 1413h266zM498 1219q-28 0 -41 -15
t-22.5 -56t-22.5 -144q-9 -66 -12 -98.5t1 -53.5t14 -26t31 -5q30 0 44 15t23.5 56.5t21.5 143.5q12 123 6.5 153t-43.5 30zM1470 815q140 0 219.5 -39.5t110.5 -136.5t8 -262q-17 -121 -44.5 -197.5t-76.5 -124t-116 -66t-170 -18.5q-138 0 -216.5 39.5t-109.5 137
t-8 262.5q17 121 44.5 197.5t76 123.5t115 65.5t167.5 18.5zM1462 592q-28 0 -41 -15t-22.5 -56t-22.5 -144q-6 -44 -9 -71t-3.5 -49t1.5 -33t8.5 -18t15 -9t22.5 -2q43 0 57 34.5t31 180.5q12 123 6.5 152.5t-43.5 29.5z" />
    <glyph glyph-name="ampersand" unicode="&#x26;" horiz-adv-x="1554" 
d="M1522 590h-156q-20 -108 -66 -207q-43 -96 -105.5 -169.5t-152.5 -129t-215.5 -84.5t-283.5 -29q-290 0 -412.5 100.5t-97.5 305.5q19 151 98.5 247t224.5 103l2 12q-101 9 -154.5 111t-29.5 231q17 93 55 159t88 105t125 61t148 29t174 7q208 0 350 -49l-67 -285
q-167 25 -269 25q-91 0 -125.5 -25t-44.5 -109q-10 -82 12.5 -111.5t86.5 -29.5h340q8 97 10 170h352q0 -87 -6 -170h158zM999 590h-331q-72 0 -111 -33t-49 -121q-9 -72 25.5 -100.5t113.5 -28.5q52 0 93.5 8t84 29t78.5 61.5t64 100.5q15 31 32 84z" />
    <glyph glyph-name="quotesingle" unicode="'" horiz-adv-x="440" 
d="M391 946h-246l41 467h295z" />
    <glyph glyph-name="parenleft" unicode="(" horiz-adv-x="763" 
d="M827 1620l52 -186q-312 -119 -408 -809q-27 -200 -28 -356t46.5 -267t145.5 -156l-53 -174q-325 88 -454 328.5t-69 654.5q59 415 242 647t526 318z" />
    <glyph glyph-name="parenright" unicode=")" horiz-adv-x="763" 
d="M143 1434l52 176q325 -86 452.5 -327t69.5 -660q-59 -412 -242 -644t-526 -319l-51 186q311 129 407 811q27 205 28.5 361.5t-45.5 265t-145 150.5z" />
    <glyph glyph-name="asterisk" unicode="*" horiz-adv-x="935" 
d="M616 1059l195 -264l-193 -136l-96 244l-164 -244l-174 136l271 262l14 360h233zM426 1171l-6 -100l-64 -59l-241 47l90 219zM954 1057l-249 -53l-52 65l23 100l233 107z" />
    <glyph glyph-name="plus" unicode="+" horiz-adv-x="1064" 
d="M993 463h-323l-45 -324h-314l45 324h-323l47 317h323l46 324h313l-45 -324h323z" />
    <glyph glyph-name="comma" unicode="," horiz-adv-x="526" 
d="M190 379h74q83 0 115 -36t22 -120l-18 -131q-15 -109 -67 -231t-117 -199l-174 66q12 26 22 53.5t20 60t15.5 53t16 60t14.5 53.5q-66 -1 -90.5 30.5t-16.5 100.5l14 94q12 82 51.5 114t118.5 32z" />
    <glyph glyph-name="hyphen" unicode="-" horiz-adv-x="782" 
d="M662 401h-596l36 250h596z" />
    <glyph glyph-name="period" unicode="." horiz-adv-x="522" 
d="M182 379h82q74 0 113 -40.5t29 -115.5l-13 -84q-9 -73 -48 -106t-116 -33h-82q-79 0 -114.5 40t-26.5 116l10 84q20 139 166 139z" />
    <glyph glyph-name="slash" unicode="/" horiz-adv-x="1222" 
d="M274 -162h-346l1026 1575h346z" />
    <glyph glyph-name="zero" unicode="0" horiz-adv-x="1343" 
d="M764 1442q112 0 196.5 -16t151.5 -52.5t107 -94.5t63.5 -141.5t21.5 -194.5t-20 -253q-20 -141 -46.5 -245.5t-66.5 -186.5t-90.5 -135.5t-121 -88t-156 -49t-197.5 -14.5q-91 0 -164.5 12t-135 38t-106 67t-75 100t-44.5 137t-13 177t18 221q30 211 77.5 346.5
t129.5 220t193.5 118.5t277.5 34zM743 1112q-47 0 -74.5 -8t-51.5 -28.5t-39 -68.5t-28 -115t-28 -181q-13 -99 -19 -159.5t-5.5 -110.5t7 -74t24 -41t40 -21t60.5 -4q40 0 64.5 4t47.5 20t36.5 41t27 73t23 108t20.5 155q12 98 17.5 159t5 110.5t-7 74.5t-23.5 41.5
t-38.5 20.5t-58.5 4z" />
    <glyph glyph-name="one" unicode="1" horiz-adv-x="960" 
d="M729 0h-442l131 893q14 105 39 182l-332 -71l-37 264l412 145h428z" />
    <glyph glyph-name="two" unicode="2" horiz-adv-x="1208" 
d="M168 1067l8 328q244 43 500 43q112 0 192 -9.5t144.5 -34t101 -66.5t51.5 -106t6 -153q-11 -109 -63.5 -200t-181.5 -201l-379 -326q87 31 196 31h373l-49 -373h-1090l33 229q8 61 23 100.5t49 76.5l338 288q38 35 84.5 77t70 63.5t52.5 48.5t42.5 41.5t27.5 32.5
t20.5 32t9.5 29q7 31 -13 42t-79 11q-268 0 -467 -4z" />
    <glyph glyph-name="three" unicode="3" horiz-adv-x="1169" 
d="M186 1104v301q236 37 471 37q129 0 217 -16.5t150 -55.5t87.5 -106.5t16.5 -167.5q-5 -65 -21.5 -120t-48 -103.5t-85 -79.5t-125.5 -39l-2 -9q144 -19 196.5 -101.5t36.5 -225.5q-27 -238 -180 -342.5t-442 -104.5q-202 0 -469 41l28 310q171 -11 375 -11
q132 0 188 43.5t68 116.5q14 71 -8 98t-98 27h-297l35 266h288q84 0 112.5 32.5t33.5 111.5q2 37 -3.5 55.5t-32.5 30.5t-83 12h-408z" />
    <glyph glyph-name="four" unicode="4" horiz-adv-x="1337" 
d="M1296 569l-32 -241l-142 -41h-6l-41 -287h-403l39 287h-547q-103 0 -146 67.5t-2 151.5l471 907h420l-401 -801q-9 -17 -11 -25.5t3 -13t20 -4.5h232l47 349l100 217h338l-80 -566h141z" />
    <glyph glyph-name="five" unicode="5" horiz-adv-x="1144" 
d="M1098 1096h-541l-37 -162l170 -21q75 -10 136 -31.5t102 -50t72 -63.5t46 -72.5t25 -77.5t7.5 -78.5t-5.5 -74.5q-15 -106 -53.5 -188t-107.5 -149t-182 -106.5t-265 -46.5q-72 -4 -162.5 1.5t-149.5 13t-173 22.5l55 330q227 -20 350 -12q117 6 176.5 41t75.5 123
q10 56 -22 74.5t-136 31.5l-229 35q-65 9 -100 56t-23 108l121 614h907z" />
    <glyph glyph-name="six" unicode="6" horiz-adv-x="1236" 
d="M1161 1128h-354q-90 0 -138 -21.5t-77 -76.5t-53 -170q117 74 252 74q125 0 206 -26.5t125.5 -81t55 -139t-6.5 -200.5q-40 -279 -173.5 -395.5t-426.5 -116.5q-111 0 -192.5 15t-144 50t-100 90t-55.5 138t-16 191.5t23 251.5q20 136 47 240.5t60 181.5t79 131t95 88
t116.5 53t136 26t160.5 7q217 0 410 -47zM760 510q5 38 5 61t-4 38.5t-17.5 22.5t-29.5 9t-46 2q-86 0 -176 -51q-12 -76 -18 -120t-6 -83t5.5 -56t21.5 -30t37 -15.5t58 -2.5q47 0 75.5 10.5t47 40.5t28 67t19.5 107z" />
    <glyph glyph-name="seven" unicode="7" horiz-adv-x="1122" 
d="M137 1413h897q115 0 155 -60.5t-5 -154.5l-600 -1198h-437l455 905q38 80 107 158h-598z" />
    <glyph glyph-name="eight" unicode="8" horiz-adv-x="1298" 
d="M350 729l2 8q-77 13 -122.5 61.5t-58.5 118t-1 160.5q17 132 72 209t172.5 116.5t314.5 39.5q162 0 269.5 -25t165.5 -76.5t76 -123t3 -173.5q-44 -278 -272 -307l-2 -8q265 -28 213 -393q-19 -137 -73 -213.5t-174.5 -115t-332.5 -38.5q-177 0 -294 25t-180.5 77.5
t-84.5 124t-10 173.5q6 56 19 104t37.5 94.5t59 80t86 55.5t115.5 26zM729 1155q-88 0 -122.5 -31.5t-47.5 -138.5q-8 -72 13 -94.5t110 -22.5q88 0 119.5 28t44.5 122q12 87 -10.5 112t-106.5 25zM641 598q-47 0 -73.5 -5t-51.5 -23t-37.5 -54.5t-19.5 -97.5
q-9 -83 18 -110t125 -27q47 0 74 5.5t50 23.5t34.5 51.5t19.5 89.5q12 93 -14.5 120t-124.5 27z" />
    <glyph glyph-name="nine" unicode="9" horiz-adv-x="1239" 
d="M66 287h397q126 0 185 58.5t89 207.5q-116 -78 -276 -78q-72 0 -130.5 15.5t-97.5 42t-67.5 64t-43 78.5t-21 88.5t-5.5 90.5t8 88q14 95 30.5 160.5t46.5 124.5t72 95t105 63t148.5 38t200.5 11q114 0 195.5 -14.5t143 -49t96.5 -88.5t51 -138t12.5 -191.5t-23.5 -254.5
q-24 -174 -60.5 -295.5t-89.5 -206.5t-132 -134t-178 -70t-237 -21q-241 0 -448 47zM510 961q-12 -121 4 -158t82 -37q99 0 176 43q22 193 18 238q-5 54 -43 68q-25 9 -81 9q-85 0 -115.5 -31t-40.5 -132z" />
    <glyph glyph-name="colon" unicode=":" horiz-adv-x="563" 
d="M250 946h82q74 0 112.5 -40t28.5 -115l-12 -84q-9 -73 -48 -106.5t-116 -33.5h-82q-79 0 -114.5 40t-26.5 116l10 84q20 139 166 139zM170 381h82q74 0 112.5 -40.5t28.5 -115.5l-12 -84q-9 -73 -48 -106t-116 -33h-82q-79 0 -114.5 40t-26.5 116l10 84q20 139 166 139z
" />
    <glyph glyph-name="semicolon" unicode=";" horiz-adv-x="559" 
d="M281 946h81q74 0 113 -40t29 -115l-12 -84q-9 -73 -48 -106.5t-116 -33.5h-82q-79 0 -115 40t-27 116l11 84q20 139 166 139zM209 379h74q83 0 115 -36t22 -120l-19 -131q-15 -109 -67 -231t-117 -199l-174 66q12 26 22 53.5t20 60t15.5 53t16 60t14.5 53.5
q-66 -1 -90 30.5t-16 100.5l14 94q12 82 51.5 114t118.5 32z" />
    <glyph glyph-name="less" unicode="&#x3c;" horiz-adv-x="1030" 
d="M967 766l-549 -141l504 -158l-43 -332l-846 322l45 329l934 324z" />
    <glyph glyph-name="equal" unicode="=" horiz-adv-x="1169" 
d="M1085 674h-979l46 315h978zM1022 240h-979l49 315h979z" />
    <glyph glyph-name="greater" unicode="&#x3e;" horiz-adv-x="1024" 
d="M997 786l-45 -329l-927 -326l47 342l542 162l-495 162l39 311z" />
    <glyph glyph-name="question" unicode="?" horiz-adv-x="1105" 
d="M154 1118v285q14 3 60.5 12t59 11t52 8.5t58.5 8.5t58.5 6t72 5t78 2.5t97.5 1.5q246 0 356 -82.5t87 -251.5q-8 -59 -33.5 -109.5t-60.5 -90t-76 -76t-84.5 -75.5t-83 -81t-74 -100t-53.5 -125h-336q8 88 39 170.5t73 143t83 109.5t77.5 91t48.5 66q12 23 13.5 37.5
t-8.5 21.5t-25.5 9.5t-44.5 2.5h-434zM444 379h82q75 0 114.5 -40.5t29.5 -115.5l-13 -84q-9 -73 -47 -106t-114 -33h-84q-79 0 -115.5 40t-28.5 116l13 84q17 139 163 139z" />
    <glyph glyph-name="at" unicode="@" horiz-adv-x="1683" 
d="M160 1055l18 266q305 16 696 20q136 1 232 -3t183 -17.5t142 -35t100 -59.5t66.5 -87t31.5 -121.5t5 -159t-22 -203.5q-16 -109 -28.5 -177.5t-31.5 -145t-39.5 -120.5t-53 -90.5t-72.5 -70.5t-96.5 -44.5t-126 -28t-160.5 -7.5q-145 0 -230 52t-119 135
q-124 -183 -307 -183q-176 0 -252.5 124.5t-36.5 373.5q14 86 35.5 153.5t47 115.5t61 82t72 55t85 33t94.5 16t107 4q202 0 545 -58l-90 -555q-11 -71 43 -71q81 0 106.5 56t65.5 287q9 52 14 81q13 75 20 125t3.5 93.5t-8.5 68.5t-32 45.5t-48.5 29t-77 14.5t-99.5 6.5
t-133 0.5h-710zM692 672h-90q-33 0 -52 -4.5t-42 -23.5t-40 -64.5t-30 -120.5q-9 -49 -10.5 -81.5t1 -51t13.5 -28t22 -11.5t32 -2q43 0 78.5 32t74.5 103z" />
    <glyph glyph-name="A" unicode="A" horiz-adv-x="1388" 
d="M856 299h-385l-111 -299h-460l544 1307q41 106 156 106h401q54 0 95 -35.5t47 -87.5l182 -1290h-444zM831 623l-24 305q-6 54 -2 157h-57q-14 -79 -41 -153l-115 -309h239z" />
    <glyph glyph-name="B" unicode="B" horiz-adv-x="1345" 
d="M23 0l198 1413q214 17 580 17q145 0 240.5 -18.5t157.5 -62.5t83 -118.5t6 -186.5q-21 -152 -84.5 -222.5t-206.5 -82.5l-2 -12q163 -13 225 -112t37 -279q-15 -106 -51 -174.5t-104.5 -108t-159.5 -54.5t-229 -15q-460 0 -690 16zM578 866h137q78 0 107 28t42 120
q9 62 -7.5 85t-70.5 23h-172zM498 291h129q99 0 135 32t51 136q12 86 -8.5 112.5t-97.5 26.5h-166z" />
    <glyph glyph-name="C" unicode="C" horiz-adv-x="1234" 
d="M1116 367l17 -326q-116 -36 -226.5 -51t-263.5 -15q-240 0 -373 71t-179 234.5t-7 442.5q20 145 47.5 251t69.5 187t94.5 133t128.5 85t165.5 46t211.5 13q152 0 254 -13.5t211 -44.5l-52 -321q-300 4 -436 4q-47 0 -76 -7t-55 -27.5t-42.5 -63.5t-30.5 -107.5
t-27 -167.5q-22 -137 -20 -212.5t31 -101.5t106 -26q266 0 452 17z" />
    <glyph glyph-name="D" unicode="D" 
d="M23 0l198 1413q276 21 576 21q101 0 181 -10.5t149 -35t118 -64t84 -97.5t51.5 -135t17 -177.5t-17.5 -224.5q-31 -216 -78.5 -350t-134 -216.5t-205.5 -113t-305 -30.5q-321 0 -634 20zM510 303l141 -2q56 0 94 16.5t71.5 61.5t56.5 129t40 215q24 155 19.5 241.5
t-37 117t-113.5 30.5h-159z" />
    <glyph glyph-name="E" unicode="E" horiz-adv-x="1202" 
d="M1194 1081h-492q-52 0 -75 -18t-29 -64l-18 -129h510l-37 -295h-514l-23 -163q-12 -80 76 -80h491l-8 -316q-36 -5 -79.5 -9t-78.5 -6.5t-91.5 -4t-85.5 -2.5t-95 -1.5t-86 -0.5h-93h-83q-171 0 -255 107t-62 278l102 731q21 145 114.5 229t247.5 84q516 0 713 -28z" />
    <glyph glyph-name="F" unicode="F" horiz-adv-x="1161" 
d="M1186 1081h-471q-56 0 -80.5 -18t-30.5 -64l-22 -157h493l-37 -295h-497l-76 -547h-447l156 1108q20 145 117.5 229t243.5 84q506 0 700 -30z" />
    <glyph glyph-name="G" unicode="G" horiz-adv-x="1372" 
d="M903 813h424l-115 -813h-325l-17 164q-189 -193 -413 -193q-86 0 -153 24t-121 77.5t-81.5 140.5t-34.5 214t19 296q21 147 52 256t78.5 189.5t106.5 133t141.5 84t176.5 44t219 12.5q273 0 473 -62l-49 -317q-308 4 -455 4q-133 0 -189.5 -78.5t-90.5 -298.5
q-17 -108 -20 -171.5t11 -102.5t42.5 -52.5t81.5 -13.5q44 0 83 12t57 22.5t44 29.5z" />
    <glyph glyph-name="H" unicode="H" horiz-adv-x="1443" 
d="M1450 1413l-199 -1413h-444l84 592h-338l-84 -592h-444l198 1413h445l-72 -506h338l72 506h444z" />
    <glyph glyph-name="I" unicode="I" horiz-adv-x="659" 
d="M467 0h-442l198 1413h443z" />
    <glyph glyph-name="J" unicode="J" horiz-adv-x="808" 
d="M819 1413l-160 -1161q-20 -136 -119 -208.5t-257 -72.5q-85 0 -186.5 16t-145.5 42l69 274h76q122 0 131 80l150 1030h442z" />
    <glyph glyph-name="K" unicode="K" horiz-adv-x="1368" 
d="M942 702l-2 -8q28 -12 60.5 -54t52.5 -89l245 -551h-479l-219 590h-63q8 -66 -2 -137l-64 -453h-446l198 1413h447l-56 -391q-10 -77 -32 -145h67l344 536h492l-395 -590q-55 -86 -148 -121z" />
    <glyph glyph-name="L" unicode="L" horiz-adv-x="1130" 
d="M662 1413l-146 -979q-5 -46 11 -64t63 -18h467l-8 -334q-196 -26 -678 -26q-154 0 -242 94t-66 236l152 1091h447z" />
    <glyph glyph-name="M" unicode="M" horiz-adv-x="1939" 
d="M1360 1413h395q75 0 114 -43.5t32 -118.5l-127 -1251h-400l111 1081h-29l-237 -729q-20 -67 -63 -97t-116 -30h-225q-71 0 -113 38.5t-45 105.5l-39 712h-32l-187 -1081h-399l227 1268q14 76 51 110.5t111 34.5h377q70 0 111.5 -38.5t42.5 -106.5l24 -561q5 -95 -4 -211
h21q11 55 51 206l172 582q18 68 61 98.5t115 30.5z" />
    <glyph glyph-name="N" unicode="N" horiz-adv-x="1495" 
d="M1503 1413l-178 -1268q-11 -75 -49 -110t-113 -35h-147q-63 0 -93 31t-65 106l-242 486q-38 76 -71 233h-15q3 -147 -12 -262l-88 -594h-407l178 1268q11 76 49 110.5t112 34.5h148q33 0 56.5 -8.5t42 -31t28.5 -40t29 -57.5l237 -461q52 -106 86 -244h17q-11 123 4 240
l86 602h407z" />
    <glyph glyph-name="O" unicode="O" 
d="M797 1442q90 0 162.5 -8t136.5 -26.5t112 -48.5t85.5 -72.5t61 -100t35 -131t9.5 -164.5t-17 -201q-20 -146 -49.5 -255.5t-74.5 -189.5t-100 -132.5t-132 -84t-164 -44.5t-203 -13q-107 0 -190 11t-151.5 36t-115.5 66t-79 98.5t-45.5 137t-12 178.5t18.5 225
q24 173 63.5 295.5t95 205.5t137.5 130.5t181 67.5t236 20zM793 1112q-47 0 -78 -11t-56.5 -36t-43.5 -76t-33.5 -120t-32.5 -179q-16 -100 -21 -165.5t-0.5 -111t23 -69t46 -33.5t73.5 -10q48 0 80 11t57 36t43.5 76.5t33 119.5t31.5 179q19 124 22.5 197t-11.5 117.5
t-45.5 59.5t-87.5 15z" />
    <glyph glyph-name="P" unicode="P" horiz-adv-x="1306" 
d="M23 0l198 1413q215 21 570 21q95 0 168 -7.5t134.5 -24t103.5 -43.5t73 -65.5t44 -90.5t16.5 -118.5t-9.5 -148.5q-19 -139 -55 -226.5t-104.5 -140.5t-162 -73.5t-237.5 -20.5q-98 0 -227 14l-70 -489h-442zM575 788h148q57 0 84 10.5t46 49t30 121.5q12 88 -8.5 119.5
t-94.5 31.5h-157z" />
    <glyph glyph-name="Q" unicode="Q" 
d="M797 1442q90 0 162.5 -8t136.5 -26.5t112 -48.5t85.5 -72.5t61 -100t35 -131t9.5 -164.5t-17 -201q-20 -146 -49.5 -255.5t-74.5 -189.5t-100 -132.5t-132 -84t-164 -44.5t-203 -13q-107 0 -190 11t-151.5 36t-115.5 66t-79 98.5t-45.5 137t-12 178.5t18.5 225
q24 173 63.5 295.5t95 205.5t137.5 130.5t181 67.5t236 20zM793 1112q-47 0 -78 -11t-56.5 -36t-43.5 -76t-33.5 -120t-32.5 -179q-16 -100 -21 -165.5t-0.5 -111t23 -69t46 -33.5t73.5 -10q48 0 80 11t57 36t43.5 76.5t33 119.5t31.5 179q19 124 22.5 197t-11.5 117.5
t-45.5 59.5t-87.5 15zM371 -266l123 211q135 -53 284 -86t369 -66l-160 -358q-388 116 -616 299z" />
    <glyph glyph-name="R" unicode="R" horiz-adv-x="1370" 
d="M23 0l198 1413q215 21 572 21q152 0 258.5 -22.5t180 -74t101 -138.5t10.5 -212q-9 -66 -28 -116t-54 -95t-94.5 -72.5t-142.5 -35.5l-2 -15q30 -4 57 -16t55.5 -36t48 -69t25.5 -106l54 -426h-459l-37 428q-1 56 -17.5 72t-64.5 16h-156l-71 -516h-434zM573 829h154
q91 0 125 31.5t49 130.5q11 74 -13.5 101.5t-99.5 27.5h-174z" />
    <glyph glyph-name="S" unicode="S" horiz-adv-x="1232" 
d="M643 481l-258 127q-87 43 -144 93t-83 103t-34.5 113.5t1.5 124.5q14 116 55.5 193.5t118 123t179.5 64.5t253 19q285 0 506 -74l-39 -283q-313 5 -496 5q-71 0 -101.5 -12.5t-37.5 -45.5q-5 -25 13 -44.5t77 -47.5l238 -113q169 -80 222.5 -178.5t35.5 -261.5
q-14 -124 -49.5 -203t-107 -127t-173.5 -67t-260 -19q-270 0 -551 72l41 309q397 -10 488 -10q92 0 129 13t45 46q6 25 -8.5 41t-59.5 39z" />
    <glyph glyph-name="T" unicode="T" horiz-adv-x="1265" 
d="M1313 1081h-391l-152 -1081h-444l151 1081h-389l47 332h1225z" />
    <glyph glyph-name="U" unicode="U" 
d="M1454 1413l-121 -838q-19 -138 -51 -236t-83 -170.5t-126.5 -115t-176 -62.5t-237.5 -20q-331 0 -470.5 145t-96.5 476l119 821h442l-118 -838q-19 -106 -13 -166.5t39 -84t109 -23.5q48 0 80 9t55 27t39 55t26.5 81.5t22.5 118.5l117 821h444z" />
    <glyph glyph-name="V" unicode="V" horiz-adv-x="1361" 
d="M1481 1413l-527 -1302q-43 -111 -155 -111h-387q-56 0 -96 36t-46 91l-159 1286h446l49 -903q4 -63 0 -184h53q12 74 48 176l307 911h467z" />
    <glyph glyph-name="W" unicode="W" horiz-adv-x="2037" 
d="M2109 1413l-356 -1302q-13 -53 -55 -82t-101 -29h-372q-58 0 -100.5 37t-41.5 90l15 756q1 49 10 215h-37q-13 -88 -41 -209l-203 -778q-13 -53 -55 -82t-100 -29h-383q-58 0 -99.5 37t-37.5 90v1286h436l-56 -874q-2 -41 -8 -125.5t-8 -110.5h35q24 132 57 254l197 733
q15 58 56.5 90.5t101.5 32.5h309q59 0 98 -40t39 -99v-737q0 -86 -4 -234h37q12 111 43 248l188 862h436z" />
    <glyph glyph-name="X" unicode="X" horiz-adv-x="1376" 
d="M1057 721l239 -721h-436l-153 582l-330 -582h-471l446 721l-213 692h428l146 -549l309 549h453z" />
    <glyph glyph-name="Y" unicode="Y" horiz-adv-x="1329" 
d="M860 428l-59 -428h-447l64 453l-324 960h443l108 -452q18 -82 14 -207h31q10 95 62 202l239 457h473z" />
    <glyph glyph-name="Z" unicode="Z" horiz-adv-x="1224" 
d="M1217 1102l-682 -791h589l-43 -311h-1104l41 311l684 791h-548l43 311h1063z" />
    <glyph glyph-name="bracketleft" unicode="[" horiz-adv-x="745" 
d="M797 1311h-111q-32 0 -46.5 -11.5t-18.5 -42.5l-183 -1286q-6 -47 39 -47h125l-37 -262h-350q-220 0 -190 215l211 1497q14 93 72.5 146t150.5 53h375z" />
    <glyph glyph-name="backslash" unicode="\" horiz-adv-x="1189" 
d="M1057 -162h-320l-594 1575h320z" />
    <glyph glyph-name="bracketright" unicode="]" horiz-adv-x="745" 
d="M188 1573h351q92 0 146 -61.5t42 -153.5l-211 -1497q-12 -93 -70.5 -146t-150.5 -53h-375l37 262h111q31 0 45 11.5t18 41.5l182 1287q6 47 -37 47h-124z" />
    <glyph glyph-name="asciicircum" unicode="^" horiz-adv-x="1017" 
d="M1001 848l-170 -86l-227 321h-16l-322 -321l-160 86l353 489h311z" />
    <glyph glyph-name="underscore" unicode="_" horiz-adv-x="1091" 
d="M889 -250h-924l35 250h924z" />
    <glyph glyph-name="grave" unicode="`" horiz-adv-x="802" 
d="M823 1223l-137 -176l-508 217l164 266z" />
    <glyph glyph-name="a" unicode="a" horiz-adv-x="1255" 
d="M752 0l-4 199q-137 -206 -400 -224q-108 -7 -178.5 30t-101 112t-35.5 182.5t18 241.5q11 72 27 131.5t37.5 107t44.5 85t55 65.5t62.5 48t73 33.5t80 22t90.5 12.5t97 5.5t107 1.5q107 0 273 -22t225 -44l-140 -987h-331zM766 772h-94q-37 0 -61.5 -7t-50.5 -28.5
t-43.5 -67t-27.5 -116.5q-26 -157 -19.5 -204.5t62.5 -43.5q40 3 93 47.5t98 110.5z" />
    <glyph glyph-name="b" unicode="b" horiz-adv-x="1261" 
d="M637 1434l-33 -252q-17 -152 -67 -279q160 150 362 150q377 0 295 -545q-14 -89 -35 -159t-65 -143t-106.5 -121.5t-163 -79t-230.5 -30.5q-141 0 -321.5 23t-260.5 63l193 1373h432zM532 657l-57 -389q60 -7 98 -4q82 5 121.5 61t63.5 214q18 109 8 144.5t-59 35.5
q-78 0 -175 -62z" />
    <glyph glyph-name="c" unicode="c" horiz-adv-x="1097" 
d="M963 330l30 -273q-173 -82 -450 -82q-281 0 -410.5 132.5t-89.5 422.5q26 189 87.5 300.5t180 167t310.5 55.5q281 0 469 -80l-58 -262h-360q-90 0 -127.5 -41.5t-52.5 -151.5q-7 -64 -8 -103.5t15.5 -61.5t43 -30t75.5 -8q207 0 345 15z" />
    <glyph glyph-name="d" unicode="d" horiz-adv-x="1263" 
d="M1292 1434l-202 -1434h-340l-9 164q-198 -189 -383 -189q-380 0 -309 566q16 121 45.5 211.5t68.5 147t91 91.5t106.5 48.5t122.5 13.5q187 0 328 -27q0 122 14 213l37 195h430zM766 793h-96q-64 0 -96.5 -17.5t-52.5 -67.5t-34 -155q0 -4 -1 -11q-17 -132 -8 -168
q10 -46 63 -42q79 5 172 71z" />
    <glyph glyph-name="e" unicode="e" horiz-adv-x="1208" 
d="M1049 328l28 -262q-194 -91 -485 -91q-173 0 -287.5 35t-175.5 107t-80.5 169t-5.5 234q13 130 48 223.5t85.5 153t127.5 94.5t162.5 48.5t201.5 13.5q157 0 263 -24t164 -74t76.5 -118.5t4.5 -164.5q-19 -132 -118.5 -185t-318.5 -69l-256 -19q3 -57 35 -75.5t111 -18.5
q215 0 420 23zM510 608l117 13q73 7 103 23.5t36 70.5q3 36 -15.5 49t-78.5 12q-76 -2 -108 -35t-54 -133z" />
    <glyph glyph-name="f" unicode="f" horiz-adv-x="866" 
d="M971 1196h-164q-61 0 -88.5 -25t-36.5 -90l-8 -57h239l-34 -258h-244l-123 -832q-23 -156 -114 -240.5t-275 -84.5q-96 0 -318 31l66 256h100q64 0 92 24.5t39 89.5l109 756h-166l31 248l174 10l18 133q23 156 114.5 241t274.5 85q79 0 194.5 -8.5t184.5 -22.5z" />
    <glyph glyph-name="g" unicode="g" horiz-adv-x="1265" 
d="M31 -115h258q156 0 254 29t145 102q26 39 46 111t34 100q-139 -218 -414 -231q-109 -5 -180 32t-102 108.5t-36 174.5t17 230q19 119 46 206t68 142.5t81.5 89t105 49.5t118 20.5t140.5 4.5q190 0 364.5 -20.5t256.5 -45.5l-113 -803q-15 -112 -43.5 -202t-65.5 -152.5
t-87 -108t-100 -72t-114 -42t-119 -20.5t-124 -5q-303 0 -457 72zM776 772h-98q-51 0 -81.5 -9.5t-51 -38t-31 -65t-22.5 -106.5q-14 -80 -18.5 -129t1.5 -78t21 -37.5t43 -3.5q47 9 98 51.5t96 108.5z" />
    <glyph glyph-name="h" unicode="h" horiz-adv-x="1267" 
d="M637 1434l-43 -314q-17 -122 -59 -243q202 176 389 176q156 0 229 -77t53 -218l-106 -758h-430l90 637q6 33 -1.5 43t-37.5 10q-48 0 -93 -18t-108 -66l-84 -606h-430l201 1434h430z" />
    <glyph glyph-name="i" unicode="i" horiz-adv-x="622" 
d="M346 1493h166q138 0 123 -135l-14 -105q-7 -61 -41.5 -89.5t-100.5 -28.5h-168q-136 0 -121 135l15 104q6 61 40.5 90t100.5 29zM442 0h-428l142 1024h428z" />
    <glyph glyph-name="j" unicode="j" horiz-adv-x="626" 
d="M350 1493h162q139 0 121 -135l-15 -105q-14 -118 -145 -118h-162q-70 0 -100.5 33t-22.5 102l15 104q7 61 43 90t104 29zM592 1024l-133 -913q-21 -165 -120.5 -304t-252.5 -200l-236 198q86 80 128.5 156t54.5 166l129 897h430z" />
    <glyph glyph-name="k" unicode="k" horiz-adv-x="1247" 
d="M795 1024h442q-70 -313 -350 -496q74 -53 114 -141l187 -387h-440l-175 379q-56 -22 -92 -31q0 -27 -4 -63l-41 -285h-430l201 1434h430l-78 -557q-20 -123 -88 -250q121 66 209.5 172.5t114.5 224.5z" />
    <glyph glyph-name="l" unicode="l" horiz-adv-x="737" 
d="M637 1434l-154 -1069q-7 -40 8.5 -53t71.5 -13h82l25 -279q-44 -25 -134 -37t-159 -12q-171 0 -261 80t-73 215l166 1168h428z" />
    <glyph glyph-name="m" unicode="m" horiz-adv-x="1810" 
d="M483 1024l13 -145q95 92 182 133t190 41q212 0 260 -148q87 77 170 112.5t179 35.5q152 0 223 -78t51 -217l-106 -758h-426l88 637q4 31 -6.5 42t-32.5 11q-60 0 -148 -61l-88 -629h-411l88 637q6 31 -4.5 42t-34.5 11q-61 0 -150 -57l-86 -633h-428l144 1024h333z" />
    <glyph glyph-name="n" unicode="n" horiz-adv-x="1267" 
d="M483 1024l11 -180q97 97 216 153t232 56q133 0 210 -77t56 -218l-106 -758h-432l88 618q6 43 -5.5 59.5t-50.5 12.5q-82 -7 -180 -82l-86 -608h-430l141 1024h336z" />
    <glyph glyph-name="o" unicode="o" horiz-adv-x="1259" 
d="M670 1053q313 0 438.5 -129t83.5 -430q-41 -289 -179 -404t-444 -115q-311 0 -439.5 128t-86.5 423q41 294 179.5 410.5t447.5 116.5zM662 762q-83 0 -114 -50t-56 -218q-16 -92 -12 -142.5t27 -68t79 -17.5q77 0 107 48.5t55 211.5q17 95 13 147.5t-25.5 70.5t-73.5 18z
" />
    <glyph glyph-name="p" unicode="p" horiz-adv-x="1259" 
d="M489 1024v-180q82 85 188 145t224 60q175 0 248.5 -144t38.5 -422q-16 -125 -48 -216t-73 -147.5t-99 -90t-118.5 -46t-138.5 -12.5q-133 0 -283 27q0 -96 -14 -191l-29 -176h-430l192 1393h342zM473 231h94q42 0 68.5 7t45 20t30.5 44.5t19.5 67t17.5 101.5
q21 149 11.5 198.5t-57.5 49.5q-39 0 -90 -27.5t-92 -68.5z" />
    <glyph glyph-name="q" unicode="q" horiz-adv-x="1261" 
d="M606 -369l29 215q18 148 51 260q-76 -61 -160 -96t-153 -35q-207 0 -288 130.5t-40 414.5q11 73 23 127.5t34 113t51 100t73 79.5t101.5 61.5t136 37.5t175.5 14q147 0 327.5 -23t260.5 -63l-191 -1336h-430zM711 403l53 357q-41 4 -100 4q-83 -6 -121.5 -52t-59.5 -182
q-19 -104 -8 -151t70 -47q29 0 62.5 12.5t50.5 23.5t53 35z" />
    <glyph glyph-name="r" unicode="r" horiz-adv-x="925" 
d="M981 1053l-88 -394h-96q-105 0 -273 -26l-86 -633h-432l144 1024h335l15 -139q202 168 407 168h74z" />
    <glyph glyph-name="s" unicode="s" horiz-adv-x="1122" 
d="M516 358l-215 62q-268 76 -227 350q8 56 27 98t55.5 78t90.5 59t135 35.5t187 12.5q124 0 275.5 -13.5t240.5 -33.5l-34 -248h-392q-113 0 -144 -3.5t-34 -17.5q-3 -15 17.5 -26.5t83.5 -28.5l223 -59q262 -70 233 -324q-10 -80 -38.5 -137t-70.5 -93t-106.5 -56.5
t-135.5 -28t-169 -7.5q-268 0 -524 46l35 247h344q157 0 204 6.5t50 26.5q1 15 -19 24.5t-92 30.5z" />
    <glyph glyph-name="t" unicode="t" horiz-adv-x="899" 
d="M649 766l-57 -401q-6 -41 5.5 -53.5t57.5 -12.5h121l23 -279q-64 -25 -163 -37t-179 -12q-158 0 -242.5 80.5t-64.5 214.5l73 500h-176l31 248l184 10l39 268h424l-39 -268h246l-35 -258h-248z" />
    <glyph glyph-name="u" unicode="u" horiz-adv-x="1255" 
d="M1225 1024l-142 -1024h-335l-9 174q-209 -203 -417 -203q-159 0 -232 76.5t-53 218.5l104 758h432l-92 -637q-4 -31 8.5 -43t38.5 -12q43 0 84 17t99 59l88 616h426z" />
    <glyph glyph-name="v" unicode="v" horiz-adv-x="1243" 
d="M786 1024h469q-29 -222 -100 -438q-68 -212 -158 -373q-39 -68 -78 -110.5t-89 -65t-102 -30t-130 -7.5h-303q-49 0 -82.5 31t-38.5 78l-108 915h464v-766h19q41 0 60 23.5t53 107.5q37 90 73 262q29 141 51 373z" />
    <glyph glyph-name="w" unicode="w" horiz-adv-x="1894" 
d="M504 266h12q30 0 49 31.5t37 103.5q21 86 37 187q9 51 25.5 167.5t23.5 162.5q5 41 37 73.5t90 32.5h352q49 0 83 -31t40 -78v-649h15q8 0 15 2t13 7.5t10 11t8.5 15.5t7 18t6 23t5.5 25t6 28t6 30q16 75 41 233q26 171 39 365h426q-27 -242 -69 -422q-49 -215 -101 -340
q-30 -74 -62 -120t-83 -80t-124 -48t-181 -14h-158q-52 0 -86 33.5t-31 81.5v655h-24q-10 -89 -39 -252q-24 -135 -47 -227q-16 -59 -37 -104.5t-42.5 -76t-53 -51.5t-58.5 -33t-69.5 -17.5t-74.5 -7t-85 -1.5h-225q-50 0 -84 33.5t-37 81.5l-33 911h436z" />
    <glyph glyph-name="x" unicode="x" horiz-adv-x="1236" 
d="M938 522l217 -522h-403l-146 381l-256 -381h-442l371 522l-199 502h397l133 -358l244 358h430z" />
    <glyph glyph-name="y" unicode="y" horiz-adv-x="1273" 
d="M827 1024h461q-34 -252 -155.5 -568t-200.5 -440q-148 -232 -344.5 -341.5t-452.5 -96.5l-26 232q27 9 81.5 26.5t81.5 28t67.5 29.5t73.5 45t64 61h-162q-50 0 -85.5 31t-41.5 78l-127 915h471l17 -733q0 -13 9.5 -23t23.5 -10h49q69 156 114.5 335t81.5 431z" />
    <glyph glyph-name="z" unicode="z" horiz-adv-x="1101" 
d="M1055 748l-527 -472h467l-37 -276h-978l34 276h-2l529 472h-445l37 276h954l-34 -276h2z" />
    <glyph glyph-name="braceleft" unicode="{" horiz-adv-x="749" 
d="M811 1571l-33 -260q-71 0 -99 -15t-34 -71l-37 -256q-16 -142 -73 -211t-205 -90q235 -67 202 -301l-49 -357q-6 -43 18.5 -64.5t92.5 -21.5l-12 -264q-149 -21 -252.5 -7t-165 59.5t-85 110.5t-11.5 146l63 455q2 16 2 29t-1.5 22t-7 17t-9.5 12.5t-14 10t-17 8.5
t-21.5 8.5t-23.5 9.5l33 266q28 9 36.5 12t27 11t24 15.5t15 21.5t14 32t8.5 45l47 338q23 170 162 251t405 38z" />
    <glyph glyph-name="bar" unicode="|" horiz-adv-x="565" 
d="M299 -346h-299l274 1945h299z" />
    <glyph glyph-name="braceright" unicode="}" horiz-adv-x="747" 
d="M168 1311l12 264q149 21 252.5 7t165.5 -59.5t85.5 -110.5t12.5 -146l-49 -338q-3 -20 -3.5 -35t-0.5 -25.5t5 -19t7.5 -13t13 -10t16 -7.5t22 -7t24.5 -8l-35 -266q-71 -27 -90 -43q-33 -28 -41 -86l-63 -455q-12 -82 -49.5 -143t-106.5 -103.5t-170.5 -52.5t-241.5 10
l33 260q32 0 46.5 0.5t33.5 4.5t27 12.5t15 23.5t9 39l54 379q19 119 78.5 187.5t207.5 105.5q-127 18 -171 95t-23 214l39 256q6 40 -18.5 55t-96.5 15z" />
    <glyph glyph-name="asciitilde" unicode="~" horiz-adv-x="1024" 
d="M244 416l-172 16q-7 171 49.5 254.5t146.5 83.5q44 0 130.5 -19t181.5 -44.5t100 -26.5q52 -11 70.5 11t27.5 77l172 -16q6 -169 -45.5 -253.5t-148.5 -84.5q-46 0 -134 19.5t-177 43.5t-105 27q-50 10 -69 -11t-27 -77z" />
    <glyph glyph-name="uni00A0" unicode="&#xa0;" horiz-adv-x="430" 
 />
    <glyph glyph-name="exclamdown" unicode="&#xa1;" horiz-adv-x="638" 
d="M332 1065h82q74 0 112.5 -40.5t28.5 -115.5l-12 -84q-9 -73 -48 -106t-116 -33h-82q-79 0 -114.5 40t-26.5 116l10 84q20 139 166 139zM465 121l-66 -479h-426l66 479l113 479h335z" />
    <glyph glyph-name="cent" unicode="&#xa2;" horiz-adv-x="1101" 
d="M1044 909h-354q-84 0 -118.5 -41t-49.5 -151q-18 -125 6 -164t111 -39q211 0 338 14l29 -272q-142 -69 -367 -80l-47 -176h-318l54 205q-312 100 -254 524q19 136 54.5 230t98 159.5t154 97t221.5 35.5l43 162h320l-50 -186q108 -19 189 -56z" />
    <glyph glyph-name="sterling" unicode="&#xa3;" horiz-adv-x="1220" 
d="M1186 1102h-381q-62 0 -87 -18.5t-28 -69.5l-6 -166h301l-39 -205h-268l-2 -29q-2 -50 -14 -92t-27.5 -70t-44 -55.5t-49.5 -42.5t-58 -39q73 27 168 27h475l-45 -342h-1083l37 346q106 48 153 119t52 166v12h-154l25 205h141l10 203q9 118 40 193.5t92 119t142 60
t205 16.5q208 0 484 -21z" />
    <glyph glyph-name="currency" unicode="&#xa4;" horiz-adv-x="1167" 
d="M1159 1047l-158 -144q36 -92 21 -198q-16 -110 -74 -195l129 -139l-188 -170l-129 141q-96 -49 -199 -49q-118 0 -211 55l-137 -125l-170 187l147 133q-35 90 -20 194q14 103 78 199l-127 139l190 170l129 -143q89 47 193 47q118 0 207 -53l149 137zM410 727
q-12 -86 37.5 -139t127.5 -53q82 0 139.5 50t69.5 134q12 87 -35.5 139.5t-127.5 52.5q-89 0 -144 -49t-67 -135z" />
    <glyph glyph-name="yen" unicode="&#xa5;" horiz-adv-x="1443" 
d="M1114 754h141l-30 -226h-1035l27 226h156l-221 659h442l108 -452q17 -86 13 -207h30q10 95 62 202l237 457h474zM178 467h1039l-31 -225h-297l-33 -242h-446l34 242h-292z" />
    <glyph glyph-name="brokenbar" unicode="&#xa6;" horiz-adv-x="571" 
d="M461 780h-299l117 819h299zM303 -346h-299l115 819h299z" />
    <glyph glyph-name="section" unicode="&#xa7;" horiz-adv-x="1105" 
d="M547 608l-250 168q-19 14 -32.5 25t-32 27.5t-30 31.5t-26 37t-21 43t-14.5 50t-6 58.5t4 67.5q10 82 43.5 142t78.5 94.5t111 55.5t128.5 27.5t142.5 6.5q251 0 471 -25l-45 -291q-60 4 -319 2q-82 0 -115.5 -12t-34.5 -47q-4 -46 72 -90l170 -98q168 -89 192.5 -216
t-76.5 -311l-296 17q5 39 7 62.5t-3 46.5t-9.5 34.5t-23.5 29.5t-34.5 29t-51.5 35zM125 684l297 -16q-5 -39 -6.5 -63t2.5 -47t9.5 -35.5t23 -29.5t35 -29t51.5 -34l249 -156q4 -3 19 -12.5t23 -15t23.5 -18.5t25 -23t22.5 -28t20.5 -35t15.5 -41.5t10.5 -50.5t2 -59.5
t-5.5 -70.5q-11 -78 -38.5 -135t-67.5 -93t-100.5 -57.5t-129.5 -29.5t-162 -8q-280 0 -475 26l45 289q36 0 129 -2t146 -2q102 0 144.5 11t49.5 50q8 43 -49 76l-192 113q-168 89 -193 215.5t76 310.5z" />
    <glyph glyph-name="dieresis" unicode="&#xa8;" horiz-adv-x="892" 
d="M309 1475h158q73 0 61 -68l-22 -156q-5 -35 -21 -50t-51 -15h-166q-73 0 -61 67l22 150q5 38 23.5 55t56.5 17zM690 1475h164q73 0 61 -68l-22 -154q-5 -37 -21 -52t-51 -15h-166q-73 0 -61 67l22 152q6 38 23 54t51 16z" />
    <glyph glyph-name="copyright" unicode="&#xa9;" horiz-adv-x="1611" 
d="M881 1442q345 0 532 -205t152 -547q-34 -330 -247.5 -524.5t-551.5 -194.5q-167 0 -302.5 50.5t-228 145t-134.5 237.5t-23 319q37 335 254 527t549 192zM887 1251q-259 0 -420 -149t-184 -412q-21 -245 100 -386.5t373 -141.5q255 0 417.5 147t186.5 414
q22 248 -100.5 388t-372.5 140zM1077 571l19 -223q-124 -41 -279 -41q-235 0 -322.5 94t-58.5 324q28 217 127 300t322 83q145 0 270 -35l-31 -221h-270q-50 0 -69.5 -26.5t-28.5 -112.5q-10 -91 2 -118t61 -30q110 -7 258 6z" />
    <glyph glyph-name="ordfeminine" unicode="&#xaa;" horiz-adv-x="919" 
d="M582 573l-4 132q-83 -136 -252 -148q-107 -7 -163 38t-64.5 130.5t7.5 204.5q10 67 28 118.5t39.5 87t55.5 60t66 38t82 21t92 9.5t106 2q108 1 202 -12.5t134 -30.5l-92 -650h-237zM590 1075h-55q-41 0 -68 -27t-41 -112q-16 -116 -10 -136t35 -18q23 1 53 27t55 65z
" />
    <glyph glyph-name="guillemotleft" unicode="&#xab;" horiz-adv-x="1134" 
d="M606 819l-180 -305l127 -315l-225 -148l-291 414l6 92l332 406zM1085 819l-180 -305l127 -315l-225 -148l-291 414l6 92l332 406z" />
    <glyph glyph-name="logicalnot" unicode="&#xac;" horiz-adv-x="1165" 
d="M1094 793l-74 -510h-340l29 194h-646l48 316h983z" />
    <glyph glyph-name="softhyphen" unicode="&#xad;" horiz-adv-x="786" 
d="M662 401h-596l36 250h596z" />
    <glyph glyph-name="registered" unicode="&#xae;" horiz-adv-x="1011" 
d="M621 1442q125 0 220.5 -59t142.5 -167.5t28 -244.5q-30 -199 -166 -320t-346 -121q-94 0 -173.5 35t-133 96.5t-77.5 150.5t-10 192q30 199 166.5 318.5t348.5 119.5zM899 1004q10 74 -8.5 137.5t-58.5 105.5t-97 66t-123 24q-166 0 -268.5 -98t-124.5 -268
q-20 -149 65.5 -242.5t223.5 -93.5q166 0 268 99.5t123 269.5zM330 784l59 426q71 7 186 7q122 0 176 -33t42 -105q-9 -83 -103 -92l-2 -4q30 -2 48 -19t22 -59l12 -121h-182v125q0 12 -4.5 16.5t-16.5 4.5h-43l-20 -146h-174zM539 1034h39q21 0 29 5t11 24t-1 26t-23 7h-47
z" />
    <glyph glyph-name="macron" unicode="&#xaf;" horiz-adv-x="819" 
d="M836 1208h-656l35 252h655z" />
    <glyph glyph-name="degree" unicode="&#xb0;" horiz-adv-x="679" 
d="M430 1430q81 0 149 -36t105.5 -104.5t26.5 -154.5q-15 -122 -99.5 -193.5t-214.5 -71.5q-129 0 -210.5 83t-63.5 214q15 119 96 191t211 72zM422 1249q-45 0 -71.5 -26t-31.5 -68q-6 -49 19 -76.5t72 -27.5q43 0 71.5 25.5t32.5 70.5q5 45 -19.5 73.5t-72.5 28.5z" />
    <glyph glyph-name="plusminus" unicode="&#xb1;" horiz-adv-x="1136" 
d="M1102 952l-47 -315h-324l-31 -219h-311l31 219h-324l45 315h324l31 222h313l-33 -222h326zM57 356h959l-45 -317h-961z" />
    <glyph glyph-name="twosuperior" unicode="&#xb2;" horiz-adv-x="882" 
d="M211 1348v229q133 22 319 22q74 0 128 -5t107 -21t83.5 -43.5t45 -75t3.5 -113.5q-17 -99 -149 -188l-230 -156q61 18 117 15l231 -6l-37 -269h-733l25 170q11 73 25 98q9 17 24 31l178 129q168 116 189 135q18 17 9.5 30t-34.5 13q-135 0 -301 5z" />
    <glyph glyph-name="threesuperior" unicode="&#xb3;" horiz-adv-x="833" 
d="M215 1356l-4 225q165 23 321 23q198 0 270 -48t58 -167q-22 -182 -192 -199l-2 -6q193 -22 165 -228q-7 -55 -28.5 -95.5t-64.5 -74t-118 -50.5t-180 -17q-138 0 -344 26l17 230q75 -2 282 -2q105 0 113 63q3 23 -6.5 31t-38.5 8h-209l27 193h204q32 0 45 12t13 43
q0 14 -10 21.5t-41 7.5q-148 0 -277 4z" />
    <glyph glyph-name="acute" unicode="&#xb4;" horiz-adv-x="802" 
d="M825 1243l-544 -196l-97 176l506 319z" />
    <glyph glyph-name="paragraph" unicode="&#xb6;" horiz-adv-x="1218" 
d="M1147 1163l-164 -1163h-256l166 1184l-66 2l-227 -1616h-256l119 844q-226 27 -319.5 166t-61.5 358q41 277 198.5 388.5t501.5 111.5q234 0 398 -35z" />
    <glyph glyph-name="periodcentered" unicode="&#xb7;" horiz-adv-x="536" 
d="M236 719h81q74 0 113 -40.5t29 -115.5l-13 -84q-9 -73 -47.5 -106t-115.5 -33h-82q-79 0 -115 40t-27 116l11 84q20 139 166 139z" />
    <glyph glyph-name="cedilla" unicode="&#xb8;" horiz-adv-x="538" 
d="M16 -215l37 147q111 13 195 12.5t128 -40t30 -121.5q-19 -110 -93 -181t-180.5 -95.5t-234.5 -6.5l43 158q39 0 68 3t59 12t49.5 29t25.5 50q2 11 0 16.5t-15.5 10t-38.5 5.5t-73 1z" />
    <glyph glyph-name="onesuperior" unicode="&#xb9;" horiz-adv-x="657" 
d="M580 737h-326l70 482q11 77 28 122l-202 -36l-13 200l236 80h327z" />
    <glyph glyph-name="ordmasculine" unicode="&#xba;" horiz-adv-x="888" 
d="M514 1276q216 0 302.5 -89t57.5 -294q-26 -192 -116 -267t-295 -75q-216 0 -304 87t-61 288q27 193 122.5 271.5t293.5 78.5zM510 1067q-40 0 -59.5 -35t-32.5 -139q-5 -40 -6 -70t11.5 -47.5t41.5 -17.5q42 0 59 33.5t31 134.5q11 62 6 93t-15.5 39.5t-35.5 8.5z" />
    <glyph glyph-name="guillemotright" unicode="&#xbb;" horiz-adv-x="1136" 
d="M25 199l180 305l-127 315l225 148l291 -414l-6 -92l-332 -406zM504 199l180 305l-127 315l225 148l291 -414l-6 -92l-332 -406z" />
    <glyph glyph-name="onequarter" unicode="&#xbc;" horiz-adv-x="1959" 
d="M244 565l67 482q11 73 29 122l-184 -36l-13 200l219 80h328l-121 -848h-325zM1524 1413l-989 -1413h-273l989 1413h273zM1874 360l-23 -176l-96 -26h-2l-22 -158h-287l22 158h-348q-47 0 -75.5 26.5t-29.5 62.5t15 72l272 529h293l-221 -459q-13 -29 14 -29h107l25 177
l69 141h240l-45 -318h92z" />
    <glyph glyph-name="onehalf" unicode="&#xbd;" horiz-adv-x="1935" 
d="M569 565h-327l67 482q11 73 29 122l-184 -36l-11 200l217 80h330zM532 0h-272l989 1413h271zM1182 610v230q129 22 311 22q74 0 128 -5t106.5 -21t82 -43.5t43 -75t2.5 -113.5q-17 -100 -143 -188l-225 -156q60 17 115 14l225 -6l-37 -268h-725l25 170q5 34 8.5 51
t14.5 39.5t28 38.5l170 129q161 116 182 135q19 17 13 30t-29 13q-166 0 -295 4z" />
    <glyph glyph-name="threequarters" unicode="&#xbe;" horiz-adv-x="2060" 
d="M633 1018l-2 -6q188 -21 164 -228q-7 -55 -28 -95.5t-63.5 -74t-115.5 -50.5t-176 -17q-143 0 -340 26l16 230q74 -2 277 -2q98 0 106 63q3 23 -5 31t-34 8l-205 4l27 189h201q28 0 39.5 11.5t11.5 43.5q0 14 -8 21.5t-35 7.5q-146 0 -275 4l-4 225q165 23 318 23
q197 0 267.5 -48t55.5 -167q-22 -182 -192 -199zM1665 1413l-987 -1413h-270l985 1413h272zM1982 365l-22 -177l-94 -26h-4l-23 -158h-285l23 158h-346q-47 0 -75.5 27t-30 63t13.5 72l272 528h293l-223 -459q-12 -28 14 -28h109l24 172l68 145h239l-45 -317h92z" />
    <glyph glyph-name="questiondown" unicode="&#xbf;" horiz-adv-x="1095" 
d="M592 1061h84q74 0 112.5 -40.5t28.5 -115.5l-12 -84q-8 -72 -46 -105.5t-116 -33.5h-84q-79 0 -114.5 40t-26.5 116l10 84q10 72 50 105.5t114 33.5zM412 594h336q-8 -99 -39 -185t-73 -145t-83 -104t-79.5 -84t-51.5 -62q-22 -32 -5 -51.5t77 -19.5h436l-4 -285
q-15 -3 -60.5 -11.5t-58.5 -11t-52 -9t-58.5 -8.5l-58.5 -6t-72 -5.5t-79 -2.5t-98 -1q-246 0 -355.5 82.5t-86.5 251.5q8 59 33.5 109t61 87.5t77 73t86 74t83.5 81t72.5 102.5t51.5 130z" />
    <glyph glyph-name="Agrave" unicode="&#xc0;" horiz-adv-x="1388" 
d="M905 1475l-508 217l164 266l481 -307zM856 299h-385l-111 -299h-460l544 1307q41 106 156 106h401q54 0 95 -35.5t47 -87.5l182 -1290h-444zM831 623l-24 305q-6 54 -2 157h-57q-14 -79 -41 -153l-115 -309h239z" />
    <glyph glyph-name="Aacute" unicode="&#xc1;" horiz-adv-x="1388" 
d="M725 1475l-96 176l506 319l135 -299zM856 299h-385l-111 -299h-460l544 1307q41 106 156 106h401q54 0 95 -35.5t47 -87.5l182 -1290h-444zM831 623l-24 305q-6 54 -2 157h-57q-14 -79 -41 -153l-115 -309h239z" />
    <glyph glyph-name="Acircumflex" unicode="&#xc2;" horiz-adv-x="1388" 
d="M483 1473l-98 147l307 278h289l268 -286l-112 -139l-301 192h-17zM856 299h-385l-111 -299h-460l544 1307q41 106 156 106h401q54 0 95 -35.5t47 -87.5l182 -1290h-444zM831 623l-24 305q-6 54 -2 157h-57q-14 -79 -41 -153l-115 -309h239z" />
    <glyph glyph-name="Atilde" unicode="&#xc3;" horiz-adv-x="1388" 
d="M604 1530l-174 16q-4 169 50.5 253.5t150.5 84.5q61 0 191.5 -44.5t135.5 -45.5q50 -11 70 11t27 77l174 -16q7 -171 -46 -254.5t-149 -83.5q-62 0 -191 43.5t-145 46.5q-49 10 -67.5 -11t-26.5 -77zM856 299h-385l-111 -299h-460l544 1307q41 106 156 106h401
q54 0 95 -35.5t47 -87.5l182 -1290h-444zM831 623l-24 305q-6 54 -2 157h-57q-14 -79 -41 -153l-115 -309h239z" />
    <glyph glyph-name="Adieresis" unicode="&#xc4;" horiz-adv-x="1388" 
d="M713 1563h-166q-74 0 -62 67l23 150q4 38 23 54.5t57 16.5h157q74 0 62 -67l-23 -156q-5 -36 -20.5 -50.5t-50.5 -14.5zM1100 1563h-166q-74 0 -62 67l23 152q6 38 23 53.5t51 15.5h164q73 0 61 -67l-23 -154q-5 -37 -20.5 -52t-50.5 -15zM856 299h-385l-111 -299h-460
l544 1307q41 106 156 106h401q54 0 95 -35.5t47 -87.5l182 -1290h-444zM831 623l-24 305q-6 54 -2 157h-57q-14 -79 -41 -153l-115 -309h239z" />
    <glyph glyph-name="Aring" unicode="&#xc5;" horiz-adv-x="1388" 
d="M834 1468q-117 0 -191 78t-59 187q13 98 86 164.5t186 66.5q114 0 190.5 -77.5t61.5 -186.5q-13 -98 -86.5 -165t-187.5 -67zM754 1722q-5 -45 18.5 -72.5t65.5 -27.5q43 0 70.5 28t29.5 72q1 39 -23.5 63.5t-64.5 24.5q-38 0 -64.5 -25t-31.5 -63zM856 299h-385
l-111 -299h-460l544 1307q41 106 156 106h401q54 0 95 -35.5t47 -87.5l182 -1290h-444zM831 623l-24 305q-6 54 -2 157h-57q-14 -79 -41 -153l-115 -309h239z" />
    <glyph glyph-name="AE" unicode="&#xc6;" horiz-adv-x="1957" 
d="M1948 1087h-471q-51 0 -73 -17.5t-28 -63.5l-20 -146h487l-33 -274h-495l-27 -178q-5 -42 11.5 -62t62.5 -20h475l-6 -310q-39 -5 -84 -9t-80.5 -6.5t-91 -4t-83.5 -2.5t-92.5 -1.5t-83 -0.5h-90h-81.5q-147 0 -223.5 92t-55.5 235h-346l-178 -319h-461l645 1102
q53 91 107 146.5t139.5 96t205 56.5t298.5 16q187 0 265.5 -0.5t211 -5.5t248.5 -16zM702 643h209l54 385q9 56 43 127h-23q-53 -103 -55 -106z" />
    <glyph glyph-name="Ccedilla" unicode="&#xc7;" horiz-adv-x="1234" 
d="M1116 367l17 -326q-116 -36 -226.5 -51t-263.5 -15q-240 0 -373 71t-179 234.5t-7 442.5q20 145 47.5 251t69.5 187t94.5 133t128.5 85t165.5 46t211.5 13q152 0 254 -13.5t211 -44.5l-52 -321q-300 4 -436 4q-47 0 -76 -7t-55 -27.5t-42.5 -63.5t-30.5 -107.5
t-27 -167.5q-22 -137 -20 -212.5t31 -101.5t106 -26q266 0 452 17zM373 -281l37 148q72 9 124.5 12t102 -3t78 -23.5t42 -51.5t5.5 -84q-28 -164 -169.5 -236.5t-338.5 -45.5l43 157q39 0 68 3.5t59.5 12.5t50 29t25.5 50q2 11 0 16.5t-15.5 9.5t-38.5 5t-73 1z" />
    <glyph glyph-name="Egrave" unicode="&#xc8;" horiz-adv-x="1202" 
d="M868 1475l-508 217l164 266l482 -307zM1194 1081h-492q-52 0 -75 -18t-29 -64l-18 -129h510l-37 -295h-514l-23 -163q-12 -80 76 -80h491l-8 -316q-36 -5 -79.5 -9t-78.5 -6.5t-91.5 -4t-85.5 -2.5t-95 -1.5t-86 -0.5h-93h-83q-171 0 -255 107t-62 278l102 731
q21 145 114.5 229t247.5 84q516 0 713 -28z" />
    <glyph glyph-name="Eacute" unicode="&#xc9;" horiz-adv-x="1202" 
d="M688 1475l-96 176l506 319l135 -299zM1194 1081h-492q-52 0 -75 -18t-29 -64l-18 -129h510l-37 -295h-514l-23 -163q-12 -80 76 -80h491l-8 -316q-36 -5 -79.5 -9t-78.5 -6.5t-91.5 -4t-85.5 -2.5t-95 -1.5t-86 -0.5h-93h-83q-171 0 -255 107t-62 278l102 731
q21 145 114.5 229t247.5 84q516 0 713 -28z" />
    <glyph glyph-name="Ecircumflex" unicode="&#xca;" horiz-adv-x="1202" 
d="M446 1473l-98 147l307 278h289l268 -286l-112 -139l-301 192h-17zM1194 1081h-492q-52 0 -75 -18t-29 -64l-18 -129h510l-37 -295h-514l-23 -163q-12 -80 76 -80h491l-8 -316q-36 -5 -79.5 -9t-78.5 -6.5t-91.5 -4t-85.5 -2.5t-95 -1.5t-86 -0.5h-93h-83q-171 0 -255 107
t-62 278l102 731q21 145 114.5 229t247.5 84q516 0 713 -28z" />
    <glyph glyph-name="Edieresis" unicode="&#xcb;" horiz-adv-x="1202" 
d="M676 1563h-166q-73 0 -61 67l22 150q4 38 23 54.5t57 16.5h158q73 0 61 -67l-22 -156q-5 -35 -21 -50t-51 -15zM1063 1563h-166q-73 0 -61 67l22 152q6 38 23 53.5t51 15.5h164q73 0 61 -67l-22 -154q-5 -37 -21 -52t-51 -15zM1194 1081h-492q-52 0 -75 -18t-29 -64
l-18 -129h510l-37 -295h-514l-23 -163q-12 -80 76 -80h491l-8 -316q-36 -5 -79.5 -9t-78.5 -6.5t-91.5 -4t-85.5 -2.5t-95 -1.5t-86 -0.5h-93h-83q-171 0 -255 107t-62 278l102 731q21 145 114.5 229t247.5 84q516 0 713 -28z" />
    <glyph glyph-name="Igrave" unicode="&#xcc;" horiz-adv-x="659" 
d="M688 1651l-137 -176l-508 217l164 266zM467 0h-442l198 1413h443z" />
    <glyph glyph-name="Iacute" unicode="&#xcd;" horiz-adv-x="659" 
d="M915 1671l-544 -196l-97 176l506 319zM467 0h-442l198 1413h443z" />
    <glyph glyph-name="Icircumflex" unicode="&#xce;" horiz-adv-x="659" 
d="M895 1612l-113 -139l-301 192h-16l-336 -192l-98 147l307 278h289zM467 0h-442l198 1413h443z" />
    <glyph glyph-name="Idieresis" unicode="&#xcf;" horiz-adv-x="659" 
d="M233 1851h158q74 0 62 -67l-23 -156q-5 -35 -21 -50t-51 -15h-165q-74 0 -62 67l23 150q5 38 23 54.5t56 16.5zM614 1851h164q74 0 62 -67l-23 -154q-5 -37 -21 -52t-51 -15h-165q-74 0 -62 67l23 152q6 38 22.5 53.5t50.5 15.5zM467 0h-442l198 1413h443z" />
    <glyph glyph-name="Eth" unicode="&#xd0;" 
d="M141 846l80 567q276 21 576 21q101 0 181 -10.5t149 -35t118 -64t84 -97.5t51.5 -135t17 -177.5t-17.5 -224.5q-31 -216 -78.5 -350t-134 -216.5t-205.5 -113t-305 -30.5q-321 0 -634 20l90 641h-97l29 205h96zM510 303l141 -2q56 0 94 16.5t71.5 61.5t56.5 129t40 215
q24 155 19.5 241.5t-37 117t-113.5 30.5h-159l-37 -266h178l-29 -205h-178z" />
    <glyph glyph-name="Ntilde" unicode="&#xd1;" horiz-adv-x="1495" 
d="M655 1530l-174 16q-4 169 50.5 253.5t150.5 84.5q61 0 192 -44.5t136 -45.5q50 -11 69.5 11t26.5 77l174 -16q7 -171 -46 -254.5t-149 -83.5q-62 0 -190.5 43.5t-144.5 46.5q-49 10 -68 -11.5t-27 -76.5zM1503 1413l-178 -1268q-11 -75 -49 -110t-113 -35h-147
q-63 0 -93 31t-65 106l-242 486q-38 76 -71 233h-15q3 -147 -12 -262l-88 -594h-407l178 1268q11 76 49 110.5t112 34.5h148q33 0 56.5 -8.5t42 -31t28.5 -40t29 -57.5l237 -461q52 -106 86 -244h17q-11 123 4 240l86 602h407z" />
    <glyph glyph-name="Ograve" unicode="&#xd2;" 
d="M1077 1651l-137 -176l-508 217l164 266zM797 1442q90 0 162.5 -8t136.5 -26.5t112 -48.5t85.5 -72.5t61 -100t35 -131t9.5 -164.5t-17 -201q-20 -146 -49.5 -255.5t-74.5 -189.5t-100 -132.5t-132 -84t-164 -44.5t-203 -13q-107 0 -190 11t-151.5 36t-115.5 66t-79 98.5
t-45.5 137t-12 178.5t18.5 225q24 173 63.5 295.5t95 205.5t137.5 130.5t181 67.5t236 20zM793 1112q-47 0 -78 -11t-56.5 -36t-43.5 -76t-33.5 -120t-32.5 -179q-16 -100 -21 -165.5t-0.5 -111t23 -69t46 -33.5t73.5 -10q48 0 80 11t57 36t43.5 76.5t33 119.5t31.5 179
q19 124 22.5 197t-11.5 117.5t-45.5 59.5t-87.5 15z" />
    <glyph glyph-name="Oacute" unicode="&#xd3;" 
d="M1305 1671l-545 -196l-96 176l505 319zM797 1442q90 0 162.5 -8t136.5 -26.5t112 -48.5t85.5 -72.5t61 -100t35 -131t9.5 -164.5t-17 -201q-20 -146 -49.5 -255.5t-74.5 -189.5t-100 -132.5t-132 -84t-164 -44.5t-203 -13q-107 0 -190 11t-151.5 36t-115.5 66t-79 98.5
t-45.5 137t-12 178.5t18.5 225q24 173 63.5 295.5t95 205.5t137.5 130.5t181 67.5t236 20zM793 1112q-47 0 -78 -11t-56.5 -36t-43.5 -76t-33.5 -120t-32.5 -179q-16 -100 -21 -165.5t-0.5 -111t23 -69t46 -33.5t73.5 -10q48 0 80 11t57 36t43.5 76.5t33 119.5t31.5 179
q19 124 22.5 197t-11.5 117.5t-45.5 59.5t-87.5 15z" />
    <glyph glyph-name="Ocircumflex" unicode="&#xd4;" 
d="M1284 1612l-113 -139l-301 192h-16l-336 -192l-98 147l307 278h289zM797 1442q90 0 162.5 -8t136.5 -26.5t112 -48.5t85.5 -72.5t61 -100t35 -131t9.5 -164.5t-17 -201q-20 -146 -49.5 -255.5t-74.5 -189.5t-100 -132.5t-132 -84t-164 -44.5t-203 -13q-107 0 -190 11
t-151.5 36t-115.5 66t-79 98.5t-45.5 137t-12 178.5t18.5 225q24 173 63.5 295.5t95 205.5t137.5 130.5t181 67.5t236 20zM793 1112q-47 0 -78 -11t-56.5 -36t-43.5 -76t-33.5 -120t-32.5 -179q-16 -100 -21 -165.5t-0.5 -111t23 -69t46 -33.5t73.5 -10q48 0 80 11t57 36
t43.5 76.5t33 119.5t31.5 179q19 124 22.5 197t-11.5 117.5t-45.5 59.5t-87.5 15z" />
    <glyph glyph-name="Otilde" unicode="&#xd5;" 
d="M639 1530l-174 16q-4 169 50.5 253.5t150.5 84.5q61 0 191.5 -44.5t135.5 -45.5q50 -11 70 11t27 77l174 -16q7 -171 -46 -254.5t-149 -83.5q-62 0 -191 43.5t-145 46.5q-49 10 -67.5 -11t-26.5 -77zM797 1442q90 0 162.5 -8t136.5 -26.5t112 -48.5t85.5 -72.5t61 -100
t35 -131t9.5 -164.5t-17 -201q-20 -146 -49.5 -255.5t-74.5 -189.5t-100 -132.5t-132 -84t-164 -44.5t-203 -13q-107 0 -190 11t-151.5 36t-115.5 66t-79 98.5t-45.5 137t-12 178.5t18.5 225q24 173 63.5 295.5t95 205.5t137.5 130.5t181 67.5t236 20zM793 1112
q-47 0 -78 -11t-56.5 -36t-43.5 -76t-33.5 -120t-32.5 -179q-16 -100 -21 -165.5t-0.5 -111t23 -69t46 -33.5t73.5 -10q48 0 80 11t57 36t43.5 76.5t33 119.5t31.5 179q19 124 22.5 197t-11.5 117.5t-45.5 59.5t-87.5 15z" />
    <glyph glyph-name="Odieresis" unicode="&#xd6;" 
d="M623 1851h157q74 0 62 -67l-23 -156q-5 -36 -20.5 -50.5t-50.5 -14.5h-166q-74 0 -62 67l23 150q4 38 23 54.5t57 16.5zM1004 1851h163q74 0 62 -67l-23 -154q-5 -37 -20.5 -52t-50.5 -15h-166q-74 0 -62 67l23 152q6 38 23 53.5t51 15.5zM797 1442q90 0 162.5 -8
t136.5 -26.5t112 -48.5t85.5 -72.5t61 -100t35 -131t9.5 -164.5t-17 -201q-20 -146 -49.5 -255.5t-74.5 -189.5t-100 -132.5t-132 -84t-164 -44.5t-203 -13q-107 0 -190 11t-151.5 36t-115.5 66t-79 98.5t-45.5 137t-12 178.5t18.5 225q24 173 63.5 295.5t95 205.5
t137.5 130.5t181 67.5t236 20zM793 1112q-47 0 -78 -11t-56.5 -36t-43.5 -76t-33.5 -120t-32.5 -179q-16 -100 -21 -165.5t-0.5 -111t23 -69t46 -33.5t73.5 -10q48 0 80 11t57 36t43.5 76.5t33 119.5t31.5 179q19 124 22.5 197t-11.5 117.5t-45.5 59.5t-87.5 15z" />
    <glyph glyph-name="multiply" unicode="&#xd7;" horiz-adv-x="1077" 
d="M776 602l223 -217l-227 -256l-264 264l-330 -260l-158 256l277 217l-211 211l225 236l248 -242l334 262l158 -254z" />
    <glyph glyph-name="Oslash" unicode="&#xd8;" 
d="M1415 1505l-127 -213q151 -167 94 -602q-20 -146 -49.5 -255.5t-74.5 -189.5t-100 -132.5t-132 -84t-164 -44.5t-203 -13q-87 0 -161 9l-127 -207l-308 157l111 181q-79 84 -101 233t11 379q24 173 63.5 295.5t95 205.5t137.5 130.5t181 67.5t236 20q108 0 174 -10
l137 229zM915 723q19 124 22.5 197t-11.5 117.5t-45.5 59.5t-87.5 15q-47 0 -78 -11t-56.5 -36t-43.5 -76t-33.5 -120t-32.5 -179q-16 -100 -21 -165.5t-0.5 -111t23 -69t46 -33.5t73.5 -10q48 0 80 11t57 36t43.5 76.5t33 119.5t31.5 179z" />
    <glyph glyph-name="Ugrave" unicode="&#xd9;" 
d="M1069 1651l-137 -176l-508 217l164 266zM1454 1413l-121 -838q-19 -138 -51 -236t-83 -170.5t-126.5 -115t-176 -62.5t-237.5 -20q-331 0 -470.5 145t-96.5 476l119 821h442l-118 -838q-19 -106 -13 -166.5t39 -84t109 -23.5q48 0 80 9t55 27t39 55t26.5 81.5t22.5 118.5
l117 821h444z" />
    <glyph glyph-name="Uacute" unicode="&#xda;" 
d="M1296 1671l-544 -196l-97 176l506 319zM1454 1413l-121 -838q-19 -138 -51 -236t-83 -170.5t-126.5 -115t-176 -62.5t-237.5 -20q-331 0 -470.5 145t-96.5 476l119 821h442l-118 -838q-19 -106 -13 -166.5t39 -84t109 -23.5q48 0 80 9t55 27t39 55t26.5 81.5t22.5 118.5
l117 821h444z" />
    <glyph glyph-name="Ucircumflex" unicode="&#xdb;" 
d="M1276 1612l-113 -139l-301 192h-16l-336 -192l-98 147l307 278h289zM1454 1413l-121 -838q-19 -138 -51 -236t-83 -170.5t-126.5 -115t-176 -62.5t-237.5 -20q-331 0 -470.5 145t-96.5 476l119 821h442l-118 -838q-19 -106 -13 -166.5t39 -84t109 -23.5q48 0 80 9t55 27
t39 55t26.5 81.5t22.5 118.5l117 821h444z" />
    <glyph glyph-name="Udieresis" unicode="&#xdc;" 
d="M614 1851h158q74 0 62 -67l-23 -156q-5 -35 -21 -50t-51 -15h-166q-73 0 -61 67l23 150q5 38 23 54.5t56 16.5zM995 1851h164q74 0 62 -67l-23 -154q-5 -37 -21 -52t-51 -15h-165q-74 0 -62 67l23 152q6 38 22.5 53.5t50.5 15.5zM1454 1413l-121 -838q-19 -138 -51 -236
t-83 -170.5t-126.5 -115t-176 -62.5t-237.5 -20q-331 0 -470.5 145t-96.5 476l119 821h442l-118 -838q-19 -106 -13 -166.5t39 -84t109 -23.5q48 0 80 9t55 27t39 55t26.5 81.5t22.5 118.5l117 821h444z" />
    <glyph glyph-name="Yacute" unicode="&#xdd;" horiz-adv-x="1329" 
d="M692 1475l-96 176l506 319l135 -299zM860 428l-59 -428h-447l64 453l-324 960h443l108 -452q18 -82 14 -207h31q10 95 62 202l239 457h473z" />
    <glyph glyph-name="Thorn" unicode="&#xde;" horiz-adv-x="1302" 
d="M635 1184h117q165 0 270.5 -23.5t172.5 -81t86.5 -153t0.5 -240.5q-19 -139 -55 -226.5t-104 -140.5t-160.5 -73.5t-235.5 -20.5q-86 0 -225 15l-33 -240h-444l198 1413h445zM545 539h143q55 0 81 10.5t43.5 48.5t29.5 121q12 88 -6.5 119.5t-90.5 31.5h-153z" />
    <glyph glyph-name="germandbls" unicode="&#xdf;" horiz-adv-x="1497" 
d="M1217 647l94 -88q82 -83 111.5 -156t15.5 -151q-16 -97 -59 -154.5t-138 -89t-254 -31.5q-104 0 -354 23l37 262h225q59 0 89 12t30 48q0 23 -23.5 53.5t-101.5 103.5l-53 41q-70 65 -97.5 119t-17.5 135q7 57 34 98t109 134q59 65 78 94t23 63q6 44 -14 57t-81 13
q-101 0 -139.5 -27t-48.5 -106l-162 -1166q-12 -74 -36.5 -130t-69 -101.5t-116 -69.5t-169.5 -24q-92 0 -311 31l63 256h101q61 0 87 24.5t37 89.5l107 756h-170l31 248l174 10l20 143q19 135 81.5 211.5t180 109t316.5 32.5q169 0 276.5 -21t164.5 -65.5t71.5 -112.5
t-2.5 -162q-23 -130 -111 -229q-16 -18 -41.5 -45t-38 -41t-24 -33.5t-13.5 -36.5q-3 -27 15.5 -50.5t73.5 -76.5z" />
    <glyph glyph-name="agrave" unicode="&#xe0;" horiz-adv-x="1255" 
d="M817 1090l-508 217l164 266l481 -307zM752 0l-4 199q-137 -206 -400 -224q-108 -7 -178.5 30t-101 112t-35.5 182.5t18 241.5q11 72 27 131.5t37.5 107t44.5 85t55 65.5t62.5 48t73 33.5t80 22t90.5 12.5t97 5.5t107 1.5q107 0 273 -22t225 -44l-140 -987h-331zM766 772
h-94q-37 0 -61.5 -7t-50.5 -28.5t-43.5 -67t-27.5 -116.5q-26 -157 -19.5 -204.5t62.5 -43.5q40 3 93 47.5t98 110.5z" />
    <glyph glyph-name="aacute" unicode="&#xe1;" horiz-adv-x="1255" 
d="M637 1090l-96 176l506 319l135 -299zM752 0l-4 199q-137 -206 -400 -224q-108 -7 -178.5 30t-101 112t-35.5 182.5t18 241.5q11 72 27 131.5t37.5 107t44.5 85t55 65.5t62.5 48t73 33.5t80 22t90.5 12.5t97 5.5t107 1.5q107 0 273 -22t225 -44l-140 -987h-331zM766 772
h-94q-37 0 -61.5 -7t-50.5 -28.5t-43.5 -67t-27.5 -116.5q-26 -157 -19.5 -204.5t62.5 -43.5q40 3 93 47.5t98 110.5z" />
    <glyph glyph-name="acircumflex" unicode="&#xe2;" horiz-adv-x="1255" 
d="M395 1087l-98 148l307 278h289l268 -286l-112 -140l-301 193h-17zM752 0l-4 199q-137 -206 -400 -224q-108 -7 -178.5 30t-101 112t-35.5 182.5t18 241.5q11 72 27 131.5t37.5 107t44.5 85t55 65.5t62.5 48t73 33.5t80 22t90.5 12.5t97 5.5t107 1.5q107 0 273 -22
t225 -44l-140 -987h-331zM766 772h-94q-37 0 -61.5 -7t-50.5 -28.5t-43.5 -67t-27.5 -116.5q-26 -157 -19.5 -204.5t62.5 -43.5q40 3 93 47.5t98 110.5z" />
    <glyph glyph-name="atilde" unicode="&#xe3;" horiz-adv-x="1255" 
d="M516 1145l-174 16q-4 169 50.5 253.5t150.5 84.5q61 0 191.5 -44.5t135.5 -45.5q50 -11 70 11t27 77l174 -16q7 -171 -46 -254.5t-149 -83.5q-62 0 -191 43.5t-145 46.5q-49 10 -67.5 -11t-26.5 -77zM752 0l-4 199q-137 -206 -400 -224q-108 -7 -178.5 30t-101 112
t-35.5 182.5t18 241.5q11 72 27 131.5t37.5 107t44.5 85t55 65.5t62.5 48t73 33.5t80 22t90.5 12.5t97 5.5t107 1.5q107 0 273 -22t225 -44l-140 -987h-331zM766 772h-94q-37 0 -61.5 -7t-50.5 -28.5t-43.5 -67t-27.5 -116.5q-26 -157 -19.5 -204.5t62.5 -43.5q40 3 93 47.5
t98 110.5z" />
    <glyph glyph-name="adieresis" unicode="&#xe4;" horiz-adv-x="1255" 
d="M625 1178h-166q-74 0 -62 67l23 150q4 38 23 54.5t57 16.5h157q74 0 62 -67l-23 -156q-5 -36 -20.5 -50.5t-50.5 -14.5zM1012 1178h-166q-74 0 -62 67l23 152q6 38 23 53.5t51 15.5h163q74 0 62 -67l-23 -154q-5 -37 -20.5 -52t-50.5 -15zM752 0l-4 199
q-137 -206 -400 -224q-108 -7 -178.5 30t-101 112t-35.5 182.5t18 241.5q11 72 27 131.5t37.5 107t44.5 85t55 65.5t62.5 48t73 33.5t80 22t90.5 12.5t97 5.5t107 1.5q107 0 273 -22t225 -44l-140 -987h-331zM766 772h-94q-37 0 -61.5 -7t-50.5 -28.5t-43.5 -67
t-27.5 -116.5q-26 -157 -19.5 -204.5t62.5 -43.5q40 3 93 47.5t98 110.5z" />
    <glyph glyph-name="aring" unicode="&#xe5;" horiz-adv-x="1255" 
d="M745 1083q-117 0 -190.5 78t-58.5 187q13 98 86 164.5t186 66.5q114 0 190.5 -77.5t61.5 -186.5q-13 -98 -87 -165t-188 -67zM666 1337q-5 -45 18.5 -72.5t65.5 -27.5q43 0 70.5 28t29.5 72q1 39 -23.5 63.5t-64.5 24.5q-38 0 -64.5 -25t-31.5 -63zM752 0l-4 199
q-137 -206 -400 -224q-108 -7 -178.5 30t-101 112t-35.5 182.5t18 241.5q11 72 27 131.5t37.5 107t44.5 85t55 65.5t62.5 48t73 33.5t80 22t90.5 12.5t97 5.5t107 1.5q107 0 273 -22t225 -44l-140 -987h-331zM766 772h-94q-37 0 -61.5 -7t-50.5 -28.5t-43.5 -67
t-27.5 -116.5q-26 -157 -19.5 -204.5t62.5 -43.5q40 3 93 47.5t98 110.5z" />
    <glyph glyph-name="ae" unicode="&#xe6;" horiz-adv-x="1878" 
d="M1718 328l27 -262q-191 -91 -477 -91q-221 0 -345 60t-171 180q-133 -222 -404 -240q-107 -7 -176.5 30t-100 112t-35.5 182.5t17 241.5q12 80 28.5 145t35.5 114.5t46.5 87.5t53.5 64.5t64.5 45t72 29t83 16.5t90 8t100.5 2q223 3 438 -31q108 31 278 31
q155 0 259.5 -24t162 -73.5t76 -118.5t4.5 -165q-19 -132 -117.5 -185t-312.5 -69l-262 -21q1 -57 34 -74.5t120 -17.5q209 0 411 23zM1180 608l120 13q29 3 45.5 5.5t35.5 8.5t28.5 15.5t17 25.5t9.5 39q3 35 -14.5 48.5t-73.5 12.5q-82 -1 -115 -34.5t-53 -133.5zM535 305
q39 3 92 49.5t96 114.5l4 51q14 145 57 252h-114q-42 0 -67 -6.5t-48 -29t-37.5 -66.5t-25.5 -117q-26 -157 -19.5 -204.5t62.5 -43.5z" />
    <glyph glyph-name="ccedilla" unicode="&#xe7;" horiz-adv-x="1097" 
d="M963 330l30 -273q-173 -82 -450 -82q-281 0 -410.5 132.5t-89.5 422.5q26 189 87.5 300.5t180 167t310.5 55.5q281 0 469 -80l-58 -262h-360q-90 0 -127.5 -41.5t-52.5 -151.5q-7 -64 -8 -103.5t15.5 -61.5t43 -30t75.5 -8q207 0 345 15zM287 -240l37 148q72 9 124.5 12
t102 -3t78 -23.5t42 -51.5t5.5 -84q-28 -164 -169.5 -236.5t-338.5 -45.5l43 157q39 0 68 3.5t59.5 12.5t50 29t25.5 50q2 11 0 16.5t-15.5 9.5t-38.5 5t-73 1z" />
    <glyph glyph-name="egrave" unicode="&#xe8;" horiz-adv-x="1208" 
d="M795 1090l-508 217l164 266l481 -307zM1049 328l28 -262q-194 -91 -485 -91q-173 0 -287.5 35t-175.5 107t-80.5 169t-5.5 234q13 130 48 223.5t85.5 153t127.5 94.5t162.5 48.5t201.5 13.5q157 0 263 -24t164 -74t76.5 -118.5t4.5 -164.5q-19 -132 -118.5 -185
t-318.5 -69l-256 -19q3 -57 35 -75.5t111 -18.5q215 0 420 23zM510 608l117 13q73 7 103 23.5t36 70.5q3 36 -15.5 49t-78.5 12q-76 -2 -108 -35t-54 -133z" />
    <glyph glyph-name="eacute" unicode="&#xe9;" horiz-adv-x="1208" 
d="M614 1090l-96 176l506 319l135 -299zM1049 328l28 -262q-194 -91 -485 -91q-173 0 -287.5 35t-175.5 107t-80.5 169t-5.5 234q13 130 48 223.5t85.5 153t127.5 94.5t162.5 48.5t201.5 13.5q157 0 263 -24t164 -74t76.5 -118.5t4.5 -164.5q-19 -132 -118.5 -185
t-318.5 -69l-256 -19q3 -57 35 -75.5t111 -18.5q215 0 420 23zM510 608l117 13q73 7 103 23.5t36 70.5q3 36 -15.5 49t-78.5 12q-76 -2 -108 -35t-54 -133z" />
    <glyph glyph-name="ecircumflex" unicode="&#xea;" horiz-adv-x="1208" 
d="M373 1087l-99 148l308 278h288l269 -286l-113 -140l-301 193h-16zM1049 328l28 -262q-194 -91 -485 -91q-173 0 -287.5 35t-175.5 107t-80.5 169t-5.5 234q13 130 48 223.5t85.5 153t127.5 94.5t162.5 48.5t201.5 13.5q157 0 263 -24t164 -74t76.5 -118.5t4.5 -164.5
q-19 -132 -118.5 -185t-318.5 -69l-256 -19q3 -57 35 -75.5t111 -18.5q215 0 420 23zM510 608l117 13q73 7 103 23.5t36 70.5q3 36 -15.5 49t-78.5 12q-76 -2 -108 -35t-54 -133z" />
    <glyph glyph-name="edieresis" unicode="&#xeb;" horiz-adv-x="1208" 
d="M602 1178h-166q-73 0 -61 67l22 150q4 38 23 54.5t57 16.5h158q73 0 61 -67l-22 -156q-5 -35 -21 -50t-51 -15zM989 1178h-166q-73 0 -61 67l22 152q6 38 23 53.5t51 15.5h164q73 0 61 -67l-22 -154q-5 -37 -21 -52t-51 -15zM1049 328l28 -262q-194 -91 -485 -91
q-173 0 -287.5 35t-175.5 107t-80.5 169t-5.5 234q13 130 48 223.5t85.5 153t127.5 94.5t162.5 48.5t201.5 13.5q157 0 263 -24t164 -74t76.5 -118.5t4.5 -164.5q-19 -132 -118.5 -185t-318.5 -69l-256 -19q3 -57 35 -75.5t111 -18.5q215 0 420 23zM510 608l117 13
q73 7 103 23.5t36 70.5q3 36 -15.5 49t-78.5 12q-76 -2 -108 -35t-54 -133z" />
    <glyph glyph-name="igrave" unicode="&#xec;" horiz-adv-x="626" 
d="M602 1266l-137 -176l-508 217l164 266zM446 0h-432l144 1024h432z" />
    <glyph glyph-name="iacute" unicode="&#xed;" horiz-adv-x="626" 
d="M829 1286l-544 -196l-97 176l506 319zM446 0h-432l144 1024h432z" />
    <glyph glyph-name="icircumflex" unicode="&#xee;" horiz-adv-x="626" 
d="M809 1227l-113 -140l-301 193h-16l-336 -193l-98 148l307 278h289zM446 0h-432l144 1024h432z" />
    <glyph glyph-name="idieresis" unicode="&#xef;" horiz-adv-x="626" 
d="M147 1466h158q74 0 62 -67l-23 -156q-5 -35 -21 -50t-51 -15h-166q-73 0 -61 67l23 150q5 38 23 54.5t56 16.5zM528 1466h164q74 0 62 -67l-23 -154q-5 -37 -21 -52t-51 -15h-165q-74 0 -62 67l23 152q6 38 22.5 53.5t50.5 15.5zM446 0h-432l144 1024h432z" />
    <glyph glyph-name="eth" unicode="&#xf0;" horiz-adv-x="1234" 
d="M1274 1296l-162 -139q109 -205 62 -577q-21 -172 -69 -289.5t-129 -188t-187 -101t-254 -30.5q-129 0 -227.5 28.5t-165.5 87t-94.5 151.5t-10.5 217q33 249 153.5 361t335.5 112q140 0 228 -51q2 88 -15.5 143.5t-62.5 92t-122 48t-196 2.5l48 267q295 18 477 -62
l180 160zM565 266q74 0 103.5 67.5t58.5 276.5l4 31q-43 16 -86 16q-76 0 -108 -46t-50 -160q-20 -107 -5.5 -146t83.5 -39z" />
    <glyph glyph-name="ntilde" unicode="&#xf1;" horiz-adv-x="1267" 
d="M500 1145l-174 16q-4 169 50 253.5t150 84.5q61 0 192 -44.5t136 -45.5q50 -11 69.5 11t26.5 77l174 -16q7 -171 -45.5 -254.5t-148.5 -83.5q-62 0 -191 43.5t-145 46.5q-49 10 -67.5 -11t-26.5 -77zM483 1024l11 -180q97 97 216 153t232 56q133 0 210 -77t56 -218
l-106 -758h-432l88 618q6 43 -5.5 59.5t-50.5 12.5q-82 -7 -180 -82l-86 -608h-430l141 1024h336z" />
    <glyph glyph-name="ograve" unicode="&#xf2;" horiz-adv-x="1259" 
d="M936 1266l-137 -176l-508 217l164 266zM670 1053q313 0 438.5 -129t83.5 -430q-41 -289 -179 -404t-444 -115q-311 0 -439.5 128t-86.5 423q41 294 179.5 410.5t447.5 116.5zM662 762q-83 0 -114 -50t-56 -218q-16 -92 -12 -142.5t27 -68t79 -17.5q77 0 107 48.5
t55 211.5q17 95 13 147.5t-25.5 70.5t-73.5 18z" />
    <glyph glyph-name="oacute" unicode="&#xf3;" horiz-adv-x="1259" 
d="M1163 1286l-545 -196l-96 176l506 319zM670 1053q313 0 438.5 -129t83.5 -430q-41 -289 -179 -404t-444 -115q-311 0 -439.5 128t-86.5 423q41 294 179.5 410.5t447.5 116.5zM662 762q-83 0 -114 -50t-56 -218q-16 -92 -12 -142.5t27 -68t79 -17.5q77 0 107 48.5
t55 211.5q17 95 13 147.5t-25.5 70.5t-73.5 18z" />
    <glyph glyph-name="ocircumflex" unicode="&#xf4;" horiz-adv-x="1259" 
d="M1143 1227l-113 -140l-301 193h-16l-336 -193l-98 148l307 278h288zM670 1053q313 0 438.5 -129t83.5 -430q-41 -289 -179 -404t-444 -115q-311 0 -439.5 128t-86.5 423q41 294 179.5 410.5t447.5 116.5zM662 762q-83 0 -114 -50t-56 -218q-16 -92 -12 -142.5t27 -68
t79 -17.5q77 0 107 48.5t55 211.5q17 95 13 147.5t-25.5 70.5t-73.5 18z" />
    <glyph glyph-name="otilde" unicode="&#xf5;" horiz-adv-x="1259" 
d="M498 1145l-174 16q-4 169 50 253.5t150 84.5q61 0 192 -44.5t136 -45.5q50 -11 69.5 11t26.5 77l174 -16q7 -171 -45.5 -254.5t-148.5 -83.5q-62 0 -191 43.5t-145 46.5q-49 10 -67.5 -11t-26.5 -77zM670 1053q313 0 438.5 -129t83.5 -430q-41 -289 -179 -404t-444 -115
q-311 0 -439.5 128t-86.5 423q41 294 179.5 410.5t447.5 116.5zM662 762q-83 0 -114 -50t-56 -218q-16 -92 -12 -142.5t27 -68t79 -17.5q77 0 107 48.5t55 211.5q17 95 13 147.5t-25.5 70.5t-73.5 18z" />
    <glyph glyph-name="odieresis" unicode="&#xf6;" horiz-adv-x="1259" 
d="M481 1466h158q73 0 61 -67l-22 -156q-5 -35 -21 -50t-51 -15h-166q-73 0 -61 67l22 150q4 38 23 54.5t57 16.5zM862 1466h164q73 0 61 -67l-22 -154q-5 -37 -21 -52t-51 -15h-166q-73 0 -61 67l22 152q6 38 23 53.5t51 15.5zM670 1053q313 0 438.5 -129t83.5 -430
q-41 -289 -179 -404t-444 -115q-311 0 -439.5 128t-86.5 423q41 294 179.5 410.5t447.5 116.5zM662 762q-83 0 -114 -50t-56 -218q-16 -92 -12 -142.5t27 -68t79 -17.5q77 0 107 48.5t55 211.5q17 95 13 147.5t-25.5 70.5t-73.5 18z" />
    <glyph glyph-name="divide" unicode="&#xf7;" horiz-adv-x="1081" 
d="M580 1192h84q97 0 132.5 -36.5t20.5 -131.5l-2 -29q-13 -98 -53 -133t-137 -35h-95q-101 0 -135 37.5t-20 134.5l4 29q13 96 57 130t144 34zM1006 440h-977l47 316h977zM459 360h82q98 0 133 -36.5t22 -133.5l-4 -28q-12 -98 -51.5 -132t-136.5 -34h-94q-102 0 -136.5 38
t-19.5 134l4 29q12 96 56 129.5t145 33.5z" />
    <glyph glyph-name="oslash" unicode="&#xf8;" horiz-adv-x="1261" 
d="M1178 1104l-97 -156q156 -127 111 -454q-41 -289 -179 -404t-444 -115q-55 0 -82 2l-120 -194l-267 145l82 131q-187 125 -139 467q41 294 179.5 410.5t447.5 116.5q44 0 114 -4l127 202zM748 526q17 95 13 147.5t-25.5 70.5t-73.5 18q-83 0 -114 -50t-56 -218
q-16 -92 -12 -142.5t27 -68t79 -17.5q77 0 107 48.5t55 211.5z" />
    <glyph glyph-name="ugrave" unicode="&#xf9;" horiz-adv-x="1255" 
d="M793 1112l-508 217l164 266l481 -307zM1225 1024l-142 -1024h-335l-9 174q-209 -203 -417 -203q-159 0 -232 76.5t-53 218.5l104 758h432l-92 -637q-4 -31 8.5 -43t38.5 -12q43 0 84 17t99 59l88 616h426z" />
    <glyph glyph-name="uacute" unicode="&#xfa;" horiz-adv-x="1255" 
d="M612 1112l-96 176l506 320l135 -299zM1225 1024l-142 -1024h-335l-9 174q-209 -203 -417 -203q-159 0 -232 76.5t-53 218.5l104 758h432l-92 -637q-4 -31 8.5 -43t38.5 -12q43 0 84 17t99 59l88 616h426z" />
    <glyph glyph-name="ucircumflex" unicode="&#xfb;" horiz-adv-x="1255" 
d="M371 1110l-99 147l308 279h288l269 -287l-113 -139l-301 193h-16zM1225 1024l-142 -1024h-335l-9 174q-209 -203 -417 -203q-159 0 -232 76.5t-53 218.5l104 758h432l-92 -637q-4 -31 8.5 -43t38.5 -12q43 0 84 17t99 59l88 616h426z" />
    <glyph glyph-name="udieresis" unicode="&#xfc;" horiz-adv-x="1255" 
d="M600 1200h-166q-73 0 -61 68l22 149q5 38 23.5 55t56.5 17h158q73 0 61 -68l-22 -155q-5 -36 -21 -51t-51 -15zM987 1200h-166q-73 0 -61 68l22 151q6 38 23 54t51 16h164q73 0 61 -68l-22 -153q-5 -37 -21 -52.5t-51 -15.5zM1225 1024l-142 -1024h-335l-9 174
q-209 -203 -417 -203q-159 0 -232 76.5t-53 218.5l104 758h432l-92 -637q-4 -31 8.5 -43t38.5 -12q43 0 84 17t99 59l88 616h426z" />
    <glyph glyph-name="yacute" unicode="&#xfd;" horiz-adv-x="1273" 
d="M602 1090l-96 176l506 319l135 -299zM827 1024h461q-34 -252 -155.5 -568t-200.5 -440q-148 -232 -344.5 -341.5t-452.5 -96.5l-26 232q27 9 81.5 26.5t81.5 28t67.5 29.5t73.5 45t64 61h-162q-50 0 -85.5 31t-41.5 78l-127 915h471l17 -733q0 -13 9.5 -23t23.5 -10h49
q69 156 114.5 335t81.5 431z" />
    <glyph glyph-name="thorn" unicode="&#xfe;" horiz-adv-x="1261" 
d="M553 928l6 -15q143 136 320 136q201 0 272.5 -138.5t38.5 -427.5q-31 -265 -146.5 -388.5t-287.5 -123.5q-183 0 -324 27q-8 -119 -18 -172l-29 -195h-430l252 1803h430l-29 -213q-20 -158 -55 -293zM471 231h98q64 0 96.5 17.5t52 67.5t32.5 155q20 126 13 187t-65 61
t-101.5 -40t-82.5 -110z" />
    <glyph glyph-name="ydieresis" unicode="&#xff;" horiz-adv-x="1273" 
d="M590 1178h-166q-74 0 -62 67l23 150q4 38 23 54.5t57 16.5h158q73 0 61 -67l-22 -156q-5 -35 -21 -50t-51 -15zM977 1178h-166q-73 0 -61 67l22 152q6 38 23 53.5t51 15.5h164q73 0 61 -67l-22 -154q-5 -37 -21 -52t-51 -15zM827 1024h461q-34 -252 -155.5 -568
t-200.5 -440q-148 -232 -344.5 -341.5t-452.5 -96.5l-26 232q27 9 81.5 26.5t81.5 28t67.5 29.5t73.5 45t64 61h-162q-50 0 -85.5 31t-41.5 78l-127 915h471l17 -733q0 -13 9.5 -23t23.5 -10h49q69 156 114.5 335t81.5 431z" />
    <glyph glyph-name="Amacron" unicode="&#x100;" horiz-adv-x="1388" 
d="M1147 1581h-655l34 252h656zM856 299h-385l-111 -299h-460l544 1307q41 106 156 106h401q54 0 95 -35.5t47 -87.5l182 -1290h-444zM831 623l-24 305q-6 54 -2 157h-57q-14 -79 -41 -153l-115 -309h239z" />
    <glyph glyph-name="amacron" unicode="&#x101;" horiz-adv-x="1255" 
d="M1059 1196h-656l35 252h656zM752 0l-4 199q-137 -206 -400 -224q-108 -7 -178.5 30t-101 112t-35.5 182.5t18 241.5q11 72 27 131.5t37.5 107t44.5 85t55 65.5t62.5 48t73 33.5t80 22t90.5 12.5t97 5.5t107 1.5q107 0 273 -22t225 -44l-140 -987h-331zM766 772h-94
q-37 0 -61.5 -7t-50.5 -28.5t-43.5 -67t-27.5 -116.5q-26 -157 -19.5 -204.5t62.5 -43.5q40 3 93 47.5t98 110.5z" />
    <glyph glyph-name="Abreve" unicode="&#x102;" horiz-adv-x="1388" 
d="M1034 1884l193 -31q5 -143 -104 -243.5t-294 -100.5q-123 0 -210.5 52.5t-118.5 135t-2 173.5l200 10q-10 -63 25 -88t125 -25q173 0 186 117zM856 299h-385l-111 -299h-460l544 1307q41 106 156 106h401q54 0 95 -35.5t47 -87.5l182 -1290h-444zM831 623l-24 305
q-6 54 -2 157h-57q-14 -79 -41 -153l-115 -309h239z" />
    <glyph glyph-name="abreve" unicode="&#x103;" horiz-adv-x="1255" 
d="M946 1499l193 -31q5 -143 -104 -243.5t-294 -100.5q-123 0 -210.5 52.5t-118.5 135t-2 173.5l200 10q-10 -63 25 -88t125 -25q173 0 186 117zM752 0l-4 199q-137 -206 -400 -224q-108 -7 -178.5 30t-101 112t-35.5 182.5t18 241.5q11 72 27 131.5t37.5 107t44.5 85
t55 65.5t62.5 48t73 33.5t80 22t90.5 12.5t97 5.5t107 1.5q107 0 273 -22t225 -44l-140 -987h-331zM766 772h-94q-37 0 -61.5 -7t-50.5 -28.5t-43.5 -67t-27.5 -116.5q-26 -157 -19.5 -204.5t62.5 -43.5q40 3 93 47.5t98 110.5z" />
    <glyph glyph-name="Aogonek" unicode="&#x104;" horiz-adv-x="1388" 
d="M1325 0h2q-37 -40 -70.5 -92.5t-46.5 -93.5q-11 -34 4.5 -46.5t61.5 -3.5l31 -151q-73 -26 -136 -36.5t-109 -6t-82 19.5t-56.5 39.5t-30 53.5t-5 62t20.5 65q51 97 211 190h-239l-25 299h-385l-111 -299h-460l544 1307q41 106 156 106h401q54 0 95 -35.5t47 -87.5z
M831 623l-24 305q-6 54 -2 157h-57q-14 -79 -41 -153l-115 -309h239z" />
    <glyph glyph-name="aogonek" unicode="&#x105;" horiz-adv-x="1255" 
d="M1223 987l-140 -987q-37 -40 -70 -92.5t-46 -93.5q-11 -34 4 -46.5t61 -3.5l31 -151q-73 -26 -136 -36.5t-109 -6t-82 19.5t-56 39.5t-29.5 53.5t-5 62t20.5 65q51 97 211 190h-125l-4 199q-137 -206 -400 -224q-108 -7 -178.5 30t-101 112t-35.5 182.5t18 241.5
q11 72 27 131.5t37.5 107t44.5 85t55 65.5t62.5 48t73 33.5t80 22t90.5 12.5t97 5.5t107 1.5q107 0 273 -22t225 -44zM766 772h-94q-37 0 -61.5 -7t-50.5 -28.5t-43.5 -67t-27.5 -116.5q-26 -157 -19.5 -204.5t62.5 -43.5q40 3 93 47.5t98 110.5z" />
    <glyph glyph-name="Cacute" unicode="&#x106;" horiz-adv-x="1234" 
d="M1282 1673l-545 -196l-96 176l506 319zM1116 367l17 -326q-116 -36 -226.5 -51t-263.5 -15q-240 0 -373 71t-179 234.5t-7 442.5q20 145 47.5 251t69.5 187t94.5 133t128.5 85t165.5 46t211.5 13q152 0 254 -13.5t211 -44.5l-52 -321q-300 4 -436 4q-47 0 -76 -7
t-55 -27.5t-42.5 -63.5t-30.5 -107.5t-27 -167.5q-22 -137 -20 -212.5t31 -101.5t106 -26q266 0 452 17z" />
    <glyph glyph-name="cacute" unicode="&#x107;" horiz-adv-x="1097" 
d="M1120 1286l-545 -196l-96 176l506 319zM963 330l30 -273q-173 -82 -450 -82q-281 0 -410.5 132.5t-89.5 422.5q26 189 87.5 300.5t180 167t310.5 55.5q281 0 469 -80l-58 -262h-360q-90 0 -127.5 -41.5t-52.5 -151.5q-7 -64 -8 -103.5t15.5 -61.5t43 -30t75.5 -8
q207 0 345 15z" />
    <glyph glyph-name="Cdotaccent" unicode="&#x10a;" horiz-adv-x="1234" 
d="M805 1872h121q58 0 90 -31t26 -90l-10 -100q-12 -109 -123 -109h-129q-132 0 -114 125l12 96q7 53 40.5 81t86.5 28zM1116 367l17 -326q-116 -36 -226.5 -51t-263.5 -15q-240 0 -373 71t-179 234.5t-7 442.5q20 145 47.5 251t69.5 187t94.5 133t128.5 85t165.5 46
t211.5 13q152 0 254 -13.5t211 -44.5l-52 -321q-300 4 -436 4q-47 0 -76 -7t-55 -27.5t-42.5 -63.5t-30.5 -107.5t-27 -167.5q-22 -137 -20 -212.5t31 -101.5t106 -26q266 0 452 17z" />
    <glyph glyph-name="cdotaccent" unicode="&#x10b;" horiz-adv-x="1097" 
d="M643 1485h121q58 0 90.5 -31t26.5 -90l-11 -100q-12 -109 -122 -109h-130q-132 0 -114 125l12 96q7 53 40.5 81t86.5 28zM963 330l30 -273q-173 -82 -450 -82q-281 0 -410.5 132.5t-89.5 422.5q26 189 87.5 300.5t180 167t310.5 55.5q281 0 469 -80l-58 -262h-360
q-90 0 -127.5 -41.5t-52.5 -151.5q-7 -64 -8 -103.5t15.5 -61.5t43 -30t75.5 -8q207 0 345 15z" />
    <glyph glyph-name="Ccaron" unicode="&#x10c;" horiz-adv-x="1234" 
d="M1282 1780l-367 -269h-167l-334 295l118 136l302 -166h16l350 157zM1116 367l17 -326q-116 -36 -226.5 -51t-263.5 -15q-240 0 -373 71t-179 234.5t-7 442.5q20 145 47.5 251t69.5 187t94.5 133t128.5 85t165.5 46t211.5 13q152 0 254 -13.5t211 -44.5l-52 -321
q-300 4 -436 4q-47 0 -76 -7t-55 -27.5t-42.5 -63.5t-30.5 -107.5t-27 -167.5q-22 -137 -20 -212.5t31 -101.5t106 -26q266 0 452 17z" />
    <glyph glyph-name="ccaron" unicode="&#x10d;" horiz-adv-x="1097" 
d="M1120 1393l-366 -269h-168l-334 295l119 135l301 -165h16l350 157zM963 330l30 -273q-173 -82 -450 -82q-281 0 -410.5 132.5t-89.5 422.5q26 189 87.5 300.5t180 167t310.5 55.5q281 0 469 -80l-58 -262h-360q-90 0 -127.5 -41.5t-52.5 -151.5q-7 -64 -8 -103.5
t15.5 -61.5t43 -30t75.5 -8q207 0 345 15z" />
    <glyph glyph-name="Dcaron" unicode="&#x10e;" 
d="M735 1509l-334 295l119 135l301 -165h17l350 157l82 -153l-367 -269h-168zM23 0l198 1413q276 21 576 21q101 0 181 -10.5t149 -35t118 -64t84 -97.5t51.5 -135t17 -177.5t-17.5 -224.5q-31 -216 -78.5 -350t-134 -216.5t-205.5 -113t-305 -30.5q-321 0 -634 20zM510 303
l141 -2q56 0 94 16.5t71.5 61.5t56.5 129t40 215q24 155 19.5 241.5t-37 117t-113.5 30.5h-159z" />
    <glyph glyph-name="dcaron" unicode="&#x10f;" horiz-adv-x="1263" 
d="M862 1434h430l-202 -1434h-340l-9 164q-198 -189 -383 -189q-380 0 -309 566q16 121 45.5 211.5t68.5 147t91 91.5t106.5 48.5t122.5 13.5q187 0 328 -27q0 122 14 213zM1505 1432h66q75 0 105 -27.5t20 -89.5l-17 -98q-14 -82 -61 -174t-107 -150l-157 49q11 20 20 40.5
t18 45.5t14 39t15 45t13 41q-60 -1 -82.5 22.5t-14.5 75.5l13 72q10 61 46 85t109 24zM766 793h-96q-64 0 -96.5 -17.5t-52.5 -67.5t-34 -155q0 -4 -1 -11q-17 -132 -8 -168q10 -46 63 -42q79 5 172 71z" />
    <glyph glyph-name="Dcroat" unicode="&#x110;" 
d="M141 846l80 567q276 21 576 21q101 0 181 -10.5t149 -35t118 -64t84 -97.5t51.5 -135t17 -177.5t-17.5 -224.5q-31 -216 -78.5 -350t-134 -216.5t-205.5 -113t-305 -30.5q-321 0 -634 20l90 641h-97l29 205h96zM510 303l141 -2q56 0 94 16.5t71.5 61.5t56.5 129t40 215
q24 155 19.5 241.5t-37 117t-113.5 30.5h-159l-37 -266h178l-29 -205h-178z" />
    <glyph glyph-name="dcroat" unicode="&#x111;" horiz-adv-x="1273" 
d="M1378 1120h-131l-157 -1120h-340l-9 164q-198 -189 -383 -189q-380 0 -309 566q16 121 45.5 211.5t68.5 147t91 91.5t106.5 48.5t122.5 13.5q187 0 328 -27q0 61 2 94h-195l25 172h193l26 142h430l-20 -142h131zM766 793h-96q-64 0 -96.5 -17.5t-52.5 -67.5t-34 -155
q0 -4 -1 -11q-17 -132 -8 -168q10 -46 63 -42q79 5 172 71z" />
    <glyph glyph-name="Emacron" unicode="&#x112;" horiz-adv-x="1202" 
d="M1110 1581h-655l34 252h656zM1194 1081h-492q-52 0 -75 -18t-29 -64l-18 -129h510l-37 -295h-514l-23 -163q-12 -80 76 -80h491l-8 -316q-36 -5 -79.5 -9t-78.5 -6.5t-91.5 -4t-85.5 -2.5t-95 -1.5t-86 -0.5h-93h-83q-171 0 -255 107t-62 278l102 731q21 145 114.5 229
t247.5 84q516 0 713 -28z" />
    <glyph glyph-name="emacron" unicode="&#x113;" horiz-adv-x="1208" 
d="M1036 1196h-655l35 252h655zM1049 328l28 -262q-194 -91 -485 -91q-173 0 -287.5 35t-175.5 107t-80.5 169t-5.5 234q13 130 48 223.5t85.5 153t127.5 94.5t162.5 48.5t201.5 13.5q157 0 263 -24t164 -74t76.5 -118.5t4.5 -164.5q-19 -132 -118.5 -185t-318.5 -69
l-256 -19q3 -57 35 -75.5t111 -18.5q215 0 420 23zM510 608l117 13q73 7 103 23.5t36 70.5q3 36 -15.5 49t-78.5 12q-76 -2 -108 -35t-54 -133z" />
    <glyph glyph-name="Edotaccent" unicode="&#x116;" horiz-adv-x="1202" 
d="M860 1540h-129q-133 0 -115 125l13 96q7 53 40.5 81t86.5 28h121q58 0 90 -31t26 -90l-10 -100q-12 -109 -123 -109zM1194 1081h-492q-52 0 -75 -18t-29 -64l-18 -129h510l-37 -295h-514l-23 -163q-12 -80 76 -80h491l-8 -316q-36 -5 -79.5 -9t-78.5 -6.5t-91.5 -4
t-85.5 -2.5t-95 -1.5t-86 -0.5h-93h-83q-171 0 -255 107t-62 278l102 731q21 145 114.5 229t247.5 84q516 0 713 -28z" />
    <glyph glyph-name="edotaccent" unicode="&#x117;" horiz-adv-x="1208" 
d="M786 1155h-129q-132 0 -114 125l12 96q7 53 40.5 81t86.5 28h121q58 0 90.5 -31t26.5 -90l-11 -100q-12 -109 -123 -109zM1049 328l28 -262q-194 -91 -485 -91q-173 0 -287.5 35t-175.5 107t-80.5 169t-5.5 234q13 130 48 223.5t85.5 153t127.5 94.5t162.5 48.5
t201.5 13.5q157 0 263 -24t164 -74t76.5 -118.5t4.5 -164.5q-19 -132 -118.5 -185t-318.5 -69l-256 -19q3 -57 35 -75.5t111 -18.5q215 0 420 23zM510 608l117 13q73 7 103 23.5t36 70.5q3 36 -15.5 49t-78.5 12q-76 -2 -108 -35t-54 -133z" />
    <glyph glyph-name="Eogonek" unicode="&#x118;" horiz-adv-x="1202" 
d="M1194 1081h-492q-52 0 -75 -18t-29 -64l-18 -129h510l-37 -295h-514l-23 -163q-12 -80 76 -80h491l-8 -316q-37 -40 -70.5 -92.5t-46.5 -93.5q-11 -34 4 -46t62 -3l31 -152q-73 -26 -136 -36.5t-109 -6t-82 19.5t-56.5 39.5t-30 53.5t-5 62t20.5 65q44 86 179 172
q-150 -6 -453 -6q-171 0 -255 107t-62 278l102 731q21 145 114.5 229t247.5 84q516 0 713 -28z" />
    <glyph glyph-name="eogonek" unicode="&#x119;" horiz-adv-x="1208" 
d="M1026 -170l31 -152q-73 -26 -136 -36.5t-109 -6t-82 19.5t-56.5 39.5t-30 53.5t-5 62t20.5 65q26 50 91 109q-80 -9 -158 -9q-173 0 -287.5 35t-175.5 107t-80.5 169t-5.5 234q13 130 48 223.5t85.5 153t127.5 94.5t162.5 48.5t201.5 13.5q157 0 263 -24t164 -74
t76.5 -118.5t4.5 -164.5q-19 -132 -118.5 -185t-318.5 -69l-256 -19q3 -57 35 -75.5t111 -18.5q215 0 420 23l28 -262q-37 -40 -69.5 -93t-46.5 -94q-11 -34 4 -46t61 -3zM510 608l117 13q73 7 103 23.5t36 70.5q3 36 -15.5 49t-78.5 12q-76 -2 -108 -35t-54 -133z" />
    <glyph glyph-name="Ecaron" unicode="&#x11a;" horiz-adv-x="1202" 
d="M698 1509l-333 295l118 135l301 -165h17l350 157l82 -153l-367 -269h-168zM1194 1081h-492q-52 0 -75 -18t-29 -64l-18 -129h510l-37 -295h-514l-23 -163q-12 -80 76 -80h491l-8 -316q-36 -5 -79.5 -9t-78.5 -6.5t-91.5 -4t-85.5 -2.5t-95 -1.5t-86 -0.5h-93h-83
q-171 0 -255 107t-62 278l102 731q21 145 114.5 229t247.5 84q516 0 713 -28z" />
    <glyph glyph-name="ecaron" unicode="&#x11b;" horiz-adv-x="1208" 
d="M625 1124l-334 295l119 135l301 -165h16l350 157l82 -153l-366 -269h-168zM1049 328l28 -262q-194 -91 -485 -91q-173 0 -287.5 35t-175.5 107t-80.5 169t-5.5 234q13 130 48 223.5t85.5 153t127.5 94.5t162.5 48.5t201.5 13.5q157 0 263 -24t164 -74t76.5 -118.5
t4.5 -164.5q-19 -132 -118.5 -185t-318.5 -69l-256 -19q3 -57 35 -75.5t111 -18.5q215 0 420 23zM510 608l117 13q73 7 103 23.5t36 70.5q3 36 -15.5 49t-78.5 12q-76 -2 -108 -35t-54 -133z" />
    <glyph glyph-name="Gbreve" unicode="&#x11e;" horiz-adv-x="1372" 
d="M1065 1884l192 -31q5 -143 -103.5 -243.5t-293.5 -100.5q-123 0 -210.5 52.5t-119 135t-2.5 173.5l201 10q-10 -63 25 -88t125 -25q173 0 186 117zM903 813h424l-115 -813h-325l-17 164q-189 -193 -413 -193q-86 0 -153 24t-121 77.5t-81.5 140.5t-34.5 214t19 296
q21 147 52 256t78.5 189.5t106.5 133t141.5 84t176.5 44t219 12.5q273 0 473 -62l-49 -317q-308 4 -455 4q-133 0 -189.5 -78.5t-90.5 -298.5q-17 -108 -20 -171.5t11 -102.5t42.5 -52.5t81.5 -13.5q44 0 83 12t57 22.5t44 29.5z" />
    <glyph glyph-name="gbreve" unicode="&#x11f;" horiz-adv-x="1265" 
d="M944 1511l193 -30q5 -143 -104 -243.5t-294 -100.5q-123 0 -210.5 52t-118.5 134.5t-2 173.5l200 10q-10 -63 25 -87.5t125 -24.5q173 0 186 116zM31 -115h258q156 0 254 29t145 102q26 39 46 111t34 100q-139 -218 -414 -231q-109 -5 -180 32t-102 108.5t-36 174.5
t17 230q19 119 46 206t68 142.5t81.5 89t105 49.5t118 20.5t140.5 4.5q190 0 364.5 -20.5t256.5 -45.5l-113 -803q-15 -112 -43.5 -202t-65.5 -152.5t-87 -108t-100 -72t-114 -42t-119 -20.5t-124 -5q-303 0 -457 72zM776 772h-98q-51 0 -81.5 -9.5t-51 -38t-31 -65
t-22.5 -106.5q-14 -80 -18.5 -129t1.5 -78t21 -37.5t43 -3.5q47 9 98 51.5t96 108.5z" />
    <glyph glyph-name="Gdotaccent" unicode="&#x120;" horiz-adv-x="1372" 
d="M928 1540h-129q-133 0 -115 125l12 96q7 53 40.5 81t86.5 28h121q58 0 90.5 -31t26.5 -90l-10 -100q-12 -109 -123 -109zM903 813h424l-115 -813h-325l-17 164q-189 -193 -413 -193q-86 0 -153 24t-121 77.5t-81.5 140.5t-34.5 214t19 296q21 147 52 256t78.5 189.5
t106.5 133t141.5 84t176.5 44t219 12.5q273 0 473 -62l-49 -317q-308 4 -455 4q-133 0 -189.5 -78.5t-90.5 -298.5q-17 -108 -20 -171.5t11 -102.5t42.5 -52.5t81.5 -13.5q44 0 83 12t57 22.5t44 29.5z" />
    <glyph glyph-name="gdotaccent" unicode="&#x121;" horiz-adv-x="1265" 
d="M807 1167h-129q-133 0 -115 125l12 97q7 53 40.5 80.5t86.5 27.5h121q58 0 90.5 -31t26.5 -90l-10 -100q-12 -109 -123 -109zM31 -115h258q156 0 254 29t145 102q26 39 46 111t34 100q-139 -218 -414 -231q-109 -5 -180 32t-102 108.5t-36 174.5t17 230q19 119 46 206
t68 142.5t81.5 89t105 49.5t118 20.5t140.5 4.5q190 0 364.5 -20.5t256.5 -45.5l-113 -803q-15 -112 -43.5 -202t-65.5 -152.5t-87 -108t-100 -72t-114 -42t-119 -20.5t-124 -5q-303 0 -457 72zM776 772h-98q-51 0 -81.5 -9.5t-51 -38t-31 -65t-22.5 -106.5
q-14 -80 -18.5 -129t1.5 -78t21 -37.5t43 -3.5q47 9 98 51.5t96 108.5z" />
    <glyph glyph-name="Gcommaaccent" unicode="&#x122;" horiz-adv-x="1372" 
d="M903 813h424l-115 -813h-325l-17 164q-189 -193 -413 -193q-86 0 -153 24t-121 77.5t-81.5 140.5t-34.5 214t19 296q21 147 52 256t78.5 189.5t106.5 133t141.5 84t176.5 44t219 12.5q273 0 473 -62l-49 -317q-308 4 -455 4q-133 0 -189.5 -78.5t-90.5 -298.5
q-17 -108 -20 -171.5t11 -102.5t42.5 -52.5t81.5 -13.5q44 0 83 12t57 22.5t44 29.5zM629 -98h65q75 0 105 -27.5t20 -89.5l-16 -98q-14 -82 -61 -174t-107 -150l-158 49q11 20 20 40.5t18 45.5t14 39t15 45t13 41q-60 -1 -82 22.5t-14 75.5l12 72q10 61 46.5 85t109.5 24z
" />
    <glyph glyph-name="gcommaaccent" unicode="&#x123;" horiz-adv-x="1265" 
d="M764 1122h-66q-75 0 -105 27.5t-20 89.5l17 98q14 82 61 174t107 150l157 -49q-13 -25 -25.5 -55.5t-18.5 -47.5t-19 -57.5t-16 -50.5q60 1 82 -22.5t14 -75.5l-12 -72q-10 -61 -46.5 -85t-109.5 -24zM31 -115h258q156 0 254 29t145 102q26 39 46 111t34 100
q-139 -218 -414 -231q-109 -5 -180 32t-102 108.5t-36 174.5t17 230q19 119 46 206t68 142.5t81.5 89t105 49.5t118 20.5t140.5 4.5q190 0 364.5 -20.5t256.5 -45.5l-113 -803q-15 -112 -43.5 -202t-65.5 -152.5t-87 -108t-100 -72t-114 -42t-119 -20.5t-124 -5
q-303 0 -457 72zM776 772h-98q-51 0 -81.5 -9.5t-51 -38t-31 -65t-22.5 -106.5q-14 -80 -18.5 -129t1.5 -78t21 -37.5t43 -3.5q47 9 98 51.5t96 108.5z" />
    <glyph glyph-name="Hbar" unicode="&#x126;" horiz-adv-x="1443" 
d="M1503 1042h-104l-148 -1042h-444l84 592h-338l-84 -592h-444l147 1042h-109l29 189h105l26 182h445l-27 -182h338l27 182h444l-27 -182h109zM954 1042h-338l-20 -135h338z" />
    <glyph glyph-name="hbar" unicode="&#x127;" horiz-adv-x="1259" 
d="M813 1120h-227q-16 -117 -60 -243q202 176 389 176q156 0 229.5 -77t53.5 -218l-106 -758h-430l90 637q6 33 -1.5 43t-37.5 10q-48 0 -93 -18t-108 -66l-84 -606h-430l158 1120h-103l25 172h100l21 142h430l-19 -142h228z" />
    <glyph glyph-name="Imacron" unicode="&#x12a;" horiz-adv-x="659" 
d="M793 1581h-656l35 252h655zM467 0h-442l198 1413h443z" />
    <glyph glyph-name="imacron" unicode="&#x12b;" horiz-adv-x="626" 
d="M707 1196h-656l35 252h655zM446 0h-432l144 1024h432z" />
    <glyph glyph-name="Iogonek" unicode="&#x12e;" horiz-adv-x="659" 
d="M666 1413l-199 -1413h-59q-37 -40 -70.5 -92.5t-46.5 -93.5q-11 -34 4 -46.5t61 -3.5l31 -151q-73 -26 -136 -36.5t-109 -6t-82 19.5t-56 39.5t-29.5 53.5t-5 62t20.5 65q51 97 211 190h-176l198 1413h443z" />
    <glyph glyph-name="iogonek" unicode="&#x12f;" horiz-adv-x="626" 
d="M352 1485h121q58 0 90.5 -31t26.5 -90l-10 -100q-12 -109 -123 -109h-129q-133 0 -115 125l12 96q7 53 40.5 81t86.5 28zM158 1024h432l-144 -1024h-40q-37 -40 -70.5 -92.5t-46.5 -93.5q-11 -34 4 -46.5t61 -3.5l31 -151q-73 -26 -136 -36.5t-109 -6t-82 19.5t-56 39.5
t-29.5 53.5t-5 62t20.5 65q51 97 211 190h-185z" />
    <glyph glyph-name="Idotaccent" unicode="&#x130;" horiz-adv-x="659" 
d="M438 1870h121q58 0 90.5 -31t26.5 -90l-10 -100q-12 -109 -123 -109h-129q-133 0 -115 125l12 96q7 53 40.5 81t86.5 28zM467 0h-442l198 1413h443z" />
    <glyph glyph-name="dotlessi" unicode="&#x131;" horiz-adv-x="626" 
d="M446 0h-432l144 1024h432z" />
    <glyph glyph-name="IJ" unicode="&#x132;" horiz-adv-x="1468" 
d="M467 0h-442l198 1413h443zM1479 1413l-160 -1161q-20 -136 -119.5 -208.5t-257.5 -72.5q-85 0 -186.5 16t-145.5 42l70 274h76q122 0 131 80l149 1030h443z" />
    <glyph glyph-name="ij" unicode="&#x133;" horiz-adv-x="1249" 
d="M346 1493h166q138 0 123 -135l-14 -105q-7 -61 -41.5 -89.5t-100.5 -28.5h-168q-136 0 -121 135l15 104q6 61 40.5 90t100.5 29zM973 1493h162q70 0 99.5 -33t20.5 -102l-14 -105q-14 -118 -145 -118h-162q-70 0 -100.5 33t-22.5 102l14 104q7 61 43.5 90t104.5 29z
M442 0h-428l142 1024h428zM1214 1024l-133 -913q-21 -165 -120 -304t-252 -200l-236 198q86 80 128 156t54 166l129 897h430z" />
    <glyph glyph-name="Kcommaaccent" unicode="&#x136;" horiz-adv-x="1368" 
d="M942 702l-2 -8q28 -12 60.5 -54t52.5 -89l245 -551h-479l-219 590h-63q8 -66 -2 -137l-64 -453h-446l198 1413h447l-56 -391q-10 -77 -32 -145h67l344 536h492l-395 -590q-55 -86 -148 -121zM598 -98h66q74 0 104 -27.5t20 -89.5l-16 -98q-14 -82 -61 -174t-107 -150
l-158 49q11 20 20 40.5t18 45.5t14 39t15 45t13 41q-60 -1 -82 22.5t-14 75.5l12 72q10 61 46.5 85t109.5 24z" />
    <glyph glyph-name="kcommaaccent" unicode="&#x137;" horiz-adv-x="1247" 
d="M795 1024h442q-70 -313 -350 -496q74 -53 114 -141l187 -387h-440l-175 379q-56 -22 -92 -31q0 -27 -4 -63l-41 -285h-430l201 1434h430l-78 -557q-20 -123 -88 -250q121 66 209.5 172.5t114.5 224.5zM541 -78h65q75 0 105 -27.5t20 -89.5l-16 -98q-14 -82 -61 -173.5
t-107 -149.5l-158 49q11 20 20 40.5t18 45.5t14 39t15 45t13 41q-60 -1 -82 22.5t-14 75.5l12 72q10 61 46.5 84.5t109.5 23.5z" />
    <glyph glyph-name="Lacute" unicode="&#x139;" horiz-adv-x="1130" 
d="M911 1642l-544 -196l-97 176l506 320zM662 1413l-146 -979q-5 -46 11 -64t63 -18h467l-8 -334q-196 -26 -678 -26q-154 0 -242 94t-66 236l152 1091h447z" />
    <glyph glyph-name="lacute" unicode="&#x13a;" horiz-adv-x="737" 
d="M903 1681l-545 -196l-96 176l506 319zM637 1434l-154 -1069q-7 -40 8.5 -53t71.5 -13h82l25 -279q-44 -25 -134 -37t-159 -12q-171 0 -261 80t-73 215l166 1168h428z" />
    <glyph glyph-name="Lcommaaccent" unicode="&#x13b;" horiz-adv-x="1130" 
d="M662 1413l-146 -979q-5 -46 11 -64t63 -18h467l-8 -334q-196 -26 -678 -26q-154 0 -242 94t-66 236l152 1091h447zM494 -98h65q75 0 105 -27.5t20 -89.5l-16 -98q-14 -82 -61 -174t-107 -150l-158 49q11 20 20 40.5t18 45.5t14 39t15 45t13 41q-60 -1 -82 22.5t-14 75.5
l12 72q10 61 46.5 85t109.5 24z" />
    <glyph glyph-name="lcommaaccent" unicode="&#x13c;" horiz-adv-x="737" 
d="M637 1434l-154 -1069q-7 -40 8.5 -53t71.5 -13h82l25 -279q-44 -25 -134 -37t-159 -12q-171 0 -261 80t-73 215l166 1168h428zM289 -88h65q75 0 105 -27.5t20 -89.5l-16 -98q-14 -82 -61 -174t-107 -150l-158 49q11 20 20 40.5t18 45.5t14 39t15 45t13 41q-60 -1 -82 23
t-14 76l12 71q10 61 46.5 85t109.5 24z" />
    <glyph glyph-name="Lcaron" unicode="&#x13d;" horiz-adv-x="1130" 
d="M662 1413l-146 -979q-5 -46 11 -64t63 -18h467l-8 -334q-196 -26 -678 -26q-154 0 -242 94t-66 236l152 1091h447zM899 1411h66q75 0 105 -27.5t20 -89.5l-17 -98q-14 -82 -61 -174t-107 -150l-157 50q13 25 25.5 55.5t18.5 47.5t19 57.5t16 50.5q-60 -1 -82 22.5
t-14 75.5l12 72q10 61 46.5 84.5t109.5 23.5z" />
    <glyph glyph-name="lcaron" unicode="&#x13e;" horiz-adv-x="737" 
d="M637 1434l-154 -1069q-7 -40 8.5 -53t71.5 -13h82l25 -279q-44 -25 -134 -37t-159 -12q-171 0 -261 80t-73 215l166 1168h428zM842 1432h65q75 0 105 -27.5t20 -89.5l-16 -98q-14 -82 -61 -174t-107 -150l-158 49q11 20 20 40.5t18 45.5t14 39t15 45t13 41
q-60 -1 -82 22.5t-14 75.5l12 72q10 61 46.5 85t109.5 24z" />
    <glyph glyph-name="Ldot" unicode="&#x13f;" horiz-adv-x="1130" 
d="M662 1413l-146 -979q-5 -46 11 -64t63 -18h467l-8 -334q-196 -26 -678 -26q-154 0 -242 94t-66 236l152 1091h447zM975 702h-121q-58 0 -90.5 31t-26.5 90l11 101q12 108 122 108h129q133 0 115 -125l-12 -96q-7 -53 -40.5 -81t-86.5 -28z" />
    <glyph glyph-name="ldot" unicode="&#x140;" horiz-adv-x="1032" 
d="M637 1434l-154 -1069q-7 -40 8.5 -53t71.5 -13h82l25 -279q-44 -25 -134 -37t-159 -12q-171 0 -261 80t-73 215l166 1168h428zM905 596h-121q-58 0 -90 31t-26 90l10 100q12 109 123 109h129q132 0 114 -125l-12 -96q-7 -53 -40.5 -81t-86.5 -28z" />
    <glyph glyph-name="Lslash" unicode="&#x141;" horiz-adv-x="1138" 
d="M1065 352l-8 -334q-196 -26 -678 -26q-154 0 -241.5 94t-65.5 236l37 266l-101 -37l29 213l102 37l84 612h447l-66 -440l213 78l-31 -213l-213 -78l-49 -326q-5 -46 11 -64t63 -18h467z" />
    <glyph glyph-name="lslash" unicode="&#x142;" horiz-adv-x="770" 
d="M565 760l-57 -395q-7 -40 8.5 -53t71.5 -13h82l24 -279q-44 -25 -134 -37t-159 -12q-171 0 -260.5 80t-72.5 215l47 328l-115 -43l29 213l114 43l90 627h429l-66 -461l213 78l-31 -213z" />
    <glyph glyph-name="Nacute" unicode="&#x143;" horiz-adv-x="1495" 
d="M1321 1671l-545 -196l-96 176l506 319zM1503 1413l-178 -1268q-11 -75 -49 -110t-113 -35h-147q-63 0 -93 31t-65 106l-242 486q-38 76 -71 233h-15q3 -147 -12 -262l-88 -594h-407l178 1268q11 76 49 110.5t112 34.5h148q33 0 56.5 -8.5t42 -31t28.5 -40t29 -57.5
l237 -461q52 -106 86 -244h17q-11 123 4 240l86 602h407z" />
    <glyph glyph-name="nacute" unicode="&#x144;" horiz-adv-x="1267" 
d="M621 1090l-97 176l506 319l135 -299zM483 1024l11 -180q97 97 216 153t232 56q133 0 210 -77t56 -218l-106 -758h-432l88 618q6 43 -5.5 59.5t-50.5 12.5q-82 -7 -180 -82l-86 -608h-430l141 1024h336z" />
    <glyph glyph-name="Ncommaaccent" unicode="&#x145;" horiz-adv-x="1495" 
d="M1503 1413l-178 -1268q-11 -75 -49 -110t-113 -35h-147q-63 0 -93 31t-65 106l-242 486q-38 76 -71 233h-15q3 -147 -12 -262l-88 -594h-407l178 1268q11 76 49 110.5t112 34.5h148q33 0 56.5 -8.5t42 -31t28.5 -40t29 -57.5l237 -461q52 -106 86 -244h17q-11 123 4 240
l86 602h407zM674 -98h65q75 0 105 -27.5t20 -89.5l-16 -98q-14 -82 -61 -174t-107 -150l-158 49q11 20 20 40.5t18 45.5t14 39t15 45t13 41q-60 -1 -82 22.5t-14 75.5l12 72q10 61 46.5 85t109.5 24z" />
    <glyph glyph-name="ncommaaccent" unicode="&#x146;" horiz-adv-x="1267" 
d="M483 1024l11 -180q97 97 216 153t232 56q133 0 210 -77t56 -218l-106 -758h-432l88 618q6 43 -5.5 59.5t-50.5 12.5q-82 -7 -180 -82l-86 -608h-430l141 1024h336zM498 -78h65q75 0 105 -27.5t20 -89.5l-16 -98q-14 -82 -61 -173.5t-107 -149.5l-158 49q11 20 20 40.5
t18 45.5t14 39t15 45t13 41q-60 -1 -82 22.5t-14 75.5l12 72q10 61 46.5 84.5t109.5 23.5z" />
    <glyph glyph-name="Ncaron" unicode="&#x147;" horiz-adv-x="1495" 
d="M1321 1778l-367 -269h-168l-333 295l118 135l301 -165h17l350 157zM1503 1413l-178 -1268q-11 -75 -49 -110t-113 -35h-147q-63 0 -93 31t-65 106l-242 486q-38 76 -71 233h-15q3 -147 -12 -262l-88 -594h-407l178 1268q11 76 49 110.5t112 34.5h148q33 0 56.5 -8.5
t42 -31t28.5 -40t29 -57.5l237 -461q52 -106 86 -244h17q-11 123 4 240l86 602h407z" />
    <glyph glyph-name="ncaron" unicode="&#x148;" horiz-adv-x="1267" 
d="M631 1124l-334 295l119 135l301 -165h16l350 157l82 -153l-366 -269h-168zM483 1024l11 -180q97 97 216 153t232 56q133 0 210 -77t56 -218l-106 -758h-432l88 618q6 43 -5.5 59.5t-50.5 12.5q-82 -7 -180 -82l-86 -608h-430l141 1024h336z" />
    <glyph glyph-name="Eng" unicode="&#x14a;" horiz-adv-x="1505" 
d="M1513 1413l-210 -1489q-23 -163 -108 -252.5t-210 -89.5q-73 0 -159.5 15.5t-143.5 42.5l76 274h61q40 0 69.5 17t35.5 46l10 50h-6q-8 0 -15.5 7t-15 21t-13 26t-13 30t-11.5 26l-244 484q-35 78 -67 235h-12q0 -134 -17 -256l-88 -600h-409l178 1268q11 76 49 110.5
t112 34.5h168q64 0 96 -32.5t58 -104.5l225 -463q58 -127 82 -242h13q-4 116 16 265l84 577h409z" />
    <glyph glyph-name="eng" unicode="&#x14b;" horiz-adv-x="1267" 
d="M483 1024l13 -176q221 205 428 205q156 0 229.5 -76.5t54.5 -218.5l-116 -815q-23 -166 -111.5 -254t-232.5 -88q-81 0 -178.5 15.5t-141.5 41.5l74 274h61q40 0 70.5 18t34.5 46l92 641q6 33 -7 44.5t-48 8.5q-85 -8 -183 -82l-86 -608h-430l141 1024h336z" />
    <glyph glyph-name="Omacron" unicode="&#x14c;" 
d="M1182 1581h-656l35 252h656zM797 1442q90 0 162.5 -8t136.5 -26.5t112 -48.5t85.5 -72.5t61 -100t35 -131t9.5 -164.5t-17 -201q-20 -146 -49.5 -255.5t-74.5 -189.5t-100 -132.5t-132 -84t-164 -44.5t-203 -13q-107 0 -190 11t-151.5 36t-115.5 66t-79 98.5t-45.5 137
t-12 178.5t18.5 225q24 173 63.5 295.5t95 205.5t137.5 130.5t181 67.5t236 20zM793 1112q-47 0 -78 -11t-56.5 -36t-43.5 -76t-33.5 -120t-32.5 -179q-16 -100 -21 -165.5t-0.5 -111t23 -69t46 -33.5t73.5 -10q48 0 80 11t57 36t43.5 76.5t33 119.5t31.5 179
q19 124 22.5 197t-11.5 117.5t-45.5 59.5t-87.5 15z" />
    <glyph glyph-name="omacron" unicode="&#x14d;" horiz-adv-x="1259" 
d="M1040 1196h-655l35 252h655zM670 1053q313 0 438.5 -129t83.5 -430q-41 -289 -179 -404t-444 -115q-311 0 -439.5 128t-86.5 423q41 294 179.5 410.5t447.5 116.5zM662 762q-83 0 -114 -50t-56 -218q-16 -92 -12 -142.5t27 -68t79 -17.5q77 0 107 48.5t55 211.5
q17 95 13 147.5t-25.5 70.5t-73.5 18z" />
    <glyph glyph-name="Ohungarumlaut" unicode="&#x150;" 
d="M995 1810l-374 -329l-175 106l302 395zM1436 1810l-377 -329l-172 104l301 397zM797 1442q90 0 162.5 -8t136.5 -26.5t112 -48.5t85.5 -72.5t61 -100t35 -131t9.5 -164.5t-17 -201q-20 -146 -49.5 -255.5t-74.5 -189.5t-100 -132.5t-132 -84t-164 -44.5t-203 -13
q-107 0 -190 11t-151.5 36t-115.5 66t-79 98.5t-45.5 137t-12 178.5t18.5 225q24 173 63.5 295.5t95 205.5t137.5 130.5t181 67.5t236 20zM793 1112q-47 0 -78 -11t-56.5 -36t-43.5 -76t-33.5 -120t-32.5 -179q-16 -100 -21 -165.5t-0.5 -111t23 -69t46 -33.5t73.5 -10
q48 0 80 11t57 36t43.5 76.5t33 119.5t31.5 179q19 124 22.5 197t-11.5 117.5t-45.5 59.5t-87.5 15z" />
    <glyph glyph-name="ohungarumlaut" unicode="&#x151;" horiz-adv-x="1259" 
d="M854 1425l-375 -329l-174 106l301 395zM1294 1425l-376 -329l-173 104l302 397zM670 1053q313 0 438.5 -129t83.5 -430q-41 -289 -179 -404t-444 -115q-311 0 -439.5 128t-86.5 423q41 294 179.5 410.5t447.5 116.5zM662 762q-83 0 -114 -50t-56 -218q-16 -92 -12 -142.5
t27 -68t79 -17.5q77 0 107 48.5t55 211.5q17 95 13 147.5t-25.5 70.5t-73.5 18z" />
    <glyph glyph-name="OE" unicode="&#x152;" horiz-adv-x="1998" 
d="M1987 1081h-478q-35 0 -66.5 -25t-35.5 -57l-21 -139h498l-35 -274h-501l-27 -189q-9 -65 57 -65h500l-8 -316q-37 -5 -81 -9t-80 -6.5t-93.5 -4t-87 -2.5t-97 -1.5t-87.5 -0.5h-94.5h-84.5q-103 0 -176 45q-153 -66 -342 -66q-107 0 -188.5 11t-149.5 35t-113.5 64.5
t-77 98t-44 136.5t-10.5 179t20 228q24 174 62 295t93 205t137 131.5t184 67.5t245 20q208 0 362 -53q69 32 148 32q523 0 723 -28zM868 332l109 768q-52 12 -170 12q-78 0 -125 -36t-78 -126t-55 -260q-14 -101 -19.5 -163.5t-3.5 -110.5t16.5 -71t37.5 -33.5t63 -10.5
q152 0 225 31z" />
    <glyph glyph-name="oe" unicode="&#x153;" horiz-adv-x="1861" 
d="M1704 328l27 -262q-191 -91 -478 -91q-209 0 -346 93q-147 -93 -354 -93q-303 0 -427.5 128t-82.5 423q41 294 176 410.5t434 116.5q190 0 322 -82q149 82 354 82q155 0 259.5 -24t162 -73.5t76 -118.5t4.5 -165q-19 -132 -117 -185t-311 -69l-250 -19q3 -58 32.5 -76
t106.5 -18q210 0 412 23zM1182 610l104 11q71 7 101 23.5t34 70.5q3 35 -14.5 48.5t-73.5 12.5q-71 -2 -101 -34.5t-50 -131.5zM571 266q29 0 47.5 7t33.5 22t25.5 47t19 73.5t18.5 110.5q17 95 14.5 147.5t-21.5 70.5t-65 18q-39 0 -62 -9.5t-40.5 -41.5t-28.5 -80.5
t-23 -136.5q-21 -141 -6 -184.5t88 -43.5z" />
    <glyph glyph-name="Racute" unicode="&#x154;" horiz-adv-x="1370" 
d="M711 1475l-97 176l506 319l135 -299zM23 0l198 1413q215 21 572 21q152 0 258.5 -22.5t180 -74t101 -138.5t10.5 -212q-9 -66 -28 -116t-54 -95t-94.5 -72.5t-142.5 -35.5l-2 -15q30 -4 57 -16t55.5 -36t48 -69t25.5 -106l54 -426h-459l-37 428q-1 56 -17.5 72t-64.5 16
h-156l-71 -516h-434zM573 829h154q91 0 125 31.5t49 130.5q11 74 -13.5 101.5t-99.5 27.5h-174z" />
    <glyph glyph-name="racute" unicode="&#x155;" horiz-adv-x="925" 
d="M494 1090l-97 176l506 319l135 -299zM485 1024l15 -139q202 168 407 168h74l-88 -394h-96q-105 0 -273 -26l-86 -633h-432l144 1024h335z" />
    <glyph glyph-name="Rcommaaccent" unicode="&#x156;" horiz-adv-x="1370" 
d="M23 0l198 1413q215 21 572 21q152 0 258.5 -22.5t180 -74t101 -138.5t10.5 -212q-9 -66 -28 -116t-54 -95t-94.5 -72.5t-142.5 -35.5l-2 -15q30 -4 57 -16t55.5 -36t48 -69t25.5 -106l54 -426h-459l-37 428q-1 56 -17.5 72t-64.5 16h-156l-71 -516h-434zM573 829h154
q91 0 125 31.5t49 130.5q11 74 -13.5 101.5t-99.5 27.5h-174zM596 -98h66q74 0 104 -27.5t20 -89.5l-16 -98q-14 -82 -61 -174t-107 -150l-158 49q11 20 20 40.5t18 45.5t14 39t15 45t13 41q-60 -1 -82 22.5t-14 75.5l12 72q10 61 46.5 85t109.5 24z" />
    <glyph glyph-name="rcommaaccent" unicode="&#x157;" horiz-adv-x="925" 
d="M981 1053l-88 -394h-96q-105 0 -273 -26l-86 -633h-432l144 1024h335l15 -139q202 168 407 168h74zM168 -78h65q75 0 105 -27.5t20 -89.5l-16 -98q-14 -82 -61 -173.5t-107 -149.5l-158 49q11 20 20 40.5t18 45.5t14 39t15 45t13 41q-60 -1 -82 22.5t-14 75.5l12 72
q10 61 46.5 84.5t109.5 23.5z" />
    <glyph glyph-name="Rcaron" unicode="&#x158;" horiz-adv-x="1370" 
d="M721 1509l-334 295l119 135l301 -165h16l351 157l81 -153l-366 -269h-168zM23 0l198 1413q215 21 572 21q152 0 258.5 -22.5t180 -74t101 -138.5t10.5 -212q-9 -66 -28 -116t-54 -95t-94.5 -72.5t-142.5 -35.5l-2 -15q30 -4 57 -16t55.5 -36t48 -69t25.5 -106l54 -426
h-459l-37 428q-1 56 -17.5 72t-64.5 16h-156l-71 -516h-434zM573 829h154q91 0 125 31.5t49 130.5q11 74 -13.5 101.5t-99.5 27.5h-174z" />
    <glyph glyph-name="rcaron" unicode="&#x159;" horiz-adv-x="925" 
d="M504 1124l-334 295l119 135l301 -165h16l350 157l82 -153l-366 -269h-168zM485 1024l15 -139q202 168 407 168h74l-88 -394h-96q-105 0 -273 -26l-86 -633h-432l144 1024h335z" />
    <glyph glyph-name="Sacute" unicode="&#x15a;" horiz-adv-x="1232" 
d="M1200 1671l-545 -196l-96 176l506 319zM643 481l-258 127q-87 43 -144 93t-83 103t-34.5 113.5t1.5 124.5q14 116 55.5 193.5t118 123t179.5 64.5t253 19q285 0 506 -74l-39 -283q-313 5 -496 5q-71 0 -101.5 -12.5t-37.5 -45.5q-5 -25 13 -44.5t77 -47.5l238 -113
q169 -80 222.5 -178.5t35.5 -261.5q-14 -124 -49.5 -203t-107 -127t-173.5 -67t-260 -19q-270 0 -551 72l41 309q397 -10 488 -10q92 0 129 13t45 46q6 25 -8.5 41t-59.5 39z" />
    <glyph glyph-name="sacute" unicode="&#x15b;" horiz-adv-x="1122" 
d="M1096 1286l-545 -196l-96 176l506 319zM516 358l-215 62q-268 76 -227 350q8 56 27 98t55.5 78t90.5 59t135 35.5t187 12.5q124 0 275.5 -13.5t240.5 -33.5l-34 -248h-392q-113 0 -144 -3.5t-34 -17.5q-3 -15 17.5 -26.5t83.5 -28.5l223 -59q262 -70 233 -324
q-10 -80 -38.5 -137t-70.5 -93t-106.5 -56.5t-135.5 -28t-169 -7.5q-268 0 -524 46l35 247h344q157 0 204 6.5t50 26.5q1 15 -19 24.5t-92 30.5z" />
    <glyph glyph-name="Scedilla" unicode="&#x15e;" horiz-adv-x="1232" 
d="M643 481l-258 127q-87 43 -144 93t-83 103t-34.5 113.5t1.5 124.5q14 116 55.5 193.5t118 123t179.5 64.5t253 19q285 0 506 -74l-39 -283q-313 5 -496 5q-71 0 -101.5 -12.5t-37.5 -45.5q-5 -25 13 -44.5t77 -47.5l238 -113q169 -80 222.5 -178.5t35.5 -261.5
q-14 -124 -49.5 -203t-107 -127t-173.5 -67t-260 -19q-270 0 -551 72l41 309q397 -10 488 -10q92 0 129 13t45 46q6 25 -8.5 41t-59.5 39zM338 -285l37 148q72 9 124.5 12t102 -3t78 -23.5t42 -51.5t5.5 -84q-28 -164 -169.5 -236.5t-338.5 -45.5l43 157q39 0 68 3.5
t59.5 12.5t50 29t25.5 50q2 11 0 16.5t-15.5 9.5t-38.5 5t-73 1z" />
    <glyph glyph-name="scedilla" unicode="&#x15f;" horiz-adv-x="1122" 
d="M516 358l-215 62q-268 76 -227 350q8 56 27 98t55.5 78t90.5 59t135 35.5t187 12.5q124 0 275.5 -13.5t240.5 -33.5l-34 -248h-392q-113 0 -144 -3.5t-34 -17.5q-3 -15 17.5 -26.5t83.5 -28.5l223 -59q262 -70 233 -324q-10 -80 -38.5 -137t-70.5 -93t-106.5 -56.5
t-135.5 -28t-169 -7.5q-268 0 -524 46l35 247h344q157 0 204 6.5t50 26.5q1 15 -19 24.5t-92 30.5zM262 -248l37 148q72 9 124.5 12t102 -3t78 -23.5t42 -51.5t5.5 -84q-28 -164 -169.5 -236.5t-338.5 -45.5l43 157q39 0 68 3t59.5 12t50 29t25.5 50q2 11 0 16.5t-15.5 10
t-38.5 5.5t-73 1z" />
    <glyph glyph-name="Scaron" unicode="&#x160;" horiz-adv-x="1232" 
d="M1200 1778l-366 -269h-168l-334 295l119 135l301 -165h16l350 157zM643 481l-258 127q-87 43 -144 93t-83 103t-34.5 113.5t1.5 124.5q14 116 55.5 193.5t118 123t179.5 64.5t253 19q285 0 506 -74l-39 -283q-313 5 -496 5q-71 0 -101.5 -12.5t-37.5 -45.5
q-5 -25 13 -44.5t77 -47.5l238 -113q169 -80 222.5 -178.5t35.5 -261.5q-14 -124 -49.5 -203t-107 -127t-173.5 -67t-260 -19q-270 0 -551 72l41 309q397 -10 488 -10q92 0 129 13t45 46q6 25 -8.5 41t-59.5 39z" />
    <glyph glyph-name="scaron" unicode="&#x161;" horiz-adv-x="1122" 
d="M1096 1393l-367 -269h-168l-334 295l119 135l301 -165h17l350 157zM516 358l-215 62q-268 76 -227 350q8 56 27 98t55.5 78t90.5 59t135 35.5t187 12.5q124 0 275.5 -13.5t240.5 -33.5l-34 -248h-392q-113 0 -144 -3.5t-34 -17.5q-3 -15 17.5 -26.5t83.5 -28.5l223 -59
q262 -70 233 -324q-10 -80 -38.5 -137t-70.5 -93t-106.5 -56.5t-135.5 -28t-169 -7.5q-268 0 -524 46l35 247h344q157 0 204 6.5t50 26.5q1 15 -19 24.5t-92 30.5z" />
    <glyph glyph-name="Tcedilla" unicode="&#x162;" horiz-adv-x="1265" 
d="M1313 1081h-391l-152 -1081h-444l151 1081h-389l47 332h1225zM340 -236l37 148q72 9 124.5 12t102 -3t78 -23.5t42 -51.5t5.5 -84q-28 -164 -169.5 -236.5t-338.5 -45.5l43 158q39 0 68 3t59.5 12t50 29t25.5 50q2 11 0 16.5t-15.5 9.5t-38.5 5t-73 1z" />
    <glyph glyph-name="tcedilla" unicode="&#x163;" horiz-adv-x="899" 
d="M649 766l-57 -401q-6 -41 5.5 -53.5t57.5 -12.5h121l23 -279q-64 -25 -163 -37t-179 -12q-158 0 -242.5 80.5t-64.5 214.5l73 500h-176l31 248l184 10l39 268h424l-39 -268h246l-35 -258h-248zM227 -254l37 148q72 9 124.5 12t102 -3t78 -23.5t42 -51.5t5.5 -84
q-19 -110 -92.5 -181t-180 -95.5t-234.5 -6.5l43 158q39 0 68 3t59 12t49.5 29t25.5 50q2 11 0 16.5t-15.5 10t-38.5 5.5t-73 1z" />
    <glyph glyph-name="Tcaron" unicode="&#x164;" horiz-adv-x="1265" 
d="M674 1509l-334 295l119 135l301 -165h16l350 157l82 -153l-366 -269h-168zM1313 1081h-391l-152 -1081h-444l151 1081h-389l47 332h1225z" />
    <glyph glyph-name="tcaron" unicode="&#x165;" horiz-adv-x="899" 
d="M911 1661h66q75 0 105 -27.5t20 -89.5l-17 -98q-14 -83 -61 -174.5t-106 -149.5l-158 49q11 20 20 40.5t18 45.5t14 39t15 45t13 41q-60 -1 -82.5 23t-14.5 76l13 71q10 61 46 85t109 24zM686 1024h246l-35 -258h-248l-57 -401q-6 -41 5.5 -53.5t57.5 -12.5h121l23 -279
q-64 -25 -163 -37t-179 -12q-158 0 -242.5 80.5t-64.5 214.5l73 500h-176l31 248l184 10l39 268h424z" />
    <glyph glyph-name="Tbar" unicode="&#x166;" horiz-adv-x="1265" 
d="M922 1081l-37 -260h248l-27 -192h-248l-88 -629h-444l88 629h-230l27 192h229l37 260h-389l47 332h1225l-47 -332h-391z" />
    <glyph glyph-name="tbar" unicode="&#x167;" horiz-adv-x="899" 
d="M649 766l-14 -102h158l-27 -193h-160l-14 -106q-6 -41 5.5 -53.5t57.5 -12.5h121l23 -279q-64 -25 -163 -37t-179 -12q-158 0 -242.5 80.5t-64.5 214.5l30 205h-117l27 193h119l14 102h-176l31 248l184 10l39 268h424l-39 -268h246l-35 -258h-248z" />
    <glyph glyph-name="Umacron" unicode="&#x16a;" 
d="M1174 1581h-656l35 252h655zM1454 1413l-121 -838q-19 -138 -51 -236t-83 -170.5t-126.5 -115t-176 -62.5t-237.5 -20q-331 0 -470.5 145t-96.5 476l119 821h442l-118 -838q-19 -106 -13 -166.5t39 -84t109 -23.5q48 0 80 9t55 27t39 55t26.5 81.5t22.5 118.5l117 821
h444z" />
    <glyph glyph-name="umacron" unicode="&#x16b;" horiz-adv-x="1255" 
d="M1034 1219h-655l35 251h655zM1225 1024l-142 -1024h-335l-9 174q-209 -203 -417 -203q-159 0 -232 76.5t-53 218.5l104 758h432l-92 -637q-4 -31 8.5 -43t38.5 -12q43 0 84 17t99 59l88 616h426z" />
    <glyph glyph-name="Uring" unicode="&#x16e;" 
d="M883 1964q114 0 190.5 -77.5t61.5 -186.5q-13 -98 -87 -165t-188 -67q-117 0 -191 78t-59 187q13 98 86.5 164.5t186.5 66.5zM877 1810q-38 0 -65 -25t-32 -63q-5 -45 18.5 -72.5t65.5 -27.5q43 0 71.5 28t29.5 72q1 39 -23.5 63.5t-64.5 24.5zM1454 1413l-121 -838
q-19 -138 -51 -236t-83 -170.5t-126.5 -115t-176 -62.5t-237.5 -20q-331 0 -470.5 145t-96.5 476l119 821h442l-118 -838q-19 -106 -13 -166.5t39 -84t109 -23.5q48 0 80 9t55 27t39 55t26.5 81.5t22.5 118.5l117 821h444z" />
    <glyph glyph-name="uring" unicode="&#x16f;" horiz-adv-x="1255" 
d="M721 1106q-117 0 -191 77.5t-59 186.5q13 98 86 165t186 67q114 0 190.5 -78t61.5 -187q-13 -98 -86.5 -164.5t-187.5 -66.5zM641 1360q-5 -45 18.5 -72.5t65.5 -27.5q43 0 71 28t29 72q1 39 -23.5 63.5t-64.5 24.5q-38 0 -64.5 -25t-31.5 -63zM1225 1024l-142 -1024
h-335l-9 174q-209 -203 -417 -203q-159 0 -232 76.5t-53 218.5l104 758h432l-92 -637q-4 -31 8.5 -43t38.5 -12q43 0 84 17t99 59l88 616h426z" />
    <glyph glyph-name="Uhungarumlaut" unicode="&#x170;" 
d="M987 1810l-375 -329l-174 106l301 395zM1427 1810l-376 -329l-172 104l301 397zM1454 1413l-121 -838q-19 -138 -51 -236t-83 -170.5t-126.5 -115t-176 -62.5t-237.5 -20q-331 0 -470.5 145t-96.5 476l119 821h442l-118 -838q-19 -106 -13 -166.5t39 -84t109 -23.5
q48 0 80 9t55 27t39 55t26.5 81.5t22.5 118.5l117 821h444z" />
    <glyph glyph-name="uhungarumlaut" unicode="&#x171;" horiz-adv-x="1255" 
d="M473 1118l-174 107l301 395l248 -172zM739 1223l301 397l248 -172l-377 -330zM799 1024h426l-142 -1024h-335l-9 174q-209 -203 -417 -203q-159 0 -232 76.5t-53 218.5l104 758h432l-92 -637q-4 -31 8.5 -43t38.5 -12q43 0 84 17t99 59z" />
    <glyph glyph-name="Uogonek" unicode="&#x172;" 
d="M1454 1413l-121 -838q-31 -220 -97.5 -346.5t-189.5 -188.5t-329 -69q-35 -38 -66 -88t-43 -88q-11 -34 4 -46t62 -3l31 -152q-73 -26 -136 -36.5t-109 -6t-82 19.5t-56.5 39.5t-30 53.5t-5 62t20.5 65q53 98 207 189q-250 28 -355 174.5t-67 437.5l119 821h442
l-118 -838q-19 -106 -13 -166.5t39 -84t109 -23.5q48 0 80 9t55 27t39 55t26.5 81.5t22.5 118.5l117 821h444z" />
    <glyph glyph-name="uogonek" unicode="&#x173;" horiz-adv-x="1255" 
d="M1225 1024l-142 -1024q-37 -40 -70 -92.5t-46 -93.5q-11 -34 4 -46.5t61 -3.5l31 -151q-73 -26 -136 -36.5t-109 -6t-82 19.5t-56 39.5t-29.5 53.5t-5 62t20.5 65q51 97 211 190h-129l-9 174q-209 -203 -417 -203q-159 0 -232 76.5t-53 218.5l104 758h432l-92 -637
q-4 -31 8.5 -43t38.5 -12q43 0 84 17t99 59l88 616h426z" />
    <glyph glyph-name="Wcircumflex" unicode="&#x174;" horiz-adv-x="2037" 
d="M1569 1612l-113 -139l-301 192h-16l-336 -192l-98 147l307 278h288zM2109 1413l-356 -1302q-13 -53 -55 -82t-101 -29h-372q-58 0 -100.5 37t-41.5 90l15 756q1 49 10 215h-37q-13 -88 -41 -209l-203 -778q-13 -53 -55 -82t-100 -29h-383q-58 0 -99.5 37t-37.5 90v1286
h436l-56 -874q-2 -41 -8 -125.5t-8 -110.5h35q24 132 57 254l197 733q15 58 56.5 90.5t101.5 32.5h309q59 0 98 -40t39 -99v-737q0 -86 -4 -234h37q12 111 43 248l188 862h436z" />
    <glyph glyph-name="wcircumflex" unicode="&#x175;" horiz-adv-x="1894" 
d="M1440 1225l-113 -140l-301 193h-16l-336 -193l-99 148l308 278h288zM504 266h12q30 0 49 31.5t37 103.5q21 86 37 187q9 51 25.5 167.5t23.5 162.5q5 41 37 73.5t90 32.5h352q49 0 83 -31t40 -78v-649h15q8 0 15 2t13 7.5t10 11t8.5 15.5t7 18t6 23t5.5 25t6 28t6 30
q16 75 41 233q26 171 39 365h426q-27 -242 -69 -422q-49 -215 -101 -340q-30 -74 -62 -120t-83 -80t-124 -48t-181 -14h-158q-52 0 -86 33.5t-31 81.5v655h-24q-10 -89 -39 -252q-24 -135 -47 -227q-16 -59 -37 -104.5t-42.5 -76t-53 -51.5t-58.5 -33t-69.5 -17.5t-74.5 -7
t-85 -1.5h-225q-50 0 -84 33.5t-37 81.5l-33 911h436z" />
    <glyph glyph-name="Ycircumflex" unicode="&#x176;" horiz-adv-x="1329" 
d="M451 1473l-99 147l307 278h289l269 -286l-113 -139l-301 192h-17zM860 428l-59 -428h-447l64 453l-324 960h443l108 -452q18 -82 14 -207h31q10 95 62 202l239 457h473z" />
    <glyph glyph-name="ycircumflex" unicode="&#x177;" horiz-adv-x="1273" 
d="M360 1087l-98 148l307 278h289l268 -286l-112 -140l-301 193h-17zM827 1024h461q-34 -252 -155.5 -568t-200.5 -440q-148 -232 -344.5 -341.5t-452.5 -96.5l-26 232q27 9 81.5 26.5t81.5 28t67.5 29.5t73.5 45t64 61h-162q-50 0 -85.5 31t-41.5 78l-127 915h471l17 -733
q0 -13 9.5 -23t23.5 -10h49q69 156 114.5 335t81.5 431z" />
    <glyph glyph-name="Ydieresis" unicode="&#x178;" horiz-adv-x="1329" 
d="M680 1563h-166q-73 0 -61 67l22 150q4 38 23 54.5t57 16.5h158q73 0 61 -67l-22 -156q-5 -35 -21 -50t-51 -15zM1067 1563h-166q-73 0 -61 67l22 152q6 38 23 53.5t51 15.5h164q73 0 61 -67l-22 -154q-5 -37 -21 -52t-51 -15zM860 428l-59 -428h-447l64 453l-324 960h443
l108 -452q18 -82 14 -207h31q10 95 62 202l239 457h473z" />
    <glyph glyph-name="Zacute" unicode="&#x179;" horiz-adv-x="1224" 
d="M637 1475l-96 176l506 319l135 -299zM1217 1102l-682 -791h589l-43 -311h-1104l41 311l684 791h-548l43 311h1063z" />
    <glyph glyph-name="zacute" unicode="&#x17a;" horiz-adv-x="1101" 
d="M543 1090l-97 176l506 319l135 -299zM1087 1024l-34 -276h2l-527 -472h467l-37 -276h-978l34 276h-2l529 472h-445l37 276h954z" />
    <glyph glyph-name="Zdotaccent" unicode="&#x17b;" horiz-adv-x="1224" 
d="M809 1540h-129q-133 0 -115 125l13 96q7 53 40.5 81t86.5 28h120q58 0 90.5 -31t26.5 -90l-10 -100q-12 -109 -123 -109zM1217 1102l-682 -791h589l-43 -311h-1104l41 311l684 791h-548l43 311h1063z" />
    <glyph glyph-name="zdotaccent" unicode="&#x17c;" horiz-adv-x="1101" 
d="M715 1155h-129q-133 0 -115 125l12 96q7 53 40.5 81t86.5 28h121q58 0 90.5 -31t26.5 -90l-10 -100q-12 -109 -123 -109zM1055 748l-527 -472h467l-37 -276h-978l34 276h-2l529 472h-445l37 276h954l-34 -276h2z" />
    <glyph glyph-name="Zcaron" unicode="&#x17d;" horiz-adv-x="1224" 
d="M647 1509l-334 295l119 135l301 -165h17l350 157l82 -153l-367 -269h-168zM1217 1102l-682 -791h589l-43 -311h-1104l41 311l684 791h-548l43 311h1063z" />
    <glyph glyph-name="zcaron" unicode="&#x17e;" horiz-adv-x="1101" 
d="M553 1124l-334 295l119 135l301 -165h16l351 157l81 -153l-366 -269h-168zM1087 1024l-34 -276h2l-527 -472h467l-37 -276h-978l34 276h-2l529 472h-445l37 276h954z" />
    <glyph glyph-name="florin" unicode="&#x192;" horiz-adv-x="1026" 
d="M1028 1155h-115q-94 0 -120 -115l-45 -200h190l-55 -258h-193l-141 -625q-36 -156 -134.5 -241t-281.5 -85q-70 0 -169.5 8.5t-156.5 22.5l87 256h114q98 0 121 115l123 549h-182l49 227l190 29l64 278q38 156 136.5 241t281.5 85q70 0 168.5 -8.5t156.5 -22.5z" />
    <glyph glyph-name="Scommaaccent" unicode="&#x218;" horiz-adv-x="1232" 
d="M643 481l-258 127q-87 43 -144 93t-83 103t-34.5 113.5t1.5 124.5q14 116 55.5 193.5t118 123t179.5 64.5t253 19q285 0 506 -74l-39 -283q-313 5 -496 5q-71 0 -101.5 -12.5t-37.5 -45.5q-5 -25 13 -44.5t77 -47.5l238 -113q169 -80 222.5 -178.5t35.5 -261.5
q-14 -124 -49.5 -203t-107 -127t-173.5 -67t-260 -19q-270 0 -551 72l41 309q397 -10 488 -10q92 0 129 13t45 46q6 25 -8.5 41t-59.5 39zM506 -98h65q75 0 105 -27.5t20 -89.5l-16 -98q-14 -82 -61 -174t-107 -150l-158 49q11 20 20 40.5t18 45.5t14 39t15 45t13 41
q-60 -1 -82 22.5t-14 75.5l12 72q10 61 46.5 85t109.5 24z" />
    <glyph glyph-name="scommaaccent" unicode="&#x219;" horiz-adv-x="1122" 
d="M516 358l-215 62q-268 76 -227 350q8 56 27 98t55.5 78t90.5 59t135 35.5t187 12.5q124 0 275.5 -13.5t240.5 -33.5l-34 -248h-392q-113 0 -144 -3.5t-34 -17.5q-3 -15 17.5 -26.5t83.5 -28.5l223 -59q262 -70 233 -324q-10 -80 -38.5 -137t-70.5 -93t-106.5 -56.5
t-135.5 -28t-169 -7.5q-268 0 -524 46l35 247h344q157 0 204 6.5t50 26.5q1 15 -19 24.5t-92 30.5zM436 -88h66q75 0 105 -27.5t20 -89.5l-17 -98q-14 -82 -61 -174t-107 -150l-157 49q11 20 20 40.5t18 45.5t14 39t15 45t13 41q-60 -1 -82.5 23t-14.5 76l13 71q10 61 46 85
t109 24z" />
    <glyph glyph-name="uni021A" unicode="&#x21a;" horiz-adv-x="1265" 
d="M1313 1081h-391l-152 -1081h-444l151 1081h-389l47 332h1225zM477 -78h66q75 0 105 -27.5t20 -89.5l-17 -98q-14 -82 -61 -173.5t-107 -149.5l-157 49q11 20 20 40.5t18 45.5t14 39t15 45t13 41q-60 -1 -82.5 22.5t-14.5 75.5l13 72q10 61 46 84.5t109 23.5z" />
    <glyph glyph-name="uni021B" unicode="&#x21b;" horiz-adv-x="899" 
d="M649 766l-57 -401q-6 -41 5.5 -53.5t57.5 -12.5h121l23 -279q-64 -25 -163 -37t-179 -12q-158 0 -242.5 80.5t-64.5 214.5l73 500h-176l31 248l184 10l39 268h424l-39 -268h246l-35 -258h-248zM369 -88h65q75 0 105 -27.5t20 -89.5l-16 -98q-14 -82 -61 -174t-107 -150
l-158 49q11 20 20 40.5t18 45.5t14 39t15 45t13 41q-60 -1 -82 23t-14 76l12 71q10 61 46.5 85t109.5 24z" />
    <glyph glyph-name="circumflex" unicode="&#x2c6;" horiz-adv-x="976" 
d="M1012 1233l-113 -139l-301 192h-16l-336 -192l-99 147l308 279h288z" />
    <glyph glyph-name="caron" unicode="&#x2c7;" horiz-adv-x="976" 
d="M1030 1389l-366 -269h-168l-334 295l119 135l301 -166h16l350 158z" />
    <glyph glyph-name="breve" unicode="&#x2d8;" horiz-adv-x="841" 
d="M721 1468l192 -30q5 -143 -103.5 -243.5t-293.5 -100.5q-123 0 -210.5 52t-119 134.5t-2.5 173.5l201 10q-10 -63 25 -87.5t125 -24.5q173 0 186 116z" />
    <glyph glyph-name="dotaccent" unicode="&#x2d9;" horiz-adv-x="514" 
d="M319 1483h121q58 0 90.5 -31t26.5 -90l-10 -100q-12 -109 -123 -109h-129q-133 0 -115 125l13 96q7 53 40 81t86 28z" />
    <glyph glyph-name="ring" unicode="&#x2da;" horiz-adv-x="651" 
d="M453 1589q114 0 190.5 -77.5t61.5 -186.5q-13 -98 -87 -164.5t-188 -66.5q-117 0 -191 77.5t-59 186.5q13 98 86.5 164.5t186.5 66.5zM446 1436q-38 0 -64.5 -25t-31.5 -63q-5 -45 18.5 -73t65.5 -28q43 0 71.5 28.5t29.5 72.5q1 39 -24 63.5t-65 24.5z" />
    <glyph glyph-name="ogonek" unicode="&#x2db;" horiz-adv-x="512" 
d="M203 16l178 -16q-37 -40 -70.5 -92.5t-46.5 -93.5q-11 -34 4.5 -46.5t61.5 -3.5l30 -151q-73 -26 -136 -36.5t-109 -6t-82 19.5t-56 39.5t-29.5 53.5t-5 62t20.5 65q55 104 240 206z" />
    <glyph glyph-name="tilde" unicode="&#x2dc;" horiz-adv-x="942" 
d="M356 1128l-174 17q-4 169 50.5 253.5t150.5 84.5q61 0 192 -44.5t136 -45.5q50 -11 69.5 11t26.5 77l174 -17q7 -171 -46 -254.5t-149 -83.5q-62 0 -190 44t-145 47q-49 10 -68 -12t-27 -77z" />
    <glyph glyph-name="hungarumlaut" unicode="&#x2dd;" horiz-adv-x="1120" 
d="M721 1376l-375 -329l-174 106l301 395zM1161 1376l-377 -329l-172 104l301 397z" />
    <glyph glyph-name="Delta" unicode="&#x394;" horiz-adv-x="1449" 
d="M1348 139l-15 -139h-1372l14 139l648 1274h438zM889 311l-82 482q-12 94 -12 200q-37 -142 -64 -198l-233 -484h391z" />
    <glyph glyph-name="Omega" unicode="&#x3a9;" horiz-adv-x="1472" 
d="M37 332h127q82 0 158 -37q-45 46 -75.5 82.5t-58 78t-42.5 81t-25 87t-9.5 102t9.5 120.5q39 305 205 450.5t508 145.5q339 0 483 -156t98 -481q-13 -94 -36 -161t-67 -127t-97 -108t-144 -118q76 41 166 41h123l-45 -332h-625l37 303q104 91 149 185t72 270
q16 113 17.5 180.5t-15 107.5t-48.5 54t-89 14q-118 0 -164.5 -64.5t-75.5 -265.5q-27 -164 -11.5 -275t85.5 -206l-33 -303h-624z" />
    <glyph glyph-name="mu" unicode="&#x3bc;" horiz-adv-x="1329" 
d="M1262 1024l-144 -1024h-336l-16 176q-190 -196 -385 -205q13 -69 4 -129l-29 -211h-370l90 635l104 758h432l-92 -637q-4 -33 4.5 -44t38.5 -11q44 0 83.5 14t94.5 51l88 627h433z" />
    <glyph glyph-name="pi" unicode="&#x3c0;" horiz-adv-x="1347" 
d="M1339 748h-131l-104 -748h-430l104 748h-166l-104 -748h-430l104 748h-131l39 278h1288z" />
    <glyph glyph-name="uni0401" unicode="&#x401;" horiz-adv-x="1202" 
d="M676 1563h-166q-73 0 -61 67l22 150q4 38 23 54.5t57 16.5h158q73 0 61 -67l-22 -156q-5 -35 -21 -50t-51 -15zM1063 1563h-166q-73 0 -61 67l22 152q6 38 23 53.5t51 15.5h164q73 0 61 -67l-22 -154q-5 -37 -21 -52t-51 -15zM1194 1081h-492q-52 0 -75 -18t-29 -64
l-18 -129h510l-37 -295h-514l-23 -163q-12 -80 76 -80h491l-8 -316q-36 -5 -79.5 -9t-78.5 -6.5t-91.5 -4t-85.5 -2.5t-95 -1.5t-86 -0.5h-93h-83q-171 0 -255 107t-62 278l102 731q21 145 114.5 229t247.5 84q516 0 713 -28z" />
    <glyph glyph-name="uni0402" unicode="&#x402;" horiz-adv-x="1587" 
d="M922 1081l-33 -243q165 92 354 92q183 0 260 -106t39 -349q-23 -144 -76.5 -244.5t-136.5 -157.5t-182.5 -81.5t-228.5 -24.5l-25 309q94 21 141.5 71.5t65.5 141.5q11 60 -11.5 79.5t-78.5 19.5q-90 0 -164 -43l-76 -545h-446l151 1081h-387l45 332h1225l-45 -332h-391z
" />
    <glyph glyph-name="uni0403" unicode="&#x403;" horiz-adv-x="1112" 
d="M1186 1671l-545 -196l-96 176l506 319zM27 0l155 1108q20 142 113.5 227.5t226.5 85.5q502 0 684 -30l-49 -310h-440q-51 0 -75 -18t-30 -64l-141 -999h-444z" />
    <glyph glyph-name="uni0404" unicode="&#x404;" horiz-adv-x="1236" 
d="M1278 1380l-51 -321q-304 4 -439 4q-107 0 -153.5 -40.5t-71.5 -152.5h545l-33 -295h-553q-10 -136 23 -180.5t141 -44.5q278 0 420 17l16 -326q-106 -36 -214.5 -51t-262.5 -15q-245 0 -379 73.5t-178 236t-6 438.5q28 202 79 336t138.5 220t209.5 122.5t298 36.5
q270 0 471 -58z" />
    <glyph glyph-name="uni0405" unicode="&#x405;" horiz-adv-x="1232" 
d="M643 481l-258 127q-87 43 -144 93t-83 103t-34.5 113.5t1.5 124.5q14 116 55.5 193.5t118 123t179.5 64.5t253 19q285 0 506 -74l-39 -283q-313 5 -496 5q-71 0 -101.5 -12.5t-37.5 -45.5q-5 -25 13 -44.5t77 -47.5l238 -113q169 -80 222.5 -178.5t35.5 -261.5
q-14 -124 -49.5 -203t-107 -127t-173.5 -67t-260 -19q-270 0 -551 72l41 309q397 -10 488 -10q92 0 129 13t45 46q6 25 -8.5 41t-59.5 39z" />
    <glyph glyph-name="uni0406" unicode="&#x406;" horiz-adv-x="673" 
d="M473 0h-440l198 1413h441z" />
    <glyph glyph-name="uni0407" unicode="&#x407;" horiz-adv-x="659" 
d="M233 1851h158q74 0 62 -67l-23 -156q-5 -35 -21 -50t-51 -15h-165q-74 0 -62 67l23 150q5 38 23 54.5t56 16.5zM614 1851h164q74 0 62 -67l-23 -154q-5 -37 -21 -52t-51 -15h-165q-74 0 -62 67l23 152q6 38 22.5 53.5t50.5 15.5zM467 0h-442l198 1413h443z" />
    <glyph glyph-name="uni0408" unicode="&#x408;" horiz-adv-x="817" 
d="M819 1413l-160 -1161q-20 -136 -119 -208.5t-257 -72.5q-85 0 -186.5 16t-145.5 42l69 274h76q122 0 131 80l150 1030h442z" />
    <glyph glyph-name="uni0409" unicode="&#x409;" horiz-adv-x="2039" 
d="M1382 928h93q129 0 218.5 -15t154.5 -49.5t95.5 -90.5t41 -139t-8.5 -194q-20 -139 -51.5 -224t-93 -138.5t-148.5 -73.5t-225 -20q-430 0 -645 16l158 1122h-53q-56 0 -83 -23.5t-40 -86.5q-103 -485 -191 -693q-39 -94 -90.5 -162t-108.5 -106.5t-126 -57t-137.5 -17.5
t-147.5 16l-17 344q6 1 31 3.5t32.5 3.5t29.5 6t31.5 10t27.5 15t29 23t24 31.5t23 42.5q82 168 180 645q62 297 375 297h690zM1292 291h80q75 0 97 10q38 18 56 98q6 29 11 70q11 75 9.5 117t-23.5 57.5t-80 15.5h-99z" />
    <glyph glyph-name="uni040A" unicode="&#x40a;" horiz-adv-x="1998" 
d="M1346 895h112q59 0 107.5 -3.5t95.5 -11.5t83.5 -21t69.5 -33.5t56 -47.5t40 -63.5t24.5 -81.5t7.5 -101.5t-9 -123.5q-17 -128 -47.5 -207t-88.5 -129t-141.5 -69t-213.5 -19q-443 0 -656 16h-2l84 604h-305l-84 -604h-446l198 1413h447l-74 -518h305l74 518h436z
M1262 291h94q38 0 57 3.5t38 19t28 46.5t16 86q16 86 1 123t-91 37h-98z" />
    <glyph glyph-name="uni040B" unicode="&#x40b;" horiz-adv-x="1634" 
d="M922 1081l-29 -213q177 82 375 82q190 0 261.5 -91.5t47.5 -285.5l-80 -573h-444l69 494q9 59 -11.5 76.5t-86.5 17.5q-33 0 -52 -1t-54 -9.5t-70 -24.5l-78 -553h-446l151 1081h-387l45 332h1225l-45 -332h-391z" />
    <glyph glyph-name="uni040C" unicode="&#x40c;" horiz-adv-x="1384" 
d="M743 1475l-96 176l506 319l135 -299zM920 739l-2 -12q72 -12 114.5 -24.5t79.5 -43.5t56 -69.5t38.5 -116t33.5 -168t35 -239.5q6 -43 9 -66h-455q-8 62 -20 166q-36 299 -65 361.5t-144 62.5h-59q9 -73 0 -137l-64 -453h-444l198 1413h445l-53 -364q-8 -67 -37 -172h41
q125 0 181.5 89.5t180.5 446.5h461q-20 -51 -56 -141q-40 -100 -57.5 -144t-47.5 -110.5t-45.5 -91t-44 -63.5t-51.5 -51.5t-59.5 -31.5t-75.5 -26.5t-93 -14.5z" />
    <glyph glyph-name="uni040D" unicode="&#x40d;" horiz-adv-x="1505" 
d="M1090 1651l-138 -176l-508 217l164 266zM1305 0h-422l92 633q18 118 59 239h-14q-68 -147 -115 -217l-444 -655h-428l198 1413h426l-84 -600q-13 -98 -67 -268h16q63 143 123 231l436 637h422z" />
    <glyph glyph-name="uni040E" unicode="&#x40e;" horiz-adv-x="1273" 
d="M975 1884l192 -31q5 -143 -103.5 -243.5t-293.5 -100.5q-123 0 -210.5 52.5t-119 135t-2.5 173.5l201 10q-10 -63 24.5 -88t124.5 -25q174 0 187 117zM1397 1413l-449 -1038q-47 -107 -86 -174.5t-88.5 -119.5t-109.5 -77.5t-140 -32.5q-147 -15 -448 31l65 301
q81 -2 140.5 -2t101 5.5t68 20.5t41.5 42l12 24h-70q-174 0 -198 201l-140 819h445l63 -674q1 -19 9 -26.5t22 -7.5h14l283 708h465z" />
    <glyph glyph-name="uni040F" unicode="&#x40f;" horiz-adv-x="1468" 
d="M1466 1413l-198 -1413h-443l-59 -309h-303l26 309h-456l198 1413h447l-158 -1122h342l158 1122h446z" />
    <glyph glyph-name="uni0410" unicode="&#x410;" horiz-adv-x="1388" 
d="M856 299h-385l-111 -299h-460l544 1307q41 106 156 106h401q54 0 95 -35.5t47 -87.5l182 -1290h-444zM831 623l-24 305q-6 54 -2 157h-57q-14 -79 -41 -153l-115 -309h239z" />
    <glyph glyph-name="uni0411" unicode="&#x411;" horiz-adv-x="1316" 
d="M598 866h121q163 0 269.5 -23t172.5 -76.5t86 -140t2 -216.5q-18 -126 -54 -207.5t-102 -130.5t-156 -68.5t-226 -19.5q-453 0 -680 16l198 1413q252 17 541 17q221 0 524 -17l-77 -317h-586zM516 291h109q55 0 84 4.5t52 22.5t33 50t17 91q10 89 -11.5 114t-109.5 25
h-131z" />
    <glyph glyph-name="uni0412" unicode="&#x412;" horiz-adv-x="1353" 
d="M31 0l198 1413q214 17 580 17q145 0 240.5 -18.5t157.5 -62.5t83 -118.5t6 -186.5q-21 -152 -84 -222.5t-206 -82.5l-2 -12q163 -13 225 -112t37 -279q-15 -106 -51.5 -174.5t-105 -108t-159.5 -54.5t-229 -15q-460 0 -690 16zM586 866h137q78 0 107 28t42 120
q9 62 -7 85t-70 23h-172zM506 291h129q99 0 135 32t51 136q12 86 -8.5 112.5t-97.5 26.5h-166z" />
    <glyph glyph-name="uni0413" unicode="&#x413;" horiz-adv-x="1112" 
d="M27 0l155 1108q20 142 113.5 227.5t226.5 85.5q502 0 684 -30l-49 -310h-440q-51 0 -75 -18t-30 -64l-141 -999h-444z" />
    <glyph glyph-name="uni0414" unicode="&#x414;" horiz-adv-x="1617" 
d="M1516 14l-46 -323h-321l12 309h-866l-72 -309h-325l43 309l36 291h148q95 195 158.5 380t134.5 445q82 297 395 297h700l-157 -1122h194zM913 291l119 831h-63q-55 0 -85.5 -24.5t-47.5 -89.5q-55 -228 -106.5 -395t-123.5 -322h307z" />
    <glyph glyph-name="uni0415" unicode="&#x415;" horiz-adv-x="1208" 
d="M1200 1081h-491q-53 0 -76 -18t-29 -64l-18 -129h510l-37 -295h-514l-23 -163q-12 -80 76 -80h492l-9 -316q-36 -5 -79.5 -9t-78.5 -6.5t-91.5 -4t-85.5 -2.5t-95 -1.5t-86 -0.5h-93h-83q-171 0 -255 107t-62 278l102 731q21 145 115 229t248 84q515 0 712 -28z" />
    <glyph glyph-name="uni0416" unicode="&#x416;" horiz-adv-x="1968" 
d="M1524 741l-2 -12q158 -26 201 -104.5t99 -408.5q23 -135 38 -216h-449q-18 121 -41 293q-28 208 -46.5 252.5t-84.5 44.5h-47q6 -69 -6 -137l-64 -453h-426l66 469q9 57 33 121h-39q-28 0 -46.5 -6t-39.5 -24.5t-43 -57t-51 -97.5t-71 -153t-95 -217q-10 -23 -15 -35
h-471q48 117 74.5 179.5t62.5 143t53.5 117.5t47 87t44.5 69t44 47t48 36.5t53 22t63 18.5t75 13l3 12q-60 13 -97.5 26t-68 38.5t-46.5 56t-31 87.5t-25.5 122.5t-25.5 170.5q-15 106 -24 167h442q12 -83 28 -213q27 -213 47.5 -268t84.5 -55h70q-10 99 2 188l49 348h424
l-53 -364q-15 -102 -37 -172h16q22 0 39.5 3.5t32.5 8.5t29 19.5t25.5 27.5t26 41t26 52.5t30.5 70t35 84.5t43 105.5t51 123.5h459q-31 -73 -81 -196q-37 -88 -53 -126.5t-43.5 -98t-42.5 -81.5t-41.5 -57t-47.5 -46t-55 -28.5t-70 -24.5t-86 -14z" />
    <glyph glyph-name="uni0417" unicode="&#x417;" horiz-adv-x="1193" 
d="M180 1079l-18 305q229 46 508 46q149 0 244.5 -18t156 -63t78.5 -118.5t2 -186.5q-21 -151 -84.5 -222t-202.5 -83l-2 -12q286 -26 234 -391q-15 -106 -50 -174.5t-99.5 -108t-150 -54.5t-214.5 -15q-202 0 -337.5 18.5t-267.5 60.5l48 285q274 -45 460 -45
q85 0 121.5 33.5t48.5 122.5q12 82 -9.5 107.5t-94.5 25.5h-307l35 280h286q80 0 106.5 29t37.5 113q7 59 -15.5 77.5t-87.5 18.5q-163 0 -426 -31z" />
    <glyph glyph-name="uni0418" unicode="&#x418;" horiz-adv-x="1505" 
d="M1305 0h-422l92 633q18 118 59 239h-14q-68 -147 -115 -217l-444 -655h-428l198 1413h426l-84 -600q-13 -98 -67 -268h16q63 143 123 231l436 637h422z" />
    <glyph glyph-name="uni0419" unicode="&#x419;" horiz-adv-x="1505" 
d="M1022 1862h252q5 -147 -103 -250t-284 -103q-194 0 -290.5 104t-51.5 249h264q-11 -40 -12 -69t6 -45.5t21.5 -26t29.5 -12.5t35 -3q133 0 133 156zM1305 0h-422l92 633q18 118 59 239h-14q-68 -147 -115 -217l-444 -655h-428l198 1413h426l-84 -600q-13 -98 -67 -268h16
q63 143 123 231l436 637h422z" />
    <glyph glyph-name="uni041A" unicode="&#x41a;" horiz-adv-x="1384" 
d="M920 739l-2 -12q72 -12 114.5 -24.5t79.5 -43.5t56 -69.5t38.5 -116t33.5 -168t35 -239.5q6 -43 9 -66h-455q-8 62 -20 166q-36 299 -65 361.5t-144 62.5h-59q9 -73 0 -137l-64 -453h-444l198 1413h445l-53 -364q-8 -67 -37 -172h41q125 0 181.5 89.5t180.5 446.5h461
q-20 -51 -56 -141q-40 -100 -57.5 -144t-47.5 -110.5t-45.5 -91t-44 -63.5t-51.5 -51.5t-59.5 -31.5t-75.5 -26.5t-93 -14.5z" />
    <glyph glyph-name="uni041B" unicode="&#x41b;" horiz-adv-x="1456" 
d="M1454 1413l-199 -1413h-444l158 1122h-60q-64 0 -92.5 -23.5t-42.5 -86.5q-113 -513 -199 -693q-56 -117 -123.5 -192.5t-142 -109t-162.5 -40t-184 14.5l-16 344q7 1 34 3.5t37 4.5t33 7.5t35.5 14t30 22t32 34.5t27.5 49q81 169 182 645q33 149 126.5 223t254.5 74h715
z" />
    <glyph glyph-name="uni041C" unicode="&#x41c;" horiz-adv-x="1953" 
d="M1366 1413h395q75 0 114 -43.5t32 -118.5l-127 -1251h-400l111 1081h-29l-237 -729q-20 -67 -62.5 -97t-115.5 -30h-226q-71 0 -112.5 38.5t-44.5 105.5l-39 712h-33l-186 -1081h-400l227 1268q14 76 51 110.5t111 34.5h377q70 0 111.5 -38.5t42.5 -106.5l24 -561
q5 -95 -4 -211h21q11 55 51 206l172 582q18 68 61 98.5t115 30.5z" />
    <glyph glyph-name="uni041D" unicode="&#x41d;" horiz-adv-x="1460" 
d="M1458 1413l-198 -1413h-445l84 592h-338l-84 -592h-444l198 1413h445l-72 -506h338l72 506h444z" />
    <glyph glyph-name="uni041E" unicode="&#x41e;" 
d="M797 1442q90 0 162.5 -8t136.5 -26.5t112 -48.5t85.5 -72.5t61 -100t35 -131t9.5 -164.5t-17 -201q-20 -146 -49.5 -255.5t-74.5 -189.5t-100 -132.5t-132 -84t-164 -44.5t-203 -13q-107 0 -190 11t-151.5 36t-115.5 66t-79 98.5t-45.5 137t-12 178.5t18.5 225
q24 173 63.5 295.5t95 205.5t137.5 130.5t181 67.5t236 20zM793 1112q-47 0 -78 -11t-56.5 -36t-43.5 -76t-33.5 -120t-32.5 -179q-16 -100 -21 -165.5t-0.5 -111t23 -69t46 -33.5t73.5 -10q48 0 80 11t57 36t43.5 76.5t33 119.5t31.5 179q19 124 22.5 197t-11.5 117.5
t-45.5 59.5t-87.5 15z" />
    <glyph glyph-name="uni041F" unicode="&#x41f;" horiz-adv-x="1462" 
d="M1460 1413l-198 -1413h-447l158 1122h-336l-158 -1122h-446l198 1413h1229z" />
    <glyph glyph-name="uni0420" unicode="&#x420;" horiz-adv-x="1314" 
d="M31 0l198 1413q215 21 570 21q95 0 168 -7.5t134.5 -24t103.5 -43.5t73 -65.5t44 -90.5t16.5 -118.5t-9.5 -148.5q-19 -139 -55 -226.5t-104.5 -140.5t-162 -73.5t-237.5 -20.5q-98 0 -227 14l-70 -489h-442zM584 788h147q57 0 84 10.5t46 49t30 121.5q12 88 -8.5 119.5
t-94.5 31.5h-157z" />
    <glyph glyph-name="uni0421" unicode="&#x421;" horiz-adv-x="1234" 
d="M1116 367l17 -326q-116 -36 -226.5 -51t-263.5 -15q-240 0 -373 71t-179 234.5t-7 442.5q20 145 47.5 251t69.5 187t94.5 133t128.5 85t165.5 46t211.5 13q152 0 254 -13.5t211 -44.5l-52 -321q-300 4 -436 4q-47 0 -76 -7t-55 -27.5t-42.5 -63.5t-30.5 -107.5
t-27 -167.5q-22 -137 -20 -212.5t31 -101.5t106 -26q266 0 452 17z" />
    <glyph glyph-name="uni0422" unicode="&#x422;" horiz-adv-x="1265" 
d="M1313 1081h-391l-152 -1081h-444l151 1081h-389l47 332h1225z" />
    <glyph glyph-name="uni0423" unicode="&#x423;" horiz-adv-x="1273" 
d="M1397 1413l-449 -1038q-47 -107 -86 -174.5t-88.5 -119.5t-109.5 -77.5t-140 -32.5q-147 -15 -448 31l65 301q81 -2 140.5 -2t101 5.5t68 20.5t41.5 42l12 24h-70q-174 0 -198 201l-140 819h445l63 -674q1 -19 9 -26.5t22 -7.5h14l283 708h465z" />
    <glyph glyph-name="uni0424" unicode="&#x424;" horiz-adv-x="1794" 
d="M1241 1442l-20 -152q341 -29 467.5 -165t85.5 -435q-21 -154 -67.5 -256t-133 -170t-211 -101.5t-309.5 -43.5l-21 -148h-446l20 152q-345 28 -470.5 163t-84.5 437q21 153 67.5 255t134 170.5t212 102t309.5 43.5l21 148h446zM1157 983l-82 -551q71 8 114 24t70 53
t39.5 84t22.5 130q19 139 -13.5 193t-150.5 67zM670 430l82 551q-73 -8 -116.5 -24t-70.5 -53t-39 -83.5t-22 -130.5q-15 -91 -6.5 -146.5t47.5 -80.5t125 -33z" />
    <glyph glyph-name="uni0425" unicode="&#x425;" horiz-adv-x="1376" 
d="M1057 721l239 -721h-436l-153 582l-330 -582h-471l446 721l-213 692h428l146 -549l309 549h453z" />
    <glyph glyph-name="uni0426" unicode="&#x426;" horiz-adv-x="1542" 
d="M1475 291l-41 -291l-43 -309h-322l12 309h-1048l198 1413h447l-158 -1122h316l157 1122h445l-158 -1122h195z" />
    <glyph glyph-name="uni0427" unicode="&#x427;" horiz-adv-x="1413" 
d="M1411 1413l-199 -1413h-444l74 528q-93 -39 -196.5 -62.5t-172.5 -23.5q-216 0 -307 93t-66 284l84 594h447l-74 -514q-8 -59 15.5 -77.5t82.5 -18.5q44 0 69.5 1t70.5 9.5t92 24.5l80 575h444z" />
    <glyph glyph-name="uni0428" unicode="&#x428;" horiz-adv-x="2078" 
d="M2077 1413l-199 -1413h-1845l198 1413h433l-158 -1122h274l158 1122h432l-158 -1122h275l158 1122h432z" />
    <glyph glyph-name="uni0429" unicode="&#x429;" horiz-adv-x="2183" 
d="M2116 291l-41 -291l-43 -309h-322l12 309h-1689l198 1413h435l-158 -1122h274l158 1122h432l-158 -1122h275l158 1122h434l-158 -1122h193z" />
    <glyph glyph-name="uni042A" unicode="&#x42a;" horiz-adv-x="1609" 
d="M936 928h102q93 0 164.5 -7.5t131 -24t99.5 -43t69 -65t40.5 -89t14 -115t-10.5 -144.5q-20 -139 -52 -224t-94 -138.5t-150 -73.5t-228 -20q-445 0 -662 16l152 1081h-428l45 332h875zM846 291h90h7q25 0 36.5 0.5t30 2.5t26 6.5t19.5 13t17.5 21t13 31.5t12 44t8.5 59
q11 75 9.5 117t-25 57.5t-84.5 15.5h-109z" />
    <glyph glyph-name="uni042B" unicode="&#x42b;" horiz-adv-x="1947" 
d="M608 928h101q108 0 187.5 -10t142.5 -33.5t100.5 -60.5t61 -91.5t24 -127t-10.5 -165.5q-20 -139 -51.5 -224t-93 -138.5t-149 -73.5t-226.5 -20q-446 0 -661 16l198 1413h445zM1946 1413l-199 -1413h-444l198 1413h445zM518 291h88h7q33 0 47.5 0.5t35.5 6t29.5 16
t19.5 30.5t17 50t12 75q19 114 3.5 152t-101.5 38h-107z" />
    <glyph glyph-name="uni042C" unicode="&#x42c;" horiz-adv-x="1292" 
d="M608 928h109q131 0 222 -15t157.5 -49.5t98 -90.5t42.5 -139t-8 -194q-20 -139 -52.5 -224t-95 -138.5t-151.5 -73.5t-230 -20q-450 0 -667 16l198 1413h445zM518 291h94h7q35 0 50.5 0.5t37.5 6t31 16t20.5 30.5t17.5 50t12 75q11 75 9 117t-26 57.5t-87 15.5h-115z" />
    <glyph glyph-name="uni042D" unicode="&#x42d;" horiz-adv-x="1232" 
d="M172 1059l-16 325q198 54 460 54q142 0 245 -25.5t177 -80.5t111.5 -142.5t47.5 -211.5t-15 -288q-27 -202 -76.5 -336t-133.5 -220t-201.5 -122.5t-287.5 -36.5q-173 0 -285 16t-216 54l51 322q154 -17 430 -17q112 0 161 46.5t78 178.5h-540l33 295h553
q7 114 -22 153.5t-114 39.5q-158 0 -440 -4z" />
    <glyph glyph-name="uni042E" unicode="&#x42e;" horiz-adv-x="2082" 
d="M602 874h203q23 113 52.5 198t71 148.5t92 105.5t118.5 68t146 37t179 11q112 0 200 -17.5t159.5 -55t118 -97t75 -143t30.5 -192.5t-15 -247q-20 -145 -48.5 -252.5t-72 -188.5t-97.5 -133.5t-130.5 -85t-166.5 -46t-210 -13.5q-159 0 -264 29t-174.5 99t-94 188
t-10.5 297h-203l-82 -584h-446l198 1413h447zM1567 723q14 102 18 165t0.5 110.5t-20.5 70t-43.5 33t-71.5 10.5q-36 0 -61.5 -5.5t-47.5 -16.5t-37.5 -34.5t-28.5 -52t-24 -77t-20.5 -102.5t-20.5 -134q-17 -124 -20 -197t11.5 -117.5t43.5 -59.5t82 -15q60 0 96 15.5
t64 65t45 126.5t35 215z" />
    <glyph glyph-name="uni042F" unicode="&#x42f;" horiz-adv-x="1382" 
d="M393 655l2 11q-101 14 -161 72t-77.5 139t-2.5 184q13 92 45.5 157.5t80.5 107.5t123 66t160.5 33t204.5 9q397 0 612 -21l-198 -1413h-447l72 516h-88q-62 0 -95 -23t-53 -81l-145 -412h-483l172 442q18 50 46 88t55.5 59.5t62.5 36t59.5 20t54.5 9.5zM852 829l41 291
h-143q-80 0 -112 -25.5t-44 -105.5q-15 -98 10 -129t109 -31h139z" />
    <glyph glyph-name="uni0430" unicode="&#x430;" horiz-adv-x="1261" 
d="M752 0l-4 199q-137 -206 -400 -224q-108 -7 -178.5 30t-101 112t-35.5 182.5t18 241.5q11 72 27 131.5t37.5 107t44.5 85t55 65.5t62.5 48t73 33.5t80 22t90.5 12.5t97 5.5t107 1.5q107 0 273 -22t225 -44l-140 -987h-331zM766 772h-94q-37 0 -61.5 -7t-50.5 -28.5
t-43.5 -67t-27.5 -116.5q-26 -157 -19.5 -204.5t62.5 -43.5q40 3 93 47.5t98 110.5z" />
    <glyph glyph-name="uni0431" unicode="&#x431;" horiz-adv-x="1253" 
d="M1196 1499l37 -336q-105 -22 -207.5 -27.5t-184.5 -8.5t-149 -21q-129 -34 -186 -94q-54 -57 -78 -133q73 60 153 84t187 24q266 0 358 -115.5t56 -382.5q-37 -270 -171.5 -392t-414.5 -122q-123 0 -215 19t-152 49t-97.5 83.5t-54.5 104t-19 131t4 144.5t20 162
q15 105 31 184.5t40.5 160.5t58 141t79 113t107 90t139.5 60q97 30 201.5 42t233.5 19t224 21zM735 526q8 52 11.5 81t4 56.5t-3 40t-12.5 22.5t-22 12.5t-35 2.5q-86 0 -122.5 -48.5t-57.5 -198.5q-10 -65 -13 -100.5t-2.5 -64.5t10 -40.5t24.5 -17t42 -5.5q54 0 85.5 21
t53 76.5t37.5 162.5z" />
    <glyph glyph-name="uni0432" unicode="&#x432;" horiz-adv-x="1226" 
d="M866 532l-2 -10q326 -17 281 -284q-10 -65 -38 -111.5t-70.5 -76.5t-107.5 -47.5t-141 -24.5t-180 -7q-185 0 -305 36t-183 109t-80 183.5t5 259.5q38 278 191.5 392t476.5 102q251 -10 360.5 -86.5t91.5 -218.5q-5 -40 -23 -75t-52 -66t-91.5 -51t-132.5 -24zM494 625
l131 8q68 3 100 16.5t41 48.5q9 42 -13 59t-91 17q-87 0 -121.5 -37.5t-46.5 -111.5zM612 422l-149 -8q-11 -98 11 -131t104 -33t112 16.5t39 71.5q7 52 -18.5 69.5t-98.5 14.5z" />
    <glyph glyph-name="uni0433" unicode="&#x433;" horiz-adv-x="1130" 
d="M129 725l-8 240q98 39 236.5 63.5t277.5 24.5q108 0 191 -16t146.5 -50t96 -94t29.5 -143q-2 -52 -18 -97.5t-38 -76.5t-55.5 -57.5t-62 -42t-65 -29t-56.5 -19t-45 -10.5l-228 -51q-74 -17 -96 -27.5t-22 -28.5q0 -25 38 -30.5t158 2.5q249 15 377 34l35 -256
q-88 -29 -137 -42.5t-146.5 -27.5t-208.5 -14q-282 0 -413 81t-113 261q13 129 89.5 199t213.5 103l242 57q12 3 31.5 7t30 6.5t25 6t22 7t15 8.5t10 11t1.5 13q-1 18 -31.5 21.5t-115.5 -0.5q-99 -2 -406 -33z" />
    <glyph glyph-name="uni0434" unicode="&#x434;" horiz-adv-x="1241" 
d="M242 1225l57 268q259 -20 442.5 -92.5t288 -191t142 -275.5t10.5 -354q-23 -173 -71.5 -290.5t-129 -188t-186.5 -100.5t-254 -30q-264 0 -396.5 120t-99.5 364q33 249 154 361t336 112q128 0 213 -45q-21 134 -135 214t-371 128zM573 266q26 0 44.5 6t33.5 25t25 40
t21 66.5t18.5 87.5t19.5 119l4 31q-43 16 -86 16q-76 0 -107.5 -45.5t-49.5 -160.5q-20 -107 -6 -146t83 -39z" />
    <glyph glyph-name="uni0435" unicode="&#x435;" horiz-adv-x="1208" 
d="M1049 328l28 -262q-194 -91 -485 -91q-173 0 -287.5 35t-175.5 107t-80.5 169t-5.5 234q13 130 48 223.5t85.5 153t127.5 94.5t162.5 48.5t201.5 13.5q157 0 263 -24t164 -74t76.5 -118.5t4.5 -164.5q-19 -132 -118.5 -185t-318.5 -69l-256 -19q3 -57 35 -75.5t111 -18.5
q215 0 420 23zM510 608l117 13q73 7 103 23.5t36 70.5q3 36 -15.5 49t-78.5 12q-76 -2 -108 -35t-54 -133z" />
    <glyph glyph-name="uni0436" unicode="&#x436;" horiz-adv-x="1746" 
d="M1329 539l-2 -13q11 -2 32 -6q92 -19 123 -38q51 -31 84 -126q30 -88 85 -356h-410q-60 287 -71 322q-17 59 -43 70q-13 5 -40 5h-61q6 -47 0 -90l-37 -307h-377l43 309q6 40 21 88h-51q-25 -1 -41.5 -8t-35.5 -25t-45 -66.5t-57.5 -113.5t-85.5 -184h-436
q142 299 163 337q56 105 107 139q43 28 145 44q2 0 75 10l2 13q-119 17 -152 31q-49 21 -73 83q-21 55 -59 270q-11 66 -17 97h407q41 -252 53 -293q15 -52 44 -62q14 -5 51 -5h49q-9 65 2 141l31 219h374l-34 -225q-7 -50 -29 -135h12q48 0 66.5 3.5t48.5 42t58.5 100.5
t90.5 204q3 7 4 10h431q-12 -25 -34 -70q-115 -238 -155 -298q-49 -74 -108 -96q-42 -15 -148 -21z" />
    <glyph glyph-name="uni0437" unicode="&#x437;" horiz-adv-x="1089" 
d="M119 727l-15 277q185 49 437 49q116 0 193 -6.5t142 -25t99 -52t47.5 -86.5t3.5 -129q-13 -102 -69 -157t-185 -65l-2 -10q261 -18 223 -282q-9 -61 -27.5 -105.5t-51.5 -74t-70 -47.5t-96 -27t-115 -12t-141 -3q-307 0 -523 52l41 272q244 -25 428 -25q74 0 102 11.5
t31 54.5q4 37 -14.5 49t-64.5 14h-351l29 238h332q48 0 71 13.5t29 43.5q4 36 -13.5 45t-86.5 9q-125 0 -383 -21z" />
    <glyph glyph-name="uni0438" unicode="&#x438;" horiz-adv-x="1265" 
d="M1229 1024l-142 -1024h-335l-9 174q-209 -203 -417 -203q-159 0 -232 76.5t-53 218.5l104 758h433l-93 -637q-4 -31 8.5 -43t38.5 -12q43 0 84 17t99 59l88 616h426z" />
    <glyph glyph-name="uni0439" unicode="&#x439;" horiz-adv-x="1265" 
d="M821 1477h252q5 -147 -103 -250t-284 -103q-194 0 -290.5 104t-51.5 249h264q-11 -40 -12 -69t6 -45.5t21.5 -26t29.5 -12.5t35 -3q133 0 133 156zM1229 1024l-142 -1024h-335l-9 174q-209 -203 -417 -203q-159 0 -232 76.5t-53 218.5l104 758h433l-93 -637
q-4 -31 8.5 -43t38.5 -12q43 0 84 17t99 59l88 616h426z" />
    <glyph glyph-name="uni043A" unicode="&#x43a;" horiz-adv-x="1212" 
d="M811 532l-2 -12q15 -3 43 -7q54 -9 75.5 -13t50 -23t38 -40.5t26 -76.5t27 -119t29.5 -179q6 -41 10 -62h-436q-38 278 -52 327q-15 52 -43 60q-13 4 -34 4h-62q10 -50 4 -88l-45 -303h-428l144 1024h428l-33 -231q-11 -72 -29 -127h21q84 0 116 48t127 310h449
q-17 -40 -46 -109q-45 -107 -62.5 -149t-50 -96t-43.5 -66t-51 -33t-65 -24t-93 -13q-8 -1 -13 -2z" />
    <glyph glyph-name="uni043B" unicode="&#x43b;" horiz-adv-x="1280" 
d="M1243 1024l-143 -1024h-428l102 745h-35q-43 0 -63 -18t-33 -70q-45 -154 -111 -403q-20 -78 -62.5 -134.5t-96 -87.5t-120.5 -44.5t-133.5 -11.5t-137.5 16l-21 321q35 1 53.5 3t46.5 10t46.5 26.5t29.5 48.5q58 170 103 373q28 129 106.5 189.5t222.5 60.5h674z" />
    <glyph glyph-name="uni043C" unicode="&#x43c;" horiz-adv-x="1683" 
d="M1120 1024h361q152 0 137 -154l-100 -870h-390l80 713h-20l-148 -441q-20 -65 -60 -93.5t-108 -28.5h-163q-68 0 -107.5 36.5t-42.5 102.5l-37 424h-18l-117 -713h-389l143 862q11 86 49 124t119 38h338q73 0 109 -34.5t39 -106.5l12 -301q0 -38 -8 -174h20
q24 130 35 172l100 319q33 125 166 125z" />
    <glyph glyph-name="uni043D" unicode="&#x43d;" horiz-adv-x="1282" 
d="M1245 1024l-143 -1024h-422l55 399h-243l-56 -399h-424l144 1024h424l-50 -348h244l49 348h422z" />
    <glyph glyph-name="uni043E" unicode="&#x43e;" horiz-adv-x="1259" 
d="M670 1053q313 0 438.5 -129t83.5 -430q-41 -289 -179 -404t-444 -115q-311 0 -439.5 128t-86.5 423q41 294 179.5 410.5t447.5 116.5zM662 762q-83 0 -114 -50t-56 -218q-16 -92 -12 -142.5t27 -68t79 -17.5q77 0 107 48.5t55 211.5q17 95 13 147.5t-25.5 70.5t-73.5 18z
" />
    <glyph glyph-name="uni043F" unicode="&#x43f;" horiz-adv-x="1280" 
d="M489 1024l11 -180q97 97 216 153t232 56q133 0 210 -77t56 -218l-106 -758h-432l88 618q6 43 -5.5 59.5t-49.5 12.5q-83 -7 -181 -82l-86 -608h-430l142 1024h335z" />
    <glyph glyph-name="uni0440" unicode="&#x440;" horiz-adv-x="1265" 
d="M496 1024v-180q82 86 187.5 145.5t223.5 59.5q175 0 248.5 -144t38.5 -422q-16 -125 -48 -216t-73 -147.5t-99 -90t-118.5 -46t-138.5 -12.5q-133 0 -283 27q0 -96 -14 -191l-29 -176h-430l193 1393h342zM479 231h94q42 0 68.5 7t45 20t30.5 44.5t19.5 67t17.5 101.5
q21 149 12 198.5t-57 49.5q-39 0 -90.5 -27.5t-92.5 -68.5z" />
    <glyph glyph-name="uni0441" unicode="&#x441;" horiz-adv-x="1097" 
d="M963 330l30 -273q-173 -82 -450 -82q-281 0 -410.5 132.5t-89.5 422.5q26 189 87.5 300.5t180 167t310.5 55.5q281 0 469 -80l-58 -262h-360q-90 0 -127.5 -41.5t-52.5 -151.5q-7 -64 -8 -103.5t15.5 -61.5t43 -30t75.5 -8q207 0 345 15z" />
    <glyph glyph-name="uni0442" unicode="&#x442;" horiz-adv-x="1822" 
d="M489 1024l13 -145q95 92 182 133t190 41q213 0 261 -148q87 77 169.5 112.5t178.5 35.5q152 0 223 -78t51 -217l-106 -758h-426l88 637q4 31 -6.5 42t-32.5 11q-60 0 -148 -61l-88 -629h-411l88 637q6 31 -4.5 42t-34.5 11q-61 0 -150 -57l-86 -633h-428l144 1024h333z
" />
    <glyph glyph-name="uni0443" unicode="&#x443;" horiz-adv-x="1271" 
d="M825 1024h461q-44 -226 -78 -358.5t-103.5 -297.5t-180.5 -345q-37 -59 -68.5 -104t-84 -105t-105 -101.5t-128.5 -82t-156.5 -59t-186.5 -19t-222 25.5l31 272q149 -23 259 14.5t198 135.5h-148q-50 0 -85.5 31t-41.5 78l-125 915h471l15 -733q0 -13 9.5 -23t23.5 -10
h45q75 153 118 322.5t82 443.5z" />
    <glyph glyph-name="uni0444" unicode="&#x444;" horiz-adv-x="1595" 
d="M1104 1434l-53 -392q284 -31 398.5 -160t78.5 -388q-25 -173 -95 -279.5t-198.5 -163t-335.5 -71.5l-47 -349h-379l47 355q-288 29 -401 156t-76 384q37 262 180 381.5t451 141.5l51 385h379zM580 256l73 516q-102 -17 -144 -72.5t-60 -185.5q-18 -127 9 -183.5
t122 -74.5zM991 770l-73 -514q102 17 144 71.5t60 182.5q16 129 -10.5 185.5t-120.5 74.5z" />
    <glyph glyph-name="uni0445" unicode="&#x445;" horiz-adv-x="1236" 
d="M938 522l217 -522h-403l-146 381l-256 -381h-442l371 522l-199 502h397l133 -358l244 358h430z" />
    <glyph glyph-name="uni0446" unicode="&#x446;" horiz-adv-x="1357" 
d="M1286 242l-35 -242l-45 -305h-352l100 305h-26q-72 0 -125 49t-60 125q-209 -203 -417 -203q-158 0 -231.5 77t-53.5 218l106 758h433l-93 -637q-4 -32 8.5 -43.5t39.5 -11.5q79 0 180 76l88 616h428l-105 -735q-3 -20 9.5 -33.5t33.5 -13.5h117z" />
    <glyph glyph-name="uni0447" unicode="&#x447;" horiz-adv-x="1239" 
d="M1202 1024l-143 -1024h-428l47 334q-125 -45 -277 -45q-199 0 -283.5 70t-60.5 237l68 428h426l-49 -362q-6 -34 8 -50t53 -16q65 0 156 29l55 399h428z" />
    <glyph glyph-name="uni0448" unicode="&#x448;" horiz-adv-x="1822" 
d="M1786 1024l-144 -1024h-333l-13 147q-94 -92 -183 -134t-193 -42q-101 0 -166 39t-88 111q-86 -78 -170 -114t-181 -36q-152 0 -223 78t-51 217l106 758h428l-90 -637q-4 -31 6.5 -42t32.5 -11q63 0 152 65l88 625h403l-88 -637q-6 -31 4.5 -42t34.5 -11q63 0 154 61
l86 629h428z" />
    <glyph glyph-name="uni0449" unicode="&#x449;" horiz-adv-x="1908" 
d="M1837 242l-35 -242l-43 -305h-352l98 305h-28q-66 0 -115.5 42.5t-61.5 111.5q-96 -96 -185 -139.5t-193 -43.5q-101 0 -167 39t-89 111q-87 -78 -170 -114t-181 -36q-152 0 -223 78t-51 217l106 758h428l-88 -637q-5 -31 5 -42t32 -11q63 0 152 65l88 625h403l-88 -637
q-4 -32 5.5 -42.5t33.5 -10.5q65 0 150 59l88 631h428l-103 -735q-3 -20 9 -33.5t32 -13.5h115z" />
    <glyph glyph-name="uni044A" unicode="&#x44a;" horiz-adv-x="1355" 
d="M887 1024l-86 -334q56 12 133 12q57 -2 100.5 -6t82.5 -12.5t66.5 -22t50 -34t35 -48t19 -64t5.5 -82t-9 -103.5q-11 -85 -37.5 -145.5t-66.5 -101t-101.5 -64t-134.5 -33t-174 -9.5q-53 0 -100 3.5t-97.5 11t-91.5 22t-78.5 35.5t-62 51.5t-39.5 69.5t-14 91t18 114
l96 342h-364l41 307h809zM741 459l-34 -131q-20 -66 61 -66q47 0 63 19t29 79q13 70 4 87.5t-55 17.5q-41 0 -68 -6z" />
    <glyph glyph-name="uni044B" unicode="&#x44b;" horiz-adv-x="1697" 
d="M559 1024l-49 -346q88 24 178 24q57 -2 100.5 -6t82.5 -12.5t66.5 -22t50 -34t35 -48t19 -64t5.5 -82t-9 -103.5q-11 -85 -37.5 -145.5t-66.5 -101t-101.5 -64t-134.5 -33t-174 -9.5q-96 0 -165 7t-136 29t-106 60t-58.5 103.5t-9.5 155.5l96 692h414zM1661 1024
l-143 -1024h-433l144 1024h432zM479 457l-18 -129q-6 -34 12 -50t55 -16q44 0 62 21t26 77q10 70 1.5 87.5t-54.5 17.5q-49 0 -84 -8z" />
    <glyph glyph-name="uni044C" unicode="&#x44c;" horiz-adv-x="1120" 
d="M559 1024l-49 -346q88 24 180 24q58 -2 102.5 -6t84.5 -12.5t67.5 -22t50.5 -34t36 -48t20 -64t6 -82t-8 -103.5q-14 -106 -50 -175.5t-102 -109t-152.5 -55t-214.5 -15.5q-96 0 -165.5 7t-137.5 29.5t-108 60.5t-60 103.5t-10 156.5l96 692h414zM477 455l-18 -127
q-4 -34 14.5 -50t58.5 -16q47 0 66.5 21t28.5 77q10 70 0 87.5t-58 17.5q-55 0 -92 -10z" />
    <glyph glyph-name="uni044D" unicode="&#x44d;" horiz-adv-x="1148" 
d="M115 731l-21 260q85 26 222.5 44t258.5 18q298 0 417 -131t87 -430q-13 -126 -45.5 -215.5t-81.5 -149t-124.5 -94t-166 -48.5t-215.5 -14q-287 0 -471 72l43 260q175 -8 377 -8q130 0 174 16.5t62 83.5h-508l29 246h507q0 59 -26 75.5t-105 16.5q-223 -2 -413 -2z" />
    <glyph glyph-name="uni044E" unicode="&#x44e;" horiz-adv-x="1779" 
d="M535 662h143q27 119 69 195.5t109 119.5t150.5 59.5t207.5 16.5q76 0 136.5 -5.5t115 -18t94.5 -34t72.5 -52.5t52 -73.5t29.5 -98t9 -125t-13 -154.5q-15 -107 -37.5 -185t-58 -136t-80 -95t-108.5 -59.5t-138 -31t-174 -8.5q-132 0 -219 18t-148 64t-85.5 125
t-20.5 199h-145l-54 -383h-430l144 1024h430zM1264 510q10 75 11.5 118.5t-8.5 68t-27.5 31.5t-51.5 7q-49 0 -74.5 -17t-41.5 -62t-30 -142q-8 -61 -10 -99t1 -63t16 -37t29.5 -16t45.5 -4q70 0 95.5 39.5t44.5 175.5z" />
    <glyph glyph-name="uni044F" unicode="&#x44f;" horiz-adv-x="1214" 
d="M274 451l2 12q-226 63 -190 289q10 58 27.5 101.5t41.5 76t63.5 54.5t83 35.5t111.5 21t137.5 10t170.5 2.5q319 0 461 -17l-146 -1036h-418l46 322h-84q-90 0 -109 -68l-78 -254h-442l100 317q23 72 85.5 103t137.5 31zM698 573l27 185h-127q-54 0 -73.5 -15.5
t-26.5 -64.5q-10 -58 7 -81.5t81 -23.5h112z" />
    <glyph glyph-name="uni0451" unicode="&#x451;" horiz-adv-x="1208" 
d="M602 1178h-166q-73 0 -61 67l22 150q4 38 23 54.5t57 16.5h158q73 0 61 -67l-22 -156q-5 -35 -21 -50t-51 -15zM989 1178h-166q-73 0 -61 67l22 152q6 38 23 53.5t51 15.5h164q73 0 61 -67l-22 -154q-5 -37 -21 -52t-51 -15zM1049 328l28 -262q-194 -91 -485 -91
q-173 0 -287.5 35t-175.5 107t-80.5 169t-5.5 234q13 130 48 223.5t85.5 153t127.5 94.5t162.5 48.5t201.5 13.5q157 0 263 -24t164 -74t76.5 -118.5t4.5 -164.5q-19 -132 -118.5 -185t-318.5 -69l-256 -19q3 -57 35 -75.5t111 -18.5q215 0 420 23zM510 608l117 13
q73 7 103 23.5t36 70.5q3 36 -15.5 49t-78.5 12q-76 -2 -108 -35t-54 -133z" />
    <glyph glyph-name="uni0452" unicode="&#x452;" horiz-adv-x="1294" 
d="M618 956l-4 -34q-16 -127 -51 -222q197 168 383 168q159 0 233 -76.5t54 -218.5l-80 -573h-432l65 440q5 37 -8.5 51.5t-52.5 14.5q-41 0 -81.5 -15t-98.5 -55l-58 -436h-432l133 956h-125l25 185h127l41 293h432l-43 -293h346l-26 -185h-347z" />
    <glyph glyph-name="uni0453" unicode="&#x453;" horiz-adv-x="1130" 
d="M1061 1286l-545 -196l-96 176l506 319zM129 725l-8 240q98 39 236.5 63.5t277.5 24.5q108 0 191 -16t146.5 -50t96 -94t29.5 -143q-2 -52 -18 -97.5t-38 -76.5t-55.5 -57.5t-62 -42t-65 -29t-56.5 -19t-45 -10.5l-228 -51q-74 -17 -96 -27.5t-22 -28.5q0 -25 38 -30.5
t158 2.5q249 15 377 34l35 -256q-88 -29 -137 -42.5t-146.5 -27.5t-208.5 -14q-282 0 -413 81t-113 261q13 129 89.5 199t213.5 103l242 57q12 3 31.5 7t30 6.5t25 6t22 7t15 8.5t10 11t1.5 13q-1 18 -31.5 21.5t-115.5 -0.5q-99 -2 -406 -33z" />
    <glyph glyph-name="uni0454" unicode="&#x454;" horiz-adv-x="1148" 
d="M1096 729h-430q-82 0 -117.5 -16t-54.5 -72h510l-29 -246h-510q4 -57 36 -78.5t105 -21.5q248 0 412 8l20 -268q-167 -64 -424 -64q-144 0 -249.5 24.5t-171.5 70.5t-103.5 113.5t-46.5 154t0 190.5q9 98 32 176t54.5 132.5t76 94.5t91.5 64t108 38t117 19t127 5
q304 0 492 -66z" />
    <glyph glyph-name="uni0455" unicode="&#x455;" horiz-adv-x="1122" 
d="M516 358l-215 62q-268 76 -227 350q8 56 27 98t55.5 78t90.5 59t135 35.5t187 12.5q124 0 275.5 -13.5t240.5 -33.5l-34 -248h-392q-113 0 -144 -3.5t-34 -17.5q-3 -15 17.5 -26.5t83.5 -28.5l223 -59q262 -70 233 -324q-10 -80 -38.5 -137t-70.5 -93t-106.5 -56.5
t-135.5 -28t-169 -7.5q-268 0 -524 46l35 247h344q157 0 204 6.5t50 26.5q1 15 -19 24.5t-92 30.5z" />
    <glyph glyph-name="uni0456" unicode="&#x456;" horiz-adv-x="634" 
d="M352 1493h166q138 0 123 -135l-14 -105q-7 -61 -41.5 -89.5t-100.5 -28.5h-168q-69 0 -98.5 33t-21.5 102l14 104q6 61 40.5 90t100.5 29zM449 0h-429l142 1024h428z" />
    <glyph glyph-name="uni0457" unicode="&#x457;" horiz-adv-x="626" 
d="M147 1466h158q74 0 62 -67l-23 -156q-5 -35 -21 -50t-51 -15h-166q-73 0 -61 67l23 150q5 38 23 54.5t56 16.5zM528 1466h164q74 0 62 -67l-23 -154q-5 -37 -21 -52t-51 -15h-165q-74 0 -62 67l23 152q6 38 22.5 53.5t50.5 15.5zM446 0h-432l144 1024h432z" />
    <glyph glyph-name="uni0458" unicode="&#x458;" horiz-adv-x="636" 
d="M354 1493h162q139 0 121 -135l-14 -105q-14 -118 -146 -118h-162q-70 0 -100 33t-22 102l14 104q7 61 43 90t104 29zM596 1024l-133 -913q-21 -165 -120.5 -304t-252.5 -200l-235 198q86 80 128 156t54 166l129 897h430z" />
    <glyph glyph-name="uni0459" unicode="&#x459;" horiz-adv-x="1724" 
d="M1178 1024l-50 -346q88 24 181 24q64 -2 111 -7.5t88.5 -16.5t68 -30t46.5 -46t28 -66t8.5 -89.5t-8.5 -116.5q-14 -101 -50 -168t-101 -105t-150.5 -53.5t-210.5 -15.5q-119 0 -199 12.5t-149.5 47t-97.5 105.5t-15 179l61 438h-26q-42 0 -61.5 -15t-30.5 -55
q-3 -10 -24 -94.5t-34 -133t-34.5 -118t-39.5 -110.5q-33 -76 -78 -129t-92.5 -81t-107.5 -40t-114.5 -11t-123.5 11l-18 293q128 11 176 94q49 85 123 416q27 116 99 171.5t204 55.5h621zM1098 457l-19 -129q-8 -66 66 -66q42 0 58 20.5t24 77.5q10 70 2 87.5t-49 17.5
q-49 0 -82 -8z" />
    <glyph glyph-name="uni045A" unicode="&#x45a;" horiz-adv-x="1718" 
d="M1171 1024l-49 -346q88 24 178 24q56 -2 99 -6t82 -12.5t66 -22t49.5 -34t35 -48t19 -64t5.5 -82t-9 -103.5q-14 -101 -50 -168t-101 -105t-150.5 -53.5t-210.5 -15.5q-118 0 -198.5 12.5t-150.5 47t-98.5 105.5t-15.5 179l10 80h-223l-58 -412h-389l144 1024h389
l-49 -358h223l49 358h403zM1092 457l-19 -129q-8 -66 66 -66q42 0 59 20.5t25 77.5q10 70 2 87.5t-51 17.5q-49 0 -82 -8z" />
    <glyph glyph-name="uni045B" unicode="&#x45b;" horiz-adv-x="1292" 
d="M618 956l-4 -34q-15 -121 -47 -220q195 166 381 166q158 0 231.5 -76t53.5 -219l-68 -462q-23 -166 -120 -304.5t-248 -199.5l-234 198q83 80 123.5 156t52.5 166l47 326q4 32 -10 42.5t-51 10.5q-41 0 -81.5 -15t-98.5 -55l-58 -436h-432l133 956h-125l25 185h127
l41 293h432l-43 -293h346l-26 -185h-347z" />
    <glyph glyph-name="uni045C" unicode="&#x45c;" horiz-adv-x="1212" 
d="M618 1090l-96 176l506 319l135 -299zM811 532l-2 -12q15 -3 43 -7q54 -9 75.5 -13t50 -23t38 -40.5t26 -76.5t27 -119t29.5 -179q6 -41 10 -62h-436q-38 278 -52 327q-15 52 -43 60q-13 4 -34 4h-62q10 -50 4 -88l-45 -303h-428l144 1024h428l-33 -231q-11 -72 -29 -127
h21q84 0 116 48t127 310h449q-17 -40 -46 -109q-45 -107 -62.5 -149t-50 -96t-43.5 -66t-51 -33t-65 -24t-93 -13q-8 -1 -13 -2z" />
    <glyph glyph-name="uni045D" unicode="&#x45d;" horiz-adv-x="1265" 
d="M752 1090l-508 217l164 266l481 -307zM1229 1024l-142 -1024h-335l-9 174q-209 -203 -417 -203q-159 0 -232 76.5t-53 218.5l104 758h433l-93 -637q-4 -31 8.5 -43t38.5 -12q43 0 84 17t99 59l88 616h426z" />
    <glyph glyph-name="uni045E" unicode="&#x45e;" horiz-adv-x="1271" 
d="M854 1477h252q5 -147 -103 -250t-284 -103q-194 0 -290.5 104t-51.5 249h264q-11 -40 -12 -69t6 -45.5t21.5 -26t29.5 -12.5t35 -3q133 0 133 156zM825 1024h461q-44 -226 -78 -358.5t-103.5 -297.5t-180.5 -345q-37 -59 -68.5 -104t-84 -105t-105 -101.5t-128.5 -82
t-156.5 -59t-186.5 -19t-222 25.5l31 272q149 -23 259 14.5t198 135.5h-148q-50 0 -85.5 31t-41.5 78l-125 915h471l15 -733q0 -13 9.5 -23t23.5 -10h45q75 153 118 322.5t82 443.5z" />
    <glyph glyph-name="uni045F" unicode="&#x45f;" horiz-adv-x="1265" 
d="M1229 1024l-142 -1024h-335l-9 174q-209 -203 -417 -203q-159 0 -232 76.5t-53 218.5l104 758h433l-93 -637q-4 -31 8.5 -43t38.5 -12q43 0 84 17t99 59l88 616h426zM436 -80h269l-35 -434h-324z" />
    <glyph glyph-name="uni0490" unicode="&#x490;" horiz-adv-x="1144" 
d="M1290 1726l-51 -335l-49 -310h-473q-36 0 -67.5 -24.5t-37.5 -57.5l-141 -999h-444l155 1108q20 142 113.5 227.5t224.5 85.5q273 0 406 -4l67 309h297z" />
    <glyph glyph-name="uni0491" unicode="&#x491;" horiz-adv-x="1001" 
d="M1085 1313l-47 -309l-49 -297h-377q-37 0 -60.5 -18.5t-27.5 -51.5l-90 -637h-428l109 778q20 141 92 201.5t217 60.5q203 0 301 -4l63 277h297z" />
    <glyph glyph-name="uni04B0" unicode="&#x4b0;" horiz-adv-x="1343" 
d="M983 618h182l-30 -223h-273l-55 -395h-445l54 395h-273l31 223h193l-271 795h443l112 -452q17 -77 17 -207h28q14 99 64 202l246 457h471z" />
    <glyph glyph-name="uni04B1" unicode="&#x4b1;" horiz-adv-x="1337" 
d="M926 240h172l-33 -254h-270l-47 -355h-447l49 355h-270l33 254h188l-264 784h442l109 -453q18 -82 14 -206h31q10 97 61 202l240 457h473z" />
    <glyph glyph-name="uni04B6" unicode="&#x4b6;" horiz-adv-x="1513" 
d="M1446 291l-39 -291l-45 -309h-320l33 309h-307l78 551q-203 -88 -430 -88q-191 0 -264.5 91.5t-49.5 285.5l82 573h445l-70 -493q-10 -59 11 -77t89 -18q134 0 230 35l78 553h444l-158 -1122h193z" />
    <glyph glyph-name="uni04B7" unicode="&#x4b7;" horiz-adv-x="1327" 
d="M1221 10h2l-43 -289h-355l97 279h-293l47 334q-125 -45 -277 -45q-199 0 -283 70t-59 237l66 428h424l-49 -362q-5 -35 10 -50.5t55 -15.5q63 0 154 29l55 399h428l-104 -745h159z" />
    <glyph glyph-name="uni04BA" unicode="&#x4ba;" horiz-adv-x="1404" 
d="M678 1413l-78 -547q205 84 420 84q191 0 263.5 -91.5t47.5 -285.5l-80 -573h-444l70 494q10 60 -12 78.5t-89 15.5q-3 0 -20.5 -1t-22.5 -1.5t-21 -2t-23.5 -2.5t-22.5 -2.5t-25.5 -3.5t-25.5 -5t-29 -7t-29 -8l-78 -555h-446l198 1413h447z" />
    <glyph glyph-name="uni04C0" unicode="&#x4c0;" horiz-adv-x="675" 
d="M475 0h-442l198 1413h443z" />
    <glyph glyph-name="Wgrave" unicode="&#x1e80;" horiz-adv-x="2037" 
d="M1362 1651l-137 -176l-508 217l164 266zM2109 1413l-356 -1302q-13 -53 -55 -82t-101 -29h-372q-58 0 -100.5 37t-41.5 90l15 756q1 49 10 215h-37q-13 -88 -41 -209l-203 -778q-13 -53 -55 -82t-100 -29h-383q-58 0 -99.5 37t-37.5 90v1286h436l-56 -874
q-2 -41 -8 -125.5t-8 -110.5h35q24 132 57 254l197 733q15 58 56.5 90.5t101.5 32.5h309q59 0 98 -40t39 -99v-737q0 -86 -4 -234h37q12 111 43 248l188 862h436z" />
    <glyph glyph-name="wgrave" unicode="&#x1e81;" horiz-adv-x="1894" 
d="M1233 1264l-137 -177l-508 218l164 266zM504 266h12q30 0 49 31.5t37 103.5q21 86 37 187q9 51 25.5 167.5t23.5 162.5q5 41 37 73.5t90 32.5h352q49 0 83 -31t40 -78v-649h15q8 0 15 2t13 7.5t10 11t8.5 15.5t7 18t6 23t5.5 25t6 28t6 30q16 75 41 233q26 171 39 365
h426q-27 -242 -69 -422q-49 -215 -101 -340q-30 -74 -62 -120t-83 -80t-124 -48t-181 -14h-158q-52 0 -86 33.5t-31 81.5v655h-24q-10 -89 -39 -252q-24 -135 -47 -227q-16 -59 -37 -104.5t-42.5 -76t-53 -51.5t-58.5 -33t-69.5 -17.5t-74.5 -7t-85 -1.5h-225
q-50 0 -84 33.5t-37 81.5l-33 911h436z" />
    <glyph glyph-name="Wacute" unicode="&#x1e82;" horiz-adv-x="2037" 
d="M1589 1671l-545 -196l-96 176l506 319zM2109 1413l-356 -1302q-13 -53 -55 -82t-101 -29h-372q-58 0 -100.5 37t-41.5 90l15 756q1 49 10 215h-37q-13 -88 -41 -209l-203 -778q-13 -53 -55 -82t-100 -29h-383q-58 0 -99.5 37t-37.5 90v1286h436l-56 -874
q-2 -41 -8 -125.5t-8 -110.5h35q24 132 57 254l197 733q15 58 56.5 90.5t101.5 32.5h309q59 0 98 -40t39 -99v-737q0 -86 -4 -234h37q12 111 43 248l188 862h436z" />
    <glyph glyph-name="wacute" unicode="&#x1e83;" horiz-adv-x="1894" 
d="M1460 1284l-545 -197l-96 177l506 319zM504 266h12q30 0 49 31.5t37 103.5q21 86 37 187q9 51 25.5 167.5t23.5 162.5q5 41 37 73.5t90 32.5h352q49 0 83 -31t40 -78v-649h15q8 0 15 2t13 7.5t10 11t8.5 15.5t7 18t6 23t5.5 25t6 28t6 30q16 75 41 233q26 171 39 365h426
q-27 -242 -69 -422q-49 -215 -101 -340q-30 -74 -62 -120t-83 -80t-124 -48t-181 -14h-158q-52 0 -86 33.5t-31 81.5v655h-24q-10 -89 -39 -252q-24 -135 -47 -227q-16 -59 -37 -104.5t-42.5 -76t-53 -51.5t-58.5 -33t-69.5 -17.5t-74.5 -7t-85 -1.5h-225q-50 0 -84 33.5
t-37 81.5l-33 911h436z" />
    <glyph glyph-name="Wdieresis" unicode="&#x1e84;" horiz-adv-x="2037" 
d="M907 1851h158q73 0 61 -67l-22 -156q-5 -35 -21 -50t-51 -15h-166q-73 0 -61 67l22 150q4 38 23 54.5t57 16.5zM1288 1851h164q73 0 61 -67l-22 -154q-5 -37 -21 -52t-51 -15h-166q-73 0 -61 67l22 152q6 38 23 53.5t51 15.5zM2109 1413l-356 -1302q-13 -53 -55 -82
t-101 -29h-372q-58 0 -100.5 37t-41.5 90l15 756q1 49 10 215h-37q-13 -88 -41 -209l-203 -778q-13 -53 -55 -82t-100 -29h-383q-58 0 -99.5 37t-37.5 90v1286h436l-56 -874q-2 -41 -8 -125.5t-8 -110.5h35q24 132 57 254l197 733q15 58 56.5 90.5t101.5 32.5h309
q59 0 98 -40t39 -99v-737q0 -86 -4 -234h37q12 111 43 248l188 862h436z" />
    <glyph glyph-name="wdieresis" unicode="&#x1e85;" horiz-adv-x="1894" 
d="M778 1464h158q73 0 61 -67l-22 -156q-5 -35 -21 -50t-51 -15h-166q-73 0 -61 67l22 150q4 38 23 54.5t57 16.5zM1159 1464h164q73 0 61 -67l-22 -154q-5 -37 -21 -52t-51 -15h-166q-73 0 -61 67l22 152q6 38 23 53.5t51 15.5zM504 266h12q30 0 49 31.5t37 103.5
q21 86 37 187q9 51 25.5 167.5t23.5 162.5q5 41 37 73.5t90 32.5h352q49 0 83 -31t40 -78v-649h15q8 0 15 2t13 7.5t10 11t8.5 15.5t7 18t6 23t5.5 25t6 28t6 30q16 75 41 233q26 171 39 365h426q-27 -242 -69 -422q-49 -215 -101 -340q-30 -74 -62 -120t-83 -80t-124 -48
t-181 -14h-158q-52 0 -86 33.5t-31 81.5v655h-24q-10 -89 -39 -252q-24 -135 -47 -227q-16 -59 -37 -104.5t-42.5 -76t-53 -51.5t-58.5 -33t-69.5 -17.5t-74.5 -7t-85 -1.5h-225q-50 0 -84 33.5t-37 81.5l-33 911h436z" />
    <glyph glyph-name="Ygrave" unicode="&#x1ef2;" horiz-adv-x="1329" 
d="M872 1475l-507 217l163 266l482 -307zM860 428l-59 -428h-447l64 453l-324 960h443l108 -452q18 -82 14 -207h31q10 95 62 202l239 457h473z" />
    <glyph glyph-name="ygrave" unicode="&#x1ef3;" horiz-adv-x="1273" 
d="M782 1090l-508 217l164 266l482 -307zM827 1024h461q-34 -252 -155.5 -568t-200.5 -440q-148 -232 -344.5 -341.5t-452.5 -96.5l-26 232q27 9 81.5 26.5t81.5 28t67.5 29.5t73.5 45t64 61h-162q-50 0 -85.5 31t-41.5 78l-127 915h471l17 -733q0 -13 9.5 -23t23.5 -10h49
q69 156 114.5 335t81.5 431z" />
    <glyph glyph-name="endash" unicode="&#x2013;" horiz-adv-x="1089" 
d="M969 401h-903l36 250h904z" />
    <glyph glyph-name="emdash" unicode="&#x2014;" horiz-adv-x="1683" 
d="M1563 401h-1497l36 250h1497z" />
    <glyph glyph-name="quoteleft" unicode="&#x2018;" horiz-adv-x="454" 
d="M299 809h-63q-71 0 -99.5 32.5t-19.5 108.5l16 119q14 100 59 210.5t101 180.5l151 -59q-13 -29 -25 -65t-18.5 -62t-17 -67t-16.5 -62q57 1 78.5 -27.5t13.5 -91.5l-13 -86q-10 -74 -43.5 -102.5t-103.5 -28.5z" />
    <glyph glyph-name="quoteright" unicode="&#x2019;" horiz-adv-x="452" 
d="M299 1434h63q71 0 99.5 -33t19.5 -109l-16 -118q-14 -100 -59 -211t-101 -181l-151 60q13 29 25 65t18.5 62t17 67t16.5 62q-57 -1 -78.5 27.5t-13.5 91.5l13 86q10 74 43.5 102.5t103.5 28.5z" />
    <glyph glyph-name="quotesinglbase" unicode="&#x201a;" horiz-adv-x="475" 
d="M162 313h63q71 0 99.5 -32.5t19.5 -108.5l-16 -119q-14 -100 -59 -210.5t-101 -180.5l-152 59q13 29 25 65t19 61t18 68t16 62q-57 -1 -78.5 27.5t-13.5 91.5l12 86q10 74 44 102.5t104 28.5z" />
    <glyph glyph-name="quotedblleft" unicode="&#x201c;" horiz-adv-x="862" 
d="M299 809h-63q-71 0 -99.5 32.5t-19.5 108.5l16 119q14 100 59 210.5t101 180.5l151 -59q-13 -29 -25 -65t-18.5 -62t-17 -67t-16.5 -62q57 1 78.5 -27.5t13.5 -91.5l-13 -86q-10 -74 -43.5 -102.5t-103.5 -28.5zM707 809h-64q-71 0 -99.5 32.5t-19.5 108.5l17 119
q14 100 58.5 211t100.5 180l152 -59q-13 -29 -25 -65t-19 -61t-18 -68t-16 -62q57 1 78.5 -27.5t13.5 -91.5l-12 -86q-10 -74 -43.5 -102.5t-103.5 -28.5z" />
    <glyph glyph-name="quotedblright" unicode="&#x201d;" horiz-adv-x="860" 
d="M299 1434h63q71 0 99.5 -33t19.5 -109l-16 -118q-14 -100 -59 -211t-101 -181l-151 60q13 29 25 65t18.5 62t17 67t16.5 62q-57 -1 -78.5 27.5t-13.5 91.5l13 86q10 74 43.5 102.5t103.5 28.5zM707 1434h63q71 0 99.5 -33t19.5 -109l-17 -118q-14 -100 -58.5 -211.5
t-100.5 -180.5l-152 60q13 29 25 65t19 61t18 68t16 62q-57 -1 -78.5 27.5t-13.5 91.5l12 86q10 74 44 102.5t104 28.5z" />
    <glyph glyph-name="quotedblbase" unicode="&#x201e;" horiz-adv-x="882" 
d="M162 313h63q71 0 99.5 -32.5t19.5 -108.5l-16 -119q-14 -100 -59 -210.5t-101 -180.5l-152 59q13 29 25 65t19 61t18 68t16 62q-57 -1 -78.5 27.5t-13.5 91.5l12 86q10 74 44 102.5t104 28.5zM569 313h64q71 0 99.5 -32.5t19.5 -108.5l-17 -119q-14 -100 -59 -210.5
t-101 -180.5l-151 59q13 29 25 65t19 61t18 68t16 62q-57 -1 -78.5 27.5t-13.5 91.5l12 86q10 74 43.5 102.5t103.5 28.5z" />
    <glyph glyph-name="dagger" unicode="&#x2020;" horiz-adv-x="997" 
d="M551 -225h-336l166 1030l29 186l36 424h336l-82 -424l-24 -186zM66 731l40 293h265l-35 -248zM1012 1024l-41 -293l-258 45l35 248h264z" />
    <glyph glyph-name="daggerdbl" unicode="&#x2021;" horiz-adv-x="1052" 
d="M727 1024l-119 -825l-37 -424h-335l81 424l115 825l35 391h336zM356 776l-270 -45l41 293h264zM991 731l-258 45l35 248h264zM305 414l-35 -248h-264l41 293zM911 166h-264l35 248l270 45z" />
    <glyph glyph-name="bullet" unicode="&#x2022;" horiz-adv-x="776" 
d="M393 823h49q135 0 184.5 -59t32.5 -199l-6 -35q-22 -152 -77.5 -205t-194.5 -53h-55q-140 0 -191 62t-31 213l7 35q20 141 77 191t205 50z" />
    <glyph glyph-name="ellipsis" unicode="&#x2026;" horiz-adv-x="1886" 
d="M152 379h81q74 0 113 -40.5t29 -115.5l-13 -84q-9 -73 -47.5 -106t-115.5 -33h-82q-79 0 -115 40t-27 116l11 84q20 139 166 139zM834 379h81q74 0 113 -40.5t29 -115.5l-13 -84q-9 -73 -47.5 -106t-115.5 -33h-82q-79 0 -115 40t-27 116l11 84q20 139 166 139zM1516 379
h81q74 0 113 -40.5t29 -115.5l-13 -84q-9 -73 -47.5 -106t-115.5 -33h-82q-79 0 -115 40t-27 116l11 84q20 139 166 139z" />
    <glyph glyph-name="perthousand" unicode="&#x2030;" horiz-adv-x="2709" 
d="M506 1442q140 0 219.5 -39.5t110.5 -136.5t8 -262q-17 -121 -45 -197.5t-77 -124t-116 -66t-170 -18.5q-82 0 -141.5 13.5t-104.5 44.5t-67 81.5t-29.5 124.5t8.5 174q17 121 44.5 197.5t76.5 124t115.5 66t167.5 18.5zM598 0h-266l977 1413h266zM498 1219q-28 0 -41 -15
t-22.5 -56t-22.5 -144q-9 -66 -12 -98.5t1 -53.5t14 -26t31 -5q30 0 44 15t23.5 56.5t21.5 143.5q12 123 6.5 153t-43.5 30zM1470 815q140 0 219.5 -39.5t110.5 -136.5t8 -262q-17 -121 -44.5 -197.5t-76.5 -124t-116 -66t-170 -18.5q-138 0 -216.5 39.5t-109.5 137
t-8 262.5q17 121 44.5 197.5t76 123.5t115 65.5t167.5 18.5zM2294 815q140 0 219.5 -39.5t110.5 -136.5t8 -262q-17 -121 -45 -197.5t-77 -124t-116 -66t-170 -18.5q-138 0 -216.5 39.5t-109.5 137t-8 262.5q23 161 68 247.5t123 122t213 35.5zM1462 592q-28 0 -41 -15
t-22.5 -56t-22.5 -144q-6 -44 -9 -71t-3.5 -49t1.5 -33t8.5 -18t15 -9t22.5 -2q43 0 57 34.5t31 180.5q12 123 6.5 152.5t-43.5 29.5zM2286 592q-28 0 -41 -15t-22.5 -56t-22.5 -144q-6 -44 -9 -70.5t-4 -49t1 -33t8.5 -18t15 -9.5t22.5 -2q43 0 57 34.5t31 180.5
q13 123 7.5 152.5t-43.5 29.5z" />
    <glyph glyph-name="guilsinglleft" unicode="&#x2039;" horiz-adv-x="655" 
d="M606 819l-180 -305l127 -315l-225 -148l-291 414l6 92l332 406z" />
    <glyph glyph-name="guilsinglright" unicode="&#x203a;" horiz-adv-x="653" 
d="M592 551l-6 -92l-332 -408l-231 144l180 305l-127 317l225 146z" />
    <glyph glyph-name="fraction" unicode="&#x2044;" horiz-adv-x="327" 
d="M-172 0h-270l972 1413h271z" />
    <glyph glyph-name="Euro" unicode="&#x20ac;" horiz-adv-x="1314" 
d="M113 965h127q48 165 132 267.5t223 154t343 51.5q214 0 379 -58l-51 -301q-45 4 -160.5 6t-202.5 -6q-74 -9 -116.5 -34t-69.5 -80h399l-53 -226h-983zM989 453h-348q9 -56 38.5 -87t84.5 -40q75 -11 193.5 -3.5t216.5 25.5l18 -309q-174 -64 -412 -64q-290 0 -436.5 117
t-165.5 361h-141l31 225h972z" />
    <glyph glyph-name="trademark" unicode="&#x2122;" horiz-adv-x="2037" 
d="M688 1206l-80 -559h-293l80 559h-219l31 219h729l-31 -219h-217zM1667 1425h262q49 0 75 -29t21 -79l-71 -670h-264l55 559h-14l-99 -342q-12 -44 -37.5 -62t-72.5 -18h-148q-46 0 -75.5 26.5t-30.5 70.5l-6 325h-19l-98 -559h-266l120 686q9 51 31 71.5t70 20.5h256
q44 0 72.5 -27t29.5 -71l4 -235q0 -61 -10 -136h14q1 7 11 60t16 76l61 251q19 82 113 82z" />
    <glyph glyph-name="partialdiff" unicode="&#x2202;" horiz-adv-x="1204" 
d="M291 1163l14 279q124 6 230.5 1t196.5 -21t162 -45.5t126.5 -73t90 -103.5t53 -136.5t15 -173t-23.5 -212.5q-31 -168 -79.5 -292.5t-108 -202.5t-139 -125t-162.5 -65t-187 -18q-101 0 -180.5 24t-129.5 65.5t-83.5 95t-46 116t-12 124t13.5 122.5q17 77 53 147
t91.5 131.5t140.5 98.5t186 37q159 0 240 -70q14 79 4.5 135.5t-58 92.5t-146.5 52.5t-261 16.5zM526 295q67 0 104 77t72 257q-53 6 -94 6q-62 0 -93 -39t-50 -117q-28 -98 -17 -141t78 -43z" />
    <glyph glyph-name="emptyset" unicode="&#x2205;" horiz-adv-x="1402" 
d="M717 1296q122 0 232.5 -47.5t190.5 -127.5t127.5 -190.5t47.5 -232.5t-47.5 -233.5t-127.5 -191.5t-190.5 -127.5t-232.5 -47.5t-233.5 47.5t-191.5 127.5t-127.5 191.5t-47.5 233.5t47.5 232.5t127.5 190.5t191.5 127.5t233.5 47.5zM653 494h111q0 59 20 108.5t48 84
t56 68t48 77t20 94.5q0 190 -239 190q-39 0 -68.5 -1t-56.5 -3.5t-40 -4t-43 -6.5l-42 -7l6 -93q130 19 244 19q64 0 99.5 -25t35.5 -69q0 -36 -20.5 -72.5t-50 -70.5t-58.5 -72.5t-49.5 -95t-20.5 -121.5zM750 350h-80q-15 0 -15 -16v-76q0 -14 15 -14h80q16 0 16 14v76
q0 16 -16 16z" />
    <glyph glyph-name="product" unicode="&#x220f;" horiz-adv-x="1449" 
d="M1473 1114h-144l-182 -1298h-430l182 1298h-203l-182 -1298h-430l182 1298h-143l43 299h1350z" />
    <glyph glyph-name="summation" unicode="&#x2211;" horiz-adv-x="1224" 
d="M1227 1122h-588l186 -469l-358 -696h616l-41 -291h-1105l36 291l373 700l-176 465l37 291h1061z" />
    <glyph glyph-name="minus" unicode="&#x2212;" horiz-adv-x="1165" 
d="M1047 440h-977l47 316h977z" />
    <glyph glyph-name="radical" unicode="&#x221a;" horiz-adv-x="1208" 
d="M1380 1794l-643 -1786q-1 -7 -3 -7.5t-13 -0.5h-510q-9 0 -21.5 9t-11.5 16l-115 999h336l76 -754h27l530 1524h348z" />
    <glyph glyph-name="infinity" unicode="&#x221e;" horiz-adv-x="1546" 
d="M1198 938q65 0 122 -20.5t100 -59.5t62.5 -102.5t8.5 -143.5q-21 -151 -125 -232t-248 -81q-196 0 -356 160q-119 -86 -201.5 -123t-189.5 -37q-69 0 -129.5 23t-105 65.5t-65.5 109t-10 148.5q19 145 118.5 219t242.5 74q114 0 201 -45t163 -125q65 50 102.5 75.5
t88.5 50.5t102.5 34.5t118.5 9.5zM356 625q-4 -39 19.5 -59t58.5 -17q56 5 97.5 26.5t86.5 59.5q-54 51 -147 51q-109 0 -115 -61zM1192 614q4 38 -15.5 55t-50.5 17q-32 0 -66.5 -15t-56.5 -30.5t-67 -50.5q55 -41 129 -41q113 0 127 65z" />
    <glyph glyph-name="integral" unicode="&#x222b;" horiz-adv-x="716" 
d="M127 -72l72 1270q9 129 85.5 196.5t190.5 67.5q223 0 305 -8l-57 -309h-105q-53 0 -59 -64l-74 -1271q-5 -97 -32 -152.5t-91 -84t-176 -28.5q-43 0 -148.5 3.5t-131.5 7.5l55 307h100q28 0 46.5 16.5t19.5 48.5z" />
    <glyph glyph-name="approxequal" unicode="&#x2248;" horiz-adv-x="1198" 
d="M381 612l-258 19q-22 188 62.5 281t234.5 79q52 -5 196.5 -44t163.5 -42q27 -4 44 0.5t25.5 19t12 28t6.5 38.5l260 -20q20 -182 -56 -274.5t-238 -84.5q-51 2 -195 40.5t-172 41.5q-25 3 -40.5 0t-24.5 -17t-11.5 -22t-7.5 -34q-1 -6 -2 -9zM326 197l-260 18
q-20 188 65 281t234 79q52 -5 196.5 -44t163.5 -42q27 -4 43.5 0t25.5 19.5t12 27t7 37.5l258 -18q22 -182 -54.5 -275t-238.5 -85q-54 2 -196.5 40t-171.5 41q-49 5 -64 -13.5t-20 -65.5z" />
    <glyph glyph-name="notequal" unicode="&#x2260;" horiz-adv-x="1245" 
d="M1167 989l-45 -315h-979l45 315h459l121 268l225 -102l-78 -166h252zM129 555h979l-49 -315h-490l-118 -260l-222 96l74 164h-223z" />
    <glyph glyph-name="lessequal" unicode="&#x2264;" horiz-adv-x="1130" 
d="M1038 866l-542 -65l524 -78l-45 -324l-866 242l47 332l934 235zM918 47h-918l47 326h918z" />
    <glyph glyph-name="greaterequal" unicode="&#x2265;" horiz-adv-x="1132" 
d="M1085 973l-47 -332l-938 -242l50 351l552 67l-534 64l45 331zM981 47h-924l45 326h926z" />
    <glyph glyph-name="lozenge" unicode="&#x25ca;" horiz-adv-x="1177" 
d="M61 739l613 676q13 12 23.5 6.5t17.5 -20.5l426 -676q1 -3 4 -9.5t4 -10t2 -8.5t0 -9.5t-4 -9.5l-610 -680q-14 -12 -25 -6.5t-16 20.5l-428 680q-16 32 -7 47zM395 709l168 -291l248 291l-162 290z" />
    <glyph glyph-name="c_t" horiz-adv-x="1822" 
d="M1573 766l-57 -401q-6 -41 5.5 -53.5t57.5 -12.5h121l22 -279q-64 -25 -163 -37t-179 -12q-158 0 -242.5 80.5t-64.5 214.5l74 500h-475q-91 0 -128 -53t-52 -195q-7 -64 -8 -103.5t15.5 -61.5t43 -30t75.5 -8q183 0 304 15l30 -273q-157 -82 -409 -82
q-281 0 -410.5 132.5t-89.5 422.5q26 177 87 282.5t179 158.5t309 53h568l39 268h424l-39 -268h245l-34 -258h-248z" />
    <glyph glyph-name="f_f_y" horiz-adv-x="2828" 
d="M2382 1024h461q-18 -133 -65.5 -297t-102.5 -303.5t-106 -248t-83 -159.5q-148 -232 -344 -341.5t-452 -96.5l-27 232q27 10 81.5 27t82 27.5t68 29.5t73.5 45t64 61h-162q-50 0 -85.5 31t-41.5 78l-82 587q-5 31 -26.5 50.5t-53.5 19.5h-160l-123 -801
q-23 -156 -114 -240.5t-275 -84.5q-103 0 -317 30l65 256h101q64 0 93 25t38 90l108 725h-360l-125 -832q-23 -156 -114 -240.5t-275 -84.5q-96 0 -318 31l66 256h100q65 0 93.5 25t37.5 89l111 756h-168l31 248l174 10l16 113q23 156 114 240.5t275 84.5q73 0 175 -8
t163 -22l-65 -256h-123q-61 0 -88.5 -25t-36.5 -90l-6 -37h362l21 133q23 156 114.5 241t274.5 85q79 0 194.5 -8.5t184.5 -22.5l-66 -256h-164q-61 0 -88.5 -25t-36.5 -90l-8 -57h320q157 0 232.5 -81.5t78.5 -223.5l10 -428q0 -13 9.5 -23t23.5 -10h49q70 156 115.5 335.5
t81.5 430.5z" />
    <glyph glyph-name="f_t" horiz-adv-x="1648" 
d="M1399 766l-58 -401q-6 -40 6 -53t58 -13h121l22 -279q-64 -25 -163 -37t-179 -12q-158 0 -242.5 80.5t-64.5 214.5l74 500h-338l-123 -832q-23 -156 -114 -240.5t-275 -84.5q-96 0 -318 31l66 256h100q64 0 92 24.5t39 89.5l109 756h-166l31 248l174 10l18 133
q23 156 114.5 241t274.5 85q79 0 194.5 -8.5t184.5 -22.5l-65 -256h-164q-61 0 -88.5 -25t-36.5 -90l-8 -57h338l39 268h424l-39 -268h245l-34 -258h-248z" />
    <glyph glyph-name="f_y" horiz-adv-x="2043" 
d="M1597 1024h461q-34 -252 -155.5 -568t-200.5 -440q-148 -232 -344.5 -341.5t-452.5 -96.5l-26 232q27 9 81.5 26.5t81.5 28t67.5 29.5t73.5 45t64 61h-162q-50 0 -85.5 31t-41.5 78l-81 587q-5 31 -26.5 50.5t-53.5 19.5h-162l-123 -832q-23 -156 -114 -240.5t-275 -84.5
q-96 0 -318 31l66 256h100q64 0 92 24.5t39 89.5l109 756h-166l31 248l174 10l18 133q23 156 114.5 241t274.5 85q79 0 194.5 -8.5t184.5 -22.5l-65 -256h-164q-61 0 -88.5 -25t-36.5 -90l-8 -57h323q157 0 233 -82t79 -223l10 -428q0 -13 9.5 -23t23.5 -10h49
q69 156 114.5 335t81.5 431z" />
    <glyph glyph-name="s_t" horiz-adv-x="1900" 
d="M1651 766l-58 -401q-6 -40 6 -53t58 -13h121l22 -279q-64 -25 -163 -37t-179 -12q-158 0 -242.5 80.5t-64.5 214.5l74 500h-566q-115 0 -145 -4t-33 -25q-3 -15 17.5 -26.5t83.5 -28.5l223 -59q262 -70 233 -324q-10 -80 -38.5 -137t-70.5 -93t-106.5 -56.5t-135.5 -28
t-169 -7.5q-268 0 -524 46l35 247h344q157 0 204 6.5t50 26.5q1 15 -19 24.5t-92 30.5l-215 62q-268 76 -227 350q11 62 38.5 106t81.5 78.5t143.5 51.5t217.5 18h709l39 268h423l-38 -268h245l-35 -258h-247z" />
    <glyph glyph-name="t_t" horiz-adv-x="1685" 
d="M1436 766l-58 -401q-6 -40 6 -53t58 -13h121l22 -279q-64 -25 -163 -37t-179 -12q-158 0 -242.5 80.5t-64.5 214.5l74 500h-361l-57 -401q-6 -41 5.5 -53.5t57.5 -12.5h121l23 -279q-64 -25 -163 -37t-179 -12q-158 0 -242.5 80.5t-64.5 214.5l73 500h-176l31 248l184 10
l39 268h424l-39 -268h363l38 268h424l-38 -268h245l-35 -258h-247z" />
    <glyph glyph-name="t_y" horiz-adv-x="2107" 
d="M1661 1024h461q-18 -133 -65.5 -297t-102.5 -303.5t-106 -248t-83 -159.5q-148 -232 -344 -341.5t-452 -96.5l-27 232q27 10 81.5 27t82 27.5t68 29.5t73.5 45t64 61h-162q-50 0 -85.5 31t-41.5 78l-82 587q-5 31 -26.5 50.5t-53.5 19.5h-211l-57 -401q-6 -41 5.5 -53.5
t57.5 -12.5h101l22 -279q-59 -25 -152.5 -37t-168.5 -12q-158 0 -242.5 80.5t-64.5 214.5l73 500h-176l31 248l176 10h8l39 268h424l-39 -268h375q157 0 232.5 -81.5t78.5 -223.5l10 -428q0 -13 10 -23t23 -10h49q70 156 115.5 335.5t81.5 430.5z" />
    <glyph glyph-name="brevecy" horiz-adv-x="839" 
d="M659 1446h252q5 -146 -103 -249t-284 -103q-195 0 -291 103.5t-51 248.5h264q-11 -40 -12 -69t6 -45.5t21.5 -26t29.5 -12.5t35 -3q133 0 133 156z" />
    </font>
</defs>
</svg>
