<?xml version="1.0" standalone="no"?>
<!DOCTYPE svg PUBLIC "-//W3C//DTD SVG 1.1//EN" "http://www.w3.org/Graphics/SVG/1.1/DTD/svg11.dtd" >
<svg xmlns="http://www.w3.org/2000/svg" xmlns:xlink="http://www.w3.org/1999/xlink" version="1.1">
<metadata>
Created by FontForge 20170731 at Sun Apr  4 19:57:59 2021
 By Aleksey,,,
Copyright (c) 2013, Natanael Gama (www.ndiscovered.com . info(at)ndiscovered.com), with Reserved Font Name Exo. This Font Software is licensed under the SIL Open Font License, Version 1.1.
</metadata>
<defs>
<font id="Exo2.0-LightItalic" horiz-adv-x="1153" >
  <font-face 
    font-family="Exo 2.0 Light"
    font-weight="300"
    font-style="italic"
    font-stretch="normal"
    units-per-em="2048"
    panose-1="0 0 4 0 0 0 0 0 0 0"
    ascent="1638"
    descent="-410"
    x-height="991"
    cap-height="1413"
    bbox="-440 -553 2448.59 1905"
    underline-thickness="102"
    underline-position="-307"
    slope="-8"
    unicode-range="U+0020-FB02"
  />
<missing-glyph horiz-adv-x="1228" 
 />
    <glyph glyph-name="fi" unicode="fi" horiz-adv-x="1191" 
d="M1073 991l-141 -991h-129l125 887h-518l-144 -1022q-21 -141 -93.5 -212t-207.5 -71q-97 0 -217 12l19 97h157q103 0 150.5 41.5t62.5 150.5l142 1004h-179l13 94l180 10l26 180q21 150 94 222.5t220 72.5q139 0 244 -12l-9 -96h-194q-108 0 -160.5 -46.5t-67.5 -158.5
l-22 -162h649zM1032 1409h60q22 0 33 -12.5t8 -32.5l-17 -121q-3 -22 -13 -30.5t-32 -8.5h-61q-47 0 -41 45l18 121q3 39 45 39z" />
    <glyph glyph-name="fl" unicode="fl" horiz-adv-x="1318" 
d="M1221 88l6 -84q-50 -20 -162 -20q-109 0 -164.5 60t-42.5 167l162 1147h-346q-108 2 -160.5 -45.5t-67.5 -159.5l-22 -162h315l-14 -104h-315l-144 -1022q-21 -141 -93.5 -212t-207.5 -71q-97 0 -217 12l19 97h157q103 0 150.5 41.5t62.5 150.5l142 1004h-179l13 94
l180 10l26 180q21 150 94 222.5t220 72.5q415 -5 526 -20l-168 -1217q-18 -141 121 -141h109z" />
    <glyph glyph-name="f_f" unicode="ff" horiz-adv-x="1413" 
d="M1542 1358h-209q-108 0 -158 -42t-65 -151l-25 -174h334l-14 -102h-334l-137 -981q-21 -141 -93.5 -211t-207.5 -70q-113 0 -217 13l18 96h158q103 0 149.5 40.5t63.5 149.5l135 963h-528l-146 -1024q-21 -141 -93.5 -212t-207.5 -71q-97 0 -217 12l19 97h157
q102 0 149 41.5t64 150.5l144 1006h-183l15 92l182 10l22 162q21 141 96.5 212t215.5 71q169 0 268 -13l-18 -96h-209q-109 0 -159 -41t-65 -151l-20 -144h528l27 193q21 141 96 211.5t215 70.5q155 0 269 -12z" />
    <glyph glyph-name="f_f_i" unicode="ffi" horiz-adv-x="1851" 
d="M1733 991l-142 -991h-129l125 887h-516l-137 -979q-21 -141 -93.5 -211t-207.5 -70q-113 0 -217 13l18 96h158q103 0 149.5 40.5t63.5 149.5l135 961h-528l-146 -1022q-21 -141 -93.5 -212t-207.5 -71q-97 0 -217 12l19 97h157q102 0 149 41.5t64 150.5l144 1006h-183
l15 92l182 10l22 162q21 141 96.5 212t215.5 71q169 0 268 -13l-18 -96h-209q-109 0 -159 -41t-65 -151l-20 -144h528l27 193q21 141 96 211.5t215 70.5q155 0 269 -12l-19 -96h-209q-108 0 -158 -42t-65 -151l-25 -174h648zM1692 1409h59q21 0 31.5 -12t7.5 -33l-16 -121
q-3 -22 -12.5 -30.5t-32.5 -8.5h-60q-47 0 -41 45l19 121q3 39 45 39z" />
    <glyph glyph-name="f_f_l" unicode="ffl" horiz-adv-x="1980" 
d="M1880 88l6 -84q-50 -20 -162 -20q-110 0 -165.5 60.5t-40.5 166.5l161 1147h-348q-106 2 -158 -45.5t-67 -159.5l-23 -162h316l-15 -102h-315l-139 -981q-21 -141 -92.5 -211t-206.5 -70q-116 0 -217 13l18 96h156q104 0 151 40.5t64 149.5l135 963h-526l-146 -1024
q-21 -141 -93.5 -212t-207.5 -71q-97 0 -217 12l19 97h157q102 0 149 41.5t64 150.5l144 1006h-183l15 92l182 10l22 162q21 141 96.5 212t215.5 71q169 0 268 -13l-18 -96h-209q-109 0 -159 -41t-65 -151l-20 -144h526l25 180q21 150 94 222.5t219 72.5q416 -5 527 -20
l-166 -1217q-21 -141 121 -141h108z" />
    <glyph glyph-name=".notdef" horiz-adv-x="1228" 
 />
    <glyph glyph-name=".null" horiz-adv-x="0" 
 />
    <glyph glyph-name="nonmarkingreturn" horiz-adv-x="682" 
 />
    <glyph glyph-name="space" unicode=" " horiz-adv-x="462" 
 />
    <glyph glyph-name="exclam" unicode="!" horiz-adv-x="540" 
d="M358 772l-59 -346h-104l34 346l93 651h129zM197 219h36q55 0 46 -53l-17 -119q-3 -47 -53 -47h-37q-53 0 -47 53l18 117q6 49 54 49z" />
    <glyph glyph-name="quotedbl" unicode="&#x22;" horiz-adv-x="696" 
d="M305 979h-92l53 434h109zM588 979h-92l51 434h110z" />
    <glyph glyph-name="numbersign" unicode="#" horiz-adv-x="1382" 
d="M1090 934l-127 -399h227l-31 -89h-223l-141 -446h-105l139 446h-407l-141 -446h-105l139 446h-237l28 89h238l125 399h-238l29 88h236l125 391h104l-123 -391h408l125 391h104l-123 -391h227l-28 -88h-225zM983 934h-408l-126 -399h409z" />
    <glyph glyph-name="dollar" unicode="$" 
d="M1090 1401l-17 -96q-195 10 -305 10l-113 -553l113 -45q159 -62 208.5 -146.5t27.5 -242.5q-9 -66 -26 -116.5t-40 -87.5t-57.5 -63t-72.5 -42.5t-91 -25.5t-107 -12.5t-127 -3.5l-51 -243h-72l52 243q-183 4 -342 31l16 101q276 -13 350 -13l119 563l-135 54
q-146 57 -196 145t-31 238q9 66 27 117.5t41.5 87.5t58.5 61.5t70.5 40t86 22.5t97 10t110.5 1h39l41 204h72l-43 -206q154 -6 297 -33zM698 1317h-30q-44 0 -67.5 -0.5t-59 -3.5t-55 -9.5t-46 -17.5t-41 -28t-30.5 -41.5t-25.5 -58.5t-15.5 -77q-12 -109 18 -160.5
t135 -93.5l107 -41zM621 635l-113 -539q94 2 150.5 10.5t103 34.5t70.5 74t36 127q15 115 -16.5 165t-140.5 93z" />
    <glyph glyph-name="percent" unicode="%" horiz-adv-x="1818" 
d="M530 1438q181 0 242.5 -99t28.5 -325q-31 -222 -114.5 -317t-256.5 -95q-179 0 -239 99t-29 325q31 224 112.5 318t255.5 94zM406 0h-107l1139 1413h104zM537 1354q-135 0 -191.5 -74.5t-83.5 -265.5q-25 -181 10.5 -254.5t153.5 -73.5q133 0 190.5 75.5t83.5 264.5
q25 184 -8.5 256t-154.5 72zM1417 819q182 0 243 -99t28 -325q-31 -223 -114.5 -318t-256.5 -95q-179 0 -239 99t-29 327q31 223 112.5 317t255.5 94zM1423 735q-134 0 -190.5 -75t-83.5 -265q-25 -182 10 -255.5t154 -73.5q133 0 191 76t83 266q25 182 -9 254.5t-155 72.5z
" />
    <glyph glyph-name="ampersand" unicode="&#x26;" horiz-adv-x="1570" 
d="M1487 680h-250q-35 -228 -131 -385q-100 -164 -252 -239.5t-365 -78.5q-236 -5 -328.5 82.5t-62.5 302.5q27 179 118 270t257 97l2 8q-140 10 -189.5 94.5t-23.5 241.5q15 89 44.5 152t71 103.5t104 63.5t133 31.5t169.5 8.5q181 0 336 -46l-22 -98q-127 31 -312 31
q-102 0 -165 -10t-112 -39.5t-74.5 -82t-39.5 -138.5q-27 -155 36.5 -210t248.5 -55h450q12 129 9 283h121q0 -165 -11 -283h254zM1116 680h-448q-85 -1 -143 -8.5t-108.5 -27t-83 -54t-55.5 -88t-36 -131.5q-7 -57 -8.5 -99.5t11.5 -73t31.5 -51t50.5 -32t68.5 -16.5
t85.5 -5q186 0 309.5 62t206.5 192q87 132 119 332z" />
    <glyph glyph-name="quotesingle" unicode="'" horiz-adv-x="413" 
d="M305 979h-92l53 434h109z" />
    <glyph glyph-name="parenleft" unicode="(" horiz-adv-x="727" 
d="M778 1618l15 -68q-226 -106 -357 -328t-182 -587q-50 -351 16 -573.5t260 -333.5l-18 -66q-252 110 -347.5 353.5t-39.5 633.5t213.5 625.5t439.5 343.5z" />
    <glyph glyph-name="parenright" unicode=")" horiz-adv-x="727" 
d="M209 1552l18 66q251 -108 347.5 -350.5t39.5 -638.5q-56 -388 -213 -622.5t-440 -344.5l-16 68q227 111 357.5 336.5t182.5 580.5q50 353 -15.5 577t-260.5 328z" />
    <glyph glyph-name="asterisk" unicode="*" horiz-adv-x="919" 
d="M555 1090l166 -265l-72 -49l-127 256l-200 -254l-64 53l238 261l34 321h84zM467 1133l-6 -37l-19 -25l-249 74l34 80zM872 1139l-264 -68l-14 25l2 37l260 90z" />
    <glyph glyph-name="plus" unicode="+" horiz-adv-x="1124" 
d="M995 561h-389l-51 -371h-102l53 371h-391l14 101h389l51 368h105l-53 -368h391z" />
    <glyph glyph-name="comma" unicode="," horiz-adv-x="448" 
d="M154 219h43q50 0 41 -51l-19 -133q-18 -138 -100 -295l-66 22q46 155 60 240q-20 0 -30 12.5t-7 32.5l18 123q5 28 16.5 38.5t43.5 10.5z" />
    <glyph glyph-name="hyphen" unicode="-" horiz-adv-x="940" 
d="M766 465h-629l15 102h628z" />
    <glyph glyph-name="period" unicode="." horiz-adv-x="446" 
d="M145 219h48q28 0 38 -13t7 -40l-17 -119q-6 -47 -53 -47h-45q-56 0 -47 53l16 117q6 49 53 49z" />
    <glyph glyph-name="slash" unicode="/" horiz-adv-x="1052" 
d="M82 -129h-117l1020 1542h115z" />
    <glyph glyph-name="zero" unicode="0" horiz-adv-x="1216" 
d="M719 1438q261 0 345.5 -175.5t29.5 -562.5t-183 -556t-381 -169q-259 0 -344.5 175t-29.5 563q53 387 181 556t382 169zM717 1321q-192 0 -288.5 -143.5t-143.5 -477.5q-45 -331 7 -469.5t236 -138.5q192 0 290.5 143.5t144.5 477.5q47 330 -6.5 469t-239.5 139z" />
    <glyph glyph-name="one" unicode="1" horiz-adv-x="792" 
d="M471 0h-135l164 1176q12 72 24 112l-374 -119l-5 97l390 147h135z" />
    <glyph glyph-name="two" unicode="2" horiz-adv-x="1134" 
d="M238 1280l-7 104q241 54 424 54q105 0 176 -12t127.5 -44t78.5 -93t10 -154q-17 -132 -91 -247.5t-241 -279.5l-496 -485q74 4 227 4h517l-19 -127h-913l10 86q7 39 27 59l510 500q164 160 243.5 276.5t89.5 225.5q5 46 -5 78.5t-29 50.5t-56.5 28t-74 12.5t-95.5 2.5
q-200 0 -413 -39z" />
    <glyph glyph-name="three" unicode="3" horiz-adv-x="1122" 
d="M252 1300l-8 103q218 35 385 35q235 0 323.5 -77.5t67.5 -254.5q-7 -62 -24 -117.5t-47 -107.5t-78.5 -86.5t-110.5 -44.5l-4 -9q127 -20 177.5 -114t27.5 -240q-12 -83 -45 -151.5t-92.5 -127t-157 -93.5t-226.5 -40q-196 -10 -407 35l20 103q241 -26 377 -19
q351 23 399 318q45 278 -262 280l-266 4l14 101l260 2q88 1 150 27.5t95 72t48 91t21 102.5q10 54 3.5 93t-21.5 65t-51.5 41t-87 21.5t-128.5 6.5q-166 0 -352 -19z" />
    <glyph glyph-name="four" unicode="4" horiz-adv-x="1234" 
d="M1110 381l-178 -14l-51 -367h-129l51 367h-592q-58 0 -96 32t-41.5 78.5t24.5 97.5l535 838h137l-537 -850q-24 -38 -13.5 -62t48.5 -24h551l60 432l59 236h102l-94 -668h178z" />
    <glyph glyph-name="five" unicode="5" horiz-adv-x="1085" 
d="M1018 1298h-610l-84 -440l133 -8q109 -4 187 -18t142 -43.5t100.5 -77t51 -119t2.5 -168.5q-8 -60 -24 -114t-53.5 -115t-91.5 -106t-142.5 -77t-200.5 -37q-193 -7 -387 54l27 106q168 -48 331 -41q366 17 412 342q25 184 -75 240.5t-386 62.5l-96 9q-28 0 -44 19.5
t-11 47.5l114 598h727z" />
    <glyph glyph-name="six" unicode="6" horiz-adv-x="1161" 
d="M1061 1409l-21 -98q-103 12 -249 12q-78 0 -133.5 -8.5t-107 -33t-87 -66t-67.5 -109t-56 -160t-45 -221.5q161 184 399 190q204 6 284.5 -101t43.5 -365q-17 -117 -50 -201t-91 -147t-146.5 -94.5t-210.5 -31.5q-197 0 -289 76t-103 236t26 407q20 138 46 245t57 185.5
t72.5 134t85.5 90.5t103.5 54.5t119.5 27t140 7.5q145 0 279 -29zM666 805q-102 -3 -191 -47t-199 -158q-27 -182 -18.5 -295.5t71.5 -164t201 -50.5q173 0 255 93t108 280q28 191 -18.5 269.5t-208.5 72.5z" />
    <glyph glyph-name="seven" unicode="7" horiz-adv-x="1036" 
d="M190 1413h789q60 0 78 -29.5t-8 -83.5l-629 -1300h-137l583 1206q15 36 54 92h-740z" />
    <glyph glyph-name="eight" unicode="8" horiz-adv-x="1245" 
d="M399 731l4 8q-197 23 -155 328q15 100 43 165.5t82.5 112.5t141.5 67.5t216 19.5q132 0 216 -22.5t127.5 -68.5t54.5 -117.5t-3 -168.5q-21 -146 -79.5 -226t-165.5 -92l-4 -8q123 -13 164.5 -109t15.5 -274q-15 -101 -43.5 -166t-86.5 -111t-150.5 -66t-233.5 -21
q-178 -1 -277.5 39t-133.5 121t-15 216q26 178 89.5 269t192.5 104zM723 1321q-100 0 -163 -13.5t-102.5 -48.5t-58 -84.5t-30.5 -130.5q-7 -48 -7.5 -82.5t4.5 -63t19.5 -46.5t35.5 -31.5t56 -20t76 -9.5t100 -3q101 0 160 10.5t99 42.5t58 81t29 135q19 98 1 157t-81 83
t-196 24zM635 678q-74 -1 -123.5 -5t-92.5 -17t-68.5 -33t-47 -55.5t-33.5 -82t-22 -114.5q-15 -107 4.5 -164t89.5 -84t211 -27q137 0 215 29t114 88.5t50 169.5q10 65 11 109.5t-10 79t-30.5 54t-58.5 32t-87 16.5t-122 4z" />
    <glyph glyph-name="nine" unicode="9" horiz-adv-x="1161" 
d="M102 4l25 98q108 -12 264 -12q86 2 146 12.5t112 37.5t87 68.5t65.5 111.5t53 159t44.5 217q-91 -105 -181.5 -150t-209.5 -48q-110 -3 -184 27.5t-110.5 91t-46.5 148.5t7 200q31 246 150 359.5t354 113.5q185 0 275.5 -71.5t107.5 -231.5t-27 -416q-25 -158 -54 -273
t-69.5 -198.5t-86 -135.5t-111 -83t-137 -42.5t-170.5 -11.5q-164 0 -304 29zM530 606q108 3 194.5 48.5t193.5 160.5q28 180 18.5 292.5t-72 164t-194.5 51.5q-181 0 -262.5 -88.5t-108.5 -284.5q-28 -191 25.5 -269t205.5 -75z" />
    <glyph glyph-name="colon" unicode=":" horiz-adv-x="458" 
d="M270 895h45q54 0 45 -55l-16 -117q-6 -47 -53 -47h-45q-56 0 -47 53l16 117q6 49 55 49zM174 219h45q54 0 45 -53l-16 -119q-6 -47 -53 -47h-45q-54 0 -48 53l19 117q6 49 53 49z" />
    <glyph glyph-name="semicolon" unicode=";" horiz-adv-x="466" 
d="M248 895h47q28 0 38 -13t7 -42l-16 -117q-6 -47 -54 -47h-45q-56 0 -47 53l17 117q6 49 53 49zM162 219h43q27 0 36.5 -12t6.5 -39l-19 -133q-17 -133 -102 -295l-66 22q47 157 62 240q-21 0 -31.5 12t-7.5 33l18 123q5 28 17.5 38.5t42.5 10.5z" />
    <glyph glyph-name="less" unicode="&#x3c;" horiz-adv-x="1085" 
d="M981 909l-752 -305l664 -301l-14 -104l-773 356l15 104l874 363z" />
    <glyph glyph-name="equal" unicode="=" horiz-adv-x="1204" 
d="M1065 764h-883l15 100h882zM1006 332h-883l14 100h883z" />
    <glyph glyph-name="greater" unicode="&#x3e;" horiz-adv-x="1083" 
d="M979 659l-14 -104l-873 -354l14 112l750 301l-661 308l14 102z" />
    <glyph glyph-name="question" unicode="?" horiz-adv-x="1019" 
d="M193 1323l-7 94q9 2 43.5 8t43 7.5t38 6t42 6t40.5 4.5t48.5 4t51.5 2.5t63.5 2t70.5 0.5q202 0 298.5 -80t73.5 -243q-9 -62 -37 -116.5t-67 -97t-84.5 -83t-91.5 -82.5t-86 -88.5t-70.5 -109t-42.5 -134.5l-112 2q10 77 38.5 144.5t66.5 116.5t82.5 93.5t88 84.5
t80.5 78.5t64 86t34 98.5q15 119 -45 169.5t-213 50.5q-61 0 -107 -1t-91 -4t-65.5 -5t-74.5 -7.5t-73 -7.5zM414 219h37q54 0 45 -53l-17 -117q-6 -49 -53 -49h-37q-53 0 -47 53l18 117q3 49 54 49z" />
    <glyph glyph-name="at" unicode="@" horiz-adv-x="1556" 
d="M240 1184l10 96q240 10 622 14q104 0 175.5 -3.5t136 -16.5t103.5 -33t70.5 -57t44 -82.5t17 -117t-2 -154t-21.5 -197.5q-21 -159 -43 -263t-52 -184.5t-71.5 -122.5t-97 -62.5t-134.5 -20.5q-218 0 -198 231q-100 -113 -203.5 -174.5t-226.5 -61.5q-121 0 -185 61.5
t-72.5 170t15.5 256.5q25 144 61 232t97.5 138t138.5 67.5t199 17.5q147 0 403 -41l-100 -666q-8 -64 10 -91.5t70 -27.5q43 0 74 10t56.5 37.5t43.5 64.5t34.5 104t29 142.5t28.5 192.5q20 140 27.5 222.5t-6 149t-33.5 95.5t-82 48.5t-123.5 22.5t-184.5 3h-630zM815 336
l72 465q-145 8 -223 8t-130.5 -5t-96.5 -20.5t-70.5 -39t-49 -66t-36.5 -94.5t-27 -131q-22 -123 -20.5 -204.5t39.5 -122t120 -40.5q105 0 207 62t215 188z" />
    <glyph glyph-name="A" unicode="A" horiz-adv-x="1253" 
d="M924 467h-617l-219 -467h-143l665 1378q14 35 56 35h153q19 0 33.5 -12t15.5 -29l281 -1372h-135zM901 586l-117 604q-3 21 -9 60t-9 59h-61q-35 -76 -56 -119l-284 -604h536z" />
    <glyph glyph-name="B" unicode="B" horiz-adv-x="1259" 
d="M104 0l199 1413q166 17 434 17q130 0 213.5 -17.5t136.5 -60.5t68 -115t0 -182q-22 -153 -89 -229.5t-194 -88.5l-2 -10q149 -12 201.5 -109t26.5 -272q-16 -110 -48 -179.5t-92 -110.5t-141 -56.5t-207 -15.5q-328 0 -506 16zM348 784h330q88 1 145.5 13t100 42.5
t65.5 81.5t35 132q9 46 6.5 82.5t-7.5 64t-23 47.5t-40 33t-57.5 21t-76 11t-95.5 3q-233 0 -309 -2zM332 680l-80 -578q168 -4 342 -4q191 0 270.5 57.5t102.5 221.5q7 52 7 92t-6.5 72t-23 54.5t-39.5 39t-58 26t-77 14t-98 5.5h-340z" />
    <glyph glyph-name="C" unicode="C" 
d="M993 119l11 -101q-165 -43 -406 -43q-298 0 -400.5 171t-45.5 567q28 204 74 339.5t122 223t181.5 125t256.5 37.5q127 0 207 -9t168 -30l-24 -101q-159 19 -351 19q-119 0 -199 -28.5t-139.5 -101t-96 -188.5t-62.5 -299q-19 -139 -20 -238t16 -171t58 -114t102.5 -61.5
t152.5 -19.5q212 -2 395 23z" />
    <glyph glyph-name="D" unicode="D" horiz-adv-x="1353" 
d="M104 0l199 1413q264 19 465 19q126 0 214.5 -24t150 -77t89 -138t32 -207.5t-20.5 -285.5q-21 -148 -49 -257t-69 -189.5t-90.5 -132.5t-118.5 -83t-147.5 -43.5t-183.5 -12.5q-210 0 -471 18zM424 1309l-170 -1205q204 -4 319 -4q102 0 174 17t130.5 56.5t98 111
t68.5 174.5t50 254q21 145 22 245.5t-17 171.5t-62.5 110.5t-109 57t-161.5 17.5q-24 0 -342 -6z" />
    <glyph glyph-name="E" unicode="E" horiz-adv-x="1136" 
d="M1120 1300h-569q-146 0 -164 -151l-49 -348h633l-15 -105h-632l-60 -438q-21 -145 123 -145h565v-103q-188 -12 -583 -12q-130 0 -193.5 69.5t-48.5 188.5l131 930q14 106 85 167.5t189 61.5q417 0 607 -12z" />
    <glyph glyph-name="F" unicode="F" horiz-adv-x="1095" 
d="M1110 1300h-543q-78 0 -120 -35.5t-52 -115.5l-51 -365h614l-14 -104h-614l-97 -680h-133l164 1180q17 113 89.5 174t187.5 61q403 0 589 -12z" />
    <glyph glyph-name="G" unicode="G" horiz-adv-x="1273" 
d="M1208 1399l-24 -101q-191 21 -365 21q-106 0 -180.5 -18t-134 -58.5t-99.5 -113.5t-68 -176t-48 -253q-38 -335 18 -470.5t238 -135.5q111 0 205.5 56t210.5 169l69 500h131l-117 -819h-96l10 205q-205 -230 -454 -230q-231 0 -315.5 175t-38.5 563q28 213 79 353.5
t133.5 222.5t187.5 115.5t255 33.5q235 0 403 -39z" />
    <glyph glyph-name="H" unicode="H" horiz-adv-x="1357" 
d="M1284 1413l-199 -1413h-135l99 696h-711l-98 -696h-136l199 1413h135l-84 -600h711l84 600h135z" />
    <glyph glyph-name="I" unicode="I" horiz-adv-x="512" 
d="M240 0h-136l199 1413h135z" />
    <glyph glyph-name="J" unicode="J" horiz-adv-x="681" 
d="M614 1413l-159 -1141q-41 -288 -299 -288q-91 0 -170 22l26 92h105q177 0 205 176l157 1139h135z" />
    <glyph glyph-name="K" unicode="K" horiz-adv-x="1189" 
d="M633 739l-2 -8q33 -35 57 -86l373 -645h-152l-391 682h-194q-4 -100 -13 -162l-73 -520h-134l199 1413h133l-63 -459q-17 -101 -33 -161h190l535 620h164l-510 -594q-42 -48 -86 -80z" />
    <glyph glyph-name="L" unicode="L" horiz-adv-x="1036" 
d="M432 1413l-162 -1155q-9 -67 22 -106t101 -39h531l-4 -103q-182 -12 -553 -12q-121 0 -184 70t-46 194l160 1151h135z" />
    <glyph glyph-name="M" unicode="M" horiz-adv-x="1779" 
d="M1450 1413h160q28 0 43 -17t12 -46l-131 -1350h-133l129 1300h-43l-524 -1110q-17 -43 -62 -43h-135q-51 0 -57 50l-220 1103h-45l-233 -1300h-135l248 1356q6 30 21 43.5t42 13.5h158q47 0 53 -49l186 -924q6 -34 17 -98.5t16 -93.5h45q54 127 86 194l438 926
q17 45 64 45z" />
    <glyph glyph-name="N" unicode="N" horiz-adv-x="1429" 
d="M1356 1413l-193 -1360q-6 -53 -59 -53h-135q-42 0 -60 47l-401 1075q-44 126 -55 166h-41q-5 -74 -19 -176l-153 -1112h-136l191 1360q5 28 19 40.5t42 12.5h129q47 0 62 -47l391 -1049q57 -163 66 -192h45q6 62 22 197l152 1091h133z" />
    <glyph glyph-name="O" unicode="O" horiz-adv-x="1359" 
d="M791 1438q119 0 204 -24.5t145 -78.5t87.5 -140t32.5 -209t-21 -286q-37 -274 -111 -430.5t-198.5 -225.5t-325.5 -69q-119 0 -203.5 24t-145.5 77.5t-89 139.5t-33.5 209.5t19.5 287.5q28 204 74 339.5t122.5 223t183 125t259.5 37.5zM786 1319q-96 0 -166 -20
t-124.5 -63t-93 -117t-65.5 -174.5t-48 -244.5q-34 -225 -12 -359.5t98.5 -190.5t230.5 -56q156 0 251.5 59t152 191t90.5 369q23 174 22.5 290t-39.5 186.5t-109.5 100t-187.5 29.5z" />
    <glyph glyph-name="P" unicode="P" horiz-adv-x="1198" 
d="M104 0l199 1413q185 17 469 17q242 0 330 -97t53 -340q-15 -105 -40 -178t-62 -122.5t-93.5 -77t-125 -39t-166.5 -11.5q-163 0 -346 17l-82 -582h-136zM334 682h332q92 1 150.5 15.5t101.5 51.5t66.5 97.5t37.5 157.5q18 125 -2.5 192.5t-78.5 93t-171 25.5
q-182 0 -346 -4z" />
    <glyph glyph-name="Q" unicode="Q" horiz-adv-x="1359" 
d="M791 1438q119 0 204 -24.5t145 -78.5t87.5 -140t32.5 -209t-21 -286q-37 -274 -111 -430.5t-198.5 -225.5t-325.5 -69q-119 0 -203.5 24t-145.5 77.5t-89 139.5t-33.5 209.5t19.5 287.5q28 204 74 339.5t122.5 223t183 125t259.5 37.5zM786 1319q-96 0 -166 -20
t-124.5 -63t-93 -117t-65.5 -174.5t-48 -244.5q-34 -225 -12 -359.5t98.5 -190.5t230.5 -56q156 0 251.5 59t152 191t90.5 369q23 174 22.5 290t-39.5 186.5t-109.5 100t-187.5 29.5zM446 -174l54 80q196 -116 493 -166l-51 -133q-288 59 -496 219z" />
    <glyph glyph-name="R" unicode="R" horiz-adv-x="1257" 
d="M104 0l199 1413q185 17 469 17q116 0 193 -19.5t129 -66t68.5 -126t0.5 -198.5q-25 -173 -98 -258t-217 -105l-2 -10q112 -34 143 -201l90 -446h-137l-86 446q-17 86 -59 122t-117 38q-63 1 -141 1.5t-129 1t-86 1.5l-86 -610h-134zM338 723h336q173 2 250.5 66.5
t101.5 236.5q24 167 -31.5 228t-224.5 61q-184 0 -348 -4z" />
    <glyph glyph-name="S" unicode="S" horiz-adv-x="1142" 
d="M705 600l-291 113q-147 58 -198 146t-32 237q9 66 27 117.5t41.5 87.5t58.5 61.5t71 40t86.5 22.5t97 10t110.5 1q222 0 405 -35l-16 -96q-228 12 -406 12q-35 0 -54.5 -0.5t-49 -2t-46 -4.5t-40.5 -9t-38 -15t-31.5 -21.5t-28 -30t-22 -39.5t-18.5 -50.5t-12 -63.5
q-12 -108 19.5 -159.5t136.5 -94.5l287 -110q157 -62 206.5 -146.5t28.5 -242.5q-11 -76 -31.5 -132.5t-53.5 -95t-72 -63t-97.5 -38t-119 -18t-146.5 -4.5q-221 0 -416 31l19 101q269 -13 407 -13q99 1 157.5 9t107 34t73.5 74.5t37 128.5q10 79 -1.5 124.5t-46.5 74.5
t-109 59z" />
    <glyph glyph-name="T" unicode="T" horiz-adv-x="1163" 
d="M1217 1294h-472l-182 -1294h-135l182 1294h-469l19 119h1073z" />
    <glyph glyph-name="U" unicode="U" horiz-adv-x="1361" 
d="M1298 1413l-124 -881q-43 -304 -172 -430.5t-394 -126.5q-272 0 -376 131t-62 433l123 874h135l-125 -881q-26 -162 -1.5 -259.5t95.5 -138t207 -40.5q205 0 303.5 100t132.5 345l123 874h135z" />
    <glyph glyph-name="V" unicode="V" horiz-adv-x="1226" 
d="M1300 1413l-643 -1376q-15 -37 -55 -37h-145q-19 0 -32.5 12.5t-16.5 30.5l-261 1370h138l202 -1157q2 -12 11.5 -68t13.5 -86h53q34 86 68 162l526 1149h141z" />
    <glyph glyph-name="W" unicode="W" horiz-adv-x="1918" 
d="M1970 1413l-512 -1374q-14 -39 -59 -39h-160q-21 0 -35 13t-16 34l-96 1106l-13 156h-47l-57 -162l-402 -1106q-15 -41 -59 -41h-160q-21 0 -36 13t-17 32l-129 1368h137l99 -1149q4 -50 8 -162h53l57 166l402 1102q16 43 59 43h154q20 0 33.5 -14t15.5 -35l104 -1100
q10 -140 11 -162h53l55 166l416 1145h141z" />
    <glyph glyph-name="X" unicode="X" horiz-adv-x="1232" 
d="M780 733l314 -733h-140l-284 684h-64l-477 -684h-156l523 735l-295 678h139l264 -625h66l446 625h150z" />
    <glyph glyph-name="Y" unicode="Y" horiz-adv-x="1134" 
d="M616 506l-69 -506h-135l71 510l-346 903h137l236 -631q28 -73 47 -151h14q28 60 88 157l412 625h148z" />
    <glyph glyph-name="Z" unicode="Z" horiz-adv-x="1144" 
d="M1153 1413l-18 -115l-955 -1183h803l-18 -115h-951l17 115l954 1183h-780l16 115h932z" />
    <glyph glyph-name="bracketleft" unicode="[" horiz-adv-x="653" 
d="M690 1483h-217q-12 0 -23 -10.5t-14 -22.5l-233 -1671q-3 -27 20 -27h223l-12 -90h-274q-43 0 -66.5 25t-17.5 71l241 1725q6 41 34 65.5t69 24.5h282z" />
    <glyph glyph-name="backslash" unicode="\" horiz-adv-x="1021" 
d="M866 -129h-106l-592 1542h106z" />
    <glyph glyph-name="bracketright" unicode="]" horiz-adv-x="653" 
d="M223 1573h275q41 0 65.5 -28t18.5 -68l-242 -1725q-6 -40 -34 -65t-68 -25h-283l12 90h215q12 0 24 10.5t15 22.5l236 1671q3 27 -23 27h-223z" />
    <glyph glyph-name="asciicircum" unicode="^" horiz-adv-x="847" 
d="M829 788l-59 -36l-244 362h-16l-354 -362l-54 39l375 419h94z" />
    <glyph glyph-name="underscore" unicode="_" horiz-adv-x="1204" 
d="M956 -102h-893l17 102h891z" />
    <glyph glyph-name="grave" unicode="`" horiz-adv-x="616" 
d="M580 1169l-52 -59l-342 268l76 92z" />
    <glyph glyph-name="a" unicode="a" horiz-adv-x="1167" 
d="M913 0h-100l18 223q-98 -113 -220 -180.5t-242 -67.5q-182 0 -237.5 120t-12.5 409q24 163 60.5 263.5t99.5 156.5t141 75t201 19q191 0 432 -41zM831 336l80 563q-218 8 -254 8q-78 0 -130 -5.5t-96 -23.5t-70.5 -45t-48.5 -76t-36 -109.5t-28 -153.5
q-25 -153 -19.5 -243t42 -125.5t118.5 -35.5q199 0 442 246z" />
    <glyph glyph-name="b" unicode="b" horiz-adv-x="1165" 
d="M301 760q113 113 234 184.5t227 71.5q70 0 119.5 -15.5t86 -52.5t51.5 -97.5t17.5 -151t-16.5 -212.5q-15 -110 -36.5 -191.5t-53 -138t-67 -92.5t-86.5 -55.5t-104 -27t-126 -7.5q-224 0 -461 68l197 1391h129l-60 -412q-22 -160 -51 -262zM303 664l-78 -560
q164 -20 279 -20q73 0 122.5 6.5t90.5 25t66 46t45.5 77t33.5 109t25 150.5q14 99 17 166t-4 114.5t-29 73.5t-54.5 37.5t-83.5 11.5q-160 0 -430 -237z" />
    <glyph glyph-name="c" unicode="c" horiz-adv-x="985" 
d="M821 111l10 -91q-145 -45 -325 -45q-258 0 -349.5 120.5t-50.5 406.5q40 285 159 400.5t370 115.5q183 0 303 -45l-23 -84q-109 16 -260 16q-102 0 -169.5 -18t-118.5 -65t-80 -126t-45 -204q-11 -83 -12.5 -144t9.5 -106.5t32.5 -74.5t58.5 -47t83.5 -25t112.5 -7
q170 0 295 23z" />
    <glyph glyph-name="d" unicode="d" horiz-adv-x="1165" 
d="M1114 1434l-203 -1434h-100l18 231q-103 -112 -228 -184t-255 -72q-161 0 -215.5 124t-13.5 405q18 131 46.5 221t66.5 148t95.5 89.5t122.5 43.5t160 12q136 0 322 -25q7 109 18 191l35 250h131zM831 338l76 563q-212 8 -256 8q-77 0 -128 -5.5t-94.5 -23.5t-70 -45
t-48.5 -76.5t-35.5 -110.5t-26.5 -154q-35 -223 -8.5 -313.5t139.5 -90.5q104 0 213.5 61.5t238.5 186.5z" />
    <glyph glyph-name="e" unicode="e" horiz-adv-x="1091" 
d="M885 113l10 -88q-66 -23 -184.5 -36.5t-214.5 -13.5q-251 0 -339 126.5t-48 412.5q21 153 59.5 250t104.5 154t152 78.5t216 21.5q216 0 302 -74.5t54 -238.5q-27 -134 -108 -192t-252 -73l-408 -39q-7 -95 7 -157t52.5 -96.5t93 -48t138.5 -13.5q140 0 365 27zM242 502
l395 39q113 12 162 48t67 126q7 33 8 59t-5 45.5t-15.5 33.5t-27 24t-36 16t-46 9t-53 4t-60.5 1q-98 0 -157.5 -14t-107.5 -57t-76 -120t-48 -206v-8z" />
    <glyph glyph-name="f" unicode="f" horiz-adv-x="753" 
d="M883 1358h-209q-109 0 -159.5 -42t-65.5 -151l-25 -174h336l-17 -102h-333l-144 -1024q-21 -141 -93.5 -212t-207.5 -71q-97 0 -217 12l19 97h157q103 0 150.5 41.5t62.5 150.5l142 1006h-179l13 92l180 10l29 193q19 141 94 211.5t217 70.5q154 0 268 -12z" />
    <glyph glyph-name="g" unicode="g" horiz-adv-x="1173" 
d="M1063 977l-145 -969q-27 -206 -156 -321.5t-369 -124.5q-66 -4 -175 0.5t-183 21.5l14 88q174 -7 340 0q343 20 397 316q34 196 74 268q-101 -128 -232.5 -204.5t-262.5 -76.5q-115 0 -177 50.5t-81.5 168t12.5 310.5q17 109 38.5 189.5t53 137.5t68 93.5t88.5 57
t108.5 28.5t134.5 8q202 0 443 -41h10zM836 338l84 561q-222 8 -265 8q-77 0 -128 -5.5t-94.5 -23.5t-69.5 -45t-48.5 -76t-36.5 -109.5t-28 -153.5q-25 -152 -19.5 -242t42 -126t118.5 -36q200 0 445 248z" />
    <glyph glyph-name="h" unicode="h" horiz-adv-x="1175" 
d="M416 1434l-56 -416q-16 -113 -47 -248q142 123 260.5 185.5t225.5 62.5q130 0 192 -71.5t43 -205.5l-106 -741h-129l100 715q15 104 -17 147t-120 43q-94 0 -197.5 -57.5t-257.5 -183.5l-92 -664h-131l203 1434h129z" />
    <glyph glyph-name="i" unicode="i" horiz-adv-x="483" 
d="M324 1409h59q21 0 31.5 -12t7.5 -33l-16 -121q-3 -22 -13.5 -30.5t-32.5 -8.5h-59q-47 0 -41 45l19 121q2 21 12 30t33 9zM223 0h-129l139 991h129z" />
    <glyph glyph-name="j" unicode="j" horiz-adv-x="483" 
d="M324 1409h59q21 0 31.5 -12t7.5 -33l-16 -121q-3 -22 -13.5 -30.5t-32.5 -8.5h-59q-47 0 -41 45l19 121q2 21 12 30t33 9zM362 991l-147 -1044q-30 -223 -219 -369l-70 60q69 74 108 148.5t52 168.5l147 1036h129z" />
    <glyph glyph-name="k" unicode="k" horiz-adv-x="1042" 
d="M860 991h133q-99 -273 -358 -442q37 -65 57 -111l205 -438h-139l-223 489q-86 -45 -267 -116l-53 -373h-129l201 1434h131l-101 -732q-13 -100 -51 -219q219 83 376.5 214t217.5 294z" />
    <glyph glyph-name="l" unicode="l" horiz-adv-x="579" 
d="M418 1434l-166 -1190q-12 -73 17.5 -107.5t103.5 -34.5h106l6 -98q-50 -20 -163 -20q-108 0 -163 63.5t-40 177.5l170 1209h129z" />
    <glyph glyph-name="m" unicode="m" horiz-adv-x="1789" 
d="M324 991l-19 -223q131 127 237.5 188.5t207.5 61.5q120 0 180.5 -62t54.5 -176q126 121 229 179.5t201 58.5q131 0 191 -73t41 -204l-105 -741h-129l103 715q13 103 -23 146.5t-123 43.5q-81 0 -166 -52.5t-233 -186.5l-94 -666h-125l100 715q14 101 -19.5 145.5
t-125.5 44.5q-83 0 -168.5 -53t-231.5 -184l-94 -668h-129l141 991h99z" />
    <glyph glyph-name="n" unicode="n" horiz-adv-x="1175" 
d="M328 991l-21 -225q143 126 263 189t229 63q130 0 192 -71.5t43 -205.5l-106 -741h-129l100 715q15 104 -17 147t-120 43q-94 0 -197 -56.5t-258 -180.5l-92 -668h-131l141 991h103z" />
    <glyph glyph-name="o" unicode="o" horiz-adv-x="1150" 
d="M627 1018q249 0 339.5 -121.5t49.5 -407.5q-40 -284 -156.5 -399t-361.5 -115q-249 0 -340 120t-52 407q38 283 155 399.5t366 116.5zM627 905q-123 0 -197.5 -37t-119.5 -127t-68 -252q-26 -152 -6.5 -241.5t80 -125.5t182.5 -36q182 0 266.5 90.5t118.5 325.5
q25 153 5 242.5t-80 125t-181 35.5z" />
    <glyph glyph-name="p" unicode="p" horiz-adv-x="1169" 
d="M328 991l-21 -231q103 109 234 182.5t233 73.5q180 0 234.5 -117.5t13.5 -411.5q-16 -109 -37.5 -188.5t-53 -137t-68 -93.5t-89.5 -57t-110.5 -28.5t-137.5 -7.5q-145 0 -319 23q-3 -88 -17 -191l-36 -235h-129l200 1419h103zM307 655l-78 -565q163 -6 254 -6
q78 0 129.5 5.5t95.5 23.5t70.5 45t49 76t36.5 110t27 154q24 153 18.5 242.5t-41.5 125t-118 35.5q-83 0 -204.5 -65t-238.5 -181z" />
    <glyph glyph-name="q" unicode="q" horiz-adv-x="1161" 
d="M1047 948l-197 -1376h-129l61 405q21 155 58 265q-111 -124 -227.5 -195.5t-250.5 -71.5q-64 0 -110 15.5t-81.5 52.5t-51.5 97.5t-19.5 151t15.5 212.5q15 110 36.5 191t52.5 138t66 93t85.5 56.5t103 28t125.5 7.5q219 0 463 -70zM831 338l76 549q-141 20 -278 20
q-71 0 -119.5 -6t-89.5 -24t-66.5 -45.5t-46.5 -76t-34 -109.5t-25 -152q-23 -151 -16.5 -241t44 -126.5t121.5 -36.5q104 0 197 55.5t237 192.5z" />
    <glyph glyph-name="r" unicode="r" horiz-adv-x="804" 
d="M825 1018l-32 -123h-48q-87 0 -183 -54.5t-255 -178.5l-92 -662h-131l141 991h99l-19 -233q273 260 473 260h47z" />
    <glyph glyph-name="s" unicode="s" horiz-adv-x="1030" 
d="M612 391l-295 123q-109 47 -154.5 105t-31.5 169q9 59 31 100.5t54 67.5t82.5 40t107 18.5t135.5 3.5q204 -3 405 -31l-16 -92q-187 9 -385 12q-68 1 -104.5 -0.5t-74.5 -8t-56.5 -20.5t-32.5 -38t-19 -62q-10 -69 18.5 -101.5t106.5 -64.5l297 -123q79 -33 121 -63.5
t62.5 -81.5t10.5 -127q-7 -47 -21.5 -83t-35 -61.5t-52 -43.5t-64 -28.5t-80.5 -16t-92 -7.5t-107 -2q-33 0 -61 0.5t-57 2t-47 3t-49.5 5l-45 5t-54 6.5t-57.5 7l17 96q127 -14 329 -14q196 3 266 30t82 113q3 17 2.5 31t-2 25t-7.5 21.5t-10.5 18t-16 16t-19 13.5
t-24 12.5t-26.5 12t-30 12.5z" />
    <glyph glyph-name="t" unicode="t" horiz-adv-x="747" 
d="M403 889l-90 -645q-10 -75 19 -108.5t104 -33.5h164l6 -98q-90 -20 -207 -20q-123 0 -177.5 64.5t-37.5 184.5l92 656h-182l12 92l185 10l43 301h127l-41 -301h334l-17 -102h-334z" />
    <glyph glyph-name="u" unicode="u" 
d="M1040 991l-139 -991h-100l20 231q-133 -130 -247.5 -193t-225.5 -63q-134 0 -194 71.5t-41 203.5l104 741h131l-102 -712q-15 -101 19 -146t124 -45q94 0 189 58.5t243 193.5l90 651h129z" />
    <glyph glyph-name="v" unicode="v" horiz-adv-x="1067" 
d="M901 991h135q-69 -312 -211 -588q-127 -236 -196 -319q-33 -46 -68.5 -65t-93.5 -19h-119q-18 0 -31 10.5t-16 26.5l-199 954h136l168 -887h34q36 0 57.5 11.5t47.5 44.5q76 100 172 297q129 257 184 534z" />
    <glyph glyph-name="w" unicode="w" horiz-adv-x="1714" 
d="M389 104h27q26 0 45.5 12.5t42.5 49.5q64 98 137 293q78 212 137 499q1 17 12.5 26t26.5 7h141q15 0 25.5 -9.5t13.5 -23.5l113 -854h25q44 0 82 58q105 158 161 297q99 217 160 532h135q-77 -337 -194 -588q-108 -224 -189 -323q-33 -42 -65.5 -61t-81.5 -19h-88
q-18 0 -30.5 11t-14.5 26l-113 866h-23q-13 -88 -48 -224.5t-78 -252.5q-32 -89 -78.5 -183t-83.5 -145q-58 -98 -174 -98h-80q-18 0 -30 10.5t-15 26.5l-185 954h134z" />
    <glyph glyph-name="x" unicode="x" horiz-adv-x="1058" 
d="M647 514l275 -514h-134l-243 465h-53l-373 -465h-150l422 516l-254 475h133l219 -422h60l344 422h143z" />
    <glyph glyph-name="y" unicode="y" horiz-adv-x="1083" 
d="M911 991h136q-116 -474 -332 -841q-159 -277 -299 -408t-318 -166l-22 90q118 33 215.5 111t195.5 223h-84q-41 0 -70.5 24t-37.5 62l-197 905h138l170 -844q10 -43 51 -43h96l47 82q111 197 183 384t128 421z" />
    <glyph glyph-name="z" unicode="z" horiz-adv-x="1017" 
d="M954 885l-770 -776h666l-14 -109h-820l13 109l770 776h-652l15 106h807z" />
    <glyph glyph-name="braceleft" unicode="{" horiz-adv-x="636" 
d="M680 1573l-6 -84q-109 0 -160.5 -46.5t-67.5 -148.5l-53 -385q-17 -125 -56.5 -170t-148.5 -67q100 -36 130.5 -83.5t15.5 -152.5l-70 -502q-14 -102 21 -145t145 -43l-6 -84q-167 -9 -236 59t-47 211l74 535q7 51 -3.5 79.5t-28 39.5t-69.5 31q-3 2 -4.5 2.5l-4.5 1.5
t-5 2l15 102q5 1 13 4q72 21 92 38q31 26 44 111q1 6 2 13l60 418q21 145 102.5 209.5t251.5 54.5z" />
    <glyph glyph-name="bar" unicode="|" horiz-adv-x="493" 
d="M162 -346h-96l272 1945h98z" />
    <glyph glyph-name="braceright" unicode="}" horiz-adv-x="636" 
d="M217 1489l6 84q328 20 285 -270l-59 -418q-11 -89 4.5 -112.5t83.5 -45.5q4 -1 6 -2t5.5 -2t6.5 -2l-14 -103q-83 -30 -105 -45q-43 -32 -53 -112l-76 -535q-21 -146 -100.5 -209.5t-251.5 -54.5l6 84q109 0 159 46t64 147l70 503q17 107 58 151.5t155 78.5
q-99 22 -128 71t-9 172l53 385q14 103 -20.5 146t-145.5 43z" />
    <glyph glyph-name="asciitilde" unicode="~" horiz-adv-x="1077" 
d="M215 473l-70 6q6 112 55.5 168t123.5 51q68 -3 140 -32.5t141 -59.5t126 -35q59 -4 87.5 24.5t39.5 96.5l70 -6q-4 -107 -54 -163t-124 -50q-61 3 -122 21.5t-102 40t-91.5 41t-92.5 22.5q-59 6 -88.5 -24.5t-38.5 -100.5z" />
    <glyph glyph-name="uni00A0" unicode="&#xa0;" horiz-adv-x="462" 
 />
    <glyph glyph-name="exclamdown" unicode="&#xa1;" horiz-adv-x="503" 
d="M289 999h37q54 0 45 -53l-17 -115q-6 -49 -55 -49h-35q-53 0 -47 52l16 118q6 47 56 47zM264 229l-88 -637h-131l90 637l62 344h104z" />
    <glyph glyph-name="cent" unicode="&#xa2;" horiz-adv-x="1032" 
d="M969 1190l-23 -82q-119 14 -223 14l-176 -817h10q154 0 295 23l10 -90q-152 -45 -325 -45h-19l-43 -193h-72l46 197q-205 19 -277 140.5t-35 383.5q41 284 159.5 399t369.5 115h14l39 178h72l-41 -182q134 -7 219 -41zM475 307l176 815q-122 -4 -195.5 -41t-118.5 -125
t-65 -245q-22 -142 -6 -229t65 -126.5t144 -48.5z" />
    <glyph glyph-name="sterling" unicode="&#xa3;" horiz-adv-x="1155" 
d="M1112 1415l-16 -104q-188 10 -355 10q-139 0 -201.5 -56.5t-74.5 -195.5l-25 -283h465l-16 -84h-455l-16 -176q-13 -152 -59 -251t-146 -164q41 4 127 4h641l-16 -115h-918l16 117q109 55 160 157t64 252l16 176h-166l13 84h159l27 289q9 95 34 161t58.5 105t88.5 60.5
t109 28t134 6.5q146 0 352 -21z" />
    <glyph glyph-name="currency" unicode="&#xa4;" horiz-adv-x="1222" 
d="M1130 1116l-159 -141q71 -106 53 -260q-15 -148 -111 -256l142 -160l-64 -55l-139 159q-112 -79 -264 -79q-154 0 -252 88l-160 -142l-57 64l162 141q-68 107 -50 252q18 160 115 264l-137 158l61 59l142 -161q106 73 256 73q149 0 247 -82l160 144zM582 403
q148 -4 246.5 85t113.5 239q14 139 -59 226t-215 87q-150 0 -245 -88.5t-110 -236.5q-14 -139 59 -224t210 -88z" />
    <glyph glyph-name="yen" unicode="&#xa5;" horiz-adv-x="1249" 
d="M756 649h317l-12 -82h-363l-20 -30l-16 -117h378l-12 -82h-377l-47 -338h-135l47 338h-371l13 82h370l17 123l-10 24h-357l10 82h314l-307 764h137l235 -598q39 -102 51 -151h17q41 84 90 155l401 594h150z" />
    <glyph glyph-name="brokenbar" unicode="&#xa6;" horiz-adv-x="493" 
d="M322 780h-99l115 819h98zM164 -346h-98l114 819h99z" />
    <glyph glyph-name="section" unicode="&#xa7;" horiz-adv-x="1114" 
d="M725 670l-336 211q-105 65 -146 135t-24 180q9 62 32 105.5t56 70.5t85 42t108 20t135 4q238 0 446 -25l-18 -100q-186 12 -399 14q-52 1 -86 -0.5t-70.5 -6t-59.5 -14t-44 -25.5t-32.5 -40.5t-17.5 -58.5q-10 -73 19 -119.5t92 -85.5l330 -203q67 -41 103.5 -88.5
t46 -107t0.5 -123.5t-36 -152l-98 2q22 97 24 159t-23.5 115t-86.5 91zM197 813l96 -2q-17 -74 -22 -121.5t1.5 -92.5t32 -78t72.5 -62l340 -211q102 -62 143 -133.5t25 -184.5q-10 -67 -36 -113.5t-59 -72.5t-87.5 -39.5t-105 -17t-128.5 -2.5q-238 4 -446 24l18 100
q200 -11 399 -14q48 -1 79 0t68.5 5.5t61 14.5t46.5 26.5t36 43t19 62.5q10 74 -20 121.5t-91 85.5l-326 196q-67 40 -104.5 86t-47.5 104.5t-1 122t37 152.5z" />
    <glyph glyph-name="dieresis" unicode="&#xa8;" horiz-adv-x="833" 
d="M350 1409h41q23 0 30.5 -9.5t4.5 -31.5l-16 -111q-3 -22 -13 -31t-32 -9h-41q-40 0 -37 38l16 113q6 41 47 41zM702 1409h39q24 0 32 -9.5t5 -31.5l-18 -111q-1 -22 -11 -31t-32 -9h-43q-41 0 -35 38l16 113q6 41 47 41z" />
    <glyph glyph-name="copyright" unicode="&#xa9;" horiz-adv-x="1724" 
d="M965 1438q157 0 287 -53.5t216.5 -149t125 -234t16.5 -301.5q-27 -209 -134 -372.5t-286 -258t-402 -94.5q-213 0 -369.5 94t-229 262.5t-44.5 381.5q20 155 87 288t171 230t249 152t313 55zM969 1366q-202 0 -364.5 -86.5t-261 -236.5t-124.5 -343q-18 -146 16.5 -269
t111 -207t189.5 -130.5t250 -46.5q201 0 363.5 86t261.5 236.5t123 343.5q38 289 -121 471t-444 182zM1120 356l6 -75q-139 -29 -284 -29q-233 0 -310.5 103t-42.5 362q35 255 138.5 354.5t328.5 99.5q149 0 265 -26l-17 -74q-108 10 -237 10q-95 0 -156 -16t-106.5 -58.5
t-71 -113.5t-41.5 -186q-29 -206 21.5 -284.5t213.5 -78.5q190 0 293 12z" />
    <glyph glyph-name="ordfeminine" unicode="&#xaa;" horiz-adv-x="911" 
d="M739 553h-80l9 135q-60 -67 -138 -108t-159 -41q-50 0 -85 9.5t-64 33t-41.5 64t-17 102t10.5 147.5q10 74 26.5 130t41 93.5t52 61.5t66 37t76.5 17.5t90 4.5q138 0 305 -29zM672 778l53 371q-144 4 -168 4q-61 0 -98.5 -5t-71.5 -20t-53.5 -45t-34.5 -77t-25 -119
q-9 -82 -11 -132.5t14.5 -78t40.5 -36.5t69 -9q61 0 135 38t150 109z" />
    <glyph glyph-name="guillemotleft" unicode="&#xab;" horiz-adv-x="958" 
d="M524 887l-329 -375l231 -381l-66 -45l-280 418l4 33l385 399zM879 887l-330 -375l231 -381l-65 -45l-281 418l4 33l385 399z" />
    <glyph glyph-name="logicalnot" unicode="&#xac;" horiz-adv-x="1204" 
d="M1049 659l-56 -385h-104l41 283h-778l14 102h883z" />
    <glyph glyph-name="softhyphen" unicode="&#xad;" horiz-adv-x="940" 
d="M764 465h-627l13 102h628z" />
    <glyph glyph-name="registered" unicode="&#xae;" horiz-adv-x="1155" 
d="M672 1436q205 0 321 -124t92 -335q-25 -203 -158 -328t-335 -125q-208 0 -324.5 130.5t-91.5 338.5q23 206 159 324.5t337 118.5zM1034 987q20 189 -79 295.5t-283 106.5q-191 0 -307.5 -111t-137.5 -293q-21 -191 81.5 -301.5t283.5 -110.5q185 0 303 114.5t139 299.5z
M383 709l78 546q89 7 211 7q56 0 91 -5t65.5 -21t41.5 -49t4 -85q-7 -65 -37.5 -96t-95.5 -43l-2 -5q22 -8 35.5 -25.5t22.5 -53.5l45 -170h-70l-41 172q-9 34 -28 47.5t-52 13.5h-168l-34 -233h-66zM489 991h156q84 2 119.5 24t44.5 93q9 66 -19.5 84t-115.5 18h-154z" />
    <glyph glyph-name="macron" unicode="&#xaf;" horiz-adv-x="819" 
d="M795 1260h-557l14 100h557z" />
    <glyph glyph-name="degree" unicode="&#xb0;" horiz-adv-x="757" 
d="M479 1438q118 0 185 -74.5t55 -187.5q-10 -114 -90.5 -184t-192.5 -70q-120 0 -183 77.5t-54 188.5q10 112 89 181t191 69zM477 1358q-78 0 -131 -49t-61 -127t35.5 -128t119.5 -50q77 0 131.5 48.5t61.5 129.5q8 78 -34.5 127t-121.5 49z" />
    <glyph glyph-name="plusminus" unicode="&#xb1;" horiz-adv-x="1206" 
d="M1069 776l-14 -100h-389l-41 -283h-101l39 283h-391l14 100h389l39 283h105l-39 -283h389zM115 260h882l-16 -100h-881z" />
    <glyph glyph-name="twosuperior" unicode="&#xb2;" horiz-adv-x="860" 
d="M274 1487l-4 82q143 30 277 30q67 0 114 -7.5t84 -27.5t52 -57.5t8 -93.5q-9 -78 -54 -144.5t-151 -162.5l-307 -275q79 7 143 7h322l-13 -101h-595l8 68q4 31 18 45l316 280q102 91 152 158.5t56 128.5q3 30 -6 48.5t-32.5 27.5t-50 11.5t-70.5 2.5q-123 0 -267 -20z
" />
    <glyph glyph-name="threesuperior" unicode="&#xb3;" horiz-adv-x="823" 
d="M281 1497l-7 82q134 20 252 20q150 0 209.5 -48t48.5 -150q-6 -51 -21.5 -94t-52.5 -79t-89 -42l-3 -6q162 -23 134 -211q-15 -106 -94.5 -173t-243.5 -73q-123 -6 -267 20l15 82q159 -14 244 -10q218 14 243 174q12 70 -23 112t-139 42h-172l11 80l168 2q54 1 91 14
t57 37.5t29 49t13 58.5q9 75 -25.5 100t-152.5 25q-99 0 -225 -12z" />
    <glyph glyph-name="acute" unicode="&#xb4;" horiz-adv-x="616" 
d="M651 1372l-397 -262l-45 61l377 302z" />
    <glyph glyph-name="paragraph" unicode="&#xb6;" horiz-adv-x="1214" 
d="M924 0h-105l189 1335q-133 13 -238 13l-250 -1778h-104l119 842q-245 26 -340.5 157t-59.5 377q21 145 66.5 239.5t129 151t197 79t281.5 22.5q170 0 313 -35z" />
    <glyph glyph-name="periodcentered" unicode="&#xb7;" horiz-adv-x="456" 
d="M209 637h45q54 0 45 -53l-16 -119q-6 -47 -54 -47h-45q-53 0 -47 53l19 119q6 47 53 47z" />
    <glyph glyph-name="cedilla" unicode="&#xb8;" horiz-adv-x="466" 
d="M90 -156l16 64q110 9 157 -22.5t32 -116.5q-19 -120 -116.5 -185.5t-235.5 -46.5l24 72q90 -3 155 44t77 118q6 43 -15.5 57t-93.5 16z" />
    <glyph glyph-name="onesuperior" unicode="&#xb9;" horiz-adv-x="581" 
d="M436 737h-104l98 678q8 47 14 74l-241 -68l-2 78l250 86h106z" />
    <glyph glyph-name="ordmasculine" unicode="&#xba;" horiz-adv-x="907" 
d="M532 1239q182 0 246.5 -80.5t36.5 -275.5q-26 -189 -108.5 -266.5t-255.5 -77.5q-178 0 -243.5 81t-37.5 275q26 190 107 267t255 77zM535 1155q-128 0 -184 -58t-79 -214q-20 -150 18.5 -204t160.5 -54q125 0 181.5 58t78.5 212q20 150 -17 205t-159 55z" />
    <glyph glyph-name="guillemotright" unicode="&#xbb;" horiz-adv-x="958" 
d="M55 133l330 373l-231 383l65 43l279 -418l-2 -31l-387 -401zM410 133l329 373l-231 383l65 43l279 -418l-2 -31l-387 -401z" />
    <glyph glyph-name="onequarter" unicode="&#xbc;" horiz-adv-x="1738" 
d="M1417 1413l-1138 -1413h-101l1139 1413h100zM186 1253l-2 72l256 88h105l-119 -848h-104l96 682q10 63 14 76zM1599 223l-102 -8l-29 -215h-98l29 213h-420q-50 0 -71.5 35.5t7.5 87.5l349 512h104l-340 -506q-13 -19 -5.5 -33t32.5 -14h356l35 252l39 139h80l-56 -391
h101z" />
    <glyph glyph-name="onehalf" unicode="&#xbd;" horiz-adv-x="1785" 
d="M268 0h-100l1139 1413h100zM424 565h-105l97 682q8 48 16 76l-246 -70l-4 72l258 88h103zM1104 754l-6 77q155 31 282 31q63 0 107 -4.5t82 -16.5t58.5 -33.5t28.5 -55.5t1 -82q-9 -70 -59 -140t-154 -163l-326 -277q102 4 150 2h348l-14 -92h-625l8 61q3 27 21 45
l325 281q103 91 154.5 158.5t60.5 130.5q8 62 -31.5 80t-134.5 18q-127 0 -276 -20z" />
    <glyph glyph-name="threequarters" unicode="&#xbe;" horiz-adv-x="1929" 
d="M602 1014l-10 -4q93 -13 127 -68t24 -151q-15 -130 -89.5 -187t-237.5 -57q-113 0 -297 20l10 78q135 -12 260 -12q121 0 179 41.5t71 140.5q7 30 1.5 57.5t-21 48.5t-54 33.5t-98.5 12.5h-178l10 75l172 2q58 1 99.5 16.5t62.5 41.5t30.5 51.5t12.5 56.5
q10 76 -27 101.5t-153 25.5q-138 0 -248 -10l-4 76q134 20 260 20q170 0 231.5 -43.5t44.5 -156.5q-12 -88 -52.5 -142t-125.5 -67zM1630 1413l-1138 -1413h-101l1139 1413h100zM1788 223l-113 -10l-28 -213h-99l29 213h-408q-52 0 -73 35.5t10 87.5l348 512h102l-339 -506
q-13 -19 -5.5 -33t31.5 -14h346l35 252l39 139h80l-55 -391h112z" />
    <glyph glyph-name="questiondown" unicode="&#xbf;" horiz-adv-x="1013" 
d="M563 1016h37q53 0 47 -53l-16 -117q-3 -26 -15.5 -37.5t-37.5 -11.5h-37q-54 0 -45 53l16 119q3 25 14.5 36t36.5 11zM469 590l111 -4q-10 -77 -38.5 -144.5t-66 -116.5t-81.5 -93.5t-88 -83.5t-81 -77.5t-63.5 -85.5t-34.5 -98q-19 -113 42.5 -165t213.5 -52
q227 0 412 23l6 -94q-18 -3 -63.5 -11t-63 -10.5t-58 -7.5t-71.5 -7t-79.5 -3.5t-105.5 -1.5q-203 0 -297.5 84.5t-72.5 238.5q8 62 36 116.5t67 97t85 83.5t92.5 83.5t86.5 88.5t70.5 108t41.5 132z" />
    <glyph glyph-name="Agrave" unicode="&#xc0;" horiz-adv-x="1253" 
d="M807 1497l-342 266l76 95l317 -302zM924 467h-617l-219 -467h-143l665 1378q14 35 56 35h153q19 0 33.5 -12t15.5 -29l281 -1372h-135zM901 586l-117 604q-3 21 -9 60t-9 59h-61q-35 -76 -56 -119l-284 -604h536z" />
    <glyph glyph-name="Aacute" unicode="&#xc1;" horiz-adv-x="1253" 
d="M690 1497l-45 62l375 301l67 -101zM924 467h-617l-219 -467h-143l665 1378q14 35 56 35h153q19 0 33.5 -12t15.5 -29l281 -1372h-135zM901 586l-117 604q-3 21 -9 60t-9 59h-61q-35 -76 -56 -119l-284 -604h536z" />
    <glyph glyph-name="Acircumflex" unicode="&#xc2;" horiz-adv-x="1253" 
d="M487 1511l-38 60l305 252h94l252 -260l-51 -54l-242 209h-19zM924 467h-617l-219 -467h-143l665 1378q14 35 56 35h153q19 0 33.5 -12t15.5 -29l281 -1372h-135zM901 586l-117 604q-3 21 -9 60t-9 59h-61q-35 -76 -56 -119l-284 -604h536z" />
    <glyph glyph-name="Atilde" unicode="&#xc3;" horiz-adv-x="1253" 
d="M1049 1784l63 -6q-4 -103 -53.5 -157t-124.5 -48q-48 3 -90.5 22t-68.5 39.5t-59.5 39.5t-64.5 22q-60 6 -91 -24.5t-40 -98.5l-63 6q6 109 56 164t124 49q43 -3 82 -21.5t64 -39t61.5 -39.5t73.5 -23q61 -6 91.5 22t39.5 93zM924 467h-617l-219 -467h-143l665 1378
q14 35 56 35h153q19 0 33.5 -12t15.5 -29l281 -1372h-135zM901 586l-117 604q-3 21 -9 60t-9 59h-61q-35 -76 -56 -119l-284 -604h536z" />
    <glyph glyph-name="Adieresis" unicode="&#xc4;" horiz-adv-x="1253" 
d="M616 1579h-43q-39 0 -34 39l16 113q6 41 47 41h39q24 0 32 -9.5t5 -31.5l-19 -111q-2 -22 -11.5 -31.5t-31.5 -9.5zM969 1579h-43q-40 0 -35 39l16 113q3 22 13 31.5t32 9.5h41q24 0 32 -9.5t5 -31.5l-18 -111q-2 -22 -11.5 -31.5t-31.5 -9.5zM924 467h-617l-219 -467
h-143l665 1378q14 35 56 35h153q19 0 33.5 -12t15.5 -29l281 -1372h-135zM901 586l-117 604q-3 21 -9 60t-9 59h-61q-35 -76 -56 -119l-284 -604h536z" />
    <glyph glyph-name="Aring" unicode="&#xc5;" horiz-adv-x="1253" 
d="M770 1466q-95 0 -151.5 61t-45.5 152q9 85 71.5 144t154.5 59q94 0 150 -61.5t46 -153.5q-11 -84 -72.5 -142.5t-152.5 -58.5zM651 1673q-6 -61 27.5 -98t91.5 -37q59 0 100.5 40t47.5 99q6 58 -26.5 95.5t-92.5 37.5t-101 -39.5t-47 -97.5zM924 467h-617l-219 -467h-143
l665 1378q14 35 56 35h153q19 0 33.5 -12t15.5 -29l281 -1372h-135zM901 586l-117 604q-3 21 -9 60t-9 59h-61q-35 -76 -56 -119l-284 -604h536z" />
    <glyph glyph-name="AE" unicode="&#xc6;" horiz-adv-x="1861" 
d="M1849 1300h-532q-70 0 -115 -38.5t-55 -112.5l-49 -346h598l-13 -107h-600l-59 -436q-10 -72 21 -109.5t102 -37.5h536l-6 -103q-223 -12 -555 -12q-118 0 -182 70.5t-45 187.5l33 238h-490l-370 -494h-146l912 1210q90 121 185 162t255 41q382 0 592 -10zM944 608
l78 559q6 45 32 88t58 60h-8q-77 -36 -154 -137l-424 -570h418z" />
    <glyph glyph-name="Ccedilla" unicode="&#xc7;" 
d="M993 119l11 -101q-165 -43 -406 -43q-298 0 -400.5 171t-45.5 567q28 204 74 339.5t122 223t181.5 125t256.5 37.5q127 0 207 -9t168 -30l-24 -101q-159 19 -351 19q-119 0 -199 -28.5t-139.5 -101t-96 -188.5t-62.5 -299q-19 -139 -20 -238t16 -171t58 -114t102.5 -61.5
t152.5 -19.5q212 -2 395 23zM469 -180l14 63q110 9 157 -22.5t34 -116.5q-20 -120 -117.5 -185t-234.5 -46l24 71q89 -3 154.5 44t77.5 118q6 43 -15.5 58t-93.5 16z" />
    <glyph glyph-name="Egrave" unicode="&#xc8;" horiz-adv-x="1136" 
d="M805 1542l-342 268l76 93l317 -301zM1120 1300h-569q-146 0 -164 -151l-49 -348h633l-15 -105h-632l-60 -438q-21 -145 123 -145h565v-103q-188 -12 -583 -12q-130 0 -193.5 69.5t-48.5 188.5l131 930q14 106 85 167.5t189 61.5q417 0 607 -12z" />
    <glyph glyph-name="Eacute" unicode="&#xc9;" horiz-adv-x="1136" 
d="M686 1542l-45 62l377 301l65 -101zM1120 1300h-569q-146 0 -164 -151l-49 -348h633l-15 -105h-632l-60 -438q-21 -145 123 -145h565v-103q-188 -12 -583 -12q-130 0 -193.5 69.5t-48.5 188.5l131 930q14 106 85 167.5t189 61.5q417 0 607 -12z" />
    <glyph glyph-name="Ecircumflex" unicode="&#xca;" horiz-adv-x="1136" 
d="M485 1556l-41 60l308 254h92l252 -260l-49 -54l-242 207h-19zM1120 1300h-569q-146 0 -164 -151l-49 -348h633l-15 -105h-632l-60 -438q-21 -145 123 -145h565v-103q-188 -12 -583 -12q-130 0 -193.5 69.5t-48.5 188.5l131 930q14 106 85 167.5t189 61.5q417 0 607 -12z
" />
    <glyph glyph-name="Edieresis" unicode="&#xcb;" horiz-adv-x="1136" 
d="M614 1624h-43q-21 0 -29 9t-5 30l16 113q3 22 13 31.5t32 9.5h41q24 0 32 -9.5t5 -31.5l-19 -111q-3 -41 -43 -41zM967 1624h-43q-21 0 -29.5 9t-7.5 30l18 113q3 22 13 31.5t32 9.5h41q24 0 31 -9t4 -32l-16 -111q-3 -41 -43 -41zM1120 1300h-569q-146 0 -164 -151
l-49 -348h633l-15 -105h-632l-60 -438q-21 -145 123 -145h565v-103q-188 -12 -583 -12q-130 0 -193.5 69.5t-48.5 188.5l131 930q14 106 85 167.5t189 61.5q417 0 607 -12z" />
    <glyph glyph-name="Igrave" unicode="&#xcc;" horiz-adv-x="512" 
d="M481 1556l-51 -59l-342 266l76 95zM240 0h-136l199 1413h135z" />
    <glyph glyph-name="Iacute" unicode="&#xcd;" horiz-adv-x="512" 
d="M711 1759l-400 -262l-45 62l377 301zM240 0h-136l199 1413h135z" />
    <glyph glyph-name="Icircumflex" unicode="&#xce;" horiz-adv-x="512" 
d="M721 1563l-49 -54l-242 209h-18l-301 -207l-39 60l305 252h92zM240 0h-136l199 1413h135z" />
    <glyph glyph-name="Idieresis" unicode="&#xcf;" horiz-adv-x="512" 
d="M223 1772h41q24 0 32 -9.5t5 -31.5l-18 -111q-2 -22 -11.5 -31.5t-31.5 -9.5h-43q-40 0 -35 39l16 113q3 22 13 31.5t32 9.5zM575 1772h41q24 0 32 -9.5t5 -31.5l-18 -111q-3 -41 -43 -41h-43q-21 0 -29.5 9t-7.5 30l18 113q3 22 13 31.5t32 9.5zM240 0h-136l199 1413
h135z" />
    <glyph glyph-name="Eth" unicode="&#xd0;" horiz-adv-x="1353" 
d="M217 795l86 618q264 19 465 19q126 0 214.5 -24t150 -77t89 -138t32 -207.5t-20.5 -285.5q-21 -148 -49 -257t-69 -189.5t-90.5 -132.5t-118.5 -83t-147.5 -43.5t-183.5 -12.5q-210 0 -471 18l101 715h-148l11 80h149zM340 715l-86 -611q204 -4 319 -4q102 0 174 17
t130.5 56.5t98 111t68.5 174.5t50 254q21 145 22 245.5t-17 171.5t-62.5 110.5t-109 57t-161.5 17.5q-24 0 -342 -6l-74 -514h336l-12 -80h-334z" />
    <glyph glyph-name="Ntilde" unicode="&#xd1;" horiz-adv-x="1429" 
d="M618 1573l-65 6q7 109 57 164t125 49q43 -3 82 -21.5t64 -39t61.5 -39.5t73.5 -23q60 -6 91 22.5t40 92.5l63 -6q-4 -103 -53.5 -157t-124.5 -48q-48 3 -90.5 22t-68.5 39.5t-59 39.5t-64 22q-60 6 -91.5 -24.5t-40.5 -98.5zM1356 1413l-193 -1360q-6 -53 -59 -53h-135
q-42 0 -60 47l-401 1075q-44 126 -55 166h-41q-5 -74 -19 -176l-153 -1112h-136l191 1360q5 28 19 40.5t42 12.5h129q47 0 62 -47l391 -1049q57 -163 66 -192h45q6 62 22 197l152 1091h133z" />
    <glyph glyph-name="Ograve" unicode="&#xd2;" horiz-adv-x="1359" 
d="M911 1556l-51 -59l-342 266l76 95zM791 1438q119 0 204 -24.5t145 -78.5t87.5 -140t32.5 -209t-21 -286q-37 -274 -111 -430.5t-198.5 -225.5t-325.5 -69q-119 0 -203.5 24t-145.5 77.5t-89 139.5t-33.5 209.5t19.5 287.5q28 204 74 339.5t122.5 223t183 125t259.5 37.5z
M786 1319q-96 0 -166 -20t-124.5 -63t-93 -117t-65.5 -174.5t-48 -244.5q-34 -225 -12 -359.5t98.5 -190.5t230.5 -56q156 0 251.5 59t152 191t90.5 369q23 174 22.5 290t-39.5 186.5t-109.5 100t-187.5 29.5z" />
    <glyph glyph-name="Oacute" unicode="&#xd3;" horiz-adv-x="1359" 
d="M1139 1759l-398 -262l-45 62l377 301zM791 1438q119 0 204 -24.5t145 -78.5t87.5 -140t32.5 -209t-21 -286q-37 -274 -111 -430.5t-198.5 -225.5t-325.5 -69q-119 0 -203.5 24t-145.5 77.5t-89 139.5t-33.5 209.5t19.5 287.5q28 204 74 339.5t122.5 223t183 125
t259.5 37.5zM786 1319q-96 0 -166 -20t-124.5 -63t-93 -117t-65.5 -174.5t-48 -244.5q-34 -225 -12 -359.5t98.5 -190.5t230.5 -56q156 0 251.5 59t152 191t90.5 369q23 174 22.5 290t-39.5 186.5t-109.5 100t-187.5 29.5z" />
    <glyph glyph-name="Ocircumflex" unicode="&#xd4;" horiz-adv-x="1359" 
d="M1151 1563l-51 -54l-240 209h-18l-301 -207l-41 60l307 252h92zM791 1438q119 0 204 -24.5t145 -78.5t87.5 -140t32.5 -209t-21 -286q-37 -274 -111 -430.5t-198.5 -225.5t-325.5 -69q-119 0 -203.5 24t-145.5 77.5t-89 139.5t-33.5 209.5t19.5 287.5q28 204 74 339.5
t122.5 223t183 125t259.5 37.5zM786 1319q-96 0 -166 -20t-124.5 -63t-93 -117t-65.5 -174.5t-48 -244.5q-34 -225 -12 -359.5t98.5 -190.5t230.5 -56q156 0 251.5 59t152 191t90.5 369q23 174 22.5 290t-39.5 186.5t-109.5 100t-187.5 29.5z" />
    <glyph glyph-name="Otilde" unicode="&#xd5;" horiz-adv-x="1359" 
d="M573 1573l-65 6q7 109 57 164t125 49q42 -3 81 -21.5t64 -39t62 -39.5t74 -23q60 -6 90.5 22.5t38.5 92.5l65 -6q-6 -104 -54.5 -157.5t-123.5 -47.5q-48 3 -90.5 22t-68.5 39.5t-59 39.5t-64 22q-60 6 -91.5 -24.5t-40.5 -98.5zM791 1438q119 0 204 -24.5t145 -78.5
t87.5 -140t32.5 -209t-21 -286q-37 -274 -111 -430.5t-198.5 -225.5t-325.5 -69q-119 0 -203.5 24t-145.5 77.5t-89 139.5t-33.5 209.5t19.5 287.5q28 204 74 339.5t122.5 223t183 125t259.5 37.5zM786 1319q-96 0 -166 -20t-124.5 -63t-93 -117t-65.5 -174.5t-48 -244.5
q-34 -225 -12 -359.5t98.5 -190.5t230.5 -56q156 0 251.5 59t152 191t90.5 369q23 174 22.5 290t-39.5 186.5t-109.5 100t-187.5 29.5z" />
    <glyph glyph-name="Odieresis" unicode="&#xd6;" horiz-adv-x="1359" 
d="M653 1772h41q24 0 31 -9t4 -32l-16 -111q-3 -41 -43 -41h-43q-21 0 -29.5 9t-7.5 30l18 113q3 22 13 31.5t32 9.5zM1006 1772h41q23 0 30 -9.5t4 -31.5l-16 -111q-3 -22 -13 -31.5t-32 -9.5h-41q-21 0 -29.5 9t-7.5 30l19 113q3 22 13 31.5t32 9.5zM791 1438
q119 0 204 -24.5t145 -78.5t87.5 -140t32.5 -209t-21 -286q-37 -274 -111 -430.5t-198.5 -225.5t-325.5 -69q-119 0 -203.5 24t-145.5 77.5t-89 139.5t-33.5 209.5t19.5 287.5q28 204 74 339.5t122.5 223t183 125t259.5 37.5zM786 1319q-96 0 -166 -20t-124.5 -63t-93 -117
t-65.5 -174.5t-48 -244.5q-34 -225 -12 -359.5t98.5 -190.5t230.5 -56q156 0 251.5 59t152 191t90.5 369q23 174 22.5 290t-39.5 186.5t-109.5 100t-187.5 29.5z" />
    <glyph glyph-name="multiply" unicode="&#xd7;" horiz-adv-x="1075" 
d="M612 584l275 -283l-74 -74l-283 291l-370 -295l-62 86l359 285l-273 283l74 73l281 -291l376 302l62 -87z" />
    <glyph glyph-name="Oslash" unicode="&#xd8;" horiz-adv-x="1359" 
d="M1221 1495l-93 -149q93 -79 120 -236.5t-9 -409.5q-37 -274 -111 -430.5t-198.5 -225.5t-325.5 -69q-175 0 -276 52l-88 -144l-68 41l90 146q-92 79 -118.5 235t8.5 408q28 204 74 339.5t122.5 223t183 125t259.5 37.5q171 0 272 -49l88 145zM334 190l661 1088
q-72 41 -209 41q-96 0 -166 -20t-124.5 -63t-93 -117t-65.5 -174.5t-48 -244.5q-27 -194 -17 -319t62 -191zM1057 1227l-662 -1090q76 -43 211 -43q156 0 251.5 59t152 191t90.5 369q30 198 20.5 323.5t-63.5 190.5z" />
    <glyph glyph-name="Ugrave" unicode="&#xd9;" horiz-adv-x="1361" 
d="M909 1556l-51 -59l-342 266l76 95zM1298 1413l-124 -881q-43 -304 -172 -430.5t-394 -126.5q-272 0 -376 131t-62 433l123 874h135l-125 -881q-26 -162 -1.5 -259.5t95.5 -138t207 -40.5q205 0 303.5 100t132.5 345l123 874h135z" />
    <glyph glyph-name="Uacute" unicode="&#xda;" horiz-adv-x="1361" 
d="M1137 1759l-398 -262l-45 62l377 301zM1298 1413l-124 -881q-43 -304 -172 -430.5t-394 -126.5q-272 0 -376 131t-62 433l123 874h135l-125 -881q-26 -162 -1.5 -259.5t95.5 -138t207 -40.5q205 0 303.5 100t132.5 345l123 874h135z" />
    <glyph glyph-name="Ucircumflex" unicode="&#xdb;" horiz-adv-x="1361" 
d="M1149 1563l-51 -54l-240 209h-18l-301 -207l-41 60l307 252h92zM1298 1413l-124 -881q-43 -304 -172 -430.5t-394 -126.5q-272 0 -376 131t-62 433l123 874h135l-125 -881q-26 -162 -1.5 -259.5t95.5 -138t207 -40.5q205 0 303.5 100t132.5 345l123 874h135z" />
    <glyph glyph-name="Udieresis" unicode="&#xdc;" horiz-adv-x="1361" 
d="M651 1772h41q24 0 31 -9t4 -32l-16 -111q-3 -41 -43 -41h-43q-21 0 -29.5 9t-7.5 30l18 113q3 22 13 31.5t32 9.5zM1004 1772h40q23 0 30.5 -9.5t4.5 -31.5l-16 -111q-3 -22 -13 -31.5t-32 -9.5h-41q-21 0 -29.5 9t-7.5 30l18 113q3 22 13.5 31.5t32.5 9.5zM1298 1413
l-124 -881q-43 -304 -172 -430.5t-394 -126.5q-272 0 -376 131t-62 433l123 874h135l-125 -881q-26 -162 -1.5 -259.5t95.5 -138t207 -40.5q205 0 303.5 100t132.5 345l123 874h135z" />
    <glyph glyph-name="Yacute" unicode="&#xdd;" horiz-adv-x="1134" 
d="M618 1497l-45 62l377 301l66 -101zM616 506l-69 -506h-135l71 510l-346 903h137l236 -631q28 -73 47 -151h14q28 60 88 157l412 625h148z" />
    <glyph glyph-name="Thorn" unicode="&#xde;" horiz-adv-x="1202" 
d="M438 1413l-37 -266q92 6 334 6q79 0 138 -9t108 -29.5t78 -53.5t48 -82.5t19 -115.5t-10 -152q-18 -128 -51 -210.5t-92 -131t-137 -67.5t-195 -19q-220 0 -358 16l-43 -299h-134l160 1137l39 276h133zM297 399h330q90 1 148 15t101.5 50.5t68 98.5t38.5 160
q6 63 8 110.5t-9.5 82.5t-28.5 58t-50 37t-73.5 19.5t-98.5 5.5q-262 0 -346 -2z" />
    <glyph glyph-name="germandbls" unicode="&#xdf;" horiz-adv-x="1357" 
d="M852 606l223 -123q95 -53 130 -107.5t22 -156.5q-8 -62 -30.5 -105.5t-54 -70t-81 -41.5t-101 -20t-124.5 -5q-152 0 -322 23l16 98q172 -13 293 -10q139 2 201 31t72 117q2 16 2 30t-1.5 25t-6.5 22t-9 18.5t-12.5 16.5t-14.5 14t-17.5 13t-18.5 12.5t-21 12.5
q-7 4 -10 6l-225 122q-80 46 -114.5 100t-24.5 128q4 40 23 73.5t35 53.5t64 47.5t67.5 36.5t87.5 39q7 4 12 6l10 4q43 22 66.5 36t52.5 38t43.5 55t17.5 72q4 49 -14.5 78.5t-85.5 48t-191 18.5q-194 0 -272 -56t-101 -219l-172 -1222q-23 -149 -96 -216t-217 -67
q-88 0 -205 12l19 97h157q102 0 149 41.5t64 150.5l144 1006h-183l15 92l182 10l16 115q13 96 43.5 163t70 106t101.5 60.5t121 28t146 6.5q253 0 351 -56.5t81 -203.5q-9 -93 -61.5 -151.5t-162.5 -112.5q-16 -7 -54 -22.5t-53 -22.5t-43 -21t-40.5 -25t-28.5 -27.5
t-23.5 -36t-10.5 -43.5q-7 -46 17 -77t87 -65z" />
    <glyph glyph-name="agrave" unicode="&#xe0;" horiz-adv-x="1167" 
d="M711 1126l-342 269l75 92l318 -301zM913 0h-100l18 223q-98 -113 -220 -180.5t-242 -67.5q-182 0 -237.5 120t-12.5 409q24 163 60.5 263.5t99.5 156.5t141 75t201 19q191 0 432 -41zM831 336l80 563q-218 8 -254 8q-78 0 -130 -5.5t-96 -23.5t-70.5 -45t-48.5 -76
t-36 -109.5t-28 -153.5q-25 -153 -19.5 -243t42 -125.5t118.5 -35.5q199 0 442 246z" />
    <glyph glyph-name="aacute" unicode="&#xe1;" horiz-adv-x="1167" 
d="M594 1126l-45 64l375 299l67 -100zM913 0h-100l18 223q-98 -113 -220 -180.5t-242 -67.5q-182 0 -237.5 120t-12.5 409q24 163 60.5 263.5t99.5 156.5t141 75t201 19q191 0 432 -41zM831 336l80 563q-218 8 -254 8q-78 0 -130 -5.5t-96 -23.5t-70.5 -45t-48.5 -76
t-36 -109.5t-28 -153.5q-25 -153 -19.5 -243t42 -125.5t118.5 -35.5q199 0 442 246z" />
    <glyph glyph-name="acircumflex" unicode="&#xe2;" horiz-adv-x="1167" 
d="M391 1143l-39 57l305 254h95l252 -260l-52 -53l-241 207h-17zM913 0h-100l18 223q-98 -113 -220 -180.5t-242 -67.5q-182 0 -237.5 120t-12.5 409q24 163 60.5 263.5t99.5 156.5t141 75t201 19q191 0 432 -41zM831 336l80 563q-218 8 -254 8q-78 0 -130 -5.5t-96 -23.5
t-70.5 -45t-48.5 -76t-36 -109.5t-28 -153.5q-25 -153 -19.5 -243t42 -125.5t118.5 -35.5q199 0 442 246z" />
    <glyph glyph-name="atilde" unicode="&#xe3;" horiz-adv-x="1167" 
d="M952 1415l66 -6q-6 -104 -55.5 -158.5t-124.5 -48.5q-48 3 -90.5 22t-68.5 40t-59.5 40t-64.5 23q-60 6 -91 -25t-40 -100l-64 6q6 110 56.5 164.5t124.5 48.5q43 -3 81.5 -21.5t63.5 -39t61.5 -39.5t73.5 -23q62 -6 92 22.5t39 94.5zM913 0h-100l18 223
q-98 -113 -220 -180.5t-242 -67.5q-182 0 -237.5 120t-12.5 409q24 163 60.5 263.5t99.5 156.5t141 75t201 19q191 0 432 -41zM831 336l80 563q-218 8 -254 8q-78 0 -130 -5.5t-96 -23.5t-70.5 -45t-48.5 -76t-36 -109.5t-28 -153.5q-25 -153 -19.5 -243t42 -125.5
t118.5 -35.5q199 0 442 246z" />
    <glyph glyph-name="adieresis" unicode="&#xe4;" horiz-adv-x="1167" 
d="M520 1208h-43q-41 0 -35 39l17 113q6 41 47 41h41q23 0 30.5 -9.5t4.5 -31.5l-17 -111q-3 -22 -13 -31.5t-32 -9.5zM872 1208h-43q-40 0 -34 39l16 113q3 22 13.5 31.5t33.5 9.5h39q24 0 32 -9.5t5 -31.5l-19 -111q-2 -22 -11.5 -31.5t-31.5 -9.5zM913 0h-100l18 223
q-98 -113 -220 -180.5t-242 -67.5q-182 0 -237.5 120t-12.5 409q24 163 60.5 263.5t99.5 156.5t141 75t201 19q191 0 432 -41zM831 336l80 563q-218 8 -254 8q-78 0 -130 -5.5t-96 -23.5t-70.5 -45t-48.5 -76t-36 -109.5t-28 -153.5q-25 -153 -19.5 -243t42 -125.5
t118.5 -35.5q199 0 442 246z" />
    <glyph glyph-name="aring" unicode="&#xe5;" horiz-adv-x="1167" 
d="M674 1098q-95 0 -151 60.5t-46 152.5q9 83 71 141.5t154 58.5q94 0 150.5 -61t46.5 -152q-11 -84 -72 -142t-153 -58zM555 1303q-6 -59 27.5 -96.5t91.5 -37.5q59 0 100 39.5t47 100.5q6 57 -26.5 94t-92.5 37t-100.5 -39t-46.5 -98zM913 0h-100l18 223
q-98 -113 -220 -180.5t-242 -67.5q-182 0 -237.5 120t-12.5 409q24 163 60.5 263.5t99.5 156.5t141 75t201 19q191 0 432 -41zM831 336l80 563q-218 8 -254 8q-78 0 -130 -5.5t-96 -23.5t-70.5 -45t-48.5 -76t-36 -109.5t-28 -153.5q-25 -153 -19.5 -243t42 -125.5
t118.5 -35.5q199 0 442 246z" />
    <glyph glyph-name="ae" unicode="&#xe6;" horiz-adv-x="1787" 
d="M1575 113l10 -88q-63 -23 -181 -36.5t-214 -13.5q-170 0 -264 57.5t-123 180.5q-92 -110 -208 -174t-241 -64q-174 0 -227 125t-12 404q24 163 61 264t100 156.5t139.5 74.5t196.5 19q206 0 441 -45q101 45 282 45q217 0 303 -74t54 -239q-26 -134 -108 -192t-253 -73
l-405 -39q-7 -95 7 -157t52.5 -96.5t93 -48t138.5 -13.5q137 0 358 27zM379 90q190 0 412 225q-3 87 12 199q40 269 137 377q-242 16 -293 16q-75 0 -126.5 -6t-94 -25t-68.5 -46t-48 -76.5t-35.5 -109t-26.5 -150.5q-23 -150 -19.5 -239.5t38.5 -127t112 -37.5zM936 502
l395 39q113 12 162.5 48t69.5 126q7 33 8 59t-5.5 45.5t-16 33.5t-27.5 24t-36.5 16t-46 9t-53 4t-61.5 1q-98 0 -157.5 -14t-107.5 -57t-75.5 -120.5t-46.5 -205.5z" />
    <glyph glyph-name="ccedilla" unicode="&#xe7;" horiz-adv-x="985" 
d="M821 111l10 -91q-145 -45 -325 -45q-258 0 -349.5 120.5t-50.5 406.5q40 285 159 400.5t370 115.5q183 0 303 -45l-23 -84q-109 16 -260 16q-102 0 -169.5 -18t-118.5 -65t-80 -126t-45 -204q-11 -83 -12.5 -144t9.5 -106.5t32.5 -74.5t58.5 -47t83.5 -25t112.5 -7
q170 0 295 23zM375 -180l14 63q110 9 157 -22.5t34 -116.5q-20 -120 -118 -185t-235 -46l25 71q89 -3 154 44t77 118q6 43 -15 58t-93 16z" />
    <glyph glyph-name="egrave" unicode="&#xe8;" horiz-adv-x="1091" 
d="M694 1126l-342 269l76 92l317 -301zM885 113l10 -88q-66 -23 -184.5 -36.5t-214.5 -13.5q-251 0 -339 126.5t-48 412.5q21 153 59.5 250t104.5 154t152 78.5t216 21.5q216 0 302 -74.5t54 -238.5q-27 -134 -108 -192t-252 -73l-408 -39q-7 -95 7 -157t52.5 -96.5t93 -48
t138.5 -13.5q140 0 365 27zM242 502l395 39q113 12 162 48t67 126q7 33 8 59t-5 45.5t-15.5 33.5t-27 24t-36 16t-46 9t-53 4t-60.5 1q-98 0 -157.5 -14t-107.5 -57t-76 -120t-48 -206v-8z" />
    <glyph glyph-name="eacute" unicode="&#xe9;" horiz-adv-x="1091" 
d="M578 1126l-46 64l375 299l68 -100zM885 113l10 -88q-66 -23 -184.5 -36.5t-214.5 -13.5q-251 0 -339 126.5t-48 412.5q21 153 59.5 250t104.5 154t152 78.5t216 21.5q216 0 302 -74.5t54 -238.5q-27 -134 -108 -192t-252 -73l-408 -39q-7 -95 7 -157t52.5 -96.5t93 -48
t138.5 -13.5q140 0 365 27zM242 502l395 39q113 12 162 48t67 126q7 33 8 59t-5 45.5t-15.5 33.5t-27 24t-36 16t-46 9t-53 4t-60.5 1q-98 0 -157.5 -14t-107.5 -57t-76 -120t-48 -206v-8z" />
    <glyph glyph-name="ecircumflex" unicode="&#xea;" horiz-adv-x="1091" 
d="M375 1143l-39 57l305 254h94l250 -260l-49 -53l-242 207h-18zM885 113l10 -88q-66 -23 -184.5 -36.5t-214.5 -13.5q-251 0 -339 126.5t-48 412.5q21 153 59.5 250t104.5 154t152 78.5t216 21.5q216 0 302 -74.5t54 -238.5q-27 -134 -108 -192t-252 -73l-408 -39
q-7 -95 7 -157t52.5 -96.5t93 -48t138.5 -13.5q140 0 365 27zM242 502l395 39q113 12 162 48t67 126q7 33 8 59t-5 45.5t-15.5 33.5t-27 24t-36 16t-46 9t-53 4t-60.5 1q-98 0 -157.5 -14t-107.5 -57t-76 -120t-48 -206v-8z" />
    <glyph glyph-name="edieresis" unicode="&#xeb;" horiz-adv-x="1091" 
d="M504 1208h-43q-41 0 -35 39l16 113q3 22 13.5 31.5t33.5 9.5h39q24 0 32 -9.5t5 -31.5l-18 -111q-2 -22 -11.5 -31.5t-31.5 -9.5zM856 1208h-43q-41 0 -35 39l17 113q3 22 13 31.5t32 9.5h41q24 0 32 -9.5t5 -31.5l-19 -111q-3 -41 -43 -41zM885 113l10 -88
q-66 -23 -184.5 -36.5t-214.5 -13.5q-251 0 -339 126.5t-48 412.5q21 153 59.5 250t104.5 154t152 78.5t216 21.5q216 0 302 -74.5t54 -238.5q-27 -134 -108 -192t-252 -73l-408 -39q-7 -95 7 -157t52.5 -96.5t93 -48t138.5 -13.5q140 0 365 27zM242 502l395 39
q113 12 162 48t67 126q7 33 8 59t-5 45.5t-15.5 33.5t-27 24t-36 16t-46 9t-53 4t-60.5 1q-98 0 -157.5 -14t-107.5 -57t-76 -120t-48 -206v-8z" />
    <glyph glyph-name="igrave" unicode="&#xec;" horiz-adv-x="483" 
d="M416 1186l-51 -60l-342 269l75 92zM223 0h-131l141 991h129z" />
    <glyph glyph-name="iacute" unicode="&#xed;" horiz-adv-x="483" 
d="M645 1389l-399 -263l-45 64l377 299zM223 0h-131l141 991h129z" />
    <glyph glyph-name="icircumflex" unicode="&#xee;" horiz-adv-x="483" 
d="M655 1194l-49 -53l-241 207h-19l-301 -205l-39 57l305 254h92zM223 0h-131l141 991h129z" />
    <glyph glyph-name="idieresis" unicode="&#xef;" horiz-adv-x="483" 
d="M158 1401h41q24 0 32 -9.5t5 -31.5l-19 -111q-2 -22 -11.5 -31.5t-31.5 -9.5h-43q-41 0 -35 39l17 113q3 22 13 31.5t32 9.5zM510 1401h41q24 0 32 -9.5t5 -31.5l-19 -111q-3 -41 -43 -41h-43q-40 0 -37 39l19 113q3 22 13 31.5t32 9.5zM223 0h-131l141 991h129z" />
    <glyph glyph-name="eth" unicode="&#xf0;" horiz-adv-x="1130" 
d="M997 1386l-161 -108q215 -215 149 -709q-15 -111 -35.5 -194t-59 -162t-92.5 -128.5t-137 -79.5t-192 -30q-224 0 -313.5 116.5t-55.5 365.5q31 222 141 340t320 118q201 0 309 -124q3 285 -131 419l-190 -127l-37 58l170 116q-118 82 -336 78l21 95q258 7 413 -107
l181 123zM475 86q77 0 135 22t98.5 61.5t69.5 104t46.5 140t31.5 180.5q8 77 10 106q-105 105 -284 105q-162 0 -241.5 -92.5t-104.5 -268.5q-29 -194 29 -276t210 -82z" />
    <glyph glyph-name="ntilde" unicode="&#xf1;" horiz-adv-x="1175" 
d="M948 1415l64 -6q-4 -104 -53.5 -158.5t-124.5 -48.5q-48 3 -90.5 22t-68.5 40t-59.5 40t-64.5 23q-60 6 -91 -25t-40 -100l-66 6q7 110 57.5 164.5t125.5 48.5q43 -3 81.5 -21.5t63.5 -39t61.5 -39.5t73.5 -23q60 -6 91 22.5t40 94.5zM328 991l-21 -225q143 126 263 189
t229 63q130 0 192 -71.5t43 -205.5l-106 -741h-129l100 715q15 104 -17 147t-120 43q-94 0 -197 -56.5t-258 -180.5l-92 -668h-131l141 991h103z" />
    <glyph glyph-name="ograve" unicode="&#xf2;" horiz-adv-x="1150" 
d="M745 1186l-49 -60l-342 269l74 92zM627 1018q249 0 339.5 -121.5t49.5 -407.5q-40 -284 -156.5 -399t-361.5 -115q-249 0 -340 120t-52 407q38 283 155 399.5t366 116.5zM627 905q-123 0 -197.5 -37t-119.5 -127t-68 -252q-26 -152 -6.5 -241.5t80 -125.5t182.5 -36
q182 0 266.5 90.5t118.5 325.5q25 153 5 242.5t-80 125t-181 35.5z" />
    <glyph glyph-name="oacute" unicode="&#xf3;" horiz-adv-x="1150" 
d="M975 1389l-397 -263l-46 64l377 299zM627 1018q249 0 339.5 -121.5t49.5 -407.5q-40 -284 -156.5 -399t-361.5 -115q-249 0 -340 120t-52 407q38 283 155 399.5t366 116.5zM627 905q-123 0 -197.5 -37t-119.5 -127t-68 -252q-26 -152 -6.5 -241.5t80 -125.5t182.5 -36
q182 0 266.5 90.5t118.5 325.5q25 153 5 242.5t-80 125t-181 35.5z" />
    <glyph glyph-name="ocircumflex" unicode="&#xf4;" horiz-adv-x="1150" 
d="M987 1194l-51 -53l-242 207h-16l-303 -205l-39 57l307 254h92zM627 1018q249 0 339.5 -121.5t49.5 -407.5q-40 -284 -156.5 -399t-361.5 -115q-249 0 -340 120t-52 407q38 283 155 399.5t366 116.5zM627 905q-123 0 -197.5 -37t-119.5 -127t-68 -252
q-26 -152 -6.5 -241.5t80 -125.5t182.5 -36q182 0 266.5 90.5t118.5 325.5q25 153 5 242.5t-80 125t-181 35.5z" />
    <glyph glyph-name="otilde" unicode="&#xf5;" horiz-adv-x="1150" 
d="M410 1202l-66 6q7 110 56.5 164.5t123.5 48.5q43 -3 82 -21.5t64.5 -39t61.5 -39.5t73 -23q62 -6 92.5 22.5t38.5 94.5l65 -6q-6 -104 -55.5 -158.5t-124.5 -48.5q-47 3 -89 22t-68 40t-60 40t-65 23q-60 6 -90 -24.5t-39 -100.5zM627 1018q249 0 339.5 -121.5
t49.5 -407.5q-40 -284 -156.5 -399t-361.5 -115q-249 0 -340 120t-52 407q38 283 155 399.5t366 116.5zM627 905q-123 0 -197.5 -37t-119.5 -127t-68 -252q-26 -152 -6.5 -241.5t80 -125.5t182.5 -36q182 0 266.5 90.5t118.5 325.5q25 153 5 242.5t-80 125t-181 35.5z" />
    <glyph glyph-name="odieresis" unicode="&#xf6;" horiz-adv-x="1150" 
d="M489 1401h41q23 0 30.5 -9.5t4.5 -31.5l-16 -111q-3 -22 -13 -31.5t-32 -9.5h-41q-40 0 -37 39l18 113q3 22 13 31.5t32 9.5zM842 1401h41q23 0 30.5 -9.5t4.5 -31.5l-17 -111q-3 -22 -13 -31.5t-32 -9.5h-43q-41 0 -35 39l17 113q6 41 47 41zM627 1018
q249 0 339.5 -121.5t49.5 -407.5q-40 -284 -156.5 -399t-361.5 -115q-249 0 -340 120t-52 407q38 283 155 399.5t366 116.5zM627 905q-123 0 -197.5 -37t-119.5 -127t-68 -252q-26 -152 -6.5 -241.5t80 -125.5t182.5 -36q182 0 266.5 90.5t118.5 325.5q25 153 5 242.5
t-80 125t-181 35.5z" />
    <glyph glyph-name="divide" unicode="&#xf7;" horiz-adv-x="1177" 
d="M629 1059h37q29 -1 39.5 -14t7.5 -41l-17 -109q-6 -47 -53 -47h-37q-53 0 -47 53l16 109q6 49 54 49zM1024 555h-883l15 100h882zM530 358h39q53 0 47 -53l-18 -108q-3 -47 -53 -47h-37q-27 0 -37.5 12.5t-7.5 40.5l16 108q6 47 51 47z" />
    <glyph glyph-name="oslash" unicode="&#xf8;" horiz-adv-x="1150" 
d="M981 1100l-86 -139q90 -55 118.5 -169t2.5 -303q-40 -284 -156.5 -399t-361.5 -115q-110 0 -187 21l-86 -139l-63 34l80 132q-98 52 -131 168t-5 311q38 283 155 399.5t366 116.5q119 0 202 -27l89 146zM305 127l461 762q-49 16 -139 16q-123 0 -197.5 -37t-119.5 -127
t-68 -252q-22 -149 -7.5 -236t70.5 -126zM829 854l-456 -756q53 -12 125 -12q182 0 266.5 90.5t118.5 325.5q21 139 8.5 224.5t-62.5 127.5z" />
    <glyph glyph-name="ugrave" unicode="&#xf9;" 
d="M698 1133l-342 266l76 94l318 -301zM1040 991l-139 -991h-100l20 231q-133 -130 -247.5 -193t-225.5 -63q-134 0 -194 71.5t-41 203.5l104 741h131l-102 -712q-15 -101 19 -146t124 -45q94 0 189 58.5t243 193.5l90 651h129z" />
    <glyph glyph-name="uacute" unicode="&#xfa;" 
d="M580 1133l-45 61l376 301l66 -102zM1040 991l-139 -991h-100l20 231q-133 -130 -247.5 -193t-225.5 -63q-134 0 -194 71.5t-41 203.5l104 741h131l-102 -712q-15 -101 19 -146t124 -45q94 0 189 58.5t243 193.5l90 651h129z" />
    <glyph glyph-name="ucircumflex" unicode="&#xfb;" 
d="M379 1147l-41 59l307 252h92l252 -260l-51 -53l-242 209h-16zM1040 991l-139 -991h-100l20 231q-133 -130 -247.5 -193t-225.5 -63q-134 0 -194 71.5t-41 203.5l104 741h131l-102 -712q-15 -101 19 -146t124 -45q94 0 189 58.5t243 193.5l90 651h129z" />
    <glyph glyph-name="udieresis" unicode="&#xfc;" 
d="M506 1214h-41q-21 0 -29.5 9t-7.5 30l18 113q6 41 46 41h40q41 0 35 -41l-16 -111q-3 -22 -13 -31.5t-32 -9.5zM858 1214h-41q-21 0 -29.5 9t-7.5 30l19 113q6 41 45 41h41q41 0 35 -41l-17 -111q-3 -22 -13 -31.5t-32 -9.5zM1040 991l-139 -991h-100l20 231
q-133 -130 -247.5 -193t-225.5 -63q-134 0 -194 71.5t-41 203.5l104 741h131l-102 -712q-15 -101 19 -146t124 -45q94 0 189 58.5t243 193.5l90 651h129z" />
    <glyph glyph-name="yacute" unicode="&#xfd;" horiz-adv-x="1083" 
d="M516 1126l-45 64l375 299l67 -100zM911 991h136q-116 -474 -332 -841q-159 -277 -299 -408t-318 -166l-22 90q118 33 215.5 111t195.5 223h-84q-41 0 -70.5 24t-37.5 62l-197 905h138l170 -844q10 -43 51 -43h96l47 82q111 197 183 384t128 421z" />
    <glyph glyph-name="thorn" unicode="&#xfe;" horiz-adv-x="1167" 
d="M317 786l2 -6q96 108 216.5 172t238.5 64q175 0 232 -119t16 -410q-19 -131 -47.5 -220.5t-66.5 -147t-95.5 -89t-123.5 -43.5t-163 -12q-150 0 -313 25q-6 -81 -20 -164l-35 -254h-129l260 1852h129l-62 -435q-16 -126 -39 -213zM307 655l-78 -561q145 -8 254 -8
q77 0 128.5 5.5t95.5 23.5t70.5 44.5t48.5 75.5t36 110t27 153q25 153 19.5 242.5t-41.5 125t-117 35.5q-197 0 -443 -246z" />
    <glyph glyph-name="ydieresis" unicode="&#xff;" horiz-adv-x="1083" 
d="M442 1208h-43q-40 0 -34 39l16 113q6 41 47 41h39q24 0 32 -9.5t5 -31.5l-19 -111q-2 -22 -11.5 -31.5t-31.5 -9.5zM795 1208h-43q-41 0 -35 39l16 113q3 22 13 31.5t32 9.5h41q24 0 32 -9.5t5 -31.5l-18 -111q-2 -22 -11.5 -31.5t-31.5 -9.5zM911 991h136
q-116 -474 -332 -841q-159 -277 -299 -408t-318 -166l-22 90q118 33 215.5 111t195.5 223h-84q-41 0 -70.5 24t-37.5 62l-197 905h138l170 -844q10 -43 51 -43h96l47 82q111 197 183 384t128 421z" />
    <glyph glyph-name="Amacron" unicode="&#x100;" horiz-adv-x="1253" 
d="M1055 1622h-557l14 100h557zM924 467h-617l-219 -467h-143l665 1378q14 35 56 35h153q19 0 33.5 -12t15.5 -29l281 -1372h-135zM901 586l-117 604q-3 21 -9 60t-9 59h-61q-35 -76 -56 -119l-284 -604h536z" />
    <glyph glyph-name="amacron" unicode="&#x101;" horiz-adv-x="1167" 
d="M958 1253h-557l15 101h557zM913 0h-100l18 223q-98 -113 -220 -180.5t-242 -67.5q-182 0 -237.5 120t-12.5 409q24 163 60.5 263.5t99.5 156.5t141 75t201 19q191 0 432 -41zM831 336l80 563q-218 8 -254 8q-78 0 -130 -5.5t-96 -23.5t-70.5 -45t-48.5 -76t-36 -109.5
t-28 -153.5q-25 -153 -19.5 -243t42 -125.5t118.5 -35.5q199 0 442 246z" />
    <glyph glyph-name="Abreve" unicode="&#x102;" horiz-adv-x="1253" 
d="M1026 1806l70 -18q-12 -117 -99 -185.5t-225 -68.5q-144 0 -218 71.5t-52 188.5l71 6q-12 -78 42 -122t157 -44q107 0 175 46t79 126zM924 467h-617l-219 -467h-143l665 1378q14 35 56 35h153q19 0 33.5 -12t15.5 -29l281 -1372h-135zM901 586l-117 604q-3 21 -9 60
t-9 59h-61q-35 -76 -56 -119l-284 -604h536z" />
    <glyph glyph-name="abreve" unicode="&#x103;" horiz-adv-x="1167" 
d="M930 1436l69 -19q-12 -116 -99 -185t-224 -69q-144 0 -218 72t-52 188l71 7q-12 -78 42 -121t157 -43q107 0 175.5 45.5t78.5 124.5zM913 0h-100l18 223q-98 -113 -220 -180.5t-242 -67.5q-182 0 -237.5 120t-12.5 409q24 163 60.5 263.5t99.5 156.5t141 75t201 19
q191 0 432 -41zM831 336l80 563q-218 8 -254 8q-78 0 -130 -5.5t-96 -23.5t-70.5 -45t-48.5 -76t-36 -109.5t-28 -153.5q-25 -153 -19.5 -243t42 -125.5t118.5 -35.5q199 0 442 246z" />
    <glyph glyph-name="Aogonek" unicode="&#x104;" horiz-adv-x="1253" 
d="M868 1372l281 -1372q-124 -121 -193 -248q-42 -79 0.5 -103.5t151.5 11.5l16 -57q-74 -30 -132.5 -37t-93 6.5t-51.5 40.5t-14 65.5t25 81.5q65 123 219 240h-63l-90 467h-617l-219 -467h-143l665 1378q14 35 56 35h153q19 0 33.5 -12t15.5 -29zM901 586l-117 604
q-3 21 -9 60t-9 59h-61q-35 -76 -56 -119l-284 -604h536z" />
    <glyph glyph-name="aogonek" unicode="&#x105;" horiz-adv-x="1167" 
d="M1053 977l-140 -977q-122 -119 -192 -248q-42 -79 0 -103.5t151 11.5l17 -57q-74 -30 -132.5 -37t-92.5 6.5t-51 40.5t-14 65.5t24 81.5q65 123 219 240h-29l18 223q-98 -113 -220 -180.5t-242 -67.5q-182 0 -237.5 120t-12.5 409q24 163 60.5 263.5t99.5 156.5t141 75
t201 19q191 0 432 -41zM831 336l80 563q-218 8 -254 8q-78 0 -130 -5.5t-96 -23.5t-70.5 -45t-48.5 -76t-36 -109.5t-28 -153.5q-25 -153 -19.5 -243t42 -125.5t118.5 -35.5q199 0 442 246z" />
    <glyph glyph-name="Cacute" unicode="&#x106;" 
d="M1110 1759l-397 -262l-45 62l374 301zM993 119l11 -101q-165 -43 -406 -43q-298 0 -400.5 171t-45.5 567q28 204 74 339.5t122 223t181.5 125t256.5 37.5q127 0 207 -9t168 -30l-24 -101q-159 19 -351 19q-119 0 -199 -28.5t-139.5 -101t-96 -188.5t-62.5 -299
q-19 -139 -20 -238t16 -171t58 -114t102.5 -61.5t152.5 -19.5q212 -2 395 23z" />
    <glyph glyph-name="cacute" unicode="&#x107;" horiz-adv-x="985" 
d="M942 1389l-397 -263l-45 64l374 299zM821 111l10 -91q-145 -45 -325 -45q-258 0 -349.5 120.5t-50.5 406.5q40 285 159 400.5t370 115.5q183 0 303 -45l-23 -84q-109 16 -260 16q-102 0 -169.5 -18t-118.5 -65t-80 -126t-45 -204q-11 -83 -12.5 -144t9.5 -106.5
t32.5 -74.5t58.5 -47t83.5 -25t112.5 -7q170 0 295 23z" />
    <glyph glyph-name="Cdotaccent" unicode="&#x10a;" 
d="M795 1772h45q20 0 31 -13t8 -35l-17 -116q-3 -23 -13 -33t-32 -10h-43q-44 0 -41 47l17 117q6 43 45 43zM993 119l11 -101q-165 -43 -406 -43q-298 0 -400.5 171t-45.5 567q28 204 74 339.5t122 223t181.5 125t256.5 37.5q127 0 207 -9t168 -30l-24 -101q-159 19 -351 19
q-119 0 -199 -28.5t-139.5 -101t-96 -188.5t-62.5 -299q-19 -139 -20 -238t16 -171t58 -114t102.5 -61.5t152.5 -19.5q212 -2 395 23z" />
    <glyph glyph-name="cdotaccent" unicode="&#x10b;" horiz-adv-x="985" 
d="M627 1401h45q21 0 31.5 -12t7.5 -33l-17 -119q-3 -22 -13 -31.5t-32 -9.5h-43q-47 0 -41 45l17 119q3 22 13 31.5t32 9.5zM821 111l10 -91q-145 -45 -325 -45q-258 0 -349.5 120.5t-50.5 406.5q40 285 159 400.5t370 115.5q183 0 303 -45l-23 -84q-109 16 -260 16
q-102 0 -169.5 -18t-118.5 -65t-80 -126t-45 -204q-11 -83 -12.5 -144t9.5 -106.5t32.5 -74.5t58.5 -47t83.5 -25t112.5 -7q170 0 295 23z" />
    <glyph glyph-name="Ccaron" unicode="&#x10c;" 
d="M1147 1782l-309 -254h-97l-241 260l53 51l233 -207h17l301 207zM993 119l11 -101q-165 -43 -406 -43q-298 0 -400.5 171t-45.5 567q28 204 74 339.5t122 223t181.5 125t256.5 37.5q127 0 207 -9t168 -30l-24 -101q-159 19 -351 19q-119 0 -199 -28.5t-139.5 -101
t-96 -188.5t-62.5 -299q-19 -139 -20 -238t16 -171t58 -114t102.5 -61.5t152.5 -19.5q212 -2 395 23z" />
    <glyph glyph-name="ccaron" unicode="&#x10d;" horiz-adv-x="985" 
d="M979 1411l-309 -252h-97l-241 260l53 49l233 -204h17l301 204zM821 111l10 -91q-145 -45 -325 -45q-258 0 -349.5 120.5t-50.5 406.5q40 285 159 400.5t370 115.5q183 0 303 -45l-23 -84q-109 16 -260 16q-102 0 -169.5 -18t-118.5 -65t-80 -126t-45 -204
q-11 -83 -12.5 -144t9.5 -106.5t32.5 -74.5t58.5 -47t83.5 -25t112.5 -7q170 0 295 23z" />
    <glyph glyph-name="Dcaron" unicode="&#x10e;" horiz-adv-x="1353" 
d="M731 1528l-242 260l54 51l233 -207h17l301 207l43 -57l-310 -254h-96zM104 0l199 1413q264 19 465 19q126 0 214.5 -24t150 -77t89 -138t32 -207.5t-20.5 -285.5q-21 -148 -49 -257t-69 -189.5t-90.5 -132.5t-118.5 -83t-147.5 -43.5t-183.5 -12.5q-210 0 -471 18z
M424 1309l-170 -1205q204 -4 319 -4q102 0 174 17t130.5 56.5t98 111t68.5 174.5t50 254q21 145 22 245.5t-17 171.5t-62.5 110.5t-109 57t-161.5 17.5q-24 0 -342 -6z" />
    <glyph glyph-name="dcaron" unicode="&#x10f;" horiz-adv-x="1165" 
d="M1311 1434h39q25 0 33 -10t3 -33l-16 -117q-14 -115 -92 -256l-59 20q39 121 55 209q-18 -1 -27.5 9t-7.5 28l16 109q4 25 15.5 33t40.5 8zM983 1434h131l-203 -1434h-100l18 231q-103 -112 -228 -184t-255 -72q-161 0 -215.5 124t-13.5 405q18 131 46.5 221t66.5 148
t95.5 89.5t122.5 43.5t160 12q136 0 322 -25q7 109 18 191zM831 338l76 563q-212 8 -256 8q-77 0 -128 -5.5t-94.5 -23.5t-70 -45t-48.5 -76.5t-35.5 -110.5t-26.5 -154q-35 -223 -8.5 -313.5t139.5 -90.5q104 0 213.5 61.5t238.5 186.5z" />
    <glyph glyph-name="Dcroat" unicode="&#x110;" horiz-adv-x="1353" 
d="M217 795l86 618q264 19 465 19q126 0 214.5 -24t150 -77t89 -138t32 -207.5t-20.5 -285.5q-21 -148 -49 -257t-69 -189.5t-90.5 -132.5t-118.5 -83t-147.5 -43.5t-183.5 -12.5q-210 0 -471 18l101 715h-148l11 80h149zM340 715l-86 -611q204 -4 319 -4q102 0 174 17
t130.5 56.5t98 111t68.5 174.5t50 254q21 145 22 245.5t-17 171.5t-62.5 110.5t-109 57t-161.5 17.5q-24 0 -342 -6l-74 -514h336l-12 -80h-334z" />
    <glyph glyph-name="dcroat" unicode="&#x111;" horiz-adv-x="1165" 
d="M1233 1190h-154l-168 -1190h-100l18 231q-103 -112 -228 -184t-255 -72q-161 0 -215.5 124t-13.5 405q18 131 46.5 221t66.5 148t95.5 89.5t122.5 43.5t160 12q136 0 322 -25q7 109 18 191v6h-321l12 78h322l22 166h131l-22 -166h151zM831 338l76 563q-212 8 -256 8
q-77 0 -128 -5.5t-94.5 -23.5t-70 -45t-48.5 -76.5t-35.5 -110.5t-26.5 -154q-35 -223 -8.5 -313.5t139.5 -90.5q104 0 213.5 61.5t238.5 186.5z" />
    <glyph glyph-name="Emacron" unicode="&#x112;" horiz-adv-x="1136" 
d="M1053 1667h-557l14 100h557zM1120 1300h-569q-146 0 -164 -151l-49 -348h633l-15 -105h-632l-60 -438q-21 -145 123 -145h565v-103q-188 -12 -583 -12q-130 0 -193.5 69.5t-48.5 188.5l131 930q14 106 85 167.5t189 61.5q417 0 607 -12z" />
    <glyph glyph-name="emacron" unicode="&#x113;" horiz-adv-x="1091" 
d="M942 1253h-557l14 101h557zM885 113l10 -88q-66 -23 -184.5 -36.5t-214.5 -13.5q-251 0 -339 126.5t-48 412.5q21 153 59.5 250t104.5 154t152 78.5t216 21.5q216 0 302 -74.5t54 -238.5q-27 -134 -108 -192t-252 -73l-408 -39q-7 -95 7 -157t52.5 -96.5t93 -48
t138.5 -13.5q140 0 365 27zM242 502l395 39q113 12 162 48t67 126q7 33 8 59t-5 45.5t-15.5 33.5t-27 24t-36 16t-46 9t-53 4t-60.5 1q-98 0 -157.5 -14t-107.5 -57t-76 -120t-48 -206v-8z" />
    <glyph glyph-name="Edotaccent" unicode="&#x116;" horiz-adv-x="1136" 
d="M791 1610h-41q-22 0 -33 12.5t-8 34.5l16 117q3 24 12.5 33.5t32.5 9.5h43q47 0 41 -48l-16 -116q-3 -22 -13.5 -32.5t-33.5 -10.5zM1120 1300h-569q-146 0 -164 -151l-49 -348h633l-15 -105h-632l-60 -438q-21 -145 123 -145h565v-103q-188 -12 -583 -12
q-130 0 -193.5 69.5t-48.5 188.5l131 930q14 106 85 167.5t189 61.5q417 0 607 -12z" />
    <glyph glyph-name="edotaccent" unicode="&#x117;" horiz-adv-x="1091" 
d="M682 1196h-43q-47 0 -41 45l16 119q3 22 13 31.5t32 9.5h46q44 0 38 -45l-16 -119q-3 -22 -13 -31.5t-32 -9.5zM885 113l10 -88q-66 -23 -184.5 -36.5t-214.5 -13.5q-251 0 -339 126.5t-48 412.5q21 153 59.5 250t104.5 154t152 78.5t216 21.5q216 0 302 -74.5t54 -238.5
q-27 -134 -108 -192t-252 -73l-408 -39q-7 -95 7 -157t52.5 -96.5t93 -48t138.5 -13.5q140 0 365 27zM242 502l395 39q113 12 162 48t67 126q7 33 8 59t-5 45.5t-15.5 33.5t-27 24t-36 16t-46 9t-53 4t-60.5 1q-98 0 -157.5 -14t-107.5 -57t-76 -120t-48 -206v-8z" />
    <glyph glyph-name="Eogonek" unicode="&#x118;" horiz-adv-x="1136" 
d="M1120 1300h-569q-146 0 -164 -151l-49 -348h633l-15 -105h-632l-60 -438q-21 -145 123 -145h565v-103q-124 -118 -192 -248q-44 -80 -1.5 -104.5t150.5 12.5l17 -57q-74 -30 -132.5 -37t-92.5 6.5t-51 41t-13.5 66t25.5 81.5q60 120 212 235q-166 -8 -505 -8
q-130 0 -193.5 69.5t-48.5 188.5l131 930q14 106 85 167.5t189 61.5q417 0 607 -12z" />
    <glyph glyph-name="eogonek" unicode="&#x119;" horiz-adv-x="1091" 
d="M854 -315l14 -58q-73 -30 -131.5 -37t-92.5 6.5t-51 41t-14 66t25 81.5q55 105 189 215q-150 -25 -297 -25q-251 0 -339 126.5t-48 412.5q21 153 59.5 250t104.5 154t152 78.5t216 21.5q216 0 302 -74.5t54 -238.5q-27 -134 -108 -192t-252 -73l-408 -39q-7 -95 7 -157
t52.5 -96.5t93 -48t138.5 -13.5q140 0 365 27l10 -88q-127 -123 -193 -248q-42 -81 0.5 -104.5t151.5 12.5zM242 502l395 39q113 12 162 48t67 126q7 33 8 59t-5 45.5t-15.5 33.5t-27 24t-36 16t-46 9t-53 4t-60.5 1q-98 0 -157.5 -14t-107.5 -57t-76 -120t-48 -206v-8z" />
    <glyph glyph-name="Ecaron" unicode="&#x11a;" horiz-adv-x="1136" 
d="M717 1573l-242 260l53 51l234 -207h16l301 207l43 -57l-311 -254h-94zM1120 1300h-569q-146 0 -164 -151l-49 -348h633l-15 -105h-632l-60 -438q-21 -145 123 -145h565v-103q-188 -12 -583 -12q-130 0 -193.5 69.5t-48.5 188.5l131 930q14 106 85 167.5t189 61.5
q417 0 607 -12z" />
    <glyph glyph-name="ecaron" unicode="&#x11b;" horiz-adv-x="1091" 
d="M606 1159l-241 260l53 49l233 -204h17l301 204l43 -57l-310 -252h-96zM885 113l10 -88q-66 -23 -184.5 -36.5t-214.5 -13.5q-251 0 -339 126.5t-48 412.5q21 153 59.5 250t104.5 154t152 78.5t216 21.5q216 0 302 -74.5t54 -238.5q-27 -134 -108 -192t-252 -73l-408 -39
q-7 -95 7 -157t52.5 -96.5t93 -48t138.5 -13.5q140 0 365 27zM242 502l395 39q113 12 162 48t67 126q7 33 8 59t-5 45.5t-15.5 33.5t-27 24t-36 16t-46 9t-53 4t-60.5 1q-98 0 -157.5 -14t-107.5 -57t-76 -120t-48 -206v-8z" />
    <glyph glyph-name="Gbreve" unicode="&#x11e;" horiz-adv-x="1273" 
d="M1069 1806l70 -18q-12 -117 -99 -185.5t-225 -68.5q-144 0 -218 71.5t-52 188.5l71 6q-10 -79 43.5 -122.5t155.5 -43.5q108 0 176.5 46.5t77.5 125.5zM1208 1399l-24 -101q-191 21 -365 21q-106 0 -180.5 -18t-134 -58.5t-99.5 -113.5t-68 -176t-48 -253
q-38 -335 18 -470.5t238 -135.5q111 0 205.5 56t210.5 169l69 500h131l-117 -819h-96l10 205q-205 -230 -454 -230q-231 0 -315.5 175t-38.5 563q28 213 79 353.5t133.5 222.5t187.5 115.5t255 33.5q235 0 403 -39z" />
    <glyph glyph-name="gbreve" unicode="&#x11f;" horiz-adv-x="1173" 
d="M932 1436l69 -19q-12 -116 -99 -185t-224 -69q-144 0 -218 72t-52 188l71 7q-10 -78 43 -121t156 -43q108 0 176.5 45.5t77.5 124.5zM1063 977l-145 -969q-27 -206 -156 -321.5t-369 -124.5q-66 -4 -175 0.5t-183 21.5l14 88q174 -7 340 0q343 20 397 316q34 196 74 268
q-101 -128 -232.5 -204.5t-262.5 -76.5q-115 0 -177 50.5t-81.5 168t12.5 310.5q17 109 38.5 189.5t53 137.5t68 93.5t88.5 57t108.5 28.5t134.5 8q202 0 443 -41h10zM836 338l84 561q-222 8 -265 8q-77 0 -128 -5.5t-94.5 -23.5t-69.5 -45t-48.5 -76t-36.5 -109.5
t-28 -153.5q-25 -152 -19.5 -242t42 -126t118.5 -36q200 0 445 248z" />
    <glyph glyph-name="Gdotaccent" unicode="&#x120;" horiz-adv-x="1273" 
d="M838 1565h-43q-45 0 -39 47l14 117q6 43 45 43h45q21 0 31.5 -13t7.5 -35l-16 -116q-3 -23 -13 -33t-32 -10zM1208 1399l-24 -101q-191 21 -365 21q-106 0 -180.5 -18t-134 -58.5t-99.5 -113.5t-68 -176t-48 -253q-38 -335 18 -470.5t238 -135.5q111 0 205.5 56
t210.5 169l69 500h131l-117 -819h-96l10 205q-205 -230 -454 -230q-231 0 -315.5 175t-38.5 563q28 213 79 353.5t133.5 222.5t187.5 115.5t255 33.5q235 0 403 -39z" />
    <glyph glyph-name="gdotaccent" unicode="&#x121;" horiz-adv-x="1173" 
d="M700 1196h-43q-45 0 -39 45l15 119q3 22 13 31.5t32 9.5h45q45 0 39 -45l-17 -119q-3 -22 -13 -31.5t-32 -9.5zM1063 977l-145 -969q-27 -206 -156 -321.5t-369 -124.5q-66 -4 -175 0.5t-183 21.5l14 88q174 -7 340 0q343 20 397 316q34 196 74 268
q-101 -128 -232.5 -204.5t-262.5 -76.5q-115 0 -177 50.5t-81.5 168t12.5 310.5q17 109 38.5 189.5t53 137.5t68 93.5t88.5 57t108.5 28.5t134.5 8q202 0 443 -41h10zM836 338l84 561q-222 8 -265 8q-77 0 -128 -5.5t-94.5 -23.5t-69.5 -45t-48.5 -76t-36.5 -109.5
t-28 -153.5q-25 -152 -19.5 -242t42 -126t118.5 -36q200 0 445 248z" />
    <glyph glyph-name="Gcommaaccent" unicode="&#x122;" horiz-adv-x="1273" 
d="M1208 1399l-24 -101q-191 21 -365 21q-106 0 -180.5 -18t-134 -58.5t-99.5 -113.5t-68 -176t-48 -253q-38 -335 18 -470.5t238 -135.5q111 0 205.5 56t210.5 169l69 500h131l-117 -819h-96l10 205q-205 -230 -454 -230q-231 0 -315.5 175t-38.5 563q28 213 79 353.5
t133.5 222.5t187.5 115.5t255 33.5q235 0 403 -39zM559 -123h39q46 0 37 -45l-17 -117q-14 -112 -92 -258l-59 21q39 121 55 209q-19 0 -28.5 11t-6.5 28l17 108q5 25 15.5 34t39.5 9z" />
    <glyph glyph-name="gcommaaccent" unicode="&#x123;" horiz-adv-x="1173" 
d="M688 1147h-39q-25 0 -33.5 10t-5.5 35l19 117q14 111 90 256l61 -19q-39 -126 -55 -211q18 1 27.5 -9.5t7.5 -29.5l-17 -108q-5 -24 -15.5 -32.5t-39.5 -8.5zM1063 977l-145 -969q-27 -206 -156 -321.5t-369 -124.5q-66 -4 -175 0.5t-183 21.5l14 88q174 -7 340 0
q343 20 397 316q34 196 74 268q-101 -128 -232.5 -204.5t-262.5 -76.5q-115 0 -177 50.5t-81.5 168t12.5 310.5q17 109 38.5 189.5t53 137.5t68 93.5t88.5 57t108.5 28.5t134.5 8q202 0 443 -41h10zM836 338l84 561q-222 8 -265 8q-77 0 -128 -5.5t-94.5 -23.5t-69.5 -45
t-48.5 -76t-36.5 -109.5t-28 -153.5q-25 -152 -19.5 -242t42 -126t118.5 -36q200 0 445 248z" />
    <glyph glyph-name="Hbar" unicode="&#x126;" horiz-adv-x="1357" 
d="M1391 1067h-156l-150 -1067h-135l99 696h-711l-98 -696h-136l150 1067h-145l10 78h147l37 268h135l-37 -268h711l37 268h135l-39 -268h156zM1102 1067h-713l-35 -254h711z" />
    <glyph glyph-name="hbar" unicode="&#x127;" horiz-adv-x="1175" 
d="M383 1190l-23 -172q-16 -113 -47 -248q142 123 260.5 185.5t225.5 62.5q130 0 192 -71.5t43 -205.5l-106 -741h-129l100 715q15 104 -17 147t-120 43q-94 0 -197.5 -57.5t-257.5 -183.5l-92 -664h-131l168 1190h-154l13 78h153l23 166h129l-23 -166h320l-11 -78h-319z
" />
    <glyph glyph-name="Imacron" unicode="&#x12a;" horiz-adv-x="512" 
d="M678 1622h-557l14 100h557zM240 0h-136l199 1413h135z" />
    <glyph glyph-name="imacron" unicode="&#x12b;" horiz-adv-x="483" 
d="M612 1253h-557l15 101h557zM223 0h-131l141 991h129z" />
    <glyph glyph-name="Iogonek" unicode="&#x12e;" horiz-adv-x="512" 
d="M240 0h-13q-123 -116 -194 -248q-42 -79 0 -103.5t151 11.5l17 -57q-74 -30 -132.5 -37t-92.5 6.5t-51 40.5t-13.5 65.5t25.5 81.5q61 121 217 240h-50l199 1413h135z" />
    <glyph glyph-name="iogonek" unicode="&#x12f;" horiz-adv-x="483" 
d="M330 1401h45q21 0 31.5 -12t7.5 -33l-17 -119q-3 -22 -13 -31.5t-32 -9.5h-43q-47 0 -41 45l17 119q3 22 13 31.5t32 9.5zM233 991h129l-139 -991h-10q-124 -121 -193 -248q-42 -79 0.5 -103.5t151.5 11.5l16 -57q-74 -30 -132.5 -37t-92.5 6.5t-51 40.5t-14 65.5
t24 81.5q65 123 219 240h-49z" />
    <glyph glyph-name="Idotaccent" unicode="&#x130;" horiz-adv-x="512" 
d="M395 1772h45q20 0 31 -13t8 -35l-16 -116q-3 -23 -13 -33t-32 -10h-43q-22 0 -33 12.5t-8 34.5l16 117q6 43 45 43zM240 0h-136l199 1413h135z" />
    <glyph glyph-name="dotlessi" unicode="&#x131;" horiz-adv-x="483" 
d="M223 0h-131l141 991h129z" />
    <glyph glyph-name="IJ" unicode="&#x132;" horiz-adv-x="1193" 
d="M240 0h-136l199 1413h135zM1126 1413l-159 -1141q-41 -288 -299 -288q-93 0 -168 22l24 92h105q89 0 141 45t64 131l159 1139h133z" />
    <glyph glyph-name="ij" unicode="&#x133;" horiz-adv-x="966" 
d="M324 1409h59q21 0 31.5 -12t7.5 -33l-16 -121q-3 -22 -13.5 -30.5t-32.5 -8.5h-59q-47 0 -41 45l19 121q2 21 12 30t33 9zM805 1409h61q21 0 31.5 -12t7.5 -33l-16 -121q-3 -22 -13 -30.5t-32 -8.5h-60q-47 0 -41 45l17 121q3 21 13.5 30t31.5 9zM223 0h-129l139 991h129
zM846 991l-148 -1044q-15 -110 -72.5 -204.5t-146.5 -164.5l-69 60q69 74 107.5 148t51.5 169l148 1036h129z" />
    <glyph glyph-name="Kcommaaccent" unicode="&#x136;" horiz-adv-x="1189" 
d="M633 739l-2 -8q33 -35 57 -86l373 -645h-152l-391 682h-194q-4 -100 -13 -162l-73 -520h-134l199 1413h133l-63 -459q-17 -101 -33 -161h190l535 620h164l-510 -594q-42 -48 -86 -80zM535 -123h38q46 0 37 -45l-16 -117q-14 -112 -92 -258l-60 21q41 128 56 209
q-38 0 -35 39l16 108q5 25 16 34t40 9z" />
    <glyph glyph-name="kcommaaccent" unicode="&#x137;" horiz-adv-x="1042" 
d="M860 991h133q-99 -273 -358 -442q37 -65 57 -111l205 -438h-139l-223 489q-86 -45 -267 -116l-53 -373h-129l201 1434h131l-101 -732q-13 -100 -51 -219q219 83 376.5 214t217.5 294zM459 -123h39q46 0 37 -45l-17 -117q-17 -119 -92 -258l-59 21q39 121 55 209
q-20 0 -29 10.5t-6 28.5l16 108q5 25 16 34t40 9z" />
    <glyph glyph-name="Lacute" unicode="&#x139;" horiz-adv-x="1036" 
d="M707 1759l-398 -262l-45 62l377 301zM432 1413l-162 -1155q-9 -67 22 -106t101 -39h531l-4 -103q-182 -12 -553 -12q-121 0 -184 70t-46 194l160 1151h135z" />
    <glyph glyph-name="lacute" unicode="&#x13a;" horiz-adv-x="579" 
d="M700 1804l-397 -262l-45 62l377 301zM418 1434l-166 -1190q-12 -73 17.5 -107.5t103.5 -34.5h106l6 -98q-50 -20 -163 -20q-108 0 -163 63.5t-40 177.5l170 1209h129z" />
    <glyph glyph-name="Lcommaaccent" unicode="&#x13b;" horiz-adv-x="1036" 
d="M432 1413l-162 -1155q-9 -67 22 -106t101 -39h531l-4 -103q-182 -12 -553 -12q-121 0 -184 70t-46 194l160 1151h135zM510 -135h39q25 0 33 -10t4 -35l-17 -117q-14 -115 -92 -256l-59 21q39 122 55 208q-18 -1 -27.5 9.5t-7.5 29.5l17 109q5 25 15.5 33t39.5 8z" />
    <glyph glyph-name="lcommaaccent" unicode="&#x13c;" horiz-adv-x="579" 
d="M418 1434l-166 -1190q-12 -73 17.5 -107.5t103.5 -34.5h106l6 -98q-50 -20 -163 -20q-108 0 -163 63.5t-40 177.5l170 1209h129zM248 -135h39q25 0 33.5 -10t5.5 -35l-19 -117q-14 -111 -90 -256l-61 21q39 122 55 208q-18 -1 -27.5 9.5t-7.5 29.5l17 109q5 25 15.5 33
t39.5 8z" />
    <glyph glyph-name="Lcaron" unicode="&#x13d;" horiz-adv-x="1036" 
d="M432 1413l-162 -1155q-9 -67 22 -106t101 -39h531l-4 -103q-182 -12 -553 -12q-121 0 -184 70t-46 194l160 1151h135zM682 1411h39q25 0 33.5 -10t5.5 -35l-19 -117q-14 -111 -90 -256l-61 19q39 126 55 211q-18 -1 -27.5 9.5t-7.5 29.5l17 108q5 25 15.5 33t39.5 8z" />
    <glyph glyph-name="lcaron" unicode="&#x13e;" horiz-adv-x="579" 
d="M627 1434h39q24 0 32 -10.5t4 -34.5l-16 -117q-18 -118 -92 -256l-59 20q39 121 55 209q-20 -1 -29 9.5t-6 29.5l16 109q4 25 15.5 33t40.5 8zM418 1434l-166 -1190q-12 -73 17.5 -107.5t103.5 -34.5h106l6 -98q-50 -20 -163 -20q-108 0 -163 63.5t-40 177.5l170 1209
h129z" />
    <glyph glyph-name="Ldot" unicode="&#x13f;" horiz-adv-x="1036" 
d="M432 1413l-162 -1155q-9 -67 22 -106t101 -39h531l-4 -103q-182 -12 -553 -12q-121 0 -184 70t-46 194l160 1151h135zM791 688h-46q-44 0 -38 45l16 119q3 22 13.5 31.5t33.5 9.5h41q47 0 41 -45l-16 -119q-3 -22 -13 -31.5t-32 -9.5z" />
    <glyph glyph-name="ldot" unicode="&#x140;" horiz-adv-x="651" 
d="M418 1434l-166 -1190q-12 -73 17.5 -107.5t103.5 -34.5h106l6 -98q-50 -20 -163 -20q-108 0 -163 63.5t-40 177.5l170 1209h129zM621 662h-46q-44 0 -38 45l16 118q3 43 45 43h43q20 0 31 -12.5t8 -34.5l-14 -116q-3 -23 -13 -33t-32 -10z" />
    <glyph glyph-name="Lslash" unicode="&#x141;" horiz-adv-x="1036" 
d="M922 113l-4 -103q-182 -12 -553 -12q-120 0 -183 70t-45 194l60 434l-146 -57l8 84l150 61l88 629h135l-80 -573l269 108l-9 -84l-272 -110l-70 -496q-9 -67 22 -106t101 -39h529z" />
    <glyph glyph-name="lslash" unicode="&#x142;" horiz-adv-x="604" 
d="M322 750l-70 -506q-12 -73 17.5 -107.5t103.5 -34.5h106l6 -98q-50 -20 -163 -20q-108 0 -163 63.5t-40 177.5l65 469l-137 -55l10 84l140 57l92 654h129l-84 -598l284 112l-12 -84z" />
    <glyph glyph-name="Nacute" unicode="&#x143;" horiz-adv-x="1429" 
d="M1184 1759l-398 -262l-45 62l377 301zM1356 1413l-193 -1360q-6 -53 -59 -53h-135q-42 0 -60 47l-401 1075q-44 126 -55 166h-41q-5 -74 -19 -176l-153 -1112h-136l191 1360q5 28 19 40.5t42 12.5h129q47 0 62 -47l391 -1049q57 -163 66 -192h45q6 62 22 197l152 1091
h133z" />
    <glyph glyph-name="nacute" unicode="&#x144;" horiz-adv-x="1175" 
d="M588 1126l-45 64l377 299l67 -100zM328 991l-21 -225q143 126 263 189t229 63q130 0 192 -71.5t43 -205.5l-106 -741h-129l100 715q15 104 -17 147t-120 43q-94 0 -197 -56.5t-258 -180.5l-92 -668h-131l141 991h103z" />
    <glyph glyph-name="Ncommaaccent" unicode="&#x145;" horiz-adv-x="1429" 
d="M1356 1413l-193 -1360q-6 -53 -59 -53h-135q-42 0 -60 47l-401 1075q-44 126 -55 166h-41q-5 -74 -19 -176l-153 -1112h-136l191 1360q5 28 19 40.5t42 12.5h129q47 0 62 -47l391 -1049q57 -163 66 -192h45q6 62 22 197l152 1091h133zM625 -123h39q47 0 38 -45l-16 -117
q-16 -110 -92 -258l-62 21q41 119 56 209q-38 0 -35 39l18 108q5 25 16 34t38 9z" />
    <glyph glyph-name="ncommaaccent" unicode="&#x146;" horiz-adv-x="1175" 
d="M328 991l-21 -225q143 126 263 189t229 63q130 0 192 -71.5t43 -205.5l-106 -741h-129l100 715q15 104 -17 147t-120 43q-94 0 -197 -56.5t-258 -180.5l-92 -668h-131l141 991h103zM494 -123h38q46 0 37 -45l-16 -117q-17 -119 -92 -258l-60 21q41 128 56 209
q-20 0 -29 10.5t-6 28.5l16 108q5 25 16 34t40 9z" />
    <glyph glyph-name="Ncaron" unicode="&#x147;" horiz-adv-x="1429" 
d="M1223 1782l-312 -254h-94l-242 260l54 51l233 -207h17l301 207zM1356 1413l-193 -1360q-6 -53 -59 -53h-135q-42 0 -60 47l-401 1075q-44 126 -55 166h-41q-5 -74 -19 -176l-153 -1112h-136l191 1360q5 28 19 40.5t42 12.5h129q47 0 62 -47l391 -1049q57 -163 66 -192h45
q6 62 22 197l152 1091h133z" />
    <glyph glyph-name="ncaron" unicode="&#x148;" horiz-adv-x="1175" 
d="M618 1159l-241 260l53 49l234 -204h16l301 204l43 -57l-311 -252h-95zM328 991l-21 -225q143 126 263 189t229 63q130 0 192 -71.5t43 -205.5l-106 -741h-129l100 715q15 104 -17 147t-120 43q-94 0 -197 -56.5t-258 -180.5l-92 -668h-131l141 991h103z" />
    <glyph glyph-name="Eng" unicode="&#x14a;" horiz-adv-x="1429" 
d="M1356 1413l-226 -1593q-19 -131 -94.5 -199.5t-199.5 -66.5q-94 0 -166 20l22 84h107q183 0 207 176l24 166h-59q-26 0 -45 43l-418 1059q-35 86 -55 170h-39q-3 -50 -21 -170l-153 -1102h-136l191 1360q5 28 19 40.5t42 12.5h117q44 0 62 -47l403 -1030q58 -159 68 -191
h43q5 86 22 197l150 1071h135z" />
    <glyph glyph-name="eng" unicode="&#x14b;" horiz-adv-x="1175" 
d="M324 991l-17 -225q143 125 260 188.5t230 63.5q133 0 194.5 -71.5t42.5 -205.5l-123 -880q-22 -144 -90 -214.5t-190 -70.5q-65 0 -152 23l23 82h88q165 0 190 178l119 856q14 97 -18.5 139.5t-122.5 42.5q-51 0 -102.5 -15.5t-113.5 -52.5t-107 -68.5t-126 -92.5
l-94 -668h-131l141 991h99z" />
    <glyph glyph-name="Omacron" unicode="&#x14c;" horiz-adv-x="1359" 
d="M1108 1622h-557l12 100h559zM791 1438q119 0 204 -24.5t145 -78.5t87.5 -140t32.5 -209t-21 -286q-37 -274 -111 -430.5t-198.5 -225.5t-325.5 -69q-119 0 -203.5 24t-145.5 77.5t-89 139.5t-33.5 209.5t19.5 287.5q28 204 74 339.5t122.5 223t183 125t259.5 37.5z
M786 1319q-96 0 -166 -20t-124.5 -63t-93 -117t-65.5 -174.5t-48 -244.5q-34 -225 -12 -359.5t98.5 -190.5t230.5 -56q156 0 251.5 59t152 191t90.5 369q23 174 22.5 290t-39.5 186.5t-109.5 100t-187.5 29.5z" />
    <glyph glyph-name="omacron" unicode="&#x14d;" horiz-adv-x="1150" 
d="M944 1253h-559l14 101h557zM627 1018q249 0 339.5 -121.5t49.5 -407.5q-40 -284 -156.5 -399t-361.5 -115q-249 0 -340 120t-52 407q38 283 155 399.5t366 116.5zM627 905q-123 0 -197.5 -37t-119.5 -127t-68 -252q-26 -152 -6.5 -241.5t80 -125.5t182.5 -36
q182 0 266.5 90.5t118.5 325.5q25 153 5 242.5t-80 125t-181 35.5z" />
    <glyph glyph-name="Ohungarumlaut" unicode="&#x150;" horiz-adv-x="1359" 
d="M1255 1808l-307 -321l-57 47l280 336zM936 1808l-305 -321l-60 47l281 336zM791 1438q119 0 204 -24.5t145 -78.5t87.5 -140t32.5 -209t-21 -286q-37 -274 -111 -430.5t-198.5 -225.5t-325.5 -69q-119 0 -203.5 24t-145.5 77.5t-89 139.5t-33.5 209.5t19.5 287.5
q28 204 74 339.5t122.5 223t183 125t259.5 37.5zM786 1319q-96 0 -166 -20t-124.5 -63t-93 -117t-65.5 -174.5t-48 -244.5q-34 -225 -12 -359.5t98.5 -190.5t230.5 -56q156 0 251.5 59t152 191t90.5 369q23 174 22.5 290t-39.5 186.5t-109.5 100t-187.5 29.5z" />
    <glyph glyph-name="ohungarumlaut" unicode="&#x151;" horiz-adv-x="1150" 
d="M1092 1438l-308 -320l-57 45l281 336zM772 1438l-307 -320l-57 45l280 336zM627 1018q249 0 339.5 -121.5t49.5 -407.5q-40 -284 -156.5 -399t-361.5 -115q-249 0 -340 120t-52 407q38 283 155 399.5t366 116.5zM627 905q-123 0 -197.5 -37t-119.5 -127t-68 -252
q-26 -152 -6.5 -241.5t80 -125.5t182.5 -36q182 0 266.5 90.5t118.5 325.5q25 153 5 242.5t-80 125t-181 35.5z" />
    <glyph glyph-name="OE" unicode="&#x152;" horiz-adv-x="1859" 
d="M1845 1300h-551q-68 0 -110 -39t-51 -112l-50 -346h611l-15 -107h-610l-59 -438q-21 -145 123 -145h546l-4 -103q-182 -12 -561 -12q-108 0 -170 47q-89 -39 -160 -54.5t-174 -15.5q-128 0 -215.5 23.5t-148.5 76.5t-87 138.5t-29.5 209.5t22.5 290q30 209 76 344
t123 222t184.5 123t265.5 36q174 0 319 -64q65 41 158 41q400 0 586 -12zM872 256l129 930q9 51 33 98q-110 35 -235 35q-122 0 -205 -30t-143.5 -104t-97.5 -189.5t-62 -295.5q-23 -170 -21.5 -286t40.5 -187t111.5 -102t192.5 -31q86 0 142.5 10t124.5 33q-18 52 -9 119z
" />
    <glyph glyph-name="oe" unicode="&#x153;" horiz-adv-x="1865" 
d="M1655 113l10 -88q-64 -23 -183 -36.5t-214 -13.5q-146 0 -235 41.5t-128 130.5q-62 -91 -160 -131.5t-249 -40.5q-248 0 -339.5 120.5t-52.5 406.5q40 283 157 399.5t364 116.5q146 0 235.5 -39.5t130.5 -124.5q61 91 161.5 127.5t262.5 36.5q215 0 300.5 -74t53.5 -239
q-26 -134 -106.5 -192t-251.5 -73l-407 -39q-8 -123 21 -191.5t93 -95t178 -26.5q155 0 359 25zM496 86q183 0 268 90.5t117 325.5q15 117 12.5 194.5t-34.5 124t-87 65.5t-147 19q-123 0 -197.5 -37t-119.5 -127t-68 -252q-25 -152 -5.5 -241.5t80 -125.5t181.5 -36z
M1016 502l395 41q113 11 162.5 47t66.5 125q7 33 8 59t-5.5 45.5t-16 33.5t-28 23.5t-36.5 15.5t-46.5 8.5t-53 3.5t-61.5 1q-93 0 -151.5 -14t-105.5 -54.5t-75.5 -112t-48.5 -187.5z" />
    <glyph glyph-name="Racute" unicode="&#x154;" horiz-adv-x="1257" 
d="M670 1497l-45 62l376 301l68 -101zM104 0l199 1413q185 17 469 17q116 0 193 -19.5t129 -66t68.5 -126t0.5 -198.5q-25 -173 -98 -258t-217 -105l-2 -10q112 -34 143 -201l90 -446h-137l-86 446q-17 86 -59 122t-117 38q-63 1 -141 1.5t-129 1t-86 1.5l-86 -610h-134z
M338 723h336q173 2 250.5 66.5t101.5 236.5q24 167 -31.5 228t-224.5 61q-184 0 -348 -4z" />
    <glyph glyph-name="racute" unicode="&#x155;" horiz-adv-x="804" 
d="M469 1126l-45 64l377 299l65 -100zM324 991l-19 -233q273 260 473 260h47l-32 -123h-48q-87 0 -183 -54.5t-255 -178.5l-92 -662h-131l141 991h99z" />
    <glyph glyph-name="Rcommaaccent" unicode="&#x156;" horiz-adv-x="1257" 
d="M104 0l199 1413q185 17 469 17q116 0 193 -19.5t129 -66t68.5 -126t0.5 -198.5q-25 -173 -98 -258t-217 -105l-2 -10q112 -34 143 -201l90 -446h-137l-86 446q-17 86 -59 122t-117 38q-63 1 -141 1.5t-129 1t-86 1.5l-86 -610h-134zM338 723h336q173 2 250.5 66.5
t101.5 236.5q24 167 -31.5 228t-224.5 61q-184 0 -348 -4zM586 -123h39q46 0 37 -45l-17 -117q-14 -112 -92 -258l-59 21q39 121 55 209q-38 0 -35 39l16 108q5 25 16 34t40 9z" />
    <glyph glyph-name="rcommaaccent" unicode="&#x157;" horiz-adv-x="804" 
d="M825 1018l-32 -123h-48q-87 0 -183 -54.5t-255 -178.5l-92 -662h-131l141 991h99l-19 -233q273 260 473 260h47zM111 -123h39q24 0 32.5 -10.5t3.5 -34.5l-16 -117q-14 -112 -92 -258l-60 21q41 128 56 209q-38 0 -35 39l16 108q5 25 16 34t40 9z" />
    <glyph glyph-name="Rcaron" unicode="&#x158;" horiz-adv-x="1257" 
d="M700 1528l-241 260l53 51l233 -207h17l301 207l43 -57l-311 -254h-95zM104 0l199 1413q185 17 469 17q116 0 193 -19.5t129 -66t68.5 -126t0.5 -198.5q-25 -173 -98 -258t-217 -105l-2 -10q112 -34 143 -201l90 -446h-137l-86 446q-17 86 -59 122t-117 38q-63 1 -141 1.5
t-129 1t-86 1.5l-86 -610h-134zM338 723h336q173 2 250.5 66.5t101.5 236.5q24 167 -31.5 228t-224.5 61q-184 0 -348 -4z" />
    <glyph glyph-name="rcaron" unicode="&#x159;" horiz-adv-x="804" 
d="M500 1159l-242 260l53 49l234 -204h16l299 204l43 -57l-309 -252h-94zM324 991l-19 -233q273 260 473 260h47l-32 -123h-48q-87 0 -183 -54.5t-255 -178.5l-92 -662h-131l141 991h99z" />
    <glyph glyph-name="Sacute" unicode="&#x15a;" horiz-adv-x="1142" 
d="M1014 1759l-398 -262l-45 62l377 301zM705 600l-291 113q-147 58 -198 146t-32 237q9 66 27 117.5t41.5 87.5t58.5 61.5t71 40t86.5 22.5t97 10t110.5 1q222 0 405 -35l-16 -96q-228 12 -406 12q-35 0 -54.5 -0.5t-49 -2t-46 -4.5t-40.5 -9t-38 -15t-31.5 -21.5t-28 -30
t-22 -39.5t-18.5 -50.5t-12 -63.5q-12 -108 19.5 -159.5t136.5 -94.5l287 -110q157 -62 206.5 -146.5t28.5 -242.5q-11 -76 -31.5 -132.5t-53.5 -95t-72 -63t-97.5 -38t-119 -18t-146.5 -4.5q-221 0 -416 31l19 101q269 -13 407 -13q99 1 157.5 9t107 34t73.5 74.5t37 128.5
q10 79 -1.5 124.5t-46.5 74.5t-109 59z" />
    <glyph glyph-name="sacute" unicode="&#x15b;" horiz-adv-x="1030" 
d="M924 1389l-398 -263l-45 64l375 299zM612 391l-295 123q-109 47 -154.5 105t-31.5 169q9 59 31 100.5t54 67.5t82.5 40t107 18.5t135.5 3.5q204 -3 405 -31l-16 -92q-187 9 -385 12q-68 1 -104.5 -0.5t-74.5 -8t-56.5 -20.5t-32.5 -38t-19 -62q-10 -69 18.5 -101.5
t106.5 -64.5l297 -123q79 -33 121 -63.5t62.5 -81.5t10.5 -127q-7 -47 -21.5 -83t-35 -61.5t-52 -43.5t-64 -28.5t-80.5 -16t-92 -7.5t-107 -2q-33 0 -61 0.5t-57 2t-47 3t-49.5 5l-45 5t-54 6.5t-57.5 7l17 96q127 -14 329 -14q196 3 266 30t82 113q3 17 2.5 31t-2 25
t-7.5 21.5t-10.5 18t-16 16t-19 13.5t-24 12.5t-26.5 12t-30 12.5z" />
    <glyph glyph-name="Scedilla" unicode="&#x15e;" horiz-adv-x="1142" 
d="M705 600l-291 113q-147 58 -198 146t-32 237q9 66 27 117.5t41.5 87.5t58.5 61.5t71 40t86.5 22.5t97 10t110.5 1q222 0 405 -35l-16 -96q-228 12 -406 12q-35 0 -54.5 -0.5t-49 -2t-46 -4.5t-40.5 -9t-38 -15t-31.5 -21.5t-28 -30t-22 -39.5t-18.5 -50.5t-12 -63.5
q-12 -108 19.5 -159.5t136.5 -94.5l287 -110q157 -62 206.5 -146.5t28.5 -242.5q-11 -76 -31.5 -132.5t-53.5 -95t-72 -63t-97.5 -38t-119 -18t-146.5 -4.5q-221 0 -416 31l19 101q269 -13 407 -13q99 1 157.5 9t107 34t73.5 74.5t37 128.5q10 79 -1.5 124.5t-46.5 74.5
t-109 59zM401 -180l17 63q110 9 156.5 -22t31.5 -117q-19 -118 -116.5 -183t-235.5 -46l25 69q90 -3 154.5 44.5t76.5 119.5q6 42 -16 57t-93 15z" />
    <glyph glyph-name="scedilla" unicode="&#x15f;" horiz-adv-x="1030" 
d="M612 391l-295 123q-109 47 -154.5 105t-31.5 169q9 59 31 100.5t54 67.5t82.5 40t107 18.5t135.5 3.5q204 -3 405 -31l-16 -92q-187 9 -385 12q-68 1 -104.5 -0.5t-74.5 -8t-56.5 -20.5t-32.5 -38t-19 -62q-10 -69 18.5 -101.5t106.5 -64.5l297 -123q79 -33 121 -63.5
t62.5 -81.5t10.5 -127q-7 -47 -21.5 -83t-35 -61.5t-52 -43.5t-64 -28.5t-80.5 -16t-92 -7.5t-107 -2q-33 0 -61 0.5t-57 2t-47 3t-49.5 5l-45 5t-54 6.5t-57.5 7l17 96q127 -14 329 -14q196 3 266 30t82 113q3 17 2.5 31t-2 25t-7.5 21.5t-10.5 18t-16 16t-19 13.5
t-24 12.5t-26.5 12t-30 12.5zM334 -178l16 63q110 9 157 -22.5t32 -116.5q-20 -120 -117.5 -185t-235.5 -46l25 71q90 -3 154.5 44t76.5 118q6 43 -15 58t-93 16z" />
    <glyph glyph-name="Scaron" unicode="&#x160;" horiz-adv-x="1142" 
d="M1053 1782l-312 -254h-94l-241 260l53 51l233 -207h17l301 207zM705 600l-291 113q-147 58 -198 146t-32 237q9 66 27 117.5t41.5 87.5t58.5 61.5t71 40t86.5 22.5t97 10t110.5 1q222 0 405 -35l-16 -96q-228 12 -406 12q-35 0 -54.5 -0.5t-49 -2t-46 -4.5t-40.5 -9
t-38 -15t-31.5 -21.5t-28 -30t-22 -39.5t-18.5 -50.5t-12 -63.5q-12 -108 19.5 -159.5t136.5 -94.5l287 -110q157 -62 206.5 -146.5t28.5 -242.5q-11 -76 -31.5 -132.5t-53.5 -95t-72 -63t-97.5 -38t-119 -18t-146.5 -4.5q-221 0 -416 31l19 101q269 -13 407 -13
q99 1 157.5 9t107 34t73.5 74.5t37 128.5q10 79 -1.5 124.5t-46.5 74.5t-109 59z" />
    <glyph glyph-name="scaron" unicode="&#x161;" horiz-adv-x="1030" 
d="M961 1411l-310 -252h-94l-244 260l56 49l233 -204h16l300 204zM612 391l-295 123q-109 47 -154.5 105t-31.5 169q9 59 31 100.5t54 67.5t82.5 40t107 18.5t135.5 3.5q204 -3 405 -31l-16 -92q-187 9 -385 12q-68 1 -104.5 -0.5t-74.5 -8t-56.5 -20.5t-32.5 -38t-19 -62
q-10 -69 18.5 -101.5t106.5 -64.5l297 -123q79 -33 121 -63.5t62.5 -81.5t10.5 -127q-7 -47 -21.5 -83t-35 -61.5t-52 -43.5t-64 -28.5t-80.5 -16t-92 -7.5t-107 -2q-33 0 -61 0.5t-57 2t-47 3t-49.5 5l-45 5t-54 6.5t-57.5 7l17 96q127 -14 329 -14q196 3 266 30t82 113
q3 17 2.5 31t-2 25t-7.5 21.5t-10.5 18t-16 16t-19 13.5t-24 12.5t-26.5 12t-30 12.5z" />
    <glyph glyph-name="Tcedilla" unicode="&#x162;" horiz-adv-x="1163" 
d="M1217 1294h-472l-182 -1294h-135l182 1294h-469l19 119h1073zM383 -156l14 64q110 9 157 -22.5t34 -116.5q-20 -120 -117.5 -185.5t-234.5 -46.5l24 72q89 -3 154.5 44t77.5 118q6 43 -15.5 57t-93.5 16z" />
    <glyph glyph-name="tcedilla" unicode="&#x163;" horiz-adv-x="747" 
d="M403 889l-90 -645q-10 -75 19 -108.5t104 -33.5h164l6 -98q-90 -20 -207 -20q-123 0 -177.5 64.5t-37.5 184.5l92 656h-182l12 92l185 10l43 301h127l-41 -301h334l-17 -102h-334zM229 -172l15 63q109 9 156 -22.5t34 -116.5q-20 -119 -117.5 -183.5t-234.5 -45.5l24 69
q89 -3 154.5 44.5t77.5 119.5q6 41 -15.5 56t-93.5 16z" />
    <glyph glyph-name="Tcaron" unicode="&#x164;" horiz-adv-x="1163" 
d="M670 1528l-244 260l55 51l234 -207h16l299 207l43 -57l-309 -254h-94zM1217 1294h-472l-182 -1294h-135l182 1294h-469l19 119h1073z" />
    <glyph glyph-name="tcaron" unicode="&#x165;" horiz-adv-x="747" 
d="M635 1143l-60 20q41 128 56 209q-19 -1 -28.5 9.5t-6.5 29.5l16 109q4 25 15.5 33t40.5 8h39q25 0 33 -10t3 -35l-16 -117q-14 -111 -92 -256zM403 889l-90 -645q-10 -75 19 -108.5t104 -33.5h164l6 -98q-90 -20 -207 -20q-123 0 -177.5 64.5t-37.5 184.5l92 656h-182
l12 92l185 10l43 301h127l-41 -301h334l-17 -102h-334z" />
    <glyph glyph-name="Tbar" unicode="&#x166;" horiz-adv-x="1163" 
d="M745 1294l-61 -434h309l-10 -80h-309l-111 -780h-135l111 780h-281l10 80h281l61 434h-469l19 119h1073l-16 -119h-472z" />
    <glyph glyph-name="tbar" unicode="&#x167;" horiz-adv-x="747" 
d="M403 889l-28 -207h293l-11 -78h-292l-52 -360q-10 -75 19 -108.5t104 -33.5h164l6 -98q-90 -20 -207 -20q-123 0 -177.5 64.5t-37.5 184.5l52 371h-138l11 78h139l28 207h-182l12 92l185 10l43 301h127l-41 -301h334l-17 -102h-334z" />
    <glyph glyph-name="Umacron" unicode="&#x16a;" horiz-adv-x="1361" 
d="M1106 1622h-557l12 100h559zM1298 1413l-124 -881q-43 -304 -172 -430.5t-394 -126.5q-272 0 -376 131t-62 433l123 874h135l-125 -881q-26 -162 -1.5 -259.5t95.5 -138t207 -40.5q205 0 303.5 100t132.5 345l123 874h135z" />
    <glyph glyph-name="umacron" unicode="&#x16b;" 
d="M946 1257h-557l12 101h560zM1040 991l-139 -991h-100l20 231q-133 -130 -247.5 -193t-225.5 -63q-134 0 -194 71.5t-41 203.5l104 741h131l-102 -712q-15 -101 19 -146t124 -45q94 0 189 58.5t243 193.5l90 651h129z" />
    <glyph glyph-name="Uring" unicode="&#x16e;" horiz-adv-x="1361" 
d="M848 1882q94 0 151 -61.5t45 -153.5q-9 -84 -70.5 -142.5t-154.5 -58.5q-95 0 -150 61t-44 152q9 85 70 144t153 59zM850 1810q-61 0 -101.5 -39t-46.5 -98q-7 -60 27 -97.5t92 -37.5q59 0 99.5 39.5t46.5 99.5q6 58 -26 95.5t-91 37.5zM1298 1413l-124 -881
q-43 -304 -172 -430.5t-394 -126.5q-272 0 -376 131t-62 433l123 874h135l-125 -881q-26 -162 -1.5 -259.5t95.5 -138t207 -40.5q205 0 303.5 100t132.5 345l123 874h135z" />
    <glyph glyph-name="uring" unicode="&#x16f;" 
d="M659 1102q-95 0 -150 61t-44 152q9 85 70 144t153 59q94 0 151.5 -61.5t45.5 -153.5q-9 -83 -71 -142t-155 -59zM543 1307q-7 -59 27 -96t92 -37q59 0 99 39.5t46 99.5q6 57 -26 95t-91 38q-61 0 -101 -40t-46 -99zM1040 991l-139 -991h-100l20 231
q-133 -130 -247.5 -193t-225.5 -63q-134 0 -194 71.5t-41 203.5l104 741h131l-102 -712q-15 -101 19 -146t124 -45q94 0 189 58.5t243 193.5l90 651h129z" />
    <glyph glyph-name="Uhungarumlaut" unicode="&#x170;" horiz-adv-x="1361" 
d="M1253 1808l-307 -321l-57 47l280 336zM934 1808l-305 -321l-60 47l281 336zM1298 1413l-124 -881q-43 -304 -172 -430.5t-394 -126.5q-272 0 -376 131t-62 433l123 874h135l-125 -881q-26 -162 -1.5 -259.5t95.5 -138t207 -40.5q205 0 303.5 100t132.5 345l123 874h135z
" />
    <glyph glyph-name="uhungarumlaut" unicode="&#x171;" 
d="M469 1122l-59 47l280 336l84 -63zM729 1169l281 336l84 -63l-308 -320zM911 991h129l-139 -991h-100l20 231q-133 -130 -247.5 -193t-225.5 -63q-134 0 -194 71.5t-41 203.5l104 741h131l-102 -712q-15 -101 19 -146t124 -45q94 0 189 58.5t243 193.5z" />
    <glyph glyph-name="Uogonek" unicode="&#x172;" horiz-adv-x="1361" 
d="M1298 1413l-124 -881q-40 -285 -155.5 -414.5t-346.5 -142.5q-122 -119 -187 -241q-42 -79 0.5 -103.5t151.5 11.5l14 -58q-73 -30 -131.5 -37t-92.5 6.5t-51 41t-14 66t25 81.5q62 118 209 233q-265 2 -366.5 134t-59.5 430l123 874h135l-125 -881q-26 -162 -1.5 -259.5
t95.5 -138t207 -40.5q205 0 303.5 100t132.5 345l123 874h135z" />
    <glyph glyph-name="uogonek" unicode="&#x173;" 
d="M1040 991l-139 -991q-127 -124 -192 -248q-42 -79 -0.5 -103.5t149.5 11.5l16 -57q-73 -30 -131.5 -37.5t-92.5 6.5t-51 41t-14 65.5t25 81.5q61 122 219 240h-28l20 231q-133 -130 -247.5 -193t-225.5 -63q-134 0 -194 71.5t-41 203.5l104 741h131l-102 -712
q-15 -101 19 -146t124 -45q94 0 189 58.5t243 193.5l90 651h129z" />
    <glyph glyph-name="Wcircumflex" unicode="&#x174;" horiz-adv-x="1918" 
d="M1423 1563l-51 -54l-242 207h-16l-303 -205l-39 58l305 254h94zM1970 1413l-512 -1374q-14 -39 -59 -39h-160q-21 0 -35 13t-16 34l-96 1106l-13 156h-47l-57 -162l-402 -1106q-15 -41 -59 -41h-160q-21 0 -36 13t-17 32l-129 1368h137l99 -1149q4 -50 8 -162h53l57 166
l402 1102q16 43 59 43h154q20 0 33.5 -14t15.5 -35l104 -1100q10 -140 11 -162h53l55 166l416 1145h141z" />
    <glyph glyph-name="wcircumflex" unicode="&#x175;" horiz-adv-x="1714" 
d="M1274 1194l-51 -53l-242 207h-16l-303 -205l-39 57l307 254h92zM389 104h27q26 0 45.5 12.5t42.5 49.5q64 98 137 293q78 212 137 499q1 17 12.5 26t26.5 7h141q15 0 25.5 -9.5t13.5 -23.5l113 -854h25q44 0 82 58q105 158 161 297q99 217 160 532h135
q-77 -337 -194 -588q-108 -224 -189 -323q-33 -42 -65.5 -61t-81.5 -19h-88q-18 0 -30.5 11t-14.5 26l-113 866h-23q-13 -88 -48 -224.5t-78 -252.5q-32 -89 -78.5 -183t-83.5 -145q-58 -98 -174 -98h-80q-18 0 -30 10.5t-15 26.5l-185 954h134z" />
    <glyph glyph-name="Ycircumflex" unicode="&#x176;" horiz-adv-x="1134" 
d="M418 1511l-41 60l307 252h92l252 -260l-51 -54l-242 209h-16zM616 506l-69 -506h-135l71 510l-346 903h137l236 -631q28 -73 47 -151h14q28 60 88 157l412 625h148z" />
    <glyph glyph-name="ycircumflex" unicode="&#x177;" horiz-adv-x="1083" 
d="M313 1143l-39 57l306 254h94l252 -260l-52 -53l-241 207h-19zM911 991h136q-116 -474 -332 -841q-159 -277 -299 -408t-318 -166l-22 90q118 33 215.5 111t195.5 223h-84q-41 0 -70.5 24t-37.5 62l-197 905h138l170 -844q10 -43 51 -43h96l47 82q111 197 183 384t128 421
z" />
    <glyph glyph-name="Ydieresis" unicode="&#x178;" horiz-adv-x="1134" 
d="M545 1579h-41q-21 0 -29.5 9t-7.5 30l18 113q3 22 13 31.5t32 9.5h41q23 0 30.5 -9.5t4.5 -31.5l-16 -111q-3 -22 -13 -31.5t-32 -9.5zM897 1579h-41q-21 0 -29.5 9t-7.5 30l19 113q3 41 45 41h41q23 0 30 -9.5t4 -31.5l-16 -111q-3 -22 -13 -31.5t-32 -9.5zM616 506
l-69 -506h-135l71 510l-346 903h137l236 -631q28 -73 47 -151h14q28 60 88 157l412 625h148z" />
    <glyph glyph-name="Zacute" unicode="&#x179;" horiz-adv-x="1144" 
d="M633 1497l-45 62l375 301l67 -101zM1153 1413l-18 -115l-955 -1183h803l-18 -115h-951l17 115l954 1183h-780l16 115h932z" />
    <glyph glyph-name="zacute" unicode="&#x17a;" horiz-adv-x="1017" 
d="M502 1126l-45 64l374 299l68 -100zM954 885l-770 -776h666l-14 -109h-820l13 109l770 776h-652l15 106h807z" />
    <glyph glyph-name="Zdotaccent" unicode="&#x17b;" horiz-adv-x="1144" 
d="M737 1565h-43q-45 0 -39 47l15 117q6 43 45 43h45q21 0 31.5 -13t7.5 -35l-17 -116q-3 -23 -13 -33t-32 -10zM1153 1413l-18 -115l-955 -1183h803l-18 -115h-951l17 115l954 1183h-780l16 115h932z" />
    <glyph glyph-name="zdotaccent" unicode="&#x17c;" horiz-adv-x="1017" 
d="M606 1196h-43q-44 0 -41 45l17 119q3 22 13 31.5t32 9.5h45q21 0 31.5 -12t7.5 -33l-17 -119q-3 -22 -13 -31.5t-32 -9.5zM954 885l-770 -776h666l-14 -109h-820l13 109l770 776h-652l15 106h807z" />
    <glyph glyph-name="Zcaron" unicode="&#x17d;" horiz-adv-x="1144" 
d="M664 1528l-244 260l53 51l236 -207h16l299 207l43 -57l-309 -254h-94zM1153 1413l-18 -115l-955 -1183h803l-18 -115h-951l17 115l954 1183h-780l16 115h932z" />
    <glyph glyph-name="zcaron" unicode="&#x17e;" horiz-adv-x="1017" 
d="M530 1159l-241 260l53 49l233 -204h17l301 204l43 -57l-309 -252h-97zM954 885l-770 -776h666l-14 -109h-820l13 109l770 776h-652l15 106h807z" />
    <glyph glyph-name="florin" unicode="&#x192;" horiz-adv-x="872" 
d="M344 805l82 346q32 142 112.5 212.5t223.5 70.5q109 0 192 -13l-24 -98h-142q-105 0 -158 -41.5t-77 -148.5l-78 -328h309l-24 -105h-309l-166 -706q-34 -142 -109 -211.5t-213 -69.5q-126 0 -190 13l22 96h137q98 0 149.5 43.5t76.5 146.5l161 688h-198l20 93z" />
    <glyph glyph-name="Scommaaccent" unicode="&#x218;" horiz-adv-x="1142" 
d="M705 600l-291 113q-147 58 -198 146t-32 237q9 66 27 117.5t41.5 87.5t58.5 61.5t71 40t86.5 22.5t97 10t110.5 1q222 0 405 -35l-16 -96q-228 12 -406 12q-35 0 -54.5 -0.5t-49 -2t-46 -4.5t-40.5 -9t-38 -15t-31.5 -21.5t-28 -30t-22 -39.5t-18.5 -50.5t-12 -63.5
q-12 -108 19.5 -159.5t136.5 -94.5l287 -110q157 -62 206.5 -146.5t28.5 -242.5q-11 -76 -31.5 -132.5t-53.5 -95t-72 -63t-97.5 -38t-119 -18t-146.5 -4.5q-221 0 -416 31l19 101q269 -13 407 -13q99 1 157.5 9t107 34t73.5 74.5t37 128.5q10 79 -1.5 124.5t-46.5 74.5
t-109 59zM512 -123h39q24 0 33 -10.5t6 -34.5l-17 -117q-16 -110 -92 -258l-61 21q39 114 55 209q-38 0 -35 39l19 108q5 26 15 34.5t38 8.5z" />
    <glyph glyph-name="scommaaccent" unicode="&#x219;" horiz-adv-x="1030" 
d="M612 391l-295 123q-109 47 -154.5 105t-31.5 169q9 59 31 100.5t54 67.5t82.5 40t107 18.5t135.5 3.5q204 -3 405 -31l-16 -92q-187 9 -385 12q-68 1 -104.5 -0.5t-74.5 -8t-56.5 -20.5t-32.5 -38t-19 -62q-10 -69 18.5 -101.5t106.5 -64.5l297 -123q79 -33 121 -63.5
t62.5 -81.5t10.5 -127q-7 -47 -21.5 -83t-35 -61.5t-52 -43.5t-64 -28.5t-80.5 -16t-92 -7.5t-107 -2q-33 0 -61 0.5t-57 2t-47 3t-49.5 5l-45 5t-54 6.5t-57.5 7l17 96q127 -14 329 -14q196 3 266 30t82 113q3 17 2.5 31t-2 25t-7.5 21.5t-10.5 18t-16 16t-19 13.5
t-24 12.5t-26.5 12t-30 12.5zM422 -123h39q46 0 37 -45l-17 -117q-17 -119 -92 -258l-59 21q39 121 55 209q-20 0 -29 10.5t-6 28.5l17 108q5 25 15.5 34t39.5 9z" />
    <glyph glyph-name="uni021A" unicode="&#x21a;" horiz-adv-x="1163" 
d="M1217 1294h-472l-182 -1294h-135l182 1294h-469l19 119h1073zM463 -123h39q46 0 37 -45l-17 -117q-14 -112 -92 -258l-59 21q39 121 55 209q-38 0 -35 39l17 108q5 25 15.5 34t39.5 9z" />
    <glyph glyph-name="uni021B" unicode="&#x21b;" horiz-adv-x="747" 
d="M403 889l-90 -645q-10 -75 19 -108.5t104 -33.5h164l6 -98q-90 -20 -207 -20q-123 0 -177.5 64.5t-37.5 184.5l92 656h-182l12 92l185 10l43 301h127l-41 -301h334l-17 -102h-334zM344 -123h39q46 0 37 -45l-17 -117q-17 -119 -92 -258l-59 21q39 121 55 209
q-20 0 -29 10.5t-6 28.5l17 108q5 25 15.5 34t39.5 9z" />
    <glyph glyph-name="circumflex" unicode="&#x2c6;" horiz-adv-x="839" 
d="M850 1194l-49 -53l-242 207h-18l-301 -205l-39 57l305 254h94z" />
    <glyph glyph-name="caron" unicode="&#x2c7;" horiz-adv-x="839" 
d="M872 1411l-309 -252h-96l-242 258l54 51l233 -204h16l301 204z" />
    <glyph glyph-name="breve" unicode="&#x2d8;" horiz-adv-x="753" 
d="M733 1423l70 -18q-12 -116 -99.5 -185t-224.5 -69q-144 0 -218 71.5t-52 188.5l72 6q-10 -79 43 -122.5t155 -43.5q108 0 176.5 46.5t77.5 125.5z" />
    <glyph glyph-name="dotaccent" unicode="&#x2d9;" horiz-adv-x="440" 
d="M322 1397h43q47 0 41 -45l-17 -119q-3 -22 -13.5 -31.5t-33.5 -9.5h-41q-47 0 -41 45l16 119q3 22 13 31.5t33 9.5z" />
    <glyph glyph-name="ring" unicode="&#x2da;" horiz-adv-x="608" 
d="M432 1513q94 0 150.5 -61.5t46.5 -153.5q-11 -83 -72.5 -141.5t-153.5 -58.5q-95 0 -150 61t-44 152q9 85 70 143.5t153 58.5zM432 1442q-60 0 -99.5 -40t-45.5 -99q-7 -59 27 -96.5t92 -37.5q59 0 99 40t46 100q6 57 -26.5 95t-92.5 38z" />
    <glyph glyph-name="ogonek" unicode="&#x2db;" horiz-adv-x="516" 
d="M223 4l66 -4q-124 -121 -193 -248q-42 -79 0.5 -103.5t151.5 11.5l16 -57q-74 -30 -132.5 -37t-93 6.5t-51.5 40.5t-14 65.5t25 81.5q63 122 225 244z" />
    <glyph glyph-name="tilde" unicode="&#x2dc;" horiz-adv-x="843" 
d="M272 1204l-63 6q6 109 56 164t124 49q43 -3 82 -21.5t64 -39t61.5 -39.5t73.5 -23q61 -6 91.5 22t39.5 93l65 -4q-6 -105 -55.5 -159t-124.5 -48q-48 3 -90.5 22t-68.5 40t-59.5 40t-64.5 23q-60 6 -91 -25.5t-40 -99.5z" />
    <glyph glyph-name="hungarumlaut" unicode="&#x2dd;" horiz-adv-x="899" 
d="M895 1421l-307 -319l-58 45l281 336zM575 1421l-307 -319l-57 45l281 336z" />
    <glyph glyph-name="Delta" unicode="&#x394;" horiz-adv-x="1271" 
d="M1139 66l-9 -66h-1153l9 66l698 1347h137zM995 111l-231 1022q-23 112 -27 147q-50 -115 -69 -154l-518 -1015h845z" />
    <glyph glyph-name="Omega" unicode="&#x3a9;" horiz-adv-x="1464" 
d="M39 119h233q71 0 134 -8q-141 122 -196 274.5t-22 372.5q47 345 204 512.5t454 167.5q292 0 408.5 -173.5t68.5 -521.5q-33 -232 -124 -374.5t-273 -257.5q60 8 127 8h239l-16 -119h-496l13 115q183 114 270.5 256.5t118.5 369.5q43 304 -36.5 441t-303.5 137
q-234 0 -353.5 -140t-164.5 -454q-11 -80 -13 -145.5t6.5 -121t24.5 -101t44.5 -88.5t63 -79.5t82.5 -76.5l-12 -113h-495z" />
    <glyph glyph-name="mu" unicode="&#x3bc;" horiz-adv-x="1198" 
d="M1065 991l-141 -991h-99l9 160q-248 -185 -439 -185q-118 0 -188 64q3 -80 -6 -160l-43 -297h-117l96 686l103 723h129l-103 -712q-12 -95 27 -138t133 -43q88 0 178.5 36.5t226.5 119.5l103 737h131z" />
    <glyph glyph-name="pi" unicode="&#x3c0;" horiz-adv-x="1306" 
d="M1292 887h-205l-124 -887h-129l124 887h-528l-125 -887h-129l125 887h-205l15 104h1196z" />
    <glyph glyph-name="uni0401" unicode="&#x401;" horiz-adv-x="1136" 
d="M614 1624h-43q-21 0 -29 9t-5 30l16 113q3 22 13 31.5t32 9.5h41q24 0 32 -9.5t5 -31.5l-19 -111q-3 -41 -43 -41zM967 1624h-43q-21 0 -29.5 9t-7.5 30l18 113q3 22 13 31.5t32 9.5h41q24 0 31 -9t4 -32l-16 -111q-3 -41 -43 -41zM1120 1300h-569q-146 0 -164 -151
l-49 -348h633l-15 -105h-632l-60 -438q-21 -145 123 -145h565v-103q-188 -12 -583 -12q-130 0 -193.5 69.5t-48.5 188.5l131 930q14 106 85 167.5t189 61.5q417 0 607 -12z" />
    <glyph glyph-name="uni0402" unicode="&#x402;" horiz-adv-x="1527" 
d="M745 1294l-75 -546q122 83 230 117t222 34q65 0 115 -13t91.5 -43.5t63 -80.5t29.5 -123.5t-8 -173.5q-19 -134 -68.5 -228t-126.5 -147.5t-172.5 -75.5t-218.5 -18l-4 96q106 7 178.5 26.5t131.5 60.5t94 111t51 175q10 65 10.5 115t-9.5 84t-26.5 57t-42.5 36t-55 18
t-68 5q-118 0 -210.5 -33.5t-223.5 -117.5l-90 -629h-133l182 1294h-469l17 119h1073l-14 -119h-474z" />
    <glyph glyph-name="uni0403" unicode="&#x403;" horiz-adv-x="1054" 
d="M1057 1759l-398 -262l-45 62l377 301zM100 0l164 1171q17 120 88.5 182t177.5 62q402 0 590 -12l-18 -103h-535q-79 0 -120.5 -36t-53.5 -121l-160 -1143h-133z" />
    <glyph glyph-name="uni0404" unicode="&#x404;" horiz-adv-x="1167" 
d="M1182 1399l-25 -103q-176 21 -330 21q-124 0 -207.5 -23t-147.5 -82t-104 -158t-67 -253h619l-15 -105h-620q-19 -140 -19 -237.5t18.5 -168t61.5 -111.5t107 -61t159 -22q186 -5 385 25l11 -103q-184 -48 -396 -43q-159 4 -259.5 45t-156 129t-63.5 226.5t17 337.5
q29 209 78 346.5t130 222.5t191 120.5t268 35.5q206 0 365 -39z" />
    <glyph glyph-name="uni0405" unicode="&#x405;" horiz-adv-x="1142" 
d="M705 600l-291 113q-147 58 -198 146t-32 237q9 66 27 117.5t41.5 87.5t58.5 61.5t71 40t86.5 22.5t97 10t110.5 1q222 0 405 -35l-16 -96q-228 12 -406 12q-35 0 -54.5 -0.5t-49 -2t-46 -4.5t-40.5 -9t-38 -15t-31.5 -21.5t-28 -30t-22 -39.5t-18.5 -50.5t-12 -63.5
q-12 -108 19.5 -159.5t136.5 -94.5l287 -110q157 -62 206.5 -146.5t28.5 -242.5q-11 -76 -31.5 -132.5t-53.5 -95t-72 -63t-97.5 -38t-119 -18t-146.5 -4.5q-221 0 -416 31l19 101q269 -13 407 -13q99 1 157.5 9t107 34t73.5 74.5t37 128.5q10 79 -1.5 124.5t-46.5 74.5
t-109 59z" />
    <glyph glyph-name="uni0406" unicode="&#x406;" horiz-adv-x="509" 
d="M240 0h-136l199 1413h135z" />
    <glyph glyph-name="uni0407" unicode="&#x407;" horiz-adv-x="512" 
d="M223 1772h41q24 0 32 -9.5t5 -31.5l-18 -111q-2 -22 -11.5 -31.5t-31.5 -9.5h-43q-40 0 -35 39l16 113q3 22 13 31.5t32 9.5zM575 1772h41q24 0 32 -9.5t5 -31.5l-18 -111q-3 -41 -43 -41h-43q-21 0 -29.5 9t-7.5 30l18 113q3 22 13 31.5t32 9.5zM240 0h-136l199 1413
h135z" />
    <glyph glyph-name="uni0408" unicode="&#x408;" horiz-adv-x="681" 
d="M614 1413l-159 -1141q-41 -288 -299 -288q-91 0 -170 22l26 92h105q177 0 205 176l157 1139h135z" />
    <glyph glyph-name="uni0409" unicode="&#x409;" horiz-adv-x="1984" 
d="M1147 823h317q250 0 339 -96.5t55 -331.5q-16 -122 -49.5 -201t-93 -126t-140 -65.5t-199.5 -18.5q-308 0 -479 16l184 1303h-274q-83 0 -124.5 -34.5t-61.5 -125.5q-8 -37 -23 -105q-35 -161 -51.5 -232.5t-42.5 -172t-47 -153.5t-51.5 -114.5t-69.5 -117.5
q-145 -219 -350 -250l-6 119q131 36 237 180q89 127 131.5 270.5t143.5 606.5q29 126 96.5 182.5t185.5 56.5h455zM1130 711l-86 -607q80 -2 275 -2q89 0 146.5 7t104.5 25.5t75.5 54t47.5 87.5t31 132q18 110 0.5 177.5t-80 96.5t-188.5 29h-326z" />
    <glyph glyph-name="uni040A" unicode="&#x40a;" horiz-adv-x="2002" 
d="M1163 821h320q250 0 338.5 -96t54.5 -330q-21 -162 -77 -251.5t-150.5 -124.5t-253.5 -35q-309 0 -480 16l99 707h-674l-98 -707h-136l199 1413h135l-84 -594h674l84 594h133zM1147 709l-84 -605q78 -2 313 -2q187 0 263.5 62.5t103.5 243.5q18 109 0.5 176t-80 96
t-188.5 29h-328z" />
    <glyph glyph-name="uni040B" unicode="&#x40b;" horiz-adv-x="1587" 
d="M745 1294l-79 -569q260 174 522 174q162 0 231 -78t47 -237l-82 -584h-135l80 565q15 116 -26.5 164.5t-157.5 48.5q-128 0 -237 -38.5t-261 -135.5l-84 -604h-135l182 1294h-469l19 119h1073l-16 -119h-472z" />
    <glyph glyph-name="uni040C" unicode="&#x40c;" horiz-adv-x="1202" 
d="M676 1497l-45 62l377 301l65 -101zM651 739l-4 -6q39 -4 73 -17.5t61.5 -32t52 -49t43.5 -60.5t37.5 -76t31.5 -85.5t29 -99.5t27.5 -107t27.5 -118q14 -59 21 -90l-138 4q-67 287 -76 319q-56 202 -132 281t-203 80h-178q0 -66 -13 -162l-73 -520h-134l199 1413h133
l-63 -459q-17 -101 -33 -161h170q70 0 134 31t113.5 79t102.5 127.5t93 153t95 178.5q18 35 27 53l139 -4q-137 -270 -192 -359q-130 -214 -258 -280q-55 -27 -113 -33z" />
    <glyph glyph-name="uni040D" unicode="&#x40d;" horiz-adv-x="1404" 
d="M928 1556l-51 -59l-342 266l75 95zM1130 0h-129l146 1034q6 40 35 205l-6 -2q-10 -16 -29 -46t-34.5 -53.5t-29.5 -41.5l-833 -1096h-146l199 1413h131l-145 -1030q-18 -128 -37 -209l6 2q54 83 102 150l826 1087h143z" />
    <glyph glyph-name="uni040E" unicode="&#x40e;" horiz-adv-x="1130" 
d="M954 1806l70 -18q-10 -117 -98 -185.5t-226 -68.5q-144 0 -217 71.5t-51 188.5l70 6q-10 -79 43 -122.5t155 -43.5q108 0 176.5 46.5t77.5 125.5zM1208 1413l-538 -1075q-41 -80 -70.5 -130.5t-72.5 -105t-92.5 -82.5t-106.5 -32q-51 -4 -119.5 4t-114.5 22l21 97
q71 -8 112.5 -11t82 5.5t61.5 19.5t51 47t49.5 69.5t58.5 104.5l37 68h-78q-97 0 -116 92l-209 907h135l186 -852q9 -33 45 -33h95l440 885h143z" />
    <glyph glyph-name="uni040F" unicode="&#x40f;" horiz-adv-x="1374" 
d="M1300 1413l-198 -1413h-428l-49 -309h-95l35 309h-459l199 1413h135l-184 -1302h727l182 1302h135z" />
    <glyph glyph-name="uni0410" unicode="&#x410;" horiz-adv-x="1253" 
d="M924 467h-617l-219 -467h-143l665 1378q14 35 56 35h153q19 0 33.5 -12t15.5 -29l281 -1372h-135zM901 586l-117 604q-3 21 -9 60t-9 59h-61q-35 -76 -56 -119l-284 -604h536z" />
    <glyph glyph-name="uni0411" unicode="&#x411;" horiz-adv-x="1216" 
d="M422 1303l-72 -515h330q172 0 264.5 -40t123.5 -127.5t9 -239.5q-17 -120 -50 -196t-93 -121t-139.5 -62.5t-200.5 -17.5q-314 0 -490 16l199 1413q176 10 422 10q189 0 424 -10l-27 -110h-700zM334 680l-80 -578q160 -4 326 -4q95 0 155.5 12.5t104 46.5t66.5 90.5
t36 147.5q19 107 0.5 170.5t-80 89t-188.5 25.5h-340z" />
    <glyph glyph-name="uni0412" unicode="&#x412;" horiz-adv-x="1259" 
d="M104 0l199 1413q166 17 434 17q130 0 213.5 -17.5t136.5 -60.5t68 -115t0 -182q-22 -153 -89 -229.5t-194 -88.5l-2 -10q149 -12 201.5 -109t26.5 -272q-16 -110 -48 -179.5t-92 -110.5t-141 -56.5t-207 -15.5q-328 0 -506 16zM348 784h330q88 1 145.5 13t100 42.5
t65.5 81.5t35 132q9 46 6.5 82.5t-7.5 64t-23 47.5t-40 33t-57.5 21t-76 11t-95.5 3q-233 0 -309 -2zM332 680l-80 -578q168 -4 342 -4q191 0 270.5 57.5t102.5 221.5q7 52 7 92t-6.5 72t-23 54.5t-39.5 39t-58 26t-77 14t-98 5.5h-340z" />
    <glyph glyph-name="uni0413" unicode="&#x413;" horiz-adv-x="1054" 
d="M100 0l164 1171q17 120 88.5 182t177.5 62q402 0 590 -12l-18 -103h-535q-79 0 -120.5 -36t-53.5 -121l-160 -1143h-133z" />
    <glyph glyph-name="uni0414" unicode="&#x414;" horiz-adv-x="1382" 
d="M1249 111l-12 -97l-45 -323h-102l28 309h-1038l-60 -309h-102l43 309l14 111h125q143 220 230 483t143 580q42 239 283 239h506l-183 -1302h170zM944 111l168 1192h-332q-78 0 -120.5 -36t-57.5 -122q-61 -320 -141 -572t-213 -462h696z" />
    <glyph glyph-name="uni0415" unicode="&#x415;" horiz-adv-x="1136" 
d="M1120 1300h-569q-146 0 -164 -151l-49 -348h633l-15 -105h-632l-60 -438q-21 -145 123 -145h565v-103q-188 -12 -583 -12q-130 0 -193.5 69.5t-48.5 188.5l131 930q14 106 85 167.5t189 61.5q417 0 607 -12z" />
    <glyph glyph-name="uni0416" unicode="&#x416;" horiz-adv-x="1839" 
d="M1327 739v-6q126 -17 199 -157q56 -107 114 -375q9 -39 26 -123l17 -78h-133q-8 38 -24 110q-21 98 -31.5 145t-30 121.5t-35 109t-41 80.5t-52.5 65.5t-64.5 35t-83.5 15.5h-195q-4 -109 -12 -162l-72 -520h-129l74 524q12 74 33 158h-187q-144 0 -254 -124
q-84 -95 -203 -337q-17 -32 -108 -221h-143q148 320 212 430q114 198 231 265q62 35 134 42l2 6q-43 6 -80.5 29t-65 54t-53 83.5t-43 99.5t-36.5 121.5t-31.5 130t-30.5 142.5q-1 7 -2 10h131q5 -21 14 -63q22 -100 34 -149.5t34.5 -128t44.5 -117.5t54 -83t73.5 -61.5
t92.5 -17.5h196q0 77 12 168l64 452h129l-66 -459q-13 -97 -30 -161h182q35 0 69 10.5t62 25.5t59.5 45.5t54 55.5t53 73t49.5 79.5t50.5 92t48.5 95t51 104.5q13 26 19 39h137q-127 -271 -163 -339q-117 -218 -230 -290q-61 -38 -127 -45z" />
    <glyph glyph-name="uni0417" unicode="&#x417;" horiz-adv-x="1116" 
d="M223 1298l-6 101q171 31 375 31q125 0 207.5 -18t137 -60.5t71.5 -115t2 -181.5q-22 -153 -88.5 -229.5t-194.5 -88.5l-4 -10q148 -13 200.5 -108.5t26.5 -272.5q-15 -109 -45.5 -177.5t-89 -110.5t-140.5 -58t-208 -16q-279 0 -467 41l18 96q275 -25 428 -25
q187 0 267 57.5t104 223.5q24 176 -39 238.5t-254 62.5h-229l14 108h223q171 0 246 56t96 211q7 48 7 84t-6.5 64t-22.5 47.5t-38.5 33.5t-57 21.5t-75 10.5t-95.5 3q-74 0 -144.5 -3.5t-135 -9t-83.5 -6.5z" />
    <glyph glyph-name="uni0418" unicode="&#x418;" horiz-adv-x="1404" 
d="M1130 0h-129l146 1034q6 40 35 205l-6 -2q-10 -16 -29 -46t-34.5 -53.5t-29.5 -41.5l-833 -1096h-146l199 1413h131l-145 -1030q-18 -128 -37 -209l6 2q54 83 102 150l826 1087h143z" />
    <glyph glyph-name="uni0419" unicode="&#x419;" horiz-adv-x="1404" 
d="M1061 1800h102q-11 -119 -98.5 -192.5t-224.5 -73.5q-142 0 -216.5 73.5t-52.5 192.5h103q-15 -95 30 -142.5t142 -47.5q92 0 148.5 48t66.5 142zM1130 0h-129l146 1034q6 40 35 205l-6 -2q-10 -16 -29 -46t-34.5 -53.5t-29.5 -41.5l-833 -1096h-146l199 1413h131
l-145 -1030q-18 -128 -37 -209l6 2q54 83 102 150l826 1087h143z" />
    <glyph glyph-name="uni041A" unicode="&#x41a;" horiz-adv-x="1202" 
d="M651 739l-4 -6q39 -4 73 -17.5t61.5 -32t52 -49t43.5 -60.5t37.5 -76t31.5 -85.5t29 -99.5t27.5 -107t27.5 -118q14 -59 21 -90l-138 4q-67 287 -76 319q-56 202 -132 281t-203 80h-178q0 -66 -13 -162l-73 -520h-134l199 1413h133l-63 -459q-17 -101 -33 -161h170
q70 0 134 31t113.5 79t102.5 127.5t93 153t95 178.5q18 35 27 53l139 -4q-137 -270 -192 -359q-130 -214 -258 -280q-55 -27 -113 -33z" />
    <glyph glyph-name="uni041B" unicode="&#x41b;" horiz-adv-x="1318" 
d="M1243 1413l-199 -1413h-133l183 1303h-318q-84 0 -125.5 -35t-60.5 -125q-98 -440 -145 -598t-136 -297q-68 -110 -158.5 -175t-193.5 -75l-8 113q35 13 59 24.5t56 32.5t62 53.5t60 77.5q86 127 132.5 278.5t144.5 600.5q26 123 96 179t191 56h493z" />
    <glyph glyph-name="uni041C" unicode="&#x41c;" horiz-adv-x="1779" 
d="M1450 1413h160q28 0 43 -17t12 -46l-131 -1350h-133l129 1300h-43l-524 -1110q-17 -43 -62 -43h-135q-51 0 -57 50l-220 1103h-45l-233 -1300h-135l248 1356q6 30 21 43.5t42 13.5h158q47 0 53 -49l186 -924q6 -34 17 -98.5t16 -93.5h45q54 127 86 194l438 926
q17 45 64 45z" />
    <glyph glyph-name="uni041D" unicode="&#x41d;" horiz-adv-x="1357" 
d="M1284 1413l-199 -1413h-135l99 696h-711l-98 -696h-136l199 1413h135l-84 -600h711l84 600h135z" />
    <glyph glyph-name="uni041E" unicode="&#x41e;" horiz-adv-x="1359" 
d="M791 1438q119 0 204 -24.5t145 -78.5t87.5 -140t32.5 -209t-21 -286q-37 -274 -111 -430.5t-198.5 -225.5t-325.5 -69q-119 0 -203.5 24t-145.5 77.5t-89 139.5t-33.5 209.5t19.5 287.5q28 204 74 339.5t122.5 223t183 125t259.5 37.5zM786 1319q-96 0 -166 -20
t-124.5 -63t-93 -117t-65.5 -174.5t-48 -244.5q-34 -225 -12 -359.5t98.5 -190.5t230.5 -56q156 0 251.5 59t152 191t90.5 369q23 174 22.5 290t-39.5 186.5t-109.5 100t-187.5 29.5z" />
    <glyph glyph-name="uni041F" unicode="&#x41f;" horiz-adv-x="1363" 
d="M1290 1413l-198 -1413h-136l183 1303h-715l-184 -1303h-136l199 1413h987z" />
    <glyph glyph-name="uni0420" unicode="&#x420;" horiz-adv-x="1198" 
d="M104 0l199 1413q185 17 469 17q242 0 330 -97t53 -340q-15 -105 -40 -178t-62 -122.5t-93.5 -77t-125 -39t-166.5 -11.5q-163 0 -346 17l-82 -582h-136zM334 682h332q92 1 150.5 15.5t101.5 51.5t66.5 97.5t37.5 157.5q18 125 -2.5 192.5t-78.5 93t-171 25.5
q-182 0 -346 -4z" />
    <glyph glyph-name="uni0421" unicode="&#x421;" 
d="M993 119l11 -101q-165 -43 -406 -43q-298 0 -400.5 171t-45.5 567q28 204 74 339.5t122 223t181.5 125t256.5 37.5q127 0 207 -9t168 -30l-24 -101q-159 19 -351 19q-119 0 -199 -28.5t-139.5 -101t-96 -188.5t-62.5 -299q-19 -139 -20 -238t16 -171t58 -114t102.5 -61.5
t152.5 -19.5q212 -2 395 23z" />
    <glyph glyph-name="uni0422" unicode="&#x422;" horiz-adv-x="1163" 
d="M1217 1294h-472l-182 -1294h-135l182 1294h-469l19 119h1073z" />
    <glyph glyph-name="uni0423" unicode="&#x423;" horiz-adv-x="1130" 
d="M1208 1413l-538 -1075q-41 -80 -70.5 -130.5t-72.5 -105t-92.5 -82.5t-106.5 -32q-51 -4 -119.5 4t-114.5 22l21 97q71 -8 112.5 -11t82 5.5t61.5 19.5t51 47t49.5 69.5t58.5 104.5l37 68h-78q-97 0 -116 92l-209 907h135l186 -852q9 -33 45 -33h95l440 885h143z" />
    <glyph glyph-name="uni0424" unicode="&#x424;" horiz-adv-x="1677" 
d="M1040 1530l-28 -209q237 -7 368.5 -68.5t179 -190t17.5 -345.5q-44 -320 -208.5 -452.5t-526.5 -141.5l-29 -207h-133l27 207q-239 7 -371 69t-179 191t-16 346q44 320 209.5 452.5t526.5 141.5l28 207h135zM991 1208l-137 -970q291 9 420.5 116t167.5 375
q10 89 10.5 158.5t-19.5 122t-53 89.5t-89 60.5t-128.5 35t-171.5 13.5zM727 238l137 970q-292 -9 -421 -115.5t-167 -375.5q-10 -90 -10.5 -160t19.5 -122.5t53 -89t89.5 -60t128.5 -34.5t171 -13z" />
    <glyph glyph-name="uni0425" unicode="&#x425;" horiz-adv-x="1232" 
d="M780 733l314 -733h-140l-284 684h-64l-477 -684h-156l523 735l-295 678h139l264 -625h66l446 625h150z" />
    <glyph glyph-name="uni0426" unicode="&#x426;" horiz-adv-x="1392" 
d="M1262 111l-15 -111l-43 -309h-104l28 309h-1022l199 1413h135l-184 -1302h700l185 1302h133l-182 -1302h170z" />
    <glyph glyph-name="uni0427" unicode="&#x427;" horiz-adv-x="1259" 
d="M1186 1413l-199 -1413h-133l98 705q-132 -89 -266.5 -134t-253.5 -45q-159 0 -226 75t-46 241l80 571h135l-76 -553q-17 -117 22.5 -165t153.5 -48q124 0 237.5 44t256.5 132l84 590h133z" />
    <glyph glyph-name="uni0428" unicode="&#x428;" horiz-adv-x="1880" 
d="M1806 1413l-198 -1413h-1504l199 1413h133l-184 -1302h555l182 1302h131l-182 -1302h553l184 1302h131z" />
    <glyph glyph-name="uni0429" unicode="&#x429;" horiz-adv-x="1910" 
d="M1610 111h170l-17 -111l-43 -309h-102l29 309h-1541l199 1413h131l-182 -1302h545l184 1302h131l-182 -1302h545l184 1302h131z" />
    <glyph glyph-name="uni042A" unicode="&#x42a;" horiz-adv-x="1511" 
d="M666 823h327q250 0 337.5 -96.5t55.5 -331.5q-17 -122 -50.5 -201t-93 -126t-139.5 -65.5t-200 -18.5q-313 0 -487 16l180 1294h-459l19 119h592zM649 711l-86 -607q80 -2 324 -2q96 0 156.5 13t104 48.5t67 93.5t36.5 151q19 110 1.5 177.5t-79.5 96.5t-188 29h-336z
" />
    <glyph glyph-name="uni042B" unicode="&#x42b;" horiz-adv-x="1705" 
d="M356 823h328q251 0 339 -96t56 -332q-17 -122 -50.5 -201t-93 -126t-139.5 -65.5t-200 -18.5q-316 0 -492 16l199 1413h135zM1630 1413l-198 -1413h-136l199 1413h135zM340 711l-86 -607q80 -2 326 -2q96 0 156.5 13t104 48.5t67 93.5t36.5 151q19 110 1.5 177.5
t-79.5 96.5t-188 29h-338z" />
    <glyph glyph-name="uni042C" unicode="&#x42c;" horiz-adv-x="1204" 
d="M356 823h328q251 0 339 -96t56 -332q-17 -122 -50.5 -201t-93 -126t-139.5 -65.5t-200 -18.5q-316 0 -492 16l199 1413h135zM340 711l-86 -607q80 -2 326 -2q96 0 156.5 13t104 48.5t67 93.5t36.5 151q19 110 1.5 177.5t-79.5 96.5t-188 29h-338z" />
    <glyph glyph-name="uni042D" unicode="&#x42d;" horiz-adv-x="1169" 
d="M215 1296l-8 103q156 39 362 39q108 0 188.5 -16.5t141.5 -53t98.5 -93t56 -139.5t17.5 -190t-20 -246q-36 -272 -112.5 -427.5t-205 -224.5t-336.5 -73q-222 -5 -391 45l23 101q170 -30 370 -25q161 4 260 62t158 185.5t94 354.5h-626l14 105h627q10 90 10 160.5
t-9.5 125t-31 93.5t-51 65t-73 41.5t-94 22t-116.5 6.5q-161 0 -346 -21z" />
    <glyph glyph-name="uni042E" unicode="&#x42e;" horiz-adv-x="1867" 
d="M352 791h344q41 244 115 384.5t189.5 201.5t297.5 61q98 0 172.5 -16.5t132.5 -52.5t94.5 -93.5t55 -139.5t17.5 -190t-21 -246q-40 -276 -113.5 -432t-198 -224.5t-327.5 -68.5q-144 0 -236.5 37t-146 120.5t-62 218t14.5 329.5h-344l-94 -680h-136l199 1413h135z
M1610 713q35 225 13.5 359.5t-97.5 190.5t-228 56q-150 0 -243 -59t-149.5 -192t-90.5 -368q-35 -225 -15 -359.5t92 -190.5t218 -56q156 0 252.5 59t155.5 192t92 368z" />
    <glyph glyph-name="uni042F" unicode="&#x42f;" horiz-adv-x="1243" 
d="M971 0h-135l84 592q-49 -1 -169 -2t-176 -2q-82 0 -135.5 -39.5t-93.5 -126.5l-188 -422h-148l197 436q46 95 98.5 142.5t116.5 58.5l2 8q-127 27 -179 138t-28 272q30 203 142 289t329 86q312 0 481 -17zM934 705l86 606q-164 4 -330 4q-155 0 -233.5 -61.5
t-102.5 -213.5q-27 -160 30.5 -247.5t207.5 -87.5h342z" />
    <glyph glyph-name="uni0430" unicode="&#x430;" horiz-adv-x="1171" 
d="M915 0h-100l19 223q-98 -113 -220.5 -180.5t-242.5 -67.5q-182 0 -237.5 120t-12.5 409q24 163 60.5 263.5t99.5 156.5t141 75t201 19q191 0 432 -41zM834 336l79 563q-218 8 -254 8q-78 0 -130 -5.5t-96 -23.5t-70.5 -45t-48.5 -76t-36 -109.5t-28 -153.5
q-25 -153 -19.5 -243t42 -125.5t118.5 -35.5q200 0 443 246z" />
    <glyph glyph-name="uni0431" unicode="&#x431;" horiz-adv-x="1161" 
d="M1081 1493l17 -111q-81 -41 -151.5 -61t-152 -33t-126.5 -24q-91 -24 -153 -59.5t-101 -88t-61.5 -106t-43.5 -136.5q-28 -100 -37 -141h4q16 34 34.5 62t52.5 61t75 55t104 37t138 15q116 0 191 -31.5t112 -93t45.5 -152t-8.5 -209.5q-17 -128 -49.5 -217.5t-90 -155.5
t-146 -97.5t-212.5 -31.5q-71 0 -128 10.5t-98.5 27.5t-72 46.5t-49.5 60t-29 77t-13.5 88.5t0 102t9 110t15.5 121q15 105 29 180t34 149.5t44.5 126.5t58 100.5t77 82.5t100 62t128.5 49q55 16 137 30.5t157.5 35t159.5 59.5zM651 850q-82 0 -143.5 -17.5t-101.5 -47.5
t-67.5 -79t-42 -102.5t-24.5 -128.5q-31 -218 25 -302.5t229 -84.5q165 0 246 88.5t113 315.5q13 105 11 174t-31.5 110t-79.5 57.5t-134 16.5z" />
    <glyph glyph-name="uni0432" unicode="&#x432;" horiz-adv-x="1124" 
d="M729 543v-4q142 -9 196.5 -83.5t35.5 -215.5q-23 -150 -123.5 -207.5t-327.5 -57.5q-93 0 -157 8.5t-116.5 30.5t-82 60t-45 98t-13.5 142.5t19 195.5q17 111 39.5 191.5t55.5 137.5t70.5 91.5t93 54t113 26.5t140.5 7q35 0 65 -1t62 -4t58.5 -8t52.5 -12.5t45.5 -18.5
t37.5 -25t29 -33t17.5 -42t6 -51.5t-7.5 -62.5q-36 -187 -264 -217zM246 535l309 40q114 14 180.5 40t94 59t38.5 86q18 91 -36.5 121t-219.5 30q-62 0 -102 -4t-80 -17t-65 -37.5t-49 -67t-40 -103t-30 -147.5zM551 481l-318 -43q-10 -80 -10.5 -136t11 -96t30 -64
t54 -37.5t75.5 -18t101 -4.5q174 0 247 39t90 153q16 126 -45.5 178.5t-234.5 28.5z" />
    <glyph glyph-name="uni0433" unicode="&#x433;" horiz-adv-x="1052" 
d="M164 850l-4 102q192 56 413 66q46 4 92.5 1.5t89.5 -7.5t79.5 -21.5t62 -41t37 -66.5t4.5 -97q-5 -40 -19.5 -75.5t-30 -60t-43 -48t-45 -36t-51 -28t-45 -20t-42.5 -16.5l-314 -115q-75 -29 -110.5 -63.5t-44.5 -94.5q-12 -86 42 -113.5t177 -27.5q234 3 473 80l6 -102
q-214 -91 -479 -91q-87 0 -150.5 11.5t-114.5 38.5t-73 78.5t-13 125.5q12 100 72.5 162.5t185.5 110.5l302 106q96 34 139 74t51 102q11 81 -45 105t-207 18q-171 -8 -395 -57z" />
    <glyph glyph-name="uni0434" unicode="&#x434;" horiz-adv-x="1150" 
d="M319 1360l21 94q75 -8 138 -19.5t128 -31t117.5 -45.5t101.5 -64.5t84 -86.5t62 -112t39.5 -141t11.5 -174.5t-18 -210.5q-16 -112 -37 -194.5t-60 -161.5t-93 -128.5t-136.5 -79.5t-190.5 -30q-225 0 -314 116.5t-54 365.5q29 222 139 340t322 118q204 0 311 -129
q3 96 -12 174t-40 133t-68.5 97.5t-87.5 69t-109.5 47t-120.5 31.5t-134 22zM492 86q77 0 135 22t98 61t69 104.5t46.5 140.5t31.5 180q9 58 15 104q-107 107 -287 107q-163 0 -243 -92.5t-105 -268.5q-27 -194 30.5 -276t209.5 -82z" />
    <glyph glyph-name="uni0435" unicode="&#x435;" horiz-adv-x="1091" 
d="M885 113l10 -88q-66 -23 -184.5 -36.5t-214.5 -13.5q-251 0 -339 126.5t-48 412.5q21 153 59.5 250t104.5 154t152 78.5t216 21.5q216 0 302 -74.5t54 -238.5q-27 -134 -108 -192t-252 -73l-408 -39q-7 -95 7 -157t52.5 -96.5t93 -48t138.5 -13.5q140 0 365 27zM242 502
l395 39q113 12 162 48t67 126q7 33 8 59t-5 45.5t-15.5 33.5t-27 24t-36 16t-46 9t-53 4t-60.5 1q-98 0 -157.5 -14t-107.5 -57t-76 -120t-48 -206v-8z" />
    <glyph glyph-name="uni0436" unicode="&#x436;" horiz-adv-x="1554" 
d="M1073 518v-4q55 -6 97 -33t67 -51.5t55 -100t41 -111.5t44 -155q4 -13 6 -21t5.5 -20t6.5 -22h-125q-60 220 -80 272q-47 127 -119 168q-46 26 -113 27h-145q3 -49 -4 -111l-51 -356h-119l53 365q4 31 23 102h-146q-67 -1 -118.5 -23.5t-107.5 -94t-87 -122.5t-107 -188
q-15 -26 -22 -39h-135q128 234 166 292q91 142 181 190q56 30 124 36v4q-31 4 -58 14.5t-48 23.5t-41 37t-34 43.5t-29.5 56t-25 61.5t-23 72t-21 76t-21.5 85h125q13 -52 20.5 -79.5t20.5 -71.5t22.5 -68t24.5 -57.5t29 -51.5t33.5 -39.5t40.5 -32t47.5 -17.5t56.5 -7h147
q-2 44 8 119l43 305h119l-45 -311q-10 -65 -25 -113h127q38 0 74 12t64.5 28.5t61.5 51t55.5 62t55.5 80.5t53.5 88.5t57.5 101.5h131q-116 -215 -170 -291q-100 -141 -215 -173q-25 -6 -51 -9z" />
    <glyph glyph-name="uni0437" unicode="&#x437;" horiz-adv-x="1007" 
d="M164 883l-6 96q121 29 309 29q123 0 201 -12t130 -42.5t69.5 -83t6.5 -133.5q-16 -108 -69.5 -161.5t-171.5 -63.5l-4 -6q130 -10 180 -75t31 -193q-9 -64 -29.5 -107.5t-53 -73t-87 -45t-120 -22t-161.5 -6.5q-220 0 -389 26l18 101q215 -17 365 -17q183 0 248 35
t80 147q15 106 -41 143.5t-221 39.5l-226 2l10 96h222q153 0 215.5 37t77.5 139q1 26 3 47t-5.5 37.5t-15 28.5t-26 21t-39 15t-52.5 9t-67.5 4.5t-84.5 1.5q-178 0 -297 -14z" />
    <glyph glyph-name="uni0438" unicode="&#x438;" horiz-adv-x="1157" 
d="M1042 991l-139 -991h-100l20 231q-133 -130 -247.5 -193t-225.5 -63q-134 0 -194 71.5t-41 203.5l104 741h131l-102 -712q-15 -101 19 -146t124 -45q94 0 189 58.5t243 193.5l90 651h129z" />
    <glyph glyph-name="uni0439" unicode="&#x439;" horiz-adv-x="1157" 
d="M885 1430h102q-12 -120 -99.5 -193.5t-223.5 -73.5q-142 0 -217.5 74t-53.5 193h105q-15 -95 30 -143t142 -48q91 0 147 48t68 143zM1042 991l-139 -991h-100l20 231q-133 -130 -247.5 -193t-225.5 -63q-134 0 -194 71.5t-41 203.5l104 741h131l-102 -712
q-15 -101 19 -146t124 -45q94 0 189 58.5t243 193.5l90 651h129z" />
    <glyph glyph-name="uni043A" unicode="&#x43a;" horiz-adv-x="1075" 
d="M575 518l-4 -4q61 -5 107 -29t77.5 -60.5t58 -98t46.5 -125t46 -158.5l12 -45l-132 4q-63 214 -81 260q-48 127 -120 170q-54 32 -136 33h-177q0 -68 -6 -109l-51 -356h-129l141 991h129l-43 -309q-11 -60 -26 -115h159q44 0 84 12t71.5 28.5t65.5 51t57.5 62.5t56.5 81
t53 88.5t57 102.5l139 -2q-38 -71 -60.5 -111.5t-56.5 -96t-58.5 -87t-58.5 -68t-66 -56t-71.5 -35t-83.5 -19.5z" />
    <glyph glyph-name="uni043B" unicode="&#x43b;" horiz-adv-x="1132" 
d="M1018 991l-141 -991h-129l126 889h-245q-68 0 -104.5 -31t-55.5 -106q-86 -374 -184 -557q-88 -186 -303 -205l-13 108q76 22 123 54.5t80 95.5q15 27 30 61.5t26.5 63.5t26 74t22.5 70t22 76t18 66.5t17 67.5t14 55q28 110 86.5 159.5t167.5 49.5h416z" />
    <glyph glyph-name="uni043C" unicode="&#x43c;" horiz-adv-x="1503" 
d="M1165 991h144q25 0 38.5 -14.5t10.5 -38.5l-86 -938h-121l82 891h-37l-395 -750q-11 -21 -23 -30t-33 -9h-118q-39 0 -49 45l-189 744h-39l-166 -891h-121l177 942q8 49 57 49h141q40 0 49 -45l154 -608q29 -123 33 -148l37 3q56 120 69 143l330 616q17 39 55 39z" />
    <glyph glyph-name="uni043D" unicode="&#x43d;" horiz-adv-x="1175" 
d="M1061 991l-141 -991h-127l67 477h-577l-68 -477h-129l141 991h127l-57 -411h577l58 411h129z" />
    <glyph glyph-name="uni043E" unicode="&#x43e;" horiz-adv-x="1155" 
d="M629 1018q248 0 338.5 -121.5t50.5 -407.5q-40 -284 -156.5 -399t-361.5 -115q-249 0 -339.5 120t-51.5 407q38 283 155 399.5t365 116.5zM629 905q-123 0 -197.5 -37t-120 -127t-69.5 -252q-25 -152 -5 -241.5t80.5 -125.5t182.5 -36q182 0 266.5 90.5t118.5 325.5
q25 153 5 242.5t-80 125t-181 35.5z" />
    <glyph glyph-name="uni043F" unicode="&#x43f;" horiz-adv-x="1179" 
d="M330 991l-21 -225q143 126 263 189t229 63q130 0 192 -71.5t43 -205.5l-106 -741h-129l100 715q15 104 -17 147t-120 43q-94 0 -197 -56.5t-258 -180.5l-92 -668h-131l141 991h103z" />
    <glyph glyph-name="uni0440" unicode="&#x440;" horiz-adv-x="1171" 
d="M330 991l-21 -231q103 109 234 182.5t233 73.5q180 0 234.5 -117.5t13.5 -411.5q-16 -109 -37.5 -188.5t-53 -137t-68 -93.5t-89.5 -57t-110.5 -28.5t-137.5 -7.5q-145 0 -319 23q-3 -97 -16 -191l-37 -235h-129l200 1419h103zM309 655l-78 -565q163 -6 254 -6
q78 0 129.5 5.5t95.5 23.5t70.5 45t49 76t36.5 110t27 154q24 153 18 242.5t-42 125t-117 35.5q-83 0 -204.5 -65t-238.5 -181z" />
    <glyph glyph-name="uni0441" unicode="&#x441;" horiz-adv-x="989" 
d="M823 111l11 -91q-145 -45 -326 -45q-258 0 -349 120.5t-50 406.5q40 286 158 401t370 115q183 0 303 -45l-22 -84q-109 16 -261 16q-102 0 -169.5 -18t-118.5 -65t-80.5 -126t-46.5 -204q-11 -83 -11.5 -144t10.5 -106.5t32.5 -74.5t58.5 -47t83.5 -25t112.5 -7
q167 0 295 23z" />
    <glyph glyph-name="uni0442" unicode="&#x442;" horiz-adv-x="1794" 
d="M326 991l-19 -223q131 127 237.5 188.5t207.5 61.5q120 0 180.5 -62t54.5 -176q126 121 229 179.5t201 58.5q131 0 191 -73t41 -204l-105 -741h-129l101 715q15 103 -20.5 146.5t-123.5 43.5q-82 0 -167.5 -53t-231.5 -186l-94 -666h-125l100 715q14 101 -19.5 145.5
t-125.5 44.5q-83 0 -168.5 -53t-231.5 -184l-94 -668h-129l141 991h99z" />
    <glyph glyph-name="uni0443" unicode="&#x443;" horiz-adv-x="1085" 
d="M913 991h134q-36 -165 -125.5 -401.5t-196.5 -444.5q-60 -117 -119.5 -209t-112.5 -154.5t-108.5 -106t-102.5 -66.5t-100 -33t-96.5 -9t-95.5 9l14 107q45 -5 88.5 -5.5t93 18t99 52.5t106 98t113.5 154h-98q-41 0 -71 24t-38 62l-197 905h138l170 -844q10 -43 51 -43
h106l41 76q104 194 190 423t117 388z" />
    <glyph glyph-name="uni0444" unicode="&#x444;" horiz-adv-x="1449" 
d="M903 1434l-57 -418q291 -12 399 -135t70 -392q-37 -268 -178 -386.5t-439 -127.5l-55 -393h-121l53 395q-292 10 -400 132.5t-71 392.5q38 270 179.5 388.5t439.5 125.5l59 418h121zM825 905l-114 -817q233 9 340.5 101.5t136.5 312.5q21 149 -8 234t-113 124.5
t-242 44.5zM596 88l115 817q-233 -9 -341 -102t-139 -314q-31 -220 50.5 -307.5t314.5 -93.5z" />
    <glyph glyph-name="uni0445" unicode="&#x445;" horiz-adv-x="1058" 
d="M647 514l275 -514h-134l-243 465h-53l-373 -465h-150l422 516l-254 475h133l219 -422h60l344 422h143z" />
    <glyph glyph-name="uni0446" unicode="&#x446;" horiz-adv-x="1202" 
d="M1053 0l-45 -305h-113l61 305h-4q-70 0 -109 41.5t-30 124.5l4 47q-256 -238 -467 -238q-134 0 -194 71.5t-41 203.5l104 741h131l-102 -712q-15 -101 19 -146t124 -45q95 0 190 55.5t240 182.5l92 665h129l-114 -825q-8 -66 55 -66h82z" />
    <glyph glyph-name="uni0447" unicode="&#x447;" horiz-adv-x="1083" 
d="M969 991l-140 -991h-131l68 477q-111 -59 -222 -90t-198 -31q-132 -1 -190 53.5t-43 163.5l59 418h129l-53 -383q-10 -82 20 -112.5t119 -30.5q96 0 185 29.5t210 97.5l56 399h131z" />
    <glyph glyph-name="uni0448" unicode="&#x448;" horiz-adv-x="1757" 
d="M1642 991l-139 -991h-100l18 219q-124 -125 -230 -184.5t-208 -59.5q-114 0 -171.5 60.5t-51.5 171.5q-121 -120 -223 -176t-201 -56q-125 0 -182.5 72t-38.5 203l104 741h129l-100 -712q-15 -98 19 -141.5t118 -43.5t163 49.5t226 182.5l94 665h125l-100 -712
q-14 -96 18 -140.5t119 -44.5q86 0 166 50t225 180l92 667h129z" />
    <glyph glyph-name="uni0449" unicode="&#x449;" horiz-adv-x="1802" 
d="M1665 100l-14 -100l-45 -305h-113l66 305h-7q-70 0 -109 41.5t-32 124.5l6 49q-124 -124 -228.5 -182t-205.5 -58q-114 0 -171.5 60.5t-51.5 171.5q-121 -120 -223 -176t-201 -56q-125 0 -182.5 72t-38.5 203l104 741h129l-100 -712q-15 -98 19 -141.5t118 -43.5
t163 49.5t226 182.5l94 665h125l-100 -712q-14 -96 18 -140.5t119 -44.5q86 0 166 50t225 180l92 667h129l-114 -825q-10 -66 53 -66h84z" />
    <glyph glyph-name="uni044A" unicode="&#x44a;" horiz-adv-x="1280" 
d="M684 991l-121 -440q108 43 228 43q225 0 300 -69t50 -244q-13 -90 -41.5 -148t-79.5 -91.5t-116.5 -46.5t-162.5 -13q-34 0 -63.5 1.5t-66 5.5t-65.5 11t-59.5 20t-53 29.5t-41 41.5t-27 56t-7.5 72t13 90l161 578h-444l14 104h582zM537 451l-45 -162q-6 -33 -7.5 -59.5
t8 -46.5t20.5 -35.5t31 -26t39 -17.5t43.5 -11t46 -5.5t46.5 -1.5q149 0 210 43.5t81 169.5q12 78 -3.5 119t-66.5 59.5t-154 18.5q-134 0 -249 -45z" />
    <glyph glyph-name="uni044B" unicode="&#x44b;" horiz-adv-x="1427" 
d="M348 991l-67 -454q128 57 266 57q115 0 186.5 -16t114 -53t52 -97t-0.5 -147q-26 -173 -113.5 -236t-285.5 -63q-65 0 -110 3t-107 18t-98 42t-58.5 79.5t-13.5 125.5l108 741h127zM1313 991l-142 -991h-131l142 991h131zM268 442l-28 -194q-8 -52 8.5 -86t55 -49.5
t78 -21t95.5 -5.5q149 0 211 44t80 169q10 78 -5 119t-66.5 59.5t-155.5 18.5q-146 0 -273 -54z" />
    <glyph glyph-name="uni044C" unicode="&#x44c;" horiz-adv-x="1036" 
d="M348 991l-67 -454q128 57 266 57q115 0 186.5 -16t114 -53t52 -97t-0.5 -147q-26 -173 -113.5 -236t-285.5 -63q-65 0 -110 3t-107 18t-98 42t-58.5 79.5t-13.5 125.5l108 741h127zM268 442l-28 -194q-8 -52 8.5 -86t55 -49.5t78 -21t95.5 -5.5q149 0 211 44t80 169
q10 78 -5 119t-66.5 59.5t-155.5 18.5q-146 0 -273 -54z" />
    <glyph glyph-name="uni044D" unicode="&#x44d;" horiz-adv-x="1015" 
d="M156 879l-9 94q119 31 304 31q181 0 279.5 -48t134 -161t9.5 -310q-19 -147 -56 -243t-103 -155t-158 -83t-227 -22q-195 0 -322 34l21 93q138 -15 288 -15q106 -2 175 13.5t120.5 57.5t80.5 112.5t46 181.5h-512l15 96h510q10 105 -1 170.5t-50 103t-98 51t-157 13.5
q-144 0 -290 -14z" />
    <glyph glyph-name="uni044E" unicode="&#x44e;" horiz-adv-x="1603" 
d="M297 563h278q44 256 156 355.5t342 99.5q169 0 262 -48.5t125.5 -163.5t5.5 -314q-21 -147 -58 -243t-100.5 -156t-150.5 -84.5t-215 -24.5q-161 0 -249.5 44t-121 147.5t-10.5 285.5h-280l-64 -461h-129l139 991h129zM1331 506q11 79 12.5 138t-8.5 103.5t-30.5 74.5
t-54.5 48.5t-77.5 26.5t-103.5 8q-180 0 -263 -87.5t-116 -323.5q-32 -229 20.5 -314.5t227.5 -85.5q189 0 275 91t118 321z" />
    <glyph glyph-name="uni044F" unicode="&#x44f;" horiz-adv-x="1089" 
d="M975 987l-139 -987h-127l53 381h-287q-185 0 -227 -115l-96 -266h-134l105 289q27 71 86 104t123 35l2 6q-55 9 -94.5 37.5t-57 67.5t-25 85.5t0.5 92.5q9 73 31 123t55.5 82t90 49.5t121 23.5t160.5 6q181 0 359 -14zM776 479l58 412q-74 2 -263 2q-156 0 -215 -36.5
t-73 -158.5q-8 -45 -2 -84.5t23.5 -69.5t60.5 -47.5t108 -17.5h303z" />
    <glyph glyph-name="uni0451" unicode="&#x451;" horiz-adv-x="1091" 
d="M504 1208h-43q-41 0 -35 39l16 113q3 22 13.5 31.5t33.5 9.5h39q24 0 32 -9.5t5 -31.5l-18 -111q-2 -22 -11.5 -31.5t-31.5 -9.5zM856 1208h-43q-41 0 -35 39l17 113q3 22 13 31.5t32 9.5h41q24 0 32 -9.5t5 -31.5l-19 -111q-3 -41 -43 -41zM885 113l10 -88
q-66 -23 -184.5 -36.5t-214.5 -13.5q-251 0 -339 126.5t-48 412.5q21 153 59.5 250t104.5 154t152 78.5t216 21.5q216 0 302 -74.5t54 -238.5q-27 -134 -108 -192t-252 -73l-408 -39q-7 -95 7 -157t52.5 -96.5t93 -48t138.5 -13.5q140 0 365 27zM242 502l395 39
q113 12 162 48t67 126q7 33 8 59t-5 45.5t-15.5 33.5t-27 24t-36 16t-46 9t-53 4t-60.5 1q-98 0 -157.5 -14t-107.5 -57t-76 -120t-48 -206v-8z" />
    <glyph glyph-name="uni0452" unicode="&#x452;" horiz-adv-x="1169" 
d="M399 1028l-37 -260q-12 -92 -32 -172q270 221 475 221q136 0 197 -70.5t42 -205.5l-77 -541h-129l73 514q12 100 -24.5 142t-134.5 42q-92 0 -188 -49t-242 -160l-68 -489h-131l145 1028h-153l12 78h152l47 328h129l-45 -328h411l-12 -78h-410z" />
    <glyph glyph-name="uni0453" unicode="&#x453;" horiz-adv-x="1052" 
d="M889 1389l-400 -263l-45 64l377 299zM164 850l-4 102q192 56 413 66q46 4 92.5 1.5t89.5 -7.5t79.5 -21.5t62 -41t37 -66.5t4.5 -97q-5 -40 -19.5 -75.5t-30 -60t-43 -48t-45 -36t-51 -28t-45 -20t-42.5 -16.5l-314 -115q-75 -29 -110.5 -63.5t-44.5 -94.5
q-12 -86 42 -113.5t177 -27.5q234 3 473 80l6 -102q-214 -91 -479 -91q-87 0 -150.5 11.5t-114.5 38.5t-73 78.5t-13 125.5q12 100 72.5 162.5t185.5 110.5l302 106q96 34 139 74t51 102q11 81 -45 105t-207 18q-171 -8 -395 -57z" />
    <glyph glyph-name="uni0454" unicode="&#x454;" horiz-adv-x="1011" 
d="M963 971l-21 -92q-134 14 -285 14q-100 0 -165.5 -14.5t-115 -53.5t-78.5 -104t-48 -168h512l-12 -94h-514q-8 -63 -8 -111.5t6.5 -87.5t23 -66t40.5 -46.5t60.5 -30.5t80 -16.5t102.5 -6.5q134 -2 301 15l10 -93q-136 -34 -334 -34q-169 0 -265 48t-133 162t-11 306
q20 147 58 243t104.5 155t157.5 83.5t224 24.5q191 0 310 -33z" />
    <glyph glyph-name="uni0455" unicode="&#x455;" horiz-adv-x="1034" 
d="M614 391l-295 123q-109 47 -154.5 105t-31.5 169q9 59 31 100.5t54 67.5t82.5 40t107 18.5t135.5 3.5q204 -3 405 -31l-16 -92q-187 9 -385 12q-68 1 -104.5 -0.5t-74.5 -8t-56.5 -20.5t-32.5 -38t-19 -62q-10 -69 18.5 -101.5t106.5 -64.5l297 -123q79 -33 121 -63.5
t63 -81.5t11 -127q-7 -47 -21.5 -83t-35 -61.5t-52.5 -43.5t-64.5 -28.5t-80.5 -16t-92 -7.5t-107 -2q-33 0 -61 0.5t-57 2t-47 3t-49.5 5l-45 5t-54 6.5t-57.5 7l17 96q127 -14 329 -14q196 3 266.5 30t82.5 113q3 17 2.5 31t-2 25t-7.5 21.5t-11 18t-16.5 16t-19 13.5
t-24 12.5t-26 11.5t-30.5 13z" />
    <glyph glyph-name="uni0456" unicode="&#x456;" horiz-adv-x="487" 
d="M324 1409h61q21 0 31.5 -12t7.5 -33l-16 -121q-3 -22 -13.5 -30.5t-32.5 -8.5h-59q-47 0 -41 45l19 121q3 39 43 39zM225 0h-129l140 991h129z" />
    <glyph glyph-name="uni0457" unicode="&#x457;" horiz-adv-x="483" 
d="M158 1401h41q24 0 32 -9.5t5 -31.5l-19 -111q-2 -22 -11.5 -31.5t-31.5 -9.5h-43q-41 0 -35 39l17 113q3 22 13 31.5t32 9.5zM510 1401h41q24 0 32 -9.5t5 -31.5l-19 -111q-3 -41 -43 -41h-43q-40 0 -37 39l19 113q3 22 13 31.5t32 9.5zM223 0h-131l141 991h129z" />
    <glyph glyph-name="uni0458" unicode="&#x458;" horiz-adv-x="487" 
d="M324 1409h61q21 0 31.5 -12t7.5 -33l-16 -121q-3 -22 -13.5 -30.5t-32.5 -8.5h-59q-47 0 -41 45l19 121q3 39 43 39zM365 991l-148 -1044q-15 -110 -72.5 -204.5t-146.5 -164.5l-70 60q69 74 108 148.5t52 168.5l148 1036h129z" />
    <glyph glyph-name="uni0459" unicode="&#x459;" horiz-adv-x="1613" 
d="M950 991l-67 -459q121 62 274 62q105 0 171.5 -18t103 -56.5t45.5 -97.5t-2 -141q-12 -92 -38 -149.5t-74.5 -90.5t-111 -45.5t-159.5 -13.5q-56 -1 -100.5 2.5t-91.5 13.5t-80 29t-59 48t-35.5 73.5t-2.5 101.5l94 643h-205q-117 0 -143 -125q-66 -276 -101 -383.5
t-100 -202.5q-104 -162 -286 -186l-11 106q58 15 101.5 45t83.5 82q63 84 95 181t103 393q22 95 76 141.5t145 46.5h375zM870 440l-28 -192q-7 -51 8 -85t50.5 -50t73 -21.5t91.5 -5.5q146 0 205 43.5t76 169.5q14 115 -28.5 156t-176.5 41q-149 0 -271 -56z" />
    <glyph glyph-name="uni045A" unicode="&#x45a;" horiz-adv-x="1640" 
d="M981 991l-66 -454q120 57 252 57q145 0 222 -30.5t102.5 -97t9.5 -185.5q-12 -89 -37.5 -146.5t-72.5 -91.5t-111 -47.5t-160 -13.5q-43 0 -74 1.5t-75 7t-75 16t-63.5 30.5t-51.5 47.5t-28 70t-3 95.5l36 250h-507l-72 -500h-121l141 991h121l-55 -395h508l57 395h123z
M901 442l-29 -194q-6 -42 4.5 -72.5t30 -47.5t53 -26.5t64.5 -12.5t74 -3q142 0 199.5 43.5t74.5 169.5q14 114 -28.5 155.5t-182.5 41.5q-135 0 -260 -54z" />
    <glyph glyph-name="uni045B" unicode="&#x45b;" horiz-adv-x="1169" 
d="M397 1028l-32 -237q-15 -111 -37 -195q273 221 477 221q136 0 197 -70.5t42 -205.5l-81 -594q-17 -111 -75 -205.5t-147 -163.5l-67 60q137 149 160 317l77 559q13 99 -23.5 141.5t-135.5 42.5q-92 0 -189 -49t-244 -160l-65 -489h-131l145 1028h-153l12 78h152l47 328
h129l-45 -328h411l-12 -78h-412z" />
    <glyph glyph-name="uni045C" unicode="&#x45c;" horiz-adv-x="1075" 
d="M563 1126l-45 64l375 299l68 -100zM575 518l-4 -4q61 -5 107 -29t77.5 -60.5t58 -98t46.5 -125t46 -158.5l12 -45l-132 4q-63 214 -81 260q-48 127 -120 170q-54 32 -136 33h-177q0 -68 -6 -109l-51 -356h-129l141 991h129l-43 -309q-11 -60 -26 -115h159q44 0 84 12
t71.5 28.5t65.5 51t57.5 62.5t56.5 81t53 88.5t57 102.5l139 -2q-38 -71 -60.5 -111.5t-56.5 -96t-58.5 -87t-58.5 -68t-66 -56t-71.5 -35t-83.5 -19.5z" />
    <glyph glyph-name="uni045D" unicode="&#x45d;" horiz-adv-x="1157" 
d="M700 1126l-342 269l76 92l318 -301zM1042 991l-139 -991h-100l20 231q-133 -130 -247.5 -193t-225.5 -63q-134 0 -194 71.5t-41 203.5l104 741h131l-102 -712q-15 -101 19 -146t124 -45q94 0 189 58.5t243 193.5l90 651h129z" />
    <glyph glyph-name="uni045E" unicode="&#x45e;" horiz-adv-x="1085" 
d="M819 1430h103q-11 -120 -99 -193.5t-225 -73.5q-142 0 -216 74t-54 193h104q-15 -95 30 -143t142 -48q91 0 147 48t68 143zM913 991h134q-36 -165 -125.5 -401.5t-196.5 -444.5q-60 -117 -119.5 -209t-112.5 -154.5t-108.5 -106t-102.5 -66.5t-100 -33t-96.5 -9t-95.5 9
l14 107q45 -5 88.5 -5.5t93 18t99 52.5t106 98t113.5 154h-98q-41 0 -71 24t-38 62l-197 905h138l170 -844q10 -43 51 -43h106l41 76q104 194 190 423t117 388z" />
    <glyph glyph-name="uni045F" unicode="&#x45f;" horiz-adv-x="1157" 
d="M1042 991l-139 -991h-100l20 231q-133 -130 -247.5 -193t-225.5 -63q-134 0 -194 71.5t-41 203.5l104 741h131l-102 -712q-15 -101 19 -146t124 -45q94 0 189 58.5t243 193.5l90 651h129zM489 -82h86l-36 -364h-113z" />
    <glyph glyph-name="uni0490" unicode="&#x490;" horiz-adv-x="1060" 
d="M1124 1393l-16 -93h-539q-78 0 -120.5 -35t-53.5 -122l-159 -1143h-136l164 1171q18 120 89 182t179 62q332 0 490 -12l63 319h93z" />
    <glyph glyph-name="uni0491" unicode="&#x491;" horiz-adv-x="913" 
d="M901 889h-432q-69 0 -106.5 -31t-47.5 -106l-104 -752h-129l111 791q15 106 72.5 155t158.5 49q260 0 389 -6l59 301h91l-48 -307z" />
    <glyph glyph-name="uni04B0" unicode="&#x4b0;" horiz-adv-x="1165" 
d="M672 555h289l-15 -86h-313l-66 -469h-135l66 469h-318l13 86h294l-329 858h139l235 -631q32 -94 46 -151l16 4q86 151 88 153l412 625h145z" />
    <glyph glyph-name="uni04B1" unicode="&#x4b1;" horiz-adv-x="1173" 
d="M612 137h291l-12 -86h-318l-67 -473h-135l67 473h-315l12 86h291l-328 854h138l235 -629q38 -117 47 -153h14q34 73 89 158l411 624h148z" />
    <glyph glyph-name="uni04B6" unicode="&#x4b6;" horiz-adv-x="1316" 
d="M1186 96l-12 -96l-46 -309h-102l29 309h-191l99 700q-273 -174 -529 -174q-156 0 -226 79.5t-48 236.5l82 571h133l-76 -553q-17 -115 25.5 -165t162.5 -50q119 0 231.5 42t262.5 134l82 592h135l-186 -1317h174z" />
    <glyph glyph-name="uni04B7" unicode="&#x4b7;" horiz-adv-x="1124" 
d="M956 10l-43 -303h-114l51 293h-152l68 477q-111 -59 -222 -90t-198 -31q-132 -1 -190 53.5t-43 163.5l59 418h129l-53 -383q-10 -82 20 -112.5t119 -30.5q96 0 185.5 30t209.5 99l58 397h129l-127 -885h127z" />
    <glyph glyph-name="uni04BA" unicode="&#x4ba;" horiz-adv-x="1271" 
d="M438 1413l-98 -700q282 174 528 174q158 0 228 -79.5t45 -236.5l-80 -571h-135l80 553q17 117 -26 166t-163 49q-118 0 -229 -41t-264 -135l-84 -592h-136l199 1413h135z" />
    <glyph glyph-name="uni04C0" unicode="&#x4c0;" horiz-adv-x="514" 
d="M242 0h-136l199 1413h135z" />
    <glyph glyph-name="Wgrave" unicode="&#x1e80;" horiz-adv-x="1918" 
d="M1182 1554l-52 -59l-342 268l76 92zM1970 1413l-512 -1374q-14 -39 -59 -39h-160q-21 0 -35 13t-16 34l-96 1106l-13 156h-47l-57 -162l-402 -1106q-15 -41 -59 -41h-160q-21 0 -36 13t-17 32l-129 1368h137l99 -1149q4 -50 8 -162h53l57 166l402 1102q16 43 59 43h154
q20 0 33.5 -14t15.5 -35l104 -1100q10 -140 11 -162h53l55 166l416 1145h141z" />
    <glyph glyph-name="wgrave" unicode="&#x1e81;" horiz-adv-x="1714" 
d="M1032 1186l-51 -60l-342 269l76 92zM389 104h27q26 0 45.5 12.5t42.5 49.5q64 98 137 293q78 212 137 499q1 17 12.5 26t26.5 7h141q15 0 25.5 -9.5t13.5 -23.5l113 -854h25q44 0 82 58q105 158 161 297q99 217 160 532h135q-77 -337 -194 -588q-108 -224 -189 -323
q-33 -42 -65.5 -61t-81.5 -19h-88q-18 0 -30.5 11t-14.5 26l-113 866h-23q-13 -88 -48 -224.5t-78 -252.5q-32 -89 -78.5 -183t-83.5 -145q-58 -98 -174 -98h-80q-18 0 -30 10.5t-15 26.5l-185 954h134z" />
    <glyph glyph-name="Wacute" unicode="&#x1e82;" horiz-adv-x="1918" 
d="M1411 1757l-397 -262l-45 64l374 299zM1970 1413l-512 -1374q-14 -39 -59 -39h-160q-21 0 -35 13t-16 34l-96 1106l-13 156h-47l-57 -162l-402 -1106q-15 -41 -59 -41h-160q-21 0 -36 13t-17 32l-129 1368h137l99 -1149q4 -50 8 -162h53l57 166l402 1102q16 43 59 43h154
q20 0 33.5 -14t15.5 -35l104 -1100q10 -140 11 -162h53l55 166l416 1145h141z" />
    <glyph glyph-name="wacute" unicode="&#x1e83;" horiz-adv-x="1714" 
d="M1262 1389l-398 -263l-45 64l375 299zM389 104h27q26 0 45.5 12.5t42.5 49.5q64 98 137 293q78 212 137 499q1 17 12.5 26t26.5 7h141q15 0 25.5 -9.5t13.5 -23.5l113 -854h25q44 0 82 58q105 158 161 297q99 217 160 532h135q-77 -337 -194 -588q-108 -224 -189 -323
q-33 -42 -65.5 -61t-81.5 -19h-88q-18 0 -30.5 11t-14.5 26l-113 866h-23q-13 -88 -48 -224.5t-78 -252.5q-32 -89 -78.5 -183t-83.5 -145q-58 -98 -174 -98h-80q-18 0 -30 10.5t-15 26.5l-185 954h134z" />
    <glyph glyph-name="Wdieresis" unicode="&#x1e84;" horiz-adv-x="1918" 
d="M926 1769h41q23 0 30 -9t4 -31l-16 -109q-3 -23 -13 -33t-32 -10h-43q-41 0 -35 41l17 111q3 22 14 31t33 9zM1278 1769h39q24 0 32 -9t5 -31l-19 -109q-1 -23 -11 -33t-32 -10h-43q-41 0 -35 41l17 111q3 22 13.5 31t33.5 9zM1970 1413l-512 -1374q-14 -39 -59 -39h-160
q-21 0 -35 13t-16 34l-96 1106l-13 156h-47l-57 -162l-402 -1106q-15 -41 -59 -41h-160q-21 0 -36 13t-17 32l-129 1368h137l99 -1149q4 -50 8 -162h53l57 166l402 1102q16 43 59 43h154q20 0 33.5 -14t15.5 -35l104 -1100q10 -140 11 -162h53l55 166l416 1145h141z" />
    <glyph glyph-name="wdieresis" unicode="&#x1e85;" horiz-adv-x="1714" 
d="M776 1401h41q23 0 30.5 -9.5t4.5 -31.5l-16 -111q-3 -22 -13 -31.5t-32 -9.5h-41q-40 0 -37 39l16 113q6 41 47 41zM1128 1401h39q24 0 32 -9.5t5 -31.5l-18 -111q-2 -22 -11.5 -31.5t-31.5 -9.5h-43q-41 0 -35 39l16 113q6 41 47 41zM389 104h27q26 0 45.5 12.5
t42.5 49.5q64 98 137 293q78 212 137 499q1 17 12.5 26t26.5 7h141q15 0 25.5 -9.5t13.5 -23.5l113 -854h25q44 0 82 58q105 158 161 297q99 217 160 532h135q-77 -337 -194 -588q-108 -224 -189 -323q-33 -42 -65.5 -61t-81.5 -19h-88q-18 0 -30.5 11t-14.5 26l-113 866
h-23q-13 -88 -48 -224.5t-78 -252.5q-32 -89 -78.5 -183t-83.5 -145q-58 -98 -174 -98h-80q-18 0 -30 10.5t-15 26.5l-185 954h134z" />
    <glyph glyph-name="Ygrave" unicode="&#x1ef2;" horiz-adv-x="1134" 
d="M737 1497l-342 266l76 95l315 -302zM616 506l-69 -506h-135l71 510l-346 903h137l236 -631q28 -73 47 -151h14q28 60 88 157l412 625h148z" />
    <glyph glyph-name="ygrave" unicode="&#x1ef3;" horiz-adv-x="1083" 
d="M633 1126l-342 269l76 92l317 -301zM911 991h136q-116 -474 -332 -841q-159 -277 -299 -408t-318 -166l-22 90q118 33 215.5 111t195.5 223h-84q-41 0 -70.5 24t-37.5 62l-197 905h138l170 -844q10 -43 51 -43h96l47 82q111 197 183 384t128 421z" />
    <glyph glyph-name="endash" unicode="&#x2013;" horiz-adv-x="1232" 
d="M1057 465h-920l15 102h919z" />
    <glyph glyph-name="emdash" unicode="&#x2014;" horiz-adv-x="1859" 
d="M1683 465h-1546l15 102h1546z" />
    <glyph glyph-name="quoteleft" unicode="&#x2018;" horiz-adv-x="428" 
d="M293 1030h-41q-26 0 -35.5 11.5t-5.5 37.5l18 129q13 117 99 281l63 -23q-38 -117 -59 -229q20 1 30.5 -10.5t8.5 -30.5l-19 -119q-5 -27 -17 -37t-42 -10z" />
    <glyph glyph-name="quoteright" unicode="&#x2019;" horiz-adv-x="423" 
d="M315 1470h43q26 0 35 -11t6 -38l-18 -127q-17 -125 -98 -280l-66 20q43 137 59 232q-20 -1 -29.5 10t-6.5 31l18 118q5 27 16 36t41 9z" />
    <glyph glyph-name="quotesinglbase" unicode="&#x201a;" horiz-adv-x="450" 
d="M154 209h43q26 0 35.5 -11.5t5.5 -37.5l-19 -129q-17 -122 -100 -281l-68 23q46 138 62 229q-20 -1 -30.5 10.5t-8.5 30.5l18 119q6 28 18 37.5t44 9.5z" />
    <glyph glyph-name="quotedblleft" unicode="&#x201c;" horiz-adv-x="712" 
d="M293 1030h-41q-26 0 -35.5 11.5t-5.5 37.5l18 129q13 117 99 281l63 -23q-38 -117 -59 -229q20 1 30.5 -10.5t8.5 -30.5l-19 -119q-5 -27 -17 -37t-42 -10zM578 1030h-43q-25 0 -34 11.5t-5 37.5l18 129q14 120 98 281l64 -23q-40 -125 -60 -229q20 1 30.5 -10.5
t8.5 -30.5l-18 -119q-6 -27 -17.5 -37t-41.5 -10z" />
    <glyph glyph-name="quotedblright" unicode="&#x201d;" horiz-adv-x="708" 
d="M315 1470h43q26 0 35 -11t6 -38l-18 -127q-17 -125 -98 -280l-66 20q43 137 59 232q-20 -1 -29.5 10t-6.5 31l18 118q5 27 16 36t41 9zM600 1470h43q26 0 35 -11t6 -38l-18 -127q-17 -123 -99 -280l-65 20q43 137 59 232q-20 -1 -30 10t-7 31l17 118q6 27 17.5 36t41.5 9
z" />
    <glyph glyph-name="quotedblbase" unicode="&#x201e;" horiz-adv-x="731" 
d="M152 207h41q26 0 35.5 -11.5t4.5 -37.5l-18 -127q-17 -127 -98 -281l-66 21q45 146 60 229q-43 0 -37 43l18 119q5 27 16.5 36t43.5 9zM434 207h43q26 0 35.5 -11.5t5.5 -37.5l-18 -127q-17 -124 -99 -281l-65 21q43 138 59 229q-43 0 -37 43l19 119q5 27 16 36t41 9z
" />
    <glyph glyph-name="dagger" unicode="&#x2020;" horiz-adv-x="901" 
d="M393 -225h-119l164 1136l11 72l55 432h121l-66 -432l-10 -72zM129 874l16 117h271l-15 -100zM866 991l-16 -117l-268 17l14 100h270z" />
    <glyph glyph-name="daggerdbl" unicode="&#x2021;" horiz-adv-x="983" 
d="M602 989l-113 -788l-53 -426h-121l66 426l111 788l53 426h121zM889 874l-266 17l14 100h270zM440 891l-270 -17l16 117h271zM358 299l-14 -100h-270l16 116zM795 199h-271l15 100l272 16z" />
    <glyph glyph-name="bullet" unicode="&#x2022;" horiz-adv-x="733" 
d="M371 719h22q86 0 117.5 -37t19.5 -123l-4 -29q-10 -91 -47 -122t-127 -31h-22q-91 0 -123 37t-19 127l5 28q12 89 48.5 119.5t129.5 30.5z" />
    <glyph glyph-name="ellipsis" unicode="&#x2026;" horiz-adv-x="1671" 
d="M170 219h45q54 0 45 -53l-16 -119q-6 -47 -54 -47h-45q-53 0 -47 53l17 117q6 49 55 49zM782 219h45q54 0 45 -53l-16 -119q-6 -47 -53 -47h-45q-56 0 -47 53l16 117q6 49 55 49zM1395 219h45q28 0 38 -13t7 -40l-17 -119q-6 -47 -53 -47h-45q-56 0 -47 53l16 117
q6 49 56 49z" />
    <glyph glyph-name="perthousand" unicode="&#x2030;" horiz-adv-x="2572" 
d="M530 1438q181 0 242.5 -99t28.5 -325q-31 -222 -114.5 -317t-256.5 -95q-179 0 -239 99t-29 325q31 224 112.5 318t255.5 94zM406 0h-107l1139 1413h104zM537 1354q-135 0 -191.5 -74.5t-83.5 -265.5q-25 -181 10.5 -254.5t153.5 -73.5q133 0 190.5 75.5t83.5 264.5
q25 184 -8.5 256t-154.5 72zM1417 819q182 0 243 -99t28 -325q-31 -223 -114.5 -318t-256.5 -95q-179 0 -239 99t-29 327q31 223 112.5 317t255.5 94zM2167 819q181 0 242 -99t28 -325q-31 -223 -114.5 -318t-256.5 -95q-179 0 -239 99t-29 327q31 222 113 316.5t256 94.5z
M1423 735q-134 0 -190.5 -75t-83.5 -265q-25 -182 10 -255.5t154 -73.5q133 0 191 76t83 266q25 182 -9 254.5t-155 72.5zM2173 735q-135 0 -191.5 -75t-83.5 -265q-25 -182 10 -255.5t154 -73.5q133 0 191.5 76t83.5 266q25 182 -9 254.5t-155 72.5z" />
    <glyph glyph-name="guilsinglleft" unicode="&#x2039;" horiz-adv-x="604" 
d="M524 887l-329 -375l231 -381l-66 -45l-280 418l4 33l385 399z" />
    <glyph glyph-name="guilsinglright" unicode="&#x203a;" horiz-adv-x="604" 
d="M500 520l-2 -33l-389 -401l-54 49l332 377l-231 381l65 43z" />
    <glyph glyph-name="fraction" unicode="&#x2044;" horiz-adv-x="327" 
d="M-334 0h-106l1130 1413h107z" />
    <glyph glyph-name="Euro" unicode="&#x20ac;" horiz-adv-x="1304" 
d="M1286 1399l-24 -103q-141 24 -295 21q-197 -5 -311 -98t-171 -314h549l-28 -86h-541q-2 -12 -10 -54t-11 -67l-8 -67h490l-29 -86h-467q-12 -239 69.5 -342.5t276.5 -106.5q181 -4 334 25l10 -103q-145 -43 -340 -43q-274 0 -388.5 139t-100.5 431h-185l13 86h180l10 82
q3 31 17 106h-179l13 86h184q66 276 213 404.5t414 128.5q179 0 315 -39z" />
    <glyph glyph-name="trademark" unicode="&#x2122;" horiz-adv-x="1947" 
d="M1720 1425h109q19 0 29.5 -12t7.5 -31l-70 -735h-90l63 703h-24l-295 -588q-7 -17 -16.5 -23t-26.5 -6h-82q-35 0 -39 35l-137 582h-25l-129 -703h-92l137 742q3 19 12 27.5t27 8.5h105q17 0 27 -9.5t12 -24.5l112 -486q4 -17 10.5 -53.5t10.5 -54.5h28q12 33 50 110
l245 490q14 28 41 28zM893 1343h-279l-98 -696h-96l96 696h-276l10 82h653z" />
    <glyph glyph-name="partialdiff" unicode="&#x2202;" horiz-adv-x="1165" 
d="M385 1337l6 101q106 1 187 -4.5t155.5 -21t127 -41.5t95.5 -66.5t66.5 -97.5t34.5 -133t5.5 -172.5t-26.5 -217.5q-60 -359 -198 -534t-381 -175q-114 0 -196 38t-122 104t-52 155t13 191q43 210 164.5 330.5t313.5 119.5q228 0 333 -184q21 126 25.5 215t-12.5 159.5
t-54 114t-104.5 71.5t-158.5 38.5t-222 9.5zM459 92q96 0 170 40.5t125 118.5t85 175t58 227q-113 150 -297 150q-149 0 -242.5 -90.5t-130.5 -261.5q-37 -172 22 -265.5t210 -93.5z" />
    <glyph glyph-name="emptyset" unicode="&#x2205;" horiz-adv-x="1402" 
d="M717 1296q122 0 232.5 -47.5t190.5 -127.5t127.5 -190.5t47.5 -232.5t-47.5 -233.5t-127.5 -191.5t-190.5 -127.5t-232.5 -47.5t-233.5 47.5t-191.5 127.5t-127.5 191.5t-47.5 233.5t47.5 232.5t127.5 190.5t191.5 127.5t233.5 47.5zM653 494h111q0 59 20 108.5t48 84
t56 68t48 77t20 94.5q0 190 -239 190q-39 0 -68.5 -1t-56.5 -3.5t-40 -4t-43 -6.5l-42 -7l6 -93q130 19 244 19q64 0 99.5 -25t35.5 -69q0 -36 -20.5 -72.5t-50 -70.5t-58.5 -72.5t-49.5 -95t-20.5 -121.5zM750 350h-80q-15 0 -15 -16v-76q0 -14 15 -14h80q16 0 16 14v76
q0 16 -16 16z" />
    <glyph glyph-name="product" unicode="&#x220f;" horiz-adv-x="1478" 
d="M1491 1303h-225l-213 -1520h-131l215 1520h-607l-213 -1520h-129l213 1520h-225l14 110h1315z" />
    <glyph glyph-name="summation" unicode="&#x2211;" horiz-adv-x="1193" 
d="M1165 1303h-798l280 -584l-493 -813h835l-16 -111h-983l16 111l498 817l-277 580l15 110h938z" />
    <glyph glyph-name="minus" unicode="&#x2212;" horiz-adv-x="1202" 
d="M1034 555h-880l14 100h883z" />
    <glyph glyph-name="radical" unicode="&#x221a;" horiz-adv-x="1140" 
d="M1253 1794l-800 -1780q-6 -14 -23 -14h-149q-10 0 -19 5.5t-8 12.5l-123 973h109l110 -899h29l760 1702h114z" />
    <glyph glyph-name="infinity" unicode="&#x221e;" horiz-adv-x="1599" 
d="M1231 907q123 0 190.5 -70.5t48.5 -203.5q-19 -137 -111 -211t-218 -74q-52 0 -98.5 13t-77.5 30t-64 49t-51 54t-47 61q-53 -47 -92 -77.5t-92.5 -63.5t-109 -49.5t-114.5 -16.5q-129 0 -203 78t-55 219q19 131 104.5 196.5t209.5 65.5q60 0 111 -16t95 -50t75 -66.5
t73 -84.5q48 44 89 76.5t97 67.5t117 54t123 19zM248 631q-13 -91 31 -138t135 -47q39 0 76.5 11t63.5 23.5t65.5 43.5t58 48t65.5 61q-35 47 -58 73t-56.5 53t-72 38.5t-87.5 11.5q-196 0 -221 -178zM1358 643q13 86 -27.5 126t-122.5 40q-27 0 -54.5 -5.5t-48.5 -12.5
t-46.5 -21.5t-42 -25.5t-41.5 -32t-37 -32t-38 -35t-36 -33q57 -78 84 -103q69 -63 176 -63q95 0 158.5 51t75.5 146z" />
    <glyph glyph-name="integral" unicode="&#x222b;" horiz-adv-x="770" 
d="M264 -158l103 1350q21 270 256 270q109 0 188 -8l-16 -94h-131q-87 0 -131.5 -44.5t-51.5 -146.5l-102 -1353q-12 -139 -73.5 -205t-188.5 -66q-120 0 -185 9l19 94h129q86 0 130.5 45t53.5 149z" />
    <glyph glyph-name="approxequal" unicode="&#x2248;" horiz-adv-x="1204" 
d="M264 680l-88 6q6 120 59 170.5t146 48.5q53 -1 121.5 -20t123.5 -41.5t123 -42.5t121 -21q55 -2 84 23t39 94l90 -6q-6 -111 -56.5 -162.5t-154.5 -50.5q-73 0 -163 31t-176 62.5t-146 33.5q-55 0 -84 -26.5t-39 -98.5zM209 289l-88 6q4 120 58 171t147 48
q53 -1 121.5 -20t123.5 -41.5t123 -42.5t121 -21q55 -2 84 23t39 94l90 -4q-6 -113 -55.5 -164.5t-153.5 -50.5q-73 1 -163.5 32t-177 62t-146.5 33q-56 0 -84.5 -26.5t-38.5 -98.5z" />
    <glyph glyph-name="notequal" unicode="&#x2260;" horiz-adv-x="1253" 
d="M766 764l-248 -332h524l-12 -100h-588l-188 -254l-47 24l172 230h-232l15 100h291l249 332h-495l14 100h555l166 221l47 -24l-147 -197h260l-12 -100h-324z" />
    <glyph glyph-name="lessequal" unicode="&#x2264;" horiz-adv-x="1171" 
d="M1049 969l-746 -242l680 -221l-16 -103l-787 271l15 106l868 297zM965 180h-871l15 99h870z" />
    <glyph glyph-name="greaterequal" unicode="&#x2265;" horiz-adv-x="1167" 
d="M1022 780l-14 -106l-865 -271l17 109l739 225l-674 242l15 98zM961 180h-869l14 99h869z" />
    <glyph glyph-name="lozenge" unicode="&#x25ca;" horiz-adv-x="1183" 
d="M96 727l594 692q17 17 31 -4l399 -694q7 -17 0 -31l-594 -696q-19 -19 -30 4l-402 698q-7 18 2 31zM205 707l319 -572l490 578l-320 567z" />
    <glyph glyph-name="c_t" horiz-adv-x="1654" 
d="M1313 889l-92 -645q-11 -75 18 -108.5t104 -33.5h164l6 -98q-90 -20 -206 -20q-123 0 -177.5 64.5t-37.5 184.5l92 654h-529q-102 0 -169.5 -17.5t-118.5 -62t-80 -120.5t-45 -195q-11 -83 -12.5 -144t9.5 -106.5t32.5 -74.5t58.5 -47t83.5 -25t112.5 -7q170 0 295 23
l10 -91q-145 -45 -325 -45q-258 0 -349.5 120.5t-50.5 406.5q40 268 159 378.5t370 110.5h563l43 301h127l-41 -301h334l-14 -102h-334z" />
    <glyph glyph-name="f_f_y" horiz-adv-x="2420" 
d="M2247 991h135q-116 -474 -332 -841q-157 -277 -297 -408t-317 -166l-25 90q119 33 218 111.5t196 222.5h-86q-41 0 -70.5 23.5t-38.5 62.5l-149 690q-24 113 -140 113h-270l-139 -981q-21 -141 -92.5 -211t-208.5 -70q-114 0 -215 13l18 96h156q104 0 151 40.5t62 149.5
l137 963h-528l-146 -1024q-21 -141 -93.5 -212t-207.5 -71q-97 0 -217 12l19 97h157q102 0 149 41.5t64 150.5l144 1006h-183l15 92l182 10l22 162q21 141 96.5 212t215.5 71q169 0 268 -13l-18 -96h-209q-109 0 -159 -41t-65 -151l-20 -144h528l27 193q21 141 96 211.5
t215 70.5q155 0 269 -12l-19 -96h-209q-108 0 -158 -42t-65 -151l-25 -174h295q191 0 228 -188l133 -656q10 -43 53 -43h94l47 82q113 200 185.5 387.5t126.5 417.5z" />
    <glyph glyph-name="f_t" horiz-adv-x="1423" 
d="M1081 889l-90 -645q-12 -75 17 -108.5t104 -33.5h166l4 -98q-87 -20 -207 -20q-123 0 -177.5 64.5t-37.5 184.5l92 656h-542l-144 -1024q-21 -141 -93.5 -212t-207.5 -71q-97 0 -217 12l19 97h157q103 0 150.5 41.5t62.5 150.5l142 1006h-179l13 92l180 10l29 193
q19 141 94 211.5t217 70.5q154 0 268 -12l-18 -96h-209q-109 0 -159.5 -42t-65.5 -151l-25 -174h543l43 301h129l-43 -301h334l-15 -102h-334z" />
    <glyph glyph-name="f_y" horiz-adv-x="1755" 
d="M1581 991h135q-116 -474 -332 -841q-157 -277 -297 -408t-317 -166l-25 90q119 33 218 111.5t196 222.5h-86q-41 0 -70 23.5t-38 62.5l-150 690q-24 113 -139 113h-270l-140 -1024q-21 -141 -93.5 -212t-207.5 -71q-97 0 -217 12l19 97h157q103 0 150.5 41.5t62.5 150.5
l137 1006h-180l12 92l183 10l26 193q21 141 96.5 211.5t215.5 70.5q154 0 268 -12l-18 -96h-209q-108 0 -158.5 -42.5t-65.5 -150.5l-24 -174h295q190 0 227 -188l133 -656q10 -43 53 -43h95l47 82q112 199 184.5 386.5t126.5 418.5z" />
    <glyph glyph-name="s_t" horiz-adv-x="1734" 
d="M1391 889l-91 -645q-10 -75 19 -108.5t104 -33.5h164l6 -98q-90 -20 -207 -20q-123 0 -177.5 64.5t-37.5 184.5l93 656h-719q-159 2 -216.5 -17t-70.5 -94q-10 -69 18.5 -101.5t106.5 -64.5l297 -123q79 -33 121 -63.5t62.5 -81.5t10.5 -127q-7 -47 -21.5 -83t-35 -61.5
t-52 -43.5t-64 -28.5t-80.5 -16t-92 -7.5t-107 -2q-33 0 -61 0.5t-57 2t-47 3t-49.5 5l-45 5t-54 6.5t-57.5 7l17 96q127 -14 329 -14q196 3 266 30t82 113q3 17 2.5 31t-2 25t-7.5 21.5t-10.5 18t-16 16t-19 13.5t-24 12.5t-26.5 12t-30 12.5l-295 123q-109 47 -154.5 105
t-31.5 169q21 123 116 164.5t294 38.5h737l43 301h127l-41 -301h334l-17 -102h-333z" />
    <glyph glyph-name="t_t" horiz-adv-x="1441" 
d="M1100 889l-90 -645q-10 -75 18 -108.5t102 -33.5h166l4 -98q-87 -20 -204 -20q-125 0 -179.5 64.5t-37.5 184.5l92 656h-568l-90 -645q-10 -75 19 -108.5t104 -33.5h164l6 -98q-90 -20 -207 -20q-123 0 -177.5 64.5t-37.5 184.5l92 656h-182l12 92l185 10l43 301h127
l-41 -301h565l43 301h129l-43 -301h334l-14 -102h-334z" />
    <glyph glyph-name="t_y" horiz-adv-x="1812" 
d="M1638 991h136q-116 -474 -332 -841q-157 -276 -297.5 -407.5t-317.5 -166.5l-24 90q119 33 218 111.5t196 222.5h-87q-41 0 -70 23.5t-38 62.5l-150 690q-24 113 -139 113h-330l-90 -645q-10 -75 19 -108.5t104 -33.5h164l6 -98q-90 -20 -207 -20q-123 0 -177.5 64.5
t-37.5 184.5l92 656h-182l12 92l185 10l43 301h127l-41 -301h338q205 0 246 -200l129 -644q10 -43 53 -43h94l47 82q112 199 184.5 386.5t126.5 418.5z" />
    <glyph glyph-name="brevecy" horiz-adv-x="751" 
d="M700 1417h103q-12 -120 -99.5 -193t-224.5 -73q-142 0 -217 73.5t-53 192.5h104q-15 -95 30 -142.5t142 -47.5q91 0 147 47.5t68 142.5z" />
    </font>
</defs>
</svg>
