<?xml version="1.0" standalone="no"?>
<!DOCTYPE svg PUBLIC "-//W3C//DTD SVG 1.1//EN" "http://www.w3.org/Graphics/SVG/1.1/DTD/svg11.dtd" >
<svg xmlns="http://www.w3.org/2000/svg" xmlns:xlink="http://www.w3.org/1999/xlink" version="1.1">
<metadata>
Created by FontForge 20170731 at Sun Apr  4 19:58:01 2021
 By Aleksey,,,
Copyright (c) 2013, Natanael Gama (www.ndiscovered.com . info(at)ndiscovered.com), with Reserved Font Name Exo. This Font Software is licensed under the SIL Open Font License, Version 1.1.
</metadata>
<defs>
<font id="Exo2.0-Italic" horiz-adv-x="1173" >
  <font-face 
    font-family="Exo 2.0"
    font-weight="400"
    font-style="italic"
    font-stretch="normal"
    units-per-em="2048"
    panose-1="0 0 5 0 0 0 0 0 0 0"
    ascent="1638"
    descent="-410"
    x-height="997"
    cap-height="1413"
    bbox="-444 -565 2479.28 1917"
    underline-thickness="102"
    underline-position="-307"
    slope="-8"
    unicode-range="U+0020-FB02"
  />
<missing-glyph horiz-adv-x="1228" 
 />
    <glyph glyph-name="fi" unicode="fi" horiz-adv-x="1234" 
d="M1128 997l-141 -997h-174l121 860h-488l-139 -983q-39 -289 -315 -289q-97 0 -238 15l27 131h156q98 0 141.5 35t58.5 135l133 956h-178l17 127l182 8l22 164q23 155 98.5 232t227.5 77q145 0 246 -14l-13 -129h-178q-99 0 -147.5 -44t-61.5 -148l-20 -136h663z
M1053 1421h82q27 0 40.5 -16t8.5 -41l-15 -117q-5 -27 -17.5 -38t-39.5 -11h-82q-55 0 -49 57l16 115q6 51 56 51z" />
    <glyph glyph-name="fl" unicode="fl" horiz-adv-x="1359" 
d="M1260 119l8 -113q-27 -11 -83 -17.5t-95 -6.5q-117 0 -177 63.5t-45 173.5l156 1108h-330q-99 0 -147.5 -44.5t-61.5 -149.5l-20 -136h299l-19 -137h-299l-139 -983q-39 -289 -315 -289q-97 0 -238 15l27 131h156q98 0 141.5 35t58.5 135l133 956h-178l17 127l182 8
l22 164q23 156 99 233t227 76q452 -6 571 -24l-161 -1194q-18 -131 110 -131h101z" />
    <glyph glyph-name="f_f" unicode="ff" horiz-adv-x="1454" 
d="M1577 1325h-201q-101 0 -146.5 -36t-60.5 -136l-22 -156h317l-18 -137h-318l-133 -950q-42 -289 -317 -289q-104 0 -236 14l27 132h154q99 0 142 35t58 135l129 923h-503l-142 -983q-42 -289 -315 -289q-97 0 -238 15l27 131h156q98 0 141.5 35t58.5 135l135 956h-182
l16 127l187 8l22 160q39 287 322 287q189 0 283 -12l-27 -132h-201q-101 0 -146.5 -35.5t-60.5 -134.5l-18 -131h506l24 183q42 288 324 288q174 0 283 -14z" />
    <glyph glyph-name="f_f_i" unicode="ffi" horiz-adv-x="1914" 
d="M1808 997l-141 -997h-174l121 860h-486l-133 -950q-42 -289 -317 -289q-104 0 -236 14l27 132h154q99 0 142 35t58 135l129 923h-503l-142 -983q-42 -289 -315 -289q-97 0 -238 15l27 131h156q98 0 141.5 35t58.5 135l135 956h-182l16 127l187 8l22 160q39 287 322 287
q189 0 283 -12l-27 -132h-201q-101 0 -146.5 -35.5t-60.5 -134.5l-18 -131h506l24 183q42 288 324 288q174 0 283 -14l-27 -129h-201q-101 0 -146.5 -36t-60.5 -136l-22 -156h661zM1733 1421h82q27 0 40.5 -16t8.5 -41l-15 -117q-5 -27 -17 -38t-38 -11h-82q-57 0 -51 57
l16 115q6 51 56 51z" />
    <glyph glyph-name="f_f_l" unicode="ffl" horiz-adv-x="2041" 
d="M1939 119l9 -113q-27 -11 -83.5 -17.5t-97.5 -6.5q-117 0 -175.5 63.5t-43.5 173.5l156 1108h-332q-98 0 -146 -44t-63 -150l-18 -136h299l-19 -137h-301l-133 -950q-42 -289 -317 -289q-104 0 -236 14l27 132h153q99 0 142.5 35t58.5 135l131 923h-501l-142 -983
q-42 -289 -315 -289q-97 0 -238 15l27 131h156q98 0 141.5 35t58.5 135l135 956h-182l16 127l187 8l22 160q39 287 322 287q189 0 283 -12l-27 -132h-201q-101 0 -146.5 -35.5t-60.5 -134.5l-18 -131h502l22 162q23 156 99 233t227 76q454 -6 573 -24l-164 -1194
q-18 -131 111 -131h102z" />
    <glyph glyph-name=".notdef" horiz-adv-x="1228" 
 />
    <glyph glyph-name=".null" horiz-adv-x="0" 
 />
    <glyph glyph-name="nonmarkingreturn" horiz-adv-x="682" 
 />
    <glyph glyph-name="space" unicode=" " horiz-adv-x="456" 
 />
    <glyph glyph-name="exclam" unicode="!" horiz-adv-x="555" 
d="M391 797l-67 -365h-138l33 365l88 626h172zM201 242h47q69 0 57 -68l-14 -113q-9 -61 -68 -61h-47q-70 0 -61 68l16 114q9 60 70 60z" />
    <glyph glyph-name="quotedbl" unicode="&#x22;" horiz-adv-x="716" 
d="M322 973h-119l51 440h141zM618 973h-120l51 440h141z" />
    <glyph glyph-name="numbersign" unicode="#" horiz-adv-x="1396" 
d="M1106 918l-117 -369h225l-34 -113h-226l-137 -436h-137l137 436h-377l-137 -436h-137l137 436h-240l37 113h238l117 369h-238l39 112h233l121 383h138l-119 -383h375l120 383h138l-119 -383h227l-39 -112h-225zM969 918h-377l-117 -369h377z" />
    <glyph glyph-name="dollar" unicode="$" horiz-adv-x="1155" 
d="M1102 1397l-21 -131q-107 6 -303 10l-106 -496l110 -41q156 -57 206 -146.5t28 -250.5q-13 -93 -40 -157t-67 -105.5t-103.5 -64.5t-137 -31.5t-179.5 -8.5h-4l-51 -235h-86l51 237q-163 4 -340 37l23 133q313 -10 352 -10l109 506l-131 47q-146 54 -198 147.5t-30 245.5
q13 93 42.5 158.5t69.5 103.5t103.5 59t127 27.5t157.5 6.5h41l43 198h86l-43 -202q145 -6 291 -37zM692 1276h-14h-73.5t-64 -3.5t-54 -11.5t-44 -23t-35 -37.5t-26 -56.5t-16.5 -79q-13 -104 14.5 -145.5t126.5 -77.5l86 -33zM623 612l-103 -475q85 2 135.5 10t90.5 32.5
t60 67t30 113.5q9 73 -2.5 114t-42 64t-97.5 48z" />
    <glyph glyph-name="percent" unicode="%" horiz-adv-x="1830" 
d="M526 1440q185 0 248.5 -99t32.5 -327q-33 -226 -116 -320t-261 -94q-184 0 -247.5 99t-30.5 327q33 227 115 320.5t259 93.5zM438 0h-135l1114 1413h135zM530 1329q-123 0 -172 -67.5t-75 -247.5q-23 -172 6.5 -237.5t134.5 -65.5q124 0 175 68t75 247q25 171 -5 237
t-139 66zM1430 819q186 0 248.5 -99t29.5 -329q-31 -224 -115 -317.5t-262 -93.5q-184 0 -246.5 99t-29.5 327q31 226 114 319.5t261 93.5zM1434 709q-64 0 -106 -16.5t-69.5 -57t-43.5 -96.5t-29 -148q-24 -171 5.5 -237t135.5 -66q124 0 175 69t75 249q25 171 -4.5 237
t-138.5 66z" />
    <glyph glyph-name="ampersand" unicode="&#x26;" horiz-adv-x="1546" 
d="M1466 664h-219q-37 -233 -127 -375q-191 -309 -633 -312q-236 -2 -329.5 87.5t-67.5 300.5q24 173 109.5 264t242.5 100l2 10q-255 17 -200 334q15 91 46 155t73.5 104t107.5 63t136 31t171 8q183 0 346 -43l-30 -136q-136 31 -312 31q-96 0 -155 -9t-103.5 -36.5
t-67.5 -75.5t-36 -127q-23 -139 31.5 -188t216.5 -49h434q6 82 6 264h160q3 -141 -6 -264h227zM1087 664h-438q-91 -1 -151 -13t-106 -44t-71.5 -86.5t-39.5 -139.5q-23 -143 26.5 -195.5t192.5 -52.5q324 0 475 223q83 119 112 308z" />
    <glyph glyph-name="quotesingle" unicode="'" horiz-adv-x="421" 
d="M322 973h-119l51 440h141z" />
    <glyph glyph-name="parenleft" unicode="(" horiz-adv-x="729" 
d="M784 1620l21 -86q-218 -100 -344 -318t-176 -581q-48 -349 12.5 -568t245.5 -323l-23 -80q-262 107 -361.5 350t-43.5 635q56 394 216.5 629t452.5 342z" />
    <glyph glyph-name="parenright" unicode=")" horiz-adv-x="729" 
d="M199 1536l22 80q263 -105 364 -346.5t44 -640.5q-57 -392 -218.5 -626.5t-453.5 -342.5l-18 86q216 105 343 328t177 573q48 352 -12.5 571.5t-247.5 317.5z" />
    <glyph glyph-name="asterisk" unicode="*" horiz-adv-x="917" 
d="M561 1085l172 -264l-88 -61l-125 252l-192 -250l-82 63l243 260l29 330h109zM461 1137l-6 -45l-27 -29l-248 70l41 98zM885 1124l-264 -61l-17 29v45l258 94z" />
    <glyph glyph-name="plus" unicode="+" horiz-adv-x="1120" 
d="M1001 547h-380l-52 -363h-133l49 363h-381l19 131h381l51 360h135l-51 -360h381z" />
    <glyph glyph-name="comma" unicode="," horiz-adv-x="464" 
d="M160 242h53q35 0 48 -15.5t7 -52.5l-18 -131q-17 -144 -115 -315l-86 30q52 157 68 246q-29 -3 -43 12.5t-11 42.5l17 121q8 36 24 49t56 13z" />
    <glyph glyph-name="hyphen" unicode="-" horiz-adv-x="915" 
d="M750 451h-625l18 133h623z" />
    <glyph glyph-name="period" unicode="." horiz-adv-x="460" 
d="M150 242h57q68 0 59 -68l-14 -113q-9 -61 -70 -61h-57q-71 0 -62 68l17 114q9 60 70 60z" />
    <glyph glyph-name="slash" unicode="/" horiz-adv-x="1073" 
d="M106 -135h-149l1022 1548h149z" />
    <glyph glyph-name="zero" unicode="0" horiz-adv-x="1230" 
d="M723 1440q270 0 359 -176t34 -564q-55 -390 -186 -558.5t-391 -168.5q-268 0 -359 175t-35 565q55 391 185.5 559t392.5 168zM721 1282q-180 0 -269.5 -132t-132.5 -450q-45 -315 2 -442t216 -127q181 0 270.5 131.5t134.5 450.5q45 316 -2.5 442.5t-218.5 126.5z" />
    <glyph glyph-name="one" unicode="1" horiz-adv-x="808" 
d="M496 0h-179l158 1124q5 56 25 123l-361 -112l-4 133l379 145h180z" />
    <glyph glyph-name="two" unicode="2" horiz-adv-x="1140" 
d="M229 1245l-2 139q239 54 432 54q82 0 143.5 -7.5t116.5 -28t88 -55t48 -90t6 -131.5q-17 -130 -87.5 -242.5t-232.5 -269.5l-462 -448q93 8 219 8h481l-25 -174h-927l16 117q7 52 31 76l477 462q161 153 239.5 265t88.5 213q4 39 -4.5 66t-25.5 42.5t-50 23.5t-66.5 10.5
t-87.5 2.5q-211 0 -416 -33z" />
    <glyph glyph-name="three" unicode="3" horiz-adv-x="1126" 
d="M244 1264l-6 139q222 37 395 37q234 0 325.5 -81t73.5 -253q-6 -61 -23 -117.5t-46.5 -109.5t-77 -88.5t-107.5 -42.5l-2 -9q122 -22 172 -112.5t27 -239.5q-62 -396 -535 -414q-182 -6 -411 37l22 140q20 -1 77.5 -5.5t83.5 -6.5t69.5 -4t78 -1.5t68.5 2.5
q326 22 369 285q46 249 -238 252l-266 4l18 137h258q80 1 136.5 23t87 62.5t45 82.5t20.5 96q8 48 2.5 83t-18.5 58.5t-46 37t-80.5 19t-121.5 5.5q-150 0 -350 -16z" />
    <glyph glyph-name="four" unicode="4" horiz-adv-x="1249" 
d="M1130 365l-184 -19l-49 -346h-170l47 346h-549q-67 0 -111.5 37t-49 89.5t27.5 109.5l512 831h182l-512 -840q-24 -40 -14.5 -59.5t47.5 -19.5h488l59 415l66 234h137l-90 -649h182z" />
    <glyph glyph-name="five" unicode="5" horiz-adv-x="1091" 
d="M1024 1260h-594l-74 -386l146 -12q125 -9 211.5 -34t147.5 -74.5t84 -129.5t9 -194q-8 -62 -25 -118t-55 -117.5t-92 -106.5t-142.5 -76.5t-199.5 -36.5q-190 -10 -407 52l33 145q184 -46 335 -37q343 18 379 309q7 35 4.5 65t-6 54t-17.5 43.5t-29.5 34.5t-41.5 26.5
t-54 20t-67 14t-81 9.5t-95 6l-133 10q-36 3 -56.5 29.5t-13.5 62.5l115 594h750z" />
    <glyph glyph-name="six" unicode="6" horiz-adv-x="1165" 
d="M1075 1405l-24 -129q-90 8 -265 8q-74 0 -126 -8t-98.5 -30.5t-78 -58.5t-59.5 -96.5t-49 -140t-41 -192.5q155 161 375 164q195 5 279.5 -102.5t47.5 -364.5q-17 -120 -50 -205.5t-92.5 -149t-152 -94.5t-221.5 -31q-195 0 -288.5 74.5t-108.5 234.5t24 412
q20 138 46 244.5t56.5 185t72.5 133.5t86.5 90t104.5 54.5t121 27t142 7.5q134 0 299 -33zM666 776q-89 -2 -173 -42t-186 -140q-27 -172 -17.5 -275.5t64.5 -146.5t176 -43q86 0 146 22t97.5 68t58 105t32.5 145q17 109 8.5 178t-57 100t-149.5 29z" />
    <glyph glyph-name="seven" unicode="7" horiz-adv-x="1044" 
d="M184 1413h801q64 0 85 -34.5t-7 -92.5l-621 -1286h-180l559 1159q37 72 60 101h-709z" />
    <glyph glyph-name="eight" unicode="8" horiz-adv-x="1241" 
d="M387 733l4 8q-198 23 -155 326q15 101 43 166.5t83 113t143.5 68t219.5 19.5q136 0 222.5 -22.5t131.5 -69.5t56.5 -118.5t-2.5 -168.5q-21 -144 -79.5 -226.5t-166.5 -93.5l-4 -8q124 -13 165 -110t15 -271q-14 -101 -42.5 -166t-87.5 -111.5t-153 -67t-237 -21.5
q-263 -1 -365 89.5t-74 288.5q25 175 88.5 268.5t194.5 106.5zM713 1288q-91 0 -148 -12t-92 -44t-51 -75.5t-27 -118.5q-5 -48 -7 -83.5t9 -61.5t28 -43t50 -27t75.5 -14t104.5 -4q119 0 180 22t89.5 72t42.5 152q17 89 0.5 141.5t-74 74t-180.5 21.5zM627 662
q-66 -1 -110.5 -5t-83 -15.5t-62 -30t-42.5 -51t-30 -74.5t-20 -103q-9 -71 -4.5 -118.5t36.5 -77t90.5 -42t157.5 -12.5q181 0 251 56.5t89 207.5q9 57 9.5 96t-8.5 70t-27.5 49t-53.5 30t-80 16t-112 4z" />
    <glyph glyph-name="nine" unicode="9" horiz-adv-x="1165" 
d="M96 8l27 131q110 -10 280 -10q93 2 156.5 19t112.5 51t83 98.5t59.5 149.5t49.5 217q-84 -93 -168 -131.5t-194 -40.5q-111 -1 -185.5 32.5t-110 95.5t-47 148t4.5 190q30 256 154.5 368t363.5 112q112 0 188 -24t124.5 -74.5t68 -137.5t16 -203.5t-29.5 -281.5
q-24 -156 -53.5 -269.5t-69.5 -197t-87 -136t-113 -84t-139 -43.5t-173 -12q-176 0 -318 33zM537 635q96 2 174 42.5t180 143.5q28 171 19 274t-64 146t-176 43q-169 0 -241.5 -78t-96.5 -262q-24 -168 22 -239t183 -70z" />
    <glyph glyph-name="colon" unicode=":" horiz-adv-x="481" 
d="M250 901h59q70 0 58 -67l-15 -113q-9 -62 -67 -62h-60q-70 0 -61 70l18 113q6 59 68 59zM158 242h57q68 0 59 -68l-14 -113q-9 -61 -70 -61h-57q-70 0 -61 68l16 114q9 60 70 60z" />
    <glyph glyph-name="semicolon" unicode=";" horiz-adv-x="489" 
d="M252 901h59q69 0 60 -67l-17 -113q-6 -62 -67 -62h-60q-70 0 -61 70l18 113q6 59 68 59zM174 242h51q36 0 49 -16t7 -52l-17 -131q-20 -144 -114 -315l-87 30q47 143 66 246q-27 -3 -40.5 12.5t-10.5 42.5l16 121q8 36 24 49t56 13z" />
    <glyph glyph-name="less" unicode="&#x3c;" horiz-adv-x="1077" 
d="M977 887l-721 -281l641 -282l-18 -136l-783 353l19 139l882 352z" />
    <glyph glyph-name="equal" unicode="=" horiz-adv-x="1200" 
d="M1069 752h-897l18 129h897zM1010 317h-897l18 132h897z" />
    <glyph glyph-name="greater" unicode="&#x3e;" horiz-adv-x="1077" 
d="M985 680l-20 -139l-881 -351l18 148l721 280l-641 283l21 135z" />
    <glyph glyph-name="question" unicode="?" horiz-adv-x="1021" 
d="M182 1290l-2 125q13 2 56 10t56 10t49.5 7.5t59 7t60.5 4t79 3.5t91 1q204 0 303 -81t76 -242q-8 -62 -35.5 -116.5t-65.5 -96.5t-83 -82t-90.5 -82t-85 -87.5t-70.5 -107.5t-43 -133h-148q9 76 36.5 143.5t64 117.5t79 94.5t85 84t78 77t60.5 81.5t31 90q15 109 -37 151
t-192 42q-51 0 -95.5 -1t-72.5 -1.5t-67 -3.5t-54 -4t-61 -5.5t-62 -5.5zM410 242h45q37 0 51.5 -16.5t9.5 -51.5l-16 -113q-6 -61 -68 -61h-47q-70 0 -61 68l16 112q9 62 70 62z" />
    <glyph glyph-name="at" unicode="@" horiz-adv-x="1581" 
d="M227 1169l15 129q273 13 639 17q107 1 181.5 -3t141.5 -17t109 -34t75.5 -58t48 -85t20.5 -119.5t-0.5 -156t-22.5 -199.5q-16 -134 -34.5 -230.5t-44.5 -172t-57.5 -123t-75.5 -78t-96 -43t-122 -12.5q-224 0 -230 211q-86 -104 -182.5 -162t-220.5 -58q-173 0 -235 120
t-19 374q17 98 39.5 169.5t55 122t69 82.5t88 50t106 24.5t129.5 6.5q174 0 440 -47l-98 -644q-6 -56 10 -79t62 -23q116 0 164.5 106.5t89.5 419.5q14 101 21.5 166t4.5 124t-8 92t-32.5 61t-51.5 39.5t-81.5 19.5t-106 9t-141.5 1h-650zM793 354l65 422q-141 6 -194 6
q-74 0 -122 -4t-89 -18t-65 -35t-44.5 -60t-33 -87t-25.5 -123q-32 -189 -6 -260.5t129 -71.5q97 0 185.5 55t199.5 176z" />
    <glyph glyph-name="A" unicode="A" horiz-adv-x="1267" 
d="M913 440h-583l-201 -440h-190l647 1366q14 47 69 47h189q25 0 42.5 -15t18.5 -38l264 -1360h-180zM885 598l-99 557q-3 19 -8 59.5t-8 61.5h-61l-54 -121l-254 -557h484z" />
    <glyph glyph-name="B" unicode="B" horiz-adv-x="1265" 
d="M92 0l199 1413q174 17 452 17q130 0 214.5 -17.5t139 -60.5t71 -115.5t1.5 -181.5q-22 -154 -88 -231t-194 -89l-2 -8q150 -13 202.5 -110.5t26.5 -270.5q-17 -111 -49.5 -180.5t-93 -110.5t-141 -56t-205.5 -15q-348 0 -533 16zM383 801h299q157 2 225 53t88 193
q4 48 5.5 84t-12 61.5t-30.5 41.5t-51 25.5t-74 13t-98 3.5h-286zM362 664l-73 -525q82 -2 309 -2q177 0 248.5 51t91.5 201q16 109 -4.5 167t-80.5 82t-179 26h-312z" />
    <glyph glyph-name="C" unicode="C" horiz-adv-x="1159" 
d="M1006 158l10 -138q-168 -45 -416 -45q-303 0 -410 173.5t-51 564.5q29 205 76 340.5t124.5 223t184 124.5t260.5 37q134 0 215.5 -9.5t169.5 -33.5l-28 -135q-181 18 -359 18q-107 0 -179 -25.5t-128 -91.5t-90 -176.5t-57 -284.5q-34 -211 -15.5 -336.5t85.5 -176.5
t204 -52q212 0 404 23z" />
    <glyph glyph-name="D" unicode="D" horiz-adv-x="1355" 
d="M92 0l199 1413q264 19 463 19q110 0 192 -16t144.5 -52t100.5 -92t57 -138.5t18 -188.5t-21 -245q-19 -132 -43.5 -232.5t-55.5 -177.5t-74 -130t-91.5 -88t-115 -54.5t-137.5 -27.5t-167 -8q-199 0 -469 18zM451 1272l-158 -1129q184 -4 266 -4q127 0 205 21.5t138.5 86
t95 174t61.5 292.5q17 118 21.5 202.5t-5.5 149t-32 104t-64 64t-96 34t-133 9.5q-95 0 -299 -4z" />
    <glyph glyph-name="E" unicode="E" horiz-adv-x="1142" 
d="M1126 1262h-563q-69 0 -102.5 -33t-42.5 -107l-43 -307h608l-18 -139h-609l-53 -391q-10 -70 17 -101.5t96 -31.5h553l-4 -142q-180 -12 -572 -12q-153 0 -223 75t-51 208l125 893q15 115 91.5 178t205.5 63q422 0 610 -12z" />
    <glyph glyph-name="F" unicode="F" horiz-adv-x="1099" 
d="M1114 1262h-526q-79 0 -115.5 -30.5t-46.5 -109.5l-47 -329h592l-21 -140h-590l-92 -653h-180l162 1165q19 121 96 185.5t203 64.5q410 0 590 -14z" />
    <glyph glyph-name="G" unicode="G" horiz-adv-x="1277" 
d="M1214 1395l-26 -133q-172 16 -357 16q-129 0 -209.5 -23t-141.5 -88.5t-95 -175.5t-57 -291q-35 -317 12.5 -442t206.5 -125q103 0 188.5 50.5t198.5 160.5l65 475h175l-117 -819h-129l4 195q-95 -109 -203 -165.5t-242 -56.5q-222 0 -306.5 177.5t-41.5 562.5
q19 147 49 259t74 192t97 133.5t124 85t148.5 44.5t177.5 13q235 0 405 -45z" />
    <glyph glyph-name="H" unicode="H" horiz-adv-x="1363" 
d="M1303 1413l-199 -1413h-178l94 676h-651l-95 -676h-182l199 1413h182l-82 -582h651l82 582h179z" />
    <glyph glyph-name="I" unicode="I" horiz-adv-x="534" 
d="M274 0h-182l199 1413h182z" />
    <glyph glyph-name="J" unicode="J" horiz-adv-x="694" 
d="M639 1413l-160 -1120q-20 -153 -98.5 -232t-208.5 -79q-106 0 -190 26l34 127h97q81 0 129 41t59 117l156 1120h182z" />
    <glyph glyph-name="K" unicode="K" horiz-adv-x="1214" 
d="M678 737v-8q36 -42 67 -102l349 -627h-205l-363 664h-174q0 -93 -10 -154l-70 -510h-180l199 1413h180l-63 -444q-11 -75 -33 -160h166l506 604h219l-492 -586q-56 -64 -96 -90z" />
    <glyph glyph-name="L" unicode="L" horiz-adv-x="1042" 
d="M467 1413l-158 -1128q-19 -133 113 -133h512l-4 -142q-178 -12 -547 -12q-134 0 -203.5 76t-48.5 217l154 1122h182z" />
    <glyph glyph-name="M" unicode="M" horiz-adv-x="1794" 
d="M1419 1413h201q36 0 54.5 -21.5t15.5 -58.5l-129 -1333h-181l131 1264h-41l-460 -1045q-23 -59 -84 -59h-162q-63 0 -76 65l-178 1039h-41l-225 -1264h-178l243 1341q12 72 80 72h199q57 0 67 -65l152 -861q9 -48 27 -192h38q36 90 80 190l383 869q13 30 33 43.5t51 15.5
z" />
    <glyph glyph-name="N" unicode="N" horiz-adv-x="1439" 
d="M1378 1413l-190 -1345q-5 -36 -21.5 -52t-50.5 -16h-164q-29 0 -45.5 15t-27.5 46l-355 1002q-41 117 -55 182h-35q-3 -85 -16 -186l-146 -1059h-180l189 1346q6 35 23.5 51t51.5 16h160q29 0 46 -15t28 -46l344 -975q49 -145 65 -205h39q6 100 21 207l141 1034h178z" />
    <glyph glyph-name="O" unicode="O" horiz-adv-x="1363" 
d="M793 1440q119 0 205 -24.5t147.5 -79t91 -140.5t36 -209.5t-19.5 -286.5q-37 -277 -112.5 -434t-201.5 -225t-331 -68q-200 0 -313 69.5t-153.5 233t-2.5 437.5q28 204 74.5 339t124.5 223.5t187.5 126.5t267.5 38zM782 1278q-88 0 -152 -18t-114 -57.5t-85 -108.5
t-59.5 -163.5t-43.5 -230.5q-33 -211 -14.5 -336.5t87.5 -177t211 -51.5q143 0 230 54t140 177.5t85 346.5q19 135 21 228.5t-13.5 160t-54 104.5t-95.5 55t-143 17z" />
    <glyph glyph-name="P" unicode="P" horiz-adv-x="1204" 
d="M92 0l199 1413q185 19 479 19q248 0 341 -102t58 -347q-13 -91 -32 -157.5t-49 -115.5t-66.5 -80t-90.5 -50t-115.5 -26t-145.5 -7q-171 0 -318 20l-80 -567h-180zM371 702h293q167 0 234 60t93 235q12 67 7.5 115.5t-17 80t-44 50t-72 26t-101.5 7.5q-231 0 -313 -2z
" />
    <glyph glyph-name="Q" unicode="Q" horiz-adv-x="1363" 
d="M793 1440q119 0 205 -24.5t147.5 -79t91 -140.5t36 -209.5t-19.5 -286.5q-37 -277 -112.5 -434t-201.5 -225t-331 -68q-200 0 -313 69.5t-153.5 233t-2.5 437.5q28 204 74.5 339t124.5 223.5t187.5 126.5t267.5 38zM782 1278q-88 0 -152 -18t-114 -57.5t-85 -108.5
t-59.5 -163.5t-43.5 -230.5q-33 -211 -14.5 -336.5t87.5 -177t211 -51.5q143 0 230 54t140 177.5t85 346.5q19 135 21 228.5t-13.5 160t-54 104.5t-95.5 55t-143 17zM426 -197l70 107q222 -111 526 -158l-72 -180q-291 67 -524 231z" />
    <glyph glyph-name="R" unicode="R" horiz-adv-x="1265" 
d="M92 0l199 1413q185 19 479 19q115 0 194.5 -20t135.5 -67t76 -128.5t4 -200.5q-24 -165 -98 -252t-218 -105l-2 -10q117 -34 150 -207l90 -442h-184l-84 446q-15 78 -53 111t-107 33l-322 2l-84 -592h-176zM375 745h301q158 2 228 60.5t93 216.5q22 147 -28 200.5
t-203 53.5q-235 0 -317 -2z" />
    <glyph glyph-name="S" unicode="S" horiz-adv-x="1146" 
d="M688 586l-280 104q-146 54 -198.5 147t-31.5 246q13 93 42.5 158.5t69.5 103.5t103.5 59t127 27.5t157.5 6.5q256 -4 418 -41l-19 -131q-232 10 -403 10h-74.5t-64.5 -3.5t-54.5 -11.5t-44.5 -23t-35 -37.5t-26 -56.5t-17 -79q-13 -103 15.5 -145t126.5 -78l276 -103
q156 -57 206 -146.5t28 -250.5q-13 -93 -40 -157t-67 -105.5t-103.5 -64.5t-137 -31.5t-179.5 -8.5q-221 0 -430 39l23 133q344 -11 409 -10q76 0 123.5 4.5t89.5 17t66 38t40.5 64.5t24.5 99q13 106 -15 148t-126 78z" />
    <glyph glyph-name="T" unicode="T" 
d="M1225 1253h-457l-176 -1253h-180l176 1253h-455l23 160h1089z" />
    <glyph glyph-name="U" unicode="U" horiz-adv-x="1359" 
d="M1309 1413l-123 -874q-44 -308 -176 -437t-400 -129q-276 0 -385 134t-65 440l119 866h182l-123 -874q-32 -228 26.5 -316t241.5 -88q188 0 278 92t124 320l118 866h183z" />
    <glyph glyph-name="V" unicode="V" horiz-adv-x="1239" 
d="M1321 1413l-625 -1366q-18 -47 -69 -47h-181q-24 0 -41 15.5t-20 39.5l-244 1358h183l178 -1122q16 -99 20 -156h53q33 92 64 162l491 1116h191z" />
    <glyph glyph-name="W" unicode="W" horiz-adv-x="1931" 
d="M1985 1413l-482 -1364q-15 -49 -73 -49h-201q-27 0 -46 16.5t-20 42.5l-73 1063q-1 15 -6.5 70t-6.5 86h-43l-55 -164l-367 -1063q-15 -51 -73 -51h-199q-28 0 -47.5 16t-20.5 41l-102 1356h184l66 -1104q1 -10 6 -176h49l60 182l362 1041q15 57 74 57h194q26 0 43 -18
t19 -45l84 -1043q8 -114 8 -174h51l55 178l371 1102h189z" />
    <glyph glyph-name="X" unicode="X" horiz-adv-x="1247" 
d="M819 731l297 -731h-184l-260 664h-56l-444 -664h-209l504 731l-274 682h184l237 -610h58l420 610h198z" />
    <glyph glyph-name="Y" unicode="Y" horiz-adv-x="1157" 
d="M649 494l-69 -494h-183l72 502l-338 911h184l213 -600q31 -96 41 -160h17q29 83 84 166l381 594h196z" />
    <glyph glyph-name="Z" unicode="Z" horiz-adv-x="1150" 
d="M231 154h766l-22 -154h-963l21 154l905 1106h-739l22 153h940l-22 -153z" />
    <glyph glyph-name="bracketleft" unicode="[" horiz-adv-x="665" 
d="M705 1458h-201q-14 0 -27 -11t-14 -26l-227 -1616q-3 -28 20 -28h213l-16 -115h-287q-50 0 -78.5 29t-19.5 84l237 1691q6 49 38.5 78t82.5 29h295z" />
    <glyph glyph-name="backslash" unicode="\" horiz-adv-x="1040" 
d="M891 -135h-137l-592 1548h137z" />
    <glyph glyph-name="bracketright" unicode="]" horiz-adv-x="665" 
d="M217 1573h285q49 0 78.5 -33t21.5 -80l-237 -1691q-6 -47 -40 -77t-81 -30h-295l14 115h201q14 0 27 11t16 26l227 1616q3 28 -22 28h-211z" />
    <glyph glyph-name="asciicircum" unicode="^" horiz-adv-x="872" 
d="M854 797l-76 -43l-239 356h-17l-350 -356l-70 45l373 432h127z" />
    <glyph glyph-name="underscore" unicode="_" horiz-adv-x="1189" 
d="M942 -133h-895l19 133h897z" />
    <glyph glyph-name="grave" unicode="`" horiz-adv-x="643" 
d="M604 1180l-63 -78l-379 256l94 123z" />
    <glyph glyph-name="a" unicode="a" 
d="M934 0h-137l12 201q-88 -103 -203 -164.5t-241 -61.5q-91 0 -149 27.5t-92 90.5t-36.5 165t16.5 252q16 112 38.5 194t56 138.5t71 92t91.5 54.5t109 26t132 7q227 0 469 -47zM807 350l74 520q-171 7 -226 7q-73 0 -120 -4.5t-88 -20.5t-65 -40.5t-44.5 -70t-33 -101.5
t-25.5 -144q-17 -116 -19.5 -185t12 -111.5t44.5 -57.5t83 -15q96 0 194.5 55.5t213.5 167.5z" />
    <glyph glyph-name="b" unicode="b" 
d="M442 1434l-55 -414q-23 -156 -53 -244q100 104 220.5 175t223.5 71q71 0 120 -15t86.5 -51.5t53 -97.5t19 -153t-16.5 -218q-16 -112 -39 -195t-55.5 -139.5t-69.5 -92.5t-88.5 -55t-102.5 -25.5t-122 -6.5q-113 0 -246 20.5t-241 53.5l194 1387h172zM332 645l-72 -516
q130 -10 240 -10q71 0 116.5 5t85 21t62.5 40t43 70t31.5 102t23.5 143q16 117 18 187.5t-13.5 112t-45.5 56t-84 14.5q-71 0 -177 -58.5t-228 -166.5z" />
    <glyph glyph-name="c" unicode="c" horiz-adv-x="991" 
d="M834 143l12 -118q-158 -50 -342 -50q-262 0 -356 122.5t-54 408.5q41 285 161.5 400.5t375.5 115.5q197 0 319 -49l-28 -109q-110 10 -263 10q-96 0 -158 -15.5t-109.5 -58t-74 -116.5t-41.5 -192q-10 -78 -10.5 -134t9.5 -98t29 -68t53 -41.5t75.5 -21.5t102.5 -6
q171 0 299 20z" />
    <glyph glyph-name="d" unicode="d" horiz-adv-x="1171" 
d="M1133 1434l-201 -1434h-137l14 217q-96 -105 -215 -173.5t-250 -68.5q-78 0 -131 27.5t-86.5 90.5t-38 165t13.5 252q14 95 34 169t43.5 128t56.5 92t67.5 62t81 37.5t92.5 18.5t107 5q134 0 323 -25q3 93 17 191l34 246h175zM809 356l70 518q-37 1 -88 2t-85.5 2
t-56.5 1q-72 0 -118 -4.5t-86.5 -20.5t-64 -40t-44 -69.5t-33 -103t-24.5 -145.5q-22 -141 -18 -223t33.5 -114t98.5 -32q97 0 193 54t223 175z" />
    <glyph glyph-name="e" unicode="e" horiz-adv-x="1099" 
d="M899 147l12 -116q-71 -28 -187.5 -42t-219.5 -14q-255 0 -350 131t-56 416q21 149 58.5 244t104 153t156.5 80.5t226 22.5q228 0 313 -79t58 -241q-24 -142 -111 -203t-268 -75l-369 -33q-2 -82 13.5 -135t51.5 -82t83 -40t118 -11q177 0 367 24zM279 520l354 35
q102 8 148 42t61 120q4 25 4 45.5t-2.5 36t-11 27.5t-18 20.5t-26 14t-31.5 9t-39.5 5t-45 2t-51.5 0.5q-58 0 -98.5 -5.5t-76.5 -20.5t-60.5 -40t-45.5 -65.5t-35 -95t-26 -130.5z" />
    <glyph glyph-name="f" unicode="f" horiz-adv-x="772" 
d="M895 1325h-201q-101 0 -146.5 -36t-60.5 -136l-22 -156h319l-20 -137h-318l-139 -983q-39 -289 -315 -289q-97 0 -238 15l27 131h156q98 0 141.5 35t58.5 135l133 956h-178l17 127l182 8l24 185q42 288 324 288q174 0 283 -14z" />
    <glyph glyph-name="g" unicode="g" horiz-adv-x="1177" 
d="M1077 975l-139 -957q-54 -439 -567 -450q-60 -2 -164 5.5t-176 27.5l18 116q144 -7 324 -2q340 10 389 269q1 7 6 31t7 32t6.5 29.5t7.5 31t8 27.5t9.5 29t10.5 26t12.5 27.5t14.5 24.5q-91 -118 -217.5 -192.5t-266.5 -74.5q-66 0 -114 16t-85 53.5t-53.5 99t-19 152.5
t17.5 214q16 112 39.5 194.5t56.5 138.5t70 92t88.5 55t103 25.5t122.5 6.5q242 0 487 -47h4zM809 352l78 518q-175 7 -236 7q-71 0 -117 -5t-86 -20.5t-63.5 -40t-44 -69.5t-33 -102t-24.5 -144q-25 -146 -19.5 -228t36 -111.5t101.5 -29.5q96 0 193 55.5t215 169.5z" />
    <glyph glyph-name="h" unicode="h" horiz-adv-x="1183" 
d="M449 1434l-56 -402q-15 -124 -47 -246q137 120 251 178t222 58q127 0 190.5 -71.5t45.5 -205.5l-107 -745h-174l100 702q12 97 -12.5 134.5t-95.5 37.5q-90 0 -184 -53t-246 -174l-90 -647h-174l202 1434h175z" />
    <glyph glyph-name="i" unicode="i" horiz-adv-x="503" 
d="M322 1421h81q27 0 41 -16t9 -41l-15 -117q-5 -27 -17.5 -38t-39.5 -11h-80q-57 0 -51 57l16 115q6 51 56 51zM254 0h-172l139 997h172z" />
    <glyph glyph-name="j" unicode="j" horiz-adv-x="503" 
d="M322 1421h81q27 0 41 -16t9 -41l-15 -117q-5 -27 -17.5 -38t-39.5 -11h-80q-57 0 -51 57l16 115q6 51 56 51zM393 997l-143 -1026q-15 -118 -79 -220t-161 -169l-94 80q71 74 110 149t52 169l143 1017h172z" />
    <glyph glyph-name="k" unicode="k" horiz-adv-x="1067" 
d="M840 997h178q-89 -270 -338 -444q30 -49 59 -115l197 -438h-186l-203 471q-103 -55 -248 -115l-53 -356h-172l200 1434h175l-93 -693q-17 -122 -61 -237q203 91 350.5 217t194.5 276z" />
    <glyph glyph-name="l" unicode="l" horiz-adv-x="600" 
d="M451 1434l-164 -1164q-10 -70 15.5 -99.5t96.5 -29.5h101l6 -135q-27 -11 -83.5 -17.5t-96.5 -6.5q-117 0 -175.5 68t-41.5 190l167 1194h175z" />
    <glyph glyph-name="m" unicode="m" horiz-adv-x="1785" 
d="M346 997l-12 -217q125 125 229 183.5t207 58.5q117 0 178 -60t58 -167q120 119 218.5 173t198.5 54q131 0 192 -74t42 -203l-105 -745h-172l99 702q12 95 -18 133.5t-103 38.5q-74 0 -151 -48t-220 -179l-90 -647h-168l98 702q12 92 -14 132t-106 40q-76 0 -153 -48
t-218 -175l-90 -651h-174l141 997h133z" />
    <glyph glyph-name="n" unicode="n" horiz-adv-x="1183" 
d="M352 997l-14 -219q139 123 255 183.5t226 60.5q127 0 190.5 -71.5t45.5 -205.5l-107 -745h-174l100 702q12 97 -12.5 134.5t-95.5 37.5q-90 0 -185 -53t-245 -172l-90 -649h-174l141 997h139z" />
    <glyph glyph-name="o" unicode="o" horiz-adv-x="1155" 
d="M629 1022q254 0 349 -122.5t54 -410.5q-40 -283 -159.5 -399.5t-370.5 -116.5q-252 0 -349.5 123t-58.5 408q40 284 160.5 401t374.5 117zM629 874q-114 0 -181 -33t-108.5 -116t-63.5 -236q-13 -107 -12 -178t29.5 -113t77.5 -59.5t131 -17.5q168 0 244.5 82.5
t107.5 300.5q31 216 -16.5 293t-208.5 77z" />
    <glyph glyph-name="p" unicode="p" horiz-adv-x="1177" 
d="M352 997l-14 -221q97 102 221.5 174t226.5 72q90 0 146.5 -25.5t90.5 -87.5t36 -164.5t-17 -257.5q-13 -96 -32.5 -170t-43 -128.5t-56.5 -92.5t-68 -62t-82 -37.5t-94.5 -18.5t-110.5 -5q-136 0 -315 27q-3 -90 -17 -190l-35 -226h-176l203 1413h137zM338 643l-72 -520
q150 -6 226 -6q73 0 120 4.5t88 21t64.5 40.5t44 69.5t33 102.5t24.5 145q13 94 17 155.5t-1 105t-22 66.5t-43.5 33t-68.5 10q-73 0 -184.5 -60.5t-225.5 -166.5z" />
    <glyph glyph-name="q" unicode="q" horiz-adv-x="1167" 
d="M1065 952l-195 -1368h-174l58 391q22 146 61 250q-219 -250 -463 -250q-62 0 -108 15.5t-82.5 53t-53.5 98.5t-21 152.5t15 215.5q16 111 38.5 193.5t55 138.5t68.5 92t86.5 55t100.5 26t118 7q252 0 496 -70zM809 354l70 514q-140 11 -242 11q-69 0 -113.5 -5t-83.5 -21
t-62 -40.5t-43 -70t-32 -102.5t-24 -144q-22 -144 -16.5 -226t36.5 -112.5t102 -30.5q98 0 185.5 51t222.5 176z" />
    <glyph glyph-name="r" unicode="r" horiz-adv-x="815" 
d="M842 1022l-43 -164h-51q-82 0 -172 -49.5t-240 -163.5l-90 -645h-174l141 997h133l-14 -231q259 256 459 256h51z" />
    <glyph glyph-name="s" unicode="s" horiz-adv-x="1036" 
d="M592 379l-279 123q-111 50 -157 113.5t-33 170.5q18 140 116 189.5t302 46.5q220 -3 420 -31l-23 -125q-307 10 -393 11q-143 0 -193.5 -17t-58.5 -86q-8 -56 19 -83.5t102 -61.5l278 -123q82 -36 125.5 -70t63.5 -85.5t10 -127.5q-9 -66 -35 -111.5t-62 -71.5
t-96.5 -40.5t-120.5 -18.5t-153 -4q-69 0 -123 2.5t-82 5.5t-84 10t-92 11l20 127q122 -10 320 -10q191 2 258.5 24.5t79.5 92.5q5 37 -7.5 60.5t-33 36t-65.5 32.5q-15 6 -23 10z" />
    <glyph glyph-name="t" unicode="t" horiz-adv-x="772" 
d="M440 860l-82 -590q-10 -72 14.5 -100.5t96.5 -28.5h156l6 -133q-95 -26 -223 -26t-186.5 71t-39.5 201l86 606h-182l16 127l187 8l41 297h172l-41 -295h317l-20 -137h-318z" />
    <glyph glyph-name="u" unicode="u" horiz-adv-x="1161" 
d="M1061 997l-139 -997h-136l15 217q-127 -124 -238 -184t-223 -60q-135 0 -196.5 74t-41.5 205l105 745h174l-100 -702q-13 -92 14 -131t104 -39q88 0 175 53t225 178l88 641h174z" />
    <glyph glyph-name="v" unicode="v" horiz-adv-x="1087" 
d="M879 997h180q-59 -288 -191 -579q-91 -202 -174 -314q-41 -56 -83 -80t-113 -24h-154q-21 0 -36.5 13t-20.5 34l-195 950h182l152 -860h33q38 0 61.5 12t50.5 48q72 96 154 292q59 129 93 243.5t61 264.5z" />
    <glyph glyph-name="w" unicode="w" horiz-adv-x="1740" 
d="M414 137h26q28 0 50.5 15.5t46.5 56.5q59 103 112 280q59 176 107 465q3 20 16.5 31.5t32.5 11.5h190q18 0 30.5 -11.5t14.5 -29.5l101 -819h24q44 0 84 64q34 54 51 83t43.5 83.5t51.5 121.5q83 213 133 508h182q-76 -338 -182 -579q-96 -219 -176 -320q-40 -52 -79 -75
t-97 -23h-115q-23 0 -37.5 13t-17.5 34l-95 836h-26q-21 -205 -94 -437q-61 -195 -138 -317q-74 -129 -219 -129h-102q-21 0 -36 13t-20 34l-184 950h180z" />
    <glyph glyph-name="x" unicode="x" horiz-adv-x="1077" 
d="M688 514l260 -514h-176l-221 451h-47l-348 -451h-195l408 516l-240 481h174l197 -411h57l320 411h188z" />
    <glyph glyph-name="y" unicode="y" horiz-adv-x="1103" 
d="M891 997h180q-54 -238 -124 -437t-179 -394q-107 -200 -212.5 -323t-210.5 -181.5t-241 -83.5l-32 125q125 30 224.5 97t192.5 200h-90q-44 0 -75.5 25t-40.5 67l-193 905h182l158 -821q9 -39 47 -39h98q6 12 20 38.5t21 41.5q101 197 165.5 375.5t109.5 404.5z" />
    <glyph glyph-name="z" unicode="z" horiz-adv-x="1032" 
d="M967 854l-734 -713h639l-20 -141h-840l19 141l733 713h-623l19 143h825z" />
    <glyph glyph-name="braceleft" unicode="{" horiz-adv-x="651" 
d="M696 1573l-6 -111q-105 0 -154 -41.5t-61 -136.5l-51 -366q-17 -128 -59 -177.5t-156 -70.5q103 -34 135.5 -85.5t17.5 -158.5l-67 -483q-14 -95 19 -132.5t137 -37.5l-7 -111q-180 -13 -258.5 58.5t-56.5 216.5l74 524q7 49 -4 76.5t-28 38t-67 29.5q-8 3 -12 5l17 127
q76 23 95 36q34 23 47 94q3 14 5 32l57 406q19 150 108 216.5t275 51.5z" />
    <glyph glyph-name="bar" unicode="|" horiz-adv-x="501" 
d="M182 -346h-129l273 1945h129z" />
    <glyph glyph-name="braceright" unicode="}" horiz-adv-x="653" 
d="M211 1462l8 111q183 14 259.5 -59.5t56.5 -215.5l-58 -407q-5 -38 -4.5 -60.5t3 -37.5t17.5 -25.5t26.5 -15t44.5 -14.5q10 -3 16 -5l-17 -127q-81 -29 -101 -44q-42 -30 -54 -109l-72 -523q-21 -151 -108 -216t-277 -52l6 111q105 0 153 41t60 135l70 485
q18 109 60.5 156.5t162.5 83.5q-103 21 -135 73.5t-13 178.5l54 366q12 95 -20 132.5t-138 37.5z" />
    <glyph glyph-name="asciitilde" unicode="~" horiz-adv-x="1069" 
d="M225 463l-90 8q3 122 54 183.5t128 58.5q79 -4 215 -60t191 -61q55 -6 81.5 21t37.5 92l88 -7q-3 -119 -52.5 -180.5t-127.5 -56.5q-57 3 -118.5 21t-105.5 38t-95.5 39t-88.5 23q-56 6 -82.5 -22.5t-34.5 -96.5z" />
    <glyph glyph-name="uni00A0" unicode="&#xa0;" horiz-adv-x="456" 
 />
    <glyph glyph-name="exclamdown" unicode="&#xa1;" horiz-adv-x="522" 
d="M293 1010h47q69 0 57 -68l-14 -113q-9 -61 -70 -61h-45q-71 0 -59 68l14 112q9 62 70 62zM293 213l-86 -614h-172l86 614l69 365h138z" />
    <glyph glyph-name="cent" unicode="&#xa2;" horiz-adv-x="1034" 
d="M979 1186l-27 -109q-120 10 -219 10l-166 -751q157 0 297 22l13 -120q-158 -50 -345 -50h-4l-43 -188h-86l45 193q-209 19 -282.5 142t-36.5 384q41 285 161.5 400.5t375.5 115.5h22l41 178h86l-43 -182q130 -11 211 -45zM481 340l166 747q-110 -4 -175 -37t-106 -114.5
t-59 -228.5q-20 -132 -6.5 -211t55 -113.5t125.5 -42.5z" />
    <glyph glyph-name="sterling" unicode="&#xa3;" horiz-adv-x="1163" 
d="M1124 1417l-20 -143q-212 8 -354 8q-128 0 -185 -48.5t-67 -172.5l-21 -262h436l-20 -107h-424l-12 -155q-12 -144 -58 -234t-145 -158q48 9 133 9h612l-20 -154h-940l20 156q74 35 122.5 95t70.5 129.5t29 160.5l12 151h-162l14 107h156l23 272q9 94 33.5 160.5
t59 106.5t89 62.5t111.5 30t139 7.5q154 0 368 -21z" />
    <glyph glyph-name="currency" unicode="&#xa4;" horiz-adv-x="1220" 
d="M1143 1104l-160 -139q63 -105 45 -250q-18 -148 -106 -250l141 -158l-80 -74l-141 160q-110 -74 -258 -74q-147 0 -246 80l-158 -141l-74 84l160 141q-59 105 -41 244q18 150 109 256l-139 158l81 76l140 -162q107 69 252 69q147 0 243 -77l160 143zM582 420
q140 -2 232.5 82.5t107.5 226.5q14 134 -55 214.5t-203 80.5q-139 0 -229 -83.5t-105 -225.5q-14 -134 54.5 -214t197.5 -81z" />
    <glyph glyph-name="yen" unicode="&#xa5;" horiz-adv-x="1259" 
d="M801 662h284l-14 -107h-340l-31 -45l-10 -80h365l-17 -104h-362l-47 -326h-180l47 326h-357l13 104h358l12 88l-14 37h-336l12 107h283l-285 751h183l215 -584q32 -97 41 -159h18q27 77 86 166l377 577h196z" />
    <glyph glyph-name="brokenbar" unicode="&#xa6;" horiz-adv-x="501" 
d="M340 780h-129l117 819h127zM182 -346h-129l115 819h129z" />
    <glyph glyph-name="section" unicode="&#xa7;" horiz-adv-x="1114" 
d="M700 662l-325 202q-65 41 -102.5 79t-56.5 99t-7 142q9 64 32.5 110t57.5 74t87.5 44.5t111.5 22t139 5.5q254 -4 450 -25l-22 -135q-107 7 -381 10q-62 1 -99.5 -0.5t-76 -8t-60 -20.5t-37 -37.5t-20.5 -58.5q-10 -66 16.5 -107t86.5 -77l311 -190q68 -42 106 -90
t48 -108.5t-0.5 -126.5t-40.5 -155h-127q32 129 14 213t-105 138zM186 791h127q-33 -129 -16.5 -206.5t104.5 -131.5l328 -203q64 -40 101 -78t56.5 -100t8.5 -144q-9 -58 -27 -101t-48 -71.5t-63.5 -46t-83.5 -26.5t-96.5 -12t-113.5 -3q-241 4 -447 25l23 137
q191 -11 383 -14q57 0 91 1.5t74 8.5t62 20.5t39.5 38.5t22.5 62q10 67 -16.5 108t-84.5 76l-307 186q-69 41 -108 88t-50 106t-0.5 125.5t41.5 154.5z" />
    <glyph glyph-name="dieresis" unicode="&#xa8;" horiz-adv-x="841" 
d="M352 1421h54q30 0 40 -11.5t5 -37.5l-17 -112q-6 -50 -55 -50h-57q-49 0 -43 47l16 115q9 49 57 49zM698 1421h54q30 0 40 -11.5t5 -37.5l-17 -112q-6 -50 -55 -50h-57q-49 0 -43 47l16 115q9 49 57 49z" />
    <glyph glyph-name="copyright" unicode="&#xa9;" horiz-adv-x="1708" 
d="M950 1440q213 0 372 -92.5t234.5 -262t47.5 -385.5q-20 -156 -87.5 -290t-172.5 -230.5t-249.5 -151.5t-310.5 -55q-217 0 -375.5 96.5t-229.5 265t-44 378.5q19 154 85.5 287t170.5 231t248.5 153.5t310.5 55.5zM956 1350q-292 0 -491.5 -182.5t-235.5 -467.5
q-17 -143 16 -262.5t107 -201.5t184.5 -127.5t245.5 -45.5q290 0 490.5 182t236.5 468q23 184 -37.5 329t-195 226.5t-320.5 81.5zM1114 391l8 -100q-136 -31 -280 -31q-238 0 -316.5 100.5t-44.5 358.5q35 252 138.5 348t332.5 96q130 0 258 -28l-20 -99q-115 8 -225 8
q-91 0 -146.5 -12.5t-98.5 -49.5t-66 -102.5t-38 -174.5q-26 -187 18 -256.5t187 -69.5q190 0 293 12z" />
    <glyph glyph-name="ordfeminine" unicode="&#xaa;" horiz-adv-x="913" 
d="M754 555h-109l4 119q-122 -133 -289 -133q-61 0 -102 16.5t-69.5 57.5t-33 110t6.5 174q10 77 27 134t42 94.5t52.5 61t66 35t73 15.5t83.5 4q170 0 338 -35zM702 1130l-151 3q-73 0 -111.5 -6.5t-69.5 -32.5t-46 -72.5t-27 -130.5q-9 -61 -10.5 -101.5t3.5 -67t18.5 -40
t31.5 -18.5t47 -5q110 0 268 136z" />
    <glyph glyph-name="guillemotleft" unicode="&#xab;" horiz-adv-x="976" 
d="M532 874l-313 -362l223 -373l-88 -59l-278 424l2 39l383 397zM903 874l-313 -362l223 -373l-86 -59l-281 424l5 39l380 397z" />
    <glyph glyph-name="logicalnot" unicode="&#xac;" horiz-adv-x="1202" 
d="M1055 676l-58 -404h-133l39 271h-764l19 133h897z" />
    <glyph glyph-name="softhyphen" unicode="&#xad;" horiz-adv-x="915" 
d="M748 451h-625l18 133h625z" />
    <glyph glyph-name="registered" unicode="&#xae;" horiz-adv-x="1134" 
d="M662 1438q200 0 317.5 -123t95.5 -340q-23 -206 -155 -327.5t-334 -121.5q-212 0 -327.5 129.5t-92.5 337.5q23 205 158 325t338 120zM1014 989q18 185 -79 288t-276 103q-187 0 -300 -108.5t-132 -286.5q-20 -190 80 -296.5t279 -106.5q182 0 296.5 111t131.5 296z
M377 721l76 528q74 6 219 6q40 0 67.5 -2.5t55.5 -12t43.5 -26.5t23 -46.5t2.5 -71.5q-6 -59 -34 -88.5t-91 -42.5v-4q20 -9 31.5 -26t20.5 -52l43 -162h-86l-39 164q-8 32 -25 42.5t-47 10.5l-148 2l-30 -219h-82zM498 999h135q77 2 108.5 21t40.5 82q7 56 -17 73t-95 17
l-146 -2z" />
    <glyph glyph-name="macron" unicode="&#xaf;" horiz-adv-x="819" 
d="M801 1247h-572l17 129h571z" />
    <glyph glyph-name="degree" unicode="&#xb0;" horiz-adv-x="743" 
d="M471 1440q121 0 189 -77t57 -192q-10 -114 -90 -183.5t-195 -69.5q-123 0 -189 79t-55 191q9 112 88 182t195 70zM465 1335q-68 0 -114.5 -42t-53.5 -111q-6 -72 33 -116t108 -44t115.5 43t52.5 113q6 69 -31.5 113t-109.5 44z" />
    <glyph glyph-name="plusminus" unicode="&#xb1;" horiz-adv-x="1198" 
d="M1075 801l-18 -131h-381l-39 -275h-133l39 275h-383l18 131h381l39 272h135l-39 -272h381zM104 272h897l-18 -129h-897z" />
    <glyph glyph-name="twosuperior" unicode="&#xb2;" horiz-adv-x="839" 
d="M262 1462v107q139 30 279 30q64 0 110.5 -8t84.5 -28.5t54 -59.5t9 -96q-9 -77 -50.5 -141t-142.5 -156l-278 -250q55 8 135 8h291l-19 -131h-592l11 88q9 45 22 56l285 256q100 89 148.5 152t54.5 118q4 47 -27.5 60.5t-110.5 13.5q-127 0 -264 -19z" />
    <glyph glyph-name="threesuperior" unicode="&#xb3;" horiz-adv-x="806" 
d="M268 1473l-2 106q158 23 256 23q146 0 205.5 -51t50.5 -152q-3 -35 -13 -69.5t-28 -67t-47.5 -54.5t-66.5 -26l-2 -4q154 -25 127 -209q-37 -238 -345 -248q-107 -3 -262 22l17 107q28 -1 84.5 -5t76.5 -4.5t76 1.5q194 14 217 151q11 65 -20 100.5t-121 36.5h-168
l14 105h162q91 0 127 37t43 104q8 65 -21.5 86t-135.5 21q-114 0 -224 -10z" />
    <glyph glyph-name="acute" unicode="&#xb4;" horiz-adv-x="643" 
d="M684 1348l-424 -246l-53 80l393 301z" />
    <glyph glyph-name="paragraph" unicode="&#xb6;" horiz-adv-x="1208" 
d="M1126 1403l-196 -1403h-135l186 1315q-96 8 -201 8l-245 -1753h-134l119 842q-243 25 -337.5 151t-59.5 375q20 143 66.5 238t130 154t200 83.5t285.5 24.5q189 0 321 -35z" />
    <glyph glyph-name="periodcentered" unicode="&#xb7;" horiz-adv-x="477" 
d="M213 649h57q36 0 50.5 -16.5t9.5 -52.5l-15 -111q-5 -32 -21 -46.5t-48 -14.5h-58q-70 0 -61 67l16 113q4 32 21 46.5t49 14.5z" />
    <glyph glyph-name="cedilla" unicode="&#xb8;" horiz-adv-x="479" 
d="M76 -170l20 82q127 11 178.5 -18.5t34.5 -122.5q-20 -126 -123.5 -193t-248.5 -47l32 92q82 -3 142.5 40t72.5 110q6 34 -14.5 45t-93.5 12z" />
    <glyph glyph-name="onesuperior" unicode="&#xb9;" horiz-adv-x="585" 
d="M451 737h-136l93 643q7 48 16 82l-229 -63l-2 100l241 86h135z" />
    <glyph glyph-name="ordmasculine" unicode="&#xba;" horiz-adv-x="903" 
d="M528 1243q187 0 254.5 -81.5t38.5 -276.5q-26 -191 -109 -267.5t-261 -76.5q-183 0 -252 82.5t-41 275.5q26 191 108 267.5t262 76.5zM528 1135q-118 0 -165.5 -51.5t-69.5 -198.5q-19 -137 14.5 -185.5t145.5 -48.5q113 0 163 53t70 195q20 137 -13.5 186.5t-144.5 49.5
z" />
    <glyph glyph-name="guillemotright" unicode="&#xbb;" horiz-adv-x="978" 
d="M420 139l313 363l-223 375l88 57l279 -422l-3 -41l-382 -395zM49 139l313 363l-223 375l86 57l281 -422l-4 -41l-381 -395z" />
    <glyph glyph-name="onequarter" unicode="&#xbc;" horiz-adv-x="1757" 
d="M305 565l90 649q6 40 17 80l-236 -63l-2 94l250 88h137l-119 -848h-137zM1430 1413l-1115 -1413h-129l1117 1413h127zM1626 211l-106 -10l-29 -201h-127l27 199h-396q-55 0 -78 37.5t11 99.5l332 512h135l-320 -500q-11 -17 -5.5 -29t28.5 -12h307l33 240l43 139h106
l-53 -379h106z" />
    <glyph glyph-name="onehalf" unicode="&#xbd;" horiz-adv-x="1798" 
d="M301 0h-127l1114 1413h127zM440 565h-137l92 649q6 40 17 80l-236 -63l-2 94l250 88h135zM1108 729l-4 102q144 31 287 31q167 0 236.5 -41t51.5 -159q-9 -68 -57.5 -137.5t-146.5 -153.5l-306 -252q65 5 144 2h327l-18 -121h-639l12 80q3 37 25 59l299 254
q194 164 213 271q8 52 -26 66.5t-120 14.5q-140 0 -278 -16z" />
    <glyph glyph-name="threequarters" unicode="&#xbe;" horiz-adv-x="1949" 
d="M610 1014l-12 -6q95 -13 129 -67.5t23 -152.5q-15 -130 -90.5 -186.5t-241.5 -56.5q-133 0 -305 22l10 103q132 -11 258 -11q116 0 168.5 36.5t64.5 125.5q9 64 -21 97.5t-134 33.5h-178l12 103h172q52 1 89 14t56.5 35.5t28.5 45.5t12 52q10 65 -23.5 87t-138.5 22
q-161 0 -249 -8l-4 100q137 20 268 20q174 0 236.5 -44.5t45.5 -157.5q-12 -90 -51 -142t-125 -65zM1640 1413l-1114 -1413h-129l1116 1413h127zM1817 211l-113 -10l-27 -201h-129l27 199h-389q-55 0 -78.5 37.5t10.5 99.5l332 512h135l-319 -500q-11 -17 -5.5 -29t27.5 -12
h301l35 240l43 139h107l-54 -379h111z" />
    <glyph glyph-name="questiondown" unicode="&#xbf;" horiz-adv-x="1011" 
d="M559 1022h45q71 0 62 -68l-17 -112q-5 -32 -21 -47t-48 -15h-43q-71 0 -62 68l17 115q6 59 67 59zM453 588h145q-10 -77 -37 -144t-63 -116.5t-78 -93.5t-83.5 -83t-77 -76t-61.5 -81t-34 -90q-17 -99 37.5 -145t191.5 -46q214 0 412 19l2 -125q-13 -2 -56 -10t-56 -10
t-49.5 -7.5t-59 -7t-60.5 -4t-79 -3.5t-91 -1q-206 0 -302 87.5t-77 237.5q8 61 36 115.5t66.5 97t83.5 83t91 82.5t86 87t70.5 105.5t42.5 128.5z" />
    <glyph glyph-name="Agrave" unicode="&#xc0;" horiz-adv-x="1267" 
d="M813 1491l-379 256l94 123l346 -301zM913 440h-583l-201 -440h-190l647 1366q14 47 69 47h189q25 0 42.5 -15t18.5 -38l264 -1360h-180zM885 598l-99 557q-3 19 -8 59.5t-8 61.5h-61l-54 -121l-254 -557h484z" />
    <glyph glyph-name="Aacute" unicode="&#xc1;" horiz-adv-x="1267" 
d="M696 1491l-55 82l393 299l84 -133zM913 440h-583l-201 -440h-190l647 1366q14 47 69 47h189q25 0 42.5 -15t18.5 -38l264 -1360h-180zM885 598l-99 557q-3 19 -8 59.5t-8 61.5h-61l-54 -121l-254 -557h484z" />
    <glyph glyph-name="Acircumflex" unicode="&#xc2;" horiz-adv-x="1267" 
d="M494 1499l-50 76l304 260h124l252 -270l-63 -70l-246 207h-16zM913 440h-583l-201 -440h-190l647 1366q14 47 69 47h189q25 0 42.5 -15t18.5 -38l264 -1360h-180zM885 598l-99 557q-3 19 -8 59.5t-8 61.5h-61l-54 -121l-254 -557h484z" />
    <glyph glyph-name="Atilde" unicode="&#xc3;" horiz-adv-x="1267" 
d="M1051 1796l82 -8q-4 -113 -55 -172t-128 -53q-48 3 -92.5 20t-72.5 36t-62.5 37t-65.5 23q-58 6 -85.5 -22t-36.5 -92l-82 6q6 118 57 177.5t127 53.5q68 -5 153.5 -56.5t135.5 -57.5q60 -6 88.5 20t36.5 88zM913 440h-583l-201 -440h-190l647 1366q14 47 69 47h189
q25 0 42.5 -15t18.5 -38l264 -1360h-180zM885 598l-99 557q-3 19 -8 59.5t-8 61.5h-61l-54 -121l-254 -557h484z" />
    <glyph glyph-name="Adieresis" unicode="&#xc4;" horiz-adv-x="1267" 
d="M635 1571h-57q-52 0 -46 47l19 113q3 27 16.5 39t40.5 12h54q28 0 38 -12t7 -39l-19 -111q-3 -26 -15.5 -37.5t-37.5 -11.5zM981 1571h-57q-51 0 -45 47l18 113q3 27 16.5 39t40.5 12h54q28 0 38 -12t7 -39l-19 -111q-3 -26 -15.5 -37.5t-37.5 -11.5zM913 440h-583
l-201 -440h-190l647 1366q14 47 69 47h189q25 0 42.5 -15t18.5 -38l264 -1360h-180zM885 598l-99 557q-3 19 -8 59.5t-8 61.5h-61l-54 -121l-254 -557h484z" />
    <glyph glyph-name="Aring" unicode="&#xc5;" horiz-adv-x="1267" 
d="M780 1464q-99 0 -157.5 63t-47.5 159q9 87 71.5 146.5t158.5 59.5q98 0 157.5 -62.5t49.5 -158.5q-11 -89 -73.5 -148t-158.5 -59zM672 1677q-6 -58 25.5 -91.5t84.5 -33.5q55 0 90.5 36.5t40.5 92.5q6 53 -23.5 88t-84.5 35t-91 -36t-42 -91zM913 440h-583l-201 -440
h-190l647 1366q14 47 69 47h189q25 0 42.5 -15t18.5 -38l264 -1360h-180zM885 598l-99 557q-3 19 -8 59.5t-8 61.5h-61l-54 -121l-254 -557h484z" />
    <glyph glyph-name="AE" unicode="&#xc6;" horiz-adv-x="1867" 
d="M1851 1262h-522q-138 0 -158 -142l-41 -305h580l-18 -141h-582l-53 -389q-9 -70 17 -101.5t95 -31.5h529l-8 -142q-184 -12 -553 -12q-133 0 -202 76t-48 207l24 178h-475l-330 -459h-192l868 1194q92 131 195 176t291 45q392 0 608 -12zM932 614l76 533q4 43 27.5 83.5
t54.5 59.5h-11q-68 -35 -137 -133l-393 -543h383z" />
    <glyph glyph-name="Ccedilla" unicode="&#xc7;" horiz-adv-x="1159" 
d="M1006 158l10 -138q-168 -45 -416 -45q-303 0 -410 173.5t-51 564.5q29 205 76 340.5t124.5 223t184 124.5t260.5 37q134 0 215.5 -9.5t169.5 -33.5l-28 -135q-181 18 -359 18q-107 0 -179 -25.5t-128 -91.5t-90 -176.5t-57 -284.5q-34 -211 -15.5 -336.5t85.5 -176.5
t204 -52q212 0 404 23zM446 -195l21 82q128 11 180 -18.5t35 -122.5q-22 -126 -125.5 -193t-249.5 -47l33 93q82 -3 143.5 39.5t73.5 109.5q5 34 -16.5 45t-94.5 12z" />
    <glyph glyph-name="Egrave" unicode="&#xc8;" horiz-adv-x="1142" 
d="M805 1534l-379 256l96 123l346 -301zM1126 1262h-563q-69 0 -102.5 -33t-42.5 -107l-43 -307h608l-18 -139h-609l-53 -391q-10 -70 17 -101.5t96 -31.5h553l-4 -142q-180 -12 -572 -12q-153 0 -223 75t-51 208l125 893q15 115 91.5 178t205.5 63q422 0 610 -12z" />
    <glyph glyph-name="Eacute" unicode="&#xc9;" horiz-adv-x="1142" 
d="M690 1534l-55 80l393 301l84 -135zM1126 1262h-563q-69 0 -102.5 -33t-42.5 -107l-43 -307h608l-18 -139h-609l-53 -391q-10 -70 17 -101.5t96 -31.5h553l-4 -142q-180 -12 -572 -12q-153 0 -223 75t-51 208l125 893q15 115 91.5 178t205.5 63q422 0 610 -12z" />
    <glyph glyph-name="Ecircumflex" unicode="&#xca;" horiz-adv-x="1142" 
d="M487 1540l-49 76l303 262h123l254 -272l-63 -70l-246 209h-16zM1126 1262h-563q-69 0 -102.5 -33t-42.5 -107l-43 -307h608l-18 -139h-609l-53 -391q-10 -70 17 -101.5t96 -31.5h553l-4 -142q-180 -12 -572 -12q-153 0 -223 75t-51 208l125 893q15 115 91.5 178t205.5 63
q422 0 610 -12z" />
    <glyph glyph-name="Edieresis" unicode="&#xcb;" horiz-adv-x="1142" 
d="M629 1614h-58q-26 0 -37 11t-8 36l19 113q3 26 16 37.5t41 11.5h51q30 0 40 -11t7 -38l-18 -111q-3 -26 -15.5 -37.5t-37.5 -11.5zM975 1614h-57q-51 0 -46 47l19 113q3 26 16 37.5t41 11.5h51q30 0 40.5 -11t7.5 -38l-19 -111q-3 -26 -15.5 -37.5t-37.5 -11.5z
M1126 1262h-563q-69 0 -102.5 -33t-42.5 -107l-43 -307h608l-18 -139h-609l-53 -391q-10 -70 17 -101.5t96 -31.5h553l-4 -142q-180 -12 -572 -12q-153 0 -223 75t-51 208l125 893q15 115 91.5 178t205.5 63q422 0 610 -12z" />
    <glyph glyph-name="Igrave" unicode="&#xcc;" horiz-adv-x="534" 
d="M502 1569l-64 -78l-379 256l97 123zM274 0h-182l199 1413h182z" />
    <glyph glyph-name="Iacute" unicode="&#xcd;" horiz-adv-x="534" 
d="M743 1739l-421 -248l-54 82l391 299zM274 0h-182l199 1413h182z" />
    <glyph glyph-name="Icircumflex" unicode="&#xce;" horiz-adv-x="534" 
d="M752 1565l-66 -70l-244 207h-16l-305 -203l-51 76l305 260h123zM274 0h-182l199 1413h182z" />
    <glyph glyph-name="Idieresis" unicode="&#xcf;" horiz-adv-x="534" 
d="M233 1782h54q30 0 39 -11.5t6 -39.5l-19 -111q-3 -49 -53 -49h-57q-48 0 -45 47l18 113q5 27 18 39t39 12zM580 1782h53q30 0 39 -11.5t6 -39.5l-19 -111q-3 -49 -53 -49h-57q-48 0 -45 47l18 113q9 51 58 51zM274 0h-182l199 1413h182z" />
    <glyph glyph-name="Eth" unicode="&#xd0;" horiz-adv-x="1355" 
d="M205 801l86 612q264 19 463 19q110 0 192 -16t144.5 -52t100.5 -92t57 -138.5t18 -188.5t-21 -245q-19 -132 -43.5 -232.5t-55.5 -177.5t-74 -130t-91.5 -88t-115 -54.5t-137.5 -27.5t-167 -8q-199 0 -469 18l98 700h-135l15 101h135zM371 700l-78 -557q184 -4 266 -4
q127 0 205 21.5t138.5 86t95 174t61.5 292.5q17 118 21.5 202.5t-5.5 149t-32 104t-64 64t-96 34t-133 9.5q-95 0 -299 -4l-66 -471h315l-12 -101h-317z" />
    <glyph glyph-name="Ntilde" unicode="&#xd1;" horiz-adv-x="1439" 
d="M629 1565l-82 6q6 118 57 177.5t127 53.5q43 -3 84 -20t67.5 -35.5t63.5 -36t74 -22.5q60 -6 88.5 20t36.5 88l80 -8q-3 -112 -53.5 -171.5t-127.5 -53.5q-48 3 -92.5 20t-72.5 36t-62.5 37t-64.5 23q-58 6 -86.5 -22t-36.5 -92zM1378 1413l-190 -1345q-5 -36 -21.5 -52
t-50.5 -16h-164q-29 0 -45.5 15t-27.5 46l-355 1002q-41 117 -55 182h-35q-3 -85 -16 -186l-146 -1059h-180l189 1346q6 35 23.5 51t51.5 16h160q29 0 46 -15t28 -46l344 -975q49 -145 65 -205h39q6 100 21 207l141 1034h178z" />
    <glyph glyph-name="Ograve" unicode="&#xd2;" horiz-adv-x="1363" 
d="M918 1569l-64 -78l-379 256l96 123zM793 1440q119 0 205 -24.5t147.5 -79t91 -140.5t36 -209.5t-19.5 -286.5q-37 -277 -112.5 -434t-201.5 -225t-331 -68q-200 0 -313 69.5t-153.5 233t-2.5 437.5q28 204 74.5 339t124.5 223.5t187.5 126.5t267.5 38zM782 1278
q-88 0 -152 -18t-114 -57.5t-85 -108.5t-59.5 -163.5t-43.5 -230.5q-33 -211 -14.5 -336.5t87.5 -177t211 -51.5q143 0 230 54t140 177.5t85 346.5q19 135 21 228.5t-13.5 160t-54 104.5t-95.5 55t-143 17z" />
    <glyph glyph-name="Oacute" unicode="&#xd3;" horiz-adv-x="1363" 
d="M1161 1739l-422 -248l-55 82l393 299zM793 1440q119 0 205 -24.5t147.5 -79t91 -140.5t36 -209.5t-19.5 -286.5q-37 -277 -112.5 -434t-201.5 -225t-331 -68q-200 0 -313 69.5t-153.5 233t-2.5 437.5q28 204 74.5 339t124.5 223.5t187.5 126.5t267.5 38zM782 1278
q-88 0 -152 -18t-114 -57.5t-85 -108.5t-59.5 -163.5t-43.5 -230.5q-33 -211 -14.5 -336.5t87.5 -177t211 -51.5q143 0 230 54t140 177.5t85 346.5q19 135 21 228.5t-13.5 160t-54 104.5t-95.5 55t-143 17z" />
    <glyph glyph-name="Ocircumflex" unicode="&#xd4;" horiz-adv-x="1363" 
d="M1167 1565l-63 -70l-246 207h-16l-305 -203l-50 76l304 260h122zM793 1440q119 0 205 -24.5t147.5 -79t91 -140.5t36 -209.5t-19.5 -286.5q-37 -277 -112.5 -434t-201.5 -225t-331 -68q-200 0 -313 69.5t-153.5 233t-2.5 437.5q28 204 74.5 339t124.5 223.5t187.5 126.5
t267.5 38zM782 1278q-88 0 -152 -18t-114 -57.5t-85 -108.5t-59.5 -163.5t-43.5 -230.5q-33 -211 -14.5 -336.5t87.5 -177t211 -51.5q143 0 230 54t140 177.5t85 346.5q19 135 21 228.5t-13.5 160t-54 104.5t-95.5 55t-143 17z" />
    <glyph glyph-name="Otilde" unicode="&#xd5;" horiz-adv-x="1363" 
d="M578 1565l-82 6q6 118 57 177.5t127 53.5q43 -3 84 -20t67.5 -35.5t63.5 -36t74 -22.5q60 -6 88.5 20t36.5 88l80 -8q-3 -112 -53.5 -171.5t-127.5 -53.5q-48 3 -93 20t-73 36t-62.5 37t-64.5 23q-58 6 -86 -22t-36 -92zM793 1440q119 0 205 -24.5t147.5 -79t91 -140.5
t36 -209.5t-19.5 -286.5q-37 -277 -112.5 -434t-201.5 -225t-331 -68q-200 0 -313 69.5t-153.5 233t-2.5 437.5q28 204 74.5 339t124.5 223.5t187.5 126.5t267.5 38zM782 1278q-88 0 -152 -18t-114 -57.5t-85 -108.5t-59.5 -163.5t-43.5 -230.5q-33 -211 -14.5 -336.5
t87.5 -177t211 -51.5q143 0 230 54t140 177.5t85 346.5q19 135 21 228.5t-13.5 160t-54 104.5t-95.5 55t-143 17z" />
    <glyph glyph-name="Odieresis" unicode="&#xd6;" horiz-adv-x="1363" 
d="M651 1782h51q30 0 40.5 -12t7.5 -39l-19 -111q-3 -26 -15.5 -37.5t-37.5 -11.5h-57q-52 0 -46 47l19 113q3 27 16.5 39t40.5 12zM997 1782h52q30 0 40 -12t7 -39l-19 -111q-3 -26 -15.5 -37.5t-37.5 -11.5h-59q-49 0 -43 47l18 113q3 27 16.5 39t40.5 12zM793 1440
q119 0 205 -24.5t147.5 -79t91 -140.5t36 -209.5t-19.5 -286.5q-37 -277 -112.5 -434t-201.5 -225t-331 -68q-200 0 -313 69.5t-153.5 233t-2.5 437.5q28 204 74.5 339t124.5 223.5t187.5 126.5t267.5 38zM782 1278q-88 0 -152 -18t-114 -57.5t-85 -108.5t-59.5 -163.5
t-43.5 -230.5q-33 -211 -14.5 -336.5t87.5 -177t211 -51.5q143 0 230 54t140 177.5t85 346.5q19 135 21 228.5t-13.5 160t-54 104.5t-95.5 55t-143 17z" />
    <glyph glyph-name="multiply" unicode="&#xd7;" horiz-adv-x="1075" 
d="M637 582l260 -273l-94 -96l-275 285l-362 -289l-80 113l348 274l-264 272l96 97l275 -283l370 295l80 -113z" />
    <glyph glyph-name="Oslash" unicode="&#xd8;" horiz-adv-x="1363" 
d="M1233 1493l-92 -152q92 -80 119.5 -236t-7.5 -405q-37 -277 -112.5 -434t-201.5 -225t-331 -68q-167 0 -270 47l-86 -143l-84 51l88 146q-93 80 -121.5 234t4.5 405q28 204 74.5 339t124.5 223.5t187.5 126.5t267.5 38q164 0 264 -47l90 149zM354 238l613 1007
q-59 33 -185 33q-88 0 -152 -18t-114 -57.5t-85 -108.5t-59.5 -163.5t-43.5 -230.5q-26 -172 -20 -285.5t46 -176.5zM1042 1180l-614 -1010q66 -35 184 -35q143 0 230 54t140 177.5t85 346.5q51 347 -25 467z" />
    <glyph glyph-name="Ugrave" unicode="&#xd9;" horiz-adv-x="1359" 
d="M915 1569l-63 -78l-379 256l96 123zM1309 1413l-123 -874q-44 -308 -176 -437t-400 -129q-276 0 -385 134t-65 440l119 866h182l-123 -874q-32 -228 26.5 -316t241.5 -88q188 0 278 92t124 320l118 866h183z" />
    <glyph glyph-name="Uacute" unicode="&#xda;" horiz-adv-x="1359" 
d="M1159 1739l-422 -248l-55 82l393 299zM1309 1413l-123 -874q-44 -308 -176 -437t-400 -129q-276 0 -385 134t-65 440l119 866h182l-123 -874q-32 -228 26.5 -316t241.5 -88q188 0 278 92t124 320l118 866h183z" />
    <glyph glyph-name="Ucircumflex" unicode="&#xdb;" horiz-adv-x="1359" 
d="M1165 1565l-63 -70l-246 207h-16l-305 -203l-50 76l303 260h123zM1309 1413l-123 -874q-44 -308 -176 -437t-400 -129q-276 0 -385 134t-65 440l119 866h182l-123 -874q-32 -228 26.5 -316t241.5 -88q188 0 278 92t124 320l118 866h183z" />
    <glyph glyph-name="Udieresis" unicode="&#xdc;" horiz-adv-x="1359" 
d="M649 1782h51q30 0 40.5 -12t7.5 -39l-19 -111q-3 -26 -15.5 -37.5t-37.5 -11.5h-58q-51 0 -45 47l19 113q3 27 16.5 39t40.5 12zM995 1782h52q30 0 40 -12t7 -39l-19 -111q-3 -26 -15.5 -37.5t-37.5 -11.5h-59q-49 0 -43 47l18 113q3 27 16.5 39t40.5 12zM1309 1413
l-123 -874q-44 -308 -176 -437t-400 -129q-276 0 -385 134t-65 440l119 866h182l-123 -874q-32 -228 26.5 -316t241.5 -88q188 0 278 92t124 320l118 866h183z" />
    <glyph glyph-name="Yacute" unicode="&#xdd;" horiz-adv-x="1157" 
d="M627 1491l-54 82l392 299l84 -133zM649 494l-69 -494h-183l72 502l-338 911h184l213 -600q31 -96 41 -160h17q29 83 84 166l381 594h196z" />
    <glyph glyph-name="Thorn" unicode="&#xde;" horiz-adv-x="1206" 
d="M471 1413l-35 -256q80 4 297 4q80 0 141 -9t111.5 -30t81.5 -55t51.5 -84.5t21 -118t-9.5 -155.5q-18 -132 -52.5 -216.5t-94.5 -135t-139 -70t-197 -19.5q-167 0 -334 19l-41 -287h-180l199 1413h180zM332 424h293q83 1 136.5 13.5t93.5 46.5t62 91t35 148
q12 68 8.5 117.5t-15 82t-42 51.5t-71.5 26.5t-105 7.5q-231 0 -313 -2z" />
    <glyph glyph-name="germandbls" unicode="&#xdf;" horiz-adv-x="1376" 
d="M911 618l201 -120q90 -55 124 -112.5t21 -160.5q-9 -62 -31 -106.5t-54 -72t-81.5 -43t-102.5 -21t-128 -5.5q-160 0 -325 23l20 133q181 -11 274 -8q130 0 186 24.5t66 100.5q4 30 -0.5 51.5t-21.5 39.5t-31 28.5t-47 31.5l-207 125q-155 92 -135 232q4 36 21 67.5
t35.5 53t57.5 48t65 41.5t80 43l6 3t5 3t6 3q85 49 122.5 88t43.5 98q3 26 -1 43.5t-19 34.5t-43.5 27t-77.5 16t-119 6q-180 0 -251 -49t-91 -194l-172 -1213q-22 -149 -100.5 -219t-226.5 -70q-88 0 -226 15l27 131h156q98 0 141.5 35t58.5 135l135 956h-182l19 125
l182 10l16 119q13 94 43 160t70.5 105.5t103 61.5t126.5 29t157 7q264 0 364 -60.5t78 -214.5q-9 -83 -56.5 -143.5t-156.5 -124.5q-14 -7 -46.5 -23t-46.5 -23t-39 -21t-37 -24.5t-26.5 -25.5t-22.5 -31t-11 -34q-7 -41 17 -68.5t87 -65.5z" />
    <glyph glyph-name="agrave" unicode="&#xe0;" 
d="M707 1122l-379 256l94 123l346 -301zM934 0h-137l12 201q-88 -103 -203 -164.5t-241 -61.5q-91 0 -149 27.5t-92 90.5t-36.5 165t16.5 252q16 112 38.5 194t56 138.5t71 92t91.5 54.5t109 26t132 7q227 0 469 -47zM807 350l74 520q-171 7 -226 7q-73 0 -120 -4.5
t-88 -20.5t-65 -40.5t-44.5 -70t-33 -101.5t-25.5 -144q-17 -116 -19.5 -185t12 -111.5t44.5 -57.5t83 -15q96 0 194.5 55.5t213.5 167.5z" />
    <glyph glyph-name="aacute" unicode="&#xe1;" 
d="M590 1122l-55 82l393 299l84 -133zM934 0h-137l12 201q-88 -103 -203 -164.5t-241 -61.5q-91 0 -149 27.5t-92 90.5t-36.5 165t16.5 252q16 112 38.5 194t56 138.5t71 92t91.5 54.5t109 26t132 7q227 0 469 -47zM807 350l74 520q-171 7 -226 7q-73 0 -120 -4.5t-88 -20.5
t-65 -40.5t-44.5 -70t-33 -101.5t-25.5 -144q-17 -116 -19.5 -185t12 -111.5t44.5 -57.5t83 -15q96 0 194.5 55.5t213.5 167.5z" />
    <glyph glyph-name="acircumflex" unicode="&#xe2;" 
d="M389 1130l-51 76l303 260h125l254 -270l-66 -70l-243 207h-19zM934 0h-137l12 201q-88 -103 -203 -164.5t-241 -61.5q-91 0 -149 27.5t-92 90.5t-36.5 165t16.5 252q16 112 38.5 194t56 138.5t71 92t91.5 54.5t109 26t132 7q227 0 469 -47zM807 350l74 520q-171 7 -226 7
q-73 0 -120 -4.5t-88 -20.5t-65 -40.5t-44.5 -70t-33 -101.5t-25.5 -144q-17 -116 -19.5 -185t12 -111.5t44.5 -57.5t83 -15q96 0 194.5 55.5t213.5 167.5z" />
    <glyph glyph-name="atilde" unicode="&#xe3;" 
d="M944 1427l82 -8q-4 -113 -54.5 -172t-127.5 -53q-48 3 -92.5 20.5t-72 37t-62 37.5t-64.5 22q-58 6 -87 -22.5t-38 -92.5l-82 6q6 118 57.5 178t126.5 54q70 -5 154.5 -57t134.5 -58q60 -6 88.5 20.5t36.5 87.5zM934 0h-137l12 201q-88 -103 -203 -164.5t-241 -61.5
q-91 0 -149 27.5t-92 90.5t-36.5 165t16.5 252q16 112 38.5 194t56 138.5t71 92t91.5 54.5t109 26t132 7q227 0 469 -47zM807 350l74 520q-171 7 -226 7q-73 0 -120 -4.5t-88 -20.5t-65 -40.5t-44.5 -70t-33 -101.5t-25.5 -144q-17 -116 -19.5 -185t12 -111.5t44.5 -57.5
t83 -15q96 0 194.5 55.5t213.5 167.5z" />
    <glyph glyph-name="adieresis" unicode="&#xe4;" 
d="M528 1202h-57q-51 0 -45 47l18 115q6 49 58 49h53q28 0 38 -11.5t7 -37.5l-18 -113q-6 -49 -54 -49zM874 1202h-57q-51 0 -45 47l19 115q6 49 57 49h53q28 0 38 -11.5t7 -37.5l-18 -113q-6 -49 -54 -49zM934 0h-137l12 201q-88 -103 -203 -164.5t-241 -61.5
q-91 0 -149 27.5t-92 90.5t-36.5 165t16.5 252q16 112 38.5 194t56 138.5t71 92t91.5 54.5t109 26t132 7q227 0 469 -47zM807 350l74 520q-171 7 -226 7q-73 0 -120 -4.5t-88 -20.5t-65 -40.5t-44.5 -70t-33 -101.5t-25.5 -144q-17 -116 -19.5 -185t12 -111.5t44.5 -57.5
t83 -15q96 0 194.5 55.5t213.5 167.5z" />
    <glyph glyph-name="aring" unicode="&#xe5;" 
d="M674 1096q-100 0 -158 63t-47 158q9 88 71.5 148.5t157.5 60.5q98 0 157.5 -63.5t49.5 -159.5q-11 -89 -73 -148t-158 -59zM567 1309q-7 -56 25 -89.5t84 -33.5q54 0 90 36t41 91q6 53 -24 88t-83 35q-57 0 -92.5 -36t-40.5 -91zM934 0h-137l12 201q-88 -103 -203 -164.5
t-241 -61.5q-91 0 -149 27.5t-92 90.5t-36.5 165t16.5 252q16 112 38.5 194t56 138.5t71 92t91.5 54.5t109 26t132 7q227 0 469 -47zM807 350l74 520q-171 7 -226 7q-73 0 -120 -4.5t-88 -20.5t-65 -40.5t-44.5 -70t-33 -101.5t-25.5 -144q-17 -116 -19.5 -185t12 -111.5
t44.5 -57.5t83 -15q96 0 194.5 55.5t213.5 167.5z" />
    <glyph glyph-name="ae" unicode="&#xe6;" horiz-adv-x="1787" 
d="M1581 147l12 -116q-69 -28 -184 -42t-217 -14q-166 0 -262 55t-131 169q-85 -101 -198.5 -162.5t-242.5 -61.5q-178 0 -237.5 122.5t-18.5 412.5q19 133 50 225.5t70.5 148.5t99.5 87t122.5 41t153.5 10q214 0 442 -45q104 45 293 45q228 0 312.5 -79t58.5 -241
q-24 -142 -111 -203t-268 -75l-369 -33q-3 -81 12.5 -134.5t52 -82.5t84 -40t118.5 -11q180 0 358 24zM393 127q94 0 185 50.5t198 154.5q-3 85 12 190q30 233 113 344q-200 11 -250 11q-71 0 -118 -5t-87 -21.5t-63 -40.5t-43 -70t-32.5 -101.5t-24.5 -142.5
q-24 -146 -19 -228t33.5 -111.5t95.5 -29.5zM969 520l354 35q101 8 147.5 42.5t59.5 119.5q4 25 4 45.5t-2.5 36t-11 27.5t-17.5 20.5t-25.5 14t-31 9t-39 5t-45 2t-51.5 0.5q-87 0 -140.5 -13.5t-95 -53t-65.5 -108t-41 -182.5z" />
    <glyph glyph-name="ccedilla" unicode="&#xe7;" horiz-adv-x="991" 
d="M834 143l12 -118q-158 -50 -342 -50q-262 0 -356 122.5t-54 408.5q41 285 161.5 400.5t375.5 115.5q197 0 319 -49l-28 -109q-110 10 -263 10q-96 0 -158 -15.5t-109.5 -58t-74 -116.5t-41.5 -192q-10 -78 -10.5 -134t9.5 -98t29 -68t53 -41.5t75.5 -21.5t102.5 -6
q171 0 299 20zM352 -195l21 82q127 11 178.5 -18.5t34.5 -122.5q-20 -126 -124 -193t-249 -47l33 93q82 -3 142.5 39.5t72.5 109.5q6 34 -15 45t-94 12z" />
    <glyph glyph-name="egrave" unicode="&#xe8;" horiz-adv-x="1099" 
d="M692 1122l-379 256l97 123l346 -301zM899 147l12 -116q-71 -28 -187.5 -42t-219.5 -14q-255 0 -350 131t-56 416q21 149 58.5 244t104 153t156.5 80.5t226 22.5q228 0 313 -79t58 -241q-24 -142 -111 -203t-268 -75l-369 -33q-2 -82 13.5 -135t51.5 -82t83 -40t118 -11
q177 0 367 24zM279 520l354 35q102 8 148 42t61 120q4 25 4 45.5t-2.5 36t-11 27.5t-18 20.5t-26 14t-31.5 9t-39.5 5t-45 2t-51.5 0.5q-58 0 -98.5 -5.5t-76.5 -20.5t-60.5 -40t-45.5 -65.5t-35 -95t-26 -130.5z" />
    <glyph glyph-name="eacute" unicode="&#xe9;" horiz-adv-x="1099" 
d="M575 1122l-53 82l391 299l86 -133zM899 147l12 -116q-71 -28 -187.5 -42t-219.5 -14q-255 0 -350 131t-56 416q21 149 58.5 244t104 153t156.5 80.5t226 22.5q228 0 313 -79t58 -241q-24 -142 -111 -203t-268 -75l-369 -33q-2 -82 13.5 -135t51.5 -82t83 -40t118 -11
q177 0 367 24zM279 520l354 35q102 8 148 42t61 120q4 25 4 45.5t-2.5 36t-11 27.5t-18 20.5t-26 14t-31.5 9t-39.5 5t-45 2t-51.5 0.5q-58 0 -98.5 -5.5t-76.5 -20.5t-60.5 -40t-45.5 -65.5t-35 -95t-26 -130.5z" />
    <glyph glyph-name="ecircumflex" unicode="&#xea;" horiz-adv-x="1099" 
d="M375 1130l-51 76l305 260h123l254 -270l-66 -70l-244 207h-16zM899 147l12 -116q-71 -28 -187.5 -42t-219.5 -14q-255 0 -350 131t-56 416q21 149 58.5 244t104 153t156.5 80.5t226 22.5q228 0 313 -79t58 -241q-24 -142 -111 -203t-268 -75l-369 -33q-2 -82 13.5 -135
t51.5 -82t83 -40t118 -11q177 0 367 24zM279 520l354 35q102 8 148 42t61 120q4 25 4 45.5t-2.5 36t-11 27.5t-18 20.5t-26 14t-31.5 9t-39.5 5t-45 2t-51.5 0.5q-58 0 -98.5 -5.5t-76.5 -20.5t-60.5 -40t-45.5 -65.5t-35 -95t-26 -130.5z" />
    <glyph glyph-name="edieresis" unicode="&#xeb;" horiz-adv-x="1099" 
d="M514 1202h-57q-48 0 -45 47l18 115q9 49 57 49h54q30 0 40 -11.5t5 -37.5l-19 -113q-3 -49 -53 -49zM860 1202h-57q-48 0 -45 47l18 115q9 49 58 49h53q30 0 40 -11.5t5 -37.5l-19 -113q-3 -49 -53 -49zM899 147l12 -116q-71 -28 -187.5 -42t-219.5 -14q-255 0 -350 131
t-56 416q21 149 58.5 244t104 153t156.5 80.5t226 22.5q228 0 313 -79t58 -241q-24 -142 -111 -203t-268 -75l-369 -33q-2 -82 13.5 -135t51.5 -82t83 -40t118 -11q177 0 367 24zM279 520l354 35q102 8 148 42t61 120q4 25 4 45.5t-2.5 36t-11 27.5t-18 20.5t-26 14t-31.5 9
t-39.5 5t-45 2t-51.5 0.5q-58 0 -98.5 -5.5t-76.5 -20.5t-60.5 -40t-45.5 -65.5t-35 -95t-26 -130.5z" />
    <glyph glyph-name="igrave" unicode="&#xec;" horiz-adv-x="503" 
d="M436 1200l-63 -78l-379 256l96 123zM254 0h-174l141 997h174z" />
    <glyph glyph-name="iacute" unicode="&#xed;" horiz-adv-x="503" 
d="M678 1370l-422 -248l-53 82l391 299zM254 0h-174l141 997h174z" />
    <glyph glyph-name="icircumflex" unicode="&#xee;" horiz-adv-x="503" 
d="M686 1196l-65 -70l-244 207h-17l-305 -203l-51 76l305 260h123zM254 0h-174l141 997h174z" />
    <glyph glyph-name="idieresis" unicode="&#xef;" horiz-adv-x="503" 
d="M168 1413h53q29 0 38.5 -11.5t6.5 -37.5l-18 -113q-3 -49 -53 -49h-58q-48 0 -45 47l19 115q9 49 57 49zM514 1413h53q29 0 38.5 -11.5t6.5 -37.5l-18 -113q-3 -49 -53 -49h-58q-48 0 -45 47l19 115q9 49 57 49zM254 0h-174l141 997h174z" />
    <glyph glyph-name="eth" unicode="&#xf0;" horiz-adv-x="1136" 
d="M1010 1380l-154 -104q215 -215 150 -705q-15 -115 -38.5 -203t-64 -164.5t-98 -125.5t-141.5 -77t-193 -28q-230 0 -321.5 118t-59.5 364q29 225 139 344t322 119q184 0 293 -111q0 257 -115 379l-182 -125l-47 69l157 111q-109 66 -313 62l27 127q253 10 415 -97
l172 121zM479 121q166 0 242 110t108 365q10 86 11 94q-105 82 -252 82q-150 0 -222.5 -82t-95.5 -248q-26 -176 23.5 -248.5t185.5 -72.5z" />
    <glyph glyph-name="ntilde" unicode="&#xf1;" horiz-adv-x="1183" 
d="M954 1427l80 -8q-3 -113 -53 -172t-127 -53q-48 3 -93 20.5t-73 37t-62.5 37.5t-64.5 22q-58 6 -86.5 -22.5t-36.5 -92.5l-82 6q6 118 57.5 178t127.5 54q55 -4 103 -30t94 -52.5t91 -32.5q59 -6 87.5 20.5t37.5 87.5zM352 997l-14 -219q139 123 255 183.5t226 60.5
q127 0 190.5 -71.5t45.5 -205.5l-107 -745h-174l100 702q12 97 -12.5 134.5t-95.5 37.5q-90 0 -185 -53t-245 -172l-90 -649h-174l141 997h139z" />
    <glyph glyph-name="ograve" unicode="&#xf2;" horiz-adv-x="1155" 
d="M758 1200l-64 -78l-379 256l97 123zM629 1022q254 0 349 -122.5t54 -410.5q-40 -283 -159.5 -399.5t-370.5 -116.5q-252 0 -349.5 123t-58.5 408q40 284 160.5 401t374.5 117zM629 874q-114 0 -181 -33t-108.5 -116t-63.5 -236q-13 -107 -12 -178t29.5 -113t77.5 -59.5
t131 -17.5q168 0 244.5 82.5t107.5 300.5q31 216 -16.5 293t-208.5 77z" />
    <glyph glyph-name="oacute" unicode="&#xf3;" horiz-adv-x="1155" 
d="M1001 1370l-423 -248l-54 82l394 299zM629 1022q254 0 349 -122.5t54 -410.5q-40 -283 -159.5 -399.5t-370.5 -116.5q-252 0 -349.5 123t-58.5 408q40 284 160.5 401t374.5 117zM629 874q-114 0 -181 -33t-108.5 -116t-63.5 -236q-13 -107 -12 -178t29.5 -113t77.5 -59.5
t131 -17.5q168 0 244.5 82.5t107.5 300.5q31 216 -16.5 293t-208.5 77z" />
    <glyph glyph-name="ocircumflex" unicode="&#xf4;" horiz-adv-x="1155" 
d="M1008 1196l-66 -70l-244 207h-16l-305 -203l-49 76l303 260h123zM629 1022q254 0 349 -122.5t54 -410.5q-40 -283 -159.5 -399.5t-370.5 -116.5q-252 0 -349.5 123t-58.5 408q40 284 160.5 401t374.5 117zM629 874q-114 0 -181 -33t-108.5 -116t-63.5 -236
q-13 -107 -12 -178t29.5 -113t77.5 -59.5t131 -17.5q168 0 244.5 82.5t107.5 300.5q31 216 -16.5 293t-208.5 77z" />
    <glyph glyph-name="otilde" unicode="&#xf5;" horiz-adv-x="1155" 
d="M418 1196l-82 6q4 118 56 178t128 54q55 -4 103.5 -30t94.5 -52.5t91 -32.5q58 -6 87 20.5t38 87.5l80 -8q-3 -113 -53 -172t-127 -53q-48 3 -93 20.5t-73 37t-62.5 37.5t-64.5 22q-58 6 -86.5 -22.5t-36.5 -92.5zM629 1022q254 0 349 -122.5t54 -410.5
q-40 -283 -159.5 -399.5t-370.5 -116.5q-252 0 -349.5 123t-58.5 408q40 284 160.5 401t374.5 117zM629 874q-114 0 -181 -33t-108.5 -116t-63.5 -236q-13 -107 -12 -178t29.5 -113t77.5 -59.5t131 -17.5q168 0 244.5 82.5t107.5 300.5q31 216 -16.5 293t-208.5 77z" />
    <glyph glyph-name="odieresis" unicode="&#xf6;" horiz-adv-x="1155" 
d="M489 1413h54q30 0 40 -11.5t5 -37.5l-17 -113q-6 -49 -53 -49h-59q-49 0 -43 47l16 115q9 49 57 49zM836 1413h53q30 0 40 -11.5t5 -37.5l-16 -113q-6 -49 -56 -49h-57q-49 0 -43 47l16 115q9 49 58 49zM629 1022q254 0 349 -122.5t54 -410.5q-40 -283 -159.5 -399.5
t-370.5 -116.5q-252 0 -349.5 123t-58.5 408q40 284 160.5 401t374.5 117zM629 874q-114 0 -181 -33t-108.5 -116t-63.5 -236q-13 -107 -12 -178t29.5 -113t77.5 -59.5t131 -17.5q168 0 244.5 82.5t107.5 300.5q31 216 -16.5 293t-208.5 77z" />
    <glyph glyph-name="divide" unicode="&#xf7;" horiz-adv-x="1161" 
d="M618 1075h46q37 -2 51 -18t8 -51l-12 -101q-9 -59 -70 -59h-45q-70 0 -61 67l14 99q5 33 21 48t48 15zM1020 539h-897l20 131h897zM516 360h47q71 0 62 -69l-17 -101q-6 -59 -67 -59h-47q-67 0 -58 70l15 96q6 63 65 63z" />
    <glyph glyph-name="oslash" unicode="&#xf8;" horiz-adv-x="1155" 
d="M997 1108l-88 -145q91 -57 121 -172.5t2 -301.5q-40 -283 -159.5 -399.5t-370.5 -116.5q-104 0 -180 21l-91 -148l-75 45l82 136q-100 54 -135 169.5t-9 307.5q40 284 160.5 401t374.5 117q122 0 198 -25l93 156zM322 166l421 696q-37 12 -114 12q-114 0 -181 -33
t-108.5 -116t-63.5 -236q-19 -130 -8.5 -207.5t54.5 -115.5zM821 817l-418 -688q39 -8 99 -8q168 0 244.5 82.5t107.5 300.5q18 122 10.5 198t-43.5 115z" />
    <glyph glyph-name="ugrave" unicode="&#xf9;" horiz-adv-x="1161" 
d="M702 1130l-378 256l96 123l346 -301zM1061 997l-139 -997h-136l15 217q-127 -124 -238 -184t-223 -60q-135 0 -196.5 74t-41.5 205l105 745h174l-100 -702q-13 -92 14 -131t104 -39q88 0 175 53t225 178l88 641h174z" />
    <glyph glyph-name="uacute" unicode="&#xfa;" horiz-adv-x="1161" 
d="M586 1130l-54 80l394 301l84 -135zM1061 997l-139 -997h-136l15 217q-127 -124 -238 -184t-223 -60q-135 0 -196.5 74t-41.5 205l105 745h174l-100 -702q-13 -92 14 -131t104 -39q88 0 175 53t225 178l88 641h174z" />
    <glyph glyph-name="ucircumflex" unicode="&#xfb;" horiz-adv-x="1161" 
d="M385 1139l-49 75l303 261h123l254 -271l-64 -69l-245 206h-17zM1061 997l-139 -997h-136l15 217q-127 -124 -238 -184t-223 -60q-135 0 -196.5 74t-41.5 205l105 745h174l-100 -702q-13 -92 14 -131t104 -39q88 0 175 53t225 178l88 641h174z" />
    <glyph glyph-name="udieresis" unicode="&#xfc;" horiz-adv-x="1161" 
d="M526 1210h-59q-49 0 -43 47l16 113q9 51 58 51h53q30 0 40 -12t5 -39l-16 -110q-6 -50 -54 -50zM872 1210h-59q-49 0 -43 47l16 113q9 51 58 51h53q30 0 40 -12t5 -39l-16 -110q-6 -50 -54 -50zM1061 997l-139 -997h-136l15 217q-127 -124 -238 -184t-223 -60
q-135 0 -196.5 74t-41.5 205l105 745h174l-100 -702q-13 -92 14 -131t104 -39q88 0 175 53t225 178l88 641h174z" />
    <glyph glyph-name="yacute" unicode="&#xfd;" horiz-adv-x="1103" 
d="M522 1122l-55 82l393 299l84 -133zM891 997h180q-54 -238 -124 -437t-179 -394q-107 -200 -212.5 -323t-210.5 -181.5t-241 -83.5l-32 125q125 30 224.5 97t192.5 200h-90q-44 0 -75.5 25t-40.5 67l-193 905h182l158 -821q9 -39 47 -39h98q6 12 20 38.5t21 41.5
q101 197 165.5 375.5t109.5 404.5z" />
    <glyph glyph-name="thorn" unicode="&#xfe;" 
d="M354 827l2 -12q87 95 198 151t232 56q67 0 115.5 -16t85 -53.5t52.5 -99t19 -152.5t-16 -214q-16 -111 -38.5 -193.5t-55.5 -139t-70.5 -92.5t-90 -55.5t-105.5 -26.5t-127 -7q-123 0 -309 25q-14 -113 -21 -148l-37 -262h-172l258 1846h175l-54 -383q-16 -128 -41 -224z
M336 643l-70 -518q196 -4 226 -4q72 0 118.5 4.5t87 20.5t63.5 39.5t43.5 69t33 102t24.5 143.5q13 94 17 155.5t0 105.5t-21 66.5t-42.5 32.5t-67.5 10q-97 0 -195.5 -56.5t-216.5 -170.5z" />
    <glyph glyph-name="ydieresis" unicode="&#xff;" horiz-adv-x="1103" 
d="M461 1202h-58q-51 0 -45 47l19 115q6 49 57 49h53q28 0 38 -11.5t7 -37.5l-18 -113q-6 -49 -53 -49zM807 1202h-57q-51 0 -45 47l18 115q6 49 57 49h54q28 0 38 -11.5t7 -37.5l-19 -113q-6 -49 -53 -49zM891 997h180q-54 -238 -124 -437t-179 -394q-107 -200 -212.5 -323
t-210.5 -181.5t-241 -83.5l-32 125q125 30 224.5 97t192.5 200h-90q-44 0 -75.5 25t-40.5 67l-193 905h182l158 -821q9 -39 47 -39h98q6 12 20 38.5t21 41.5q101 197 165.5 375.5t109.5 404.5z" />
    <glyph glyph-name="Amacron" unicode="&#x100;" horiz-adv-x="1267" 
d="M1069 1610h-571l16 129h571zM913 440h-583l-201 -440h-190l647 1366q14 47 69 47h189q25 0 42.5 -15t18.5 -38l264 -1360h-180zM885 598l-99 557q-3 19 -8 59.5t-8 61.5h-61l-54 -121l-254 -557h484z" />
    <glyph glyph-name="amacron" unicode="&#x101;" 
d="M963 1241h-572l19 129h569zM934 0h-137l12 201q-88 -103 -203 -164.5t-241 -61.5q-91 0 -149 27.5t-92 90.5t-36.5 165t16.5 252q16 112 38.5 194t56 138.5t71 92t91.5 54.5t109 26t132 7q227 0 469 -47zM807 350l74 520q-171 7 -226 7q-73 0 -120 -4.5t-88 -20.5
t-65 -40.5t-44.5 -70t-33 -101.5t-25.5 -144q-17 -116 -19.5 -185t12 -111.5t44.5 -57.5t83 -15q96 0 194.5 55.5t213.5 167.5z" />
    <glyph glyph-name="Abreve" unicode="&#x102;" horiz-adv-x="1267" 
d="M1026 1815l88 -23q-9 -119 -99.5 -191.5t-234.5 -72.5q-151 0 -227 75.5t-51 196.5l90 6q-10 -71 40 -110t148 -39q106 0 171.5 42t74.5 116zM913 440h-583l-201 -440h-190l647 1366q14 47 69 47h189q25 0 42.5 -15t18.5 -38l264 -1360h-180zM885 598l-99 557
q-3 19 -8 59.5t-8 61.5h-61l-54 -121l-254 -557h484z" />
    <glyph glyph-name="abreve" unicode="&#x103;" 
d="M920 1446l88 -23q-9 -119 -99.5 -191.5t-232.5 -72.5q-152 0 -229 76t-52 197l90 6q-10 -71 40.5 -110.5t148.5 -39.5q106 0 171.5 42t74.5 116zM934 0h-137l12 201q-88 -103 -203 -164.5t-241 -61.5q-91 0 -149 27.5t-92 90.5t-36.5 165t16.5 252q16 112 38.5 194
t56 138.5t71 92t91.5 54.5t109 26t132 7q227 0 469 -47zM807 350l74 520q-171 7 -226 7q-73 0 -120 -4.5t-88 -20.5t-65 -40.5t-44.5 -70t-33 -101.5t-25.5 -144q-17 -116 -19.5 -185t12 -111.5t44.5 -57.5t83 -15q96 0 194.5 55.5t213.5 167.5z" />
    <glyph glyph-name="Aogonek" unicode="&#x104;" horiz-adv-x="1267" 
d="M905 1360l264 -1360q-111 -117 -180 -240q-41 -72 -2 -93.5t141 11.5l21 -75q-79 -31 -141 -37.5t-99 8t-56 43t-16 67.5t25 83q61 117 217 233h-90l-76 440h-583l-201 -440h-190l647 1366q14 47 69 47h189q25 0 42.5 -15t18.5 -38zM885 598l-99 557q-3 19 -8 59.5
t-8 61.5h-61l-54 -121l-254 -557h484z" />
    <glyph glyph-name="aogonek" unicode="&#x105;" 
d="M1071 975l-137 -975q-111 -114 -182 -240q-41 -72 -2 -93.5t141 11.5l20 -75q-66 -26 -120.5 -35t-91 -2t-61 25t-33 45.5t-3.5 61t23 69.5q61 117 217 233h-45l12 201q-88 -103 -203 -164.5t-241 -61.5q-91 0 -149 27.5t-92 90.5t-36.5 165t16.5 252q16 112 38.5 194
t56 138.5t71 92t91.5 54.5t109 26t132 7q227 0 469 -47zM807 350l74 520q-171 7 -226 7q-73 0 -120 -4.5t-88 -20.5t-65 -40.5t-44.5 -70t-33 -101.5t-25.5 -144q-17 -116 -19.5 -185t12 -111.5t44.5 -57.5t83 -15q96 0 194.5 55.5t213.5 167.5z" />
    <glyph glyph-name="Cacute" unicode="&#x106;" horiz-adv-x="1159" 
d="M1133 1739l-424 -248l-54 82l394 299zM1006 158l10 -138q-168 -45 -416 -45q-303 0 -410 173.5t-51 564.5q29 205 76 340.5t124.5 223t184 124.5t260.5 37q134 0 215.5 -9.5t169.5 -33.5l-28 -135q-181 18 -359 18q-107 0 -179 -25.5t-128 -91.5t-90 -176.5t-57 -284.5
q-34 -211 -15.5 -336.5t85.5 -176.5t204 -52q212 0 404 23z" />
    <glyph glyph-name="cacute" unicode="&#x107;" horiz-adv-x="991" 
d="M965 1370l-422 -248l-56 82l394 299zM834 143l12 -118q-158 -50 -342 -50q-262 0 -356 122.5t-54 408.5q41 285 161.5 400.5t375.5 115.5q197 0 319 -49l-28 -109q-110 10 -263 10q-96 0 -158 -15.5t-109.5 -58t-74 -116.5t-41.5 -192q-10 -78 -10.5 -134t9.5 -98t29 -68
t53 -41.5t75.5 -21.5t102.5 -6q171 0 299 20z" />
    <glyph glyph-name="Cdotaccent" unicode="&#x10a;" horiz-adv-x="1159" 
d="M786 1776h58q27 0 40 -15t9 -41l-16 -116q-6 -50 -56 -50h-55q-26 0 -40 15.5t-9 40.5l14 116q5 27 17 38.5t38 11.5zM1006 158l10 -138q-168 -45 -416 -45q-303 0 -410 173.5t-51 564.5q29 205 76 340.5t124.5 223t184 124.5t260.5 37q134 0 215.5 -9.5t169.5 -33.5
l-28 -135q-181 18 -359 18q-107 0 -179 -25.5t-128 -91.5t-90 -176.5t-57 -284.5q-34 -211 -15.5 -336.5t85.5 -176.5t204 -52q212 0 404 23z" />
    <glyph glyph-name="cdotaccent" unicode="&#x10b;" horiz-adv-x="991" 
d="M621 1407h55q27 0 40.5 -14.5t10.5 -40.5l-16 -115q-5 -27 -17.5 -39t-38.5 -12h-55q-26 0 -40 15t-11 40l16 117q3 26 15.5 37.5t40.5 11.5zM834 143l12 -118q-158 -50 -342 -50q-262 0 -356 122.5t-54 408.5q41 285 161.5 400.5t375.5 115.5q197 0 319 -49l-28 -109
q-110 10 -263 10q-96 0 -158 -15.5t-109.5 -58t-74 -116.5t-41.5 -192q-10 -78 -10.5 -134t9.5 -98t29 -68t53 -41.5t75.5 -21.5t102.5 -6q171 0 299 20z" />
    <glyph glyph-name="Ccaron" unicode="&#x10c;" horiz-adv-x="1159" 
d="M1159 1784l-307 -260h-127l-240 270l72 66l231 -205h17l299 205zM1006 158l10 -138q-168 -45 -416 -45q-303 0 -410 173.5t-51 564.5q29 205 76 340.5t124.5 223t184 124.5t260.5 37q134 0 215.5 -9.5t169.5 -33.5l-28 -135q-181 18 -359 18q-107 0 -179 -25.5
t-128 -91.5t-90 -176.5t-57 -284.5q-34 -211 -15.5 -336.5t85.5 -176.5t204 -52q212 0 404 23z" />
    <glyph glyph-name="ccaron" unicode="&#x10d;" horiz-adv-x="991" 
d="M991 1415l-305 -260h-127l-240 270l70 66l232 -205h16l301 205zM834 143l12 -118q-158 -50 -342 -50q-262 0 -356 122.5t-54 408.5q41 285 161.5 400.5t375.5 115.5q197 0 319 -49l-28 -109q-110 10 -263 10q-96 0 -158 -15.5t-109.5 -58t-74 -116.5t-41.5 -192
q-10 -78 -10.5 -134t9.5 -98t29 -68t53 -41.5t75.5 -21.5t102.5 -6q171 0 299 20z" />
    <glyph glyph-name="Dcaron" unicode="&#x10e;" horiz-adv-x="1355" 
d="M717 1524l-240 270l70 66l231 -205h17l301 205l53 -76l-305 -260h-127zM92 0l199 1413q264 19 463 19q110 0 192 -16t144.5 -52t100.5 -92t57 -138.5t18 -188.5t-21 -245q-19 -132 -43.5 -232.5t-55.5 -177.5t-74 -130t-91.5 -88t-115 -54.5t-137.5 -27.5t-167 -8
q-199 0 -469 18zM451 1272l-158 -1129q184 -4 266 -4q127 0 205 21.5t138.5 86t95 174t61.5 292.5q17 118 21.5 202.5t-5.5 149t-32 104t-64 64t-96 34t-133 9.5q-95 0 -299 -4z" />
    <glyph glyph-name="dcaron" unicode="&#x10f;" horiz-adv-x="1171" 
d="M958 1434h175l-201 -1434h-137l14 217q-96 -105 -215 -173.5t-250 -68.5q-78 0 -131 27.5t-86.5 90.5t-38 165t13.5 252q14 95 34 169t43.5 128t56.5 92t67.5 62t81 37.5t92.5 18.5t107 5q134 0 323 -25q3 93 17 191zM1323 1434h47q32 0 44 -13.5t7 -44.5l-16 -112
q-17 -122 -105 -269l-77 27q46 139 59 209q-26 -1 -38 12t-9 35l16 102q6 32 20.5 43t51.5 11zM809 356l70 518q-37 1 -88 2t-85.5 2t-56.5 1q-72 0 -118 -4.5t-86.5 -20.5t-64 -40t-44 -69.5t-33 -103t-24.5 -145.5q-22 -141 -18 -223t33.5 -114t98.5 -32q97 0 193 54
t223 175z" />
    <glyph glyph-name="Dcroat" unicode="&#x110;" horiz-adv-x="1355" 
d="M205 801l86 612q264 19 463 19q110 0 192 -16t144.5 -52t100.5 -92t57 -138.5t18 -188.5t-21 -245q-19 -132 -43.5 -232.5t-55.5 -177.5t-74 -130t-91.5 -88t-115 -54.5t-137.5 -27.5t-167 -8q-199 0 -469 18l98 700h-135l15 101h135zM371 700l-78 -557q184 -4 266 -4
q127 0 205 21.5t138.5 86t95 174t61.5 292.5q17 118 21.5 202.5t-5.5 149t-32 104t-64 64t-96 34t-133 9.5q-95 0 -299 -4l-66 -471h315l-12 -101h-317z" />
    <glyph glyph-name="dcroat" unicode="&#x111;" horiz-adv-x="1171" 
d="M1247 1180h-149l-166 -1180h-137l14 217q-96 -105 -215 -173.5t-250 -68.5q-78 0 -131 27.5t-86.5 90.5t-38 165t13.5 252q14 95 34 169t43.5 128t56.5 92t67.5 62t81 37.5t92.5 18.5t107 5q134 0 323 -25q3 81 15 183h-304l15 98h303l22 156h175l-21 -156h148zM809 356
l70 518q-37 1 -88 2t-85.5 2t-56.5 1q-72 0 -118 -4.5t-86.5 -20.5t-64 -40t-44 -69.5t-33 -103t-24.5 -145.5q-22 -141 -18 -223t33.5 -114t98.5 -32q97 0 193 54t223 175z" />
    <glyph glyph-name="Emacron" unicode="&#x112;" horiz-adv-x="1142" 
d="M1061 1651h-572l19 131h571zM1126 1262h-563q-69 0 -102.5 -33t-42.5 -107l-43 -307h608l-18 -139h-609l-53 -391q-10 -70 17 -101.5t96 -31.5h553l-4 -142q-180 -12 -572 -12q-153 0 -223 75t-51 208l125 893q15 115 91.5 178t205.5 63q422 0 610 -12z" />
    <glyph glyph-name="emacron" unicode="&#x113;" horiz-adv-x="1099" 
d="M948 1241h-571l18 129h572zM899 147l12 -116q-71 -28 -187.5 -42t-219.5 -14q-255 0 -350 131t-56 416q21 149 58.5 244t104 153t156.5 80.5t226 22.5q228 0 313 -79t58 -241q-24 -142 -111 -203t-268 -75l-369 -33q-2 -82 13.5 -135t51.5 -82t83 -40t118 -11
q177 0 367 24zM279 520l354 35q102 8 148 42t61 120q4 25 4 45.5t-2.5 36t-11 27.5t-18 20.5t-26 14t-31.5 9t-39.5 5t-45 2t-51.5 0.5q-58 0 -98.5 -5.5t-76.5 -20.5t-60.5 -40t-45.5 -65.5t-35 -95t-26 -130.5z" />
    <glyph glyph-name="Edotaccent" unicode="&#x116;" horiz-adv-x="1142" 
d="M803 1595h-58q-25 0 -38.5 16t-10.5 42l15 114q5 27 17 39.5t38 12.5h57q26 0 40 -16t11 -42l-16 -114q-5 -27 -17.5 -39.5t-37.5 -12.5zM1126 1262h-563q-69 0 -102.5 -33t-42.5 -107l-43 -307h608l-18 -139h-609l-53 -391q-10 -70 17 -101.5t96 -31.5h553l-4 -142
q-180 -12 -572 -12q-153 0 -223 75t-51 208l125 893q15 115 91.5 178t205.5 63q422 0 610 -12z" />
    <glyph glyph-name="edotaccent" unicode="&#x117;" horiz-adv-x="1099" 
d="M688 1186h-55q-26 0 -39.5 15t-9.5 40l14 117q5 27 17 38t38 11h58q27 0 40 -14.5t9 -40.5l-17 -115q-6 -51 -55 -51zM899 147l12 -116q-71 -28 -187.5 -42t-219.5 -14q-255 0 -350 131t-56 416q21 149 58.5 244t104 153t156.5 80.5t226 22.5q228 0 313 -79t58 -241
q-24 -142 -111 -203t-268 -75l-369 -33q-2 -82 13.5 -135t51.5 -82t83 -40t118 -11q177 0 367 24zM279 520l354 35q102 8 148 42t61 120q4 25 4 45.5t-2.5 36t-11 27.5t-18 20.5t-26 14t-31.5 9t-39.5 5t-45 2t-51.5 0.5q-58 0 -98.5 -5.5t-76.5 -20.5t-60.5 -40
t-45.5 -65.5t-35 -95t-26 -130.5z" />
    <glyph glyph-name="Eogonek" unicode="&#x118;" horiz-adv-x="1142" 
d="M1126 1262h-563q-69 0 -102.5 -33t-42.5 -107l-43 -307h608l-18 -139h-609l-53 -391q-10 -70 17 -101.5t96 -31.5h553l-4 -142q-110 -113 -181 -239q-41 -71 -1.5 -92.5t141.5 10.5l20 -76q-79 -31 -141.5 -37.5t-99 8t-56 43.5t-17 68t24.5 82q61 117 211 227
q-154 -6 -473 -6q-153 0 -223 75t-51 208l125 893q15 115 91.5 178t205.5 63q422 0 610 -12z" />
    <glyph glyph-name="eogonek" unicode="&#x119;" horiz-adv-x="1099" 
d="M868 -291l21 -76q-78 -31 -140.5 -38.5t-99 7.5t-56 43.5t-16.5 68t25 83.5q52 98 176 201q-135 -23 -274 -23q-255 0 -350 131t-56 416q21 149 58.5 244t104 153t156.5 80.5t226 22.5q228 0 313 -79t58 -241q-24 -142 -111 -203t-268 -75l-369 -33q-2 -82 13.5 -135
t51.5 -82t83 -40t118 -11q177 0 367 24l12 -116q-113 -116 -180 -240q-41 -72 -2 -93.5t139 11.5zM279 520l354 35q102 8 148 42t61 120q4 25 4 45.5t-2.5 36t-11 27.5t-18 20.5t-26 14t-31.5 9t-39.5 5t-45 2t-51.5 0.5q-58 0 -98.5 -5.5t-76.5 -20.5t-60.5 -40
t-45.5 -65.5t-35 -95t-26 -130.5z" />
    <glyph glyph-name="Ecaron" unicode="&#x11a;" horiz-adv-x="1142" 
d="M707 1565l-240 272l70 64l231 -203h16l301 203l54 -74l-308 -262h-124zM1126 1262h-563q-69 0 -102.5 -33t-42.5 -107l-43 -307h608l-18 -139h-609l-53 -391q-10 -70 17 -101.5t96 -31.5h553l-4 -142q-180 -12 -572 -12q-153 0 -223 75t-51 208l125 893q15 115 91.5 178
t205.5 63q422 0 610 -12z" />
    <glyph glyph-name="ecaron" unicode="&#x11b;" horiz-adv-x="1099" 
d="M592 1155l-240 270l72 66l231 -205h17l299 205l55 -76l-307 -260h-127zM899 147l12 -116q-71 -28 -187.5 -42t-219.5 -14q-255 0 -350 131t-56 416q21 149 58.5 244t104 153t156.5 80.5t226 22.5q228 0 313 -79t58 -241q-24 -142 -111 -203t-268 -75l-369 -33
q-2 -82 13.5 -135t51.5 -82t83 -40t118 -11q177 0 367 24zM279 520l354 35q102 8 148 42t61 120q4 25 4 45.5t-2.5 36t-11 27.5t-18 20.5t-26 14t-31.5 9t-39.5 5t-45 2t-51.5 0.5q-58 0 -98.5 -5.5t-76.5 -20.5t-60.5 -40t-45.5 -65.5t-35 -95t-26 -130.5z" />
    <glyph glyph-name="Gbreve" unicode="&#x11e;" horiz-adv-x="1277" 
d="M1057 1815l88 -23q-9 -119 -99.5 -191.5t-232.5 -72.5q-153 0 -229.5 75.5t-51.5 196.5l91 6q-10 -71 40 -110t148 -39q106 0 171.5 42t74.5 116zM1214 1395l-26 -133q-172 16 -357 16q-129 0 -209.5 -23t-141.5 -88.5t-95 -175.5t-57 -291q-35 -317 12.5 -442
t206.5 -125q103 0 188.5 50.5t198.5 160.5l65 475h175l-117 -819h-129l4 195q-95 -109 -203 -165.5t-242 -56.5q-222 0 -306.5 177.5t-41.5 562.5q19 147 49 259t74 192t97 133.5t124 85t148.5 44.5t177.5 13q235 0 405 -45z" />
    <glyph glyph-name="gbreve" unicode="&#x11f;" horiz-adv-x="1177" 
d="M922 1446l88 -23q-9 -119 -99.5 -191.5t-234.5 -72.5q-152 0 -229 76t-52 197l90 6q-9 -71 42 -110.5t147 -39.5q106 0 172.5 42.5t75.5 115.5zM1077 975l-139 -957q-54 -439 -567 -450q-60 -2 -164 5.5t-176 27.5l18 116q144 -7 324 -2q340 10 389 269q1 7 6 31t7 32
t6.5 29.5t7.5 31t8 27.5t9.5 29t10.5 26t12.5 27.5t14.5 24.5q-91 -118 -217.5 -192.5t-266.5 -74.5q-66 0 -114 16t-85 53.5t-53.5 99t-19 152.5t17.5 214q16 112 39.5 194.5t56.5 138.5t70 92t88.5 55t103 25.5t122.5 6.5q242 0 487 -47h4zM809 352l78 518q-175 7 -236 7
q-71 0 -117 -5t-86 -20.5t-63.5 -40t-44 -69.5t-33 -102t-24.5 -144q-25 -146 -19.5 -228t36 -111.5t101.5 -29.5q96 0 193 55.5t215 169.5z" />
    <glyph glyph-name="Gdotaccent" unicode="&#x120;" horiz-adv-x="1277" 
d="M840 1554h-56q-26 0 -40 15.5t-9 40.5l15 116q3 26 16 38t39 12h55q27 0 41 -15t10 -41l-16 -116q-3 -26 -16 -38t-39 -12zM1214 1395l-26 -133q-172 16 -357 16q-129 0 -209.5 -23t-141.5 -88.5t-95 -175.5t-57 -291q-35 -317 12.5 -442t206.5 -125q103 0 188.5 50.5
t198.5 160.5l65 475h175l-117 -819h-129l4 195q-95 -109 -203 -165.5t-242 -56.5q-222 0 -306.5 177.5t-41.5 562.5q19 147 49 259t74 192t97 133.5t124 85t148.5 44.5t177.5 13q235 0 405 -45z" />
    <glyph glyph-name="gdotaccent" unicode="&#x121;" horiz-adv-x="1177" 
d="M702 1186h-55q-26 0 -39 15t-10 40l14 117q5 26 17.5 37.5t38.5 11.5h57q27 0 40.5 -14.5t10.5 -40.5l-16 -115q-9 -51 -58 -51zM1077 975l-139 -957q-54 -439 -567 -450q-60 -2 -164 5.5t-176 27.5l18 116q144 -7 324 -2q340 10 389 269q1 7 6 31t7 32t6.5 29.5t7.5 31
t8 27.5t9.5 29t10.5 26t12.5 27.5t14.5 24.5q-91 -118 -217.5 -192.5t-266.5 -74.5q-66 0 -114 16t-85 53.5t-53.5 99t-19 152.5t17.5 214q16 112 39.5 194.5t56.5 138.5t70 92t88.5 55t103 25.5t122.5 6.5q242 0 487 -47h4zM809 352l78 518q-175 7 -236 7q-71 0 -117 -5
t-86 -20.5t-63.5 -40t-44 -69.5t-33 -102t-24.5 -144q-25 -146 -19.5 -228t36 -111.5t101.5 -29.5q96 0 193 55.5t215 169.5z" />
    <glyph glyph-name="Gcommaaccent" unicode="&#x122;" horiz-adv-x="1277" 
d="M1214 1395l-26 -133q-172 16 -357 16q-129 0 -209.5 -23t-141.5 -88.5t-95 -175.5t-57 -291q-35 -317 12.5 -442t206.5 -125q103 0 188.5 50.5t198.5 160.5l65 475h175l-117 -819h-129l4 195q-95 -109 -203 -165.5t-242 -56.5q-222 0 -306.5 177.5t-41.5 562.5
q19 147 49 259t74 192t97 133.5t124 85t148.5 44.5t177.5 13q235 0 405 -45zM565 -119h49q62 0 50 -59l-17 -113q-13 -114 -104 -270l-78 26q46 133 61 211q-25 -3 -38 11t-11 37l17 104q6 31 20.5 42t50.5 11z" />
    <glyph glyph-name="gcommaaccent" unicode="&#x123;" horiz-adv-x="1177" 
d="M688 1141h-47q-32 0 -44 14t-7 45l16 113q16 120 105 268l77 -25q-46 -133 -59 -210q24 1 36.5 -12t10.5 -36l-16 -104q-6 -31 -21 -42t-51 -11zM1077 975l-139 -957q-54 -439 -567 -450q-60 -2 -164 5.5t-176 27.5l18 116q144 -7 324 -2q340 10 389 269q1 7 6 31t7 32
t6.5 29.5t7.5 31t8 27.5t9.5 29t10.5 26t12.5 27.5t14.5 24.5q-91 -118 -217.5 -192.5t-266.5 -74.5q-66 0 -114 16t-85 53.5t-53.5 99t-19 152.5t17.5 214q16 112 39.5 194.5t56.5 138.5t70 92t88.5 55t103 25.5t122.5 6.5q242 0 487 -47h4zM809 352l78 518q-175 7 -236 7
q-71 0 -117 -5t-86 -20.5t-63.5 -40t-44 -69.5t-33 -102t-24.5 -144q-25 -146 -19.5 -228t36 -111.5t101.5 -29.5q96 0 193 55.5t215 169.5z" />
    <glyph glyph-name="Hbar" unicode="&#x126;" horiz-adv-x="1363" 
d="M1405 1063h-152l-149 -1063h-178l94 676h-651l-95 -676h-182l150 1063h-138l15 96h137l35 254h182l-37 -254h651l37 254h179l-35 -254h149zM1075 1063h-651l-33 -232h651z" />
    <glyph glyph-name="hbar" unicode="&#x127;" horiz-adv-x="1183" 
d="M414 1180l-21 -148q-15 -124 -47 -246q137 120 251 178t222 58q127 0 190.5 -71.5t45.5 -205.5l-107 -745h-174l100 702q12 97 -12.5 134.5t-95.5 37.5q-90 0 -184 -53t-246 -174l-90 -647h-174l168 1180h-148l14 98h146l22 156h175l-21 -156h305l-14 -98h-305z" />
    <glyph glyph-name="Imacron" unicode="&#x12a;" horiz-adv-x="534" 
d="M694 1610h-571l18 129h572zM274 0h-182l199 1413h182z" />
    <glyph glyph-name="imacron" unicode="&#x12b;" horiz-adv-x="503" 
d="M629 1241h-572l19 129h571zM254 0h-174l141 997h174z" />
    <glyph glyph-name="Iogonek" unicode="&#x12e;" horiz-adv-x="534" 
d="M274 0h-22q-111 -117 -180 -240q-41 -72 -2 -93.5t141 11.5l20 -75q-66 -26 -120.5 -35t-91 -2t-61 25t-33 45.5t-3.5 61t23 69.5q61 117 217 233h-70l199 1413h182z" />
    <glyph glyph-name="iogonek" unicode="&#x12f;" horiz-adv-x="503" 
d="M334 1407h57q26 0 39.5 -14.5t9.5 -40.5l-16 -115q-6 -51 -55 -51h-56q-26 0 -39.5 15t-9.5 40l15 117q3 26 16 37.5t39 11.5zM221 997h174l-141 -997h-12q-115 -118 -181 -240q-41 -72 -1.5 -93.5t139.5 11.5l20 -75q-65 -26 -119.5 -35t-91.5 -2t-61.5 25t-33 45.5
t-4 61t22.5 69.5q60 114 220 233h-72z" />
    <glyph glyph-name="Idotaccent" unicode="&#x130;" horiz-adv-x="534" 
d="M399 1776h58q25 0 39 -15t10 -41l-17 -116q-3 -26 -16 -38t-39 -12h-55q-26 0 -40 15.5t-9 40.5l14 116q3 26 16 38t39 12zM274 0h-182l199 1413h182z" />
    <glyph glyph-name="dotlessi" unicode="&#x131;" horiz-adv-x="503" 
d="M254 0h-174l141 997h174z" />
    <glyph glyph-name="IJ" unicode="&#x132;" horiz-adv-x="1228" 
d="M274 0h-182l199 1413h182zM1174 1413l-160 -1120q-22 -153 -100 -232t-207 -79q-107 0 -191 26l35 127h96q81 0 129.5 41t59.5 117l155 1120h183z" />
    <glyph glyph-name="ij" unicode="&#x133;" horiz-adv-x="1007" 
d="M322 1421h81q27 0 41 -16t9 -41l-15 -117q-5 -27 -17.5 -38t-39.5 -11h-80q-57 0 -51 57l16 115q6 51 56 51zM825 1421h82q26 0 39 -16t10 -41l-16 -117q-3 -27 -15.5 -38t-39.5 -11h-82q-27 0 -40 15t-9 42l16 115q6 51 55 51zM254 0h-172l139 997h172zM897 997
l-143 -1026q-17 -119 -81 -221t-161 -168l-92 80q70 74 108.5 149t51.5 169l145 1017h172z" />
    <glyph glyph-name="Kcommaaccent" unicode="&#x136;" horiz-adv-x="1214" 
d="M678 737v-8q36 -42 67 -102l349 -627h-205l-363 664h-174q0 -93 -10 -154l-70 -510h-180l199 1413h180l-63 -444q-11 -75 -33 -160h166l506 604h219l-492 -586q-56 -64 -96 -90zM537 -119h47q32 0 44 -14t7 -45l-17 -113q-16 -120 -104 -270l-78 26q44 126 60 211
q-25 -3 -37.5 11t-9.5 37l16 104q6 31 20 42t52 11z" />
    <glyph glyph-name="kcommaaccent" unicode="&#x137;" horiz-adv-x="1067" 
d="M840 997h178q-89 -270 -338 -444q30 -49 59 -115l197 -438h-186l-203 471q-103 -55 -248 -115l-53 -356h-172l200 1434h175l-93 -693q-17 -122 -61 -237q203 91 350.5 217t194.5 276zM475 -121h49q32 0 43.5 -13t5.5 -44l-14 -113q-16 -120 -104 -270l-78 26
q47 146 59 211q-25 -3 -37.5 11t-9.5 37l14 104q8 31 21.5 41t50.5 10z" />
    <glyph glyph-name="Lacute" unicode="&#x139;" horiz-adv-x="1042" 
d="M741 1739l-422 -248l-55 82l393 299zM467 1413l-158 -1128q-19 -133 113 -133h512l-4 -142q-178 -12 -547 -12q-134 0 -203.5 76t-48.5 217l154 1122h182z" />
    <glyph glyph-name="lacute" unicode="&#x13a;" horiz-adv-x="600" 
d="M735 1782l-424 -246l-53 80l393 301zM451 1434l-164 -1164q-10 -70 15.5 -99.5t96.5 -29.5h101l6 -135q-27 -11 -83.5 -17.5t-96.5 -6.5q-117 0 -175.5 68t-41.5 190l167 1194h175z" />
    <glyph glyph-name="Lcommaaccent" unicode="&#x13b;" horiz-adv-x="1042" 
d="M467 1413l-158 -1128q-19 -133 113 -133h512l-4 -142q-178 -12 -547 -12q-134 0 -203.5 76t-48.5 217l154 1122h182zM514 -125h49q32 0 43.5 -13t5.5 -44l-16 -115q-13 -112 -102 -268l-80 24q46 133 61 211q-26 -1 -38.5 12t-10.5 37l16 103q6 31 21 42t51 11z" />
    <glyph glyph-name="lcommaaccent" unicode="&#x13c;" horiz-adv-x="600" 
d="M451 1434l-164 -1164q-10 -70 15.5 -99.5t96.5 -29.5h101l6 -135q-27 -11 -83.5 -17.5t-96.5 -6.5q-117 0 -175.5 68t-41.5 190l167 1194h175zM256 -125h49q32 0 43.5 -13t5.5 -44l-14 -115q-17 -122 -104 -268l-78 24q47 146 59 211q-26 -1 -38 12t-9 37l14 103
q8 31 22 42t50 11z" />
    <glyph glyph-name="Lcaron" unicode="&#x13d;" horiz-adv-x="1042" 
d="M709 1413h49q32 0 43.5 -13t5.5 -44l-16 -113q-17 -122 -105 -270l-78 26q49 141 62 211q-25 -3 -38 10.5t-11 36.5l16 105q6 31 20.5 41t51.5 10zM467 1413l-158 -1128q-19 -133 113 -133h512l-4 -142q-178 -12 -547 -12q-134 0 -203.5 76t-48.5 217l154 1122h182z" />
    <glyph glyph-name="lcaron" unicode="&#x13e;" horiz-adv-x="600" 
d="M451 1434l-164 -1164q-10 -70 15.5 -99.5t96.5 -29.5h101l6 -135q-27 -11 -83.5 -17.5t-96.5 -6.5q-117 0 -175.5 68t-41.5 190l167 1194h175zM643 1434h49q32 0 43.5 -13.5t5.5 -44.5l-14 -114q-17 -124 -104 -269l-78 25q47 146 59 211q-26 -1 -38 12t-9 37l14 102
q8 32 22 43t50 11z" />
    <glyph glyph-name="Ldot" unicode="&#x13f;" horiz-adv-x="1042" 
d="M467 1413l-158 -1128q-19 -133 113 -133h512l-4 -142q-178 -12 -547 -12q-134 0 -203.5 76t-48.5 217l154 1122h182zM813 692h-57q-26 0 -39.5 16t-9.5 42l16 114q6 51 55 51h56q26 0 39 -15.5t10 -41.5l-15 -115q-5 -27 -17 -39t-38 -12z" />
    <glyph glyph-name="ldot" unicode="&#x140;" horiz-adv-x="684" 
d="M451 1434l-164 -1164q-10 -70 15.5 -99.5t96.5 -29.5h101l6 -135q-27 -11 -83.5 -17.5t-96.5 -6.5q-117 0 -175.5 68t-41.5 190l167 1194h175zM643 653h-57q-26 0 -40 15t-11 41l16 116q5 27 17 38t38 11h58q25 0 38.5 -15t10.5 -40l-17 -117q-3 -26 -15 -37.5t-38 -11.5
z" />
    <glyph glyph-name="Lslash" unicode="&#x141;" horiz-adv-x="1040" 
d="M934 152l-6 -142q-178 -12 -547 -12q-134 0 -203 76t-49 217l53 389l-137 -55l10 110l144 58l84 620h182l-76 -547l260 103l-12 -109l-264 -104l-66 -471q-16 -133 113 -133h514z" />
    <glyph glyph-name="lslash" unicode="&#x142;" horiz-adv-x="612" 
d="M354 754l-67 -484q-10 -70 15.5 -99.5t96.5 -29.5h101l6 -135q-27 -11 -83.5 -17.5t-96.5 -6.5q-117 0 -175.5 68t-41.5 190l61 440l-137 -55l14 110l139 56l90 643h175l-80 -572l270 107l-14 -109z" />
    <glyph glyph-name="Nacute" unicode="&#x143;" horiz-adv-x="1439" 
d="M1212 1739l-421 -248l-56 82l393 299zM1378 1413l-190 -1345q-5 -36 -21.5 -52t-50.5 -16h-164q-29 0 -45.5 15t-27.5 46l-355 1002q-41 117 -55 182h-35q-3 -85 -16 -186l-146 -1059h-180l189 1346q6 35 23.5 51t51.5 16h160q29 0 46 -15t28 -46l344 -975
q49 -145 65 -205h39q6 100 21 207l141 1034h178z" />
    <glyph glyph-name="nacute" unicode="&#x144;" horiz-adv-x="1183" 
d="M600 1122l-55 82l393 299l84 -133zM352 997l-14 -219q139 123 255 183.5t226 60.5q127 0 190.5 -71.5t45.5 -205.5l-107 -745h-174l100 702q12 97 -12.5 134.5t-95.5 37.5q-90 0 -185 -53t-245 -172l-90 -649h-174l141 997h139z" />
    <glyph glyph-name="Ncommaaccent" unicode="&#x145;" horiz-adv-x="1439" 
d="M1378 1413l-190 -1345q-5 -36 -21.5 -52t-50.5 -16h-164q-29 0 -45.5 15t-27.5 46l-355 1002q-41 117 -55 182h-35q-3 -85 -16 -186l-146 -1059h-180l189 1346q6 35 23.5 51t51.5 16h160q29 0 46 -15t28 -46l344 -975q49 -145 65 -205h39q6 100 21 207l141 1034h178z
M637 -119h49q32 0 43.5 -14t5.5 -45l-14 -113q-16 -117 -105 -270l-77 26q47 146 59 211q-25 -3 -37.5 11t-9.5 37l14 104q8 31 22 42t50 11z" />
    <glyph glyph-name="ncommaaccent" unicode="&#x146;" horiz-adv-x="1183" 
d="M352 997l-14 -219q139 123 255 183.5t226 60.5q127 0 190.5 -71.5t45.5 -205.5l-107 -745h-174l100 702q12 97 -12.5 134.5t-95.5 37.5q-90 0 -185 -53t-245 -172l-90 -649h-174l141 997h139zM494 -119h49q32 0 43.5 -14t5.5 -45l-17 -113q-16 -120 -104 -270l-78 26
q48 139 62 211q-25 -3 -38 11t-11 37l16 104q6 31 21 42t51 11z" />
    <glyph glyph-name="Ncaron" unicode="&#x147;" horiz-adv-x="1439" 
d="M1239 1784l-307 -260h-125l-240 270l70 66l231 -205h17l301 205zM1378 1413l-190 -1345q-5 -36 -21.5 -52t-50.5 -16h-164q-29 0 -45.5 15t-27.5 46l-355 1002q-41 117 -55 182h-35q-3 -85 -16 -186l-146 -1059h-180l189 1346q6 35 23.5 51t51.5 16h160q29 0 46 -15
t28 -46l344 -975q49 -145 65 -205h39q6 100 21 207l141 1034h178z" />
    <glyph glyph-name="ncaron" unicode="&#x148;" horiz-adv-x="1183" 
d="M616 1155l-239 270l69 66l232 -205h16l301 205l54 -76l-308 -260h-125zM352 997l-14 -219q139 123 255 183.5t226 60.5q127 0 190.5 -71.5t45.5 -205.5l-107 -745h-174l100 702q12 97 -12.5 134.5t-95.5 37.5q-90 0 -185 -53t-245 -172l-90 -649h-174l141 997h139z" />
    <glyph glyph-name="Eng" unicode="&#x14a;" horiz-adv-x="1439" 
d="M1378 1413l-223 -1579q-19 -135 -98.5 -206.5t-204.5 -69.5q-104 0 -184 26l30 113h99q84 0 133 40t59 118l21 145h-56q-13 -1 -23 8t-15 18.5t-13 28.5l-381 977q-34 84 -53 187h-33q-3 -81 -20 -191l-144 -1028h-180l189 1346q6 35 23.5 51t51.5 16h140
q29 0 45.5 -14.5t29.5 -46.5l361 -946q22 -52 72 -205h32q3 57 21 213l141 999h180z" />
    <glyph glyph-name="eng" unicode="&#x14b;" horiz-adv-x="1183" 
d="M346 997l-10 -221q135 123 251.5 184.5t225.5 61.5q135 0 198 -72t44 -205l-121 -860q-44 -305 -291 -305q-85 0 -174 27l31 110h82q77 0 120.5 37.5t55.5 124.5l116 823q11 88 -14 124t-100 36q-86 0 -181.5 -52.5t-240.5 -160.5l-92 -649h-174l141 997h133z" />
    <glyph glyph-name="Omacron" unicode="&#x14c;" horiz-adv-x="1363" 
d="M1110 1610h-571l18 129h571zM793 1440q119 0 205 -24.5t147.5 -79t91 -140.5t36 -209.5t-19.5 -286.5q-37 -277 -112.5 -434t-201.5 -225t-331 -68q-200 0 -313 69.5t-153.5 233t-2.5 437.5q28 204 74.5 339t124.5 223.5t187.5 126.5t267.5 38zM782 1278q-88 0 -152 -18
t-114 -57.5t-85 -108.5t-59.5 -163.5t-43.5 -230.5q-33 -211 -14.5 -336.5t87.5 -177t211 -51.5q143 0 230 54t140 177.5t85 346.5q19 135 21 228.5t-13.5 160t-54 104.5t-95.5 55t-143 17z" />
    <glyph glyph-name="omacron" unicode="&#x14d;" horiz-adv-x="1155" 
d="M950 1241h-571l18 129h572zM629 1022q254 0 349 -122.5t54 -410.5q-40 -283 -159.5 -399.5t-370.5 -116.5q-252 0 -349.5 123t-58.5 408q40 284 160.5 401t374.5 117zM629 874q-114 0 -181 -33t-108.5 -116t-63.5 -236q-13 -107 -12 -178t29.5 -113t77.5 -59.5t131 -17.5
q168 0 244.5 82.5t107.5 300.5q31 216 -16.5 293t-208.5 77z" />
    <glyph glyph-name="Ohungarumlaut" unicode="&#x150;" horiz-adv-x="1363" 
d="M938 1804l-320 -325l-71 59l282 344zM1274 1804l-320 -325l-71 59l282 344zM793 1440q119 0 205 -24.5t147.5 -79t91 -140.5t36 -209.5t-19.5 -286.5q-37 -277 -112.5 -434t-201.5 -225t-331 -68q-200 0 -313 69.5t-153.5 233t-2.5 437.5q28 204 74.5 339t124.5 223.5
t187.5 126.5t267.5 38zM782 1278q-88 0 -152 -18t-114 -57.5t-85 -108.5t-59.5 -163.5t-43.5 -230.5q-33 -211 -14.5 -336.5t87.5 -177t211 -51.5q143 0 230 54t140 177.5t85 346.5q19 135 21 228.5t-13.5 160t-54 104.5t-95.5 55t-143 17z" />
    <glyph glyph-name="ohungarumlaut" unicode="&#x151;" horiz-adv-x="1155" 
d="M778 1438l-319 -326l-74 57l285 344zM1114 1438l-319 -326l-72 57l283 344zM629 1022q254 0 349 -122.5t54 -410.5q-40 -283 -159.5 -399.5t-370.5 -116.5q-252 0 -349.5 123t-58.5 408q40 284 160.5 401t374.5 117zM629 874q-114 0 -181 -33t-108.5 -116t-63.5 -236
q-13 -107 -12 -178t29.5 -113t77.5 -59.5t131 -17.5q168 0 244.5 82.5t107.5 300.5q31 216 -16.5 293t-208.5 77z" />
    <glyph glyph-name="OE" unicode="&#x152;" horiz-adv-x="1882" 
d="M1866 1262h-551q-67 0 -103 -33.5t-45 -106.5l-43 -307h598l-18 -141h-598l-53 -389q-9 -71 17 -102t95 -31h545l-6 -142q-176 -12 -561 -12q-123 0 -191 47q-90 -40 -163.5 -56t-178.5 -16q-108 0 -188 16t-140 52.5t-96 92.5t-53 139.5t-14.5 191t22.5 248.5
q29 210 75.5 346.5t125 223t186.5 122t267 35.5q103 0 176 -14.5t153 -49.5q65 39 168 39q414 0 596 -12zM870 281l123 893q3 20 21 77q-106 27 -221 27q-147 0 -236.5 -53.5t-143.5 -177.5t-85 -347q-21 -160 -21 -268.5t35 -174.5t99.5 -94t172.5 -28q140 0 256 35
q-9 50 0 111z" />
    <glyph glyph-name="oe" unicode="&#x153;" horiz-adv-x="1853" 
d="M1649 147l12 -116q-69 -28 -184 -42t-217 -14q-265 0 -359 146q-64 -77 -161 -112.5t-238 -35.5q-253 0 -350 122.5t-58 408.5q38 283 159 400.5t376 117.5q267 0 356 -133q63 73 162 103t254 30q228 0 312.5 -79t58.5 -241q-24 -142 -111 -203t-270 -75l-367 -35
q-3 -80 12 -133t51 -82t83.5 -40t119.5 -11q177 0 359 24zM502 121q167 0 244 82.5t106 300.5q32 216 -15 293t-208 77q-114 0 -181 -33t-108.5 -116t-63.5 -236q-13 -107 -12 -178t29 -113t77 -59.5t132 -17.5zM1036 520l355 35q101 8 147 42t59 120q4 26 4 46t-2.5 36
t-11.5 27.5t-17.5 19.5t-26 13.5t-31.5 8t-39.5 4t-44.5 2t-52 0.5q-86 0 -139 -13.5t-94.5 -52.5t-65.5 -107t-41 -181z" />
    <glyph glyph-name="Racute" unicode="&#x154;" horiz-adv-x="1265" 
d="M672 1491l-54 82l392 299l84 -133zM92 0l199 1413q185 19 479 19q115 0 194.5 -20t135.5 -67t76 -128.5t4 -200.5q-24 -165 -98 -252t-218 -105l-2 -10q117 -34 150 -207l90 -442h-184l-84 446q-15 78 -53 111t-107 33l-322 2l-84 -592h-176zM375 745h301q158 2 228 60.5
t93 216.5q22 147 -28 200.5t-203 53.5q-235 0 -317 -2z" />
    <glyph glyph-name="racute" unicode="&#x155;" horiz-adv-x="815" 
d="M475 1122l-53 82l391 299l84 -133zM346 997l-14 -231q259 256 459 256h51l-43 -164h-51q-82 0 -172 -49.5t-240 -163.5l-90 -645h-174l141 997h133z" />
    <glyph glyph-name="Rcommaaccent" unicode="&#x156;" horiz-adv-x="1265" 
d="M92 0l199 1413q185 19 479 19q115 0 194.5 -20t135.5 -67t76 -128.5t4 -200.5q-24 -165 -98 -252t-218 -105l-2 -10q117 -34 150 -207l90 -442h-184l-84 446q-15 78 -53 111t-107 33l-322 2l-84 -592h-176zM375 745h301q158 2 228 60.5t93 216.5q22 147 -28 200.5
t-203 53.5q-235 0 -317 -2zM598 -119h47q32 0 44 -14t7 -45l-16 -113q-16 -117 -105 -270l-77 26q47 146 59 211q-25 -3 -37.5 11t-9.5 37l16 104q6 31 20 42t52 11z" />
    <glyph glyph-name="rcommaaccent" unicode="&#x157;" horiz-adv-x="815" 
d="M842 1022l-43 -164h-51q-82 0 -172 -49.5t-240 -163.5l-90 -645h-174l141 997h133l-14 -231q259 256 459 256h51zM115 -119h49q32 0 43.5 -14t5.5 -45l-16 -113q-12 -108 -103 -270l-80 26q48 139 62 211q-25 -3 -38 11t-11 37l16 104q6 31 21 42t51 11z" />
    <glyph glyph-name="Rcaron" unicode="&#x158;" horiz-adv-x="1265" 
d="M688 1524l-239 270l69 66l234 -205h16l299 205l55 -76l-307 -260h-127zM92 0l199 1413q185 19 479 19q115 0 194.5 -20t135.5 -67t76 -128.5t4 -200.5q-24 -165 -98 -252t-218 -105l-2 -10q117 -34 150 -207l90 -442h-184l-84 446q-15 78 -53 111t-107 33l-322 2
l-84 -592h-176zM375 745h301q158 2 228 60.5t93 216.5q22 147 -28 200.5t-203 53.5q-235 0 -317 -2z" />
    <glyph glyph-name="rcaron" unicode="&#x159;" horiz-adv-x="815" 
d="M492 1155l-240 270l70 66l231 -205h16l301 205l54 -76l-306 -260h-126zM346 997l-14 -231q259 256 459 256h51l-43 -164h-51q-82 0 -172 -49.5t-240 -163.5l-90 -645h-174l141 997h133z" />
    <glyph glyph-name="Sacute" unicode="&#x15a;" horiz-adv-x="1146" 
d="M1042 1739l-421 -248l-56 82l393 299zM688 586l-280 104q-146 54 -198.5 147t-31.5 246q13 93 42.5 158.5t69.5 103.5t103.5 59t127 27.5t157.5 6.5q256 -4 418 -41l-19 -131q-232 10 -403 10h-74.5t-64.5 -3.5t-54.5 -11.5t-44.5 -23t-35 -37.5t-26 -56.5t-17 -79
q-13 -103 15.5 -145t126.5 -78l276 -103q156 -57 206 -146.5t28 -250.5q-13 -93 -40 -157t-67 -105.5t-103.5 -64.5t-137 -31.5t-179.5 -8.5q-221 0 -430 39l23 133q344 -11 409 -10q76 0 123.5 4.5t89.5 17t66 38t40.5 64.5t24.5 99q13 106 -15 148t-126 78z" />
    <glyph glyph-name="sacute" unicode="&#x15b;" horiz-adv-x="1036" 
d="M952 1370l-424 -248l-53 82l393 299zM592 379l-279 123q-111 50 -157 113.5t-33 170.5q18 140 116 189.5t302 46.5q220 -3 420 -31l-23 -125q-307 10 -393 11q-143 0 -193.5 -17t-58.5 -86q-8 -56 19 -83.5t102 -61.5l278 -123q82 -36 125.5 -70t63.5 -85.5t10 -127.5
q-9 -66 -35 -111.5t-62 -71.5t-96.5 -40.5t-120.5 -18.5t-153 -4q-69 0 -123 2.5t-82 5.5t-84 10t-92 11l20 127q122 -10 320 -10q191 2 258.5 24.5t79.5 92.5q5 37 -7.5 60.5t-33 36t-65.5 32.5q-15 6 -23 10z" />
    <glyph glyph-name="Scedilla" unicode="&#x15e;" horiz-adv-x="1146" 
d="M688 586l-280 104q-146 54 -198.5 147t-31.5 246q13 93 42.5 158.5t69.5 103.5t103.5 59t127 27.5t157.5 6.5q256 -4 418 -41l-19 -131q-232 10 -403 10h-74.5t-64.5 -3.5t-54.5 -11.5t-44.5 -23t-35 -37.5t-26 -56.5t-17 -79q-13 -103 15.5 -145t126.5 -78l276 -103
q156 -57 206 -146.5t28 -250.5q-13 -93 -40 -157t-67 -105.5t-103.5 -64.5t-137 -31.5t-179.5 -8.5q-221 0 -430 39l23 133q344 -11 409 -10q76 0 123.5 4.5t89.5 17t66 38t40.5 64.5t24.5 99q13 106 -15 148t-126 78zM377 -195l20 82q127 11 178 -18t37 -121
q-22 -127 -125 -194t-249 -48l32 93q82 -3 142.5 39.5t72.5 109.5q6 34 -14.5 45.5t-93.5 11.5z" />
    <glyph glyph-name="scedilla" unicode="&#x15f;" horiz-adv-x="1036" 
d="M592 379l-279 123q-111 50 -157 113.5t-33 170.5q18 140 116 189.5t302 46.5q220 -3 420 -31l-23 -125q-307 10 -393 11q-143 0 -193.5 -17t-58.5 -86q-8 -56 19 -83.5t102 -61.5l278 -123q82 -36 125.5 -70t63.5 -85.5t10 -127.5q-9 -66 -35 -111.5t-62 -71.5
t-96.5 -40.5t-120.5 -18.5t-153 -4q-69 0 -123 2.5t-82 5.5t-84 10t-92 11l20 127q122 -10 320 -10q191 2 258.5 24.5t79.5 92.5q5 37 -7.5 60.5t-33 36t-65.5 32.5q-15 6 -23 10zM307 -193l21 82q127 11 178.5 -18.5t34.5 -122.5q-20 -126 -124 -193t-249 -47l33 93
q82 -3 142.5 39.5t72.5 109.5q6 34 -15 45t-94 12z" />
    <glyph glyph-name="Scaron" unicode="&#x160;" horiz-adv-x="1146" 
d="M1069 1784l-307 -260h-125l-240 270l70 66l231 -205h17l301 205zM688 586l-280 104q-146 54 -198.5 147t-31.5 246q13 93 42.5 158.5t69.5 103.5t103.5 59t127 27.5t157.5 6.5q256 -4 418 -41l-19 -131q-232 10 -403 10h-74.5t-64.5 -3.5t-54.5 -11.5t-44.5 -23
t-35 -37.5t-26 -56.5t-17 -79q-13 -103 15.5 -145t126.5 -78l276 -103q156 -57 206 -146.5t28 -250.5q-13 -93 -40 -157t-67 -105.5t-103.5 -64.5t-137 -31.5t-179.5 -8.5q-221 0 -430 39l23 133q344 -11 409 -10q76 0 123.5 4.5t89.5 17t66 38t40.5 64.5t24.5 99
q13 106 -15 148t-126 78z" />
    <glyph glyph-name="scaron" unicode="&#x161;" horiz-adv-x="1036" 
d="M979 1415l-307 -260h-127l-240 270l72 66l231 -205h17l299 205zM592 379l-279 123q-111 50 -157 113.5t-33 170.5q18 140 116 189.5t302 46.5q220 -3 420 -31l-23 -125q-307 10 -393 11q-143 0 -193.5 -17t-58.5 -86q-8 -56 19 -83.5t102 -61.5l278 -123
q82 -36 125.5 -70t63.5 -85.5t10 -127.5q-9 -66 -35 -111.5t-62 -71.5t-96.5 -40.5t-120.5 -18.5t-153 -4q-69 0 -123 2.5t-82 5.5t-84 10t-92 11l20 127q122 -10 320 -10q191 2 258.5 24.5t79.5 92.5q5 37 -7.5 60.5t-33 36t-65.5 32.5q-15 6 -23 10z" />
    <glyph glyph-name="Tcedilla" unicode="&#x162;" 
d="M1225 1253h-457l-176 -1253h-180l176 1253h-455l23 160h1089zM369 -170l22 82q127 11 178.5 -18.5t34.5 -122.5q-22 -126 -125.5 -193t-247.5 -47l33 92q82 -3 142.5 40t72.5 110q5 34 -15.5 45t-94.5 12z" />
    <glyph glyph-name="tcedilla" unicode="&#x163;" horiz-adv-x="772" 
d="M440 860l-82 -590q-10 -72 14.5 -100.5t96.5 -28.5h156l6 -133q-95 -26 -223 -26t-186.5 71t-39.5 201l86 606h-182l16 127l187 8l41 297h172l-41 -295h317l-20 -137h-318zM225 -188l21 82q126 11 178 -19t35 -123q-20 -126 -123.5 -192.5t-249.5 -46.5l33 92
q82 -3 142.5 39.5t72.5 109.5q6 34 -15 45.5t-94 12.5z" />
    <glyph glyph-name="Tcaron" unicode="&#x164;" 
d="M657 1524l-239 270l71 66l232 -205h16l299 205l56 -76l-308 -260h-127zM1225 1253h-457l-176 -1253h-180l176 1253h-455l23 160h1089z" />
    <glyph glyph-name="tcaron" unicode="&#x165;" horiz-adv-x="772" 
d="M700 1579h48q32 0 44 -13t7 -44l-17 -115q-17 -122 -104 -268l-78 24q42 120 59 211q-25 -1 -37.5 12.5t-9.5 36.5l17 103q6 31 20.5 42t50.5 11zM461 997h317l-20 -137h-318l-82 -590q-10 -72 14.5 -100.5t96.5 -28.5h156l6 -133q-95 -26 -223 -26t-186.5 71t-39.5 201
l86 606h-182l16 127l187 8l41 297h172z" />
    <glyph glyph-name="Tbar" unicode="&#x166;" 
d="M768 1253l-57 -399h303l-15 -100h-303l-104 -754h-180l106 754h-274l14 100h274l56 399h-455l23 160h1089l-20 -160h-457z" />
    <glyph glyph-name="tbar" unicode="&#x167;" horiz-adv-x="772" 
d="M440 860l-24 -184h272l-14 -101h-273l-43 -305q-10 -72 14.5 -100.5t96.5 -28.5h156l6 -133q-95 -26 -223 -26t-186.5 71t-39.5 201l45 321h-133l15 101h133l26 184h-182l16 127l187 8l41 297h172l-41 -295h317l-20 -137h-318z" />
    <glyph glyph-name="Umacron" unicode="&#x16a;" horiz-adv-x="1359" 
d="M1108 1610h-571l18 129h571zM1309 1413l-123 -874q-44 -308 -176 -437t-400 -129q-276 0 -385 134t-65 440l119 866h182l-123 -874q-32 -228 26.5 -316t241.5 -88q188 0 278 92t124 320l118 866h183z" />
    <glyph glyph-name="umacron" unicode="&#x16b;" horiz-adv-x="1161" 
d="M958 1249h-571l19 129h571zM1061 997l-139 -997h-136l15 217q-127 -124 -238 -184t-223 -60q-135 0 -196.5 74t-41.5 205l105 745h174l-100 -702q-13 -92 14 -131t104 -39q88 0 175 53t225 178l88 641h174z" />
    <glyph glyph-name="Uring" unicode="&#x16e;" horiz-adv-x="1359" 
d="M846 1892q98 0 157.5 -62.5t47.5 -158.5q-9 -88 -71.5 -147.5t-158.5 -59.5q-99 0 -157.5 63t-47.5 159q9 87 71.5 146.5t158.5 59.5zM846 1804q-55 0 -91 -36t-42 -91q-6 -58 25.5 -91.5t84.5 -33.5q55 0 90.5 36.5t40.5 92.5q6 53 -23.5 88t-84.5 35zM1309 1413
l-123 -874q-44 -308 -176 -437t-400 -129q-276 0 -385 134t-65 440l119 866h182l-123 -874q-32 -228 26.5 -316t241.5 -88q188 0 278 92t124 320l118 866h183z" />
    <glyph glyph-name="uring" unicode="&#x16f;" horiz-adv-x="1161" 
d="M672 1102q-100 0 -158 63t-47 158q9 89 70.5 149t156.5 60q99 0 159 -63t48 -160q-9 -87 -71 -147t-158 -60zM563 1317q-6 -58 26 -91.5t85 -33.5q55 0 90.5 36.5t40.5 92.5q6 53 -24 87t-85 34t-91 -35.5t-42 -89.5zM1061 997l-139 -997h-136l15 217
q-127 -124 -238 -184t-223 -60q-135 0 -196.5 74t-41.5 205l105 745h174l-100 -702q-13 -92 14 -131t104 -39q88 0 175 53t225 178l88 641h174z" />
    <glyph glyph-name="Uhungarumlaut" unicode="&#x170;" horiz-adv-x="1359" 
d="M936 1804l-320 -325l-71 59l282 344zM1272 1804l-320 -325l-71 59l282 344zM1309 1413l-123 -874q-44 -308 -176 -437t-400 -129q-276 0 -385 134t-65 440l119 866h182l-123 -874q-32 -228 26.5 -316t241.5 -88q188 0 278 92t124 320l118 866h183z" />
    <glyph glyph-name="uhungarumlaut" unicode="&#x171;" horiz-adv-x="1161" 
d="M467 1118l-74 60l285 344l108 -78zM731 1178l283 344l108 -78l-319 -326zM887 997h174l-139 -997h-136l15 217q-127 -124 -238 -184t-223 -60q-135 0 -196.5 74t-41.5 205l105 745h174l-100 -702q-13 -92 14 -131t104 -39q88 0 175 53t225 178z" />
    <glyph glyph-name="Uogonek" unicode="&#x172;" horiz-adv-x="1359" 
d="M1309 1413l-123 -874q-41 -290 -160 -421t-354 -143q-109 -112 -176 -233q-41 -72 -2 -93.5t141 11.5l20 -76q-66 -26 -120.5 -35t-91 -2t-61 25t-33 45.5t-3.5 61t23 69.5q57 113 209 227q-257 6 -358.5 141t-59.5 431l119 866h182l-123 -874q-32 -228 26.5 -316
t241.5 -88q188 0 278 92t124 320l118 866h183z" />
    <glyph glyph-name="uogonek" unicode="&#x173;" horiz-adv-x="1161" 
d="M1061 997l-139 -997q-114 -117 -183 -240q-41 -72 -0.5 -93.5t140.5 11.5l20 -75q-65 -26 -119.5 -35t-91.5 -2t-61.5 25t-33 45.5t-4 61t22.5 69.5q62 118 219 233h-45l15 217q-127 -124 -238 -184t-223 -60q-135 0 -196.5 74t-41.5 205l105 745h174l-100 -702
q-13 -92 14 -131t104 -39q88 0 175 53t225 178l88 641h174z" />
    <glyph glyph-name="Wcircumflex" unicode="&#x174;" horiz-adv-x="1931" 
d="M1448 1563l-66 -70l-245 207h-17l-303 -203l-51 76l303 260h125zM1985 1413l-482 -1364q-15 -49 -73 -49h-201q-27 0 -46 16.5t-20 42.5l-73 1063q-1 15 -6.5 70t-6.5 86h-43l-55 -164l-367 -1063q-15 -51 -73 -51h-199q-28 0 -47.5 16t-20.5 41l-102 1356h184l66 -1104
q1 -10 6 -176h49l60 182l362 1041q15 57 74 57h194q26 0 43 -18t19 -45l84 -1043q8 -114 8 -174h51l55 178l371 1102h189z" />
    <glyph glyph-name="wcircumflex" unicode="&#x175;" horiz-adv-x="1740" 
d="M1296 1196l-65 -70l-244 207h-16l-305 -203l-50 76l304 260h122zM414 137h26q28 0 50.5 15.5t46.5 56.5q59 103 112 280q59 176 107 465q3 20 16.5 31.5t32.5 11.5h190q18 0 30.5 -11.5t14.5 -29.5l101 -819h24q44 0 84 64q34 54 51 83t43.5 83.5t51.5 121.5
q83 213 133 508h182q-76 -338 -182 -579q-96 -219 -176 -320q-40 -52 -79 -75t-97 -23h-115q-23 0 -37.5 13t-17.5 34l-95 836h-26q-21 -205 -94 -437q-61 -195 -138 -317q-74 -129 -219 -129h-102q-21 0 -36 13t-20 34l-184 950h180z" />
    <glyph glyph-name="Ycircumflex" unicode="&#x176;" horiz-adv-x="1157" 
d="M426 1499l-51 76l303 260h125l254 -270l-66 -70l-243 207h-19zM649 494l-69 -494h-183l72 502l-338 911h184l213 -600q31 -96 41 -160h17q29 83 84 166l381 594h196z" />
    <glyph glyph-name="ycircumflex" unicode="&#x177;" horiz-adv-x="1103" 
d="M319 1130l-49 76l303 260h125l252 -270l-63 -70l-246 207h-16zM891 997h180q-54 -238 -124 -437t-179 -394q-107 -200 -212.5 -323t-210.5 -181.5t-241 -83.5l-32 125q125 30 224.5 97t192.5 200h-90q-44 0 -75.5 25t-40.5 67l-193 905h182l158 -821q9 -39 47 -39h98
q6 12 20 38.5t21 41.5q101 197 165.5 375.5t109.5 404.5z" />
    <glyph glyph-name="Ydieresis" unicode="&#x178;" horiz-adv-x="1157" 
d="M565 1571h-57q-51 0 -45 47l18 113q6 51 58 51h53q28 0 38 -12t7 -39l-19 -111q-3 -26 -15.5 -37.5t-37.5 -11.5zM911 1571h-57q-51 0 -45 47l18 113q6 51 58 51h53q28 0 38 -12t7 -39l-18 -111q-6 -49 -54 -49zM649 494l-69 -494h-183l72 502l-338 911h184l213 -600
q31 -96 41 -160h17q29 83 84 166l381 594h196z" />
    <glyph glyph-name="Zacute" unicode="&#x179;" horiz-adv-x="1150" 
d="M637 1491l-55 82l393 299l84 -133zM231 154h766l-22 -154h-963l21 154l905 1106h-739l22 153h940l-22 -153z" />
    <glyph glyph-name="zacute" unicode="&#x17a;" horiz-adv-x="1032" 
d="M508 1122l-55 82l393 299l84 -133zM967 854l-734 -713h639l-20 -141h-840l19 141l733 713h-623l19 143h825z" />
    <glyph glyph-name="Zdotaccent" unicode="&#x17b;" horiz-adv-x="1150" 
d="M750 1554h-56q-26 0 -40 15.5t-11 40.5l16 116q6 50 56 50h55q26 0 40 -15t11 -41l-16 -116q-5 -27 -17 -38.5t-38 -11.5zM231 154h766l-22 -154h-963l21 154l905 1106h-739l22 153h940l-22 -153z" />
    <glyph glyph-name="zdotaccent" unicode="&#x17c;" horiz-adv-x="1032" 
d="M621 1186h-58q-25 0 -38.5 15t-10.5 40l16 117q3 26 15.5 37.5t38.5 11.5h57q27 0 40.5 -14.5t10.5 -40.5l-16 -115q-5 -27 -17 -39t-38 -12zM967 854l-734 -713h639l-20 -141h-840l19 141l733 713h-623l19 143h825z" />
    <glyph glyph-name="Zcaron" unicode="&#x17d;" horiz-adv-x="1150" 
d="M653 1524l-239 270l69 66l232 -205h16l301 205l53 -76l-305 -260h-127zM231 154h766l-22 -154h-963l21 154l905 1106h-739l22 153h940l-22 -153z" />
    <glyph glyph-name="zcaron" unicode="&#x17e;" horiz-adv-x="1032" 
d="M524 1155l-239 270l69 66l232 -205h16l301 205l53 -76l-305 -260h-127zM967 854l-734 -713h639l-20 -141h-840l19 141l733 713h-623l19 143h825z" />
    <glyph glyph-name="florin" unicode="&#x192;" horiz-adv-x="897" 
d="M946 1290h-141q-95 0 -142.5 -36.5t-70.5 -133.5l-72 -305h291l-31 -137h-291l-161 -688q-34 -144 -112.5 -216.5t-223.5 -72.5q-134 0 -211 14l33 131h135q91 0 138.5 39t70.5 131l153 662h-198l24 121l207 16l78 332q67 287 346 287q124 0 213 -13z" />
    <glyph glyph-name="Scommaaccent" unicode="&#x218;" horiz-adv-x="1146" 
d="M688 586l-280 104q-146 54 -198.5 147t-31.5 246q13 93 42.5 158.5t69.5 103.5t103.5 59t127 27.5t157.5 6.5q256 -4 418 -41l-19 -131q-232 10 -403 10h-74.5t-64.5 -3.5t-54.5 -11.5t-44.5 -23t-35 -37.5t-26 -56.5t-17 -79q-13 -103 15.5 -145t126.5 -78l276 -103
q156 -57 206 -146.5t28 -250.5q-13 -93 -40 -157t-67 -105.5t-103.5 -64.5t-137 -31.5t-179.5 -8.5q-221 0 -430 39l23 133q344 -11 409 -10q76 0 123.5 4.5t89.5 17t66 38t40.5 64.5t24.5 99q13 106 -15 148t-126 78zM508 -119h49q32 0 43.5 -14t5.5 -45l-16 -113
q-16 -117 -105 -270l-77 26q46 133 61 211q-25 -3 -38 11t-11 37l16 104q6 31 21 42t51 11z" />
    <glyph glyph-name="scommaaccent" unicode="&#x219;" horiz-adv-x="1036" 
d="M592 379l-279 123q-111 50 -157 113.5t-33 170.5q18 140 116 189.5t302 46.5q220 -3 420 -31l-23 -125q-307 10 -393 11q-143 0 -193.5 -17t-58.5 -86q-8 -56 19 -83.5t102 -61.5l278 -123q82 -36 125.5 -70t63.5 -85.5t10 -127.5q-9 -66 -35 -111.5t-62 -71.5
t-96.5 -40.5t-120.5 -18.5t-153 -4q-69 0 -123 2.5t-82 5.5t-84 10t-92 11l20 127q122 -10 320 -10q191 2 258.5 24.5t79.5 92.5q5 37 -7.5 60.5t-33 36t-65.5 32.5q-15 6 -23 10zM414 -119h47q32 0 44 -14t7 -45l-16 -113q-16 -117 -105 -270l-78 26q4 12 16 49.5t17 54
t13 47t14 60.5q-25 -3 -37.5 11t-9.5 37l16 104q6 31 20 42t52 11z" />
    <glyph glyph-name="uni021A" unicode="&#x21a;" 
d="M1225 1253h-457l-176 -1253h-180l176 1253h-455l23 160h1089zM467 -119h49q32 0 43.5 -14t5.5 -45l-16 -113q-12 -108 -103 -270l-79 26q46 133 61 211q-25 -3 -38 11t-11 37l16 104q6 31 21 42t51 11z" />
    <glyph glyph-name="uni021B" unicode="&#x21b;" horiz-adv-x="772" 
d="M440 860l-82 -590q-10 -72 14.5 -100.5t96.5 -28.5h156l6 -133q-95 -26 -223 -26t-186.5 71t-39.5 201l86 606h-182l16 127l187 8l41 297h172l-41 -295h317l-20 -137h-318zM352 -119h47q32 0 44.5 -14t7.5 -45l-17 -113q-16 -120 -104 -270l-78 26q47 146 59 211
q-25 -3 -37.5 11t-9.5 37l17 104q6 32 20 42.5t51 10.5z" />
    <glyph glyph-name="circumflex" unicode="&#x2c6;" horiz-adv-x="860" 
d="M879 1188l-66 -68l-244 207h-16l-305 -205l-51 78l305 260h123z" />
    <glyph glyph-name="caron" unicode="&#x2c7;" horiz-adv-x="860" 
d="M895 1409l-307 -262h-127l-240 272l72 64l231 -203h17l299 203z" />
    <glyph glyph-name="breve" unicode="&#x2d8;" horiz-adv-x="768" 
d="M731 1430l88 -21q-9 -121 -99.5 -193.5t-234.5 -72.5q-151 0 -227 76t-51 196l90 8q-10 -73 40 -112t148 -39q105 0 171 43t75 115z" />
    <glyph glyph-name="dotaccent" unicode="&#x2d9;" horiz-adv-x="452" 
d="M319 1403h58q26 0 39.5 -14.5t9.5 -40.5l-16 -115q-6 -51 -56 -51h-55q-26 0 -39.5 15t-9.5 40l14 117q3 26 16 37.5t39 11.5z" />
    <glyph glyph-name="ring" unicode="&#x2da;" horiz-adv-x="614" 
d="M432 1520q99 0 159 -64t48 -160q-11 -87 -72.5 -146.5t-156.5 -59.5q-100 0 -159 63t-48 158q9 88 71.5 148.5t157.5 60.5zM434 1430q-57 0 -92.5 -35.5t-40.5 -89.5q-7 -58 25 -91.5t84 -33.5q54 0 90.5 36t42.5 93q5 53 -24.5 87t-84.5 34z" />
    <glyph glyph-name="ogonek" unicode="&#x2db;" horiz-adv-x="516" 
d="M219 6l82 -6q-106 -109 -180 -240q-41 -72 -2 -93.5t139 11.5l23 -75q-79 -31 -141.5 -37.5t-99.5 8t-56 43t-16.5 67.5t24.5 83q64 121 227 239z" />
    <glyph glyph-name="tilde" unicode="&#x2dc;" horiz-adv-x="858" 
d="M287 1194l-82 8q4 118 56 177t128 53q55 -4 103.5 -30t93.5 -52t90 -31q60 -7 88.5 19t36.5 87l82 -6q-3 -114 -54 -173.5t-129 -53.5q-48 3 -92 20.5t-71.5 37t-62 37.5t-64.5 22q-58 6 -86.5 -22.5t-36.5 -92.5z" />
    <glyph glyph-name="hungarumlaut" unicode="&#x2dd;" horiz-adv-x="929" 
d="M596 1415l-317 -325l-74 57l284 346zM934 1415l-320 -325l-71 57l282 346z" />
    <glyph glyph-name="Delta" unicode="&#x394;" horiz-adv-x="1284" 
d="M1161 76l-10 -76h-1178l9 76l688 1337h180zM967 147l-203 934q-18 92 -25 158q-31 -89 -67 -162l-465 -930h760z" />
    <glyph glyph-name="Omega" unicode="&#x3a9;" horiz-adv-x="1464" 
d="M43 158h209q68 0 135 -11q-131 122 -184.5 270t-22.5 355q45 338 203 503t459 165q297 0 418 -171t73 -515q-32 -223 -119 -359t-264 -250q58 13 131 13h217l-20 -158h-512l16 154q169 108 250.5 242t110.5 349q40 287 -29.5 411t-277.5 124q-215 0 -324.5 -128.5
t-149.5 -422.5q-13 -92 -13 -163.5t11.5 -129t38 -107.5t63 -91.5t91.5 -87.5l-21 -150h-512z" />
    <glyph glyph-name="mu" unicode="&#x3bc;" horiz-adv-x="1212" 
d="M1087 997l-141 -997h-133l4 150q-111 -81 -210.5 -129t-205.5 -48q-98 0 -170 52q4 -91 -6 -150l-39 -287h-153l96 695l100 714h174l-100 -702q-10 -83 23 -119.5t118 -36.5q81 0 162.5 30.5t206.5 100.5l100 727h174z" />
    <glyph glyph-name="pi" unicode="&#x3c0;" horiz-adv-x="1308" 
d="M1292 856h-192l-121 -856h-172l119 856h-471l-119 -856h-174l121 856h-193l19 141h1204z" />
    <glyph glyph-name="uni0401" unicode="&#x401;" horiz-adv-x="1142" 
d="M629 1614h-58q-26 0 -37 11t-8 36l19 113q3 26 16 37.5t41 11.5h51q30 0 40 -11t7 -38l-18 -111q-3 -26 -15.5 -37.5t-37.5 -11.5zM975 1614h-57q-51 0 -46 47l19 113q3 26 16 37.5t41 11.5h51q30 0 40.5 -11t7.5 -38l-19 -111q-3 -26 -15.5 -37.5t-37.5 -11.5z
M1126 1262h-563q-69 0 -102.5 -33t-42.5 -107l-43 -307h608l-18 -139h-609l-53 -391q-10 -70 17 -101.5t96 -31.5h553l-4 -142q-180 -12 -572 -12q-153 0 -223 75t-51 208l125 893q15 115 91.5 178t205.5 63q422 0 610 -12z" />
    <glyph glyph-name="uni0402" unicode="&#x402;" horiz-adv-x="1529" 
d="M768 1253l-68 -489q204 141 433 141q52 0 94.5 -8.5t81 -28t64 -52t43.5 -81t18.5 -114t-9.5 -152.5q-20 -138 -69.5 -234t-126.5 -149.5t-171.5 -75.5t-217.5 -18l-9 131q101 7 168.5 25t119.5 56.5t82 101.5t46 159q10 61 10 107.5t-9 77.5t-23.5 51t-38.5 30.5
t-48 14.5t-57 4q-106 0 -192.5 -31.5t-210.5 -110.5l-86 -608h-178l176 1253h-455l23 160h1089l-20 -160h-459z" />
    <glyph glyph-name="uni0403" unicode="&#x403;" horiz-adv-x="1054" 
d="M1077 1739l-422 -248l-53 82l391 299zM88 0l162 1153q18 129 95 195.5t190 66.5q407 0 589 -14l-24 -139h-512q-82 0 -117 -31.5t-47 -118.5l-156 -1112h-180z" />
    <glyph glyph-name="uni0404" unicode="&#x404;" horiz-adv-x="1171" 
d="M1188 1395l-29 -138q-164 19 -323 19q-95 0 -161.5 -12t-123 -41t-94.5 -82t-67 -132t-50 -194h602l-16 -139h-607q-14 -106 -16.5 -183t7.5 -137.5t31.5 -99.5t60.5 -65t89.5 -38t122.5 -16q184 -7 394 23l10 -140q-200 -54 -406 -45q-216 8 -328.5 82t-148 235.5
t3.5 420.5q28 211 78 349.5t134 222.5t196.5 118.5t275.5 34.5q214 0 365 -43z" />
    <glyph glyph-name="uni0405" unicode="&#x405;" horiz-adv-x="1146" 
d="M688 586l-280 104q-146 54 -198.5 147t-31.5 246q13 93 42.5 158.5t69.5 103.5t103.5 59t127 27.5t157.5 6.5q256 -4 418 -41l-19 -131q-232 10 -403 10h-74.5t-64.5 -3.5t-54.5 -11.5t-44.5 -23t-35 -37.5t-26 -56.5t-17 -79q-13 -103 15.5 -145t126.5 -78l276 -103
q156 -57 206 -146.5t28 -250.5q-13 -93 -40 -157t-67 -105.5t-103.5 -64.5t-137 -31.5t-179.5 -8.5q-221 0 -430 39l23 133q344 -11 409 -10q76 0 123.5 4.5t89.5 17t66 38t40.5 64.5t24.5 99q13 106 -15 148t-126 78z" />
    <glyph glyph-name="uni0406" unicode="&#x406;" horiz-adv-x="532" 
d="M274 0h-182l199 1413h182z" />
    <glyph glyph-name="uni0407" unicode="&#x407;" horiz-adv-x="534" 
d="M233 1782h54q30 0 39 -11.5t6 -39.5l-19 -111q-3 -49 -53 -49h-57q-48 0 -45 47l18 113q5 27 18 39t39 12zM580 1782h53q30 0 39 -11.5t6 -39.5l-19 -111q-3 -49 -53 -49h-57q-48 0 -45 47l18 113q9 51 58 51zM274 0h-182l199 1413h182z" />
    <glyph glyph-name="uni0408" unicode="&#x408;" horiz-adv-x="694" 
d="M639 1413l-160 -1120q-20 -153 -98.5 -232t-208.5 -79q-106 0 -190 26l34 127h97q81 0 129 41t59 117l156 1120h182z" />
    <glyph glyph-name="uni0409" unicode="&#x409;" horiz-adv-x="1990" 
d="M1180 844h286q255 0 348.5 -99.5t59.5 -343.5q-17 -124 -50.5 -204t-93.5 -127.5t-140.5 -66.5t-200.5 -19q-328 0 -506 16l178 1266h-236q-80 0 -118.5 -32.5t-57.5 -119.5q-10 -43 -35 -154.5t-32.5 -143.5t-27.5 -114.5t-29.5 -112t-28 -88.5t-33.5 -91t-35.5 -73.5
t-44.5 -78.5q-149 -232 -393 -260l-8 158q147 33 237 163q18 26 33 53.5t27.5 51t25.5 59t22 59.5t22 72.5t20.5 77t22.5 94.5t23.5 104t28 125.5t31.5 139.5q31 133 104 195.5t199 62.5h482zM1081 143l260 -2q98 0 156.5 11t100.5 43t62.5 84t33.5 141q18 100 3.5 161
t-70 87t-171.5 26h-297z" />
    <glyph glyph-name="uni040A" unicode="&#x40a;" horiz-adv-x="1998" 
d="M1188 842h289q255 0 347.5 -99t57.5 -342q-16 -124 -49.5 -204t-93.5 -127.5t-140.5 -66.5t-201.5 -19q-328 0 -506 16l98 692h-616l-99 -692h-180l199 1413h180l-80 -573h617l80 573h178zM1167 694l-77 -551q76 -2 282 -2q119 0 183.5 24.5t98 82.5t50.5 172
q17 99 2.5 160t-70.5 87.5t-172 26.5h-297z" />
    <glyph glyph-name="uni040B" unicode="&#x40b;" horiz-adv-x="1574" 
d="M768 1253l-72 -501q243 153 480 153q169 0 240 -80t48 -241l-82 -584h-178l76 553q15 108 -21.5 151.5t-144.5 43.5q-112 0 -209 -35t-231 -121l-82 -592h-180l176 1253h-455l23 160h1089l-20 -160h-457z" />
    <glyph glyph-name="uni040C" unicode="&#x40c;" horiz-adv-x="1222" 
d="M680 1491l-53 82l391 299l84 -133zM686 737l-2 -6q142 -18 219 -140q60 -97 115 -333q11 -50 35 -160q15 -64 22 -98h-180q-63 292 -77 344q-51 187 -124 256q-68 64 -182 64h-158q3 -67 -12 -154l-70 -510h-180l199 1413h180l-63 -444q-11 -79 -33 -160h147
q151 0 273 148q78 96 197 331q13 25 38 76l25 49h186q-135 -280 -191 -375q-116 -196 -236 -261q-60 -33 -128 -40z" />
    <glyph glyph-name="uni040D" unicode="&#x40d;" horiz-adv-x="1413" 
d="M944 1569l-61 -78l-379 256l94 123zM1151 0h-172l137 981q8 57 39 207h-8q-10 -16 -29.5 -50t-35 -59.5t-29.5 -44.5l-764 -1034h-197l199 1413h176l-139 -981q-18 -124 -41 -207h8q41 71 102 160l758 1028h195z" />
    <glyph glyph-name="uni040E" unicode="&#x40e;" horiz-adv-x="1150" 
d="M956 1815l88 -23q-9 -119 -99 -191.5t-234 -72.5q-151 0 -228.5 75.5t-52.5 196.5l92 6q-10 -71 40 -110t147 -39q106 0 172 42.5t75 115.5zM1237 1413l-528 -1069q-38 -79 -72.5 -135.5t-78.5 -108t-96.5 -80.5t-113.5 -34q-58 -3 -133 6t-123 24l29 131
q54 -5 88.5 -7.5t69.5 0t54 5t43 17t36 25.5t33 41t34.5 53t40.5 71l35 60h-72q-110 0 -131 100l-198 901h180l170 -821q6 -29 39 -29h88l413 850h193z" />
    <glyph glyph-name="uni040F" unicode="&#x40f;" horiz-adv-x="1380" 
d="M1317 1413l-199 -1413h-424l-51 -309h-125l35 309h-459l199 1413h180l-178 -1266h663l179 1266h180z" />
    <glyph glyph-name="uni0410" unicode="&#x410;" horiz-adv-x="1267" 
d="M913 440h-583l-201 -440h-190l647 1366q14 47 69 47h189q25 0 42.5 -15t18.5 -38l264 -1360h-180zM885 598l-99 557q-3 19 -8 59.5t-8 61.5h-61l-54 -121l-254 -557h484z" />
    <glyph glyph-name="uni0411" unicode="&#x411;" horiz-adv-x="1220" 
d="M451 1262l-66 -457h295q261 0 352.5 -93t59.5 -325q-18 -122 -51.5 -199.5t-93.5 -123.5t-140.5 -64t-202.5 -18q-306 0 -512 18l199 1413q218 12 436 12q215 0 432 -12l-37 -151h-671zM367 664l-76 -525q78 -2 291 -2q174 0 240 53.5t89 215.5q17 99 2 156.5t-69.5 79.5
t-173.5 22h-303z" />
    <glyph glyph-name="uni0412" unicode="&#x412;" horiz-adv-x="1265" 
d="M92 0l199 1413q174 17 452 17q130 0 214.5 -17.5t139 -60.5t71 -115.5t1.5 -181.5q-22 -154 -88 -231t-194 -89l-2 -8q150 -13 202.5 -110.5t26.5 -270.5q-17 -111 -49.5 -180.5t-93 -110.5t-141 -56t-205.5 -15q-348 0 -533 16zM383 801h299q157 2 225 53t88 193
q4 48 5.5 84t-12 61.5t-30.5 41.5t-51 25.5t-74 13t-98 3.5h-286zM362 664l-73 -525q82 -2 309 -2q177 0 248.5 51t91.5 201q16 109 -4.5 167t-80.5 82t-179 26h-312z" />
    <glyph glyph-name="uni0413" unicode="&#x413;" horiz-adv-x="1054" 
d="M88 0l162 1153q18 129 95 195.5t190 66.5q407 0 589 -14l-24 -139h-512q-82 0 -117 -31.5t-47 -118.5l-156 -1112h-180z" />
    <glyph glyph-name="uni0414" unicode="&#x414;" horiz-adv-x="1411" 
d="M1288 147l-18 -133l-45 -323h-140l27 309h-995l-62 -309h-139l45 311l19 145h131q133 212 214 458t140 550q23 126 101 192t204 66h522l-178 -1266h174zM936 147l156 1119h-283q-75 0 -117 -36t-55 -114q-54 -288 -131 -528.5t-199 -440.5h629z" />
    <glyph glyph-name="uni0415" unicode="&#x415;" horiz-adv-x="1142" 
d="M1126 1262h-563q-69 0 -102.5 -33t-42.5 -107l-43 -307h608l-18 -139h-609l-53 -391q-10 -70 17 -101.5t96 -31.5h553l-4 -142q-180 -12 -572 -12q-153 0 -223 75t-51 208l125 893q15 115 91.5 178t205.5 63q422 0 610 -12z" />
    <glyph glyph-name="uni0416" unicode="&#x416;" horiz-adv-x="1849" 
d="M1335 737l-2 -6q55 -7 97.5 -30.5t74.5 -65t57 -95.5t46 -129t40 -158.5t41 -188.5q3 -14 4.5 -22t4 -20t4.5 -22h-178q-9 42 -26 119q-24 114 -36 166t-34 130t-42 111.5t-51 72t-70 52t-91 13.5h-160q0 -89 -8 -154l-72 -510h-174l74 516q14 83 32 148h-151
q-131 0 -230 -110q-77 -85 -193 -313q-24 -47 -75 -151q-30 -59 -45 -90h-190q151 322 207 422q108 191 216 260q72 46 160 55l2 6q-134 19 -211 171q-56 111 -113 381q-7 36 -24 118h174q58 -264 78 -332q55 -183 139 -240q48 -32 113 -32h166q-3 72 10 166l62 438h172
l-64 -444q-13 -91 -31 -160h144q43 0 83 15t73.5 39t69 66.5t63.5 84t63.5 106.5t62.5 118.5t67 135.5q12 26 19 39h185q-130 -279 -169 -353q-107 -197 -214 -269q-68 -45 -150 -54z" />
    <glyph glyph-name="uni0417" unicode="&#x417;" horiz-adv-x="1120" 
d="M219 1260l-6 137q170 33 391 33q122 0 204.5 -18t138 -61t74 -116t3.5 -180q-22 -154 -87.5 -231t-193.5 -89l-4 -8q145 -13 199 -109.5t29 -271.5q-15 -108 -45.5 -176.5t-89 -110.5t-141.5 -58.5t-210 -16.5q-288 0 -483 47l25 129q230 -27 430 -27q169 0 240.5 52
t94.5 204q21 159 -35 216t-225 57h-241l16 141h234q152 0 219.5 52t87.5 192q6 38 7 67t-3 53t-12.5 41t-24 30t-35 21.5t-48 13.5t-61 7t-75.5 2q-131 0 -373 -22z" />
    <glyph glyph-name="uni0418" unicode="&#x418;" horiz-adv-x="1413" 
d="M1151 0h-172l137 981q8 57 39 207h-8q-10 -16 -29.5 -50t-35 -59.5t-29.5 -44.5l-764 -1034h-197l199 1413h176l-139 -981q-18 -124 -41 -207h8q41 71 102 160l758 1028h195z" />
    <glyph glyph-name="uni0419" unicode="&#x419;" horiz-adv-x="1413" 
d="M1051 1806h133q-9 -125 -99.5 -201.5t-234.5 -76.5q-151 0 -228.5 76.5t-52.5 201.5h133q-29 -182 158 -182q171 0 191 182zM1151 0h-172l137 981q8 57 39 207h-8q-10 -16 -29.5 -50t-35 -59.5t-29.5 -44.5l-764 -1034h-197l199 1413h176l-139 -981q-18 -124 -41 -207h8
q41 71 102 160l758 1028h195z" />
    <glyph glyph-name="uni041A" unicode="&#x41a;" horiz-adv-x="1222" 
d="M686 737l-2 -6q142 -18 219 -140q60 -97 115 -333q11 -50 35 -160q15 -64 22 -98h-180q-63 292 -77 344q-51 187 -124 256q-68 64 -182 64h-158q3 -67 -12 -154l-70 -510h-180l199 1413h180l-63 -444q-11 -79 -33 -160h147q151 0 273 148q78 96 197 331q13 25 38 76
l25 49h186q-135 -280 -191 -375q-116 -196 -236 -261q-60 -33 -128 -40z" />
    <glyph glyph-name="uni041B" unicode="&#x41b;" horiz-adv-x="1331" 
d="M1268 1413l-199 -1413h-178l176 1266h-274q-80 0 -120 -33.5t-59 -118.5q-98 -434 -135 -556q-52 -171 -129 -300q-72 -125 -172.5 -192t-220.5 -68l-6 145q73 25 127 62t108 119q77 118 120.5 266t135.5 571q57 252 314 252h512z" />
    <glyph glyph-name="uni041C" unicode="&#x41c;" horiz-adv-x="1794" 
d="M1419 1413h201q36 0 54.5 -21.5t15.5 -58.5l-129 -1333h-181l131 1264h-41l-460 -1045q-23 -59 -84 -59h-162q-63 0 -76 65l-178 1039h-41l-225 -1264h-178l243 1341q12 72 80 72h199q57 0 67 -65l152 -861q9 -48 27 -192h38q36 90 80 190l383 869q13 30 33 43.5t51 15.5
z" />
    <glyph glyph-name="uni041D" unicode="&#x41d;" horiz-adv-x="1363" 
d="M1303 1413l-199 -1413h-178l94 676h-651l-95 -676h-182l199 1413h182l-82 -582h651l82 582h179z" />
    <glyph glyph-name="uni041E" unicode="&#x41e;" horiz-adv-x="1363" 
d="M793 1440q119 0 205 -24.5t147.5 -79t91 -140.5t36 -209.5t-19.5 -286.5q-37 -277 -112.5 -434t-201.5 -225t-331 -68q-200 0 -313 69.5t-153.5 233t-2.5 437.5q28 204 74.5 339t124.5 223.5t187.5 126.5t267.5 38zM782 1278q-88 0 -152 -18t-114 -57.5t-85 -108.5
t-59.5 -163.5t-43.5 -230.5q-33 -211 -14.5 -336.5t87.5 -177t211 -51.5q143 0 230 54t140 177.5t85 346.5q19 135 21 228.5t-13.5 160t-54 104.5t-95.5 55t-143 17z" />
    <glyph glyph-name="uni041F" unicode="&#x41f;" horiz-adv-x="1368" 
d="M1307 1413l-199 -1413h-180l178 1266h-653l-179 -1266h-182l199 1413h1016z" />
    <glyph glyph-name="uni0420" unicode="&#x420;" horiz-adv-x="1204" 
d="M92 0l199 1413q185 19 479 19q248 0 341 -102t58 -347q-13 -91 -32 -157.5t-49 -115.5t-66.5 -80t-90.5 -50t-115.5 -26t-145.5 -7q-171 0 -318 20l-80 -567h-180zM371 702h293q167 0 234 60t93 235q12 67 7.5 115.5t-17 80t-44 50t-72 26t-101.5 7.5q-231 0 -313 -2z
" />
    <glyph glyph-name="uni0421" unicode="&#x421;" horiz-adv-x="1159" 
d="M1006 158l10 -138q-168 -45 -416 -45q-303 0 -410 173.5t-51 564.5q29 205 76 340.5t124.5 223t184 124.5t260.5 37q134 0 215.5 -9.5t169.5 -33.5l-28 -135q-181 18 -359 18q-107 0 -179 -25.5t-128 -91.5t-90 -176.5t-57 -284.5q-34 -211 -15.5 -336.5t85.5 -176.5
t204 -52q212 0 404 23z" />
    <glyph glyph-name="uni0422" unicode="&#x422;" 
d="M1225 1253h-457l-176 -1253h-180l176 1253h-455l23 160h1089z" />
    <glyph glyph-name="uni0423" unicode="&#x423;" horiz-adv-x="1150" 
d="M1237 1413l-528 -1069q-38 -79 -72.5 -135.5t-78.5 -108t-96.5 -80.5t-113.5 -34q-58 -3 -133 6t-123 24l29 131q54 -5 88.5 -7.5t69.5 0t54 5t43 17t36 25.5t33 41t34.5 53t40.5 71l35 60h-72q-110 0 -131 100l-198 901h180l170 -821q6 -29 39 -29h88l413 850h193z" />
    <glyph glyph-name="uni0424" unicode="&#x424;" horiz-adv-x="1677" 
d="M1063 1516l-29 -201q347 -15 476 -151.5t85 -450.5q-44 -316 -206.5 -446t-522.5 -142l-28 -201h-179l27 203q-237 9 -368 71t-177.5 189.5t-15.5 341.5q22 160 71.5 267.5t137.5 177.5t213.5 103t306.5 38l27 201h182zM1006 1163l-125 -884q180 7 286.5 51.5t164 138.5
t81.5 260q34 240 -53.5 333.5t-353.5 100.5zM715 276l125 887q-181 -7 -288 -51.5t-164.5 -138.5t-80.5 -260q-34 -243 52.5 -335.5t355.5 -101.5z" />
    <glyph glyph-name="uni0425" unicode="&#x425;" horiz-adv-x="1247" 
d="M819 731l297 -731h-184l-260 664h-56l-444 -664h-209l504 731l-274 682h184l237 -610h58l420 610h198z" />
    <glyph glyph-name="uni0426" unicode="&#x426;" horiz-adv-x="1406" 
d="M1112 147h174l-20 -147l-43 -309h-140l27 309h-1016l199 1413h180l-178 -1266h639l178 1266h178z" />
    <glyph glyph-name="uni0427" unicode="&#x427;" horiz-adv-x="1273" 
d="M1212 1413l-198 -1413h-180l96 678q-127 -81 -259.5 -122.5t-236.5 -41.5q-166 0 -235.5 78.5t-46.5 247.5l79 573h181l-74 -547q-17 -104 19.5 -147t140.5 -43q113 0 215 36.5t237 116.5l82 584h180z" />
    <glyph glyph-name="uni0428" unicode="&#x428;" horiz-adv-x="1900" 
d="M1839 1413l-199 -1413h-1548l199 1413h176l-176 -1266h508l178 1266h176l-178 -1266h510l176 1266h178z" />
    <glyph glyph-name="uni0429" unicode="&#x429;" horiz-adv-x="1943" 
d="M1649 147h172l-21 -147l-43 -309h-139l27 309h-1551l199 1413h176l-178 -1266h502l178 1266h178l-178 -1266h502l178 1266h174z" />
    <glyph glyph-name="uni042A" unicode="&#x42a;" horiz-adv-x="1515" 
d="M702 844h289q256 0 349 -99t59 -344q-16 -124 -49.5 -204t-93.5 -127.5t-141 -66.5t-202 -19q-329 0 -510 16l177 1253h-449l23 160h628zM680 694l-78 -551q78 -2 285 -2q91 0 147.5 12t95.5 45t58.5 84.5t32.5 137.5q17 100 2.5 161t-70.5 87t-172 26h-301z" />
    <glyph glyph-name="uni042B" unicode="&#x42b;" horiz-adv-x="1732" 
d="M393 844h293q255 0 348.5 -99.5t59.5 -343.5q-17 -124 -51 -204t-94 -127.5t-140.5 -66.5t-200.5 -19q-333 0 -516 16l199 1413h182zM1669 1413l-199 -1413h-180l199 1413h180zM371 694l-78 -551q78 -2 289 -2q174 0 240 56t91 223q17 100 2.5 161t-70 87t-171.5 26h-303
z" />
    <glyph glyph-name="uni042C" unicode="&#x42c;" horiz-adv-x="1210" 
d="M393 844h293q255 0 348.5 -99.5t59.5 -343.5q-17 -124 -51 -204t-94 -127.5t-140.5 -66.5t-200.5 -19q-333 0 -516 16l199 1413h182zM371 694l-78 -551q78 -2 289 -2q174 0 240 56t91 223q17 100 2.5 161t-70 87t-171.5 26h-303z" />
    <glyph glyph-name="uni042D" unicode="&#x42d;" horiz-adv-x="1175" 
d="M211 1257l-10 140q161 41 362 41q133 0 226.5 -23.5t160.5 -76.5t97.5 -138.5t37.5 -209.5t-18 -290q-27 -205 -75 -340.5t-128.5 -220.5t-189 -122t-266.5 -42q-215 -7 -404 50l29 135q180 -31 377 -23q111 5 186.5 33t131.5 92.5t91 163.5t60 252h-611l19 137h610
q8 75 8.5 134.5t-7 106t-21 81t-37 59t-50.5 40t-66 24.5t-80 12.5t-95 3.5q-171 0 -338 -19z" />
    <glyph glyph-name="uni042E" unicode="&#x42e;" horiz-adv-x="1892" 
d="M389 807h322q32 180 80 300.5t122 195t171 106t233 31.5q118 0 203 -23.5t148.5 -77t94 -139.5t38 -210t-18.5 -290q-30 -210 -76.5 -346.5t-124.5 -223t-185 -122t-263 -35.5q-193 0 -298.5 67t-141 217t-3.5 405h-321l-95 -662h-180l199 1413h180zM1595 713
q33 212 14.5 337.5t-86.5 176.5t-206 51q-205 0 -303 -126.5t-142 -451.5q-34 -212 -16.5 -337.5t82.5 -176.5t197 -51q213 0 313.5 126.5t146.5 451.5z" />
    <glyph glyph-name="uni042F" unicode="&#x42f;" horiz-adv-x="1251" 
d="M991 0h-182l82 575l-301 -2q-79 0 -128.5 -35t-84.5 -116l-178 -422h-197l188 436q49 99 103 147t123 56l2 8q-88 16 -142 78t-69.5 145.5t-1.5 182.5q29 207 145.5 293t343.5 86q276 0 496 -19zM911 729l78 545q-78 2 -293 2q-146 0 -217 -54.5t-92 -193.5
q-23 -146 27.5 -222.5t189.5 -76.5h307z" />
    <glyph glyph-name="uni0430" unicode="&#x430;" horiz-adv-x="1179" 
d="M936 0h-137l12 201q-89 -103 -202.5 -164.5t-239.5 -61.5q-182 0 -243.5 120t-19.5 415q16 112 39.5 194t57 138.5t71 92t91.5 54.5t109 26t132 7q225 0 467 -47zM809 350l76 520q-175 7 -228 7q-73 0 -120 -4.5t-88 -20.5t-64.5 -40.5t-44 -70t-33 -102t-24.5 -143.5
q-17 -116 -20 -185t11.5 -111.5t44.5 -57.5t84 -15q96 0 193.5 55.5t212.5 167.5z" />
    <glyph glyph-name="uni0431" unicode="&#x431;" horiz-adv-x="1169" 
d="M1098 1489l20 -154q-85 -36 -160.5 -51.5t-153 -24.5t-134.5 -24q-68 -17 -119.5 -43t-84.5 -54t-58.5 -70.5t-40 -79t-31.5 -93.5l-20 -68t-21 -73h4q25 43 51.5 74.5t72 66t114.5 53.5t157 19q95 0 163 -22.5t108 -64.5t61 -101.5t22 -134.5t-8 -163
q-33 -265 -151 -385.5t-361 -120.5q-95 0 -166 18.5t-117 47t-73.5 79t-40 98.5t-12 123t6.5 134.5t19 149.5q17 119 33.5 201t41.5 164t57 136.5t79 104.5t110 84t146 59q58 17 216 43.5t270 71.5zM651 819q-75 0 -130.5 -15.5t-92 -42t-61 -70.5t-38 -93.5t-22.5 -118.5
q-28 -199 20.5 -277.5t204.5 -78.5q148 0 222 80t106 291q28 190 -16.5 257.5t-192.5 67.5z" />
    <glyph glyph-name="uni0432" unicode="&#x432;" horiz-adv-x="1118" 
d="M733 541l-2 -6q143 -9 198 -81t34 -214q-23 -149 -124.5 -208t-334.5 -59q-93 0 -157.5 8.5t-118 31t-83.5 60.5t-46 98.5t-14 143t19 195.5q17 111 39.5 191.5t56 137.5t71.5 92.5t94.5 56t116.5 27.5t145 7q68 0 117 -4t107.5 -20t92 -44t50.5 -80.5t3 -125.5
q-42 -184 -264 -207zM285 561l266 31q103 11 163 34t82.5 50.5t32.5 71.5q18 79 -32 107t-193 28q-55 0 -90.5 -3.5t-70 -15.5t-56.5 -33.5t-42 -58t-34 -87.5t-26 -124zM545 467l-279 -31q-9 -73 -10 -124t9 -87t25 -57t45 -32.5t63 -15t85 -3.5q159 0 227 35.5t83 136.5
q13 107 -40.5 151.5t-207.5 26.5z" />
    <glyph glyph-name="uni0433" unicode="&#x433;" horiz-adv-x="1060" 
d="M160 819l-4 137q184 56 413 66q61 1 120.5 2t111.5 -12.5t90.5 -37.5t56.5 -72t10 -116q-22 -182 -219 -270q-20 -10 -71 -29l-299 -114q-72 -30 -104 -59.5t-36 -75.5q-10 -70 35.5 -91.5t149.5 -21.5q247 6 483 80l6 -142q-229 -90 -487 -90q-187 0 -283 63t-78 206
q12 101 75.5 164t191.5 112l278 105q101 35 143.5 71t47.5 88q9 62 -40.5 81.5t-195.5 13.5q-159 -7 -395 -58z" />
    <glyph glyph-name="uni0434" unicode="&#x434;" horiz-adv-x="1157" 
d="M309 1329l27 127q78 -9 144.5 -22t133 -33.5t120.5 -48.5t104 -67t86 -87.5t63.5 -112.5t40.5 -139.5t12.5 -170.5t-16.5 -204q-16 -116 -39 -203t-64 -164t-98.5 -126t-141 -77t-192.5 -28q-230 0 -322.5 118t-60.5 364q31 226 141 344.5t322 118.5q187 0 295 -113
q0 67 -8.5 124t-23.5 101.5t-41 81.5t-53 63.5t-67 49t-76 37t-88 28t-95 21.5t-103 18zM498 121q165 0 240 109.5t110 365.5q8 69 10 94q-105 82 -252 82q-150 0 -222 -82t-95 -248q-26 -176 23.5 -248.5t185.5 -72.5z" />
    <glyph glyph-name="uni0435" unicode="&#x435;" horiz-adv-x="1099" 
d="M899 147l12 -116q-71 -28 -187.5 -42t-219.5 -14q-255 0 -350 131t-56 416q21 149 58.5 244t104 153t156.5 80.5t226 22.5q228 0 313 -79t58 -241q-24 -142 -111 -203t-268 -75l-369 -33q-2 -82 13.5 -135t51.5 -82t83 -40t118 -11q177 0 367 24zM279 520l354 35
q102 8 148 42t61 120q4 25 4 45.5t-2.5 36t-11 27.5t-18 20.5t-26 14t-31.5 9t-39.5 5t-45 2t-51.5 0.5q-58 0 -98.5 -5.5t-76.5 -20.5t-60.5 -40t-45.5 -65.5t-35 -95t-26 -130.5z" />
    <glyph glyph-name="uni0436" unicode="&#x436;" horiz-adv-x="1550" 
d="M1083 520l-2 -6q47 -5 82 -18t64 -45.5t46.5 -57.5t40 -91t33.5 -105.5t37 -139.5q10 -37 15 -57h-166q-58 228 -78 282q-41 113 -104 148q-41 22 -101 23h-123q3 -50 -4 -103l-49 -350h-156l52 358q6 41 22 95h-119q-41 0 -75 -10.5t-66 -35.5t-58.5 -55t-59.5 -82
t-62 -103.5t-73 -131.5q-12 -23 -19 -35h-176q14 27 41 77q37 71 55 103.5t48 85.5t47 76t44.5 57.5t49 50t51 33.5t60.5 26.5t69 12.5l2 4q-48 6 -84 21.5t-64 49t-46.5 63t-38 93.5t-30.5 108t-32 136h166q13 -53 20 -82.5t19 -73t20.5 -67t22 -55.5t26 -48.5t30 -36
t36.5 -28.5t42.5 -15.5t51.5 -6.5h123q-3 50 4 118l43 295h155l-43 -301q-11 -71 -22 -112h98q35 0 67 10.5t58.5 25.5t55.5 46.5t50.5 59t52 78t52 88.5t57.5 105h175q-116 -224 -166 -297q-85 -124 -184 -161q-39 -14 -83 -19z" />
    <glyph glyph-name="uni0437" unicode="&#x437;" horiz-adv-x="1017" 
d="M160 852l-6 131q125 31 319 31q124 0 203.5 -11.5t135 -42t75 -84t8.5 -135.5q-15 -111 -69.5 -164t-174.5 -63l-2 -6q129 -10 179.5 -75t31.5 -193q-9 -65 -30.5 -110t-55 -74.5t-88.5 -45.5t-120.5 -22t-162.5 -6q-242 0 -405 30l25 133q176 -16 370 -16
q168 0 225 30.5t70 129.5q12 91 -36.5 122t-196.5 33l-242 5l14 124h234q138 0 194.5 34t69.5 126q12 86 -35 110.5t-217 24.5q-165 0 -313 -16z" />
    <glyph glyph-name="uni0438" unicode="&#x438;" horiz-adv-x="1167" 
d="M1063 997l-139 -997h-133l14 217q-129 -124 -240 -184t-221 -60q-136 0 -197.5 74t-42.5 205l105 745h174l-98 -702q-14 -92 13 -131t105 -39q87 0 173.5 52.5t226.5 178.5l88 641h172z" />
    <glyph glyph-name="uni0439" unicode="&#x439;" horiz-adv-x="1167" 
d="M870 1438h134q-9 -126 -99.5 -202.5t-234.5 -76.5q-151 0 -228.5 77t-52.5 202h133q-29 -183 158 -183q170 0 190 183zM1063 997l-139 -997h-133l14 217q-129 -124 -240 -184t-221 -60q-136 0 -197.5 74t-42.5 205l105 745h174l-98 -702q-14 -92 13 -131t105 -39
q87 0 173.5 52.5t226.5 178.5l88 641h172z" />
    <glyph glyph-name="uni043A" unicode="&#x43a;" horiz-adv-x="1089" 
d="M608 520l-4 -6q61 -5 106 -28.5t72.5 -47.5t56 -96t41 -114.5t43.5 -163.5q11 -42 17 -64h-174q-6 21 -16 61q-27 103 -40.5 148t-38 104t-50 81t-66.5 39t-98 18h-8h-146q0 -64 -4 -103l-51 -348h-172l139 997h174l-41 -299q-5 -34 -26 -112h135q36 0 67.5 6t60.5 22.5
t51.5 32.5t48.5 48t44 56.5t44.5 71.5t44 79.5t48.5 92.5h187q-31 -60 -49 -94.5t-44.5 -82.5t-44 -74.5t-42 -61t-45 -53.5t-46.5 -40.5t-52 -33.5t-56.5 -21.5t-65.5 -13.5z" />
    <glyph glyph-name="uni043B" unicode="&#x43b;" horiz-adv-x="1150" 
d="M1049 997l-142 -997h-174l123 860h-211q-64 0 -98 -29t-53 -102q-80 -332 -170 -526q-50 -112 -133 -161.5t-207 -51.5l-13 141q37 10 51 14t41.5 15t41.5 23.5t31.5 34.5t31.5 52q10 20 21 44t19.5 45t19.5 53t17.5 50.5t17.5 56t15.5 52t16 56t13.5 49.5t14 51.5
t12 44.5q30 117 92 171t178 54h445z" />
    <glyph glyph-name="uni043C" unicode="&#x43c;" horiz-adv-x="1523" 
d="M1149 997h180q31 0 48.5 -19.5t13.5 -49.5l-88 -928h-160l82 864h-35l-348 -702q-12 -28 -28.5 -40.5t-43.5 -12.5h-143q-52 0 -62 59l-155 696h-37l-158 -864h-160l170 934q9 63 72 63h178q52 0 62 -59l125 -561q21 -93 28 -154h33q9 19 29 69.5t34 78.5l289 573
q23 53 74 53z" />
    <glyph glyph-name="uni043D" unicode="&#x43d;" horiz-adv-x="1185" 
d="M1083 997l-141 -997h-172l66 463h-523l-65 -463h-172l139 997h172l-55 -401h522l57 401h172z" />
    <glyph glyph-name="uni043E" unicode="&#x43e;" horiz-adv-x="1161" 
d="M631 1022q255 0 350.5 -123t54.5 -410q-40 -283 -159.5 -399.5t-370.5 -116.5q-253 0 -350 122.5t-58 408.5q38 283 159 400.5t374 117.5zM631 874q-84 0 -141 -17t-100 -61t-69 -118t-42 -189q-23 -140 -6 -222t70 -114t163 -32q167 0 243 82.5t107 300.5
q31 216 -16.5 293t-208.5 77z" />
    <glyph glyph-name="uni043F" unicode="&#x43f;" horiz-adv-x="1189" 
d="M354 997l-14 -219q140 123 256.5 183.5t224.5 60.5q129 0 192.5 -71.5t43.5 -205.5l-107 -745h-172l99 702q12 97 -12 134.5t-97 37.5q-88 0 -183 -53t-247 -172l-88 -649h-174l139 997h139z" />
    <glyph glyph-name="uni0440" unicode="&#x440;" horiz-adv-x="1183" 
d="M354 997l-14 -221q100 103 224 174.5t227 71.5q89 0 145.5 -25.5t90.5 -87.5t36.5 -164.5t-16.5 -257.5q-19 -133 -50 -226t-70 -149t-98 -87t-120 -41.5t-150 -10.5q-138 0 -317 27q-3 -110 -17 -190l-35 -226h-174l201 1413h137zM342 643l-72 -520q147 -6 226 -6
q72 0 119 5t88 20.5t65 40t44.5 70t33 102.5t24.5 145q13 94 16.5 155.5t-1 105.5t-22 66.5t-43.5 32.5t-68 10q-73 0 -184.5 -60.5t-225.5 -166.5z" />
    <glyph glyph-name="uni0441" unicode="&#x441;" horiz-adv-x="997" 
d="M838 143l10 -118q-155 -50 -342 -50q-262 0 -355.5 122.5t-52.5 408.5t160.5 401t374.5 115q200 0 319 -49l-26 -109q-112 10 -264 10q-95 0 -157 -15.5t-110 -58t-74.5 -116.5t-41.5 -192q-10 -78 -11 -134t9.5 -98t29 -68t52.5 -41.5t75.5 -21.5t102.5 -6q171 0 301 20
z" />
    <glyph glyph-name="uni0442" unicode="&#x442;" horiz-adv-x="1792" 
d="M350 997l-14 -217q125 125 229 183.5t207 58.5q117 0 178.5 -60t59.5 -167q118 118 217.5 172.5t199.5 54.5q131 0 192 -74t42 -203l-105 -745h-174l99 702q13 95 -17 133.5t-104 38.5q-73 0 -151 -49t-218 -178l-92 -647h-168l98 702q12 92 -14 132t-106 40
q-76 0 -153 -48t-218 -175l-90 -651h-172l139 997h135z" />
    <glyph glyph-name="uni0443" unicode="&#x443;" horiz-adv-x="1107" 
d="M893 997h182q-37 -172 -117.5 -404t-179.5 -431q-58 -117 -117 -209.5t-113.5 -157t-112.5 -110t-110.5 -70.5t-109.5 -36.5t-107 -10.5t-106 10l16 143q130 -24 247.5 36t238.5 243h-103q-43 0 -75 25.5t-41 66.5l-193 905h184l156 -821q9 -39 47 -39h105l39 76
q92 180 165.5 393.5t104.5 390.5z" />
    <glyph glyph-name="uni0444" unicode="&#x444;" horiz-adv-x="1466" 
d="M932 1434l-58 -414q289 -15 396.5 -139t70.5 -392q-37 -265 -177.5 -383.5t-436.5 -128.5l-55 -389h-162l53 389q-289 15 -396.5 137.5t-70.5 389.5q37 268 178 388t439 130l57 412h162zM848 874l-109 -749q214 10 310.5 94.5t124.5 284.5t-43.5 280.5t-282.5 89.5z
M592 123l106 749q-212 -10 -309.5 -96t-126.5 -287q-26 -198 46 -277.5t284 -88.5z" />
    <glyph glyph-name="uni0445" unicode="&#x445;" horiz-adv-x="1077" 
d="M688 514l260 -514h-176l-221 451h-47l-348 -451h-195l408 516l-240 481h174l197 -411h57l320 411h188z" />
    <glyph glyph-name="uni0446" unicode="&#x446;" horiz-adv-x="1220" 
d="M1075 0l-43 -305h-149l63 305q-74 3 -115 48.5t-32 133.5l2 25q-127 -119 -237 -176.5t-220 -57.5q-136 0 -197.5 74t-42.5 205l105 745h174l-98 -702q-14 -92 13 -131t105 -39q87 0 174 51t226 172l88 649h172l-111 -815q-4 -25 8 -38t35 -13h99z" />
    <glyph glyph-name="uni0447" unicode="&#x447;" horiz-adv-x="1097" 
d="M995 997l-141 -997h-174l63 453q-102 -51 -209 -79t-182 -28q-139 -1 -201 54.5t-47 168.5l62 428h174l-53 -379q-10 -76 14.5 -102.5t106.5 -26.5q88 0 169 26t187 87l55 395h176z" />
    <glyph glyph-name="uni0448" unicode="&#x448;" horiz-adv-x="1755" 
d="M1651 997l-140 -997h-135l15 213q-119 -124 -221 -182t-203 -58q-112 0 -172 60t-58 166q-115 -118 -211 -172t-194 -54q-128 0 -187.5 74.5t-40.5 204.5l105 745h174l-98 -702q-13 -87 16.5 -123.5t104.5 -36.5t141.5 43t208.5 172l90 647h168l-99 -702
q-12 -85 14.5 -122.5t106.5 -37.5q79 0 145.5 42.5t207.5 168.5l90 651h172z" />
    <glyph glyph-name="uni0449" unicode="&#x449;" horiz-adv-x="1808" 
d="M1681 131l-18 -131l-45 -305h-148l68 305q-75 2 -118 47.5t-34 134.5l3 29q-119 -124 -220 -181t-202 -57q-112 0 -172 60t-58 166q-115 -118 -211 -172t-194 -54q-128 0 -187.5 74.5t-40.5 204.5l105 745h174l-98 -702q-13 -87 16.5 -123.5t104.5 -36.5t141.5 43
t208.5 172l90 647h168l-99 -702q-12 -85 14.5 -122.5t106.5 -37.5q79 0 145.5 42.5t209.5 168.5l88 651h172l-111 -815q-8 -51 43 -51h98z" />
    <glyph glyph-name="uni044A" unicode="&#x44a;" horiz-adv-x="1288" 
d="M713 997l-111 -415q99 30 195 30q231 0 309.5 -70t52.5 -251q-14 -92 -42 -151.5t-79 -94t-117.5 -48t-166.5 -13.5q-37 0 -66.5 1t-68.5 5t-69 10.5t-63.5 19t-57 30t-43.5 43.5t-29 58.5t-8.5 76.5t13.5 96l146 534h-426l20 139h611zM567 453l-43 -158
q-10 -32 -6.5 -57t10 -43t23.5 -30.5t34 -21t42 -13t47.5 -6t50.5 -1.5q132 0 186 38t74 150q17 99 -24 136.5t-173 37.5q-103 0 -221 -32z" />
    <glyph glyph-name="uni044B" unicode="&#x44b;" horiz-adv-x="1464" 
d="M1360 997l-141 -997h-175l140 997h176zM379 997l-62 -430q124 45 236 45q232 0 310 -69.5t52 -251.5q-26 -178 -115 -242.5t-290 -64.5q-36 0 -59 0.5t-62.5 3t-65 7.5t-60.5 15t-57.5 23.5t-46.5 35.5t-36 49t-18 65t-1 83l107 731h168zM299 446l-27 -182
q-5 -36 4 -62.5t26.5 -41.5t47.5 -23.5t60 -11t71 -2.5q134 0 189.5 38.5t70.5 149.5q14 100 -25.5 137t-170.5 37q-115 0 -246 -39z" />
    <glyph glyph-name="uni044C" unicode="&#x44c;" horiz-adv-x="1044" 
d="M379 997l-62 -430q124 45 236 45q232 0 310 -69.5t52 -251.5q-26 -178 -115 -242.5t-290 -64.5q-36 0 -59 0.5t-62.5 3t-65 7.5t-60.5 15t-57.5 23.5t-46.5 35.5t-36 49t-18 65t-1 83l107 731h168zM299 446l-27 -182q-5 -36 4 -62.5t26.5 -41.5t47.5 -23.5t60 -11
t71 -2.5q134 0 189.5 38.5t70.5 149.5q14 100 -25.5 137t-170.5 37q-115 0 -246 -39z" />
    <glyph glyph-name="uni044D" unicode="&#x44d;" horiz-adv-x="1032" 
d="M150 854l-9 121q123 35 310 35q95 0 165.5 -10.5t127 -35t91 -64.5t56 -98.5t22 -137t-9.5 -179.5q-19 -147 -57 -243t-107 -155.5t-165 -84t-238 -22.5q-214 3 -332 40l27 121q126 -11 286 -14q82 -1 139 7t103 28t75.5 57.5t50 92t34.5 134.5h-506l16 125h506
q9 95 -2.5 153t-50 89t-92.5 41t-148 10q-110 0 -292 -10z" />
    <glyph glyph-name="uni044E" unicode="&#x44e;" horiz-adv-x="1624" 
d="M332 582h256q31 170 93 266t158.5 135t250.5 39q104 0 177 -16t127.5 -53t80 -98t33.5 -150.5t-11 -210.5q-21 -150 -58.5 -247t-102.5 -157t-153.5 -84t-219.5 -24q-121 0 -200 22.5t-128.5 76.5t-64.5 143t-1 222h-256l-63 -446h-174l141 997h174zM1317 508
q12 108 10 178.5t-31.5 112t-79 58.5t-131.5 17q-166 0 -240 -80.5t-104 -299.5q-31 -211 15.5 -288t204.5 -77q172 0 249.5 82.5t106.5 296.5z" />
    <glyph glyph-name="uni044F" unicode="&#x44f;" horiz-adv-x="1099" 
d="M997 993l-141 -993h-170l53 369h-252q-168 0 -206 -105l-97 -264h-176l103 291q27 73 88 107t127 32l2 8q-60 10 -101 39t-58 67t-24.5 84t0.5 91q9 75 33 126.5t59.5 83.5t95 49.5t125 23.5t163.5 6q185 0 376 -15zM758 500l51 366q-33 0 -118.5 1t-135.5 1
q-131 0 -180 -34t-62 -138q-13 -101 22.5 -148.5t149.5 -47.5h273z" />
    <glyph glyph-name="uni0451" unicode="&#x451;" horiz-adv-x="1099" 
d="M514 1202h-57q-48 0 -45 47l18 115q9 49 57 49h54q30 0 40 -11.5t5 -37.5l-19 -113q-3 -49 -53 -49zM860 1202h-57q-48 0 -45 47l18 115q9 49 58 49h53q30 0 40 -11.5t5 -37.5l-19 -113q-3 -49 -53 -49zM899 147l12 -116q-71 -28 -187.5 -42t-219.5 -14q-255 0 -350 131
t-56 416q21 149 58.5 244t104 153t156.5 80.5t226 22.5q228 0 313 -79t58 -241q-24 -142 -111 -203t-268 -75l-369 -33q-2 -82 13.5 -135t51.5 -82t83 -40t118 -11q177 0 367 24zM279 520l354 35q102 8 148 42t61 120q4 25 4 45.5t-2.5 36t-11 27.5t-18 20.5t-26 14t-31.5 9
t-39.5 5t-45 2t-51.5 0.5q-58 0 -98.5 -5.5t-76.5 -20.5t-60.5 -40t-45.5 -65.5t-35 -95t-26 -130.5z" />
    <glyph glyph-name="uni0452" unicode="&#x452;" horiz-adv-x="1181" 
d="M430 1016l-31 -228q-13 -97 -32 -163q251 198 456 198q138 0 200.5 -70.5t43.5 -205.5l-78 -547h-174l72 506q12 91 -19.5 126.5t-122.5 35.5q-83 0 -170.5 -43t-220.5 -142l-67 -483h-174l143 1016h-145l14 100h145l45 318h174l-45 -318h392l-15 -100h-391z" />
    <glyph glyph-name="uni0453" unicode="&#x453;" horiz-adv-x="1060" 
d="M905 1370l-424 -248l-53 82l393 299zM160 819l-4 137q184 56 413 66q61 1 120.5 2t111.5 -12.5t90.5 -37.5t56.5 -72t10 -116q-22 -182 -219 -270q-20 -10 -71 -29l-299 -114q-72 -30 -104 -59.5t-36 -75.5q-10 -70 35.5 -91.5t149.5 -21.5q247 6 483 80l6 -142
q-229 -90 -487 -90q-187 0 -283 63t-78 206q12 101 75.5 164t191.5 112l278 105q101 35 143.5 71t47.5 88q9 62 -40.5 81.5t-195.5 13.5q-159 -7 -395 -58z" />
    <glyph glyph-name="uni0454" unicode="&#x454;" horiz-adv-x="1028" 
d="M983 973l-27 -119q-163 10 -288 10q-95 0 -155 -11.5t-107 -44.5t-74 -90t-45 -149h508l-17 -123h-510q-6 -50 -6.5 -89t5 -71t15 -54.5t28 -40t40.5 -28.5t55.5 -19t70.5 -11.5t87 -5.5q102 -2 299 14l12 -123q-140 -38 -348 -38q-84 0 -149 11t-119 36t-88.5 65t-57 98
t-24 135.5t9.5 176.5q21 149 61 246t110 156t164 82.5t233 23.5q197 0 317 -37z" />
    <glyph glyph-name="uni0455" unicode="&#x455;" horiz-adv-x="1042" 
d="M594 379l-277 123q-112 50 -158 113t-32 171q9 72 38 119.5t83.5 73.5t124 35.5t170.5 7.5q224 -3 420 -31l-21 -125q-306 10 -393 11q-143 0 -193.5 -17t-60.5 -86q-5 -39 9.5 -66t37.5 -41.5t74 -37.5l280 -123q121 -54 166 -113.5t31 -169.5q-9 -66 -35 -111.5
t-62 -71.5t-96.5 -40.5t-120 -18.5t-151.5 -4q-69 0 -124 2.5t-82.5 5.5t-84 10t-90.5 11l21 127q120 -10 317 -10q191 2 259.5 24.5t78.5 92.5q5 37 -7.5 60.5t-33 36t-65.5 32.5q-15 6 -23 10z" />
    <glyph glyph-name="uni0456" unicode="&#x456;" horiz-adv-x="509" 
d="M326 1421h82q26 0 39 -16t10 -41l-17 -117q-3 -26 -16 -37.5t-39 -11.5h-82q-27 0 -40 15t-9 42l16 115q6 51 56 51zM258 0h-174l139 997h174z" />
    <glyph glyph-name="uni0457" unicode="&#x457;" horiz-adv-x="503" 
d="M168 1413h53q29 0 38.5 -11.5t6.5 -37.5l-18 -113q-3 -49 -53 -49h-58q-48 0 -45 47l19 115q9 49 57 49zM514 1413h53q29 0 38.5 -11.5t6.5 -37.5l-18 -113q-3 -49 -53 -49h-58q-48 0 -45 47l19 115q9 49 57 49zM254 0h-174l141 997h174z" />
    <glyph glyph-name="uni0458" unicode="&#x458;" horiz-adv-x="509" 
d="M326 1421h82q26 0 39 -16t10 -41l-17 -117q-3 -26 -16 -37.5t-39 -11.5h-82q-27 0 -40 15t-9 42l16 115q6 51 56 51zM397 997l-143 -1026q-17 -119 -81 -221t-161 -168l-92 80q70 74 108.5 149t51.5 169l143 1017h174z" />
    <glyph glyph-name="uni0459" unicode="&#x459;" horiz-adv-x="1638" 
d="M979 997l-64 -434q119 49 265 49q210 0 281 -75t48 -246q-13 -94 -41 -153.5t-79 -93t-114.5 -46t-162.5 -14.5q-75 -1 -131.5 4.5t-113 23t-90.5 47.5t-52 82.5t-10 124.5l86 598h-172q-58 0 -91 -26t-46 -84q-60 -256 -93.5 -361t-93.5 -200q-64 -106 -144.5 -150
t-180.5 -49l-9 139q111 19 185 119q55 72 83.5 158.5t84.5 321.5q10 44 16 67q24 99 81.5 148.5t158.5 49.5h399zM899 442l-27 -178q-5 -36 3 -62t24.5 -41t45.5 -23.5t59 -11.5t73 -3q136 0 189.5 38t68.5 150q12 102 -25 138t-155 36q-128 0 -256 -43z" />
    <glyph glyph-name="uni045A" unicode="&#x45a;" horiz-adv-x="1658" 
d="M1006 997l-62 -430q121 45 230 45q227 0 304 -69.5t52 -251.5q-24 -177 -112 -242t-285 -65q-36 0 -58 0.5t-60.5 3t-64 7.5t-60 15t-56.5 23.5t-45 35.5t-35.5 49t-18 65t-0.5 83l33 221h-463l-69 -487h-160l139 997h162l-53 -385h462l56 385h164zM926 444l-27 -180
q-5 -36 3.5 -62.5t25 -41.5t46 -23.5t59 -11t71.5 -2.5q129 0 183 38.5t69 149.5q14 100 -24 137t-165 37q-116 0 -241 -41z" />
    <glyph glyph-name="uni045B" unicode="&#x45b;" horiz-adv-x="1181" 
d="M430 1016l-27 -195q-16 -114 -36 -196q248 198 456 198q138 0 200.5 -70.5t43.5 -205.5l-80 -576q-19 -120 -82 -221.5t-160 -167.5l-92 80q70 74 108.5 149t51.5 169l74 526q12 89 -19.5 125.5t-122.5 36.5q-83 0 -170.5 -43t-222.5 -142l-65 -483h-174l143 1016h-145
l14 100h145l45 318h174l-45 -318h392l-15 -100h-391z" />
    <glyph glyph-name="uni045C" unicode="&#x45c;" horiz-adv-x="1089" 
d="M567 1122l-53 82l393 299l84 -133zM608 520l-4 -6q61 -5 106 -28.5t72.5 -47.5t56 -96t41 -114.5t43.5 -163.5q11 -42 17 -64h-174q-6 21 -16 61q-27 103 -40.5 148t-38 104t-50 81t-66.5 39t-98 18h-8h-146q0 -64 -4 -103l-51 -348h-172l139 997h174l-41 -299
q-5 -34 -26 -112h135q36 0 67.5 6t60.5 22.5t51.5 32.5t48.5 48t44 56.5t44.5 71.5t44 79.5t48.5 92.5h187q-31 -60 -49 -94.5t-44.5 -82.5t-44 -74.5t-42 -61t-45 -53.5t-46.5 -40.5t-52 -33.5t-56.5 -21.5t-65.5 -13.5z" />
    <glyph glyph-name="uni045D" unicode="&#x45d;" horiz-adv-x="1167" 
d="M700 1122l-378 256l96 123l346 -301zM1063 997l-139 -997h-133l14 217q-129 -124 -240 -184t-221 -60q-136 0 -197.5 74t-42.5 205l105 745h174l-98 -702q-14 -92 13 -131t105 -39q87 0 173.5 52.5t226.5 178.5l88 641h172z" />
    <glyph glyph-name="uni045E" unicode="&#x45e;" horiz-adv-x="1107" 
d="M809 1438h133q-9 -125 -99.5 -202t-232.5 -77q-152 0 -228.5 77t-51.5 202h131q-26 -183 157 -183q171 0 191 183zM893 997h182q-37 -172 -117.5 -404t-179.5 -431q-58 -117 -117 -209.5t-113.5 -157t-112.5 -110t-110.5 -70.5t-109.5 -36.5t-107 -10.5t-106 10l16 143
q130 -24 247.5 36t238.5 243h-103q-43 0 -75 25.5t-41 66.5l-193 905h184l156 -821q9 -39 47 -39h105l39 76q92 180 165.5 393.5t104.5 390.5z" />
    <glyph glyph-name="uni045F" unicode="&#x45f;" horiz-adv-x="1167" 
d="M1063 997l-139 -997h-133l14 217q-129 -124 -240 -184t-221 -60q-136 0 -197.5 74t-42.5 205l105 745h174l-98 -702q-14 -92 13 -131t105 -39q87 0 173.5 52.5t226.5 178.5l88 641h172zM477 -84h119l-37 -379h-153z" />
    <glyph glyph-name="uni0490" unicode="&#x490;" horiz-adv-x="1064" 
d="M1133 1386l-21 -124h-524q-77 0 -114.5 -31.5t-49.5 -118.5l-156 -1112h-180l162 1153q18 128 93.5 195t191.5 67q315 0 462 -12l66 319h123z" />
    <glyph glyph-name="uni0491" unicode="&#x491;" horiz-adv-x="927" 
d="M936 985l-23 -123h-424q-64 0 -99 -30.5t-44 -96.5l-102 -735h-174l112 788q29 213 240 213q254 0 379 -6l61 299h121z" />
    <glyph glyph-name="uni04B0" unicode="&#x4b0;" horiz-adv-x="1181" 
d="M713 563h270l-16 -108h-305l-64 -455h-180l63 455h-309l16 108h277l-315 850h186l213 -600q12 -37 41 -160l16 6q52 105 84 160l383 594h193z" />
    <glyph glyph-name="uni04B1" unicode="&#x4b1;" horiz-adv-x="1187" 
d="M653 152h273l-15 -111h-311l-63 -457h-183l66 457h-303l14 111h270l-313 845h184l213 -602q32 -96 41 -157h17q26 73 84 165l381 594h196z" />
    <glyph glyph-name="uni04B6" unicode="&#x4b6;" horiz-adv-x="1347" 
d="M1049 125h176l-17 -125l-45 -309h-137l27 309h-201l94 670q-261 -156 -512 -156q-160 0 -232.5 81t-49.5 245l81 573h181l-76 -547q-15 -105 22.5 -149.5t151.5 -44.5q108 0 212.5 36.5t244.5 118.5l82 586h178z" />
    <glyph glyph-name="uni04B7" unicode="&#x4b7;" horiz-adv-x="1146" 
d="M991 10l-43 -305h-160l64 295h-172l63 453q-102 -51 -209 -79t-182 -28q-139 -1 -201 54.5t-47 168.5l62 428h174l-53 -379q-10 -76 14.5 -102.5t106.5 -26.5q88 0 170 26t186 87l55 395h176l-125 -858h140z" />
    <glyph glyph-name="uni04BA" unicode="&#x4ba;" horiz-adv-x="1292" 
d="M473 1413l-94 -670q132 78 264.5 117t245.5 39q161 0 233.5 -81.5t46.5 -244.5l-79 -573h-181l78 547q15 106 -22.5 150t-151.5 44q-107 0 -211.5 -36.5t-245.5 -118.5l-82 -586h-182l199 1413h182z" />
    <glyph glyph-name="uni04C0" unicode="&#x4c0;" horiz-adv-x="536" 
d="M274 0h-180l199 1413h180z" />
    <glyph glyph-name="Wgrave" unicode="&#x1e80;" horiz-adv-x="1931" 
d="M1196 1569l-61 -80l-379 256l94 125zM1985 1413l-482 -1364q-15 -49 -73 -49h-201q-27 0 -46 16.5t-20 42.5l-73 1063q-1 15 -6.5 70t-6.5 86h-43l-55 -164l-367 -1063q-15 -51 -73 -51h-199q-28 0 -47.5 16t-20.5 41l-102 1356h184l66 -1104q1 -10 6 -176h49l60 182
l362 1041q15 57 74 57h194q26 0 43 -18t19 -45l84 -1043q8 -114 8 -174h51l55 178l371 1102h189z" />
    <glyph glyph-name="wgrave" unicode="&#x1e81;" horiz-adv-x="1740" 
d="M1047 1200l-64 -78l-379 256l96 123zM414 137h26q28 0 50.5 15.5t46.5 56.5q59 103 112 280q59 176 107 465q3 20 16.5 31.5t32.5 11.5h190q18 0 30.5 -11.5t14.5 -29.5l101 -819h24q44 0 84 64q34 54 51 83t43.5 83.5t51.5 121.5q83 213 133 508h182q-76 -338 -182 -579
q-96 -219 -176 -320q-40 -52 -79 -75t-97 -23h-115q-23 0 -37.5 13t-17.5 34l-95 836h-26q-21 -205 -94 -437q-61 -195 -138 -317q-74 -129 -219 -129h-102q-21 0 -36 13t-20 34l-184 950h180z" />
    <glyph glyph-name="Wacute" unicode="&#x1e82;" horiz-adv-x="1931" 
d="M1440 1737l-422 -248l-55 82l393 301zM1985 1413l-482 -1364q-15 -49 -73 -49h-201q-27 0 -46 16.5t-20 42.5l-73 1063q-1 15 -6.5 70t-6.5 86h-43l-55 -164l-367 -1063q-15 -51 -73 -51h-199q-28 0 -47.5 16t-20.5 41l-102 1356h184l66 -1104q1 -10 6 -176h49l60 182
l362 1041q15 57 74 57h194q26 0 43 -18t19 -45l84 -1043q8 -114 8 -174h51l55 178l371 1102h189z" />
    <glyph glyph-name="wacute" unicode="&#x1e83;" horiz-adv-x="1740" 
d="M1290 1370l-424 -248l-53 82l393 299zM414 137h26q28 0 50.5 15.5t46.5 56.5q59 103 112 280q59 176 107 465q3 20 16.5 31.5t32.5 11.5h190q18 0 30.5 -11.5t14.5 -29.5l101 -819h24q44 0 84 64q34 54 51 83t43.5 83.5t51.5 121.5q83 213 133 508h182
q-76 -338 -182 -579q-96 -219 -176 -320q-40 -52 -79 -75t-97 -23h-115q-23 0 -37.5 13t-17.5 34l-95 836h-26q-21 -205 -94 -437q-61 -195 -138 -317q-74 -129 -219 -129h-102q-21 0 -36 13t-20 34l-184 950h180z" />
    <glyph glyph-name="Wdieresis" unicode="&#x1e84;" horiz-adv-x="1931" 
d="M930 1780h53q28 0 38 -11.5t7 -37.5l-18 -113q-6 -49 -54 -49h-57q-51 0 -45 47l18 115q6 49 58 49zM1276 1780h53q28 0 38 -11.5t7 -37.5l-18 -113q-6 -49 -53 -49h-58q-51 0 -45 47l19 115q6 49 57 49zM1985 1413l-482 -1364q-15 -49 -73 -49h-201q-27 0 -46 16.5
t-20 42.5l-73 1063q-1 15 -6.5 70t-6.5 86h-43l-55 -164l-367 -1063q-15 -51 -73 -51h-199q-28 0 -47.5 16t-20.5 41l-102 1356h184l66 -1104q1 -10 6 -176h49l60 182l362 1041q15 57 74 57h194q26 0 43 -18t19 -45l84 -1043q8 -114 8 -174h51l55 178l371 1102h189z" />
    <glyph glyph-name="wdieresis" unicode="&#x1e85;" horiz-adv-x="1740" 
d="M778 1413h53q30 0 40.5 -12t5.5 -37l-17 -113q-6 -49 -55 -49h-57q-49 0 -43 47l16 115q9 49 57 49zM1124 1413h54q30 0 40 -11.5t5 -37.5l-17 -113q-6 -49 -55 -49h-57q-49 0 -43 47l16 115q9 49 57 49zM414 137h26q28 0 50.5 15.5t46.5 56.5q59 103 112 280
q59 176 107 465q3 20 16.5 31.5t32.5 11.5h190q18 0 30.5 -11.5t14.5 -29.5l101 -819h24q44 0 84 64q34 54 51 83t43.5 83.5t51.5 121.5q83 213 133 508h182q-76 -338 -182 -579q-96 -219 -176 -320q-40 -52 -79 -75t-97 -23h-115q-23 0 -37.5 13t-17.5 34l-95 836h-26
q-21 -205 -94 -437q-61 -195 -138 -317q-74 -129 -219 -129h-102q-21 0 -36 13t-20 34l-184 950h180z" />
    <glyph glyph-name="Ygrave" unicode="&#x1ef2;" horiz-adv-x="1157" 
d="M743 1491l-378 256l94 123l348 -301zM649 494l-69 -494h-183l72 502l-338 911h184l213 -600q31 -96 41 -160h17q29 83 84 166l381 594h196z" />
    <glyph glyph-name="ygrave" unicode="&#x1ef3;" horiz-adv-x="1103" 
d="M639 1122l-379 256l94 123l346 -301zM891 997h180q-54 -238 -124 -437t-179 -394q-107 -200 -212.5 -323t-210.5 -181.5t-241 -83.5l-32 125q125 30 224.5 97t192.5 200h-90q-44 0 -75.5 25t-40.5 67l-193 905h182l158 -821q9 -39 47 -39h98q6 12 20 38.5t21 41.5
q101 197 165.5 375.5t109.5 404.5z" />
    <glyph glyph-name="endash" unicode="&#x2013;" horiz-adv-x="1210" 
d="M1042 451h-917l18 133h918z" />
    <glyph glyph-name="emdash" unicode="&#x2014;" horiz-adv-x="1832" 
d="M1665 451h-1540l18 133h1540z" />
    <glyph glyph-name="quoteleft" unicode="&#x2018;" horiz-adv-x="444" 
d="M303 1006h-51q-35 0 -48 14.5t-7 46.5l16 125q19 131 115 293l84 -29q-5 -15 -17.5 -53.5t-18.5 -57.5t-15 -52.5t-15 -65.5q28 3 42 -12t11 -39l-18 -113q-6 -34 -21.5 -45.5t-56.5 -11.5z" />
    <glyph glyph-name="quoteright" unicode="&#x2019;" horiz-adv-x="440" 
d="M317 1466h52q35 0 48 -14.5t7 -48.5l-16 -123q-19 -131 -115 -293l-84 27q51 159 65 229q-29 -1 -42.5 13.5t-10.5 39.5l19 113q6 34 21 45.5t56 11.5z" />
    <glyph glyph-name="quotesinglbase" unicode="&#x201a;" horiz-adv-x="466" 
d="M160 225h53q35 0 48 -14.5t7 -48.5l-18 -123q-16 -127 -115 -295l-86 29q5 15 17.5 53.5t18.5 57.5t15 52.5t15 65.5q-28 -1 -42 13t-12 40l19 113q8 33 24 45t56 12z" />
    <glyph glyph-name="quotedblleft" unicode="&#x201c;" horiz-adv-x="755" 
d="M616 1006h-53q-35 0 -47 14t-6 47l16 125q16 129 113 293l86 -29q-49 -141 -66 -229q27 3 41.5 -12t12.5 -39l-19 -113q-8 -34 -23.5 -45.5t-54.5 -11.5zM303 1006h-51q-35 0 -48 14.5t-7 46.5l16 125q19 131 115 293l84 -29q-5 -15 -17.5 -53.5t-18.5 -57.5t-15 -52.5
t-15 -65.5q28 3 42 -12t11 -39l-18 -113q-6 -34 -21.5 -45.5t-56.5 -11.5z" />
    <glyph glyph-name="quotedblright" unicode="&#x201d;" horiz-adv-x="753" 
d="M317 1466h52q35 0 48 -14.5t7 -48.5l-16 -123q-19 -131 -115 -293l-84 27q51 159 65 229q-29 -1 -42.5 13.5t-10.5 39.5l19 113q6 34 21 45.5t56 11.5zM629 1466h53q35 0 48 -14.5t7 -48.5l-18 -123q-16 -129 -113 -293l-86 27q52 150 66 229q-27 -1 -40.5 13.5
t-10.5 39.5l16 113q8 34 23.5 45.5t54.5 11.5z" />
    <glyph glyph-name="quotedblbase" unicode="&#x201e;" horiz-adv-x="778" 
d="M158 223h51q35 0 48 -14.5t7 -48.5l-16 -123q-20 -135 -115 -293l-84 27q5 15 17.5 53.5t18.5 57.5t15 52.5t15 65.5q-29 -1 -43 13.5t-11 39.5l19 113q6 34 21.5 45.5t56.5 11.5zM471 223h51q35 0 48.5 -14.5t7.5 -48.5l-19 -123q-17 -133 -113 -293l-86 27
q53 152 66 229q-27 -1 -40.5 13.5t-10.5 39.5l16 113q8 34 23.5 45.5t56.5 11.5z" />
    <glyph glyph-name="dagger" unicode="&#x2020;" horiz-adv-x="917" 
d="M422 -225h-158l164 1114l14 98l52 428h159l-67 -428l-15 -98zM891 997l-21 -153l-264 20l19 133h266zM117 844l20 153h266l-16 -133z" />
    <glyph glyph-name="daggerdbl" unicode="&#x2021;" horiz-adv-x="999" 
d="M627 993l-113 -798l-51 -420h-160l68 420l112 798l52 422h159zM426 864l-270 -20l22 153h266zM909 844l-264 20l21 133h266zM352 326l-18 -133h-268l20 153zM819 193h-266l18 133l269 20z" />
    <glyph glyph-name="bullet" unicode="&#x2022;" horiz-adv-x="739" 
d="M375 733h24q94 0 129 -39.5t23 -134.5l-4 -27q-13 -100 -53.5 -135t-137.5 -35h-24q-100 0 -135 40.5t-21 140.5l4 26q12 96 53 130t142 34z" />
    <glyph glyph-name="ellipsis" unicode="&#x2026;" horiz-adv-x="1722" 
d="M150 242h57q68 0 59 -68l-16 -113q-6 -61 -68 -61h-57q-71 0 -62 68l17 114q9 60 70 60zM780 242h58q68 0 59 -68l-14 -113q-9 -61 -70 -61h-57q-71 0 -62 68l17 114q5 31 21 45.5t48 14.5zM1411 242h59q69 0 60 -68l-17 -113q-6 -61 -67 -61h-60q-70 0 -61 68l18 114
q6 60 68 60z" />
    <glyph glyph-name="perthousand" unicode="&#x2030;" horiz-adv-x="2592" 
d="M526 1440q185 0 248.5 -99t32.5 -327q-33 -226 -116 -320t-261 -94q-184 0 -247.5 99t-30.5 327q33 227 115 320.5t259 93.5zM438 0h-135l1114 1413h135zM530 1329q-123 0 -172 -67.5t-75 -247.5q-23 -172 6.5 -237.5t134.5 -65.5q124 0 175 68t75 247q25 171 -5 237
t-139 66zM1430 819q186 0 248.5 -99t29.5 -329q-31 -224 -115 -317.5t-262 -93.5q-184 0 -246.5 99t-29.5 327q31 226 114 319.5t261 93.5zM2187 819q187 0 250.5 -99t30.5 -329q-31 -224 -115 -317.5t-262 -93.5q-184 0 -246.5 99t-29.5 327q31 226 113.5 319.5t258.5 93.5
zM1434 709q-64 0 -106 -16.5t-69.5 -57t-43.5 -96.5t-29 -148q-24 -171 5.5 -237t135.5 -66q124 0 175 69t75 249q25 171 -4.5 237t-138.5 66zM2193 709q-64 0 -105.5 -16.5t-69.5 -57t-43.5 -96.5t-28.5 -148q-25 -171 5 -237t136 -66q64 0 106 16.5t70.5 57t44.5 96.5
t29 148q25 170 -5.5 236.5t-138.5 66.5z" />
    <glyph glyph-name="guilsinglleft" unicode="&#x2039;" horiz-adv-x="606" 
d="M532 874l-313 -362l223 -373l-88 -59l-278 424l2 39l383 397z" />
    <glyph glyph-name="guilsinglright" unicode="&#x203a;" horiz-adv-x="608" 
d="M506 518l-2 -39l-383 -399l-72 65l313 365l-221 373l86 57z" />
    <glyph glyph-name="fraction" unicode="&#x2044;" horiz-adv-x="327" 
d="M-305 0h-139l1103 1413h140z" />
    <glyph glyph-name="Euro" unicode="&#x20ac;" horiz-adv-x="1298" 
d="M1282 1395l-29 -138q-159 24 -311 19q-174 -6 -274 -91t-152 -274h522l-30 -108h-516q-7 -29 -19 -107l-6 -53h463l-31 -108h-442q-8 -206 63.5 -300t241.5 -98q179 -7 352 25l8 -142q-152 -45 -354 -45q-270 0 -388.5 138t-107.5 422h-178l17 108h170l8 70q7 54 14 90
h-170l17 108h176q67 271 215 399t413 128q184 0 328 -43z" />
    <glyph glyph-name="trademark" unicode="&#x2122;" horiz-adv-x="1959" 
d="M895 1321h-270l-95 -674h-124l92 674h-267l13 104h665zM1710 1425h133q23 0 35.5 -15t9.5 -38l-69 -725h-117l63 682h-22l-264 -553q-9 -21 -21 -29t-33 -8h-96q-21 0 -34 12t-15 33l-115 545h-24l-123 -682h-117l133 733q5 24 15.5 34.5t33.5 10.5h129q20 0 33 -12
t15 -31l94 -452q3 -18 8 -54.5t8 -54.5h25q17 51 43 109l219 459q16 36 53 36z" />
    <glyph glyph-name="partialdiff" unicode="&#x2202;" horiz-adv-x="1167" 
d="M369 1307l8 133q123 1 216 -6.5t177 -28.5t139.5 -58t97 -94.5t58 -138t14 -188t-27.5 -244.5q-62 -357 -201.5 -532t-388.5 -175q-97 0 -171.5 26.5t-118.5 73t-70 109.5t-26.5 135.5t13.5 151.5q40 205 162 327.5t317 121.5q217 -4 320 -164q19 114 22.5 193.5t-13 144
t-53 103.5t-102 65t-155 36t-217.5 9zM465 131q88 0 155.5 37.5t114.5 112t78 164.5t55 214q-108 113 -264 113q-278 0 -344 -315q-32 -155 19 -240.5t186 -85.5z" />
    <glyph glyph-name="emptyset" unicode="&#x2205;" horiz-adv-x="1402" 
d="M717 1296q122 0 232.5 -47.5t190.5 -127.5t127.5 -190.5t47.5 -232.5t-47.5 -233.5t-127.5 -191.5t-190.5 -127.5t-232.5 -47.5t-233.5 47.5t-191.5 127.5t-127.5 191.5t-47.5 233.5t47.5 232.5t127.5 190.5t191.5 127.5t233.5 47.5zM653 494h111q0 59 20 108.5t48 84
t56 68t48 77t20 94.5q0 190 -239 190q-39 0 -68.5 -1t-56.5 -3.5t-40 -4t-43 -6.5l-42 -7l6 -93q130 19 244 19q64 0 99.5 -25t35.5 -69q0 -36 -20.5 -72.5t-50 -70.5t-58.5 -72.5t-49.5 -95t-20.5 -121.5zM750 350h-80q-15 0 -15 -16v-76q0 -14 15 -14h80q16 0 16 14v76
q0 16 -16 16z" />
    <glyph glyph-name="product" unicode="&#x220f;" horiz-adv-x="1472" 
d="M1485 1266h-213l-207 -1477h-174l209 1477h-547l-207 -1477h-174l207 1477h-213l20 147h1321z" />
    <glyph glyph-name="summation" unicode="&#x2211;" horiz-adv-x="1202" 
d="M1174 1266h-771l267 -557l-471 -787h807l-21 -145h-1001l18 145l479 791l-262 553l19 147h956z" />
    <glyph glyph-name="minus" unicode="&#x2212;" horiz-adv-x="1200" 
d="M1038 539h-897l21 131h897z" />
    <glyph glyph-name="radical" unicode="&#x221a;" horiz-adv-x="1153" 
d="M1274 1794l-780 -1782q-5 -12 -23 -12h-203q-10 0 -18.5 6.5t-7.5 13.5l-123 977h143l107 -878h26l727 1675h152z" />
    <glyph glyph-name="infinity" unicode="&#x221e;" horiz-adv-x="1591" 
d="M1225 913q125 0 196.5 -73t53.5 -211q-21 -140 -115.5 -215.5t-224.5 -75.5q-61 0 -113 16t-93.5 46t-70.5 60t-61 72q-107 -92 -202 -143t-202 -51q-132 0 -209.5 81t-56.5 224q18 135 105.5 202.5t213.5 67.5q80 0 148.5 -30.5t110.5 -70t94 -103.5q65 56 119.5 95
t140 74t166.5 35zM272 625q-10 -78 28.5 -118t119.5 -40q44 0 82.5 11.5t80 41t64.5 49.5t74 68q-38 51 -66 79t-74 48t-106 20q-180 0 -203 -159zM1325 639q20 145 -133 145q-29 0 -56 -5t-53.5 -17.5t-45 -22.5t-44.5 -31.5t-38 -32t-39.5 -37t-36.5 -34.5
q25 -34 41 -52.5t44 -41t64.5 -33t83.5 -10.5q87 0 144 44.5t69 127.5z" />
    <glyph glyph-name="integral" unicode="&#x222b;" horiz-adv-x="755" 
d="M242 -145l98 1339q21 268 258 268q137 0 207 -8l-25 -125h-127q-76 0 -116.5 -40.5t-47.5 -131.5l-98 -1343q-11 -138 -73.5 -203.5t-194.5 -65.5q-133 0 -197 9l25 124h123q79 0 120 41t48 136z" />
    <glyph glyph-name="approxequal" unicode="&#x2248;" horiz-adv-x="1200" 
d="M281 666l-113 8q1 130 59 187t158 54q76 -2 237 -59t232 -59q55 -2 81 21.5t36 90.5l116 -8q-2 -122 -56.5 -180t-168.5 -57q-67 1 -154.5 30t-171.5 58.5t-139 31.5q-54 2 -80 -23.5t-36 -94.5zM225 274l-114 7q1 131 59.5 188.5t159.5 54.5q77 -2 238 -60t231 -61
q54 -2 80 22.5t36 90.5l117 -6q-2 -123 -56.5 -181t-168.5 -57q-67 1 -154.5 30t-171.5 59t-139 32q-54 0 -80.5 -25t-36.5 -94z" />
    <glyph glyph-name="notequal" unicode="&#x2260;" horiz-adv-x="1255" 
d="M762 752l-225 -303h518l-19 -132h-598l-188 -251l-53 28l168 223h-226l17 132h307l225 303h-489l16 129h569l166 223l54 -29l-146 -194h256l-18 -129h-334z" />
    <glyph glyph-name="lessequal" unicode="&#x2264;" horiz-adv-x="1157" 
d="M1047 956l-715 -217l657 -202l-20 -136l-801 269l20 139l879 287zM956 162h-878l18 129h879z" />
    <glyph glyph-name="greaterequal" unicode="&#x2265;" horiz-adv-x="1153" 
d="M1024 809l-18 -139l-877 -269l23 146l710 205l-651 213l16 131zM956 162h-878l18 129h879z" />
    <glyph glyph-name="lozenge" unicode="&#x25ca;" 
d="M86 729l598 688q16 22 31 -4l401 -690q11 -22 2 -35l-596 -694q-9 -9 -18.5 -7t-14.5 13l-403 694q-11 22 0 35zM227 707l297 -529l459 537l-301 524z" />
    <glyph glyph-name="c_t" horiz-adv-x="1685" 
d="M1354 860l-84 -590q-9 -72 15.5 -100.5t96.5 -28.5h156l6 -133q-95 -26 -223 -26q-129 0 -186.5 71t-38.5 201l86 608h-523q-96 0 -158 -15.5t-109.5 -57t-74 -112.5t-41.5 -185q-10 -78 -10.5 -134t9.5 -98t29 -68t53 -41.5t75.5 -21.5t102.5 -6q171 0 299 20l12 -118
q-158 -50 -342 -50q-262 0 -356 122.5t-54 408.5q41 268 162 379.5t375 111.5h569l43 295h172l-43 -295h318l-19 -137h-317z" />
    <glyph glyph-name="f_f_y" horiz-adv-x="2488" 
d="M2273 997h183q-56 -238 -126.5 -437t-177.5 -394q-108 -200 -213.5 -323t-210.5 -181.5t-241 -83.5l-31 125q124 30 223.5 97.5t192.5 199.5h-90q-44 0 -76 25.5t-41 66.5l-143 676q-21 92 -117 92h-277l-135 -950q-42 -289 -315 -289q-106 0 -238 14l27 132h156
q98 0 141.5 35t58.5 135l129 923h-503l-142 -983q-42 -289 -315 -289q-97 0 -238 15l27 131h156q98 0 141.5 35t58.5 135l135 956h-182l16 127l187 8l22 160q39 287 322 287q189 0 283 -12l-27 -132h-201q-101 0 -146.5 -35.5t-60.5 -134.5l-18 -131h506l24 183
q42 288 324 288q174 0 283 -14l-27 -129h-201q-101 0 -146.5 -36t-60.5 -136l-22 -156h315q193 0 230 -190l120 -631q9 -39 48 -39h98q17 31 41 80q100 193 164 372t110 408z" />
    <glyph glyph-name="f_t" horiz-adv-x="1460" 
d="M1126 860l-82 -590q-10 -72 14.5 -100.5t98.5 -28.5h154l8 -133q-98 -26 -223 -26q-130 0 -188.5 71t-39.5 201l86 606h-508l-139 -983q-39 -289 -315 -289q-97 0 -238 15l27 131h156q98 0 141.5 35t58.5 135l133 956h-178l17 127l182 8l24 185q42 288 324 288
q174 0 283 -14l-27 -129h-201q-101 0 -146.5 -36t-60.5 -136l-22 -156h510l41 295h172l-41 -295h317l-18 -137h-320z" />
    <glyph glyph-name="f_y" horiz-adv-x="1802" 
d="M1589 997h180q-54 -238 -124 -437t-179 -394q-107 -200 -212 -323t-210 -181.5t-241 -83.5l-33 125q125 30 225 97t193 200h-90q-44 0 -76 25.5t-41 66.5l-145 676q-18 92 -115 92h-277l-137 -983q-39 -289 -315 -289q-97 0 -238 15l27 131h156q98 0 141.5 35t58.5 135
l131 956h-180l18 127l183 8l24 185q42 288 322 288q173 0 285 -14l-29 -129h-201q-101 0 -146.5 -36t-58.5 -136l-22 -156h315q193 0 230 -190l120 -631q3 -18 15.5 -28.5t30.5 -10.5h98q32 57 43 80q100 196 164.5 374.5t109.5 405.5z" />
    <glyph glyph-name="s_t" horiz-adv-x="1751" 
d="M1417 860l-82 -590q-10 -72 14.5 -100.5t98.5 -28.5h154l8 -133q-44 -12 -113.5 -19t-110.5 -7q-130 0 -188 71t-39 201l86 606h-700q-141 2 -192.5 -13t-59.5 -73q-8 -56 19 -83.5t102 -61.5l278 -123q82 -36 125.5 -70t63.5 -85.5t10 -127.5q-9 -66 -35 -111.5
t-62 -71.5t-96.5 -40.5t-120.5 -18.5t-153 -4q-69 0 -123 2.5t-82 5.5t-84 10t-92 11l20 127q122 -10 320 -10q191 2 258.5 24.5t79.5 92.5q5 37 -7.5 60.5t-33 36t-65.5 32.5q-15 6 -23 10l-279 123q-111 50 -157 113.5t-33 170.5q18 122 117.5 168t300.5 43h725l41 295
h172l-41 -295h317l-18 -137h-320z" />
    <glyph glyph-name="t_t" horiz-adv-x="1492" 
d="M1161 860l-82 -590q-10 -72 14.5 -100.5t96.5 -28.5h156l6 -133q-45 -12 -113.5 -19t-110.5 -7q-128 0 -186 71t-39 201l86 606h-549l-82 -590q-10 -72 14.5 -100.5t96.5 -28.5h156l6 -133q-95 -26 -223 -26t-186.5 71t-39.5 201l86 606h-182l16 127l187 8l41 297h172
l-41 -295h549l41 295h172l-41 -295h317l-20 -137h-318z" />
    <glyph glyph-name="t_y" horiz-adv-x="1851" 
d="M1638 997h181q-54 -238 -124 -437t-179 -394q-81 -151 -159 -256t-159.5 -172.5t-163 -104.5t-182.5 -55l-33 125q125 30 225 97t193 200h-92q-43 0 -75.5 25.5t-41.5 66.5l-143 676q-21 92 -115 92h-330l-82 -590q-10 -72 14.5 -100.5t96.5 -28.5h156l6 -133
q-95 -26 -223 -26t-186.5 71t-39.5 201l86 606h-182l16 127l187 8l41 297h172l-41 -295h342q215 0 256 -213l119 -608q6 -39 45 -39h98q32 57 43 80q98 192 162 371t112 409z" />
    <glyph glyph-name="brevecy" horiz-adv-x="765" 
d="M686 1421h133q-9 -124 -100 -201t-234 -77q-150 0 -226.5 77t-51.5 201h131q-26 -182 158 -182q170 0 190 182z" />
    </font>
</defs>
</svg>
