<?xml version="1.0" standalone="no"?>
<!DOCTYPE svg PUBLIC "-//W3C//DTD SVG 1.1//EN" "http://www.w3.org/Graphics/SVG/1.1/DTD/svg11.dtd" >
<svg xmlns="http://www.w3.org/2000/svg" xmlns:xlink="http://www.w3.org/1999/xlink" version="1.1">
<metadata>
Created by FontForge 20170731 at Sun Apr  4 19:58:03 2021
 By Aleksey,,,
Copyright (c) 2013, Natanael Gama (www.ndiscovered.com . info(at)ndiscovered.com), with Reserved Font Name Exo. This Font Software is licensed under the SIL Open Font License, Version 1.1.
</metadata>
<defs>
<font id="Exo2.0-SemiBoldItalic" horiz-adv-x="1189" >
  <font-face 
    font-family="Exo 2.0 Semi Bold"
    font-weight="600"
    font-style="italic"
    font-stretch="normal"
    units-per-em="2048"
    panose-1="0 0 7 0 0 0 0 0 0 0"
    ascent="1638"
    descent="-410"
    x-height="1004"
    cap-height="1413"
    bbox="-446 -588 2572 1935"
    underline-thickness="102"
    underline-position="-307"
    slope="-8"
    unicode-range="U+0020-FB02"
  />
<missing-glyph horiz-adv-x="1228" 
 />
    <glyph glyph-name="fi" unicode="fi" horiz-adv-x="1304" 
d="M1221 1004l-142 -1004h-250l115 823h-438l-133 -925q-43 -299 -340 -299q-118 0 -266 18l40 176h146q88 0 126.5 29t51.5 115l125 886h-178l22 170l183 11l20 145q23 161 103 242.5t241 81.5q140 0 260 -19l-24 -176h-156q-85 0 -127 -39t-55 -131l-15 -104h691z
M1092 1442h114q35 0 54 -21t14 -55l-14 -113q-6 -35 -23.5 -50t-52.5 -15h-115q-37 0 -55.5 20t-12.5 56l17 110q3 36 20.5 52t53.5 16z" />
    <glyph glyph-name="fl" unicode="fl" horiz-adv-x="1421" 
d="M1325 172l12 -162q-32 -15 -97.5 -24t-111.5 -9q-129 0 -194.5 68.5t-50.5 187.5l147 1047h-303q-85 1 -126.5 -38.5t-55.5 -133.5l-15 -104h273l-25 -181h-274l-129 -925q-21 -144 -106 -221.5t-236 -77.5q-116 0 -264 18l38 176h146q89 0 127 28.5t51 115.5l125 886
h-178l22 170l181 11l20 145q24 162 104.5 243.5t241.5 80.5q462 0 649 -33l-157 -1157q-6 -59 15.5 -85t80.5 -26h90z" />
    <glyph glyph-name="f_f" unicode="ff" horiz-adv-x="1517" 
d="M1632 1278h-190q-89 0 -127 -28.5t-51 -116.5l-17 -129h291l-25 -181h-292l-129 -905q-21 -143 -105.5 -221t-234.5 -78q-85 0 -267 19l41 176h146q88 0 126.5 29t51.5 116l121 864h-465l-133 -925q-43 -299 -340 -299q-118 0 -266 18l40 176h144q90 0 128.5 29t51.5 115
l127 886h-180l20 170l187 11l20 149q21 143 106.5 221t235.5 78q180 0 303 -18l-41 -177h-182q-90 0 -128 -28.5t-50 -116.5l-17 -108h465l25 170q21 143 105.5 221t234.5 78q176 0 309 -19z" />
    <glyph glyph-name="f_f_i" unicode="ffi" horiz-adv-x="2017" 
d="M1933 1004l-143 -1004h-248l115 823h-436l-129 -905q-21 -143 -105.5 -221t-234.5 -78q-85 0 -267 19l41 176h146q88 0 126.5 29t51.5 116l121 864h-465l-133 -925q-43 -299 -340 -299q-118 0 -266 18l40 176h144q90 0 128.5 29t51.5 115l127 886h-180l20 170l187 11
l20 149q21 143 106.5 221t235.5 78q180 0 303 -18l-41 -177h-182q-90 0 -128 -28.5t-50 -116.5l-17 -108h465l25 170q21 143 105.5 221t234.5 78q171 0 301 -19l-39 -176h-182q-89 0 -127 -28.5t-51 -116.5l-17 -129h686zM1804 1442h113q37 0 55.5 -21t12.5 -55l-15 -113
q-5 -35 -22 -50t-54 -15h-114q-36 0 -54 20t-14 56l17 110q5 36 22 52t53 16z" />
    <glyph glyph-name="f_f_l" unicode="ffl" horiz-adv-x="2138" 
d="M2036 172l12 -162q-30 -15 -95.5 -24t-111.5 -9q-130 0 -195.5 68.5t-50.5 187.5l148 1047h-305q-85 2 -127 -38t-54 -134l-16 -104h277l-25 -181h-276l-130 -905q-21 -144 -105 -221.5t-234 -77.5q-85 0 -267 19l41 176h144q89 0 127.5 29t50.5 116l123 864h-461
l-133 -925q-43 -299 -340 -299q-118 0 -266 18l40 176h144q90 0 128.5 29t51.5 115l127 886h-180l20 170l187 11l20 149q21 143 106.5 221t235.5 78q180 0 303 -18l-41 -177h-182q-90 0 -128 -28.5t-50 -116.5l-17 -108h461l21 145q23 162 103 243.5t241 80.5q462 0 651 -33
l-158 -1157q-8 -59 14.5 -85t80.5 -26h90z" />
    <glyph glyph-name=".notdef" horiz-adv-x="1228" 
 />
    <glyph glyph-name=".null" horiz-adv-x="0" 
 />
    <glyph glyph-name="nonmarkingreturn" horiz-adv-x="682" 
 />
    <glyph glyph-name="space" unicode=" " horiz-adv-x="450" 
 />
    <glyph glyph-name="exclam" unicode="!" horiz-adv-x="583" 
d="M446 840l-77 -398h-197l31 398l82 583h245zM211 281h59q98 0 80 -93l-12 -104q-9 -84 -94 -84h-58q-98 0 -86 94l17 105q9 82 94 82z" />
    <glyph glyph-name="quotedbl" unicode="&#x22;" horiz-adv-x="747" 
d="M346 967h-160l47 446h193zM664 967h-162l47 446h192z" />
    <glyph glyph-name="numbersign" unicode="#" horiz-adv-x="1427" 
d="M1139 891l-101 -322h226l-52 -151h-221l-131 -418h-192l131 418h-322l-131 -418h-192l131 418h-240l51 151h236l102 322h-237l53 153h231l117 369h193l-117 -369h321l117 369h193l-117 -369h229l-53 -153h-225zM948 891h-323l-101 -322h322z" />
    <glyph glyph-name="dollar" unicode="$" horiz-adv-x="1161" 
d="M1128 1389l-26 -181q-282 6 -316 6l-92 -403l111 -39q156 -58 206 -152t29 -258q-16 -120 -51 -194.5t-102 -118t-156.5 -59t-230.5 -15.5h-15l-51 -225h-102l51 227q-191 12 -340 46l31 186l360 -8l92 411l-127 47q-148 55 -201 154t-32 254q13 95 43 161.5t71 107
t105.5 63.5t134 31t168.5 8h47l43 192h105l-45 -196q158 -10 290 -45zM600 846l84 371h-48t-41 -1t-37.5 -3.5t-30.5 -6.5t-28 -10.5t-22 -15.5t-19.5 -21.5t-14.5 -28.5t-12.5 -36.5t-8.5 -46.5q-4 -31 -4.5 -53t5 -40t13 -29t25 -22t35.5 -18.5t49 -18.5zM623 578
l-86 -377q133 3 182.5 38t64.5 142q7 62 -2.5 94.5t-33.5 49.5t-80 36z" />
    <glyph glyph-name="percent" unicode="%" horiz-adv-x="1849" 
d="M518 1440q195 0 262 -98t35 -332q-32 -229 -116 -319.5t-269 -90.5q-192 0 -259.5 98.5t-35.5 331.5q34 229 117.5 319.5t265.5 90.5zM489 0h-180l1073 1413h183zM522 1292q-103 0 -141 -56.5t-62 -225.5q-23 -154 -1 -208t108 -54q106 0 144.5 56t62.5 226
q22 153 -1 207.5t-110 54.5zM1444 817q195 0 262 -98t35 -332q-32 -229 -116.5 -319.5t-270.5 -90.5q-191 0 -258 98.5t-35 330.5q34 229 117.5 320t265.5 91zM1448 670q-54 0 -87.5 -13t-56 -48.5t-35 -85.5t-24.5 -136q-23 -155 -1 -209.5t108 -54.5q105 0 144 57t63 226
q22 154 -1 209t-110 55z" />
    <glyph glyph-name="ampersand" unicode="&#x26;" horiz-adv-x="1521" 
d="M1458 637h-186q-32 -208 -113 -342q-193 -318 -665 -318q-244 0 -342.5 92.5t-75.5 299.5q40 340 327 360l3 10q-119 9 -166.5 97t-22.5 239q15 92 48.5 157t78.5 104.5t113.5 62t140 30t172.5 7.5q188 0 356 -43l-43 -185q-125 25 -303 25q-85 0 -136 -7.5t-89 -31
t-57 -64t-29 -108.5q-18 -117 22.5 -158t167.5 -41h410q4 74 4 238h221q3 -112 -4 -238h195zM1051 637h-416q-139 0 -203 -52t-84 -188q-15 -115 23 -159.5t164 -44.5q288 0 417 190q70 96 99 254z" />
    <glyph glyph-name="quotesingle" unicode="'" horiz-adv-x="434" 
d="M346 967h-160l47 446h193z" />
    <glyph glyph-name="parenleft" unicode="(" horiz-adv-x="737" 
d="M795 1620l28 -115q-202 -90 -319.5 -303t-167.5 -571q-47 -339 5.5 -552.5t225.5 -305.5l-32 -107q-280 101 -387.5 344t-51.5 639q57 401 225 635.5t474 335.5z" />
    <glyph glyph-name="parenright" unicode=")" horiz-adv-x="737" 
d="M182 1507l33 109q280 -101 387.5 -343t50.5 -644q-57 -398 -224.5 -632.5t-473.5 -336.5l-29 115q391 185 488 876q47 345 -6 557t-226 299z" />
    <glyph glyph-name="asterisk" unicode="*" horiz-adv-x="919" 
d="M575 1079l179 -264l-117 -84l-117 250l-184 -248l-109 82l250 262l25 338h145zM451 1147l-9 -62l-34 -38l-248 65l55 133zM903 1104l-258 -57l-27 38l5 62l254 96z" />
    <glyph glyph-name="plus" unicode="+" horiz-adv-x="1112" 
d="M1004 522h-365l-49 -350h-187l50 350h-367l27 185h364l49 350h189l-51 -350h366z" />
    <glyph glyph-name="comma" unicode="," horiz-adv-x="487" 
d="M170 281h63q50 0 68.5 -22t11.5 -71l-16 -131q-24 -173 -137 -348l-115 39q5 17 19 60.5t21 66t17 59t17 70.5q-40 -3 -58.5 18.5t-15.5 59.5l16 115q9 50 31.5 67t77.5 17z" />
    <glyph glyph-name="hyphen" unicode="-" horiz-adv-x="874" 
d="M721 432h-615l25 176h614z" />
    <glyph glyph-name="period" unicode="." horiz-adv-x="481" 
d="M156 281h73q94 0 82 -93l-14 -104q-9 -84 -94 -84h-74q-96 0 -84 94l16 105q9 82 95 82z" />
    <glyph glyph-name="slash" unicode="/" horiz-adv-x="1110" 
d="M152 -141h-205l1024 1554h205z" />
    <glyph glyph-name="zero" unicode="0" horiz-adv-x="1257" 
d="M731 1440q288 0 386 -175t42 -569t-192 -558.5t-412 -164.5q-283 0 -383 173.5t-43 570.5q54 395 189.5 559t412.5 164zM725 1225q-80 0 -135.5 -25.5t-97 -88.5t-68.5 -161t-47 -250q-30 -193 -21.5 -306.5t55 -159.5t146.5 -46q160 0 236.5 113.5t117.5 411.5
q30 193 20.5 306.5t-57 159.5t-149.5 46z" />
    <glyph glyph-name="one" unicode="1" horiz-adv-x="843" 
d="M551 0h-256l147 1047q10 76 29 141l-342 -101l-8 183l373 143h256z" />
    <glyph glyph-name="two" unicode="2" horiz-adv-x="1155" 
d="M215 1190v199q243 49 451 49q85 0 149.5 -8t121.5 -30t91 -58.5t50 -94.5t7 -137q-14 -125 -77 -229.5t-217 -251.5l-424 -400q88 13 211 13h434l-33 -242h-963l23 158q11 76 43 108l426 406q161 148 235.5 246.5t83.5 185.5q8 70 -34.5 90t-153.5 20q-206 0 -424 -24z
" />
    <glyph glyph-name="three" unicode="3" horiz-adv-x="1136" 
d="M225 1208v195q234 37 414 37q237 0 334 -83t82 -255q-5 -59 -21 -116.5t-45 -111t-77 -89t-109 -40.5l-2 -8q246 -41 200 -348q-10 -71 -33 -129.5t-66 -111.5t-104.5 -90t-151.5 -59.5t-204 -25.5q-171 -6 -424 37l27 197q38 -2 105.5 -6.5t94 -5.5t89 -2.5t90.5 2.5
q156 10 230.5 71t93.5 168q18 100 -26.5 154t-174.5 55l-268 6l24 185h260q69 0 116.5 16.5t74 49t39 69t18.5 88.5q7 68 -6.5 101t-63 48t-155.5 15q-192 0 -361 -13z" />
    <glyph glyph-name="four" unicode="4" horiz-adv-x="1273" 
d="M1190 518l-25 -172l-180 -27h-4l-45 -319h-240l45 319h-512q-76 0 -125 40.5t-55 98.5t27 122l487 833h254l-475 -825q-22 -40 -14.5 -55t41.5 -15h399l55 393l76 230h197l-86 -623h180z" />
    <glyph glyph-name="five" unicode="5" horiz-adv-x="1103" 
d="M1040 1202h-573l-59 -303l157 -18q232 -25 336.5 -131.5t81.5 -307.5q-8 -68 -27 -128t-58.5 -121.5t-96 -106t-145 -75t-199.5 -36.5q-207 -10 -439 48l41 206q187 -40 342 -30q161 9 239.5 74t94.5 188q13 113 -48.5 159.5t-240.5 61.5l-180 16q-48 5 -74.5 39.5
t-17.5 81.5l117 594h790z" />
    <glyph glyph-name="six" unicode="6" horiz-adv-x="1179" 
d="M1102 1401l-27 -176q-100 4 -289 4q-79 0 -131.5 -11t-94.5 -37t-70.5 -77t-50 -122t-42.5 -181q75 65 162.5 97t171.5 32q76 0 134 -14.5t105 -47.5t71.5 -86.5t33.5 -132t-8 -184.5q-18 -127 -52 -213.5t-96 -151t-159 -95t-236 -30.5q-197 0 -294 71.5t-119.5 232.5
t18.5 421q17 120 38.5 216t49.5 170.5t59 129.5t71.5 94t83 64t98.5 39t112 19.5t129 5.5q150 0 332 -37zM825 479q15 92 9 148t-45 80t-125 24q-70 0 -142.5 -31.5t-161.5 -109.5q-15 -101 -18 -167t4.5 -115t32 -75t62.5 -37.5t98 -11.5q78 0 129.5 18t82.5 58.5t46.5 90
t27.5 128.5z" />
    <glyph glyph-name="seven" unicode="7" horiz-adv-x="1062" 
d="M174 1413h823q75 0 101.5 -42.5t-4.5 -110.5l-611 -1260h-256l527 1083q29 66 69 117h-667z" />
    <glyph glyph-name="eight" unicode="8" horiz-adv-x="1245" 
d="M371 735l2 8q-100 12 -137.5 98.5t-18.5 229.5q14 100 42.5 165.5t85.5 112.5t149 67.5t229 19.5q142 0 232.5 -23t138.5 -70.5t60.5 -120t-1.5 -171.5q-43 -292 -250 -316l-2 -8q237 -24 184 -385q-14 -99 -43.5 -163.5t-90 -112t-158.5 -69t-244 -22.5
q-273 0 -382.5 94.5t-84.5 292.5q24 169 89 264.5t200 108.5zM707 1241q-103 0 -156 -21t-75 -64t-34 -132q-12 -80 2 -120t63.5 -57.5t154.5 -17.5q142 0 192.5 43.5t65.5 169.5q15 76 1 120t-62 61.5t-152 17.5zM621 637q-65 -1 -106 -6.5t-75 -19.5t-53.5 -42t-33 -68.5
t-21.5 -103.5q-13 -85 1.5 -128t68.5 -63t167 -20q150 0 209 49t76 183q8 66 6.5 108.5t-29.5 67t-76 34t-134 9.5z" />
    <glyph glyph-name="nine" unicode="9" horiz-adv-x="1179" 
d="M82 12l31 178q158 -7 309 -4q79 2 134.5 17t97.5 44t71 81.5t50 120t40 169.5q-75 -75 -150.5 -106t-170.5 -31q-398 0 -347 469q15 138 55 232t108.5 150.5t159.5 81t218 24.5q116 0 194 -22t130.5 -71t74 -135t20 -206t-27.5 -291q-23 -152 -52 -264.5t-69.5 -195.5
t-88.5 -136t-115.5 -85t-143.5 -44.5t-178 -12.5q-189 0 -350 37zM551 680q83 0 147.5 30.5t151.5 112.5q12 86 17 143.5t2.5 106t-14.5 76t-37 47t-60 26.5t-88 7q-147 0 -206.5 -63.5t-80.5 -225.5q-16 -141 19 -200.5t149 -59.5z" />
    <glyph glyph-name="colon" unicode=":" horiz-adv-x="512" 
d="M231 913h74q97 0 82 -92l-12 -104q-6 -43 -29 -63.5t-67 -20.5h-72q-98 0 -86 94l16 104q6 43 28.5 62.5t65.5 19.5zM143 281h74q94 0 82 -93l-14 -104q-9 -84 -95 -84h-73q-96 0 -84 94l16 105q9 82 94 82z" />
    <glyph glyph-name="semicolon" unicode=";" horiz-adv-x="520" 
d="M260 913h72q49 0 69.5 -22.5t14.5 -69.5l-15 -104q-12 -84 -94 -84h-74q-98 0 -83 94l14 104q12 82 96 82zM188 281h64q50 0 68.5 -22t11.5 -71l-17 -131q-24 -173 -137 -348l-115 39q5 17 19 60.5t21 66t17 59t17 70.5q-40 -3 -58.5 18.5t-15.5 59.5l17 115q9 50 31 67
t77 17z" />
    <glyph glyph-name="less" unicode="&#x3c;" horiz-adv-x="1062" 
d="M973 850l-670 -242l600 -248l-26 -190l-799 346l26 195l897 342z" />
    <glyph glyph-name="equal" unicode="=" horiz-adv-x="1191" 
d="M1075 729h-921l24 182h922zM1016 297h-924l27 182h921z" />
    <glyph glyph-name="greater" unicode="&#x3e;" horiz-adv-x="1064" 
d="M991 711l-28 -195l-895 -342l26 203l672 248l-600 245l24 187z" />
    <glyph glyph-name="question" unicode="?" horiz-adv-x="1034" 
d="M170 1237v174q11 2 43 8t41.5 8t37 7t39.5 6.5t38.5 5t43.5 4.5t45.5 3t54.5 3t59.5 1.5t70.5 0.5q210 0 313 -82t80 -246q-8 -61 -35 -114.5t-63.5 -94t-80 -80t-88.5 -80.5t-84 -85.5t-70.5 -106t-45.5 -131.5h-204q11 101 54 188.5t96.5 148t107 112.5t94.5 106.5
t49 106.5q15 90 -25 120.5t-157 30.5q-174 0 -414 -14zM412 281h57q96 0 84 -93l-14 -104q-9 -84 -95 -84h-59q-99 0 -84 94l14 103q12 84 97 84z" />
    <glyph glyph-name="at" unicode="@" horiz-adv-x="1615" 
d="M207 1141l18 176q302 17 664 20q112 1 192 -3t152.5 -17.5t118.5 -35t83 -59t54.5 -86.5t25 -121t2 -158t-21.5 -202q-20 -165 -46 -276.5t-62.5 -191t-90 -122.5t-121.5 -62t-165 -19q-236 0 -269 190q-154 -199 -370 -199q-85 0 -143.5 25t-97.5 83.5t-45 153.5t15 236
q17 100 41 175t58 125t71.5 82t89.5 48.5t102.5 22.5t119.5 6q180 0 489 -58l-96 -608q-5 -45 8 -64.5t49 -19.5q45 0 76.5 17t55 49t41.5 95t31.5 137t29.5 192q14 93 21 153.5t4 115t-7.5 84t-32 55t-49 35.5t-79.5 17.5t-102.5 8t-137.5 0.5h-676zM811 739l-158 4
q-62 0 -101 -3t-74.5 -14.5t-55 -29t-37 -51.5t-28 -76.5t-21.5 -109.5q-15 -93 -17.5 -148.5t11.5 -85t36.5 -38.5t65.5 -9q85 0 155 47.5t165 159.5z" />
    <glyph glyph-name="A" unicode="A" horiz-adv-x="1298" 
d="M895 397h-528l-170 -397h-269l615 1350q21 63 94 63h252q32 0 56.5 -21.5t25.5 -52.5l239 -1339h-256zM862 614l-71 480q-3 19 -13 129h-61q-8 -22 -51 -127l-207 -482h403z" />
    <glyph glyph-name="B" unicode="B" horiz-adv-x="1282" 
d="M72 0l198 1413q185 17 488 17q133 0 220 -18t144 -61t75 -116.5t3 -183.5q-22 -153 -88 -228.5t-197 -87.5l-2 -10q152 -12 206 -110.5t28 -272.5q-13 -88 -38 -149t-62.5 -102.5t-96.5 -64.5t-130 -32.5t-173 -9.5q-378 0 -575 16zM440 825h250q131 0 188 44t74 167
q17 114 -26.5 150.5t-180.5 36.5h-249zM350 193l256 -3q152 0 212 44.5t79 175.5q13 93 -3 141t-65 67.5t-149 20.5h-266z" />
    <glyph glyph-name="C" unicode="C" horiz-adv-x="1175" 
d="M1030 221l12 -194q-97 -29 -195 -40.5t-239 -11.5q-314 0 -427.5 176t-57.5 566q28 206 75 341t126 221t189.5 122.5t270.5 36.5q141 0 227 -10.5t181 -36.5l-37 -193q-178 14 -377 14q-73 0 -124 -13t-95 -45.5t-74 -91.5t-53.5 -148t-40.5 -218q-31 -188 -17 -297.5
t69 -153t171 -44.5q225 -2 416 20z" />
    <glyph glyph-name="D" unicode="D" horiz-adv-x="1370" 
d="M72 0l198 1413q268 19 478 19q99 0 175.5 -11.5t139.5 -36.5t106.5 -66t73 -98t42 -134t10.5 -173t-19 -217q-17 -119 -37.5 -211.5t-49 -165.5t-60.5 -125.5t-77 -90.5t-92 -61t-112 -36.5t-130.5 -18.5t-154.5 -5q-203 0 -491 18zM500 1217l-144 -1016q156 -4 205 -4
q77 0 129 7t100 27.5t78.5 55.5t58 94.5t46 139.5t35.5 196q16 111 21 187t-3 134t-26.5 91.5t-56 54.5t-85 28t-119.5 7z" />
    <glyph glyph-name="E" unicode="E" horiz-adv-x="1157" 
d="M1139 1204h-545q-62 0 -90 -27t-35 -96l-35 -247h576l-25 -191h-575l-45 -317q-8 -66 14 -91.5t86 -25.5h532l-6 -197q-174 -16 -577 -16q-175 0 -253 84t-57 235l117 840q18 125 101 193.5t227 68.5q440 0 622 -18z" />
    <glyph glyph-name="F" unicode="F" horiz-adv-x="1114" 
d="M1126 1204h-505q-76 0 -105.5 -25t-38.5 -98l-39 -274h557l-26 -191h-557l-86 -616h-258l159 1143q20 135 104 204.5t224 69.5q428 0 606 -20z" />
    <glyph glyph-name="G" unicode="G" horiz-adv-x="1292" 
d="M958 819h246l-114 -819h-185l-6 180q-84 -99 -188 -153t-244 -54q-213 0 -299.5 179t-44.5 565q19 150 50.5 263.5t78 192.5t101.5 131.5t130 82.5t154.5 41.5t183.5 11.5q243 0 416 -49l-35 -189q-196 12 -360 12q-78 0 -132.5 -7.5t-102.5 -29t-80 -57t-59 -94.5
t-44.5 -138.5t-32.5 -191.5q-23 -185 -12.5 -296t54 -157t132.5 -46q92 0 163 41t169 137z" />
    <glyph glyph-name="H" unicode="H" horiz-adv-x="1382" 
d="M1339 1413l-198 -1413h-256l90 645h-553l-92 -645h-258l198 1413h258l-77 -555h555l77 555h256z" />
    <glyph glyph-name="I" unicode="I" horiz-adv-x="571" 
d="M330 0h-258l198 1413h258z" />
    <glyph glyph-name="J" unicode="J" horiz-adv-x="720" 
d="M684 1413l-156 -1106q-23 -162 -107 -246t-218 -84q-53 0 -123.5 11t-106.5 26l47 176h89q71 0 113.5 35t51.5 99l152 1089h258z" />
    <glyph glyph-name="K" unicode="K" horiz-adv-x="1255" 
d="M756 733l-2 -10q46 -46 82 -123l315 -600h-287l-323 637h-138q3 -75 -6 -143l-67 -494h-258l198 1413h258l-61 -424q-14 -96 -33 -155h131l457 579h305l-459 -579q-54 -66 -112 -101z" />
    <glyph glyph-name="L" unicode="L" horiz-adv-x="1058" 
d="M522 1413l-151 -1085q-8 -58 13 -86.5t85 -28.5h492l-7 -201q-176 -16 -557 -16q-152 0 -228.5 83t-53.5 240l149 1094h258z" />
    <glyph glyph-name="M" unicode="M" horiz-adv-x="1826" 
d="M1384 1413h265q49 0 73 -28t19 -76l-127 -1309h-250l127 1206h-37l-375 -944q-17 -43 -43.5 -62.5t-70.5 -19.5h-197q-42 0 -68 24t-32 66l-123 936h-39l-209 -1206h-250l238 1317q8 50 32.5 73t73.5 23h258q83 0 92 -90l105 -766q13 -84 16 -195h33q31 97 70 189
l305 780q17 42 43.5 61.5t70.5 20.5z" />
    <glyph glyph-name="N" unicode="N" horiz-adv-x="1458" 
d="M1417 1413l-188 -1323q-6 -47 -29.5 -68.5t-69.5 -21.5h-186q-38 0 -59.5 20.5t-36.5 61.5l-297 866q-40 115 -57 207h-25q-3 -89 -16 -207l-129 -948h-252l186 1323q6 47 30 68.5t70 21.5h185q38 0 59.5 -20.5t36.5 -61.5l287 -842q54 -165 69 -223h29q3 109 18 221
l125 926h250z" />
    <glyph glyph-name="O" unicode="O" horiz-adv-x="1376" 
d="M793 1440q206 0 324 -70t161.5 -234.5t5.5 -439.5q-29 -210 -77 -347.5t-129 -222t-189.5 -119t-267.5 -34.5q-103 0 -182 16t-143 52t-103.5 93t-63.5 140t-23.5 192.5t17.5 250.5q28 205 75.5 339.5t127.5 222t192 124.5t275 37zM782 1221q-96 0 -158 -23.5t-108 -85.5
t-74 -159.5t-51 -256.5q-31 -191 -16.5 -302.5t72.5 -156t180 -44.5q123 0 196.5 47t118.5 159t74 318q18 123 20.5 207t-9.5 143.5t-44 92t-80 47t-121 14.5z" />
    <glyph glyph-name="P" unicode="P" horiz-adv-x="1222" 
d="M72 0l198 1413q192 19 500 19q266 0 366.5 -105.5t65.5 -357.5q-16 -114 -43 -191t-65 -128t-99 -79t-133.5 -38.5t-179.5 -10.5q-143 0 -279 19l-75 -541h-256zM430 731h240q146 0 201 51t77 205q21 139 -20 186.5t-166 47.5h-262z" />
    <glyph glyph-name="Q" unicode="Q" horiz-adv-x="1376" 
d="M793 1440q206 0 324 -70t161.5 -234.5t5.5 -439.5q-29 -210 -77 -347.5t-129 -222t-189.5 -119t-267.5 -34.5q-103 0 -182 16t-143 52t-103.5 93t-63.5 140t-23.5 192.5t17.5 250.5q28 205 75.5 339.5t127.5 222t192 124.5t275 37zM782 1221q-96 0 -158 -23.5t-108 -85.5
t-74 -159.5t-51 -256.5q-31 -191 -16.5 -302.5t72.5 -156t180 -44.5q123 0 196.5 47t118.5 159t74 318q18 123 20.5 207t-9.5 143.5t-44 92t-80 47t-121 14.5zM401 -225l91 145q239 -101 573 -153l-100 -246q-308 83 -564 254z" />
    <glyph glyph-name="R" unicode="R" horiz-adv-x="1288" 
d="M72 0l198 1413q192 19 502 19q119 0 204.5 -21t147 -68.5t85.5 -131t8 -203.5q-21 -154 -95 -241t-223 -105l-2 -13q65 -16 105 -65.5t57 -145.5l84 -438h-262l-76 442q-12 70 -42.5 96.5t-94.5 26.5l-265 2l-79 -567h-252zM432 776h250q136 2 196 52t80 184
q17 120 -24 164.5t-168 44.5h-270z" />
    <glyph glyph-name="S" unicode="S" horiz-adv-x="1163" 
d="M668 561l-271 98q-148 55 -201 154t-32 254q13 95 43 161.5t71 107t105.5 63.5t134 31t168.5 8q262 0 442 -49l-26 -181q-272 9 -414 9q-65 0 -93.5 -1.5t-66.5 -9.5t-54 -26t-31.5 -50t-22.5 -83q-4 -31 -4.5 -53t5 -40t13 -29t25 -22t35.5 -18.5t49 -18.5l262 -94
q157 -57 207.5 -151t27.5 -259q-12 -96 -38 -162t-66 -111t-104 -69.5t-142 -34.5t-190 -10q-228 0 -459 48l29 186q357 -8 419 -8q69 0 111.5 3.5t78 14t55 31t32 52t18.5 79.5q8 61 -1.5 94.5t-34 50t-80.5 35.5z" />
    <glyph glyph-name="T" unicode="T" horiz-adv-x="1196" 
d="M1243 1194h-434l-168 -1194h-256l168 1194h-432l31 219h1122z" />
    <glyph glyph-name="U" unicode="U" horiz-adv-x="1368" 
d="M1337 1413l-123 -864q-44 -315 -179.5 -445.5t-413.5 -130.5q-287 0 -406 137.5t-76 448.5l119 854h258l-121 -864q-29 -204 17.5 -280t203.5 -76q162 0 238 80.5t107 285.5l118 854h258z" />
    <glyph glyph-name="V" unicode="V" horiz-adv-x="1267" 
d="M1360 1413l-594 -1347q-28 -66 -94 -66h-240q-33 0 -56 22t-28 54l-217 1337h260l137 -1063q15 -131 17 -160h51q22 85 59 166l432 1057h273z" />
    <glyph glyph-name="W" unicode="W" horiz-adv-x="1955" 
d="M2015 1413l-436 -1345q-21 -68 -98 -68h-262q-35 0 -61.5 23t-27.5 57l-43 981q-1 18 -2.5 51.5t-2.5 61t-1 51.5h-41q-12 -49 -49 -170l-313 -985q-22 -70 -98 -70h-261q-35 0 -62 23t-28 55l-63 1335h260l20 -1034q3 -88 0 -193h46q6 24 59 203l303 948q26 76 102 76
h244q36 0 59 -25t25 -61l55 -950q9 -138 7 -191h45q16 69 53 199l305 1028h266z" />
    <glyph glyph-name="X" unicode="X" horiz-adv-x="1275" 
d="M889 727l272 -727h-260l-223 639h-39l-401 -639h-291l479 727l-248 686h258l201 -590h41l381 590h276z" />
    <glyph glyph-name="Y" unicode="Y" horiz-adv-x="1200" 
d="M705 475l-66 -475h-258l70 487l-330 926h260l178 -553q26 -80 33 -172h20q18 79 78 178l334 547h279z" />
    <glyph glyph-name="Z" unicode="Z" horiz-adv-x="1167" 
d="M1151 1204l-832 -995h707l-29 -209h-991l29 209l831 995h-680l31 209h965z" />
    <glyph glyph-name="bracketleft" unicode="[" horiz-adv-x="686" 
d="M729 1415h-174q-18 0 -31 -11.5t-16 -29.5l-215 -1521q-3 -33 24 -33h189l-23 -158h-305q-64 0 -99.5 35t-25.5 106l230 1637q9 62 49.5 97.5t101.5 35.5h318z" />
    <glyph glyph-name="backslash" unicode="\" horiz-adv-x="1077" 
d="M934 -141h-189l-591 1554h188z" />
    <glyph glyph-name="bracketright" unicode="]" horiz-adv-x="686" 
d="M209 1573h303q62 0 98 -40.5t29 -100.5l-231 -1637q-7 -60 -48.5 -96.5t-101.5 -36.5h-317l20 158h174q18 0 32 11.5t17 29.5l215 1521q3 33 -26 33h-189z" />
    <glyph glyph-name="asciicircum" unicode="^" horiz-adv-x="913" 
d="M897 813l-102 -57l-236 348h-16l-344 -348l-95 57l367 449h180z" />
    <glyph glyph-name="underscore" unicode="_" horiz-adv-x="1165" 
d="M924 -176h-904l27 176h903z" />
    <glyph glyph-name="grave" unicode="`" horiz-adv-x="690" 
d="M655 1194l-84 -109l-430 240l123 172z" />
    <glyph glyph-name="a" unicode="a" 
d="M971 0h-197l6 174q-78 -90 -185 -144t-235 -55q-93 -1 -153 26.5t-96.5 91t-40.5 168t14 257.5q14 98 35.5 174.5t48 130.5t63 92.5t73.5 61t88.5 35t98.5 16.5t111 4q113 0 258.5 -17t247.5 -42zM838 831l-183 3q-63 0 -101.5 -3.5t-74 -16.5t-55.5 -33t-38 -59
t-28.5 -89t-21.5 -127q-16 -108 -19 -169.5t8.5 -96.5t34 -45.5t66.5 -10.5q87 0 166.5 48.5t181.5 150.5z" />
    <glyph glyph-name="b" unicode="b" horiz-adv-x="1191" 
d="M498 1434l-52 -392q-21 -145 -53 -225q93 91 205 152t211 61q59 0 103.5 -10.5t80.5 -35.5t58.5 -65.5t34 -100.5t9.5 -141.5t-16 -187.5q-18 -129 -49.5 -221t-72.5 -149t-100.5 -90t-122.5 -44.5t-150 -11.5q-117 0 -271.5 22.5t-255.5 55.5l195 1383h246zM387 631
l-65 -459q168 -4 186 -4q62 1 101 5t74.5 17.5t55 34.5t37.5 61t29 90.5t22 129.5q15 104 17.5 165t-10 94.5t-34.5 43.5t-63 10q-62 0 -156 -49.5t-194 -138.5z" />
    <glyph glyph-name="c" unicode="c" horiz-adv-x="1011" 
d="M862 201l17 -166q-158 -60 -371 -60q-269 0 -370 125.5t-60 411.5q41 287 163.5 403.5t385.5 116.5q218 0 352 -59l-35 -152q-208 4 -280 4q-83 0 -135 -12.5t-93 -48.5t-63.5 -99.5t-34.5 -166.5q-9 -70 -10.5 -119t7 -85t23.5 -57.5t44 -34.5t64 -17.5t87 -4.5
q163 0 309 21z" />
    <glyph glyph-name="d" unicode="d" 
d="M1171 1434l-200 -1434h-197l6 193q-210 -218 -436 -218q-62 0 -109 16.5t-85 55t-56.5 101t-23.5 154.5t14 216q14 96 35 171.5t45.5 129.5t57.5 92.5t67 61.5t78 36.5t85.5 18t94.5 4.5q156 0 325 -26q3 84 15 192l35 236h249zM838 838l-189 2q-62 0 -100 -3.5
t-72.5 -16.5t-54 -33.5t-37 -60.5t-28 -90.5t-21.5 -129.5q-20 -128 -16.5 -199t27 -95.5t79.5 -23.5q84 0 160.5 44t187.5 147z" />
    <glyph glyph-name="e" unicode="e" horiz-adv-x="1122" 
d="M932 203l16 -162q-82 -34 -199.5 -50t-226.5 -16q-269 0 -372.5 135.5t-67.5 417.5q19 148 57 244t107 154.5t164.5 82t238.5 23.5q104 0 179.5 -15.5t121.5 -44t72.5 -70t31 -92.5t-2.5 -112q-21 -149 -115.5 -213.5t-288.5 -76.5l-317 -27q3 -120 57.5 -161.5
t167.5 -41.5q161 0 377 25zM344 549l287 24q86 6 126 37.5t50 110.5q3 28 0.5 47.5t-13.5 32.5t-22.5 20t-38.5 10.5t-49 4t-66 0.5q-92 -1 -142.5 -24.5t-81 -83.5t-50.5 -179z" />
    <glyph glyph-name="f" unicode="f" horiz-adv-x="802" 
d="M915 1278h-188q-90 0 -127.5 -28.5t-50.5 -116.5l-19 -129h293l-24 -181h-293l-133 -925q-43 -299 -340 -299q-118 0 -266 18l40 176h144q90 0 128.5 29t51.5 115l125 886h-178l22 170l183 11l22 170q21 143 106.5 221t235.5 78q176 0 309 -19z" />
    <glyph glyph-name="g" unicode="g" horiz-adv-x="1191" 
d="M1110 973l-129 -922q-27 -236 -178 -355.5t-438 -119.5q-36 0 -85.5 2.5t-127.5 14t-129 30.5l22 158q148 -4 303 -4q331 0 383 209q3 11 10 41.5t12 47t13 42.5t19 48.5t24 43.5q-78 -103 -195 -167t-258 -65q-66 -1 -115.5 15t-88.5 53.5t-57.5 100t-23.5 155t15 217.5
q13 87 30.5 157t40.5 121.5t48 90t58 64.5t64.5 42t73.5 24.5t79.5 11.5t86.5 3q133 0 285.5 -17t257.5 -42zM842 831l-189 3q-62 0 -100.5 -3.5t-73 -17t-54 -34t-37 -59.5t-28.5 -88t-22 -126q-27 -207 -9 -265.5t99 -56.5q88 1 167 49t181 150z" />
    <glyph glyph-name="h" unicode="h" horiz-adv-x="1202" 
d="M502 1434l-49 -375q-18 -129 -52 -246q247 219 449 219q131 0 197.5 -73.5t46.5 -208.5l-107 -750h-248l95 684q10 83 -4 110t-68 27q-79 0 -162 -45.5t-213 -148.5l-86 -627h-248l201 1434h248z" />
    <glyph glyph-name="i" unicode="i" horiz-adv-x="536" 
d="M326 1440h112q36 0 54.5 -21t13.5 -55l-14 -113q-6 -36 -24 -51.5t-54 -15.5h-113q-77 0 -68 78l17 110q6 68 76 68zM309 0h-248l142 1004h246z" />
    <glyph glyph-name="j" unicode="j" horiz-adv-x="538" 
d="M326 1440h112q36 0 54.5 -21t13.5 -55l-14 -113q-11 -67 -78 -67h-113q-80 0 -68 78l17 110q6 68 76 68zM451 1004l-142 -994q-17 -130 -90.5 -243.5t-185.5 -178.5l-135 117q73 73 112 148.5t53 169.5l140 981h248z" />
    <glyph glyph-name="k" unicode="k" horiz-adv-x="1112" 
d="M817 1004h254q-78 -273 -323 -451q37 -49 69 -123l189 -430h-265l-180 440q-65 -34 -209 -100l-51 -340h-248l201 1434h250l-86 -641q-16 -120 -70 -252q113 60 204.5 125.5t167 156t97.5 181.5z" />
    <glyph glyph-name="l" unicode="l" horiz-adv-x="636" 
d="M504 1434l-160 -1127q-9 -63 12.5 -86.5t87.5 -23.5h91l10 -187q-30 -16 -96.5 -24.5t-114.5 -8.5q-130 0 -195.5 74.5t-48.5 206.5l166 1176h248z" />
    <glyph glyph-name="m" unicode="m" horiz-adv-x="1787" 
d="M385 1004l-4 -199q116 119 215.5 173t204.5 54q112 0 173 -55t66 -154q110 110 204.5 159.5t195.5 49.5q133 0 195 -75.5t42 -206.5l-104 -750h-246l94 684q11 79 -10 108t-76 29q-63 0 -128 -39.5t-187 -154.5l-88 -627h-238l94 684q11 74 -7.5 105.5t-78.5 31.5
q-65 0 -129 -39t-186 -147l-88 -635h-246l142 1004h190z" />
    <glyph glyph-name="n" unicode="n" horiz-adv-x="1202" 
d="M391 1004l-6 -207q253 235 467 235q127 0 194.5 -74t47.5 -208l-107 -750h-248l95 680q10 85 -5 114t-69 27q-77 0 -159.5 -45t-213.5 -147l-86 -629h-248l142 1004h196z" />
    <glyph glyph-name="o" unicode="o" horiz-adv-x="1173" 
d="M637 1032q266 0 369.5 -126t62.5 -414q-40 -284 -165.5 -401.5t-387.5 -117.5q-264 0 -370.5 125t-67.5 412q40 285 166 403.5t393 118.5zM635 834q-96 0 -151.5 -28t-90.5 -102t-55 -212q-28 -189 8.5 -254.5t171.5 -65.5q142 0 204.5 71.5t90.5 266.5q12 96 12.5 158.5
t-22 99.5t-61.5 51.5t-107 14.5z" />
    <glyph glyph-name="p" unicode="p" horiz-adv-x="1196" 
d="M391 1004l-6 -201q95 95 210 160t218 65q59 0 103 -10.5t80 -35.5t58 -65.5t33.5 -100.5t9.5 -141.5t-16 -187.5q-13 -97 -33.5 -173t-45 -129.5t-59 -92t-69.5 -61.5t-81.5 -36t-90 -17.5t-100.5 -4.5q-130 0 -309 27q0 -95 -14 -190l-33 -209h-250l199 1403h196z
M328 166l182 -2q64 0 104 3.5t75 17.5t54.5 34.5t37 60.5t27.5 89.5t21 128.5q15 106 17.5 168.5t-10 97t-34.5 45t-63 10.5q-60 0 -154.5 -51t-193.5 -141z" />
    <glyph glyph-name="q" unicode="q" horiz-adv-x="1183" 
d="M909 -399h-247l51 354q20 133 57 229q-87 -91 -196 -150t-228 -59q-63 0 -110.5 16t-86 54t-57 100t-23.5 153.5t15 215.5q19 131 50 223.5t71 149.5t98 89.5t118.5 44t145.5 11.5q128 0 281 -21.5t254 -54.5zM774 377l64 457q-164 4 -191 4q-60 -1 -98 -4.5t-72.5 -17
t-54 -34.5t-37 -60t-28 -89.5t-21.5 -128.5q-21 -128 -17 -198.5t27 -94t80 -23.5q83 0 158.5 43.5t189.5 145.5z" />
    <glyph glyph-name="r" unicode="r" horiz-adv-x="839" 
d="M877 1032l-58 -233h-65q-49 0 -109 -23.5t-108 -51.5t-150 -93l-86 -631h-248l142 1004h190l-6 -213q241 241 440 241h58z" />
    <glyph glyph-name="s" unicode="s" horiz-adv-x="1052" 
d="M563 365l-256 114q-116 53 -163 124.5t-35 178.5q17 138 119.5 195t316.5 55q232 -3 444 -37l-26 -170q-193 6 -402 6q-45 0 -68.5 -0.5t-51.5 -2.5t-41 -6t-26 -11t-18.5 -18t-7.5 -27q-2 -18 2.5 -32.5t11 -24t26 -21t32 -17.5t43.5 -20l256 -114q127 -56 174 -120
t33 -177q-10 -69 -37 -117t-64.5 -76.5t-100 -44t-126 -20.5t-158.5 -5q-78 0 -137.5 3t-89.5 6.5t-87.5 11t-96.5 12.5l26 174q109 -8 312 -8q127 0 192 7t92 23.5t33 49.5q4 8 1 17t-2 14t-5 12t-8 10.5t-11 9t-14 8.5t-16.5 8.5t-19 9t-22 9.5t-24.5 11z" />
    <glyph glyph-name="t" unicode="t" horiz-adv-x="813" 
d="M502 823l-74 -516q-8 -65 11.5 -87.5t86.5 -22.5h142l10 -185q-50 -17 -127 -26t-127 -9q-137 0 -201.5 78.5t-44.5 218.5l78 549h-182l22 170l187 11l41 288h245l-41 -288h291l-22 -181h-295z" />
    <glyph glyph-name="u" unicode="u" horiz-adv-x="1181" 
d="M1100 1004l-139 -1004h-193l8 199q-123 -117 -228.5 -171.5t-217.5 -54.5q-139 0 -203 76t-43 207l104 748h248l-96 -682q-12 -77 7 -107.5t79 -30.5q74 0 146 43t196 150l86 627h246z" />
    <glyph glyph-name="v" unicode="v" horiz-adv-x="1126" 
d="M846 1004h260q-22 -122 -67 -275t-91 -274q-81 -212 -157 -316q-50 -76 -104 -107.5t-148 -31.5h-203q-30 0 -50.5 17.5t-25.5 45.5l-180 941h262l117 -820h28q41 0 67 14.5t54 57.5q55 82 125 283q41 115 65 216.5t48 248.5z" />
    <glyph glyph-name="w" unicode="w" horiz-adv-x="1785" 
d="M446 184h27q61 0 102 90q39 76 82 256q32 137 70 414q3 27 22 43.5t46 16.5h258q25 0 41.5 -15.5t19.5 -40.5l74 -764h22q45 0 86 80q62 113 117 277q55 176 96 463h256q-61 -308 -153 -547q-78 -206 -156 -322q-48 -72 -100 -103.5t-135 -31.5h-146q-30 0 -51.5 19
t-24.5 47l-65 782h-27q-17 -198 -59 -375q-49 -189 -105 -295q-49 -102 -118.5 -140t-165.5 -38h-137q-30 0 -50.5 18.5t-25.5 47.5l-164 940h258z" />
    <glyph glyph-name="x" unicode="x" horiz-adv-x="1114" 
d="M758 516l243 -516h-245l-193 430h-33l-315 -430h-270l391 518l-223 486h243l170 -394h43l289 394h262z" />
    <glyph glyph-name="y" unicode="y" horiz-adv-x="1146" 
d="M864 1004h260q-99 -490 -284 -844q-82 -156 -165 -263t-173.5 -171.5t-180.5 -96.5t-206 -47l-39 168q134 30 229.5 83t183.5 167h-104q-47 0 -82.5 28t-42.5 72l-182 904h262l129 -787q7 -33 39 -33h94l27 56q86 185 141 358.5t94 405.5z" />
    <glyph glyph-name="z" unicode="z" horiz-adv-x="1054" 
d="M989 813l-672 -623h592l-26 -190h-877l25 190l671 623h-573l25 191h860l-27 -191h2z" />
    <glyph glyph-name="braceleft" unicode="{" horiz-adv-x="675" 
d="M727 1573l-8 -154q-97 0 -141 -34t-56 -117l-47 -334q-15 -132 -61.5 -187.5t-169.5 -76.5q108 -35 144.5 -93.5t21.5 -166.5l-64 -451q-11 -83 18 -113t125 -30l-8 -154q-206 -23 -299 54.5t-71 230.5l69 504q9 67 -9 89t-83 46q-8 2 -12 4l20 168q26 7 33.5 9.5t26 9
t23.5 10t17 12.5t15 18t10 23t10.5 31t6.5 40l53 387q23 156 125 226.5t311 48.5z" />
    <glyph glyph-name="bar" unicode="|" horiz-adv-x="518" 
d="M213 -346h-176l272 1945h178z" />
    <glyph glyph-name="braceright" unicode="}" horiz-adv-x="679" 
d="M201 1419l8 154q107 12 185.5 -4.5t121.5 -57t59.5 -96.5t6.5 -127l-56 -387q-4 -30 -5.5 -48.5t2 -33.5t6.5 -22.5t17 -15.5t23 -11t34 -10q4 -1 6.5 -2t6.5 -2t7 -2l-23 -168q-30 -10 -42 -14.5t-32.5 -14t-28.5 -18t-19 -23t-16.5 -33t-8.5 -43.5l-70 -503
q-11 -77 -38 -131t-77 -91.5t-130.5 -50.5t-192.5 -2l12 154q97 0 140 32.5t53 116.5l63 453q18 112 67 166t177 90q-110 20 -146 80t-16 188l47 334q12 83 -16.5 113t-124.5 30z" />
    <glyph glyph-name="asciitilde" unicode="~" horiz-adv-x="1056" 
d="M238 449l-119 8q0 139 53 208t131 66q57 -3 138 -27.5t156 -51t112 -31.5q53 -6 76 18t32 86l117 -8q1 -136 -50 -206t-134 -65q-63 2 -143.5 26.5t-154 51t-108.5 31.5q-53 7 -75.5 -18t-30.5 -88z" />
    <glyph glyph-name="uni00A0" unicode="&#xa0;" horiz-adv-x="450" 
 />
    <glyph glyph-name="exclamdown" unicode="&#xa1;" horiz-adv-x="552" 
d="M303 1026h59q98 0 80 -94l-12 -105q-6 -43 -29 -62.5t-67 -19.5h-58q-95 0 -83 91l14 106q12 84 96 84zM342 186l-80 -575h-246l80 575l82 398h197z" />
    <glyph glyph-name="cent" unicode="&#xa2;" horiz-adv-x="1044" 
d="M1006 1180l-35 -152q-152 4 -217 4l-150 -643q152 0 285 19l16 -166q-150 -56 -356 -60l-43 -182h-105l45 186q-216 19 -296.5 145.5t-43.5 389.5q41 286 163 402t384 116l47 -2l43 176h105l-45 -182q135 -19 203 -51zM500 391l149 641q-93 -4 -146.5 -32t-87 -97.5
t-48.5 -197.5q-22 -172 6.5 -237t126.5 -77z" />
    <glyph glyph-name="sterling" unicode="&#xa3;" horiz-adv-x="1177" 
d="M1151 1417l-29 -200q-144 6 -356 6q-110 0 -157 -37t-56 -139l-16 -232h393l-27 -139h-375l-8 -119q-8 -93 -32 -157.5t-62.5 -108t-103.5 -90.5q52 14 143 14h567l-28 -215h-977l28 217q105 44 154 133.5t59 216.5l8 109h-157l18 139h150l20 250q8 94 31.5 161t58.5 108
t90.5 64.5t115.5 31.5t145 8q169 0 403 -21z" />
    <glyph glyph-name="currency" unicode="&#xa4;" horiz-adv-x="1210" 
d="M1155 1087l-160 -141q51 -102 33 -235q-18 -137 -94 -234l139 -153l-110 -103l-142 156q-106 -64 -243 -64q-138 0 -234 68l-156 -137l-100 114l158 142q-51 97 -33 231q17 134 96 240l-135 151l113 105l137 -158q101 61 238 61q140 0 235 -67l158 139zM582 451
q125 0 207.5 75t95.5 203q12 122 -50 193t-180 71q-123 0 -203.5 -74.5t-95.5 -203.5q-13 -122 48.5 -193t177.5 -71z" />
    <glyph glyph-name="yen" unicode="&#xa5;" horiz-adv-x="1292" 
d="M881 682h239l-20 -139h-307l-43 -68l-5 -31h342l-20 -137h-340l-43 -307h-258l43 307h-336l19 137h337l7 43l-21 56h-307l16 139h242l-260 731h260l178 -553q27 -94 33 -172h20q19 84 76 178l336 547h279z" />
    <glyph glyph-name="brokenbar" unicode="&#xa6;" horiz-adv-x="520" 
d="M375 780h-180l116 819h178zM217 -346h-180l115 819h180z" />
    <glyph glyph-name="section" unicode="&#xa7;" horiz-adv-x="1114" 
d="M657 645l-303 191q-22 14 -38.5 26t-36 28t-32 31t-26.5 35t-20.5 40.5t-13 47.5t-4.5 55t5 64q10 69 35.5 118.5t62.5 80t93.5 48t117 24t144.5 6.5q256 -4 455 -25l-31 -188q-95 7 -356 10q-56 1 -90.5 -0.5t-67.5 -6.5t-51 -16t-30.5 -29.5t-16.5 -45.5
q-8 -53 14.5 -87t75.5 -67l276 -166q72 -44 112 -94t50.5 -111.5t-2.5 -130.5t-49 -159l-176 2q27 124 7.5 194.5t-104.5 124.5zM170 758l176 -4q-28 -123 -10 -188.5t104 -119.5l305 -190q44 -27 72.5 -51t56 -62.5t36.5 -92.5t-1 -124q-10 -72 -36.5 -122.5t-62.5 -81
t-93.5 -47t-116 -22t-143.5 -5.5q-276 5 -455 24l33 189q150 -10 352 -13q65 0 104 3t76 13.5t55.5 32t24.5 56.5q8 54 -13.5 86.5t-72.5 64.5l-274 164q-143 81 -167.5 198t50.5 292z" />
    <glyph glyph-name="dieresis" unicode="&#xa8;" horiz-adv-x="856" 
d="M696 1440h78q36 0 48.5 -15t6.5 -47l-18 -118q-6 -58 -63 -58h-86q-62 0 -56 58l19 118q5 33 21.5 47.5t49.5 14.5zM350 1440h78q36 0 48 -15t7 -47l-18 -118q-6 -58 -64 -58h-86q-61 0 -55 58l19 118q5 33 21.5 47.5t49.5 14.5z" />
    <glyph glyph-name="copyright" unicode="&#xa9;" horiz-adv-x="1681" 
d="M928 1440q164 0 297.5 -54.5t221 -151.5t127 -236t19.5 -302q-19 -155 -86 -288t-171.5 -229.5t-248.5 -151t-309 -54.5q-222 0 -382 97t-231.5 266t-45.5 381q19 154 85.5 286t169.5 229t246 152.5t308 55.5zM936 1321q-277 0 -467 -174.5t-223 -450.5
q-32 -272 115 -438t415 -166q275 0 466.5 174t223.5 451q20 174 -35.5 310.5t-184 215t-310.5 78.5zM1104 444l10 -137q-129 -33 -276 -33q-244 0 -323.5 97t-45.5 348q32 245 134.5 336.5t334.5 91.5q124 0 256 -29l-23 -139q-132 6 -223 6q-64 0 -103.5 -5.5t-74 -21
t-54.5 -47.5t-35 -81t-26 -125q-20 -159 13 -214t147 -55q144 -2 289 8z" />
    <glyph glyph-name="ordfeminine" unicode="&#xaa;" horiz-adv-x="915" 
d="M772 559h-147v103q-112 -117 -279 -117q-125 -2 -176 84t-25 280q9 68 24 120.5t33 88t45 61t52 39.5t61 21.5t65 9.5t71 2q89 0 194 -11.5t174 -29.5zM666 1106l-125 2q-63 0 -93.5 -4.5t-56 -27t-36 -61t-21.5 -114.5q-15 -86 -10.5 -130t19 -56.5t50.5 -12.5
q98 0 234 123z" />
    <glyph glyph-name="guillemotleft" unicode="&#xab;" horiz-adv-x="1015" 
d="M549 858l-279 -344l201 -360l-123 -82l-282 426l4 53l372 395zM950 858l-278 -344l200 -360l-124 -82l-281 426l4 53l373 395z" />
    <glyph glyph-name="logicalnot" unicode="&#xac;" horiz-adv-x="1193" 
d="M1006 274h-189l35 248h-733l24 185h924z" />
    <glyph glyph-name="softhyphen" unicode="&#xad;" horiz-adv-x="874" 
d="M721 432h-617l25 176h616z" />
    <glyph glyph-name="registered" unicode="&#xae;" horiz-adv-x="1101" 
d="M645 1438q93 0 172.5 -30t138 -86.5t86.5 -146t17 -200.5q-23 -211 -155.5 -330t-336.5 -119q-211 0 -326.5 130.5t-90.5 336.5q23 204 156 324.5t339 120.5zM983 993q15 178 -78.5 276.5t-261.5 98.5q-182 0 -290.5 -106.5t-127.5 -280.5q-18 -182 77 -282.5t265 -100.5
q180 0 289.5 104.5t126.5 290.5zM365 737l71 500q72 6 223 6q46 0 78.5 -5.5t62 -21t41 -48t5.5 -81.5t-31 -76t-82 -42l-2 -4q36 -14 49 -76l37 -152h-115l-30 154q-7 28 -20 36.5t-38 8.5h-112l-29 -199h-108zM512 1012h104q63 2 88 16.5t31 63.5q6 43 -11.5 56t-70.5 13
h-121z" />
    <glyph glyph-name="macron" unicode="&#xaf;" horiz-adv-x="819" 
d="M809 1231h-596l25 172h596z" />
    <glyph glyph-name="degree" unicode="&#xb0;" horiz-adv-x="724" 
d="M457 1438q125 0 197 -79t61 -196q-12 -116 -91.5 -187t-199.5 -71q-126 0 -195.5 81t-58.5 198q9 113 88 183.5t199 70.5zM451 1303q-58 0 -96 -33.5t-42 -91.5q-6 -61 27 -98.5t92 -37.5q60 0 96 34t41 93t-26 96.5t-92 37.5z" />
    <glyph glyph-name="plusminus" unicode="&#xb1;" horiz-adv-x="1183" 
d="M1085 842l-24 -185h-369l-37 -256h-184l35 256h-365l25 185h366l37 258h187l-37 -258h366zM90 297h920l-27 -184h-920z" />
    <glyph glyph-name="twosuperior" unicode="&#xb2;" horiz-adv-x="829" 
d="M248 1425v146q140 28 284 28q52 0 93 -5t79 -18.5t62 -36t35.5 -59.5t5.5 -87q-8 -71 -45 -131t-129 -142l-250 -217q46 10 125 10h258l-27 -176h-610l16 117q8 60 31 78l244 215q94 82 140 137t52 100q6 34 -17.5 45t-82.5 11q-120 0 -264 -15z" />
    <glyph glyph-name="threesuperior" unicode="&#xb3;" horiz-adv-x="796" 
d="M252 1436v143q164 23 266 23q150 0 212 -52t54 -153q-8 -79 -46 -145t-109 -70v-4q154 -26 125 -213q-8 -52 -28.5 -92.5t-60 -75.5t-106.5 -55t-160 -21q-109 -3 -270 22l16 146q38 -1 90.5 -4t76 -3.5t75.5 1.5q158 10 180 121q9 54 -16 80t-94 26h-170l16 137h164
q73 0 101.5 28t33.5 87q6 49 -16 64.5t-109 15.5q-3 0 -225 -6z" />
    <glyph glyph-name="acute" unicode="&#xb4;" horiz-adv-x="690" 
d="M731 1313l-461 -228l-67 111l422 303z" />
    <glyph glyph-name="paragraph" unicode="&#xb6;" horiz-adv-x="1206" 
d="M381 -430l119 842q-241 25 -334.5 148.5t-59.5 371.5q40 278 197 392t496 114q201 0 338 -35l-197 -1403h-176l180 1278q-82 6 -147 6l-242 -1714h-174z" />
    <glyph glyph-name="periodcentered" unicode="&#xb7;" horiz-adv-x="503" 
d="M219 670h74q97 0 82 -95l-15 -102q-9 -86 -94 -86h-71q-98 0 -86 94l16 105q9 84 94 84z" />
    <glyph glyph-name="cedilla" unicode="&#xb8;" horiz-adv-x="495" 
d="M53 -190l29 108q148 16 210 -12.5t44 -128.5q-23 -139 -137.5 -208.5t-272.5 -47.5l41 119q74 -2 130.5 34.5t68.5 96.5q5 25 -14.5 32t-98.5 7z" />
    <glyph glyph-name="onesuperior" unicode="&#xb9;" horiz-adv-x="598" 
d="M479 737h-188l86 592q7 57 18 92l-213 -57l-4 137l232 84h190z" />
    <glyph glyph-name="ordmasculine" unicode="&#xba;" horiz-adv-x="897" 
d="M522 1253q195 0 269 -84t45 -282q-26 -190 -112 -266t-271 -76q-192 0 -266.5 83t-47.5 277q26 193 111.5 270.5t271.5 77.5zM522 1108q-100 0 -137.5 -44.5t-56.5 -176.5q-15 -117 10 -158t119 -41q92 0 131.5 45.5t58.5 171.5q17 122 -9 162.5t-116 40.5z" />
    <glyph glyph-name="guillemotright" unicode="&#xbb;" horiz-adv-x="1019" 
d="M41 154l278 344l-200 360l125 82l280 -424l-4 -55l-373 -395zM442 154l279 344l-201 360l123 82l283 -424l-4 -55l-373 -395z" />
    <glyph glyph-name="onequarter" unicode="&#xbc;" horiz-adv-x="1802" 
d="M281 565l84 594q8 60 20 94l-221 -55l-2 129l239 86h191l-119 -848h-192zM1454 1413l-1075 -1413h-174l1077 1413h172zM1679 199l-108 -15l-27 -184h-176l25 182h-367q-61 0 -87 42t11 110l312 514h184l-289 -488q-18 -34 21 -34h233l31 221l51 137h147l-51 -358h109z
" />
    <glyph glyph-name="onehalf" unicode="&#xbd;" horiz-adv-x="1828" 
d="M473 565h-192l84 594q8 60 20 94l-221 -55l-2 129l239 86h191zM362 0h-174l1078 1413h172zM1120 692v142q140 28 293 28q87 0 144.5 -9t100.5 -32t58.5 -66.5t5.5 -109.5q-15 -123 -186 -264l-276 -219q56 9 131 6h297l-25 -168h-662l15 111q7 51 33 77l260 215
q182 147 204 234q10 41 -16 53t-94 12q-129 0 -283 -10z" />
    <glyph glyph-name="threequarters" unicode="&#xbe;" horiz-adv-x="1984" 
d="M621 1014l-13 -6q96 -13 130.5 -67.5t23.5 -154.5q-14 -128 -91.5 -184.5t-252.5 -56.5q-140 0 -316 22l13 142q163 -9 256 -9q102 0 146.5 30t53.5 101q9 50 -15 76.5t-107 26.5h-185l19 135h174q82 0 113.5 32t37.5 85q7 51 -17.5 67.5t-107.5 16.5q-108 0 -260 -4
l-2 137q140 22 285 22q180 0 245 -45.5t48 -160.5q-12 -90 -51 -142t-127 -63zM1655 1413l-1077 -1413h-172l1075 1413h174zM1860 199l-109 -15l-25 -184h-178l25 182h-365q-61 0 -86.5 42t11.5 110l311 514h184l-289 -488q-18 -34 19 -34h235l29 221l53 137h148l-51 -358
h108z" />
    <glyph glyph-name="questiondown" unicode="&#xbf;" horiz-adv-x="1019" 
d="M559 1034h57q98 0 86 -94l-16 -104q-9 -84 -94 -84h-57q-96 0 -84 92l14 106q12 84 94 84zM432 588h203q-9 -75 -34 -141.5t-58.5 -116t-72 -93.5t-77.5 -81.5t-72 -72t-57.5 -73.5t-32.5 -78q-15 -76 28 -112.5t157 -36.5q244 0 413 14v-174q-11 -2 -43 -8t-41.5 -8
t-37 -7t-39.5 -6.5t-38.5 -5t-43.5 -4.5t-45.5 -3t-54.5 -3t-59.5 -1.5t-70.5 -0.5q-212 0 -312 90t-79 238q9 69 43.5 130.5t80 105t100 93.5t102 96t87 114t54.5 145z" />
    <glyph glyph-name="Agrave" unicode="&#xc0;" horiz-adv-x="1298" 
d="M829 1483l-430 241l123 170l391 -303zM895 397h-528l-170 -397h-269l615 1350q21 63 94 63h252q32 0 56.5 -21.5t25.5 -52.5l239 -1339h-256zM862 614l-71 480q-3 19 -13 129h-61q-8 -22 -51 -127l-207 -482h403z" />
    <glyph glyph-name="Aacute" unicode="&#xc1;" horiz-adv-x="1298" 
d="M705 1483l-68 110l424 303l106 -186zM895 397h-528l-170 -397h-269l615 1350q21 63 94 63h252q32 0 56.5 -21.5t25.5 -52.5l239 -1339h-256zM862 614l-71 480q-3 19 -13 129h-61q-8 -22 -51 -127l-207 -482h403z" />
    <glyph glyph-name="Acircumflex" unicode="&#xc2;" horiz-adv-x="1298" 
d="M500 1483l-68 102l303 268h172l258 -282l-84 -92l-254 204h-16zM895 397h-528l-170 -397h-269l615 1350q21 63 94 63h252q32 0 56.5 -21.5t25.5 -52.5l239 -1339h-256zM862 614l-71 480q-3 19 -13 129h-61q-8 -22 -51 -127l-207 -482h403z" />
    <glyph glyph-name="Atilde" unicode="&#xc3;" horiz-adv-x="1298" 
d="M1053 1817l108 -11q0 -128 -52 -195.5t-134 -62.5q-60 4 -117 27.5t-105.5 49t-82.5 30.5q-55 7 -80 -19t-33 -86l-108 11q1 133 54.5 200t133.5 62q70 -5 163 -51t138 -52q56 -9 81.5 15.5t33.5 81.5zM895 397h-528l-170 -397h-269l615 1350q21 63 94 63h252
q32 0 56.5 -21.5t25.5 -52.5l239 -1339h-256zM862 614l-71 480q-3 19 -13 129h-61q-8 -22 -51 -127l-207 -482h403z" />
    <glyph glyph-name="Adieresis" unicode="&#xc4;" horiz-adv-x="1298" 
d="M662 1563h-87q-31 0 -44.5 13.5t-10.5 43.5l21 119q5 32 21 46.5t48 14.5h78q36 0 49 -14t8 -47l-20 -117q-6 -59 -63 -59zM1008 1563h-86q-62 0 -56 57l21 119q5 32 21 46.5t48 14.5h78q36 0 49.5 -14t8.5 -47l-21 -117q-6 -59 -63 -59zM895 397h-528l-170 -397h-269
l615 1350q21 63 94 63h252q32 0 56.5 -21.5t25.5 -52.5l239 -1339h-256zM862 614l-71 480q-3 19 -13 129h-61q-8 -22 -51 -127l-207 -482h403z" />
    <glyph glyph-name="Aring" unicode="&#xc5;" horiz-adv-x="1298" 
d="M799 1462q-106 0 -168.5 66.5t-52.5 167.5q11 92 75 154.5t164 62.5q104 0 168.5 -67t52.5 -169q-11 -93 -74.5 -154t-164.5 -61zM702 1690q-6 -54 23.5 -84.5t75.5 -30.5q48 0 78.5 32t35.5 83q3 50 -23 79t-75 29q-48 0 -79 -30.5t-36 -77.5zM895 397h-528l-170 -397
h-269l615 1350q21 63 94 63h252q32 0 56.5 -21.5t25.5 -52.5l239 -1339h-256zM862 614l-71 480q-3 19 -13 129h-61q-8 -22 -51 -127l-207 -482h403z" />
    <glyph glyph-name="AE" unicode="&#xc6;" horiz-adv-x="1884" 
d="M1868 1204h-508q-61 0 -94.5 -28.5t-42.5 -96.5l-35 -245h551l-25 -191h-553l-43 -317q-9 -65 13 -91t86 -26h512l-11 -197q-184 -16 -567 -16q-147 0 -222.5 82.5t-54.5 228.5l15 101h-443l-274 -408h-270l798 1167q95 145 212.5 196.5t349.5 51.5q409 0 639 -14z
M920 623l67 489q4 40 24 78.5t46 60.5h-13q-55 -42 -112 -125l-340 -503h328z" />
    <glyph glyph-name="Ccedilla" unicode="&#xc7;" horiz-adv-x="1175" 
d="M1030 221l12 -194q-97 -29 -195 -40.5t-239 -11.5q-314 0 -427.5 176t-57.5 566q28 206 75 341t126 221t189.5 122.5t270.5 36.5q141 0 227 -10.5t181 -36.5l-37 -193q-178 14 -377 14q-73 0 -124 -13t-95 -45.5t-74 -91.5t-53.5 -148t-40.5 -218q-31 -188 -17 -297.5
t69 -153t171 -44.5q225 -2 416 20zM418 -221l26 108q150 16 212 -12.5t44 -128.5q-24 -139 -138 -208.5t-273 -47.5l41 121q75 -2 131.5 33.5t68.5 95.5q5 25 -15 32t-97 7z" />
    <glyph glyph-name="Egrave" unicode="&#xc8;" horiz-adv-x="1157" 
d="M815 1518l-430 239l123 170l391 -301zM1139 1204h-545q-62 0 -90 -27t-35 -96l-35 -247h576l-25 -191h-575l-45 -317q-8 -66 14 -91.5t86 -25.5h532l-6 -197q-174 -16 -577 -16q-175 0 -253 84t-57 235l117 840q18 125 101 193.5t227 68.5q440 0 622 -18z" />
    <glyph glyph-name="Eacute" unicode="&#xc9;" horiz-adv-x="1157" 
d="M692 1518l-67 110l422 303l106 -186zM1139 1204h-545q-62 0 -90 -27t-35 -96l-35 -247h576l-25 -191h-575l-45 -317q-8 -66 14 -91.5t86 -25.5h532l-6 -197q-174 -16 -577 -16q-175 0 -253 84t-57 235l117 840q18 125 101 193.5t227 68.5q440 0 622 -18z" />
    <glyph glyph-name="Ecircumflex" unicode="&#xca;" horiz-adv-x="1157" 
d="M485 1518l-65 100l301 270h174l258 -282l-86 -95l-254 205h-16zM1139 1204h-545q-62 0 -90 -27t-35 -96l-35 -247h576l-25 -191h-575l-45 -317q-8 -66 14 -91.5t86 -25.5h532l-6 -197q-174 -16 -577 -16q-175 0 -253 84t-57 235l117 840q18 125 101 193.5t227 68.5
q440 0 622 -18z" />
    <glyph glyph-name="Edieresis" unicode="&#xcb;" horiz-adv-x="1157" 
d="M993 1595h-86q-62 0 -53 58l18 121q5 31 21.5 45t48.5 14h80q35 0 47.5 -14t7.5 -45l-18 -119q-6 -60 -66 -60zM647 1595h-86q-62 0 -53 58l18 121q5 31 21.5 45t50.5 14h78q36 0 48 -13.5t7 -45.5l-18 -119q-6 -60 -66 -60zM1139 1204h-545q-62 0 -90 -27t-35 -96
l-35 -247h576l-25 -191h-575l-45 -317q-8 -66 14 -91.5t86 -25.5h532l-6 -197q-174 -16 -577 -16q-175 0 -253 84t-57 235l117 840q18 125 101 193.5t227 68.5q440 0 622 -18z" />
    <glyph glyph-name="Igrave" unicode="&#xcc;" horiz-adv-x="571" 
d="M545 1591l-84 -108l-430 241l123 170zM330 0h-258l198 1413h258z" />
    <glyph glyph-name="Iacute" unicode="&#xcd;" horiz-adv-x="571" 
d="M799 1710l-461 -227l-70 110l424 303zM330 0h-258l198 1413h258z" />
    <glyph glyph-name="Icircumflex" unicode="&#xce;" horiz-adv-x="571" 
d="M797 1571l-84 -92l-254 204h-17l-311 -200l-68 102l304 268h174zM330 0h-258l198 1413h258z" />
    <glyph glyph-name="Idieresis" unicode="&#xcf;" horiz-adv-x="571" 
d="M588 1800h78q36 0 49 -14t8 -47l-18 -117q-5 -31 -20 -45t-46 -14h-86q-31 0 -44.5 13.5t-10.5 43.5l20 119q4 32 21 46.5t49 14.5zM242 1800h77q36 0 49.5 -14t8.5 -47l-21 -117q-6 -59 -63 -59h-86q-31 0 -44.5 13.5t-10.5 43.5l20 119q4 32 21 46.5t49 14.5zM330 0
h-258l198 1413h258z" />
    <glyph glyph-name="Eth" unicode="&#xd0;" horiz-adv-x="1370" 
d="M186 813l84 600q268 19 478 19q99 0 175.5 -11.5t139.5 -36.5t106.5 -66t73 -98t42 -134t10.5 -173t-19 -217q-17 -119 -37.5 -211.5t-49 -165.5t-60.5 -125.5t-77 -90.5t-92 -61t-112 -36.5t-130.5 -18.5t-154.5 -5q-203 0 -491 18l96 680h-119l17 133h120zM424 680
l-68 -479q156 -4 205 -4q77 0 129 7t100 27.5t78.5 55.5t58 94.5t46 139.5t35.5 196q16 111 21 187t-3 134t-26.5 91.5t-56 54.5t-85 28t-119.5 7l-239 -2l-58 -404h281l-18 -133h-281z" />
    <glyph glyph-name="Ntilde" unicode="&#xd1;" horiz-adv-x="1458" 
d="M641 1550l-109 11q1 133 55 200t134 62q70 -5 163 -51t138 -52q57 -9 83 15.5t34 81.5l108 -11q-1 -128 -53 -195.5t-133 -62.5q-79 6 -175.5 54t-129.5 53q-56 7 -81.5 -19t-33.5 -86zM1417 1413l-188 -1323q-6 -47 -29.5 -68.5t-69.5 -21.5h-186q-38 0 -59.5 20.5
t-36.5 61.5l-297 866q-40 115 -57 207h-25q-3 -89 -16 -207l-129 -948h-252l186 1323q6 47 30 68.5t70 21.5h185q38 0 59.5 -20.5t36.5 -61.5l287 -842q54 -165 69 -223h29q3 109 18 221l125 926h250z" />
    <glyph glyph-name="Ograve" unicode="&#xd2;" horiz-adv-x="1376" 
d="M946 1591l-84 -108l-430 241l123 170zM793 1440q206 0 324 -70t161.5 -234.5t5.5 -439.5q-29 -210 -77 -347.5t-129 -222t-189.5 -119t-267.5 -34.5q-103 0 -182 16t-143 52t-103.5 93t-63.5 140t-23.5 192.5t17.5 250.5q28 205 75.5 339.5t127.5 222t192 124.5t275 37z
M782 1221q-96 0 -158 -23.5t-108 -85.5t-74 -159.5t-51 -256.5q-31 -191 -16.5 -302.5t72.5 -156t180 -44.5q123 0 196.5 47t118.5 159t74 318q18 123 20.5 207t-9.5 143.5t-44 92t-80 47t-121 14.5z" />
    <glyph glyph-name="Oacute" unicode="&#xd3;" horiz-adv-x="1376" 
d="M1200 1710l-461 -227l-69 110l424 303zM793 1440q206 0 324 -70t161.5 -234.5t5.5 -439.5q-29 -210 -77 -347.5t-129 -222t-189.5 -119t-267.5 -34.5q-103 0 -182 16t-143 52t-103.5 93t-63.5 140t-23.5 192.5t17.5 250.5q28 205 75.5 339.5t127.5 222t192 124.5t275 37z
M782 1221q-96 0 -158 -23.5t-108 -85.5t-74 -159.5t-51 -256.5q-31 -191 -16.5 -302.5t72.5 -156t180 -44.5q123 0 196.5 47t118.5 159t74 318q18 123 20.5 207t-9.5 143.5t-44 92t-80 47t-121 14.5z" />
    <glyph glyph-name="Ocircumflex" unicode="&#xd4;" horiz-adv-x="1376" 
d="M1198 1571l-84 -92l-254 204h-16l-312 -200l-65 102l301 268h174zM793 1440q206 0 324 -70t161.5 -234.5t5.5 -439.5q-29 -210 -77 -347.5t-129 -222t-189.5 -119t-267.5 -34.5q-103 0 -182 16t-143 52t-103.5 93t-63.5 140t-23.5 192.5t17.5 250.5q28 205 75.5 339.5
t127.5 222t192 124.5t275 37zM782 1221q-96 0 -158 -23.5t-108 -85.5t-74 -159.5t-51 -256.5q-31 -191 -16.5 -302.5t72.5 -156t180 -44.5q123 0 196.5 47t118.5 159t74 318q18 123 20.5 207t-9.5 143.5t-44 92t-80 47t-121 14.5z" />
    <glyph glyph-name="Otilde" unicode="&#xd5;" horiz-adv-x="1376" 
d="M590 1550l-109 11q1 133 55 200t134 62q70 -5 163 -51t138 -52q56 -9 81 15.5t33 81.5l109 -11q0 -128 -51.5 -195.5t-132.5 -62.5q-79 6 -177 54t-131 53q-54 7 -79 -19t-33 -86zM793 1440q206 0 324 -70t161.5 -234.5t5.5 -439.5q-29 -210 -77 -347.5t-129 -222
t-189.5 -119t-267.5 -34.5q-103 0 -182 16t-143 52t-103.5 93t-63.5 140t-23.5 192.5t17.5 250.5q28 205 75.5 339.5t127.5 222t192 124.5t275 37zM782 1221q-96 0 -158 -23.5t-108 -85.5t-74 -159.5t-51 -256.5q-31 -191 -16.5 -302.5t72.5 -156t180 -44.5q123 0 196.5 47
t118.5 159t74 318q18 123 20.5 207t-9.5 143.5t-44 92t-80 47t-121 14.5z" />
    <glyph glyph-name="Odieresis" unicode="&#xd6;" horiz-adv-x="1376" 
d="M989 1800h78q36 0 49 -14t8 -47l-18 -117q-5 -31 -20 -45t-46 -14h-86q-61 0 -53 57l19 119q5 32 21 46.5t48 14.5zM643 1800h78q36 0 49 -14t8 -47l-18 -117q-5 -31 -20 -45t-46 -14h-86q-31 0 -44.5 13.5t-10.5 43.5l20 119q4 32 21 46.5t49 14.5zM793 1440
q206 0 324 -70t161.5 -234.5t5.5 -439.5q-29 -210 -77 -347.5t-129 -222t-189.5 -119t-267.5 -34.5q-103 0 -182 16t-143 52t-103.5 93t-63.5 140t-23.5 192.5t17.5 250.5q28 205 75.5 339.5t127.5 222t192 124.5t275 37zM782 1221q-96 0 -158 -23.5t-108 -85.5t-74 -159.5
t-51 -256.5q-31 -191 -16.5 -302.5t72.5 -156t180 -44.5q123 0 196.5 47t118.5 159t74 318q18 123 20.5 207t-9.5 143.5t-44 92t-80 47t-121 14.5z" />
    <glyph glyph-name="multiply" unicode="&#xd7;" horiz-adv-x="1073" 
d="M676 582l246 -254l-134 -138l-264 273l-350 -279l-106 158l325 256l-248 256l136 135l264 -272l360 287l105 -156z" />
    <glyph glyph-name="Oslash" unicode="&#xd8;" horiz-adv-x="1376" 
d="M1251 1491l-92 -152q98 -80 128.5 -235t-3.5 -408q-29 -210 -77 -347.5t-129 -222t-189.5 -119t-267.5 -34.5q-160 0 -267 39l-88 -143l-102 61l86 142q-98 80 -129 234.5t2 410.5q28 205 75.5 339.5t127.5 222t192 124.5t275 37q158 0 262 -39l92 149zM395 309l537 887
q-61 25 -150 25q-96 0 -158 -23.5t-108 -85.5t-74 -159.5t-51 -256.5q-41 -280 4 -387zM1016 1104l-537 -885q53 -26 148 -26q123 0 196.5 47t118.5 159t74 318q43 281 0 387z" />
    <glyph glyph-name="Ugrave" unicode="&#xd9;" horiz-adv-x="1368" 
d="M942 1591l-84 -108l-428 241l123 170zM1337 1413l-123 -864q-44 -315 -179.5 -445.5t-413.5 -130.5q-287 0 -406 137.5t-76 448.5l119 854h258l-121 -864q-29 -204 17.5 -280t203.5 -76q162 0 238 80.5t107 285.5l118 854h258z" />
    <glyph glyph-name="Uacute" unicode="&#xda;" horiz-adv-x="1368" 
d="M1196 1710l-461 -227l-67 110l422 303zM1337 1413l-123 -864q-44 -315 -179.5 -445.5t-413.5 -130.5q-287 0 -406 137.5t-76 448.5l119 854h258l-121 -864q-29 -204 17.5 -280t203.5 -76q162 0 238 80.5t107 285.5l118 854h258z" />
    <glyph glyph-name="Ucircumflex" unicode="&#xdb;" horiz-adv-x="1368" 
d="M1196 1571l-84 -92l-256 204h-16l-310 -200l-67 102l303 268h172zM1337 1413l-123 -864q-44 -315 -179.5 -445.5t-413.5 -130.5q-287 0 -406 137.5t-76 448.5l119 854h258l-121 -864q-29 -204 17.5 -280t203.5 -76q162 0 238 80.5t107 285.5l118 854h258z" />
    <glyph glyph-name="Udieresis" unicode="&#xdc;" horiz-adv-x="1368" 
d="M987 1800h78q36 0 48.5 -14t6.5 -47l-18 -117q-6 -59 -64 -59h-86q-31 0 -44.5 13.5t-10.5 43.5l18 119q11 61 72 61zM641 1800h78q36 0 48.5 -14t6.5 -47l-18 -117q-6 -59 -64 -59h-86q-31 0 -44.5 13.5t-10.5 43.5l18 119q5 32 21.5 46.5t50.5 14.5zM1337 1413
l-123 -864q-44 -315 -179.5 -445.5t-413.5 -130.5q-287 0 -406 137.5t-76 448.5l119 854h258l-121 -864q-29 -204 17.5 -280t203.5 -76q162 0 238 80.5t107 285.5l118 854h258z" />
    <glyph glyph-name="Yacute" unicode="&#xdd;" horiz-adv-x="1200" 
d="M643 1483l-68 110l422 303l107 -186zM705 475l-66 -475h-258l70 487l-330 926h260l178 -553q26 -80 33 -172h20q18 79 78 178l334 547h279z" />
    <glyph glyph-name="Thorn" unicode="&#xde;" horiz-adv-x="1224" 
d="M528 1413l-34 -242q99 3 239 3q86 0 151 -9.5t120 -31.5t89 -57.5t56.5 -88t24 -123t-8.5 -162.5q-19 -135 -55 -222t-98 -138t-144 -70.5t-204 -19.5q-142 0 -297 18l-37 -270h-258l198 1413h258zM393 463h240q71 1 115.5 11.5t78 40t52 78t30.5 128.5
q20 147 -16.5 194.5t-167.5 47.5l-260 -2z" />
    <glyph glyph-name="germandbls" unicode="&#xdf;" horiz-adv-x="1411" 
d="M1004 635l167 -117q86 -63 118.5 -122.5t19.5 -159.5q-21 -150 -116.5 -204.5t-293.5 -54.5q-146 0 -334 23l29 180q92 -4 250 -4q114 0 161 18t54 76q4 41 -16 67.5t-80 70.5l-170 114q-147 102 -127 240q3 23 12.5 45.5t18 38.5t30 38t33 33t43.5 35t45 33t53 37
q81 53 111.5 89.5t36.5 80.5q6 35 -6 55t-61 33.5t-144 13.5q-156 0 -217 -40.5t-78 -159.5l-168 -1196q-24 -150 -108.5 -224.5t-243.5 -74.5q-109 0 -254 18l38 176h146q89 0 127 28.5t51 115.5l125 886h-180l24 170l183 11l18 126q12 90 40.5 153.5t70 103.5t105.5 63
t135 31t171 8q192 0 298 -30t144.5 -94.5t20.5 -174.5q-12 -75 -51 -136t-139 -130q-14 -10 -50.5 -33t-52 -34.5t-39 -30t-34.5 -35.5t-15 -35q-2 -7 -2 -14t1 -13t5 -12t6.5 -11t9.5 -11.5t12 -10.5t14.5 -11.5t15.5 -11.5t18 -12.5t19 -13.5z" />
    <glyph glyph-name="agrave" unicode="&#xe0;" 
d="M717 1114l-430 240l123 172l391 -303zM971 0h-197l6 174q-78 -90 -185 -144t-235 -55q-93 -1 -153 26.5t-96.5 91t-40.5 168t14 257.5q14 98 35.5 174.5t48 130.5t63 92.5t73.5 61t88.5 35t98.5 16.5t111 4q113 0 258.5 -17t247.5 -42zM838 831l-183 3q-63 0 -101.5 -3.5
t-74 -16.5t-55.5 -33t-38 -59t-28.5 -89t-21.5 -127q-16 -108 -19 -169.5t8.5 -96.5t34 -45.5t66.5 -10.5q87 0 166.5 48.5t181.5 150.5z" />
    <glyph glyph-name="aacute" unicode="&#xe1;" 
d="M592 1114l-68 111l422 303l109 -187zM971 0h-197l6 174q-78 -90 -185 -144t-235 -55q-93 -1 -153 26.5t-96.5 91t-40.5 168t14 257.5q14 98 35.5 174.5t48 130.5t63 92.5t73.5 61t88.5 35t98.5 16.5t111 4q113 0 258.5 -17t247.5 -42zM838 831l-183 3q-63 0 -101.5 -3.5
t-74 -16.5t-55.5 -33t-38 -59t-28.5 -89t-21.5 -127q-16 -108 -19 -169.5t8.5 -96.5t34 -45.5t66.5 -10.5q87 0 166.5 48.5t181.5 150.5z" />
    <glyph glyph-name="acircumflex" unicode="&#xe2;" 
d="M387 1114l-68 100l304 271h172l258 -283l-84 -94l-254 205h-17zM971 0h-197l6 174q-78 -90 -185 -144t-235 -55q-93 -1 -153 26.5t-96.5 91t-40.5 168t14 257.5q14 98 35.5 174.5t48 130.5t63 92.5t73.5 61t88.5 35t98.5 16.5t111 4q113 0 258.5 -17t247.5 -42zM838 831
l-183 3q-63 0 -101.5 -3.5t-74 -16.5t-55.5 -33t-38 -59t-28.5 -89t-21.5 -127q-16 -108 -19 -169.5t8.5 -96.5t34 -45.5t66.5 -10.5q87 0 166.5 48.5t181.5 150.5z" />
    <glyph glyph-name="atilde" unicode="&#xe3;" 
d="M940 1448l109 -10q0 -127 -53 -195t-134 -63q-78 6 -175 53.5t-130 52.5q-55 6 -81 -19.5t-34 -84.5l-106 10q1 132 54.5 199t131.5 61q55 -3 108.5 -25t103 -46.5t89.5 -30.5q57 -7 83 17t34 81zM971 0h-197l6 174q-78 -90 -185 -144t-235 -55q-93 -1 -153 26.5
t-96.5 91t-40.5 168t14 257.5q14 98 35.5 174.5t48 130.5t63 92.5t73.5 61t88.5 35t98.5 16.5t111 4q113 0 258.5 -17t247.5 -42zM838 831l-183 3q-63 0 -101.5 -3.5t-74 -16.5t-55.5 -33t-38 -59t-28.5 -89t-21.5 -127q-16 -108 -19 -169.5t8.5 -96.5t34 -45.5t66.5 -10.5
q87 0 166.5 48.5t181.5 150.5z" />
    <glyph glyph-name="adieresis" unicode="&#xe4;" 
d="M549 1194h-86q-31 0 -44.5 13.5t-10.5 43.5l18 119q9 62 72 62h77q36 0 49.5 -15t8.5 -47l-21 -119q-6 -57 -63 -57zM895 1194h-86q-31 0 -44.5 13.5t-10.5 43.5l20 119q5 32 21.5 47t48.5 15h78q36 0 49 -15t8 -47l-21 -119q-6 -57 -63 -57zM971 0h-197l6 174
q-78 -90 -185 -144t-235 -55q-93 -1 -153 26.5t-96.5 91t-40.5 168t14 257.5q14 98 35.5 174.5t48 130.5t63 92.5t73.5 61t88.5 35t98.5 16.5t111 4q113 0 258.5 -17t247.5 -42zM838 831l-183 3q-63 0 -101.5 -3.5t-74 -16.5t-55.5 -33t-38 -59t-28.5 -89t-21.5 -127
q-16 -108 -19 -169.5t8.5 -96.5t34 -45.5t66.5 -10.5q87 0 166.5 48.5t181.5 150.5z" />
    <glyph glyph-name="aring" unicode="&#xe5;" 
d="M686 1092q-107 0 -169.5 66.5t-51.5 168.5q11 92 75.5 154.5t164.5 62.5q104 0 168.5 -67t52.5 -168q-11 -93 -75 -155t-165 -62zM590 1319q-6 -53 23 -83t75 -30q48 0 79 32t36 83q3 48 -24 78.5t-74 30.5q-49 0 -79.5 -31t-35.5 -80zM971 0h-197l6 174
q-78 -90 -185 -144t-235 -55q-93 -1 -153 26.5t-96.5 91t-40.5 168t14 257.5q14 98 35.5 174.5t48 130.5t63 92.5t73.5 61t88.5 35t98.5 16.5t111 4q113 0 258.5 -17t247.5 -42zM838 831l-183 3q-63 0 -101.5 -3.5t-74 -16.5t-55.5 -33t-38 -59t-28.5 -89t-21.5 -127
q-16 -108 -19 -169.5t8.5 -96.5t34 -45.5t66.5 -10.5q87 0 166.5 48.5t181.5 150.5z" />
    <glyph glyph-name="ae" unicode="&#xe6;" horiz-adv-x="1802" 
d="M1606 203l14 -162q-78 -34 -193.5 -50t-220.5 -16q-333 0 -415 213q-78 -96 -188.5 -154t-242.5 -59q-93 -1 -153 26.5t-96 91t-40 168t15 257.5q13 98 34 174.5t46.5 130.5t61.5 92t71.5 60.5t86 35t96 17t108.5 4.5q215 0 444 -43q108 43 299 43q128 0 213.5 -23
t128.5 -69t56 -104.5t2 -137.5q-21 -149 -115.5 -213.5t-288.5 -76.5l-317 -27q3 -120 58 -161.5t169 -41.5q162 0 367 25zM1026 549l287 24q87 6 127 37.5t49 110.5q3 28 0.5 47.5t-13.5 32.5t-22.5 20t-38.5 10.5t-49 4t-66 0.5q-92 -1 -142.5 -24.5t-81 -83.5t-50.5 -179
zM426 184q83 0 160 45t170 138q0 90 10 161q23 190 86 303q-132 3 -197 3q-62 0 -100 -3.5t-73 -16.5t-54.5 -33t-37.5 -59t-28.5 -89t-21.5 -127q-15 -107 -18 -169t8.5 -97t33 -45.5t62.5 -10.5z" />
    <glyph glyph-name="ccedilla" unicode="&#xe7;" horiz-adv-x="1011" 
d="M862 201l17 -166q-158 -60 -371 -60q-269 0 -370 125.5t-60 411.5q41 287 163.5 403.5t385.5 116.5q218 0 352 -59l-35 -152q-208 4 -280 4q-83 0 -135 -12.5t-93 -48.5t-63.5 -99.5t-34.5 -166.5q-9 -70 -10.5 -119t7 -85t23.5 -57.5t44 -34.5t64 -17.5t87 -4.5
q163 0 309 21zM322 -215l28 109q150 16 211.5 -13t42.5 -129q-23 -139 -137 -208.5t-272 -47.5l41 119q75 -2 130.5 34t67.5 97q5 25 -14.5 32t-97.5 7z" />
    <glyph glyph-name="egrave" unicode="&#xe8;" horiz-adv-x="1122" 
d="M705 1114l-431 240l123 172l391 -303zM932 203l16 -162q-82 -34 -199.5 -50t-226.5 -16q-269 0 -372.5 135.5t-67.5 417.5q19 148 57 244t107 154.5t164.5 82t238.5 23.5q104 0 179.5 -15.5t121.5 -44t72.5 -70t31 -92.5t-2.5 -112q-21 -149 -115.5 -213.5t-288.5 -76.5
l-317 -27q3 -120 57.5 -161.5t167.5 -41.5q161 0 377 25zM344 549l287 24q86 6 126 37.5t50 110.5q3 28 0.5 47.5t-13.5 32.5t-22.5 20t-38.5 10.5t-49 4t-66 0.5q-92 -1 -142.5 -24.5t-81 -83.5t-50.5 -179z" />
    <glyph glyph-name="eacute" unicode="&#xe9;" horiz-adv-x="1122" 
d="M582 1114l-70 111l424 303l106 -187zM932 203l16 -162q-82 -34 -199.5 -50t-226.5 -16q-269 0 -372.5 135.5t-67.5 417.5q19 148 57 244t107 154.5t164.5 82t238.5 23.5q104 0 179.5 -15.5t121.5 -44t72.5 -70t31 -92.5t-2.5 -112q-21 -149 -115.5 -213.5t-288.5 -76.5
l-317 -27q3 -120 57.5 -161.5t167.5 -41.5q161 0 377 25zM344 549l287 24q86 6 126 37.5t50 110.5q3 28 0.5 47.5t-13.5 32.5t-22.5 20t-38.5 10.5t-49 4t-66 0.5q-92 -1 -142.5 -24.5t-81 -83.5t-50.5 -179z" />
    <glyph glyph-name="ecircumflex" unicode="&#xea;" horiz-adv-x="1122" 
d="M375 1114l-68 100l303 271h174l256 -283l-84 -94l-254 205h-16zM932 203l16 -162q-82 -34 -199.5 -50t-226.5 -16q-269 0 -372.5 135.5t-67.5 417.5q19 148 57 244t107 154.5t164.5 82t238.5 23.5q104 0 179.5 -15.5t121.5 -44t72.5 -70t31 -92.5t-2.5 -112
q-21 -149 -115.5 -213.5t-288.5 -76.5l-317 -27q3 -120 57.5 -161.5t167.5 -41.5q161 0 377 25zM344 549l287 24q86 6 126 37.5t50 110.5q3 28 0.5 47.5t-13.5 32.5t-22.5 20t-38.5 10.5t-49 4t-66 0.5q-92 -1 -142.5 -24.5t-81 -83.5t-50.5 -179z" />
    <glyph glyph-name="edieresis" unicode="&#xeb;" horiz-adv-x="1122" 
d="M537 1194h-86q-62 0 -56 57l21 119q5 32 21 47t48 15h78q36 0 49.5 -15t8.5 -47l-21 -119q-6 -57 -63 -57zM883 1194h-86q-62 0 -56 57l21 119q5 32 21 47t48 15h78q36 0 49.5 -15t8.5 -47l-19 -119q-5 -30 -20 -43.5t-45 -13.5zM932 203l16 -162q-82 -34 -199.5 -50
t-226.5 -16q-269 0 -372.5 135.5t-67.5 417.5q19 148 57 244t107 154.5t164.5 82t238.5 23.5q104 0 179.5 -15.5t121.5 -44t72.5 -70t31 -92.5t-2.5 -112q-21 -149 -115.5 -213.5t-288.5 -76.5l-317 -27q3 -120 57.5 -161.5t167.5 -41.5q161 0 377 25zM344 549l287 24
q86 6 126 37.5t50 110.5q3 28 0.5 47.5t-13.5 32.5t-22.5 20t-38.5 10.5t-49 4t-66 0.5q-92 -1 -142.5 -24.5t-81 -83.5t-50.5 -179z" />
    <glyph glyph-name="igrave" unicode="&#xec;" horiz-adv-x="540" 
d="M475 1223l-84 -109l-428 240l123 172zM309 0h-248l142 1004h248z" />
    <glyph glyph-name="iacute" unicode="&#xed;" horiz-adv-x="540" 
d="M729 1341l-461 -227l-67 111l422 303zM309 0h-248l142 1004h248z" />
    <glyph glyph-name="icircumflex" unicode="&#xee;" horiz-adv-x="540" 
d="M729 1202l-84 -94l-256 205h-16l-310 -199l-67 100l303 271h172zM309 0h-248l142 1004h248z" />
    <glyph glyph-name="idieresis" unicode="&#xef;" horiz-adv-x="540" 
d="M520 1432h78q36 0 48.5 -15t6.5 -47l-18 -119q-6 -57 -64 -57h-86q-31 0 -44.5 13.5t-10.5 43.5l19 119q6 33 22.5 47.5t48.5 14.5zM174 1432h78q36 0 48.5 -15t6.5 -47l-18 -119q-6 -57 -64 -57h-86q-31 0 -44.5 13.5t-10.5 43.5l18 119q5 32 21.5 47t50.5 15zM309 0
h-248l142 1004h248z" />
    <glyph glyph-name="eth" unicode="&#xf0;" horiz-adv-x="1157" 
d="M1030 1376l-137 -100q215 -209 154 -703q-38 -309 -167 -454.5t-399 -145.5q-240 0 -340 119t-69 363q30 229 142.5 348t324.5 119q167 0 268 -91q-3 220 -90 316l-168 -123l-66 90l140 103q-94 45 -279 38l35 175q265 10 422 -82l164 120zM496 172q138 0 202.5 95.5
t94.5 332.5l8 70q-89 55 -201 55q-126 0 -186.5 -68t-81.5 -215q-23 -149 15 -209.5t149 -60.5z" />
    <glyph glyph-name="ntilde" unicode="&#xf1;" horiz-adv-x="1202" 
d="M958 1448l109 -10q0 -128 -51.5 -195.5t-132.5 -62.5q-79 6 -177 53.5t-131 52.5q-55 6 -79.5 -19t-32.5 -85l-109 10q1 132 55 199t134 61q55 -3 108 -25t102.5 -46.5t90.5 -30.5q56 -7 81 17t33 81zM391 1004l-6 -207q253 235 467 235q127 0 194.5 -74t47.5 -208
l-107 -750h-248l95 680q10 85 -5 114t-69 27q-77 0 -159.5 -45t-213.5 -147l-86 -629h-248l142 1004h196z" />
    <glyph glyph-name="ograve" unicode="&#xf2;" horiz-adv-x="1173" 
d="M793 1223l-84 -109l-430 240l122 172zM637 1032q266 0 369.5 -126t62.5 -414q-40 -284 -165.5 -401.5t-387.5 -117.5q-264 0 -370.5 125t-67.5 412q40 285 166 403.5t393 118.5zM635 834q-96 0 -151.5 -28t-90.5 -102t-55 -212q-28 -189 8.5 -254.5t171.5 -65.5
q142 0 204.5 71.5t90.5 266.5q12 96 12.5 158.5t-22 99.5t-61.5 51.5t-107 14.5z" />
    <glyph glyph-name="oacute" unicode="&#xf3;" horiz-adv-x="1173" 
d="M1047 1341l-461 -227l-70 111l424 303zM637 1032q266 0 369.5 -126t62.5 -414q-40 -284 -165.5 -401.5t-387.5 -117.5q-264 0 -370.5 125t-67.5 412q40 285 166 403.5t393 118.5zM635 834q-96 0 -151.5 -28t-90.5 -102t-55 -212q-28 -189 8.5 -254.5t171.5 -65.5
q142 0 204.5 71.5t90.5 266.5q12 96 12.5 158.5t-22 99.5t-61.5 51.5t-107 14.5z" />
    <glyph glyph-name="ocircumflex" unicode="&#xf4;" horiz-adv-x="1173" 
d="M1044 1202l-83 -94l-254 205h-17l-311 -199l-68 100l303 271h174zM637 1032q266 0 369.5 -126t62.5 -414q-40 -284 -165.5 -401.5t-387.5 -117.5q-264 0 -370.5 125t-67.5 412q40 285 166 403.5t393 118.5zM635 834q-96 0 -151.5 -28t-90.5 -102t-55 -212
q-28 -189 8.5 -254.5t171.5 -65.5q142 0 204.5 71.5t90.5 266.5q12 96 12.5 158.5t-22 99.5t-61.5 51.5t-107 14.5z" />
    <glyph glyph-name="otilde" unicode="&#xf5;" horiz-adv-x="1173" 
d="M436 1182l-108 10q1 132 55 199t133 61q55 -3 108 -25t102.5 -46.5t90.5 -30.5q56 -7 81.5 17t33.5 81l108 -10q0 -128 -52 -195.5t-134 -62.5q-78 6 -175 53.5t-130 52.5q-55 6 -80 -19t-33 -85zM637 1032q266 0 369.5 -126t62.5 -414q-40 -284 -165.5 -401.5
t-387.5 -117.5q-264 0 -370.5 125t-67.5 412q40 285 166 403.5t393 118.5zM635 834q-96 0 -151.5 -28t-90.5 -102t-55 -212q-28 -189 8.5 -254.5t171.5 -65.5q142 0 204.5 71.5t90.5 266.5q12 96 12.5 158.5t-22 99.5t-61.5 51.5t-107 14.5z" />
    <glyph glyph-name="odieresis" unicode="&#xf6;" horiz-adv-x="1173" 
d="M836 1432h77q36 0 49.5 -15t8.5 -47l-19 -119q-5 -30 -20 -43.5t-45 -13.5h-86q-62 0 -56 57l21 119q5 32 21.5 47t48.5 15zM489 1432h78q36 0 49.5 -15t8.5 -47l-21 -119q-6 -57 -63 -57h-86q-62 0 -56 57l21 119q5 32 21 47t48 15zM637 1032q266 0 369.5 -126
t62.5 -414q-40 -284 -165.5 -401.5t-387.5 -117.5q-264 0 -370.5 125t-67.5 412q40 285 166 403.5t393 118.5zM635 834q-96 0 -151.5 -28t-90.5 -102t-55 -212q-28 -189 8.5 -254.5t171.5 -65.5q142 0 204.5 71.5t90.5 266.5q12 96 12.5 158.5t-22 99.5t-61.5 51.5
t-107 14.5z" />
    <glyph glyph-name="divide" unicode="&#xf7;" horiz-adv-x="1136" 
d="M602 1106h60q52 0 71.5 -22.5t11.5 -73.5l-10 -82q-6 -46 -29 -66t-69 -20h-59q-52 0 -72 22t-14 72l12 82q4 46 28 67t70 21zM1016 512h-922l29 182h921zM496 360h59q52 0 72.5 -23t13.5 -73l-12 -82q-6 -46 -29.5 -66t-69.5 -20h-61q-51 0 -70.5 23t-11.5 74l10 79
q12 88 99 88z" />
    <glyph glyph-name="oslash" unicode="&#xf8;" horiz-adv-x="1173" 
d="M1026 1124l-94 -155q97 -57 131 -173.5t6 -303.5q-40 -284 -165.5 -401.5t-387.5 -117.5q-89 0 -176 17l-96 -158l-92 53l84 142q-106 54 -145 172t-13 311q40 285 166 403.5t393 118.5q108 0 194 -22l103 168zM356 223l363 602q-35 9 -84 9q-96 0 -151.5 -28t-90.5 -102
t-55 -212q-16 -103 -12.5 -169t30.5 -100zM807 762l-354 -586q36 -4 65 -4q142 0 204.5 71.5t90.5 266.5q27 187 -6 252z" />
    <glyph glyph-name="ugrave" unicode="&#xf9;" horiz-adv-x="1181" 
d="M719 1126l-428 240l123 170l389 -301zM1100 1004l-139 -1004h-193l8 199q-123 -117 -228.5 -171.5t-217.5 -54.5q-139 0 -203 76t-43 207l104 748h248l-96 -682q-12 -77 7 -107.5t79 -30.5q74 0 146 43t196 150l86 627h246z" />
    <glyph glyph-name="uacute" unicode="&#xfa;" horiz-adv-x="1181" 
d="M596 1126l-68 111l422 303l107 -186zM1100 1004l-139 -1004h-193l8 199q-123 -117 -228.5 -171.5t-217.5 -54.5q-139 0 -203 76t-43 207l104 748h248l-96 -682q-12 -77 7 -107.5t79 -30.5q74 0 146 43t196 150l86 627h246z" />
    <glyph glyph-name="ucircumflex" unicode="&#xfb;" horiz-adv-x="1181" 
d="M391 1126l-67 101l303 270h172l258 -283l-84 -94l-256 205h-17zM1100 1004l-139 -1004h-193l8 199q-123 -117 -228.5 -171.5t-217.5 -54.5q-139 0 -203 76t-43 207l104 748h248l-96 -682q-12 -77 7 -107.5t79 -30.5q74 0 146 43t196 150l86 627h246z" />
    <glyph glyph-name="udieresis" unicode="&#xfc;" horiz-adv-x="1181" 
d="M899 1206h-86q-61 0 -55 56l18 120q12 60 72 60h78q36 0 48.5 -14.5t6.5 -45.5l-18 -118q-6 -58 -64 -58zM553 1206h-86q-61 0 -55 56l18 120q9 60 72 60h78q36 0 48.5 -14.5t6.5 -45.5l-19 -118q-6 -58 -63 -58zM1100 1004l-139 -1004h-193l8 199
q-123 -117 -228.5 -171.5t-217.5 -54.5q-139 0 -203 76t-43 207l104 748h248l-96 -682q-12 -77 7 -107.5t79 -30.5q74 0 146 43t196 150l86 627h246z" />
    <glyph glyph-name="yacute" unicode="&#xfd;" horiz-adv-x="1146" 
d="M539 1114l-68 111l422 303l106 -187zM864 1004h260q-99 -490 -284 -844q-82 -156 -165 -263t-173.5 -171.5t-180.5 -96.5t-206 -47l-39 168q134 30 229.5 83t183.5 167h-104q-47 0 -82.5 28t-42.5 72l-182 904h262l129 -787q7 -33 39 -33h94l27 56q86 185 141 358.5
t94 405.5z" />
    <glyph glyph-name="thorn" unicode="&#xfe;" 
d="M414 879l4 -15q77 75 176.5 119.5t212.5 44.5q56 0 99.5 -10.5t80 -35t59.5 -66t36 -100.5t12 -141.5t-15 -187.5q-17 -132 -49.5 -226.5t-72.5 -149.5t-98.5 -86.5t-116 -41.5t-136.5 -10q-148 0 -307 25q-6 -63 -18 -139l-35 -258h-248l256 1833h248l-43 -314
q-18 -147 -45 -241zM326 170l184 -2q62 0 100.5 3.5t73.5 17t54.5 33.5t36.5 59.5t27.5 89.5t20.5 127q15 106 18 167t-8 96.5t-32.5 46.5t-63.5 11q-91 0 -170 -48.5t-180 -152.5z" />
    <glyph glyph-name="ydieresis" unicode="&#xff;" horiz-adv-x="1146" 
d="M840 1194h-86q-62 0 -54 57l19 119q5 32 21 47t48 15h80q36 0 48.5 -15t7.5 -47l-19 -119q-6 -57 -65 -57zM494 1194h-86q-62 0 -54 57l19 119q5 33 21.5 47.5t49.5 14.5h78q36 0 48.5 -15t7.5 -47l-19 -119q-6 -57 -65 -57zM864 1004h260q-99 -490 -284 -844
q-82 -156 -165 -263t-173.5 -171.5t-180.5 -96.5t-206 -47l-39 168q134 30 229.5 83t183.5 167h-104q-47 0 -82.5 28t-42.5 72l-182 904h262l129 -787q7 -33 39 -33h94l27 56q86 185 141 358.5t94 405.5z" />
    <glyph glyph-name="Amacron" unicode="&#x100;" horiz-adv-x="1298" 
d="M1090 1593h-594l24 172h594zM895 397h-528l-170 -397h-269l615 1350q21 63 94 63h252q32 0 56.5 -21.5t25.5 -52.5l239 -1339h-256zM862 614l-71 480q-3 19 -13 129h-61q-8 -22 -51 -127l-207 -482h403z" />
    <glyph glyph-name="amacron" unicode="&#x101;" 
d="M977 1225h-594l23 172h595zM971 0h-197l6 174q-78 -90 -185 -144t-235 -55q-93 -1 -153 26.5t-96.5 91t-40.5 168t14 257.5q14 98 35.5 174.5t48 130.5t63 92.5t73.5 61t88.5 35t98.5 16.5t111 4q113 0 258.5 -17t247.5 -42zM838 831l-183 3q-63 0 -101.5 -3.5t-74 -16.5
t-55.5 -33t-38 -59t-28.5 -89t-21.5 -127q-16 -108 -19 -169.5t8.5 -96.5t34 -45.5t66.5 -10.5q87 0 166.5 48.5t181.5 150.5z" />
    <glyph glyph-name="Abreve" unicode="&#x102;" horiz-adv-x="1298" 
d="M1028 1831l119 -25q-6 -128 -101.5 -208t-248.5 -80q-163 0 -245.5 85t-51.5 212l123 8q-9 -65 36.5 -98t137.5 -33q102 0 162.5 37t68.5 102zM895 397h-528l-170 -397h-269l615 1350q21 63 94 63h252q32 0 56.5 -21.5t25.5 -52.5l239 -1339h-256zM862 614l-71 480
q-3 19 -13 129h-61q-8 -22 -51 -127l-207 -482h403z" />
    <glyph glyph-name="abreve" unicode="&#x103;" 
d="M913 1462l121 -26q-6 -127 -102 -207t-250 -80q-162 0 -244 85.5t-51 211.5l123 8q-10 -65 35.5 -98t138.5 -33q102 0 162.5 37t66.5 102zM971 0h-197l6 174q-78 -90 -185 -144t-235 -55q-93 -1 -153 26.5t-96.5 91t-40.5 168t14 257.5q14 98 35.5 174.5t48 130.5
t63 92.5t73.5 61t88.5 35t98.5 16.5t111 4q113 0 258.5 -17t247.5 -42zM838 831l-183 3q-63 0 -101.5 -3.5t-74 -16.5t-55.5 -33t-38 -59t-28.5 -89t-21.5 -127q-16 -108 -19 -169.5t8.5 -96.5t34 -45.5t66.5 -10.5q87 0 166.5 48.5t181.5 150.5z" />
    <glyph glyph-name="Aogonek" unicode="&#x104;" horiz-adv-x="1298" 
d="M971 1339l239 -1339q-90 -100 -161 -225q-35 -60 -3 -78t119 8l29 -100q-86 -33 -155 -40t-110 9t-63 46.5t-20.5 71.5t24.5 85q57 112 217 223h-133l-59 397h-528l-170 -397h-269l615 1350q21 63 94 63h252q32 0 56.5 -21.5t25.5 -52.5zM862 614l-71 480q-3 19 -13 129
h-61q-8 -22 -51 -127l-207 -482h403z" />
    <glyph glyph-name="aogonek" unicode="&#x105;" 
d="M1108 973l-137 -973q-88 -95 -162 -225q-36 -60 -3 -78t120 8l26 -100q-86 -33 -154.5 -40t-109 9t-62.5 46.5t-20 71.5t25 85q57 112 217 223h-74l6 174q-78 -90 -185 -144t-235 -55q-93 -1 -153 26.5t-96.5 91t-40.5 168t14 257.5q14 98 35.5 174.5t48 130.5t63 92.5
t73.5 61t88.5 35t98.5 16.5t111 4q113 0 258.5 -17t247.5 -42zM838 831l-183 3q-63 0 -101.5 -3.5t-74 -16.5t-55.5 -33t-38 -59t-28.5 -89t-21.5 -127q-16 -108 -19 -169.5t8.5 -96.5t34 -45.5t66.5 -10.5q87 0 166.5 48.5t181.5 150.5z" />
    <glyph glyph-name="Cacute" unicode="&#x106;" horiz-adv-x="1175" 
d="M1171 1710l-460 -227l-68 110l422 305zM1030 221l12 -194q-97 -29 -195 -40.5t-239 -11.5q-314 0 -427.5 176t-57.5 566q28 206 75 341t126 221t189.5 122.5t270.5 36.5q141 0 227 -10.5t181 -36.5l-37 -193q-178 14 -377 14q-73 0 -124 -13t-95 -45.5t-74 -91.5
t-53.5 -148t-40.5 -218q-31 -188 -17 -297.5t69 -153t171 -44.5q225 -2 416 20z" />
    <glyph glyph-name="cacute" unicode="&#x107;" horiz-adv-x="1011" 
d="M1008 1341l-463 -227l-68 111l422 303zM862 201l17 -166q-158 -60 -371 -60q-269 0 -370 125.5t-60 411.5q41 287 163.5 403.5t385.5 116.5q218 0 352 -59l-35 -152q-208 4 -280 4q-83 0 -135 -12.5t-93 -48.5t-63.5 -99.5t-34.5 -166.5q-9 -70 -10.5 -119t7 -85
t23.5 -57.5t44 -34.5t64 -17.5t87 -4.5q163 0 309 21z" />
    <glyph glyph-name="Cdotaccent" unicode="&#x10a;" horiz-adv-x="1175" 
d="M782 1794h76q35 0 54.5 -20.5t15.5 -55.5l-17 -110q-9 -66 -73 -66h-78q-36 0 -54 20.5t-12 55.5l15 111q5 34 22 49.5t51 15.5zM1030 221l12 -194q-97 -29 -195 -40.5t-239 -11.5q-314 0 -427.5 176t-57.5 566q28 206 75 341t126 221t189.5 122.5t270.5 36.5
q141 0 227 -10.5t181 -36.5l-37 -193q-178 14 -377 14q-73 0 -124 -13t-95 -45.5t-74 -91.5t-53.5 -148t-40.5 -218q-31 -188 -17 -297.5t69 -153t171 -44.5q225 -2 416 20z" />
    <glyph glyph-name="cdotaccent" unicode="&#x10b;" horiz-adv-x="1011" 
d="M616 1425h76q35 0 54.5 -20.5t15.5 -54.5l-17 -111q-5 -34 -21.5 -49.5t-49.5 -15.5h-78q-35 0 -53.5 19.5t-14.5 53.5l15 111q9 67 73 67zM862 201l17 -166q-158 -60 -371 -60q-269 0 -370 125.5t-60 411.5q41 287 163.5 403.5t385.5 116.5q218 0 352 -59l-35 -152
q-208 4 -280 4q-83 0 -135 -12.5t-93 -48.5t-63.5 -99.5t-34.5 -166.5q-9 -70 -10.5 -119t7 -85t23.5 -57.5t44 -34.5t64 -17.5t87 -4.5q163 0 309 21z" />
    <glyph glyph-name="Ccaron" unicode="&#x10c;" horiz-adv-x="1175" 
d="M1186 1786l-312 -268h-159l-252 282l92 88l240 -198h16l307 196zM1030 221l12 -194q-97 -29 -195 -40.5t-239 -11.5q-314 0 -427.5 176t-57.5 566q28 206 75 341t126 221t189.5 122.5t270.5 36.5q141 0 227 -10.5t181 -36.5l-37 -193q-178 14 -377 14q-73 0 -124 -13
t-95 -45.5t-74 -91.5t-53.5 -148t-40.5 -218q-31 -188 -17 -297.5t69 -153t171 -44.5q225 -2 416 20z" />
    <glyph glyph-name="ccaron" unicode="&#x10d;" horiz-adv-x="1011" 
d="M1020 1415l-311 -268h-160l-250 285l92 88l238 -199h16l307 197zM862 201l17 -166q-158 -60 -371 -60q-269 0 -370 125.5t-60 411.5q41 287 163.5 403.5t385.5 116.5q218 0 352 -59l-35 -152q-208 4 -280 4q-83 0 -135 -12.5t-93 -48.5t-63.5 -99.5t-34.5 -166.5
q-9 -70 -10.5 -119t7 -85t23.5 -57.5t44 -34.5t64 -17.5t87 -4.5q163 0 309 21z" />
    <glyph glyph-name="Dcaron" unicode="&#x10e;" horiz-adv-x="1370" 
d="M705 1516l-250 284l92 88l239 -198h17l307 196l68 -102l-312 -268h-161zM72 0l198 1413q268 19 478 19q99 0 175.5 -11.5t139.5 -36.5t106.5 -66t73 -98t42 -134t10.5 -173t-19 -217q-17 -119 -37.5 -211.5t-49 -165.5t-60.5 -125.5t-77 -90.5t-92 -61t-112 -36.5
t-130.5 -18.5t-154.5 -5q-203 0 -491 18zM500 1217l-144 -1016q156 -4 205 -4q77 0 129 7t100 27.5t78.5 55.5t58 94.5t46 139.5t35.5 196q16 111 21 187t-3 134t-26.5 91.5t-56 54.5t-85 28t-119.5 7z" />
    <glyph glyph-name="dcaron" unicode="&#x10f;" 
d="M922 1434h249l-200 -1434h-197l6 193q-210 -218 -436 -218q-62 0 -109 16.5t-85 55t-56.5 101t-23.5 154.5t14 216q14 96 35 171.5t45.5 129.5t57.5 92.5t67 61.5t78 36.5t85.5 18t94.5 4.5q156 0 325 -26q3 84 15 192zM1358 1432h57q46 0 62.5 -17.5t9.5 -58.5l-14 -107
q-20 -136 -125 -286l-105 32q49 128 68 211q-36 -3 -53.5 14.5t-12.5 49.5l15 92q9 41 29 55.5t69 14.5zM838 838l-189 2q-62 0 -100 -3.5t-72.5 -16.5t-54 -33.5t-37 -60.5t-28 -90.5t-21.5 -129.5q-20 -128 -16.5 -199t27 -95.5t79.5 -23.5q84 0 160.5 44t187.5 147z" />
    <glyph glyph-name="Dcroat" unicode="&#x110;" horiz-adv-x="1370" 
d="M186 813l84 600q268 19 478 19q99 0 175.5 -11.5t139.5 -36.5t106.5 -66t73 -98t42 -134t10.5 -173t-19 -217q-17 -119 -37.5 -211.5t-49 -165.5t-60.5 -125.5t-77 -90.5t-92 -61t-112 -36.5t-130.5 -18.5t-154.5 -5q-203 0 -491 18l96 680h-119l17 133h120zM424 680
l-68 -479q156 -4 205 -4q77 0 129 7t100 27.5t78.5 55.5t58 94.5t46 139.5t35.5 196q16 111 21 187t-3 134t-26.5 91.5t-56 54.5t-85 28t-119.5 7l-239 -2l-58 -404h281l-18 -133h-281z" />
    <glyph glyph-name="dcroat" unicode="&#x111;" horiz-adv-x="1191" 
d="M1278 1163h-143l-164 -1163h-197l6 193q-210 -218 -436 -218q-62 0 -109 16.5t-85 55t-56.5 101t-23.5 154.5t14 216q14 96 35 171.5t45.5 129.5t57.5 92.5t67 61.5t78 36.5t85.5 18t94.5 4.5q156 0 325 -26q3 88 11 157h-271l17 125h272l21 146h249l-20 -146h143z
M838 838l-189 2q-62 0 -100 -3.5t-72.5 -16.5t-54 -33.5t-37 -60.5t-28 -90.5t-21.5 -129.5q-20 -128 -16.5 -199t27 -95.5t79.5 -23.5q84 0 160.5 44t187.5 147z" />
    <glyph glyph-name="Emacron" unicode="&#x112;" horiz-adv-x="1157" 
d="M1077 1628h-596l25 172h594zM1139 1204h-545q-62 0 -90 -27t-35 -96l-35 -247h576l-25 -191h-575l-45 -317q-8 -66 14 -91.5t86 -25.5h532l-6 -197q-174 -16 -577 -16q-175 0 -253 84t-57 235l117 840q18 125 101 193.5t227 68.5q440 0 622 -18z" />
    <glyph glyph-name="emacron" unicode="&#x113;" horiz-adv-x="1122" 
d="M965 1225h-594l24 172h594zM932 203l16 -162q-82 -34 -199.5 -50t-226.5 -16q-269 0 -372.5 135.5t-67.5 417.5q19 148 57 244t107 154.5t164.5 82t238.5 23.5q104 0 179.5 -15.5t121.5 -44t72.5 -70t31 -92.5t-2.5 -112q-21 -149 -115.5 -213.5t-288.5 -76.5l-317 -27
q3 -120 57.5 -161.5t167.5 -41.5q161 0 377 25zM344 549l287 24q86 6 126 37.5t50 110.5q3 28 0.5 47.5t-13.5 32.5t-22.5 20t-38.5 10.5t-49 4t-66 0.5q-92 -1 -142.5 -24.5t-81 -83.5t-50.5 -179z" />
    <glyph glyph-name="Edotaccent" unicode="&#x116;" horiz-adv-x="1157" 
d="M819 1575h-78q-35 0 -53 20.5t-12 55.5l12 110q12 66 74 66h78q34 0 53.5 -20.5t13.5 -53.5l-14 -111q-9 -67 -74 -67zM1139 1204h-545q-62 0 -90 -27t-35 -96l-35 -247h576l-25 -191h-575l-45 -317q-8 -66 14 -91.5t86 -25.5h532l-6 -197q-174 -16 -577 -16
q-175 0 -253 84t-57 235l117 840q18 125 101 193.5t227 68.5q440 0 622 -18z" />
    <glyph glyph-name="edotaccent" unicode="&#x117;" horiz-adv-x="1122" 
d="M709 1174h-78q-35 0 -53.5 19.5t-14.5 53.5l15 111q6 35 23 51t50 16h78q34 0 53 -20t15 -55l-15 -111q-6 -34 -23 -49.5t-50 -15.5zM932 203l16 -162q-82 -34 -199.5 -50t-226.5 -16q-269 0 -372.5 135.5t-67.5 417.5q19 148 57 244t107 154.5t164.5 82t238.5 23.5
q104 0 179.5 -15.5t121.5 -44t72.5 -70t31 -92.5t-2.5 -112q-21 -149 -115.5 -213.5t-288.5 -76.5l-317 -27q3 -120 57.5 -161.5t167.5 -41.5q161 0 377 25zM344 549l287 24q86 6 126 37.5t50 110.5q3 28 0.5 47.5t-13.5 32.5t-22.5 20t-38.5 10.5t-49 4t-66 0.5
q-92 -1 -142.5 -24.5t-81 -83.5t-50.5 -179z" />
    <glyph glyph-name="Eogonek" unicode="&#x118;" horiz-adv-x="1157" 
d="M1139 1204h-545q-62 0 -90 -27t-35 -96l-35 -247h576l-25 -191h-575l-45 -317q-8 -66 14 -91.5t86 -25.5h532l-6 -197q-95 -106 -160 -225q-36 -60 -3 -77.5t120 9.5l27 -102q-86 -33 -155 -39.5t-110 9.5t-63 46.5t-20.5 72t24.5 85.5q57 109 205 211q-145 -6 -442 -6
q-175 0 -253 84t-57 235l117 840q18 125 101 193.5t227 68.5q440 0 622 -18z" />
    <glyph glyph-name="eogonek" unicode="&#x119;" horiz-adv-x="1122" 
d="M903 -254l27 -100q-86 -33 -154.5 -40.5t-109.5 8.5t-62.5 46.5t-20 72t24.5 85.5q47 92 154 174q-119 -17 -240 -17q-269 0 -372.5 135.5t-67.5 417.5q19 148 57 244t107 154.5t164.5 82t238.5 23.5q104 0 179.5 -15.5t121.5 -44t72.5 -70t31 -92.5t-2.5 -112
q-21 -149 -115.5 -213.5t-288.5 -76.5l-317 -27q3 -120 57.5 -161.5t167.5 -41.5q161 0 377 25l16 -162q-93 -103 -162 -225q-35 -60 -2.5 -78t119.5 8zM344 549l287 24q86 6 126 37.5t50 110.5q3 28 0.5 47.5t-13.5 32.5t-22.5 20t-38.5 10.5t-49 4t-66 0.5
q-92 -1 -142.5 -24.5t-81 -83.5t-50.5 -179z" />
    <glyph glyph-name="Ecaron" unicode="&#x11a;" horiz-adv-x="1157" 
d="M694 1550l-250 285l93 86l239 -197h17l307 197l67 -102l-311 -269h-162zM1139 1204h-545q-62 0 -90 -27t-35 -96l-35 -247h576l-25 -191h-575l-45 -317q-8 -66 14 -91.5t86 -25.5h532l-6 -197q-174 -16 -577 -16q-175 0 -253 84t-57 235l117 840q18 125 101 193.5
t227 68.5q440 0 622 -18z" />
    <glyph glyph-name="ecaron" unicode="&#x11b;" horiz-adv-x="1122" 
d="M584 1147l-250 285l92 88l238 -199h16l309 197l68 -103l-312 -268h-161zM932 203l16 -162q-82 -34 -199.5 -50t-226.5 -16q-269 0 -372.5 135.5t-67.5 417.5q19 148 57 244t107 154.5t164.5 82t238.5 23.5q104 0 179.5 -15.5t121.5 -44t72.5 -70t31 -92.5t-2.5 -112
q-21 -149 -115.5 -213.5t-288.5 -76.5l-317 -27q3 -120 57.5 -161.5t167.5 -41.5q161 0 377 25zM344 549l287 24q86 6 126 37.5t50 110.5q3 28 0.5 47.5t-13.5 32.5t-22.5 20t-38.5 10.5t-49 4t-66 0.5q-92 -1 -142.5 -24.5t-81 -83.5t-50.5 -179z" />
    <glyph glyph-name="Gbreve" unicode="&#x11e;" horiz-adv-x="1292" 
d="M1047 1831l120 -25q-6 -128 -101.5 -208t-250.5 -80q-162 0 -244 85.5t-51 211.5l123 8q-10 -65 35.5 -98t138.5 -33q102 0 162 37t68 102zM958 819h246l-114 -819h-185l-6 180q-84 -99 -188 -153t-244 -54q-213 0 -299.5 179t-44.5 565q19 150 50.5 263.5t78 192.5
t101.5 131.5t130 82.5t154.5 41.5t183.5 11.5q243 0 416 -49l-35 -189q-196 12 -360 12q-78 0 -132.5 -7.5t-102.5 -29t-80 -57t-59 -94.5t-44.5 -138.5t-32.5 -191.5q-23 -185 -12.5 -296t54 -157t132.5 -46q92 0 163 41t169 137z" />
    <glyph glyph-name="gbreve" unicode="&#x11f;" horiz-adv-x="1191" 
d="M913 1464l121 -26q-6 -127 -102 -207t-250 -80q-162 0 -244 85.5t-51 211.5l121 8q-9 -65 37.5 -99t138.5 -34q101 0 161 38t68 103zM1110 973l-129 -922q-27 -236 -178 -355.5t-438 -119.5q-36 0 -85.5 2.5t-127.5 14t-129 30.5l22 158q148 -4 303 -4q331 0 383 209
q3 11 10 41.5t12 47t13 42.5t19 48.5t24 43.5q-78 -103 -195 -167t-258 -65q-66 -1 -115.5 15t-88.5 53.5t-57.5 100t-23.5 155t15 217.5q13 87 30.5 157t40.5 121.5t48 90t58 64.5t64.5 42t73.5 24.5t79.5 11.5t86.5 3q133 0 285.5 -17t257.5 -42zM842 831l-189 3
q-62 0 -100.5 -3.5t-73 -17t-54 -34t-37 -59.5t-28.5 -88t-22 -126q-27 -207 -9 -265.5t99 -56.5q88 1 167 49t181 150z" />
    <glyph glyph-name="Gdotaccent" unicode="&#x120;" horiz-adv-x="1292" 
d="M854 1542h-78q-35 0 -53 20.5t-14 55.5l14 111q9 65 74 65h75q35 0 54.5 -20.5t15.5 -55.5l-16 -110q-5 -34 -22 -50t-50 -16zM958 819h246l-114 -819h-185l-6 180q-84 -99 -188 -153t-244 -54q-213 0 -299.5 179t-44.5 565q19 150 50.5 263.5t78 192.5t101.5 131.5
t130 82.5t154.5 41.5t183.5 11.5q243 0 416 -49l-35 -189q-196 12 -360 12q-78 0 -132.5 -7.5t-102.5 -29t-80 -57t-59 -94.5t-44.5 -138.5t-32.5 -191.5q-23 -185 -12.5 -296t54 -157t132.5 -46q92 0 163 41t169 137z" />
    <glyph glyph-name="gdotaccent" unicode="&#x121;" horiz-adv-x="1191" 
d="M721 1174h-78q-35 0 -54 20.5t-14 54.5l15 111q9 65 74 65h75q35 0 54.5 -19.5t15.5 -53.5l-16 -111q-9 -67 -72 -67zM1110 973l-129 -922q-27 -236 -178 -355.5t-438 -119.5q-36 0 -85.5 2.5t-127.5 14t-129 30.5l22 158q148 -4 303 -4q331 0 383 209q3 11 10 41.5
t12 47t13 42.5t19 48.5t24 43.5q-78 -103 -195 -167t-258 -65q-66 -1 -115.5 15t-88.5 53.5t-57.5 100t-23.5 155t15 217.5q13 87 30.5 157t40.5 121.5t48 90t58 64.5t64.5 42t73.5 24.5t79.5 11.5t86.5 3q133 0 285.5 -17t257.5 -42zM842 831l-189 3q-62 0 -100.5 -3.5
t-73 -17t-54 -34t-37 -59.5t-28.5 -88t-22 -126q-27 -207 -9 -265.5t99 -56.5q88 1 167 49t181 150z" />
    <glyph glyph-name="Gcommaaccent" unicode="&#x122;" horiz-adv-x="1292" 
d="M958 819h246l-114 -819h-185l-6 180q-84 -99 -188 -153t-244 -54q-213 0 -299.5 179t-44.5 565q19 150 50.5 263.5t78 192.5t101.5 131.5t130 82.5t154.5 41.5t183.5 11.5q243 0 416 -49l-35 -189q-196 12 -360 12q-78 0 -132.5 -7.5t-102.5 -29t-80 -57t-59 -94.5
t-44.5 -138.5t-32.5 -191.5q-23 -185 -12.5 -296t54 -157t132.5 -46q92 0 163 41t169 137zM580 -113h59q45 0 62 -18t10 -59l-15 -109q-20 -136 -125 -289l-104 35q52 145 65 211q-36 -1 -52 16t-13 47l14 95q9 41 29.5 56t69.5 15z" />
    <glyph glyph-name="gcommaaccent" unicode="&#x123;" horiz-adv-x="1191" 
d="M698 1135h-57q-46 0 -62.5 17t-9.5 58l15 109q20 136 125 289l104 -35q-50 -130 -68 -211q36 3 53.5 -14.5t12.5 -49.5l-14 -94q-9 -41 -29 -55t-70 -14zM1110 973l-129 -922q-27 -236 -178 -355.5t-438 -119.5q-36 0 -85.5 2.5t-127.5 14t-129 30.5l22 158
q148 -4 303 -4q331 0 383 209q3 11 10 41.5t12 47t13 42.5t19 48.5t24 43.5q-78 -103 -195 -167t-258 -65q-66 -1 -115.5 15t-88.5 53.5t-57.5 100t-23.5 155t15 217.5q13 87 30.5 157t40.5 121.5t48 90t58 64.5t64.5 42t73.5 24.5t79.5 11.5t86.5 3q133 0 285.5 -17
t257.5 -42zM842 831l-189 3q-62 0 -100.5 -3.5t-73 -17t-54 -34t-37 -59.5t-28.5 -88t-22 -126q-27 -207 -9 -265.5t99 -56.5q88 1 167 49t181 150z" />
    <glyph glyph-name="Hbar" unicode="&#x126;" horiz-adv-x="1382" 
d="M1430 1057h-140l-149 -1057h-256l90 645h-553l-92 -645h-258l149 1057h-125l17 127h127l30 229h258l-30 -229h553l32 229h256l-32 -229h139zM1034 1057h-555l-28 -199h555z" />
    <glyph glyph-name="hbar" unicode="&#x127;" horiz-adv-x="1200" 
d="M465 1163l-14 -104q-16 -118 -50 -246q247 219 447 219q131 0 197.5 -73.5t46.5 -208.5l-107 -750h-248l97 684q9 83 -5.5 110t-68.5 27q-79 0 -160.5 -45t-214.5 -149l-84 -627h-250l164 1163h-133l16 125h135l21 146h248l-21 -146h283l-19 -125h-280z" />
    <glyph glyph-name="Imacron" unicode="&#x12a;" horiz-adv-x="571" 
d="M721 1593h-594l25 172h593zM330 0h-258l198 1413h258z" />
    <glyph glyph-name="imacron" unicode="&#x12b;" horiz-adv-x="540" 
d="M653 1225h-596l25 172h596zM309 0h-248l142 1004h248z" />
    <glyph glyph-name="Iogonek" unicode="&#x12e;" horiz-adv-x="571" 
d="M330 0h-33q-95 -106 -160 -225q-36 -60 -3 -78t120 8l27 -100q-86 -33 -155 -40t-110 9t-63 46.5t-20.5 71.5t24.5 85q61 114 219 223h-104l198 1413h258z" />
    <glyph glyph-name="iogonek" unicode="&#x12f;" horiz-adv-x="540" 
d="M340 1425h76q35 0 54 -20t15 -55l-16 -111q-5 -34 -21.5 -49.5t-50.5 -15.5h-78q-35 0 -53 19.5t-14 53.5l14 111q9 67 74 67zM203 1004h248l-142 -1004h-20q-93 -103 -162 -225q-35 -60 -2.5 -78t119.5 8l28 -100q-86 -33 -154.5 -40t-109.5 9t-63 46.5t-20.5 71.5
t24.5 85q57 112 217 223h-105z" />
    <glyph glyph-name="Idotaccent" unicode="&#x130;" horiz-adv-x="571" 
d="M408 1794h77q34 0 53 -20.5t15 -55.5l-14 -110q-6 -34 -23.5 -50t-50.5 -16h-78q-35 0 -53.5 20.5t-14.5 55.5l15 111q6 34 23.5 49.5t50.5 15.5zM330 0h-258l198 1413h258z" />
    <glyph glyph-name="dotlessi" unicode="&#x131;" horiz-adv-x="540" 
d="M309 0h-248l142 1004h248z" />
    <glyph glyph-name="IJ" unicode="&#x132;" horiz-adv-x="1290" 
d="M330 0h-258l198 1413h258zM1255 1413l-155 -1106q-23 -162 -107.5 -246t-218.5 -84q-54 0 -123.5 11t-105.5 26l47 176h88q71 0 113.5 35t50.5 99l153 1089h258z" />
    <glyph glyph-name="ij" unicode="&#x133;" horiz-adv-x="1075" 
d="M326 1440h112q36 0 54.5 -21t13.5 -55l-14 -113q-6 -36 -24 -51.5t-54 -15.5h-113q-77 0 -68 78l17 110q6 68 76 68zM862 1440h113q36 0 54 -21t13 -55l-14 -113q-5 -35 -23 -51t-55 -16h-112q-77 0 -68 78l16 110q6 68 76 68zM309 0h-248l142 1004h246zM987 1004
l-139 -994q-19 -131 -92.5 -244t-186.5 -178l-133 117q139 141 164 318l139 981h248z" />
    <glyph glyph-name="Kcommaaccent" unicode="&#x136;" horiz-adv-x="1255" 
d="M756 733l-2 -10q46 -46 82 -123l315 -600h-287l-323 637h-138q3 -75 -6 -143l-67 -494h-258l198 1413h258l-61 -424q-14 -96 -33 -155h131l457 579h305l-459 -579q-54 -66 -112 -101zM545 -113h59q46 0 62.5 -18t9.5 -59l-14 -109q-20 -136 -125 -289l-105 35
q49 128 68 211q-36 -1 -53.5 16t-14.5 47l17 95q8 42 27.5 56.5t68.5 14.5z" />
    <glyph glyph-name="kcommaaccent" unicode="&#x137;" horiz-adv-x="1112" 
d="M817 1004h254q-78 -273 -323 -451q37 -49 69 -123l189 -430h-265l-180 440q-65 -34 -209 -100l-51 -340h-248l201 1434h250l-86 -641q-16 -120 -70 -252q113 60 204.5 125.5t167 156t97.5 181.5zM502 -111h57q46 0 62.5 -18t9.5 -59l-15 -109q-20 -139 -124 -287l-105 33
q51 137 68 211q-36 -1 -53.5 17t-12.5 49l14 94q7 41 27.5 55t71.5 14z" />
    <glyph glyph-name="Lacute" unicode="&#x139;" horiz-adv-x="1058" 
d="M797 1706l-463 -227l-68 110l424 305zM522 1413l-151 -1085q-8 -58 13 -86.5t85 -28.5h492l-7 -201q-176 -16 -557 -16q-152 0 -228.5 83t-53.5 240l149 1094h258z" />
    <glyph glyph-name="lacute" unicode="&#x13a;" horiz-adv-x="636" 
d="M788 1749l-462 -227l-68 110l424 303zM504 1434l-160 -1127q-9 -63 12.5 -86.5t87.5 -23.5h91l10 -187q-30 -16 -96.5 -24.5t-114.5 -8.5q-130 0 -195.5 74.5t-48.5 206.5l166 1176h248z" />
    <glyph glyph-name="Lcommaaccent" unicode="&#x13b;" horiz-adv-x="1058" 
d="M522 1413l-151 -1085q-8 -58 13 -86.5t85 -28.5h492l-7 -201q-176 -16 -557 -16q-152 0 -228.5 83t-53.5 240l149 1094h258zM516 -113h59q44 0 61 -18t11 -59l-16 -109q-19 -133 -123 -289l-107 35q54 139 68 211q-36 -1 -52.5 16t-13.5 47l15 95q9 42 29 56.5t69 14.5z
" />
    <glyph glyph-name="lcommaaccent" unicode="&#x13c;" horiz-adv-x="636" 
d="M504 1434l-160 -1127q-9 -63 12.5 -86.5t87.5 -23.5h91l10 -187q-30 -16 -96.5 -24.5t-114.5 -8.5q-130 0 -195.5 74.5t-48.5 206.5l166 1176h248zM268 -113h60q45 0 61.5 -17t9.5 -58l-16 -109q-17 -134 -123 -289l-104 33q54 154 65 213q-36 -3 -52 14.5t-13 49.5
l14 94q9 41 28.5 55t69.5 14z" />
    <glyph glyph-name="Lcaron" unicode="&#x13d;" horiz-adv-x="1058" 
d="M758 1415h59q44 0 61.5 -18t10.5 -58l-17 -108q-17 -140 -122 -289l-105 33q5 14 18 50t19 54.5t14.5 49t14.5 59.5q-36 -3 -52.5 14t-13.5 49l14 95q9 41 29 55t70 14zM522 1413l-151 -1085q-8 -58 13 -86.5t85 -28.5h492l-7 -201q-176 -16 -557 -16q-152 0 -228.5 83
t-53.5 240l149 1094h258z" />
    <glyph glyph-name="lcaron" unicode="&#x13e;" horiz-adv-x="636" 
d="M504 1434l-160 -1127q-9 -63 12.5 -86.5t87.5 -23.5h91l10 -187q-30 -16 -96.5 -24.5t-114.5 -8.5q-130 0 -195.5 74.5t-48.5 206.5l166 1176h248zM686 1434h59q45 0 62 -18.5t10 -59.5l-14 -109q-20 -136 -125 -289l-105 35q54 151 66 211q-36 -3 -52.5 14.5t-13.5 49.5
l15 94q9 42 29 57t69 15z" />
    <glyph glyph-name="Ldot" unicode="&#x13f;" horiz-adv-x="1058" 
d="M522 1413l-151 -1085q-8 -58 13 -86.5t85 -28.5h492l-7 -201q-176 -16 -557 -16q-152 0 -228.5 83t-53.5 240l149 1094h258zM854 698h-76q-34 0 -53.5 20.5t-15.5 55.5l16 111q5 34 21.5 49.5t50.5 15.5h77q35 0 53.5 -20.5t14.5 -55.5l-14 -110q-9 -66 -74 -66z" />
    <glyph glyph-name="ldot" unicode="&#x140;" horiz-adv-x="759" 
d="M504 1434l-160 -1127q-9 -63 12.5 -86.5t87.5 -23.5h91l10 -187q-30 -16 -96.5 -24.5t-114.5 -8.5q-130 0 -195.5 74.5t-48.5 206.5l166 1176h248zM698 637h-77q-34 0 -53 20.5t-15 53.5l14 112q9 66 74 66h78q35 0 53 -20.5t12 -55.5l-12 -111q-12 -65 -74 -65z" />
    <glyph glyph-name="Lslash" unicode="&#x141;" horiz-adv-x="1058" 
d="M961 213l-7 -201q-176 -16 -557 -16q-152 0 -228.5 83t-53.5 240l45 334l-127 -49l16 146l131 51l84 612h258l-71 -508l245 94l-16 -145l-250 -96l-59 -430q-8 -58 13 -86.5t85 -28.5h492z" />
    <glyph glyph-name="lslash" unicode="&#x142;" horiz-adv-x="641" 
d="M412 756l-64 -449q-10 -62 12 -86t89 -24h90l10 -187q-32 -16 -97.5 -24.5t-113.5 -8.5q-130 0 -196.5 74.5t-47.5 206.5l56 397l-134 -51l19 146l135 53l90 631h248l-76 -531l250 96l-18 -145z" />
    <glyph glyph-name="Nacute" unicode="&#x143;" horiz-adv-x="1458" 
d="M1251 1710l-460 -227l-68 110l422 303zM1417 1413l-188 -1323q-6 -47 -29.5 -68.5t-69.5 -21.5h-186q-38 0 -59.5 20.5t-36.5 61.5l-297 866q-40 115 -57 207h-25q-3 -89 -16 -207l-129 -948h-252l186 1323q6 47 30 68.5t70 21.5h185q38 0 59.5 -20.5t36.5 -61.5
l287 -842q54 -165 69 -223h29q3 109 18 221l125 926h250z" />
    <glyph glyph-name="nacute" unicode="&#x144;" horiz-adv-x="1202" 
d="M612 1114l-67 111l422 303l106 -187zM391 1004l-6 -207q253 235 467 235q127 0 194.5 -74t47.5 -208l-107 -750h-248l95 680q10 85 -5 114t-69 27q-77 0 -159.5 -45t-213.5 -147l-86 -629h-248l142 1004h196z" />
    <glyph glyph-name="Ncommaaccent" unicode="&#x145;" horiz-adv-x="1458" 
d="M1417 1413l-188 -1323q-6 -47 -29.5 -68.5t-69.5 -21.5h-186q-38 0 -59.5 20.5t-36.5 61.5l-297 866q-40 115 -57 207h-25q-3 -89 -16 -207l-129 -948h-252l186 1323q6 47 30 68.5t70 21.5h185q38 0 59.5 -20.5t36.5 -61.5l287 -842q54 -165 69 -223h29q3 109 18 221
l125 926h250zM653 -113h60q45 0 61.5 -18t9.5 -59l-16 -109q-17 -134 -123 -289l-104 35q52 145 65 211q-36 -1 -52 16t-13 47l14 95q9 42 29 56.5t69 14.5z" />
    <glyph glyph-name="ncommaaccent" unicode="&#x146;" horiz-adv-x="1202" 
d="M391 1004l-6 -207q253 235 467 235q127 0 194.5 -74t47.5 -208l-107 -750h-248l95 680q10 85 -5 114t-69 27q-77 0 -159.5 -45t-213.5 -147l-86 -629h-248l142 1004h196zM496 -111h59q44 0 60.5 -18t9.5 -59l-15 -109q-20 -135 -123 -287l-106 33q51 137 68 211
q-36 -1 -52.5 16.5t-13.5 49.5l14 94q9 41 29 55t70 14z" />
    <glyph glyph-name="Ncaron" unicode="&#x147;" horiz-adv-x="1458" 
d="M1266 1784l-312 -268h-161l-250 284l92 88l239 -198h17l307 196zM1417 1413l-188 -1323q-6 -47 -29.5 -68.5t-69.5 -21.5h-186q-38 0 -59.5 20.5t-36.5 61.5l-297 866q-40 115 -57 207h-25q-3 -89 -16 -207l-129 -948h-252l186 1323q6 47 30 68.5t70 21.5h185
q38 0 59.5 -20.5t36.5 -61.5l287 -842q54 -165 69 -223h29q3 109 18 221l125 926h250z" />
    <glyph glyph-name="ncaron" unicode="&#x148;" horiz-adv-x="1202" 
d="M614 1147l-249 285l92 88l239 -199h17l307 197l67 -103l-311 -268h-162zM391 1004l-6 -207q253 235 467 235q127 0 194.5 -74t47.5 -208l-107 -750h-248l95 680q10 85 -5 114t-69 27q-77 0 -159.5 -45t-213.5 -147l-86 -629h-248l142 1004h196z" />
    <glyph glyph-name="Eng" unicode="&#x14a;" horiz-adv-x="1458" 
d="M1417 1413l-219 -1552q-20 -143 -104 -221t-209 -76q-125 0 -217 37l43 159h88q72 0 115.5 33t52.5 98l16 113h-49q-13 -1 -24.5 12t-16.5 24.5t-14 35.5l-330 837q-32 77 -53 209h-25q-3 -91 -20 -217l-127 -905h-252l186 1323q6 47 30 68.5t70 21.5h162q39 0 60.5 -20
t37.5 -62l308 -807q49 -134 71 -223h25q0 96 18 236l125 876h252z" />
    <glyph glyph-name="eng" unicode="&#x14b;" horiz-adv-x="1202" 
d="M385 1004v-207q247 235 457 235q139 0 205 -73.5t47 -208.5l-117 -834q-47 -330 -309 -330q-50 0 -112 10t-103 27l43 156h75q68 0 106.5 29.5t49.5 103.5l107 772q11 71 -5.5 97t-76.5 26q-69 0 -156 -46t-209 -134l-86 -627h-248l142 1004h190z" />
    <glyph glyph-name="Omacron" unicode="&#x14c;" horiz-adv-x="1376" 
d="M1122 1593h-594l25 172h594zM793 1440q206 0 324 -70t161.5 -234.5t5.5 -439.5q-29 -210 -77 -347.5t-129 -222t-189.5 -119t-267.5 -34.5q-103 0 -182 16t-143 52t-103.5 93t-63.5 140t-23.5 192.5t17.5 250.5q28 205 75.5 339.5t127.5 222t192 124.5t275 37zM782 1221
q-96 0 -158 -23.5t-108 -85.5t-74 -159.5t-51 -256.5q-31 -191 -16.5 -302.5t72.5 -156t180 -44.5q123 0 196.5 47t118.5 159t74 318q18 123 20.5 207t-9.5 143.5t-44 92t-80 47t-121 14.5z" />
    <glyph glyph-name="omacron" unicode="&#x14d;" horiz-adv-x="1173" 
d="M969 1225h-594l24 172h594zM637 1032q266 0 369.5 -126t62.5 -414q-40 -284 -165.5 -401.5t-387.5 -117.5q-264 0 -370.5 125t-67.5 412q40 285 166 403.5t393 118.5zM635 834q-96 0 -151.5 -28t-90.5 -102t-55 -212q-28 -189 8.5 -254.5t171.5 -65.5q142 0 204.5 71.5
t90.5 266.5q12 96 12.5 158.5t-22 99.5t-61.5 51.5t-107 14.5z" />
    <glyph glyph-name="Ohungarumlaut" unicode="&#x150;" horiz-adv-x="1376" 
d="M946 1804l-336 -331l-102 75l289 361zM1311 1804l-336 -331l-98 75l286 361zM793 1440q206 0 324 -70t161.5 -234.5t5.5 -439.5q-29 -210 -77 -347.5t-129 -222t-189.5 -119t-267.5 -34.5q-103 0 -182 16t-143 52t-103.5 93t-63.5 140t-23.5 192.5t17.5 250.5
q28 205 75.5 339.5t127.5 222t192 124.5t275 37zM782 1221q-96 0 -158 -23.5t-108 -85.5t-74 -159.5t-51 -256.5q-31 -191 -16.5 -302.5t72.5 -156t180 -44.5q123 0 196.5 47t118.5 159t74 318q18 123 20.5 207t-9.5 143.5t-44 92t-80 47t-121 14.5z" />
    <glyph glyph-name="ohungarumlaut" unicode="&#x151;" horiz-adv-x="1173" 
d="M793 1434l-336 -332l-103 78l289 358zM1157 1434l-336 -332l-98 78l287 358zM637 1032q266 0 369.5 -126t62.5 -414q-40 -284 -165.5 -401.5t-387.5 -117.5q-264 0 -370.5 125t-67.5 412q40 285 166 403.5t393 118.5zM635 834q-96 0 -151.5 -28t-90.5 -102t-55 -212
q-28 -189 8.5 -254.5t171.5 -65.5q142 0 204.5 71.5t90.5 266.5q12 96 12.5 158.5t-22 99.5t-61.5 51.5t-107 14.5z" />
    <glyph glyph-name="OE" unicode="&#x152;" horiz-adv-x="1918" 
d="M1901 1204h-545q-59 0 -87.5 -28t-37.5 -95l-33 -247h574l-25 -191h-576l-43 -319q-9 -64 12.5 -89.5t84.5 -25.5h534l-6 -197q-176 -16 -582 -16q-133 0 -206 49q-88 -40 -166 -56t-185 -16q-111 0 -193.5 15.5t-145 52t-100.5 92.5t-57 140t-17 192.5t22 251.5
q30 212 77.5 348.5t127.5 221.5t189 119t271 34q113 0 189 -14t156 -46q73 37 176 37q440 0 624 -18zM866 307l117 848q2 7 5 22.5t5 22.5q-96 21 -205 21q-125 0 -200.5 -48t-122 -160.5t-74.5 -316.5q-31 -191 -17 -302.5t69.5 -156t172.5 -44.5q136 0 246 30q-2 34 4 84z
" />
    <glyph glyph-name="oe" unicode="&#x153;" horiz-adv-x="1845" 
d="M1651 203l16 -162q-78 -34 -194 -50t-222 -16q-242 0 -352 119q-130 -121 -385 -121q-264 0 -369.5 125t-66.5 412q40 285 165 403.5t390 118.5q240 0 346 -106q122 106 399 106q128 0 214 -23.5t129 -69t56.5 -104t2.5 -137.5q-23 -149 -117 -213.5t-287 -76.5l-315 -27
q3 -120 57 -161.5t168 -41.5q160 0 365 25zM1075 549l285 24q86 6 125.5 37.5t48.5 110.5q8 79 -28.5 97t-157.5 18q-93 -1 -143.5 -24.5t-80.5 -84t-49 -178.5zM516 172q140 0 202.5 71.5t90.5 266.5q12 96 12.5 158.5t-21.5 99.5t-61 51.5t-106 14.5q-96 0 -151 -28
t-90 -101.5t-56 -212.5q-21 -124 -8.5 -195t55 -98t133.5 -27z" />
    <glyph glyph-name="Racute" unicode="&#x154;" horiz-adv-x="1288" 
d="M678 1483l-68 110l424 303l107 -186zM72 0l198 1413q192 19 502 19q119 0 204.5 -21t147 -68.5t85.5 -131t8 -203.5q-21 -154 -95 -241t-223 -105l-2 -13q65 -16 105 -65.5t57 -145.5l84 -438h-262l-76 442q-12 70 -42.5 96.5t-94.5 26.5l-265 2l-79 -567h-252zM432 776
h250q136 2 196 52t80 184q17 120 -24 164.5t-168 44.5h-270z" />
    <glyph glyph-name="racute" unicode="&#x155;" horiz-adv-x="839" 
d="M483 1114l-67 111l422 303l106 -187zM385 1004l-6 -213q241 241 440 241h58l-58 -233h-65q-49 0 -109 -23.5t-108 -51.5t-150 -93l-86 -631h-248l142 1004h190z" />
    <glyph glyph-name="Rcommaaccent" unicode="&#x156;" horiz-adv-x="1288" 
d="M72 0l198 1413q192 19 502 19q119 0 204.5 -21t147 -68.5t85.5 -131t8 -203.5q-21 -154 -95 -241t-223 -105l-2 -13q65 -16 105 -65.5t57 -145.5l84 -438h-262l-76 442q-12 70 -42.5 96.5t-94.5 26.5l-265 2l-79 -567h-252zM432 776h250q136 2 196 52t80 184
q17 120 -24 164.5t-168 44.5h-270zM608 -113h58q46 0 62.5 -18t8.5 -59l-14 -109q-20 -136 -125 -289l-104 35q47 121 67 211q-36 -1 -53 16t-12 47l14 95q9 42 29 56.5t69 14.5z" />
    <glyph glyph-name="rcommaaccent" unicode="&#x157;" horiz-adv-x="839" 
d="M877 1032l-58 -233h-65q-49 0 -109 -23.5t-108 -51.5t-150 -93l-86 -631h-248l142 1004h190l-6 -213q241 241 440 241h58zM127 -111h57q46 0 62.5 -18t9.5 -59l-14 -109q-20 -138 -125 -287l-105 33q51 137 68 211q-36 -1 -53.5 17t-12.5 49l15 94q9 41 28.5 55t69.5 14z
" />
    <glyph glyph-name="Rcaron" unicode="&#x158;" horiz-adv-x="1288" 
d="M682 1516l-250 284l92 88l238 -198h16l309 196l68 -102l-313 -268h-160zM72 0l198 1413q192 19 502 19q119 0 204.5 -21t147 -68.5t85.5 -131t8 -203.5q-21 -154 -95 -241t-223 -105l-2 -13q65 -16 105 -65.5t57 -145.5l84 -438h-262l-76 442q-12 70 -42.5 96.5
t-94.5 26.5l-265 2l-79 -567h-252zM432 776h250q136 2 196 52t80 184q17 120 -24 164.5t-168 44.5h-270z" />
    <glyph glyph-name="rcaron" unicode="&#x159;" horiz-adv-x="839" 
d="M485 1147l-249 285l92 88l239 -199h17l307 197l67 -103l-311 -268h-162zM385 1004l-6 -213q241 241 440 241h58l-58 -233h-65q-49 0 -109 -23.5t-108 -51.5t-150 -93l-86 -631h-248l142 1004h190z" />
    <glyph glyph-name="Sacute" unicode="&#x15a;" horiz-adv-x="1163" 
d="M1087 1710l-460 -227l-68 110l422 303zM668 561l-271 98q-148 55 -201 154t-32 254q13 95 43 161.5t71 107t105.5 63.5t134 31t168.5 8q262 0 442 -49l-26 -181q-272 9 -414 9q-65 0 -93.5 -1.5t-66.5 -9.5t-54 -26t-31.5 -50t-22.5 -83q-4 -31 -4.5 -53t5 -40t13 -29
t25 -22t35.5 -18.5t49 -18.5l262 -94q157 -57 207.5 -151t27.5 -259q-12 -96 -38 -162t-66 -111t-104 -69.5t-142 -34.5t-190 -10q-228 0 -459 48l29 186q357 -8 419 -8q69 0 111.5 3.5t78 14t55 31t32 52t18.5 79.5q8 61 -1.5 94.5t-34 50t-80.5 35.5z" />
    <glyph glyph-name="sacute" unicode="&#x15b;" horiz-adv-x="1052" 
d="M995 1341l-460 -227l-68 111l422 303zM563 365l-256 114q-116 53 -163 124.5t-35 178.5q17 138 119.5 195t316.5 55q232 -3 444 -37l-26 -170q-193 6 -402 6q-45 0 -68.5 -0.5t-51.5 -2.5t-41 -6t-26 -11t-18.5 -18t-7.5 -27q-2 -18 2.5 -32.5t11 -24t26 -21t32 -17.5
t43.5 -20l256 -114q127 -56 174 -120t33 -177q-10 -69 -37 -117t-64.5 -76.5t-100 -44t-126 -20.5t-158.5 -5q-78 0 -137.5 3t-89.5 6.5t-87.5 11t-96.5 12.5l26 174q109 -8 312 -8q127 0 192 7t92 23.5t33 49.5q4 8 1 17t-2 14t-5 12t-8 10.5t-11 9t-14 8.5t-16.5 8.5
t-19 9t-22 9.5t-24.5 11z" />
    <glyph glyph-name="Scedilla" unicode="&#x15e;" horiz-adv-x="1163" 
d="M668 561l-271 98q-148 55 -201 154t-32 254q13 95 43 161.5t71 107t105.5 63.5t134 31t168.5 8q262 0 442 -49l-26 -181q-272 9 -414 9q-65 0 -93.5 -1.5t-66.5 -9.5t-54 -26t-31.5 -50t-22.5 -83q-4 -31 -4.5 -53t5 -40t13 -29t25 -22t35.5 -18.5t49 -18.5l262 -94
q157 -57 207.5 -151t27.5 -259q-12 -96 -38 -162t-66 -111t-104 -69.5t-142 -34.5t-190 -10q-228 0 -459 48l29 186q357 -8 419 -8q69 0 111.5 3.5t78 14t55 31t32 52t18.5 79.5q8 61 -1.5 94.5t-34 50t-80.5 35.5zM348 -221l29 108q148 16 210 -12.5t44 -128.5
q-23 -139 -137.5 -208.5t-272.5 -47.5l41 119q74 0 130.5 35.5t68.5 95.5q5 25 -14.5 32t-98.5 7z" />
    <glyph glyph-name="scedilla" unicode="&#x15f;" horiz-adv-x="1052" 
d="M563 365l-256 114q-116 53 -163 124.5t-35 178.5q17 138 119.5 195t316.5 55q232 -3 444 -37l-26 -170q-193 6 -402 6q-45 0 -68.5 -0.5t-51.5 -2.5t-41 -6t-26 -11t-18.5 -18t-7.5 -27q-2 -18 2.5 -32.5t11 -24t26 -21t32 -17.5t43.5 -20l256 -114q127 -56 174 -120
t33 -177q-10 -69 -37 -117t-64.5 -76.5t-100 -44t-126 -20.5t-158.5 -5q-78 0 -137.5 3t-89.5 6.5t-87.5 11t-96.5 12.5l26 174q109 -8 312 -8q127 0 192 7t92 23.5t33 49.5q4 8 1 17t-2 14t-5 12t-8 10.5t-11 9t-14 8.5t-16.5 8.5t-19 9t-22 9.5t-24.5 11zM276 -215l29 109
q148 16 210 -13t44 -129q-24 -139 -138 -208.5t-271 -47.5l40 121q74 -2 130.5 33.5t68.5 95.5q5 25 -15.5 32t-97.5 7z" />
    <glyph glyph-name="Scaron" unicode="&#x160;" horiz-adv-x="1163" 
d="M1102 1784l-311 -268h-160l-252 284l92 88l240 -198h16l307 196zM668 561l-271 98q-148 55 -201 154t-32 254q13 95 43 161.5t71 107t105.5 63.5t134 31t168.5 8q262 0 442 -49l-26 -181q-272 9 -414 9q-65 0 -93.5 -1.5t-66.5 -9.5t-54 -26t-31.5 -50t-22.5 -83
q-4 -31 -4.5 -53t5 -40t13 -29t25 -22t35.5 -18.5t49 -18.5l262 -94q157 -57 207.5 -151t27.5 -259q-12 -96 -38 -162t-66 -111t-104 -69.5t-142 -34.5t-190 -10q-228 0 -459 48l29 186q357 -8 419 -8q69 0 111.5 3.5t78 14t55 31t32 52t18.5 79.5q8 61 -1.5 94.5t-34 50
t-80.5 35.5z" />
    <glyph glyph-name="scaron" unicode="&#x161;" horiz-adv-x="1052" 
d="M1010 1415l-312 -268h-159l-252 285l92 88l239 -199h17l307 197zM563 365l-256 114q-116 53 -163 124.5t-35 178.5q17 138 119.5 195t316.5 55q232 -3 444 -37l-26 -170q-193 6 -402 6q-45 0 -68.5 -0.5t-51.5 -2.5t-41 -6t-26 -11t-18.5 -18t-7.5 -27q-2 -18 2.5 -32.5
t11 -24t26 -21t32 -17.5t43.5 -20l256 -114q127 -56 174 -120t33 -177q-10 -69 -37 -117t-64.5 -76.5t-100 -44t-126 -20.5t-158.5 -5q-78 0 -137.5 3t-89.5 6.5t-87.5 11t-96.5 12.5l26 174q109 -8 312 -8q127 0 192 7t92 23.5t33 49.5q4 8 1 17t-2 14t-5 12t-8 10.5t-11 9
t-14 8.5t-16.5 8.5t-19 9t-22 9.5t-24.5 11z" />
    <glyph glyph-name="Tcedilla" unicode="&#x162;" horiz-adv-x="1196" 
d="M1243 1194h-434l-168 -1194h-256l168 1194h-432l31 219h1122zM354 -193l29 109q149 15 210.5 -14t43.5 -129q-24 -139 -138 -208t-272 -48l41 121q74 -2 130.5 33.5t68.5 95.5q4 26 -15.5 33t-97.5 7z" />
    <glyph glyph-name="tcedilla" unicode="&#x163;" horiz-adv-x="813" 
d="M502 823l-74 -516q-8 -65 11.5 -87.5t86.5 -22.5h142l10 -185q-50 -17 -127 -26t-127 -9q-137 0 -201.5 78.5t-44.5 218.5l78 549h-182l22 170l187 11l41 288h245l-41 -288h291l-22 -181h-295zM221 -213l29 109q150 16 211.5 -13t42.5 -131q-23 -139 -137.5 -208
t-272.5 -48l41 121q75 -2 131 33.5t68 95.5q5 27 -14.5 34t-98.5 7z" />
    <glyph glyph-name="Tcaron" unicode="&#x164;" horiz-adv-x="1196" 
d="M651 1516l-252 284l93 88l239 -198h17l307 196l67 -102l-311 -268h-160zM1243 1194h-434l-168 -1194h-256l168 1194h-432l31 219h1122z" />
    <glyph glyph-name="tcaron" unicode="&#x165;" horiz-adv-x="813" 
d="M758 1606h59q45 0 62 -18.5t10 -59.5l-17 -109q-17 -136 -122 -289l-105 35q54 151 66 211q-36 -1 -52.5 16.5t-13.5 49.5l14 92q9 42 29.5 57t69.5 15zM528 1004h291l-22 -181h-295l-74 -516q-8 -65 11.5 -87.5t86.5 -22.5h142l10 -185q-50 -17 -127 -26t-127 -9
q-137 0 -201.5 78.5t-44.5 218.5l78 549h-182l22 170l187 11l41 288h245z" />
    <glyph glyph-name="Tbar" unicode="&#x166;" horiz-adv-x="1196" 
d="M809 1194l-49 -350h287l-19 -131h-287l-100 -713h-256l98 713h-258l19 131h260l49 350h-432l31 219h1122l-31 -219h-434z" />
    <glyph glyph-name="tbar" unicode="&#x167;" horiz-adv-x="813" 
d="M502 823l-23 -155h240l-17 -133h-241l-33 -228q-8 -65 11.5 -87.5t86.5 -22.5h142l10 -185q-50 -17 -127 -26t-127 -9q-137 0 -201.5 78.5t-44.5 218.5l37 261h-129l18 133h129l23 155h-182l22 170l187 11l41 288h245l-41 -288h291l-22 -181h-295z" />
    <glyph glyph-name="Umacron" unicode="&#x16a;" horiz-adv-x="1368" 
d="M1120 1593h-596l25 172h596zM1337 1413l-123 -864q-44 -315 -179.5 -445.5t-413.5 -130.5q-287 0 -406 137.5t-76 448.5l119 854h258l-121 -864q-29 -204 17.5 -280t203.5 -76q162 0 238 80.5t107 285.5l118 854h258z" />
    <glyph glyph-name="umacron" unicode="&#x16b;" horiz-adv-x="1181" 
d="M981 1237h-596l25 172h596zM1100 1004l-139 -1004h-193l8 199q-123 -117 -228.5 -171.5t-217.5 -54.5q-139 0 -203 76t-43 207l104 748h248l-96 -682q-12 -77 7 -107.5t79 -30.5q74 0 146 43t196 150l86 627h246z" />
    <glyph glyph-name="Uring" unicode="&#x16e;" horiz-adv-x="1368" 
d="M848 1913q104 0 168.5 -67t52.5 -169q-11 -93 -75.5 -154t-166.5 -61q-106 0 -168 66.5t-51 167.5q9 92 73.5 154.5t166.5 62.5zM848 1798q-49 0 -79.5 -30.5t-35.5 -77.5q-6 -54 23 -84.5t75 -30.5q49 0 79.5 32t33.5 83q4 49 -22 78.5t-74 29.5zM1337 1413l-123 -864
q-44 -315 -179.5 -445.5t-413.5 -130.5q-287 0 -406 137.5t-76 448.5l119 854h258l-121 -864q-29 -204 17.5 -280t203.5 -76q162 0 238 80.5t107 285.5l118 854h258z" />
    <glyph glyph-name="uring" unicode="&#x16f;" horiz-adv-x="1181" 
d="M688 1104q-105 0 -167.5 66.5t-51.5 166.5q9 93 73.5 155t166.5 62q104 0 168.5 -66t52.5 -169q-11 -92 -75.5 -153.5t-166.5 -61.5zM594 1331q-6 -54 23 -83t75 -29q49 0 79.5 32t33.5 82q5 48 -22 78.5t-74 30.5q-49 0 -79.5 -31.5t-35.5 -79.5zM1100 1004l-139 -1004
h-193l8 199q-123 -117 -228.5 -171.5t-217.5 -54.5q-139 0 -203 76t-43 207l104 748h248l-96 -682q-12 -77 7 -107.5t79 -30.5q74 0 146 43t196 150l86 627h246z" />
    <glyph glyph-name="Uhungarumlaut" unicode="&#x170;" horiz-adv-x="1368" 
d="M942 1804l-336 -331l-100 75l289 361zM1309 1804l-336 -331l-101 75l287 361zM1337 1413l-123 -864q-44 -315 -179.5 -445.5t-413.5 -130.5q-287 0 -406 137.5t-76 448.5l119 854h258l-121 -864q-29 -204 17.5 -280t203.5 -76q162 0 238 80.5t107 285.5l118 854h258z" />
    <glyph glyph-name="uhungarumlaut" unicode="&#x171;" horiz-adv-x="1181" 
d="M467 1114l-100 78l288 358l148 -104zM733 1190l287 360l149 -104l-335 -332zM854 1004h246l-139 -1004h-193l8 199q-123 -117 -228.5 -171.5t-217.5 -54.5q-139 0 -203 76t-43 207l104 748h248l-96 -682q-12 -77 7 -107.5t79 -30.5q74 0 146 43t196 150z" />
    <glyph glyph-name="Uogonek" unicode="&#x172;" horiz-adv-x="1368" 
d="M1337 1413l-123 -864q-43 -300 -166.5 -432t-371.5 -144q-84 -90 -154 -217q-36 -60 -3 -77.5t120 8.5l27 -101q-86 -33 -155 -40t-110 9t-63 46.5t-20.5 71.5t24.5 85q54 107 209 217q-248 15 -350.5 154t-61.5 430l119 854h258l-121 -864q-29 -204 17.5 -280t203.5 -76
q162 0 238 80.5t107 285.5l118 854h258z" />
    <glyph glyph-name="uogonek" unicode="&#x173;" horiz-adv-x="1181" 
d="M1100 1004l-139 -1004q-95 -106 -160 -225q-36 -60 -3 -78t120 8l26 -100q-86 -33 -154.5 -40t-109.5 9t-63 46.5t-20.5 71.5t24.5 85q61 114 219 223h-72l8 199q-123 -117 -228.5 -171.5t-217.5 -54.5q-139 0 -203 76t-43 207l104 748h248l-96 -682q-12 -77 7 -107.5
t79 -30.5q74 0 146 43t196 150l86 627h246z" />
    <glyph glyph-name="Wcircumflex" unicode="&#x174;" horiz-adv-x="1955" 
d="M1485 1569l-84 -92l-254 204h-17l-311 -200l-67 102l303 268h172zM2015 1413l-436 -1345q-21 -68 -98 -68h-262q-35 0 -61.5 23t-27.5 57l-43 981q-1 18 -2.5 51.5t-2.5 61t-1 51.5h-41q-12 -49 -49 -170l-313 -985q-22 -70 -98 -70h-261q-35 0 -62 23t-28 55l-63 1335
h260l20 -1034q3 -88 0 -193h46q6 24 59 203l303 948q26 76 102 76h244q36 0 59 -25t25 -61l55 -950q9 -138 7 -191h45q16 69 53 199l305 1028h266z" />
    <glyph glyph-name="wcircumflex" unicode="&#x175;" horiz-adv-x="1785" 
d="M1337 1202l-84 -94l-256 205h-16l-311 -199l-66 100l301 271h174zM446 184h27q61 0 102 90q39 76 82 256q32 137 70 414q3 27 22 43.5t46 16.5h258q25 0 41.5 -15.5t19.5 -40.5l74 -764h22q45 0 86 80q62 113 117 277q55 176 96 463h256q-61 -308 -153 -547
q-78 -206 -156 -322q-48 -72 -100 -103.5t-135 -31.5h-146q-30 0 -51.5 19t-24.5 47l-65 782h-27q-17 -198 -59 -375q-49 -189 -105 -295q-49 -102 -118.5 -140t-165.5 -38h-137q-30 0 -50.5 18.5t-25.5 47.5l-164 940h258z" />
    <glyph glyph-name="Ycircumflex" unicode="&#x176;" horiz-adv-x="1200" 
d="M436 1483l-65 102l301 268h174l258 -282l-86 -92l-254 204h-16zM705 475l-66 -475h-258l70 487l-330 926h260l178 -553q26 -80 33 -172h20q18 79 78 178l334 547h279z" />
    <glyph glyph-name="ycircumflex" unicode="&#x177;" horiz-adv-x="1146" 
d="M332 1114l-66 100l301 271h174l258 -283l-86 -94l-254 205h-16zM864 1004h260q-99 -490 -284 -844q-82 -156 -165 -263t-173.5 -171.5t-180.5 -96.5t-206 -47l-39 168q134 30 229.5 83t183.5 167h-104q-47 0 -82.5 28t-42.5 72l-182 904h262l129 -787q7 -33 39 -33h94
l27 56q86 185 141 358.5t94 405.5z" />
    <glyph glyph-name="Ydieresis" unicode="&#x178;" horiz-adv-x="1200" 
d="M944 1563h-86q-61 0 -53 57l18 119q4 32 21 46.5t49 14.5h80q35 0 47.5 -14t7.5 -47l-18 -117q-6 -59 -66 -59zM598 1563h-86q-61 0 -53 57l18 119q5 32 21.5 46.5t50.5 14.5h78q36 0 48 -14t7 -47l-18 -117q-6 -59 -66 -59zM705 475l-66 -475h-258l70 487l-330 926h260
l178 -553q26 -80 33 -172h20q18 79 78 178l334 547h279z" />
    <glyph glyph-name="Zacute" unicode="&#x179;" horiz-adv-x="1167" 
d="M641 1483l-68 110l422 303l107 -186zM1151 1204l-832 -995h707l-29 -209h-991l29 209l831 995h-680l31 209h965z" />
    <glyph glyph-name="zacute" unicode="&#x17a;" horiz-adv-x="1054" 
d="M518 1114l-67 111l421 303l107 -187zM989 813l-672 -623h592l-26 -190h-877l25 190l671 623h-573l25 191h860l-27 -191h2z" />
    <glyph glyph-name="Zdotaccent" unicode="&#x17b;" horiz-adv-x="1167" 
d="M768 1542h-78q-35 0 -53 20.5t-12 55.5l12 111q12 65 74 65h77q35 0 54.5 -21t13.5 -55l-14 -110q-9 -66 -74 -66zM1151 1204l-832 -995h707l-29 -209h-991l29 209l831 995h-680l31 209h965z" />
    <glyph glyph-name="zdotaccent" unicode="&#x17c;" horiz-adv-x="1054" 
d="M645 1174h-78q-35 0 -53 19.5t-12 53.5l14 111q9 67 74 67h76q35 0 54 -20t15 -55l-16 -111q-9 -65 -74 -65zM989 813l-672 -623h592l-26 -190h-877l25 190l671 623h-573l25 191h860l-27 -191h2z" />
    <glyph glyph-name="Zcaron" unicode="&#x17d;" horiz-adv-x="1167" 
d="M643 1516l-250 284l92 88l240 -198h16l308 196l67 -102l-311 -268h-162zM1151 1204l-832 -995h707l-29 -209h-991l29 209l831 995h-680l31 209h965z" />
    <glyph glyph-name="zcaron" unicode="&#x17e;" horiz-adv-x="1054" 
d="M520 1147l-250 285l92 88l240 -199h16l308 197l67 -103l-311 -268h-162zM989 813l-672 -623h592l-26 -190h-877l25 190l671 623h-573l25 191h860l-27 -191h2z" />
    <glyph glyph-name="florin" unicode="&#x192;" horiz-adv-x="935" 
d="M973 1241h-139q-79 0 -120.5 -30t-60.5 -113l-61 -271h260l-41 -182h-262l-154 -665q-36 -147 -120 -223t-240 -76q-145 0 -244 18l51 178h129q78 0 121 34t60 109l145 625h-199l33 162l209 18l72 312q68 299 366 299q146 0 246 -19z" />
    <glyph glyph-name="Scommaaccent" unicode="&#x218;" horiz-adv-x="1163" 
d="M668 561l-271 98q-148 55 -201 154t-32 254q13 95 43 161.5t71 107t105.5 63.5t134 31t168.5 8q262 0 442 -49l-26 -181q-272 9 -414 9q-65 0 -93.5 -1.5t-66.5 -9.5t-54 -26t-31.5 -50t-22.5 -83q-4 -31 -4.5 -53t5 -40t13 -29t25 -22t35.5 -18.5t49 -18.5l262 -94
q157 -57 207.5 -151t27.5 -259q-12 -96 -38 -162t-66 -111t-104 -69.5t-142 -34.5t-190 -10q-228 0 -459 48l29 186q357 -8 419 -8q69 0 111.5 3.5t78 14t55 31t32 52t18.5 79.5q8 61 -1.5 94.5t-34 50t-80.5 35.5zM504 -113h59q44 0 60.5 -18t9.5 -59l-15 -109
q-20 -135 -122 -289l-107 35q49 128 68 211q-36 -1 -52.5 16t-13.5 47l15 95q9 42 29 56.5t69 14.5z" />
    <glyph glyph-name="scommaaccent" unicode="&#x219;" horiz-adv-x="1052" 
d="M563 365l-256 114q-116 53 -163 124.5t-35 178.5q17 138 119.5 195t316.5 55q232 -3 444 -37l-26 -170q-193 6 -402 6q-45 0 -68.5 -0.5t-51.5 -2.5t-41 -6t-26 -11t-18.5 -18t-7.5 -27q-2 -18 2.5 -32.5t11 -24t26 -21t32 -17.5t43.5 -20l256 -114q127 -56 174 -120
t33 -177q-10 -69 -37 -117t-64.5 -76.5t-100 -44t-126 -20.5t-158.5 -5q-78 0 -137.5 3t-89.5 6.5t-87.5 11t-96.5 12.5l26 174q109 -8 312 -8q127 0 192 7t92 23.5t33 49.5q4 8 1 17t-2 14t-5 12t-8 10.5t-11 9t-14 8.5t-16.5 8.5t-19 9t-22 9.5t-24.5 11zM410 -113h57
q46 0 62.5 -17t9.5 -58l-15 -109q-20 -136 -125 -289l-104 33q49 130 67 213q-36 -3 -53 14.5t-12 49.5l14 94q7 41 28 55t71 14z" />
    <glyph glyph-name="uni021A" unicode="&#x21a;" horiz-adv-x="1196" 
d="M1243 1194h-434l-168 -1194h-256l168 1194h-432l31 219h1122zM473 -111h59q44 0 61 -18t11 -59l-16 -109q-20 -135 -123 -287l-107 33q2 7 15 40t17 44t12.5 36.5t13.5 46.5t10 44q-36 -1 -52.5 16.5t-13.5 49.5l15 94q9 41 28.5 55t69.5 14z" />
    <glyph glyph-name="uni021B" unicode="&#x21b;" horiz-adv-x="813" 
d="M502 823l-74 -516q-8 -65 11.5 -87.5t86.5 -22.5h142l10 -185q-50 -17 -127 -26t-127 -9q-137 0 -201.5 78.5t-44.5 218.5l78 549h-182l22 170l187 11l41 288h245l-41 -288h291l-22 -181h-295zM360 -113h60q45 0 62 -17t10 -58l-17 -109q-17 -134 -123 -289l-104 33
q54 154 65 213q-36 -3 -52 14.5t-13 49.5l14 94q9 41 28.5 55t69.5 14z" />
    <glyph glyph-name="circumflex" unicode="&#x2c6;" horiz-adv-x="892" 
d="M922 1190l-84 -92l-256 205h-17l-311 -201l-66 102l301 269h175z" />
    <glyph glyph-name="caron" unicode="&#x2c7;" horiz-adv-x="892" 
d="M932 1403l-311 -268h-160l-252 284l92 86l240 -196h16l307 196z" />
    <glyph glyph-name="breve" unicode="&#x2d8;" horiz-adv-x="788" 
d="M727 1442l121 -25q-6 -128 -101.5 -208.5t-250.5 -80.5q-162 0 -244 85.5t-51 211.5l123 9q-9 -65 36.5 -98t137.5 -33q102 0 162.5 37t66.5 102z" />
    <glyph glyph-name="dotaccent" unicode="&#x2d9;" horiz-adv-x="468" 
d="M317 1421h76q36 0 55 -20t15 -55l-17 -111q-5 -34 -21.5 -50t-49.5 -16h-78q-35 0 -53.5 20.5t-14.5 55.5l15 109q9 67 73 67z" />
    <glyph glyph-name="ring" unicode="&#x2da;" horiz-adv-x="624" 
d="M434 1534q105 0 170 -66.5t53 -169.5q-13 -93 -76.5 -154t-164.5 -61q-106 0 -168.5 66.5t-50.5 167.5q9 93 72.5 155t164.5 62zM436 1419q-50 0 -81 -30.5t-36 -77.5q-6 -54 23.5 -83.5t75.5 -29.5q50 0 79.5 31.5t34.5 83.5q4 47 -22.5 76.5t-73.5 29.5z" />
    <glyph glyph-name="ogonek" unicode="&#x2db;" horiz-adv-x="514" 
d="M211 8l111 -8q-95 -106 -160 -225q-36 -60 -3 -78t120 8l26 -100q-86 -33 -154.5 -40t-109 9t-62.5 46.5t-20 71.5t25 85q63 120 227 231z" />
    <glyph glyph-name="tilde" unicode="&#x2dc;" horiz-adv-x="882" 
d="M307 1176l-108 10q1 133 54.5 200t133.5 62q70 -5 163 -50.5t138 -51.5q56 -9 81.5 15t33.5 81l108 -10q0 -128 -51.5 -195.5t-132.5 -62.5q-79 6 -176.5 53.5t-130.5 52.5q-55 7 -80 -18.5t-33 -85.5z" />
    <glyph glyph-name="hungarumlaut" unicode="&#x2dd;" horiz-adv-x="985" 
d="M633 1405l-336 -332l-102 76l288 360zM997 1405l-335 -332l-99 76l287 360z" />
    <glyph glyph-name="Delta" unicode="&#x394;" horiz-adv-x="1318" 
d="M1206 94l-12 -94h-1227l10 94l672 1319h256zM932 201l-164 798q-14 75 -20 168q-39 -119 -66 -172l-387 -794h637z" />
    <glyph glyph-name="Omega" unicode="&#x3a9;" horiz-adv-x="1466" 
d="M43 219h178q75 0 141 -20q-48 49 -83.5 96t-64.5 103.5t-42.5 115t-17.5 130t10 149.5q44 329 203.5 488t470.5 159q308 0 435.5 -167t80.5 -503q-30 -209 -111 -333t-256 -240q70 22 139 22h187l-29 -219h-543l25 207q149 102 219 223.5t98 321.5q35 261 -21 366
t-235 105q-185 0 -275.5 -110.5t-127.5 -375.5q-29 -202 6.5 -314.5t151.5 -219.5l-27 -203h-541z" />
    <glyph glyph-name="mu" unicode="&#x3bc;" horiz-adv-x="1239" 
d="M1133 1004l-142 -1004h-194v145q-214 -172 -394 -172q-69 0 -131 27q6 -68 0 -135l-39 -264h-215l97 690l98 713h250l-96 -682q-9 -64 16.5 -91.5t93.5 -27.5q70 0 138.5 23t170.5 77l97 701h250z" />
    <glyph glyph-name="pi" unicode="&#x3c0;" horiz-adv-x="1314" 
d="M1298 815h-172l-114 -815h-248l115 815h-379l-115 -815h-248l115 815h-174l26 191h1221z" />
    <glyph glyph-name="uni0401" unicode="&#x401;" horiz-adv-x="1157" 
d="M993 1595h-86q-62 0 -53 58l18 121q5 31 21.5 45t48.5 14h80q35 0 47.5 -14t7.5 -45l-18 -119q-6 -60 -66 -60zM647 1595h-86q-62 0 -53 58l18 121q5 31 21.5 45t50.5 14h78q36 0 48 -13.5t7 -45.5l-18 -119q-6 -60 -66 -60zM1139 1204h-545q-62 0 -90 -27t-35 -96
l-35 -247h576l-25 -191h-575l-45 -317q-8 -66 14 -91.5t86 -25.5h532l-6 -197q-174 -16 -577 -16q-175 0 -253 84t-57 235l117 840q18 125 101 193.5t227 68.5q440 0 622 -18z" />
    <glyph glyph-name="uni0402" unicode="&#x402;" horiz-adv-x="1540" 
d="M811 1194l-57 -403q186 124 403 124q51 0 92.5 -8t82 -27t66.5 -51.5t45.5 -81.5t20.5 -117t-10 -157q-22 -142 -72.5 -240t-129 -152.5t-174 -76.5t-220.5 -18l-12 184q177 17 251 79t101 220q9 52 9 91t-8 63.5t-19.5 40.5t-31 23.5t-37.5 10t-44 2.5q-91 0 -166 -26.5
t-178 -93.5l-80 -580h-258l168 1194h-432l33 219h1120l-29 -219h-434z" />
    <glyph glyph-name="uni0403" unicode="&#x403;" horiz-adv-x="1064" 
d="M1112 1710l-463 -227l-67 110l422 303zM70 0l157 1128q20 141 103 215t207 74q426 0 604 -20l-33 -193h-487q-77 0 -105.5 -26.5t-40.5 -106.5l-149 -1071h-256z" />
    <glyph glyph-name="uni0404" unicode="&#x404;" horiz-adv-x="1185" 
d="M1206 1391l-37 -193q-190 12 -331 12q-108 0 -173.5 -13.5t-119 -54t-85 -113.5t-54.5 -195h579l-22 -191h-586q-10 -88 -12 -151t7 -112t27 -80t51 -52t74.5 -31t102.5 -14q168 -9 403 20l10 -196q-201 -61 -424 -52q-223 10 -340 85t-154.5 236.5t1.5 420.5
q28 211 79.5 349.5t138.5 221.5t202 116.5t282 33.5q216 0 381 -47z" />
    <glyph glyph-name="uni0405" unicode="&#x405;" horiz-adv-x="1163" 
d="M668 561l-271 98q-148 55 -201 154t-32 254q13 95 43 161.5t71 107t105.5 63.5t134 31t168.5 8q262 0 442 -49l-26 -181q-272 9 -414 9q-65 0 -93.5 -1.5t-66.5 -9.5t-54 -26t-31.5 -50t-22.5 -83q-4 -31 -4.5 -53t5 -40t13 -29t25 -22t35.5 -18.5t49 -18.5l262 -94
q157 -57 207.5 -151t27.5 -259q-12 -96 -38 -162t-66 -111t-104 -69.5t-142 -34.5t-190 -10q-228 0 -459 48l29 186q357 -8 419 -8q69 0 111.5 3.5t78 14t55 31t32 52t18.5 79.5q8 61 -1.5 94.5t-34 50t-80.5 35.5z" />
    <glyph glyph-name="uni0406" unicode="&#x406;" horiz-adv-x="571" 
d="M332 0h-258l198 1413h258z" />
    <glyph glyph-name="uni0407" unicode="&#x407;" horiz-adv-x="571" 
d="M588 1800h78q36 0 49 -14t8 -47l-18 -117q-5 -31 -20 -45t-46 -14h-86q-31 0 -44.5 13.5t-10.5 43.5l20 119q4 32 21 46.5t49 14.5zM242 1800h77q36 0 49.5 -14t8.5 -47l-21 -117q-6 -59 -63 -59h-86q-31 0 -44.5 13.5t-10.5 43.5l20 119q4 32 21 46.5t49 14.5zM330 0
h-258l198 1413h258z" />
    <glyph glyph-name="uni0408" unicode="&#x408;" horiz-adv-x="720" 
d="M684 1413l-156 -1106q-23 -162 -107 -246t-218 -84q-53 0 -123.5 11t-106.5 26l47 176h89q71 0 113.5 35t51.5 99l152 1089h258z" />
    <glyph glyph-name="uni0409" unicode="&#x409;" horiz-adv-x="2002" 
d="M1237 872h231q181 0 282 -43t139 -143t14 -272q-18 -127 -51.5 -209t-94 -132t-142.5 -69.5t-206 -19.5q-359 0 -549 16l172 1214h-176q-75 0 -110 -30t-52 -109q-14 -58 -46.5 -200t-46 -193.5t-39.5 -142.5t-51.5 -150t-57.5 -113q-80 -142 -191 -207t-270 -73l-8 219
q168 29 237 145q18 29 34 62.5t28.5 62t27.5 77.5t24 80t25.5 101t25 108t30 134.5t33.5 149.5q33 140 113 209t218 69h533zM1143 197h223q106 0 160 20t80 68.5t41 150.5q15 88 5.5 141.5t-55 76t-145.5 22.5h-242z" />
    <glyph glyph-name="uni040A" unicode="&#x40a;" horiz-adv-x="1996" 
d="M1231 868h235q106 0 181.5 -14t132 -47t84.5 -85.5t38.5 -130t-6.5 -181.5q-17 -126 -50.5 -207t-93.5 -130.5t-141.5 -69t-203.5 -19.5q-364 0 -551 16l92 666h-520l-94 -666h-258l198 1413h258l-77 -547h522l78 547h252zM1137 199l227 -2q79 0 126 9.5t78.5 38t46 71
t25.5 116.5q14 86 5.5 138.5t-53.5 75t-144 22.5h-246z" />
    <glyph glyph-name="uni040B" unicode="&#x40b;" horiz-adv-x="1574" 
d="M809 1194l-57 -403q222 127 426 127q176 0 250 -83.5t51 -254.5l-82 -580h-256l76 537q13 93 -17 126t-127 33q-88 0 -166.5 -27t-185.5 -94l-80 -575h-258l168 1194h-430l31 219h1120l-29 -219h-434z" />
    <glyph glyph-name="uni040C" unicode="&#x40c;" horiz-adv-x="1259" 
d="M692 1483l-67 110l422 303l106 -186zM750 737l-2 -8q138 -22 206 -114q61 -82 108 -287q10 -48 66 -328h-258q-7 38 -20 107q-17 91 -25 132.5t-23 108t-25.5 94.5t-28.5 70t-37 58t-46 35.5t-59.5 25.5t-73.5 6h-124q3 -61 -9 -143l-69 -494h-256l198 1413h256l-59 -422
q-13 -90 -35 -157h113q63 0 117.5 28t91 59t88.5 121t77.5 143.5t91.5 195.5q10 21 15 32h266q-133 -295 -186 -389q-96 -171 -202 -235q-68 -42 -156 -52z" />
    <glyph glyph-name="uni040D" unicode="&#x40d;" horiz-adv-x="1431" 
d="M979 1591l-84 -108l-430 241l123 170zM1192 0h-248l127 887q16 109 45 215h-12q-68 -130 -98 -174l-658 -928h-274l198 1413h248l-125 -885q-14 -100 -49 -217h12q43 88 107 178l651 924h275z" />
    <glyph glyph-name="uni040E" unicode="&#x40e;" horiz-adv-x="1187" 
d="M958 1831l121 -25q-6 -128 -101.5 -208t-250.5 -80q-162 0 -244 85.5t-51 211.5l121 8q-9 -65 37.5 -98t138.5 -33q101 0 161 37t68 102zM1284 1413l-506 -1059q-40 -86 -77.5 -147t-84.5 -112t-103.5 -78.5t-123.5 -32.5q-64 -4 -154 6t-147 26l41 185q74 -4 113 -5
t80 3.5t59.5 12.5t43.5 30t40.5 46t42.5 70l27 48h-66q-67 0 -102.5 30t-47.5 92l-182 885h256l139 -774q6 -25 33 -25h74l373 799h272z" />
    <glyph glyph-name="uni040F" unicode="&#x40f;" horiz-adv-x="1396" 
d="M1354 1413l-199 -1413h-426l-53 -309h-178l34 309h-456l198 1413h258l-170 -1214h564l168 1214h260z" />
    <glyph glyph-name="uni0410" unicode="&#x410;" horiz-adv-x="1298" 
d="M895 397h-528l-170 -397h-269l615 1350q21 63 94 63h252q32 0 56.5 -21.5t25.5 -52.5l239 -1339h-256zM862 614l-71 480q-3 19 -13 129h-61q-8 -22 -51 -127l-207 -482h403z" />
    <glyph glyph-name="uni0411" unicode="&#x411;" horiz-adv-x="1236" 
d="M500 1204l-54 -377h240q276 0 374.5 -95t63.5 -335q-18 -124 -51.5 -203.5t-94.5 -127t-143.5 -66t-207.5 -18.5q-337 0 -553 18l198 1413q231 12 463 12q223 0 451 -12l-51 -209h-635zM420 639l-64 -446l234 -3q153 0 206.5 45.5t73.5 188.5q7 64 7 106t-22.5 66
t-64.5 33.5t-120 9.5h-250z" />
    <glyph glyph-name="uni0412" unicode="&#x412;" horiz-adv-x="1282" 
d="M74 0l198 1413q185 17 488 17q132 0 218.5 -18t143.5 -61t75 -116.5t3 -183.5q-22 -153 -87.5 -228.5t-194.5 -87.5l-3 -10q152 -12 206 -110.5t28 -272.5q-17 -110 -50.5 -179t-96 -109t-145 -55t-210.5 -15q-376 0 -573 16zM440 825h250q131 0 188.5 44t75.5 167
q15 115 -27.5 151t-178.5 36h-252zM352 193l254 -3q154 0 214 44.5t77 175.5q14 93 -2 141t-64.5 67.5t-148.5 20.5h-268z" />
    <glyph glyph-name="uni0413" unicode="&#x413;" horiz-adv-x="1064" 
d="M70 0l157 1128q20 141 103 215t207 74q426 0 604 -20l-33 -193h-487q-77 0 -105.5 -26.5t-40.5 -106.5l-149 -1071h-256z" />
    <glyph glyph-name="uni0414" unicode="&#x414;" horiz-adv-x="1464" 
d="M1333 14l-45 -323h-198l24 309h-938l-65 -309h-199l45 311l27 197h137q119 205 194.5 430.5t135.5 505.5q26 132 114.5 205t225.5 73h559l-170 -1214h178zM924 199l141 1015h-209q-134 0 -160 -139q-55 -265 -122.5 -478t-172.5 -398h523z" />
    <glyph glyph-name="uni0415" unicode="&#x415;" horiz-adv-x="1159" 
d="M1141 1204h-545q-63 0 -90.5 -27t-36.5 -96l-33 -247h574l-25 -191h-575l-43 -317q-9 -66 12.5 -91.5t85.5 -25.5h534l-6 -197q-176 -16 -579 -16q-175 0 -253 84t-57 235l117 840q19 125 102.5 193.5t225.5 68.5q441 0 625 -18z" />
    <glyph glyph-name="uni0416" unicode="&#x416;" horiz-adv-x="1873" 
d="M1368 737l-2 -8q160 -20 221 -148.5t138 -504.5q11 -50 16 -76h-256q-11 50 -29 140q-17 85 -25.5 124t-23.5 101t-25 88.5t-27 66t-33.5 54.5t-40 33.5t-51.5 24t-63 5.5h-110q3 -72 -6 -143l-68 -494h-248l72 502q6 46 33 135h-105q-127 0 -206 -103t-237 -422
q-36 -73 -56 -112h-273q155 334 213 437q98 172 197 238q75 50 178 62l2 8q-57 9 -100 29.5t-76 67t-54.5 87t-44 129.5t-35 151t-36.5 193q-1 7 -2 11h250q5 -26 15 -76q20 -104 30.5 -152t29.5 -120t36 -103.5t43 -67t59 -48t77 -12.5h125q-3 81 9 167l57 412h246
l-62 -422q-15 -100 -33 -157h93q40 0 76.5 12.5t67.5 35t62.5 60.5t59.5 81.5t61 105.5t63.5 124.5t70.5 146.5q4 9 6 13h262q-135 -294 -161 -346q-92 -179 -181 -251q-83 -65 -199 -79z" />
    <glyph glyph-name="uni0417" unicode="&#x417;" horiz-adv-x="1134" 
d="M211 1202l-8 191q170 37 420 37q123 0 207 -18.5t141.5 -61.5t78 -117t5.5 -182q-22 -153 -86.5 -228.5t-194.5 -87.5l-2 -10q277 -26 225 -383q-29 -208 -133 -283t-356 -75q-302 0 -514 57l31 180q240 -33 436 -33q143 0 203.5 45.5t78.5 176.5q20 133 -25 180t-186 47
h-260l25 190h248q126 0 181.5 44.5t72.5 164.5q17 118 -23 154.5t-176 36.5q-55 0 -115 -3t-93 -5.5t-98.5 -9t-82.5 -7.5z" />
    <glyph glyph-name="uni0418" unicode="&#x418;" horiz-adv-x="1431" 
d="M1192 0h-248l127 887q16 109 45 215h-12q-68 -130 -98 -174l-658 -928h-274l198 1413h248l-125 -885q-14 -100 -49 -217h12q43 88 107 178l651 924h275z" />
    <glyph glyph-name="uni0419" unicode="&#x419;" horiz-adv-x="1431" 
d="M1036 1819h178q-6 -132 -102 -216.5t-248 -84.5q-163 0 -245.5 84.5t-53.5 216.5h176q-15 -91 19 -131.5t117 -40.5q73 0 112.5 41.5t46.5 130.5zM1192 0h-248l127 887q16 109 45 215h-12q-68 -130 -98 -174l-658 -928h-274l198 1413h248l-125 -885q-14 -100 -49 -217h12
q43 88 107 178l651 924h275z" />
    <glyph glyph-name="uni041A" unicode="&#x41a;" horiz-adv-x="1259" 
d="M750 737l-2 -8q138 -22 206 -114q61 -82 108 -287q10 -48 66 -328h-258q-7 38 -20 107q-17 91 -25 132.5t-23 108t-25.5 94.5t-28.5 70t-37 58t-46 35.5t-59.5 25.5t-73.5 6h-124q3 -61 -9 -143l-69 -494h-256l198 1413h256l-59 -422q-13 -90 -35 -157h113q63 0 117.5 28
t91 59t88.5 121t77.5 143.5t91.5 195.5q10 21 15 32h266q-133 -295 -186 -389q-96 -171 -202 -235q-68 -42 -156 -52z" />
    <glyph glyph-name="uni041B" unicode="&#x41b;" horiz-adv-x="1359" 
d="M1315 1413l-199 -1413h-256l172 1214h-209q-77 0 -113 -30.5t-51 -108.5q-58 -254 -84.5 -360t-67 -228.5t-87.5 -210.5q-164 -305 -461 -280l-8 205q35 8 60.5 17t57.5 27t60.5 48.5t54.5 73.5q65 105 108 255.5t124 518.5q62 272 344 272h555z" />
    <glyph glyph-name="uni041C" unicode="&#x41c;" horiz-adv-x="1828" 
d="M1386 1413h263q49 0 73.5 -28t18.5 -76l-127 -1309h-250l127 1206h-35l-377 -944q-29 -82 -114 -82h-195q-44 0 -69.5 24t-30.5 66l-125 936h-39l-209 -1206h-250l238 1317q9 50 34 73t72 23h258q81 0 94 -90l105 -766q11 -90 14 -195h33q46 132 70 189l307 780
q29 79 114 82z" />
    <glyph glyph-name="uni041D" unicode="&#x41d;" horiz-adv-x="1384" 
d="M1341 1413l-198 -1413h-256l90 645h-555l-90 -645h-258l198 1413h258l-77 -555h555l77 555h256z" />
    <glyph glyph-name="uni041E" unicode="&#x41e;" horiz-adv-x="1376" 
d="M793 1440q206 0 324 -70t161.5 -234.5t5.5 -439.5q-29 -210 -77 -347.5t-129 -222t-189.5 -119t-267.5 -34.5q-103 0 -182 16t-143 52t-103.5 93t-63.5 140t-23.5 192.5t17.5 250.5q28 205 75.5 339.5t127.5 222t192 124.5t275 37zM782 1221q-96 0 -158 -23.5t-108 -85.5
t-74 -159.5t-51 -256.5q-31 -191 -16.5 -302.5t72.5 -156t180 -44.5q123 0 196.5 47t118.5 159t74 318q18 123 20.5 207t-9.5 143.5t-44 92t-80 47t-121 14.5z" />
    <glyph glyph-name="uni041F" unicode="&#x41f;" horiz-adv-x="1386" 
d="M1343 1413l-198 -1413h-258l170 1214h-555l-170 -1214h-258l198 1413h1071z" />
    <glyph glyph-name="uni0420" unicode="&#x420;" horiz-adv-x="1224" 
d="M74 0l198 1413q192 19 500 19q265 0 365.5 -106t64.5 -357q-15 -113 -42 -190.5t-65 -128.5t-99 -79t-133 -38.5t-179 -10.5q-145 0 -278 19l-76 -541h-256zM432 731h240q146 0 200.5 50.5t77.5 205.5q11 57 7 97.5t-14 67t-36 42t-59.5 21.5t-83.5 6h-262z" />
    <glyph glyph-name="uni0421" unicode="&#x421;" horiz-adv-x="1175" 
d="M1030 221l12 -194q-97 -29 -195 -40.5t-239 -11.5q-314 0 -427.5 176t-57.5 566q28 206 75 341t126 221t189.5 122.5t270.5 36.5q141 0 227 -10.5t181 -36.5l-37 -193q-178 14 -377 14q-73 0 -124 -13t-95 -45.5t-74 -91.5t-53.5 -148t-40.5 -218q-31 -188 -17 -297.5
t69 -153t171 -44.5q225 -2 416 20z" />
    <glyph glyph-name="uni0422" unicode="&#x422;" horiz-adv-x="1196" 
d="M1243 1194h-434l-168 -1194h-256l168 1194h-432l31 219h1122z" />
    <glyph glyph-name="uni0423" unicode="&#x423;" horiz-adv-x="1187" 
d="M1284 1413l-506 -1059q-40 -86 -77.5 -147t-84.5 -112t-103.5 -78.5t-123.5 -32.5q-64 -4 -154 6t-147 26l41 185q74 -4 113 -5t80 3.5t59.5 12.5t43.5 30t40.5 46t42.5 70l27 48h-66q-67 0 -102.5 30t-47.5 92l-182 885h256l139 -774q6 -25 33 -25h74l373 799h272z" />
    <glyph glyph-name="uni0424" unicode="&#x424;" horiz-adv-x="1693" 
d="M1106 1495l-25 -192q341 -19 469 -154t84 -442q-28 -209 -107 -331t-225.5 -181t-388.5 -68l-26 -188h-256l24 190q-141 8 -240.5 32t-171 69.5t-106.5 113.5t-46 163.5t9 219.5q22 156 70 261.5t136 175t212 102t305 39.5l25 190h258zM1040 1100l-110 -764
q155 9 243.5 48.5t135 119.5t67.5 223q28 205 -42.5 284t-293.5 89zM696 334l109 764q-229 -13 -322.5 -96.5t-122.5 -294.5q-12 -102 -6 -171t46 -112t109.5 -64t186.5 -26z" />
    <glyph glyph-name="uni0425" unicode="&#x425;" horiz-adv-x="1275" 
d="M889 727l272 -727h-260l-223 639h-39l-401 -639h-291l479 727l-248 686h258l201 -590h41l381 590h276z" />
    <glyph glyph-name="uni0426" unicode="&#x426;" horiz-adv-x="1439" 
d="M1333 199l-26 -199l-43 -309h-199l25 309h-1014l198 1413h258l-170 -1214h537l170 1214h256l-170 -1214h178z" />
    <glyph glyph-name="uni0427" unicode="&#x427;" horiz-adv-x="1304" 
d="M1262 1413l-199 -1413h-256l88 631q-117 -67 -241 -102t-214 -35q-178 0 -253 84t-52 256l82 579h258l-74 -536q-17 -87 15.5 -123.5t122.5 -36.5q94 0 180 27t207 94l80 575h256z" />
    <glyph glyph-name="uni0428" unicode="&#x428;" horiz-adv-x="1941" 
d="M1898 1413l-198 -1413h-1626l198 1413h252l-172 -1214h439l170 1214h249l-170 -1214h437l172 1214h249z" />
    <glyph glyph-name="uni0429" unicode="&#x429;" horiz-adv-x="2004" 
d="M1896 199l-26 -199l-43 -309h-197l25 309h-1579l198 1413h252l-172 -1214h432l172 1214h250l-170 -1214h432l170 1214h250l-168 -1214h174z" />
    <glyph glyph-name="uni042A" unicode="&#x42a;" horiz-adv-x="1531" 
d="M766 872h231q181 0 282 -43t139 -143t14 -272q-18 -127 -51.5 -209t-94 -132t-143 -69.5t-207.5 -19.5q-359 0 -549 16l168 1194h-438l33 219h692zM672 197h223q106 0 160 20t80 68.5t41 150.5q15 88 5.5 141.5t-55 76t-145.5 22.5h-244z" />
    <glyph glyph-name="uni042B" unicode="&#x42b;" horiz-adv-x="1785" 
d="M455 872h233q182 0 282.5 -43t138 -142.5t13.5 -272.5q-17 -127 -50.5 -209t-94 -132t-142.5 -69.5t-206 -19.5q-363 0 -555 16l198 1413h258zM1741 1413l-199 -1413h-258l199 1413h258zM358 197h228q64 0 106 6.5t73 21t50 43.5t30.5 67.5t20.5 100.5q16 88 6.5 141.5
t-55 76t-145.5 22.5h-246z" />
    <glyph glyph-name="uni042C" unicode="&#x42c;" horiz-adv-x="1224" 
d="M455 872h235q269 0 369 -101.5t65 -356.5q-18 -128 -51.5 -209.5t-93.5 -131.5t-142.5 -69.5t-207.5 -19.5q-363 0 -555 16l198 1413h258zM358 197h230q64 0 106 6.5t73 21t50 43.5t30.5 67.5t20.5 100.5q14 88 5 141.5t-54 76t-145 22.5h-248z" />
    <glyph glyph-name="uni042D" unicode="&#x42d;" horiz-adv-x="1187" 
d="M201 1198l-11 195q170 45 377 45q115 0 201 -16t153.5 -51.5t107.5 -93t63.5 -140t22 -192t-18.5 -249.5q-26 -204 -74.5 -338.5t-130.5 -218.5t-193 -121.5t-272 -42.5q-240 -7 -424 56l35 192q190 -28 391 -20q94 5 156.5 28t110 75.5t76.5 132.5t52 206h-585l24 191
h590q5 57 5.5 103.5t-4 82.5t-15.5 64t-24 48t-34.5 33.5t-43.5 22t-54 13t-61.5 6t-71.5 1.5q-155 0 -348 -12z" />
    <glyph glyph-name="uni042E" unicode="&#x42e;" horiz-adv-x="1939" 
d="M451 831h286q32 175 81.5 291.5t125.5 187.5t174 100.5t236 29.5q99 0 176.5 -16t141 -52t103.5 -93.5t65 -140t24.5 -192.5t-17.5 -250q-30 -212 -78 -348.5t-129 -221.5t-190.5 -119t-271.5 -34q-196 0 -305.5 62.5t-150.5 207t-13 390.5h-287l-88 -633h-258l198 1413
h258zM1579 717q30 191 16 303t-70 156.5t-175 44.5q-120 0 -192.5 -48.5t-117 -160.5t-73.5 -316q-31 -191 -17.5 -302.5t67 -156t167.5 -44.5q125 0 200 48t121 160t74 316z" />
    <glyph glyph-name="uni042F" unicode="&#x42f;" horiz-adv-x="1275" 
d="M406 643l2 8q-93 14 -149 78t-71 146t-2 176q30 212 154 296.5t369 84.5q298 0 524 -19l-199 -1413h-258l78 555l-236 -2q-71 0 -114 -30.5t-72 -104.5l-168 -418h-278l180 438q93 199 240 205zM883 764l65 457h-239q-130 0 -188.5 -44t-76.5 -163q-19 -127 22.5 -188.5
t160.5 -61.5h256z" />
    <glyph glyph-name="uni0430" unicode="&#x430;" horiz-adv-x="1198" 
d="M973 0h-195l4 174q-76 -90 -182.5 -144t-234.5 -55q-186 -2 -252.5 120.5t-24.5 422.5q14 98 35.5 174.5t48 130.5t63 92.5t73.5 61t88.5 35t98.5 16.5t111 4q112 0 258 -17t246 -42zM842 831l-183 3q-63 0 -101.5 -3.5t-74.5 -16.5t-56 -33t-38.5 -59t-29 -89
t-21.5 -127q-15 -108 -18 -169.5t9 -96.5t34.5 -45.5t66.5 -10.5q87 0 166.5 48.5t179.5 150.5z" />
    <glyph glyph-name="uni0431" unicode="&#x431;" 
d="M1126 1487l23 -217q-114 -38 -261.5 -49t-215.5 -29q-58 -14 -102.5 -35.5t-72 -43.5t-50.5 -55.5t-35.5 -60t-28.5 -69.5q-31 -71 -49 -144l2 2q31 41 59.5 69t73.5 58t107.5 45t140.5 15q98 0 169.5 -24t112 -67t63 -104t23 -134.5t-7.5 -158.5q-32 -271 -158 -390.5
t-376 -119.5q-102 0 -179 19.5t-126 49t-79 82t-43 101.5t-12.5 125.5t6.5 134.5t19 148q12 84 23.5 148t27 130.5t34.5 116t44 99t57 86t72 69.5t91 57.5t112 42.5q86 26 256 47t280 56zM655 778q-80 0 -132 -16.5t-83.5 -56t-47.5 -90t-27 -132.5q-24 -174 13.5 -241.5
t164.5 -67.5q124 0 186 69t90 257q10 85 10.5 139t-21 85t-56.5 42.5t-97 11.5z" />
    <glyph glyph-name="uni0432" unicode="&#x432;" horiz-adv-x="1126" 
d="M754 537l-2 -9q145 -9 201 -79t36 -209q-25 -149 -129.5 -208t-347.5 -59q-97 0 -166.5 9.5t-125 33.5t-87 63.5t-48.5 101t-15.5 143.5t18.5 194q20 130 50 218.5t72 147.5t105.5 91.5t139 45t184.5 11.5q64 -1 114.5 -5.5t111 -22.5t97.5 -48t56 -85.5t4 -131.5
q-37 -184 -268 -202zM348 592l209 20q85 8 135 25t68 38t26 54q15 64 -27 88.5t-155 24.5q-67 0 -106.5 -9t-70 -37.5t-47.5 -75t-32 -128.5zM549 449l-227 -21q-7 -61 -8.5 -103t5.5 -72t18 -47t34 -26.5t48.5 -12.5t65.5 -3q136 0 193.5 29.5t69.5 113.5q10 84 -31.5 118
t-167.5 24z" />
    <glyph glyph-name="uni0433" unicode="&#x433;" horiz-adv-x="1077" 
d="M150 778l-5 185q186 59 428 69q57 4 112 1t104.5 -9.5t90 -24.5t69 -44.5t41.5 -70.5t7 -102q-7 -60 -34 -110.5t-53 -79.5t-76 -58.5t-69.5 -37.5t-65.5 -25l-15 -6l-274 -107q-69 -28 -95.5 -50t-29.5 -54q-4 -49 32.5 -63t122.5 -11q246 6 478 74l10 -191
q-233 -90 -494 -90q-206 0 -308 70t-85 217q11 109 79 173.5t202 113.5l251 96q103 35 143.5 64t41.5 69q2 26 -11.5 38t-61 17.5t-138.5 -0.5q-90 -3 -169 -13.5t-228 -39.5z" />
    <glyph glyph-name="uni0434" unicode="&#x434;" horiz-adv-x="1175" 
d="M291 1288l37 174q86 -10 160 -25t144.5 -38t128 -54t109 -71.5t88 -91t65.5 -113.5t41 -138t15 -164.5t-14 -193.5q-21 -154 -60 -262t-105 -186t-165 -115t-237 -37q-241 0 -340.5 119t-67.5 363q29 229 141 348t324 119q167 0 270 -91q-3 70 -17.5 126t-37 98t-59.5 75
t-76.5 56.5t-98 42.5t-113.5 32t-132 27zM514 172q136 0 199 94.5t96 333.5l10 70q-89 55 -201 55q-127 0 -187 -67.5t-83 -215.5q-22 -150 15.5 -210t150.5 -60z" />
    <glyph glyph-name="uni0435" unicode="&#x435;" horiz-adv-x="1122" 
d="M932 203l16 -162q-82 -34 -199.5 -50t-226.5 -16q-269 0 -372.5 135.5t-67.5 417.5q19 148 57 244t107 154.5t164.5 82t238.5 23.5q104 0 179.5 -15.5t121.5 -44t72.5 -70t31 -92.5t-2.5 -112q-21 -149 -115.5 -213.5t-288.5 -76.5l-317 -27q3 -120 57.5 -161.5
t167.5 -41.5q161 0 377 25zM344 549l287 24q86 6 126 37.5t50 110.5q3 28 0.5 47.5t-13.5 32.5t-22.5 20t-38.5 10.5t-49 4t-66 0.5q-92 -1 -142.5 -24.5t-81 -83.5t-50.5 -179z" />
    <glyph glyph-name="uni0436" unicode="&#x436;" horiz-adv-x="1574" 
d="M1124 524l-2 -6q38 -5 66 -12.5t52.5 -24.5t41 -29.5t34.5 -48t28 -58t26.5 -80.5t25.5 -95t30 -121q8 -32 12 -49h-236q-57 243 -76 295q-33 94 -84 120q-32 16 -84 17h-92q3 -55 -2 -94l-45 -338h-221l51 346q2 27 21 86h-84q-27 0 -49 -4.5t-44 -17.5t-39 -26
t-39.5 -43t-39.5 -55.5t-45.5 -76.5t-50.5 -93t-60 -116h-252q137 264 159 303q71 122 137 167q62 41 169 54l2 8q-50 6 -85.5 19.5t-62 38.5t-45 57.5t-34.5 84.5t-29.5 111t-31.5 145q-2 11 -3 16h238q14 -65 21 -99t19 -81t20.5 -69.5t21.5 -52.5t26 -43t31 -26.5
t39.5 -18t48.5 -4.5h88q-3 52 4 121l39 273h222l-41 -279q-11 -72 -25 -115h63q36 0 65 8.5t58 32t51.5 49t53.5 77.5t56 98t67 129h245q-118 -237 -161 -304q-69 -108 -148 -146q-51 -23 -121 -30z" />
    <glyph glyph-name="uni0437" unicode="&#x437;" horiz-adv-x="1036" 
d="M150 807l-9 180q136 39 346 39q128 0 210.5 -11.5t142 -42t80.5 -86t10 -141.5q-16 -111 -69.5 -164t-174.5 -63l-2 -6q128 -10 179 -77t32 -195q-9 -68 -32 -114t-57.5 -75.5t-91.5 -45.5t-123 -22t-165 -6q-250 0 -434 39l31 181q219 -19 385 -19q142 0 188 24.5
t55 104.5q9 70 -29.5 93.5t-156.5 25.5l-272 4l20 166h260q113 0 159 28t56 103q5 18 2.5 32t-4.5 24t-13 17.5t-24.5 12.5t-38 7.5t-53.5 3.5t-72 1q-180 0 -335 -18z" />
    <glyph glyph-name="uni0438" unicode="&#x438;" 
d="M1104 1004l-139 -1004h-193l8 199q-123 -117 -228.5 -171.5t-217.5 -54.5q-139 0 -203 76t-43 207l105 748h247l-96 -682q-12 -77 7 -107.5t79 -30.5q74 0 146 43t196 150l86 627h246z" />
    <glyph glyph-name="uni0439" unicode="&#x439;" 
d="M850 1450h176q-5 -132 -100.5 -216.5t-247.5 -84.5q-163 0 -245.5 84.5t-53.5 216.5h176q-15 -91 18.5 -131.5t116.5 -40.5q73 0 113 41.5t47 130.5zM1104 1004l-139 -1004h-193l8 199q-123 -117 -228.5 -171.5t-217.5 -54.5q-139 0 -203 76t-43 207l105 748h247
l-96 -682q-12 -77 7 -107.5t79 -30.5q74 0 146 43t196 150l86 627h246z" />
    <glyph glyph-name="uni043A" unicode="&#x43a;" horiz-adv-x="1118" 
d="M664 524l-2 -8q148 -17 195.5 -95.5t108.5 -353.5q10 -44 15 -67h-246q-54 235 -71 285q-32 95 -84 124q-37 20 -105 21h-121q3 -48 -2 -94l-49 -336h-246l142 1004h245l-36 -279q-7 -45 -29 -113h94q27 0 49.5 3t43.5 11t38 16.5t35 26t31.5 32t31 42.5t30 50t32 61
t33.5 69t37 81h264q-113 -236 -158 -307q-67 -103 -149 -140q-51 -24 -127 -33z" />
    <glyph glyph-name="uni043B" unicode="&#x43b;" horiz-adv-x="1185" 
d="M1102 1004l-141 -1004h-248l114 819h-155q-57 0 -86.5 -26t-48.5 -95q-59 -237 -152 -479q-51 -138 -149 -188.5t-248 -40.5l-19 196q9 2 33.5 5.5t33.5 5t28 7t28.5 13t23.5 19.5t25 29.5t21 41.5q74 173 145 455q33 125 100.5 183.5t192.5 58.5h502z" />
    <glyph glyph-name="uni043C" unicode="&#x43c;" horiz-adv-x="1564" 
d="M1128 1004h240q43 0 65.5 -25t18.5 -68l-92 -911h-225l79 821h-30l-279 -626q-15 -39 -37 -56.5t-61 -17.5h-168q-76 0 -86 82l-111 618h-32l-146 -821h-225l162 918q8 46 30.5 66t67.5 20h233q74 0 84 -82l84 -480q18 -132 19 -163h29q5 14 12.5 38t12.5 39t13 35.5
t17 38.5l225 502q18 38 40.5 55t59.5 17z" />
    <glyph glyph-name="uni043D" unicode="&#x43d;" horiz-adv-x="1208" 
d="M1124 1004l-141 -1004h-244l62 440h-436l-62 -440h-246l142 1004h243l-53 -381h436l56 381h243z" />
    <glyph glyph-name="uni043E" unicode="&#x43e;" horiz-adv-x="1181" 
d="M639 1032q267 0 371 -125.5t63 -414.5q-40 -284 -165.5 -401.5t-387.5 -117.5q-265 0 -371 125t-67 412q38 285 164.5 403.5t392.5 118.5zM639 834q-97 0 -152.5 -28t-90.5 -101.5t-56 -212.5q-26 -189 10.5 -254.5t171.5 -65.5q142 0 204.5 71.5t90.5 266.5
q12 96 12.5 158.5t-22 99.5t-61.5 51.5t-107 14.5z" />
    <glyph glyph-name="uni043F" unicode="&#x43f;" horiz-adv-x="1210" 
d="M395 1004l-6 -207q253 235 467 235q127 0 194.5 -74t47.5 -208l-107 -750h-248l95 680q10 85 -5 114t-69 27q-77 0 -159.5 -45t-213.5 -147l-86 -629h-248l142 1004h196z" />
    <glyph glyph-name="uni0440" unicode="&#x440;" horiz-adv-x="1204" 
d="M395 1004l-6 -201q95 95 210 160t218 65q59 0 103 -10.5t80 -35.5t58 -65.5t33.5 -100.5t9.5 -141.5t-16 -187.5q-13 -97 -33.5 -173t-45 -129.5t-59 -92t-69.5 -61.5t-81.5 -36t-90 -17.5t-100.5 -4.5q-130 0 -309 27q0 -111 -14 -190l-33 -209h-250l201 1403h194z
M334 166l180 -2q64 0 104 3.5t75.5 17.5t55 34.5t37 60.5t27.5 89.5t21 128.5q15 106 17 168.5t-10.5 97t-34.5 45t-63 10.5q-59 0 -154.5 -51.5t-193.5 -140.5z" />
    <glyph glyph-name="uni0441" unicode="&#x441;" horiz-adv-x="1019" 
d="M864 201l17 -166q-155 -60 -371 -60q-269 0 -369 125t-59 412t163 403.5t384 116.5q220 0 354 -59l-37 -152q-204 4 -280 4q-55 0 -94 -5t-74.5 -19t-60 -37t-44 -59.5t-32.5 -87t-21 -119.5q-8 -70 -9.5 -119t7 -85t23.5 -57.5t44 -34.5t64 -17.5t88 -4.5q164 0 307 21z
" />
    <glyph glyph-name="uni0442" unicode="&#x442;" horiz-adv-x="1796" 
d="M389 1004l-4 -199q116 119 216 173t204 54q112 0 174 -55t68 -154q109 110 202.5 159.5t194.5 49.5q133 0 195.5 -75.5t43.5 -206.5l-106 -750h-246l94 684q11 79 -10 108t-76 29q-63 0 -127 -39.5t-188 -154.5l-86 -627h-240l95 684q11 75 -7 106t-79 31
q-66 0 -130.5 -39t-185.5 -147l-88 -635h-246l142 1004h190z" />
    <glyph glyph-name="uni0443" unicode="&#x443;" horiz-adv-x="1150" 
d="M868 1004h260q-92 -462 -282 -844q-73 -152 -152 -263.5t-160 -179.5t-168.5 -106t-175.5 -41.5t-182 12.5l21 191q133 -26 249 27.5t220 199.5h-111q-47 0 -81.5 28t-43.5 72l-180 904h262l129 -787q1 -15 11.5 -24t25.5 -9h96l27 56q165 328 235 764z" />
    <glyph glyph-name="uni0444" unicode="&#x444;" horiz-adv-x="1497" 
d="M979 1434l-53 -406q286 -22 393.5 -147t69.5 -389q-35 -263 -176 -381.5t-439 -133.5l-51 -376h-227l51 379q-287 20 -395.5 143.5t-71.5 386.5q37 266 177.5 385.5t438.5 134.5l58 404h225zM887 834l-96 -660q179 13 258 87t104 247q23 173 -33.5 244.5t-232.5 81.5z
M586 174l94 657q-178 -13 -258 -88t-105 -249q-23 -171 35 -240.5t234 -79.5z" />
    <glyph glyph-name="uni0445" unicode="&#x445;" horiz-adv-x="1114" 
d="M758 516l243 -516h-245l-193 430h-33l-315 -430h-270l391 518l-223 486h243l170 -394h43l289 394h262z" />
    <glyph glyph-name="uni0446" unicode="&#x446;" horiz-adv-x="1257" 
d="M1145 174l-25 -174l-43 -305h-209l70 305q-76 5 -121 55.5t-41 141.5q-119 -116 -224.5 -170t-217.5 -54q-139 0 -203 76t-43 207l105 748h247l-96 -682q-12 -77 7 -107.5t79 -30.5q74 0 146 43t196 150l86 627h246l-107 -791q-2 -18 7 -28.5t26 -10.5h115z" />
    <glyph glyph-name="uni0447" unicode="&#x447;" horiz-adv-x="1130" 
d="M1047 1004l-142 -1004h-250l58 414q-88 -40 -186 -62t-165 -22q-153 -1 -220 57t-52 180l64 437h247l-51 -369q-9 -67 10.5 -89t88.5 -22q135 0 292 90l54 390h252z" />
    <glyph glyph-name="uni0448" unicode="&#x448;" horiz-adv-x="1763" 
d="M1677 1004l-141 -1004h-193l7 199q-110 -118 -206.5 -172t-197.5 -54q-111 0 -172 54.5t-67 152.5q-104 -110 -194 -158.5t-187 -48.5q-134 0 -196 76t-42 207l105 748h245l-94 -682q-12 -70 10.5 -97.5t83.5 -27.5t112 34t177 148l88 625h240l-97 -682q-11 -67 9 -96
t84 -29q35 0 61.5 7t67.5 35t66 48.5t97 83.5l89 633h245z" />
    <glyph glyph-name="uni0449" unicode="&#x449;" horiz-adv-x="1828" 
d="M1716 174l-24 -174l-43 -305h-209l78 305q-80 2 -127 53t-41 144v2q-110 -118 -206.5 -172t-197.5 -54q-111 0 -172 54.5t-67 152.5q-104 -110 -194 -158.5t-187 -48.5q-134 0 -196 76t-42 207l105 748h245l-94 -682q-12 -70 10.5 -97.5t83.5 -27.5t112 34t177 148
l88 625h240l-97 -682q-9 -67 10 -96t83 -29q35 0 61.5 7t68 35.5t66.5 49t99 84.5l84 631h247l-108 -791q-1 -17 8.5 -28t24.5 -11h114z" />
    <glyph glyph-name="uni044A" unicode="&#x44a;" horiz-adv-x="1304" 
d="M760 1004l-98 -383q83 22 157 22q238 -2 320 -74.5t53 -263.5q-12 -77 -34 -131.5t-54.5 -91.5t-83 -58t-111 -29.5t-145.5 -8.5q-42 0 -71.5 1t-73 4.5t-74.5 10.5t-67.5 19.5t-60.5 30.5t-45.5 45.5t-30.5 62t-8 81.5t15 103l125 469h-403l28 191h662zM616 451
l-36 -144q-19 -78 22.5 -105.5t132.5 -27.5q105 0 148.5 31.5t62.5 124.5q15 83 -16 112t-137 29q-79 0 -177 -20z" />
    <glyph glyph-name="uni044B" unicode="&#x44b;" horiz-adv-x="1527" 
d="M432 1004l-57 -396q119 35 200 35q161 -1 246 -32.5t115 -103.5t12 -202q-13 -95 -42.5 -156.5t-83 -97.5t-125 -50.5t-177.5 -14.5q-41 0 -63.5 0.5t-65.5 3t-69 7.5t-64 15.5t-61 25.5t-48.5 38t-38 52.5t-19 70.5t-1.5 90l103 715h239zM1442 1004l-142 -1004h-247
l141 1004h248zM352 444l-22 -157q-10 -67 30 -90t132 -23q107 0 152 32t58 124q11 84 -19 112.5t-134 28.5q-95 0 -197 -27z" />
    <glyph glyph-name="uni044C" unicode="&#x44c;" horiz-adv-x="1060" 
d="M432 1004l-57 -396q119 35 200 35q238 -2 319.5 -74.5t53.5 -263.5q-13 -95 -42.5 -157t-82.5 -98t-124 -50t-177 -14q-54 0 -83.5 0.5t-85 6.5t-88 16.5t-74 33t-62.5 54t-33 80.5t-6 112l103 715h239zM352 444l-22 -157q-10 -67 30 -90t132 -23q107 0 152.5 32
t57.5 124q12 84 -17.5 112.5t-135.5 28.5q-95 0 -197 -27z" />
    <glyph glyph-name="uni044D" unicode="&#x44d;" horiz-adv-x="1062" 
d="M141 813l-10 168q137 41 336 41q99 0 173 -11t135 -36t98 -65.5t61.5 -100t26 -139.5t-8.5 -183q-36 -293 -168.5 -404t-425.5 -106q-215 0 -360 50l33 166q143 -11 299 -11q94 -3 152 5t101 36t67 76t40 129h-502l23 166h502q3 53 -1 90t-18.5 62t-32.5 39.5t-52.5 22
t-68 9.5t-89.5 2q-135 0 -310 -6z" />
    <glyph glyph-name="uni044E" unicode="&#x44e;" horiz-adv-x="1665" 
d="M391 608h221q26 125 66 206.5t103 130t144 68t197 19.5q76 0 136 -8t111 -25.5t86 -46t62 -70.5t37 -98t12 -128t-12 -162q-22 -153 -60 -250.5t-105.5 -156.5t-159 -82t-228.5 -23q-123 0 -203.5 21t-133 72.5t-71 136t-7.5 212.5h-221l-60 -424h-246l142 1004h245z
M1296 512q11 94 11.5 155t-22.5 96.5t-62.5 49.5t-108.5 14q-140 0 -200.5 -69t-86.5 -260q-26 -187 9 -251.5t165 -64.5q143 0 206 70t89 260z" />
    <glyph glyph-name="uni044F" unicode="&#x44f;" horiz-adv-x="1124" 
d="M1042 1006l-143 -1006h-242l50 354h-197q-143 0 -174 -92l-94 -262h-250l100 297q27 74 90.5 109t130.5 30l2 8q-214 45 -186 281q7 64 24.5 111.5t49 80t70 53t97 31.5t119.5 15t148 4q257 0 405 -14zM731 528l43 299l-227 2q-100 0 -135 -27.5t-47 -111.5
q-12 -93 17.5 -127.5t125.5 -34.5h223z" />
    <glyph glyph-name="uni0451" unicode="&#x451;" horiz-adv-x="1122" 
d="M537 1194h-86q-62 0 -56 57l21 119q5 32 21 47t48 15h78q36 0 49.5 -15t8.5 -47l-21 -119q-6 -57 -63 -57zM883 1194h-86q-62 0 -56 57l21 119q5 32 21 47t48 15h78q36 0 49.5 -15t8.5 -47l-19 -119q-5 -30 -20 -43.5t-45 -13.5zM932 203l16 -162q-82 -34 -199.5 -50
t-226.5 -16q-269 0 -372.5 135.5t-67.5 417.5q19 148 57 244t107 154.5t164.5 82t238.5 23.5q104 0 179.5 -15.5t121.5 -44t72.5 -70t31 -92.5t-2.5 -112q-21 -149 -115.5 -213.5t-288.5 -76.5l-317 -27q3 -120 57.5 -161.5t167.5 -41.5q161 0 377 25zM344 549l287 24
q86 6 126 37.5t50 110.5q3 28 0.5 47.5t-13.5 32.5t-22.5 20t-38.5 10.5t-49 4t-66 0.5q-92 -1 -142.5 -24.5t-81 -83.5t-50.5 -179z" />
    <glyph glyph-name="uni0452" unicode="&#x452;" horiz-adv-x="1208" 
d="M485 999l-24 -176q-8 -77 -33 -164q225 177 428 177q143 0 207.5 -72.5t44.5 -210.5l-78 -553h-248l70 487q10 76 -14 103.5t-101 27.5q-71 0 -144.5 -34t-184.5 -113l-62 -471h-250l142 999h-138l19 129h137l43 306h248l-43 -306h364l-16 -129h-367z" />
    <glyph glyph-name="uni0453" unicode="&#x453;" horiz-adv-x="1077" 
d="M940 1341l-461 -227l-67 111l422 303zM150 778l-5 185q186 59 428 69q57 4 112 1t104.5 -9.5t90 -24.5t69 -44.5t41.5 -70.5t7 -102q-7 -60 -34 -110.5t-53 -79.5t-76 -58.5t-69.5 -37.5t-65.5 -25l-15 -6l-274 -107q-69 -28 -95.5 -50t-29.5 -54q-4 -49 32.5 -63
t122.5 -11q246 6 478 74l10 -191q-233 -90 -494 -90q-206 0 -308 70t-85 217q11 109 79 173.5t202 113.5l251 96q103 35 143.5 64t41.5 69q2 26 -11.5 38t-61 17.5t-138.5 -0.5q-90 -3 -169 -13.5t-228 -39.5z" />
    <glyph glyph-name="uni0454" unicode="&#x454;" horiz-adv-x="1058" 
d="M1020 977l-33 -164q-37 1 -102 2.5t-116 2.5t-91 1q-67 0 -111 -5t-82.5 -18t-62.5 -38.5t-42.5 -65t-31.5 -98.5h504l-21 -166h-507q-3 -32 -3 -58t3 -48t8 -39t14.5 -30.5t20.5 -23.5t28.5 -17.5t36 -12.5t44.5 -8.5t52.5 -5.5t61.5 -3q109 -4 313 11l12 -168
q-149 -48 -368 -48q-134 0 -226.5 27.5t-154 89t-82.5 164.5t-2 250q20 154 63 254t118 157.5t171.5 80t237.5 22.5q217 0 348 -45z" />
    <glyph glyph-name="uni0455" unicode="&#x455;" horiz-adv-x="1060" 
d="M565 365l-254 114q-116 53 -163 124.5t-35 178.5q15 138 118 195t318 55q228 -3 444 -37l-28 -170q-190 6 -400 6q-45 0 -69 -0.5t-52 -2.5t-41 -6t-26 -11t-18 -18t-7 -27q-3 -22 2 -38t23.5 -30t35 -22.5t54.5 -24.5l256 -114q126 -56 173 -120t32 -177
q-9 -69 -35.5 -117t-64.5 -76.5t-100 -44t-125.5 -20.5t-158.5 -5q-78 0 -137.5 3t-89.5 6.5t-87.5 11t-96.5 12.5l26 174q107 -8 312 -8q126 0 191 7t92 23.5t32 49.5q6 37 -13.5 54t-76.5 42q-6 2 -10 3.5t-10 4.5t-11 5z" />
    <glyph glyph-name="uni0456" unicode="&#x456;" horiz-adv-x="546" 
d="M330 1440h112q36 0 54.5 -21t13.5 -55l-14 -113q-5 -35 -23 -51t-55 -16h-113q-76 0 -67 78l16 110q6 68 76 68zM313 0h-245l139 1004h246z" />
    <glyph glyph-name="uni0457" unicode="&#x457;" horiz-adv-x="540" 
d="M520 1432h78q36 0 48.5 -15t6.5 -47l-18 -119q-6 -57 -64 -57h-86q-31 0 -44.5 13.5t-10.5 43.5l19 119q6 33 22.5 47.5t48.5 14.5zM174 1432h78q36 0 48.5 -15t6.5 -47l-18 -119q-6 -57 -64 -57h-86q-31 0 -44.5 13.5t-10.5 43.5l18 119q5 32 21.5 47t50.5 15zM309 0
h-248l142 1004h248z" />
    <glyph glyph-name="uni0458" unicode="&#x458;" horiz-adv-x="546" 
d="M330 1440h112q36 0 54.5 -21t13.5 -55l-14 -113q-11 -67 -78 -67h-113q-79 0 -67 78l16 110q6 68 76 68zM455 1004l-142 -994q-17 -130 -90.5 -243.5t-185.5 -178.5l-135 117q74 74 113.5 149t52.5 169l139 981h248z" />
    <glyph glyph-name="uni0459" unicode="&#x459;" horiz-adv-x="1671" 
d="M1030 1004l-57 -400q116 39 244 39q219 -1 293.5 -80.5t48.5 -257.5q-11 -79 -34 -134t-56 -90.5t-84.5 -55.5t-109.5 -28t-142 -9q-85 -1 -147.5 4.5t-122.5 24t-96 51t-54.5 88.5t-10.5 133l76 538h-123q-56 0 -84.5 -21.5t-40.5 -72.5q-38 -163 -55.5 -230t-47 -149
t-65.5 -145q-38 -70 -83 -116t-96 -67.5t-98 -28.5t-105 -5l-11 188q113 11 183 109q14 19 26 40.5t21 39t19.5 50t17 52t18 66t17.5 71t21 89t23 98.5q25 105 88 157t175 52h452zM950 442l-22 -155q-9 -66 31.5 -89.5t136.5 -23.5q114 0 159 31.5t58 124.5q10 85 -19 113
t-123 28q-99 0 -221 -29z" />
    <glyph glyph-name="uni045A" unicode="&#x45a;" horiz-adv-x="1683" 
d="M1049 1004l-56 -398q113 37 205 37q161 -1 246 -32.5t115 -103.5t12 -202q-26 -184 -121.5 -250.5t-306.5 -66.5q-42 0 -63 0.5t-65.5 3t-69.5 7.5t-63.5 15t-60.5 24.5t-47.5 37.5t-38 52.5t-19 70.5t-1.5 90l24 176h-389l-65 -465h-228l142 1004h227l-51 -369h389
l51 369h234zM969 444l-23 -157q-8 -67 32.5 -90t135.5 -23q107 0 152 32t57 124q12 84 -17.5 112.5t-134.5 28.5q-84 0 -202 -27z" />
    <glyph glyph-name="uni045B" unicode="&#x45b;" horiz-adv-x="1206" 
d="M485 999l-18 -137q-15 -106 -41 -203q229 177 430 177q142 0 206.5 -72.5t45.5 -210.5l-76 -543q-19 -131 -92 -244t-184 -178l-133 117q72 74 111 149t52 169l66 466q11 74 -14 101.5t-101 27.5q-71 0 -144.5 -34t-184.5 -113l-62 -471h-250l142 999h-138l19 129h137
l43 306h248l-43 -306h364l-16 -129h-367z" />
    <glyph glyph-name="uni045C" unicode="&#x45c;" horiz-adv-x="1118" 
d="M580 1114l-68 111l422 303l106 -187zM664 524l-2 -8q148 -17 195.5 -95.5t108.5 -353.5q10 -44 15 -67h-246q-54 235 -71 285q-32 95 -84 124q-37 20 -105 21h-121q3 -48 -2 -94l-49 -336h-246l142 1004h245l-36 -279q-7 -45 -29 -113h94q27 0 49.5 3t43.5 11t38 16.5
t35 26t31.5 32t31 42.5t30 50t32 61t33.5 69t37 81h264q-113 -236 -158 -307q-67 -103 -149 -140q-51 -24 -127 -33z" />
    <glyph glyph-name="uni045D" unicode="&#x45d;" 
d="M709 1114l-430 240l122 172l392 -303zM1104 1004l-139 -1004h-193l8 199q-123 -117 -228.5 -171.5t-217.5 -54.5q-139 0 -203 76t-43 207l105 748h247l-96 -682q-12 -77 7 -107.5t79 -30.5q74 0 146 43t196 150l86 627h246z" />
    <glyph glyph-name="uni045E" unicode="&#x45e;" horiz-adv-x="1150" 
d="M807 1450h176q-6 -133 -101.5 -217t-248.5 -84q-162 0 -244 85t-53 216h176q-17 -91 16.5 -131.5t118.5 -40.5q73 0 112 41t48 131zM868 1004h260q-92 -462 -282 -844q-73 -152 -152 -263.5t-160 -179.5t-168.5 -106t-175.5 -41.5t-182 12.5l21 191q133 -26 249 27.5
t220 199.5h-111q-47 0 -81.5 28t-43.5 72l-180 904h262l129 -787q1 -15 11.5 -24t25.5 -9h96l27 56q165 328 235 764z" />
    <glyph glyph-name="uni045F" unicode="&#x45f;" 
d="M1104 1004l-139 -1004h-193l8 199q-123 -117 -228.5 -171.5t-217.5 -54.5q-139 0 -203 76t-43 207l105 748h247l-96 -682q-12 -77 7 -107.5t79 -30.5q74 0 146 43t196 150l86 627h246zM463 -86h164l-37 -399h-209z" />
    <glyph glyph-name="uni0490" unicode="&#x490;" horiz-adv-x="1081" 
d="M1153 1380l-29 -176h-503q-71 0 -102.5 -27t-43.5 -106l-149 -1071h-256l157 1128q20 139 101.5 214t208.5 75q293 0 430 -10l65 315h174z" />
    <glyph glyph-name="uni0491" unicode="&#x491;" horiz-adv-x="950" 
d="M965 991l-29 -174h-412q-112 0 -127 -110l-98 -707h-246l109 784q17 117 81 173.5t179 56.5q237 0 356 -6l64 292h170z" />
    <glyph glyph-name="uni04B0" unicode="&#x4b0;" horiz-adv-x="1218" 
d="M786 580h242l-20 -148h-293l-62 -432h-258l62 432h-295l20 148h248l-297 833h264l181 -553q18 -62 30 -172l21 6q32 88 78 172l337 547h275z" />
    <glyph glyph-name="uni04B1" unicode="&#x4b1;" horiz-adv-x="1222" 
d="M727 178h244l-21 -153h-299l-59 -431h-258l59 431h-289l21 153h242l-295 826h260l180 -553q28 -98 31 -172h20q22 85 78 178l336 547h276z" />
    <glyph glyph-name="uni04B6" unicode="&#x4b6;" horiz-adv-x="1396" 
d="M1290 174l-22 -174l-45 -309h-197l27 309h-226l91 627q-248 -131 -486 -131q-168 0 -243.5 85t-51.5 255l82 577h256l-72 -534q-15 -90 16.5 -126t133.5 -36q93 0 183.5 28t209.5 93l80 575h258l-174 -1239h180z" />
    <glyph glyph-name="uni04B7" unicode="&#x4b7;" horiz-adv-x="1191" 
d="M1055 10l-43 -303h-228l80 293h-209l60 414q-89 -40 -188 -62t-165 -22q-153 -1 -220 57t-52 180l64 437h247l-51 -369q-9 -68 10 -89.5t89 -21.5q135 0 292 90l56 390h250l-119 -814h149z" />
    <glyph glyph-name="uni04BA" unicode="&#x4ba;" horiz-adv-x="1325" 
d="M530 1413l-88 -625q124 65 250.5 97.5t231.5 32.5q168 0 243.5 -85t51.5 -255l-80 -578h-258l75 535q12 90 -18.5 125.5t-132.5 35.5q-92 0 -183 -28t-208 -93l-82 -575h-258l198 1413h258z" />
    <glyph glyph-name="uni04C0" unicode="&#x4c0;" horiz-adv-x="575" 
d="M334 0h-258l198 1413h258z" />
    <glyph glyph-name="Wgrave" unicode="&#x1e80;" horiz-adv-x="1955" 
d="M1233 1591l-84 -110l-430 241l123 170zM2015 1413l-436 -1345q-21 -68 -98 -68h-262q-35 0 -61.5 23t-27.5 57l-43 981q-1 18 -2.5 51.5t-2.5 61t-1 51.5h-41q-12 -49 -49 -170l-313 -985q-22 -70 -98 -70h-261q-35 0 -62 23t-28 55l-63 1335h260l20 -1034q3 -88 0 -193
h46q6 24 59 203l303 948q26 76 102 76h244q36 0 59 -25t25 -61l55 -950q9 -138 7 -191h45q16 69 53 199l305 1028h266z" />
    <glyph glyph-name="wgrave" unicode="&#x1e81;" horiz-adv-x="1785" 
d="M1083 1223l-84 -109l-430 240l123 170zM446 184h27q61 0 102 90q39 76 82 256q32 137 70 414q3 27 22 43.5t46 16.5h258q25 0 41.5 -15.5t19.5 -40.5l74 -764h22q45 0 86 80q62 113 117 277q55 176 96 463h256q-61 -308 -153 -547q-78 -206 -156 -322
q-48 -72 -100 -103.5t-135 -31.5h-146q-30 0 -51.5 19t-24.5 47l-65 782h-27q-17 -198 -59 -375q-49 -189 -105 -295q-49 -102 -118.5 -140t-165.5 -38h-137q-30 0 -50.5 18.5t-25.5 47.5l-164 940h258z" />
    <glyph glyph-name="Wacute" unicode="&#x1e82;" horiz-adv-x="1955" 
d="M1487 1708l-463 -227l-68 110l424 305zM2015 1413l-436 -1345q-21 -68 -98 -68h-262q-35 0 -61.5 23t-27.5 57l-43 981q-1 18 -2.5 51.5t-2.5 61t-1 51.5h-41q-12 -49 -49 -170l-313 -985q-22 -70 -98 -70h-261q-35 0 -62 23t-28 55l-63 1335h260l20 -1034q3 -88 0 -193
h46q6 24 59 203l303 948q26 76 102 76h244q36 0 59 -25t25 -61l55 -950q9 -138 7 -191h45q16 69 53 199l305 1028h266z" />
    <glyph glyph-name="wacute" unicode="&#x1e83;" horiz-adv-x="1785" 
d="M1337 1341l-460 -227l-68 111l422 303zM446 184h27q61 0 102 90q39 76 82 256q32 137 70 414q3 27 22 43.5t46 16.5h258q25 0 41.5 -15.5t19.5 -40.5l74 -764h22q45 0 86 80q62 113 117 277q55 176 96 463h256q-61 -308 -153 -547q-78 -206 -156 -322
q-48 -72 -100 -103.5t-135 -31.5h-146q-30 0 -51.5 19t-24.5 47l-65 782h-27q-17 -198 -59 -375q-49 -189 -105 -295q-49 -102 -118.5 -140t-165.5 -38h-137q-30 0 -50.5 18.5t-25.5 47.5l-164 940h258z" />
    <glyph glyph-name="Wdieresis" unicode="&#x1e84;" horiz-adv-x="1955" 
d="M1276 1798h78q36 0 49 -14t8 -47l-20 -117q-6 -59 -64 -59h-86q-61 0 -55 57l20 119q4 32 21 46.5t49 14.5zM930 1798h78q36 0 49 -14t8 -47l-21 -117q-6 -59 -63 -59h-86q-61 0 -55 57l20 119q4 32 21 46.5t49 14.5zM2015 1413l-436 -1345q-21 -68 -98 -68h-262
q-35 0 -61.5 23t-27.5 57l-43 981q-1 18 -2.5 51.5t-2.5 61t-1 51.5h-41q-12 -49 -49 -170l-313 -985q-22 -70 -98 -70h-261q-35 0 -62 23t-28 55l-63 1335h260l20 -1034q3 -88 0 -193h46q6 24 59 203l303 948q26 76 102 76h244q36 0 59 -25t25 -61l55 -950q9 -138 7 -191
h45q16 69 53 199l305 1028h266z" />
    <glyph glyph-name="wdieresis" unicode="&#x1e85;" horiz-adv-x="1785" 
d="M1126 1432h80q36 0 48.5 -15t7.5 -47l-19 -119q-6 -57 -65 -57h-86q-60 0 -54 55l19 121q5 32 21 47t48 15zM782 1432h78q36 0 48 -15t7 -47l-18 -119q-6 -57 -66 -57h-86q-59 0 -53 55l19 121q9 62 71 62zM446 184h27q61 0 102 90q39 76 82 256q32 137 70 414
q3 27 22 43.5t46 16.5h258q25 0 41.5 -15.5t19.5 -40.5l74 -764h22q45 0 86 80q62 113 117 277q55 176 96 463h256q-61 -308 -153 -547q-78 -206 -156 -322q-48 -72 -100 -103.5t-135 -31.5h-146q-30 0 -51.5 19t-24.5 47l-65 782h-27q-17 -198 -59 -375q-49 -189 -105 -295
q-49 -102 -118.5 -140t-165.5 -38h-137q-30 0 -50.5 18.5t-25.5 47.5l-164 940h258z" />
    <glyph glyph-name="Ygrave" unicode="&#x1ef2;" horiz-adv-x="1200" 
d="M766 1483l-430 241l123 170l391 -303zM705 475l-66 -475h-258l70 487l-330 926h260l178 -553q26 -80 33 -172h20q18 79 78 178l334 547h279z" />
    <glyph glyph-name="ygrave" unicode="&#x1ef3;" horiz-adv-x="1146" 
d="M662 1114l-431 240l123 172l391 -303zM864 1004h260q-99 -490 -284 -844q-82 -156 -165 -263t-173.5 -171.5t-180.5 -96.5t-206 -47l-39 168q134 30 229.5 83t183.5 167h-104q-47 0 -82.5 28t-42.5 72l-182 904h262l129 -787q7 -33 39 -33h94l27 56q86 185 141 358.5
t94 405.5z" />
    <glyph glyph-name="endash" unicode="&#x2013;" horiz-adv-x="1175" 
d="M1020 432h-914l25 176h913z" />
    <glyph glyph-name="emdash" unicode="&#x2014;" horiz-adv-x="1789" 
d="M1634 432h-1528l25 176h1528z" />
    <glyph glyph-name="quoteleft" unicode="&#x2018;" horiz-adv-x="460" 
d="M311 956h-63q-49 0 -67.5 20t-10.5 64l16 119q23 153 136 318l114 -37q-59 -159 -74 -232q39 1 58 -18t14 -53l-16 -103q-9 -46 -31 -62t-76 -16z" />
    <glyph glyph-name="quoteright" unicode="&#x2019;" horiz-adv-x="456" 
d="M315 1456h66q48 0 66.5 -20t9.5 -64l-17 -119q-20 -148 -133 -317l-114 37q53 142 73 233q-40 -3 -58 16t-13 54l14 104q11 45 32 60.5t74 15.5z" />
    <glyph glyph-name="quotesinglbase" unicode="&#x201a;" horiz-adv-x="481" 
d="M164 250h65q48 0 66.5 -20.5t9.5 -65.5l-16 -119q-20 -150 -133 -315l-115 37q53 139 74 231q-40 -3 -58.5 17t-13.5 55l14 102q11 46 33 62t74 16z" />
    <glyph glyph-name="quotedblleft" unicode="&#x201c;" horiz-adv-x="811" 
d="M664 956h-66q-48 0 -66.5 20t-9.5 64l17 119q20 153 133 318l114 -37q-52 -140 -73 -232q40 1 58 -17.5t13 -53.5l-14 -103q-11 -46 -32 -62t-74 -16zM311 956h-63q-49 0 -67.5 20t-10.5 64l16 119q23 153 136 318l114 -37q-59 -159 -74 -232q39 1 58 -18t14 -53
l-16 -103q-9 -46 -31 -62t-76 -16z" />
    <glyph glyph-name="quotedblright" unicode="&#x201d;" horiz-adv-x="806" 
d="M315 1456h66q48 0 66.5 -20t9.5 -64l-17 -119q-20 -148 -133 -317l-114 37q53 142 73 233q-40 -3 -58 16t-13 54l14 104q11 45 32 60.5t74 15.5zM668 1456h63q49 0 67.5 -20t10.5 -64l-16 -119q-22 -147 -136 -317l-114 37q57 154 73 233q-39 -3 -57.5 16t-13.5 54
l16 104q9 44 31 60t76 16z" />
    <glyph glyph-name="quotedblbase" unicode="&#x201e;" horiz-adv-x="833" 
d="M164 248h65q48 0 66.5 -20t9.5 -64l-16 -121q-20 -150 -133 -315l-115 36q55 147 74 232q-40 -1 -58.5 18t-13.5 54l14 102q11 46 33 62t74 16zM516 248h64q49 0 67 -19.5t10 -64.5l-16 -121q-23 -152 -135 -315l-115 36q59 159 74 232q-39 -1 -57 18t-15 54l17 102
q9 46 30.5 62t75.5 16z" />
    <glyph glyph-name="dagger" unicode="&#x2020;" horiz-adv-x="944" 
d="M465 -225h-217l164 1083l18 135l49 422h217l-71 -422l-21 -135zM930 1004l-27 -201l-262 24l25 177h264zM98 803l29 201h264l-24 -177z" />
    <glyph glyph-name="daggerdbl" unicode="&#x2021;" horiz-adv-x="1019" 
d="M664 1001l-115 -813l-47 -413h-217l69 413l115 813l47 414h217zM403 827l-268 -24l29 201h264zM940 803l-262 24l27 177h264zM854 186h-264l24 176l267 25zM338 362l-23 -176h-264l27 201z" />
    <glyph glyph-name="bullet" unicode="&#x2022;" horiz-adv-x="751" 
d="M381 760h29q107 0 147 -46t25 -153l-4 -26q-17 -117 -62 -158t-154 -41h-30q-112 0 -151.5 46.5t-24.5 160.5l4 28q15 110 60.5 149.5t160.5 39.5z" />
    <glyph glyph-name="ellipsis" unicode="&#x2026;" horiz-adv-x="1792" 
d="M131 281h72q96 0 84 -93l-15 -104q-12 -84 -94 -84h-74q-99 0 -84 94l15 105q12 82 96 82zM786 281h72q96 0 84 -93l-14 -104q-12 -84 -94 -84h-74q-99 0 -84 94l14 105q12 82 96 82zM1442 281h71q96 0 84 -93l-14 -104q-12 -84 -94 -84h-74q-99 0 -84 94l15 105
q12 82 96 82z" />
    <glyph glyph-name="perthousand" unicode="&#x2030;" horiz-adv-x="2627" 
d="M518 1440q195 0 262 -98t35 -332q-32 -229 -116 -319.5t-269 -90.5q-192 0 -259.5 98.5t-35.5 331.5q34 229 117.5 319.5t265.5 90.5zM489 0h-180l1073 1413h183zM522 1292q-103 0 -141 -56.5t-62 -225.5q-23 -154 -1 -208t108 -54q106 0 144.5 56t62.5 226
q22 153 -1 207.5t-110 54.5zM1444 817q195 0 262 -98t35 -332q-32 -229 -116.5 -319.5t-270.5 -90.5q-191 0 -258 98.5t-35 330.5q34 229 117.5 320t265.5 91zM2220 817q195 0 263 -98.5t36 -331.5q-34 -229 -118 -319.5t-269 -90.5q-192 0 -258.5 98.5t-34.5 330.5
q32 229 115.5 320t265.5 91zM1448 670q-54 0 -87.5 -13t-56 -48.5t-35 -85.5t-24.5 -136q-23 -155 -1 -209.5t108 -54.5q105 0 144 57t63 226q22 154 -1 209t-110 55zM2226 670q-104 0 -142.5 -57.5t-62.5 -225.5q-22 -155 0 -209.5t107 -54.5q106 0 145.5 57.5t61.5 225.5
q22 154 0 209t-109 55z" />
    <glyph glyph-name="guilsinglleft" unicode="&#x2039;" horiz-adv-x="614" 
d="M549 858l-279 -344l201 -360l-123 -82l-282 426l4 53l372 395z" />
    <glyph glyph-name="guilsinglright" unicode="&#x203a;" horiz-adv-x="616" 
d="M524 522l-4 -55l-373 -395l-106 90l278 344l-200 358l123 82z" />
    <glyph glyph-name="fraction" unicode="&#x2044;" horiz-adv-x="327" 
d="M-260 0h-186l1062 1413h185z" />
    <glyph glyph-name="Euro" unicode="&#x20ac;" horiz-adv-x="1294" 
d="M1284 1391l-37 -193q-55 9 -151.5 13.5t-180.5 0.5q-142 -7 -222 -76t-124 -214h484l-37 -142h-479l-15 -82q-1 -7 -3 -20.5t-3 -20.5h434l-37 -141h-407q-2 -159 55 -235t187 -82q197 -10 378 22l9 -194q-158 -52 -375 -52q-271 0 -397 134t-121 407h-166l22 141h152
l8 60q3 26 10 63h-153l20 142h162q69 265 219 390.5t420 125.5q195 0 348 -47z" />
    <glyph glyph-name="trademark" unicode="&#x2122;" horiz-adv-x="1982" 
d="M1694 1425h174q30 0 46 -19t13 -50l-69 -709h-160l61 645h-22l-211 -489q-11 -28 -27 -39.5t-45 -11.5h-115q-29 0 -46 16t-19 43l-80 481h-25l-114 -645h-160l129 719q6 32 19.5 45.5t43.5 13.5h168q28 0 45 -16.5t19 -42.5l65 -391q2 -18 5.5 -57.5t5.5 -57.5h20
q12 55 35 113l174 403q11 26 26.5 37.5t43.5 11.5zM643 1284l-90 -637h-174l90 637h-254l18 141h682l-16 -141h-256z" />
    <glyph glyph-name="partialdiff" unicode="&#x2202;" horiz-adv-x="1173" 
d="M342 1257l10 183q128 2 227 -5.5t187.5 -29t149.5 -59t106 -95.5t64.5 -138.5t18.5 -187.5t-26 -243q-67 -363 -212 -535t-402 -172q-86 0 -155 20.5t-115 57t-76.5 85t-43.5 106t-13.5 118t12.5 123.5q17 91 54 169.5t94.5 141t142 98t186.5 34.5q195 -3 295 -133
q16 95 18 160.5t-14.5 119.5t-51.5 87t-97.5 55.5t-148.5 31t-210 8.5zM477 188q60 0 109 22.5t84 61.5t63.5 101t48.5 130t39 159q-97 65 -213 65q-238 0 -293 -264q-52 -275 162 -275z" />
    <glyph glyph-name="emptyset" unicode="&#x2205;" horiz-adv-x="1402" 
d="M717 1296q122 0 232.5 -47.5t190.5 -127.5t127.5 -190.5t47.5 -232.5t-47.5 -233.5t-127.5 -191.5t-190.5 -127.5t-232.5 -47.5t-233.5 47.5t-191.5 127.5t-127.5 191.5t-47.5 233.5t47.5 232.5t127.5 190.5t191.5 127.5t233.5 47.5zM653 494h111q0 59 20 108.5t48 84
t56 68t48 77t20 94.5q0 190 -239 190q-39 0 -68.5 -1t-56.5 -3.5t-40 -4t-43 -6.5l-42 -7l6 -93q130 19 244 19q64 0 99.5 -25t35.5 -69q0 -36 -20.5 -72.5t-50 -70.5t-58.5 -72.5t-49.5 -95t-20.5 -121.5zM750 350h-80q-15 0 -15 -16v-76q0 -14 15 -14h80q16 0 16 14v76
q0 16 -16 16z" />
    <glyph glyph-name="product" unicode="&#x220f;" horiz-adv-x="1464" 
d="M1479 1212h-193l-199 -1417h-247l200 1417h-448l-199 -1417h-248l199 1417h-192l28 201h1329z" />
    <glyph glyph-name="summation" unicode="&#x2211;" horiz-adv-x="1212" 
d="M1188 1214h-719l244 -522l-437 -749h754l-29 -199h-1032l27 199l448 753l-241 518l26 199h988z" />
    <glyph glyph-name="minus" unicode="&#x2212;" horiz-adv-x="1191" 
d="M1042 512h-921l29 182h921z" />
    <glyph glyph-name="radical" unicode="&#x221a;" horiz-adv-x="1169" 
d="M1305 1794l-744 -1782q-5 -12 -20 -12h-289q-10 0 -20 6.5t-9 13.5l-121 984h199l98 -842h27l670 1632h209z" />
    <glyph glyph-name="infinity" unicode="&#x221e;" horiz-adv-x="1579" 
d="M1214 922q129 0 206.5 -76.5t58.5 -220.5q-21 -144 -119 -222.5t-232 -78.5q-191 0 -340 180q-109 -86 -202 -133t-197 -47q-138 0 -220 85t-60 234q19 140 110 209.5t223 69.5q113 0 194.5 -50.5t156.5 -140.5q103 85 204.5 138t216.5 53zM307 621q-9 -62 22.5 -93.5
t98.5 -31.5q39 1 72.5 11t70 35.5t55.5 42t62 56.5q-43 56 -88 82.5t-121 26.5q-155 0 -172 -129zM1276 635q14 115 -109 115q-29 0 -57.5 -7.5t-47.5 -15.5t-47 -29t-38.5 -30t-41 -37.5t-36.5 -34.5q76 -100 197 -100q74 0 122.5 36t57.5 103z" />
    <glyph glyph-name="integral" unicode="&#x222b;" horiz-adv-x="737" 
d="M205 -125l92 1319q10 133 79 200.5t185 67.5q150 0 234 -8l-33 -178h-123q-60 0 -93 -32.5t-40 -104.5l-90 -1325q-11 -142 -73.5 -205.5t-203.5 -63.5q-158 0 -223 9l35 178h117q65 0 99 33.5t38 109.5z" />
    <glyph glyph-name="approxequal" unicode="&#x2248;" horiz-adv-x="1193" 
d="M309 647l-155 10q-6 147 60 215t181 62q68 -3 223 -54.5t211 -54.5q53 -3 75.5 20t31.5 85l160 -10q6 -140 -56.5 -209.5t-189.5 -65.5q-74 1 -227 53.5t-207 55.5q-51 3 -74.5 -21.5t-32.5 -85.5zM254 252l-158 10q-6 148 61 216t183 63q68 -3 223 -55.5t211 -55.5
q53 -3 75.5 19.5t31.5 82.5l159 -10q12 -281 -245 -272q-74 1 -227.5 53t-207.5 55q-52 1 -74.5 -21.5t-31.5 -84.5z" />
    <glyph glyph-name="notequal" unicode="&#x2260;" horiz-adv-x="1253" 
d="M752 729l-187 -250h506l-27 -182h-614l-188 -254l-66 33l166 221h-219l27 182h327l187 250h-482l27 182h590l168 226l65 -33l-145 -193h243l-26 -182h-352z" />
    <glyph glyph-name="lessequal" unicode="&#x2264;" horiz-adv-x="1138" 
d="M1044 932l-665 -174l620 -166l-28 -191l-819 261l26 194l895 272zM944 129h-891l27 184h891z" />
    <glyph glyph-name="greaterequal" unicode="&#x2265;" horiz-adv-x="1136" 
d="M1034 856l-28 -194l-893 -261l30 205l664 166l-617 170l25 186zM954 129h-891l25 184h893z" />
    <glyph glyph-name="lozenge" unicode="&#x25ca;" horiz-adv-x="1163" 
d="M74 733l602 684q18 21 33 -8l409 -686q12 -23 4 -39l-602 -690q-9 -10 -18.5 -6.5t-14.5 16.5l-413 690q-11 22 0 39zM268 707l262 -459l402 467l-264 454z" />
    <glyph glyph-name="c_t" horiz-adv-x="1732" 
d="M1421 823l-73 -516q-9 -65 10 -87.5t86 -22.5h143l8 -185q-48 -17 -125.5 -26t-128.5 -9q-137 0 -201 78.5t-44 218.5l80 551h-512q-83 0 -135.5 -13t-93 -49.5t-63 -99.5t-34.5 -165q-9 -70 -10.5 -119t7 -85t23.5 -57.5t44 -34.5t64 -17.5t87 -4.5q164 0 303 21
l16 -166q-155 -60 -364 -60q-269 0 -370 125.5t-60 411.5q28 181 89.5 287t171.5 155.5t286 49.5h575l43 288h244l-41 -288h293l-25 -181h-293z" />
    <glyph glyph-name="f_f_y" horiz-adv-x="2594" 
d="M2312 1004h260q-99 -490 -284 -844q-82 -156 -165 -263t-173.5 -171.5t-180.5 -96.5t-206 -47l-39 168q134 30 229.5 83t183.5 167h-104q-47 0 -82.5 28t-42.5 72l-133 652q-13 71 -88 71h-266l-129 -905q-22 -144 -107 -221.5t-235 -77.5q-85 0 -267 19l41 176h146
q89 0 127 29t51 116l123 864h-465l-133 -925q-43 -299 -340 -299q-118 0 -266 18l40 176h144q90 0 128.5 29t51.5 115l127 886h-180l20 170l187 11l20 149q21 143 106.5 221t235.5 78q180 0 303 -18l-41 -177h-182q-90 0 -128 -28.5t-50 -116.5l-17 -108h465l25 170
q21 143 105.5 221t234.5 78q176 0 309 -19l-39 -176h-190q-89 0 -127 -28.5t-51 -116.5l-19 -129h334q211 0 242 -207l96 -580q7 -33 39 -33h94l27 56q86 185 141 358.5t94 405.5z" />
    <glyph glyph-name="f_t" horiz-adv-x="1517" 
d="M1206 823l-73 -516q-9 -65 10 -87.5t86 -22.5h143l10 -185q-50 -17 -127.5 -26t-128.5 -9q-137 0 -201 78.5t-44 218.5l80 549h-455l-133 -925q-43 -299 -340 -299q-118 0 -266 18l40 176h144q90 0 128.5 29t51.5 115l125 886h-178l22 170l183 11l22 170
q21 143 106.5 221t235.5 78q176 0 309 -19l-41 -176h-188q-90 0 -127.5 -28.5t-50.5 -116.5l-19 -129h457l41 288h244l-41 -288h293l-25 -181h-293z" />
    <glyph glyph-name="f_y" horiz-adv-x="1878" 
d="M1597 1004h261q-98 -487 -285 -844q-82 -156 -165 -263t-173.5 -171.5t-181 -96.5t-207.5 -47l-39 168q135 30 231.5 83t182.5 167h-103q-49 0 -83.5 27.5t-43.5 72.5l-131 652q-16 71 -88 71h-266l-133 -925q-43 -299 -340 -299q-118 0 -266 18l40 176h144
q90 0 128.5 29t51.5 115l125 886h-178l22 170l183 11l22 170q21 143 106.5 221t235.5 78q176 0 309 -19l-41 -176h-188q-90 0 -127.5 -28.5t-50.5 -116.5l-19 -129h334q212 0 240 -207l98 -580q7 -33 37 -33h96l27 56q86 185 141 358.5t94 405.5z" />
    <glyph glyph-name="s_t" horiz-adv-x="1785" 
d="M1473 823l-72 -516q-9 -65 10 -87.5t86 -22.5h141l11 -185q-48 -17 -125.5 -26t-128.5 -9q-137 0 -201.5 78.5t-44.5 218.5l80 549h-668q-123 0 -165 -9.5t-48 -47.5q-2 -18 2.5 -32.5t11 -24t26 -21t32 -17.5t43.5 -20l256 -114q127 -56 174 -120t33 -177
q-10 -69 -37 -117t-64.5 -76.5t-100 -44t-126 -20.5t-158.5 -5q-78 0 -137.5 3t-89.5 6.5t-87.5 11t-96.5 12.5l26 174q120 -8 312 -8q127 0 192 7t92 23.5t33 49.5q4 8 1 17t-2 14t-5 12t-8 10.5t-11 9t-14 8.5t-16.5 8.5t-19 9t-22 9.5t-24.5 11l-256 114
q-116 53 -163 124.5t-35 178.5q17 122 120.5 173.5t313.5 48.5h710l43 288h244l-41 -288h293l-25 -181h-294z" />
    <glyph glyph-name="t_t" horiz-adv-x="1566" 
d="M1255 823l-73 -516q-9 -65 10 -87.5t86 -22.5h143l11 -185q-50 -17 -127.5 -26t-128.5 -9q-137 0 -201.5 78.5t-44.5 218.5l80 549h-508l-74 -516q-8 -65 11.5 -87.5t86.5 -22.5h142l10 -185q-50 -17 -127 -26t-127 -9q-137 0 -201.5 78.5t-44.5 218.5l78 549h-182
l22 170l187 11l41 288h245l-41 -288h508l41 288h244l-41 -288h293l-25 -181h-293z" />
    <glyph glyph-name="t_y" horiz-adv-x="1921" 
d="M1640 1004h261q-102 -490 -287 -844q-82 -156 -165 -263t-173.5 -171.5t-180.5 -96.5t-206 -47l-39 168q135 30 230.5 82.5t183.5 167.5h-105q-47 0 -81.5 28t-43.5 72l-131 652q-16 71 -90 71h-311l-74 -516q-8 -65 11.5 -87.5t86.5 -22.5h140l10 -185q-48 -17 -125 -26
t-127 -9q-137 0 -201.5 78.5t-44.5 218.5l78 549h-182l22 170l187 11l41 288h245l-41 -288h353q234 0 272 -232l90 -555q7 -33 39 -33h94l29 56q86 185 141 358.5t94 405.5z" />
    <glyph glyph-name="brevecy" horiz-adv-x="786" 
d="M670 1430h178q-6 -133 -101.5 -217.5t-248.5 -84.5q-162 0 -245 85.5t-52 216.5h174q-15 -91 18.5 -132t116.5 -41q73 0 113 42t47 131z" />
    </font>
</defs>
</svg>
